<svg width="60" height="60" viewBox="0 0 60 60" fill="none" xmlns="http://www.w3.org/2000/svg">
<rect width="60" height="60" fill="white"/>
<path d="M37.974 19.96H35.2982C35.0782 19.96 34.9133 20.0333 34.8217 20.1799L24.3566 33.3941C24.1733 33.614 23.8984 33.7056 23.6418 33.614C23.3669 33.5224 23.1837 33.2474 23.1837 32.9542V20.8214C23.1837 20.5831 23.1103 20.3632 22.9454 20.1982C22.7988 20.0333 22.6155 19.96 22.4322 19.96H19.7381C19.5181 19.96 19.3532 20.0333 19.2616 20.1799L7.44028 34.8053C7.25701 35.0435 7.14704 35.3551 7.12871 35.6667L7.07373 40.2852C7.07373 40.5601 7.1837 40.7801 7.3853 40.8534C7.55025 40.9084 7.7152 40.8717 7.84349 40.7068L18.2535 27.6026C18.4368 27.3826 18.7117 27.291 18.9683 27.3826C19.2432 27.4743 19.4265 27.7492 19.4265 28.0424V40.102C19.4265 40.3219 19.4815 40.5418 19.5915 40.6884C19.7381 40.89 19.9214 41 20.1413 41H22.8354C23.1103 41 23.2203 40.89 23.3669 40.7251L33.8136 27.5659C33.9786 27.346 34.2718 27.2543 34.5284 27.346C34.8033 27.4376 34.9866 27.7125 34.9866 28.0058V40.0653C34.9866 40.3402 35.0782 40.5968 35.2249 40.7617C35.3715 40.9084 35.5364 40.9817 35.738 40.9817H37.919C38.1023 40.9817 38.2856 40.9084 38.4139 40.7984C38.6155 40.6335 38.7071 40.3952 38.7071 40.102V20.8214C38.7071 20.5831 38.6338 20.3632 38.4688 20.1982C38.3589 20.0333 38.1756 19.96 37.974 19.96Z" fill="#1526FF"/>
<path d="M51.9582 29.1237C52.2881 29.1237 52.5263 29.417 52.5263 29.8019V31.1398C52.5263 31.488 52.2881 31.7996 51.9582 31.7996H48.1277C47.9811 31.7996 47.9078 31.8729 47.9261 32.0378V35.1168C47.9261 35.5017 47.6878 35.795 47.3579 35.795H45.9101C45.5802 35.795 45.3419 35.5017 45.3419 35.1168V32.0378C45.3419 31.8729 45.2686 31.7996 45.1403 31.7996H41.3099C40.98 31.7996 40.7417 31.488 40.7417 31.1398V29.8019C40.7417 29.417 40.98 29.1237 41.3099 29.1237H45.1403C45.2869 29.1237 45.3602 29.0321 45.3419 28.8855V25.8248C45.3419 25.4399 45.5802 25.165 45.9101 25.165H47.3579C47.6878 25.165 47.9261 25.4399 47.9261 25.8248V28.8855C47.9261 29.0504 47.9994 29.1237 48.1277 29.1237H51.9582Z" fill="#1526FF"/>
</svg>
