<svg width="130" height="60" viewBox="0 0 130 60" fill="none" xmlns="http://www.w3.org/2000/svg">
<rect width="130" height="60" fill="white"/>
<path d="M77.2736 35.0679C77.3094 35.1723 77.3094 35.2529 77.2736 35.3066C77.2617 35.3245 77.2289 35.3752 77.1065 35.3752H73.2277C73.159 35.3752 73.1083 35.3543 73.0785 35.3156C73.0546 35.2827 73.0248 35.2201 73.0516 35.0679L75 29.7449C75.0358 29.6464 75.0925 29.5868 75.1552 29.5868C75.2029 29.5868 75.2626 29.6226 75.2924 29.7449L77.2766 35.0709L77.2736 35.0679ZM81.3733 38.4604L77.0349 27.1699C76.8917 26.794 76.5486 26.5523 76.1637 26.5523H74.1228C73.7379 26.5523 73.3948 26.797 73.2515 27.1759L68.6983 39.1556L68.6387 39.3227C68.5253 39.633 68.755 39.9612 69.0862 39.9612H70.9332L71.7089 37.6727H72.1744H78.1956H78.6133L79.3831 39.8807L79.404 39.9612H81.242C81.5762 39.9612 81.8059 39.63 81.6896 39.3168L81.3703 38.4634L81.3733 38.4604Z" fill="#1526FF"/>
<path d="M68.2776 36.1689L67.2541 35.3245C67.1258 35.223 67.0005 35.1813 66.8812 35.1962C66.7201 35.2171 66.5918 35.3394 66.5142 35.4409L66.5022 35.4617C66.0398 36.1957 65.4579 36.7418 64.7717 37.0819C64.0794 37.4221 63.1933 37.5951 62.134 37.5951C60.7884 37.5951 59.7172 37.2729 58.9504 36.6373C58.1866 36.0018 57.8136 35.0231 57.8136 33.6417V32.8898C57.8196 30.279 59.2726 28.9542 62.134 28.9542C64.0765 28.9542 65.4967 29.6166 66.359 30.9324L66.3769 30.9533C66.6216 31.2159 66.8782 31.2368 67.1438 31.013L68.1523 30.0701C68.2716 29.9717 68.3343 29.8702 68.3522 29.7479C68.3701 29.6196 68.3313 29.4823 68.2388 29.3451C67.0811 27.4862 65.0283 26.5463 62.134 26.5463C57.6614 26.5463 55.4893 28.626 55.4893 32.9047V33.6208C55.4893 37.9114 57.6644 40 62.134 40C65.0074 40 67.1079 38.9706 68.3671 36.9476L68.388 36.9208C68.4745 36.8193 68.5103 36.6851 68.4894 36.5329C68.4685 36.3837 68.3999 36.2584 68.2806 36.1689" fill="#1526FF"/>
<path d="M94.6806 26.5463H93.2693C93.138 26.5463 93.0217 26.6 92.9322 26.7045C92.8367 26.8149 92.7889 26.9461 92.7889 27.1013V34.5666C92.7889 34.8381 92.6099 34.9993 92.4398 35.0559C92.2698 35.1156 92.0311 35.1007 91.861 34.8889L85.3535 26.6955C85.2938 26.5941 85.1923 26.5463 85.0491 26.5463H83.3156C83.1873 26.5463 83.0769 26.6 82.9903 26.7045C82.9008 26.8119 82.8501 26.9491 82.8501 27.1013V39.4122C82.8501 39.5644 82.8978 39.6987 82.9903 39.8061C83.0798 39.9105 83.1902 39.9642 83.3156 39.9642H84.7448C84.879 39.9642 84.9924 39.9105 85.0819 39.8061C85.1774 39.6957 85.2252 39.5644 85.2252 39.4092V30.4252L92.6577 39.812C92.7173 39.9135 92.8188 39.9642 92.962 39.9642H94.6776C94.8059 39.9642 94.9163 39.9105 95.0118 39.8061C95.1103 39.6957 95.161 39.5614 95.161 39.4092V27.0983C95.161 26.9372 95.1103 26.8029 95.0118 26.6955C94.9193 26.597 94.803 26.5433 94.6806 26.5433" fill="#1526FF"/>
<path d="M111.223 26.5463H109.743C109.615 26.5463 109.504 26.6 109.418 26.7045C109.325 26.8119 109.277 26.9491 109.277 27.1013V39.4122C109.277 39.5644 109.325 39.6987 109.418 39.8061C109.507 39.9105 109.617 39.9642 109.743 39.9642H111.223C111.357 39.9642 111.467 39.9105 111.554 39.8031C111.64 39.6957 111.688 39.5584 111.688 39.4092V27.0983C111.688 26.9402 111.64 26.8029 111.548 26.6955C111.458 26.5941 111.351 26.5433 111.223 26.5433" fill="#1526FF"/>
<path d="M122.262 37.6071C122.167 37.5056 122.05 37.4519 121.925 37.4519H116.527C116.116 37.4519 115.781 37.1177 115.781 36.703V27.1013C115.781 26.9402 115.734 26.8059 115.641 26.6985C115.552 26.597 115.444 26.5463 115.316 26.5463H113.836C113.708 26.5463 113.597 26.6 113.511 26.7045C113.418 26.8149 113.371 26.9461 113.371 27.1013V39.4122C113.371 39.5644 113.418 39.6987 113.511 39.8091C113.6 39.9135 113.711 39.9672 113.836 39.9672H121.925C122.056 39.9672 122.173 39.9135 122.265 39.812C122.364 39.7016 122.414 39.5674 122.414 39.4152V38.0099C122.414 37.8547 122.364 37.7204 122.259 37.61" fill="#1526FF"/>
<path d="M52.1176 30.8996C52.1176 31.6515 51.9207 32.2005 51.5149 32.5765C51.1061 32.9554 50.5243 33.1464 49.7873 33.1464H44.8283V29.718C44.8403 29.5957 44.9328 28.993 45.5832 28.993H49.7873C50.5601 28.993 51.1509 29.1362 51.5447 29.4167C51.9297 29.6912 52.1176 30.1775 52.1176 30.8996ZM54.5464 30.8996C54.5464 29.3361 54.1585 28.2053 53.3947 27.5399C52.6398 26.8805 51.4851 26.5463 49.9634 26.5463H42.9367C42.8084 26.5463 42.698 26.6 42.6114 26.7045C42.5219 26.8119 42.4712 26.9491 42.4712 27.0983V39.4092C42.4712 39.5614 42.5189 39.6957 42.6114 39.8031C42.7009 39.9075 42.8084 39.9612 42.9367 39.9612H44.348C44.4733 39.9612 44.5867 39.9075 44.6821 39.8061C44.7806 39.6957 44.8313 39.5644 44.8313 39.4092V35.5304H49.1697L51.8909 39.5912C52.0669 39.8389 52.3116 39.9642 52.6219 39.9642H53.7975C54.0541 39.9642 54.2361 39.8449 54.3375 39.6121C54.442 39.3704 54.4062 39.1198 54.2361 38.893L51.7506 35.229L51.9953 35.1425C53.6901 34.5428 54.5524 33.1135 54.5524 30.8966" fill="#1526FF"/>
<path d="M107.755 26.7701L107.836 26.6955C107.744 26.597 107.63 26.5463 107.505 26.5463H96.7246C96.5993 26.5463 96.4859 26.6 96.3904 26.7045C96.2919 26.8149 96.2412 26.9461 96.2412 27.1013V28.4589C96.2412 28.62 96.2919 28.7543 96.3934 28.8528C96.4859 28.9453 96.5993 28.993 96.7246 28.993H100.911V39.4122C100.911 39.5674 100.961 39.6987 101.06 39.8091C101.152 39.9135 101.266 39.9642 101.391 39.9642H102.853C102.987 39.9642 103.101 39.9105 103.19 39.8061C103.286 39.6957 103.334 39.5644 103.334 39.4092V29.6703L103.337 29.6434C103.414 29.2287 103.686 28.99 104.08 28.99H107.502C107.627 28.99 107.741 28.9393 107.833 28.8438C107.934 28.7394 107.985 28.6081 107.985 28.4529V27.0953C107.985 26.9342 107.934 26.7999 107.836 26.6925L107.755 26.7671V26.7701Z" fill="#1526FF"/>
<path d="M40.9109 37.4489H34.4779V34.5517H36.477C36.6919 34.5517 36.8649 34.3488 36.8649 34.1012V32.302C36.8649 32.0543 36.6919 31.8514 36.477 31.8514H34.4779V29.6584C34.5525 29.2347 34.824 28.993 35.2268 28.993H40.8393C40.9676 28.993 41.075 28.9423 41.1645 28.8468C41.257 28.7424 41.3047 28.6141 41.3047 28.4589V27.1013C41.3047 26.9402 41.257 26.8059 41.1645 26.6985C41.075 26.597 40.9676 26.5463 40.8393 26.5463H32.5564C32.4162 26.5463 32.2879 26.606 32.2013 26.7104C32.1118 26.8178 32.0671 26.9521 32.0671 27.1013V31.8544H30.1545C29.9397 31.8544 29.7666 32.0573 29.7666 32.3049V34.1041C29.7666 34.3518 29.9397 34.5547 30.1545 34.5547H32.0581L32.0701 34.7546V39.1377C32.0701 39.445 32.1267 39.6539 32.2461 39.7852C32.2879 39.8299 32.4132 39.9702 32.807 39.9702H40.9139C41.0422 39.9702 41.1526 39.9224 41.2421 39.824C41.3405 39.7195 41.3972 39.5554 41.3972 39.3764V38.0158C41.3972 37.8547 41.3465 37.7175 41.2451 37.6071C41.1466 37.5026 41.0362 37.4519 40.9139 37.4519" fill="#1526FF"/>
<path d="M27.7076 26.5463H25.992C25.8487 26.5463 25.7473 26.597 25.6906 26.6895L19.019 35.1186C18.9056 35.2589 18.7266 35.3155 18.5624 35.2559C18.3894 35.1962 18.27 35.0231 18.27 34.8322V27.1013C18.27 26.9461 18.2193 26.8119 18.1209 26.7045C18.0254 26.6 17.915 26.5493 17.7867 26.5493H16.071C15.9278 26.5493 15.8264 26.6 15.7697 26.6925L8.23273 36.0167C8.1104 36.1689 8.04177 36.3658 8.03879 36.5687L8 39.5017C8 39.6808 8.07459 39.818 8.19394 39.8628C8.29241 39.9016 8.39982 39.8687 8.48635 39.7732L15.1282 31.4158C15.2415 31.2756 15.4206 31.2218 15.5847 31.2785C15.7577 31.3382 15.8771 31.5113 15.8771 31.7022V39.3883C15.8771 39.5346 15.9159 39.6688 15.9875 39.7673C16.08 39.8986 16.1993 39.9642 16.3425 39.9642H18.0642C18.2432 39.9642 18.3088 39.8986 18.3983 39.7852L25.064 31.3979C25.1744 31.2577 25.3564 31.2039 25.5205 31.2606C25.6936 31.3203 25.8129 31.4934 25.8129 31.6843V39.3734C25.8129 39.5495 25.8696 39.7106 25.9681 39.818C26.0576 39.9135 26.168 39.9642 26.2963 39.9642H27.6837C27.8061 39.9642 27.9195 39.9224 28.003 39.8478C28.1283 39.7374 28.191 39.5912 28.191 39.4092V27.1013C28.191 26.9461 28.1403 26.8119 28.0418 26.7045C27.9463 26.6 27.8359 26.5493 27.7076 26.5493" fill="#1526FF"/>
<path d="M18.6608 23.1658C18.9861 23.1658 19.1502 23.0345 19.1502 22.7689C19.1502 22.5332 19.004 22.4139 18.7056 22.4139H16.8795C16.8378 22.4139 16.8139 22.4377 16.8169 22.4795V23.1001C16.8139 23.1449 16.8378 23.1628 16.8795 23.1628H18.6608V23.1658ZM18.4311 21.7097C18.6937 21.7097 18.8637 21.5695 18.8637 21.3487C18.8637 21.1279 18.7324 21.0294 18.4669 21.0294H16.8825C16.8408 21.0294 16.8169 21.0533 16.8199 21.095V21.644C16.8169 21.6888 16.8408 21.7097 16.8825 21.7097H18.4311ZM15.9964 24.0967C15.8919 24.0967 15.8203 24.0221 15.8203 23.9206V20.2835C15.8203 20.179 15.8949 20.1074 15.9964 20.1074H18.6459C19.4426 20.1074 19.8872 20.4565 19.8872 21.095C19.8872 21.474 19.7409 21.7544 19.4485 21.9365C19.4098 21.9693 19.4098 21.9902 19.4545 22.0081C19.9051 22.1364 20.1766 22.4765 20.1766 22.9241C20.1766 23.7058 19.6783 24.0967 18.8339 24.0967H15.9964Z" fill="#1526FF"/>
<path d="M23.6616 22.6854C23.7153 22.6854 23.7332 22.6585 23.7123 22.6078L23.0619 21.1249C23.0469 21.0712 22.9962 21.0712 22.9723 21.1249L22.3338 22.6078C22.3219 22.6585 22.3398 22.6854 22.3875 22.6854H23.6586H23.6616ZM20.9136 24.0967C20.836 24.0967 20.7793 24.0668 20.7405 24.0072C20.7017 23.9505 20.6987 23.8848 20.7286 23.8132L22.3428 20.1939C22.3756 20.1313 22.4233 20.0985 22.489 20.1014H23.5542C23.6258 20.1014 23.6735 20.1343 23.6944 20.1939L25.3265 23.8132C25.3862 23.9535 25.3026 24.0967 25.1445 24.0967H24.4224C24.3508 24.0967 24.3001 24.0609 24.2762 23.9893L24.0853 23.5536C24.0733 23.5208 24.0465 23.5089 24.0107 23.5059H22.0474C22.0086 23.5059 21.9847 23.5238 21.9698 23.5536L21.7818 23.9893C21.755 24.0609 21.7043 24.0967 21.6326 24.0967H20.9136Z" fill="#1526FF"/>
<path d="M30.2231 20.1074C30.3275 20.1074 30.3991 20.179 30.3991 20.2835V23.9206C30.3991 24.0251 30.3245 24.0967 30.2231 24.0967H29.4414C29.3906 24.0967 29.3518 24.0788 29.328 24.046L27.2662 21.656C27.2334 21.6112 27.1827 21.6232 27.1827 21.6858V23.9236C27.1827 24.0281 27.1081 24.0997 27.0066 24.0997H26.3591C26.2547 24.0997 26.1831 24.0251 26.1831 23.9236V20.2835C26.1831 20.179 26.2577 20.1074 26.3591 20.1074H27.1409C27.1886 20.1074 27.2274 20.1223 27.2543 20.1522L29.3101 22.5392C29.3518 22.5809 29.3936 22.566 29.3936 22.5034V20.2835C29.3936 20.179 29.4682 20.1074 29.5697 20.1074H30.2231Z" fill="#1526FF"/>
<path d="M35.8384 23.0255C35.9279 23.0852 35.9368 23.1956 35.8771 23.2732C35.4027 23.8938 34.6747 24.2011 33.6841 24.2011C32.1206 24.2011 31.3389 23.5357 31.3389 22.199V21.9961C31.3359 20.6654 32.1176 20 33.6841 20C34.6777 20 35.3878 20.2745 35.8115 20.8265C35.8712 20.9041 35.8592 21.0145 35.7817 21.0682L35.2923 21.4889C35.1909 21.5724 35.0865 21.5605 34.985 21.459C34.6807 21.1159 34.248 20.9458 33.6871 20.9429C32.8069 20.9429 32.3683 21.292 32.3683 21.9902V22.211C32.3683 22.9062 32.8069 23.2553 33.6871 23.2553C34.3077 23.2553 34.7612 23.0703 35.0477 22.7003C35.1431 22.5929 35.2446 22.578 35.355 22.6585L35.8443 23.0255H35.8384Z" fill="#1526FF"/>
<path d="M39.8872 23.0106C40.1438 22.8465 40.2751 22.5809 40.2751 22.211V21.9902C40.2751 21.2949 39.8037 20.9458 38.8638 20.9429C38.464 20.9429 38.1477 21.0115 37.8822 21.1637C37.6136 21.3158 37.4615 21.6053 37.4615 21.9902V22.211C37.4615 22.5839 37.5928 22.8495 37.8523 23.0106C38.1089 23.1747 38.4461 23.2553 38.8668 23.2553C39.2875 23.2553 39.6336 23.1747 39.8902 23.0106M36.4351 22.199V21.9961C36.4351 20.6892 37.2496 20 38.8638 20C40.478 20 41.3015 20.6892 41.3015 21.9961V22.199C41.3015 23.5148 40.487 24.2011 38.8638 24.2011C37.2407 24.2011 36.4351 23.5357 36.4351 22.199Z" fill="#1526FF"/>
</svg>
