<svg width="130" height="60" viewBox="0 0 130 60" fill="none" xmlns="http://www.w3.org/2000/svg">
<rect width="130" height="60" fill="white"/>
<path d="M81.308 13.6571C81.0037 13.6572 80.7024 13.7173 80.4213 13.834C80.1403 13.9506 79.8849 14.1215 79.67 14.3369C79.2451 14.7618 78.9901 15.362 78.9901 15.9781V43.9928C78.9901 44.6089 79.2345 45.1985 79.67 45.634C79.885 45.8493 80.1405 46.0202 80.4216 46.1367C80.7028 46.2533 81.0041 46.3133 81.3085 46.3133C81.6129 46.3133 81.9142 46.2533 82.1954 46.1367C82.4765 46.0202 82.7319 45.8493 82.947 45.634C83.3719 45.2091 83.6269 44.6089 83.6269 43.9928V15.977C83.6269 15.3609 83.3825 14.7714 82.947 14.3358C82.7319 14.1203 82.4764 13.9494 82.1952 13.8327C81.9139 13.716 81.6124 13.6571 81.308 13.6571ZM45.9966 23.5317C45.9966 22.2507 44.9588 21.2118 43.6809 21.2118C42.4031 21.2118 41.3652 22.2507 41.3652 23.5317V43.9907C41.3652 45.2718 42.4031 46.3106 43.6809 46.3106C44.9588 46.3106 45.9966 45.2718 45.9966 43.9907V23.5317Z" fill="#5A646E"/>
<path d="M46.651 15.9813C46.636 16.7596 46.3164 17.5009 45.7609 18.0463C45.2053 18.5912 44.4586 18.8961 43.681 18.8961C42.9034 18.8961 42.1567 18.5901 41.6011 18.0463C41.0456 17.5009 40.726 16.7596 40.7109 15.9813C40.7106 15.1926 41.0235 14.436 41.5809 13.878C42.1365 13.3203 42.8907 13.007 43.6799 13.007C44.4692 13.007 45.2234 13.3203 45.78 13.878C46.3374 14.436 46.6514 15.1926 46.651 15.9813Z" fill="#00AEEF"/>
<path d="M74.8026 28.6158C72.5761 23.5744 67.3084 20.0116 61.2982 20.6277C59.2719 20.8419 57.3227 21.5225 55.6035 22.6163C53.8836 23.7107 52.4403 25.1882 51.3864 26.9332C50.332 28.6792 49.6954 30.6453 49.5264 32.6779C49.3564 34.711 49.6602 36.7569 50.4112 38.652C51.1621 40.5476 52.3411 42.2439 53.8561 43.6084C55.3707 44.9719 57.1801 45.9666 59.1429 46.5148C61.1049 47.0629 63.1795 47.1479 65.169 46.7644C67.1586 46.3809 69.0548 45.5396 70.6768 44.3053C70.9495 44.0961 71.172 43.8286 71.328 43.5224C71.4841 43.2165 71.5702 42.8787 71.5787 42.5345C71.5961 41.9242 71.3707 41.3318 70.9519 40.8875C70.5331 40.4432 69.9551 40.1832 69.3448 40.1646C68.8203 40.1478 68.3059 40.3113 67.8873 40.6278C66.2829 41.8668 64.2884 42.4914 62.2638 42.389C60.6173 42.304 59.0282 41.7484 57.6961 40.7903C56.3525 39.8318 55.31 38.51 54.691 36.98C54.6066 36.7737 54.6014 36.5435 54.6766 36.3337C54.7517 36.1239 54.9017 35.9492 55.0979 35.8434C55.2278 35.7736 55.3731 35.7371 55.5206 35.7372H71.6084C72.1225 35.7393 72.6324 35.6394 73.1083 35.444C73.5842 35.2485 74.0165 34.9607 74.3809 34.5974C74.7452 34.2341 75.0352 33.8028 75.2328 33.3269C75.4306 32.8516 75.5327 32.3419 75.5334 31.827C75.5016 30.7223 75.2572 29.6324 74.8175 28.619L74.8026 28.6158ZM62.6664 25.1614C64.3888 25.1618 66.0713 25.6791 67.4964 26.6464C68.9224 27.6148 70.0251 28.9888 70.6619 30.5906C70.7157 30.7272 70.7358 30.8748 70.7204 31.0208C70.7044 31.1667 70.6531 31.3065 70.5709 31.4281C70.4887 31.5497 70.3781 31.6494 70.2487 31.7187C70.1191 31.7877 69.9747 31.8249 69.8281 31.8249H55.5036C55.3568 31.8251 55.2122 31.7886 55.083 31.7187C54.9534 31.6486 54.8429 31.5487 54.7601 31.4287C54.6772 31.3086 54.6262 31.1674 54.6113 31.0208C54.596 30.8748 54.616 30.7272 54.6698 30.5906C55.3066 28.9888 56.4093 27.6148 57.8353 26.6464C59.2608 25.6904 60.9445 25.1614 62.6664 25.1614ZM100.294 42.3975C98.6432 42.3979 97.0268 41.9225 95.6386 41.0282C94.2503 40.1338 93.1477 38.8581 92.4519 37.3529C91.7673 35.8482 91.5294 34.1785 91.7667 32.5425C92.004 30.9066 92.7064 29.3732 93.7903 28.1251L90.2849 25.1327C89.15 26.4508 88.2872 27.9804 87.7461 29.6335C87.2037 31.2866 86.9925 33.0304 87.1247 34.7652C87.2564 36.4999 87.7302 38.192 88.5056 39.744C89.2919 41.2952 90.3767 42.676 91.6977 43.8071C93.0181 44.9384 94.5488 45.7967 96.2016 46.3352C97.8541 46.8734 99.5967 47.0791 101.329 46.9407C103.061 46.8026 104.75 46.3225 106.296 45.5279C107.843 44.7344 109.218 43.6431 110.342 42.3167L106.837 39.3254C106.03 40.288 105.022 41.0618 103.884 41.5923C102.745 42.1234 101.507 42.3975 100.251 42.3964L100.294 42.3975Z" fill="#5A646E"/>
<path d="M100.294 20.549C98.3978 20.5468 96.5229 20.9547 94.8021 21.744C93.0777 22.5339 91.5443 23.6869 90.3066 25.1241L93.8014 28.1164C95.2907 26.3988 97.3972 25.3408 99.6619 25.174C101.927 25.0072 104.166 25.7402 105.892 27.2188C107.618 28.6975 108.69 30.7986 108.877 33.0644C109.062 35.3303 108.345 37.5777 106.882 39.3179L110.377 42.3092C112.002 40.3844 113.046 38.0347 113.383 35.5362C113.719 33.0379 113.335 30.4953 112.276 28.2078C111.217 25.9213 109.527 23.9852 107.404 22.6278C105.276 21.2798 102.811 20.549 100.294 20.549Z" fill="#00AEEF"/>
<path d="M37.0951 40.7316C36.6957 40.3854 36.1901 40.1857 35.6611 40.1665C35.1321 40.1474 34.6148 40.3099 34.192 40.6265C32.9173 41.6016 31.3962 42.2007 29.7996 42.3558C28.203 42.5109 26.5948 42.2177 25.1576 41.506C23.7203 40.7943 22.5083 39.696 21.6596 38.3331C20.8112 36.9696 20.3603 35.3963 20.3576 33.7904C20.355 32.1845 20.8008 30.6097 21.6447 29.2434C22.488 27.8781 23.6958 26.7755 25.1321 26.0598C26.5682 25.345 28.1754 25.0454 29.772 25.1952C31.3685 25.345 32.8918 25.9387 34.1697 26.9107C34.5881 27.2332 35.1045 27.4022 35.6326 27.3894C36.1607 27.3767 36.6684 27.1829 37.0707 26.8406C37.3309 26.6175 37.5381 26.3413 37.6762 26.0301C37.8143 25.7189 37.8844 25.3789 37.878 25.0369C37.8716 24.6949 37.7867 24.3592 37.6337 24.0543C37.4807 23.7495 37.2598 23.4807 36.991 23.2725C35.0341 21.7745 32.6966 20.8545 30.2436 20.6169C27.7898 20.3789 25.3211 20.8336 23.1127 21.9288C20.9043 23.0239 19.0475 24.7193 17.7494 26.8162C16.4514 28.9131 15.7662 31.3339 15.7715 33.8005C15.7768 36.267 16.4694 38.6847 17.7739 40.7773C19.0783 42.87 20.9415 44.5557 23.1531 45.6424C25.3647 46.7291 27.8376 47.1763 30.2882 46.9309C32.7402 46.6851 35.0743 45.7574 37.0261 44.253C37.2914 44.045 37.507 43.7805 37.6575 43.4789C37.808 43.1772 37.8895 42.8458 37.8961 42.5088C37.9028 42.1718 37.8346 41.8375 37.6962 41.5302C37.5579 41.2228 37.3529 40.95 37.0962 40.7316H37.0951Z" fill="#5A646E"/>
</svg>
