<svg width="60" height="60" viewBox="0 0 60 60" fill="none" xmlns="http://www.w3.org/2000/svg">
<rect width="60" height="60" fill="white"/>
<path d="M30.2958 43.7901C27.6992 43.7907 25.1574 43.0431 22.9745 41.6369C20.7914 40.2305 19.0575 38.2244 17.9634 35.8575C16.8869 33.4914 16.5129 30.8658 16.886 28.2933C17.2592 25.7207 18.3637 23.3096 20.0681 21.3469L14.5559 16.6415C12.7713 18.7141 11.4145 21.1195 10.5637 23.7189C9.71075 26.3183 9.37868 29.0605 9.5865 31.7884C9.79362 34.5161 10.5386 37.177 11.758 39.6175C12.9944 42.0567 14.7002 44.228 16.7775 46.0066C18.8537 47.7856 21.2607 49.1353 23.8598 49.9821C26.4584 50.8283 29.1986 51.1519 31.9227 50.9342C34.6454 50.7171 37.3013 49.9621 39.7334 48.7126C42.166 47.4648 44.3282 45.7488 46.0959 43.6631L40.5836 38.9593C39.3152 40.4729 37.73 41.6898 35.94 42.5239C34.1493 43.3591 32.2017 43.7901 30.2273 43.7884L30.2958 43.7901Z" fill="#5A646E"/>
<path d="M30.2947 9.43361C27.3131 9.43027 24.3649 10.0717 21.6589 11.3128C18.9473 12.5549 16.536 14.3679 14.5898 16.6279L20.0854 21.3333C22.4272 18.6324 25.7396 16.9687 29.3008 16.7064C32.8621 16.4442 36.3832 17.5967 39.0976 19.9219C41.8119 22.247 43.4973 25.551 43.7913 29.1139C44.0825 32.6771 42.9551 36.2111 40.6544 38.9474L46.1499 43.6512C48.7055 40.6245 50.3475 36.9296 50.877 33.0009C51.4062 29.0722 50.8023 25.0742 49.1365 21.477C47.4713 17.8815 44.8129 14.837 41.4745 12.7025C38.1287 10.5828 34.2535 9.43361 30.2947 9.43361Z" fill="#00AEEF"/>
</svg>
