<svg width="130" height="60" viewBox="0 0 130 60" fill="none" xmlns="http://www.w3.org/2000/svg">
<rect width="130" height="60" fill="white"/>
<path d="M54.3171 33.5531C54.3424 32.9131 54.3998 32.2757 54.512 31.6439C54.7325 30.3894 55.1322 29.1728 55.699 28.0315C56.4461 26.5241 57.4773 25.1743 58.7364 24.0559C59.9746 22.9472 61.425 22.0999 63.0002 21.565C63.9513 21.2397 64.9272 21.022 65.9345 20.942C66.2112 20.9201 66.4885 20.9004 66.7658 20.8977C67.1808 20.8935 67.5967 20.8916 68.0108 20.9129C68.9451 20.9608 69.857 21.1342 70.7514 21.3934C71.9149 21.7309 73.0239 22.2327 74.0448 22.8834C74.8461 23.3928 75.5892 23.988 76.261 24.6583C76.2774 24.6747 76.2886 24.6959 76.3178 24.7372L71.5961 29.4887C71.4298 29.345 71.2768 29.2073 71.1181 29.0763C70.1139 28.2477 68.9515 27.7653 67.6283 27.677C65.9844 27.5676 64.5223 28.0303 63.272 29.0566C62.0085 30.0936 61.2894 31.4225 61.051 32.9931C61.0255 33.1629 61.0179 33.3348 60.9969 33.5343C60.9847 33.5759 60.9829 33.5889 60.986 33.6029C60.9325 34.2478 61.0173 34.8815 61.1723 35.507C61.4256 36.5318 61.9142 37.4466 62.6491 38.2292C63.6342 39.2782 64.8528 39.9474 66.3225 40.1409C68.1726 40.3843 69.8062 39.8937 71.2051 38.717C71.5851 38.3974 71.9211 38.0293 72.272 37.6782C72.6225 37.3277 72.9652 36.9699 73.3127 36.617C73.9971 35.9221 74.6818 35.2274 75.3677 34.534C75.8402 34.0565 76.3163 33.5822 76.7885 33.1044C77.4516 32.4337 78.112 31.7603 78.7745 31.0887C79.0892 30.77 79.4063 30.4535 79.721 30.1351C80.4069 29.4417 81.0916 28.7467 81.7778 28.0536C82.1211 27.7068 82.4686 27.3641 82.8112 27.0167C83.4625 26.3569 84.1134 25.6965 84.762 25.034C85.9809 23.7894 87.3363 22.7187 88.9656 21.9929C89.9866 21.5375 91.0483 21.2091 92.1617 21.0366C92.6701 20.9597 93.1824 20.9111 93.6962 20.891C95.6189 20.8083 97.4484 21.1633 99.1987 21.918C100.387 22.4311 101.488 23.1271 102.46 23.9807C103.798 25.1498 104.879 26.5039 105.671 28.0651C106.274 29.2552 106.693 30.5023 106.898 31.8106C106.973 32.2964 107.018 32.7869 107.052 33.2772C107.082 33.6981 107.077 34.121 107.076 34.5725C107.054 34.6156 107.051 34.6301 107.055 34.6456C107.046 35.5652 106.886 36.4651 106.653 37.3538C106.104 39.4489 105.095 41.3203 103.59 42.9297C101.948 44.6862 99.9333 45.9008 97.5612 46.5561C96.767 46.7756 95.957 46.9296 95.1285 46.9627C94.5819 46.9845 94.0322 47.0178 93.4873 46.9884C92.3291 46.927 91.185 46.7055 90.0878 46.3302C88.6458 45.8375 87.3299 45.1277 86.1903 44.1532C85.4594 43.5283 84.7899 42.8373 84.1013 42.1681C83.6884 41.7663 83.2904 41.3506 82.8875 40.9395C82.3056 40.3458 81.7291 39.7473 81.1427 39.1579C80.9855 38.9996 80.8009 38.8662 80.606 38.7019C80.5762 38.7291 80.5054 38.7898 80.4406 38.8556C79.9876 39.318 79.5358 39.7813 79.0837 40.2446C78.52 40.8222 77.9736 41.4164 77.3877 41.9728C76.8925 42.4434 76.5036 43.0004 76.0068 43.4658C74.341 45.0273 72.3854 46.107 70.1203 46.657C69.4468 46.8204 68.7627 46.9402 68.0656 46.9636C67.535 46.9811 67.002 47.0175 66.4733 46.9896C64.9798 46.9147 63.5117 46.5747 62.138 45.9854C60.9917 45.4952 59.9254 44.8365 58.9747 44.0313C57.8562 43.0884 56.9057 41.9635 56.1636 40.7042C55.3439 39.3155 54.7942 37.835 54.5181 36.2605C54.3664 35.3942 54.3056 34.5231 54.3153 33.6126C54.3179 33.5929 54.3185 33.573 54.3171 33.5531ZM100.427 34.2975C100.434 34.2851 100.436 34.2717 100.446 34.2156C100.461 33.8013 100.434 33.3866 100.366 32.9777C100.125 31.4904 99.4842 30.1973 98.2899 29.1943C96.8825 28.0127 95.2462 27.4857 93.3718 27.7174C92.4122 27.8356 91.5488 28.1937 90.7579 28.724C90.1961 29.1012 89.7434 29.586 89.276 30.0566C88.5102 30.8279 87.7525 31.6072 86.9887 32.381C86.4998 32.8761 86.0061 33.3664 85.5163 33.8606C85.474 33.903 85.4442 33.957 85.4105 34.0034C85.5604 34.1599 85.6948 34.3072 85.8367 34.4473C86.4351 35.0379 87.0347 35.6274 87.6357 36.215C88.1341 36.7022 88.6357 37.1864 89.1356 37.6719L89.2216 37.7559C89.5536 38.0803 89.8653 38.4275 90.2216 38.7255C91.6242 39.8989 93.2581 40.3789 95.1085 40.1415C96.0406 40.022 96.8923 39.6861 97.6612 39.17C98.7655 38.4284 99.5453 37.4417 100.013 36.2347C100.253 35.6164 100.411 34.9785 100.427 34.2975ZM40.7037 27.9572V28.9996H40.4051C38.2252 28.9996 36.0446 28.9839 33.8649 29.0057C32.5697 29.0184 31.4448 29.4793 30.4995 30.3337C29.8601 30.9113 29.4107 31.599 29.1654 32.407C29.0444 32.7962 28.982 33.2012 28.9802 33.6086C28.9814 37.942 28.9808 42.2754 28.9808 46.6088V46.9066C28.7902 46.9581 22.2585 46.9696 21.9581 46.9208C21.9544 46.8483 21.9477 46.7722 21.9477 46.6961C21.9471 42.1981 21.9404 37.7001 21.9523 33.202C21.9553 32.1317 22.1955 31.0923 22.5628 30.0821C23.0438 28.7583 23.7653 27.5649 24.7209 26.5046C26.1651 24.903 27.9434 23.7709 30.0401 23.0999C30.8558 22.8391 31.6922 22.6542 32.5518 22.5911C33.1133 22.5496 33.6767 22.5159 34.2398 22.5135C36.289 22.5044 38.3377 22.5098 40.3866 22.5098H40.7037V27.9572ZM48.0363 22.5098H50.8736C50.8927 22.5283 50.8988 22.5335 50.9043 22.5395C50.9094 22.5453 50.9183 22.5517 50.9183 22.5577L50.9301 46.7025V46.9066C50.7425 46.9575 44.3738 46.9727 44.0284 46.9254V22.5098H48.0363ZM44.2023 19.4742C43.7219 18.9205 43.4154 18.308 43.2847 17.6137C43.1266 16.7723 43.2339 15.9594 43.6049 15.1893C44.2263 13.8988 45.2841 13.1108 46.7395 12.8382C48.503 12.5077 50.2095 13.2497 51.142 14.6969C51.5087 15.2669 51.7106 15.8842 51.7708 16.5522C51.8851 17.819 51.4512 18.8929 50.5264 19.7831C49.8222 20.4611 48.952 20.8637 47.9572 20.9329C46.475 21.036 45.2056 20.5748 44.2023 19.4742Z" fill="#FF5200"/>
<path d="M54.3109 33.5576C54.3179 33.5616 54.3185 33.5704 54.314 33.5907C54.2976 33.5901 54.2964 33.5767 54.3109 33.5576ZM60.9941 33.5958C60.9828 33.5889 60.9846 33.5758 60.9983 33.5552C61.0114 33.5616 61.0105 33.5755 60.9941 33.5958ZM107.065 34.6386C107.051 34.6301 107.054 34.6155 107.072 34.5943C107.079 34.6016 107.077 34.6164 107.065 34.6386ZM100.42 34.3053C100.406 34.2987 100.407 34.2847 100.424 34.2644C100.436 34.2717 100.434 34.285 100.42 34.3053Z" fill="#FF5200"/>
</svg>
