<svg width="60" height="60" viewBox="0 0 60 60" fill="none" xmlns="http://www.w3.org/2000/svg">
<rect width="60" height="60" fill="#010044"/>
<path d="M9.38987 29.8817C9.40929 29.389 9.45352 28.8985 9.53988 28.4121C9.7096 27.4465 10.0173 26.5101 10.4535 25.6316C11.0285 24.4713 11.8223 23.4323 12.7914 22.5715C13.7445 21.7181 14.8609 21.066 16.0734 20.6543C16.8054 20.4039 17.5567 20.2363 18.332 20.1747C18.5449 20.1579 18.7584 20.1427 18.9718 20.1406C19.2912 20.1373 19.6114 20.1359 19.9301 20.1523C20.6493 20.1891 21.3511 20.3226 22.0396 20.5222C22.9351 20.782 23.7888 21.1681 24.5746 21.669C25.1914 22.0611 25.7634 22.5193 26.2804 23.0352C26.293 23.0478 26.3017 23.0642 26.3242 23.0959L22.6898 26.7532C22.5617 26.6426 22.444 26.5366 22.3219 26.4358C21.5489 25.798 20.6542 25.4267 19.6357 25.3588C18.3704 25.2745 17.2449 25.6307 16.2826 26.4207C15.31 27.2188 14.7565 28.2417 14.5731 29.4507C14.5534 29.5813 14.5476 29.7137 14.5314 29.8672C14.522 29.8992 14.5206 29.9092 14.523 29.92C14.4818 30.4164 14.5471 30.9042 14.6664 31.3856C14.8614 32.1744 15.2375 32.8786 15.8031 33.4809C16.5613 34.2884 17.4993 34.8035 18.6306 34.9524C20.0546 35.1398 21.3121 34.7622 22.3888 33.8564C22.6813 33.6104 22.9399 33.3271 23.21 33.0569C23.4798 32.7871 23.7436 32.5117 24.0111 32.24C24.5379 31.7051 25.0649 31.1704 25.5928 30.6367C25.9565 30.2691 26.323 29.9041 26.6864 29.5363C27.1969 29.0201 27.7052 28.5017 28.2151 27.9848C28.4573 27.7395 28.7014 27.4958 28.9436 27.2508C29.4716 26.7171 29.9986 26.1821 30.5268 25.6486C30.791 25.3816 31.0585 25.1179 31.3223 24.8505C31.8235 24.3426 32.3246 23.8343 32.8238 23.3244C33.762 22.3664 34.8053 21.5423 36.0594 20.9836C36.8453 20.633 37.6625 20.3803 38.5195 20.2475C38.9108 20.1883 39.3051 20.1509 39.7006 20.1355C41.1806 20.0717 42.5887 20.345 43.936 20.9259C44.8509 21.3209 45.6979 21.8566 46.4461 22.5136C47.4763 23.4135 48.3085 24.4558 48.9174 25.6575C49.3817 26.5735 49.7045 27.5334 49.862 28.5405C49.9202 28.9143 49.9546 29.292 49.9811 29.6693C50.0038 29.9933 50 30.3188 49.9989 30.6663C49.9825 30.6995 49.9804 30.7107 49.9834 30.7226C49.9759 31.4304 49.8531 32.1231 49.6738 32.8071C49.2509 34.4198 48.4742 35.8602 47.3158 37.099C46.052 38.451 44.5014 39.3859 42.6755 39.8903C42.0643 40.0592 41.4408 40.1778 40.8031 40.2032C40.3823 40.22 39.9592 40.2457 39.5398 40.2231C38.6483 40.1758 37.7677 40.0053 36.9232 39.7164C35.8132 39.3372 34.8003 38.7908 33.9232 38.0407C33.3606 37.5597 32.8453 37.0278 32.3152 36.5128C31.9974 36.2035 31.6911 35.8836 31.381 35.5671C30.9331 35.1102 30.4894 34.6495 30.0379 34.1958C29.9169 34.0739 29.7749 33.9712 29.6249 33.8448C29.6019 33.8658 29.5474 33.9124 29.4976 33.9631C29.1489 34.319 28.8011 34.6756 28.4531 35.0322C28.0192 35.4768 27.5987 35.9342 27.1477 36.3625C26.7665 36.7247 26.4672 37.1534 26.0848 37.5116C24.8025 38.7136 23.2973 39.5446 21.5538 39.968C21.0354 40.0938 20.5089 40.186 19.9723 40.2039C19.5639 40.2175 19.1536 40.2455 18.7467 40.224C17.5971 40.1663 16.4671 39.9046 15.4097 39.451C14.5274 39.0737 13.7067 38.5667 12.9749 37.9469C12.1139 37.2211 11.3823 36.3553 10.8111 35.386C10.1802 34.3171 9.75706 33.1775 9.54456 31.9656C9.42778 31.2988 9.38098 30.6283 9.38846 29.9274C9.39044 29.9123 9.39091 29.897 9.38987 29.8817ZM44.8814 30.4547C44.8871 30.4451 44.8887 30.4348 44.8957 30.3916C44.9076 30.0728 44.8869 29.7535 44.8342 29.4387C44.6493 28.294 44.1557 27.2986 43.2365 26.5266C42.1532 25.6171 40.8937 25.2115 39.4509 25.3898C38.7123 25.4808 38.0477 25.7565 37.439 26.1646C37.0065 26.455 36.658 26.8281 36.2983 27.1904C35.7088 27.7841 35.1256 28.3839 34.5378 28.9795C34.1614 29.3606 33.7814 29.7379 33.4044 30.1184C33.3718 30.151 33.3489 30.1926 33.3229 30.2283C33.4383 30.3487 33.5417 30.4621 33.651 30.5699C34.1116 31.0246 34.5731 31.4783 35.0358 31.9306C35.4193 32.3056 35.8055 32.6783 36.1902 33.052L36.2564 33.1166C36.512 33.3663 36.7519 33.6335 37.0262 33.863C38.1057 34.7661 39.3634 35.1356 40.7876 34.9529C41.5052 34.8609 42.1607 34.6023 42.7525 34.2051C43.6025 33.6342 44.2028 32.8748 44.5629 31.9457C44.7473 31.4699 44.8693 30.9788 44.8814 30.4547Z" fill="#FF5200"/>
<path d="M9.38478 29.8852C9.39016 29.8882 9.39063 29.895 9.38712 29.9106C9.37448 29.9101 9.37354 29.8999 9.38478 29.8852ZM14.5289 29.9146C14.5202 29.9092 14.5216 29.8992 14.5322 29.8833C14.5422 29.8882 14.5415 29.8989 14.5289 29.9146ZM49.9905 30.7172C49.98 30.7106 49.9821 30.6994 49.9959 30.6831C50.001 30.6887 49.9996 30.7001 49.9905 30.7172ZM44.8754 30.4607C44.8651 30.4556 44.8661 30.4448 44.8789 30.4292C44.8883 30.4348 44.8867 30.445 44.8754 30.4607Z" fill="#FF5200"/>
</svg>
