<svg width="60" height="60" viewBox="0 0 60 60" fill="none" xmlns="http://www.w3.org/2000/svg">
<rect width="60" height="60" fill="white"/>
<path d="M9.39085 29.8817C9.41027 29.389 9.4545 28.8985 9.54085 28.4121C9.71057 27.4465 10.0183 26.5101 10.4545 25.6316C11.0295 24.4713 11.8233 23.4323 12.7924 22.5715C13.7455 21.7181 14.8619 21.066 16.0744 20.6543C16.8064 20.4039 17.5576 20.2363 18.333 20.1747C18.5459 20.1579 18.7593 20.1427 18.9728 20.1406C19.2922 20.1373 19.6124 20.1359 19.9311 20.1523C20.6503 20.1891 21.3521 20.3226 22.0406 20.5222C22.9361 20.782 23.7898 21.1681 24.5756 21.669C25.1924 22.0611 25.7643 22.5193 26.2814 23.0352C26.294 23.0478 26.3027 23.0642 26.3251 23.0959L22.6907 26.7532C22.5627 26.6426 22.445 26.5366 22.3229 26.4358C21.5499 25.798 20.6552 25.4267 19.6367 25.3588C18.3713 25.2745 17.2459 25.6307 16.2836 26.4207C15.311 27.2188 14.7575 28.2417 14.574 29.4507C14.5544 29.5813 14.5485 29.7137 14.5324 29.8672C14.523 29.8992 14.5216 29.9092 14.524 29.92C14.4828 30.4164 14.5481 30.9042 14.6674 31.3856C14.8624 32.1744 15.2384 32.8786 15.8041 33.4809C16.5623 34.2884 17.5003 34.8035 18.6316 34.9524C20.0556 35.1398 21.313 34.7622 22.3898 33.8564C22.6823 33.6104 22.9409 33.3271 23.211 33.0569C23.4808 32.7871 23.7446 32.5117 24.012 32.24C24.5388 31.7051 25.0659 31.1704 25.5938 30.6367C25.9575 30.2691 26.324 29.9041 26.6874 29.5363C27.1978 29.0201 27.7061 28.5017 28.2161 27.9848C28.4583 27.7395 28.7024 27.4958 28.9446 27.2508C29.4726 26.7171 29.9996 26.1821 30.5278 25.6486C30.792 25.3816 31.0595 25.1179 31.3232 24.8505C31.8245 24.3426 32.3256 23.8343 32.8247 23.3244C33.7629 22.3664 34.8062 21.5423 36.0604 20.9836C36.8462 20.633 37.6634 20.3803 38.5204 20.2475C38.9118 20.1883 39.3061 20.1509 39.7016 20.1355C41.1815 20.0717 42.5897 20.345 43.937 20.9259C44.8519 21.3209 45.6989 21.8566 46.4471 22.5136C47.4773 23.4135 48.3095 24.4558 48.9184 25.6575C49.3827 26.5735 49.7054 27.5334 49.8629 28.5405C49.9212 28.9143 49.9556 29.292 49.9821 29.6693C50.0048 29.9933 50.001 30.3188 49.9999 30.6663C49.9835 30.6995 49.9814 30.7107 49.9844 30.7226C49.9769 31.4304 49.854 32.1231 49.6748 32.8071C49.2519 34.4198 48.4752 35.8602 47.3168 37.099C46.053 38.451 44.5024 39.3859 42.6765 39.8903C42.0652 40.0592 41.4418 40.1778 40.8041 40.2032C40.3833 40.22 39.9602 40.2457 39.5408 40.2231C38.6493 40.1758 37.7686 40.0053 36.9242 39.7164C35.8142 39.3372 34.8013 38.7908 33.9242 38.0407C33.3616 37.5597 32.8463 37.0278 32.3162 36.5128C31.9984 36.2035 31.6921 35.8836 31.382 35.5671C30.934 35.1102 30.4903 34.6495 30.0389 34.1958C29.9179 34.0739 29.7759 33.9712 29.6258 33.8448C29.6029 33.8658 29.5484 33.9124 29.4985 33.9631C29.1498 34.319 28.8021 34.6756 28.4541 35.0322C28.0202 35.4768 27.5997 35.9342 27.1487 36.3625C26.7675 36.7247 26.4681 37.1534 26.0857 37.5116C24.8035 38.7136 23.2983 39.5446 21.5548 39.968C21.0364 40.0938 20.5099 40.186 19.9732 40.2039C19.5649 40.2175 19.1546 40.2455 18.7476 40.224C17.5981 40.1663 16.468 39.9046 15.4107 39.451C14.5283 39.0737 13.7076 38.5667 12.9759 37.9469C12.1149 37.2211 11.3833 36.3553 10.8121 35.386C10.1811 34.3171 9.75803 33.1775 9.54554 31.9656C9.42876 31.2988 9.38195 30.6283 9.38944 29.9274C9.39142 29.9123 9.39189 29.897 9.39085 29.8817ZM44.8824 30.4547C44.888 30.4451 44.8897 30.4348 44.8967 30.3916C44.9085 30.0728 44.8879 29.7535 44.8351 29.4387C44.6503 28.294 44.1567 27.2986 43.2375 26.5266C42.1542 25.6171 40.8946 25.2115 39.4519 25.3898C38.7133 25.4808 38.0487 25.7565 37.44 26.1646C37.0075 26.455 36.659 26.8281 36.2993 27.1904C35.7098 27.7841 35.1266 28.3839 34.5387 28.9795C34.1624 29.3606 33.7824 29.7379 33.4054 30.1184C33.3728 30.151 33.3499 30.1926 33.3239 30.2283C33.4393 30.3487 33.5427 30.4621 33.652 30.5699C34.1126 31.0246 34.5741 31.4783 35.0367 31.9306C35.4203 32.3056 35.8065 32.6783 36.1912 33.052L36.2574 33.1166C36.513 33.3663 36.7528 33.6335 37.0271 33.863C38.1067 34.7661 39.3643 35.1356 40.7886 34.9529C41.5061 34.8609 42.1616 34.6023 42.7535 34.2051C43.6035 33.6342 44.2037 32.8748 44.5639 31.9457C44.7483 31.4699 44.8703 30.9788 44.8824 30.4547Z" fill="#FF5200"/>
<path d="M9.38575 29.8852C9.39114 29.8882 9.3916 29.895 9.38809 29.9106C9.37546 29.9101 9.37452 29.8999 9.38575 29.8852ZM14.5299 29.9146C14.5212 29.9092 14.5226 29.8992 14.5331 29.8833C14.5432 29.8882 14.5425 29.8989 14.5299 29.9146ZM49.9915 30.7172C49.981 30.7106 49.9831 30.6994 49.9969 30.6831C50.002 30.6887 50.0006 30.7001 49.9915 30.7172ZM44.8764 30.4607C44.8661 30.4556 44.867 30.4448 44.8799 30.4292C44.8893 30.4348 44.8876 30.445 44.8764 30.4607Z" fill="#FF5200"/>
</svg>
