<svg width="130" height="60" viewBox="0 0 130 60" fill="none" xmlns="http://www.w3.org/2000/svg">
<rect width="130" height="60" fill="white"/>
<g clip-path="url(#clip0_476_776)">
<mask id="mask0_476_776" style="mask-type:luminance" maskUnits="userSpaceOnUse" x="16" y="16" width="100" height="33">
<path d="M115.091 16H16.4844V48.9178H115.091V16Z" fill="white"/>
</mask>
<g mask="url(#mask0_476_776)">
<mask id="mask1_476_776" style="mask-type:luminance" maskUnits="userSpaceOnUse" x="16" y="21" width="100" height="28">
<path d="M115.002 21.9136H16.4844V48.9177H115.002V21.9136Z" fill="white"/>
</mask>
<g mask="url(#mask1_476_776)">
<path d="M35.8746 21.9136H38.7407V42.686H34.2894V28.8279L27.6126 37.3446L20.9356 28.8872V42.686H16.4844V21.9136H20.4905L27.6126 30.9643L34.1221 22.7601C34.5464 22.2253 35.1919 21.9136 35.8746 21.9136Z" fill="#086666"/>
<path d="M46.0339 42.686H41.8555V27.5903L46.0339 26.5233V42.686Z" fill="#086666"/>
<path fill-rule="evenodd" clip-rule="evenodd" d="M59.2845 29.9257V22.9748L63.2627 21.9136V42.686H60.3098C59.7435 42.686 59.2845 42.2237 59.2845 41.6534V40.9056C59.2845 40.9056 57.8109 42.9827 55.0114 42.9827C51.3276 42.9827 48.0859 39.7186 48.0859 35.4157C48.0859 31.1127 51.3276 27.8485 55.0114 27.8485C57.8109 27.8485 59.2845 29.9257 59.2845 29.9257ZM59.2844 35.4157C59.2844 33.0416 57.6637 31.4096 55.7481 31.4096C53.8325 31.4096 52.2118 33.0416 52.2118 35.4157C52.2118 37.7896 53.8325 39.4217 55.7481 39.4217C57.6637 39.4217 59.2844 37.7896 59.2844 35.4157Z" fill="#086666"/>
<path d="M77.8814 28.1454L80.7005 36.8995L83.5196 28.1454H87.674L82.7183 42.6861H79.9569C79.5144 42.6861 79.1212 42.4044 78.9789 41.9853L76.3977 34.3772L73.5784 42.6861H70.0768L65.1211 28.1454H69.2755L72.0946 36.8995L74.9138 28.1454H77.8814Z" fill="#086666"/>
<path fill-rule="evenodd" clip-rule="evenodd" d="M95.8738 41.2024C95.8738 41.2024 94.4005 42.9828 91.8959 42.9828C88.9486 42.9828 87.0332 41.054 87.0332 38.8284C87.0332 36.4543 88.6543 34.7925 91.3067 34.3177L95.8738 33.4868C95.8738 32.2997 94.9896 31.4096 93.3692 31.4096C91.1589 31.4096 90.1276 32.8933 90.1276 32.8933L87.9173 30.6677C87.9173 30.6677 89.8327 27.8486 93.6635 27.8486C97.3478 27.8486 99.8523 30.371 99.8523 33.6351V42.6861H96.8995C96.333 42.6861 95.8738 42.2238 95.8738 41.6535V41.2024ZM95.8738 36.4544V36.0093L92.6322 36.6028C91.601 36.7808 91.0118 37.3447 91.0118 38.2349C91.0118 39.1251 91.601 39.7187 92.9271 39.7187C94.6954 39.7187 95.8738 38.5317 95.8738 36.4544Z" fill="#086666"/>
<path d="M105.505 42.5378L99.8672 28.1454H104.022L107.435 37.7898L110.847 28.1454H115.001L109.215 43.5764C107.879 47.1374 106.099 48.9179 103.576 48.9179C102.093 48.9179 101.055 48.4728 101.055 48.4728V45.1659C101.055 45.0473 101.17 44.9644 101.282 45.0034C101.533 45.0905 101.976 45.2085 102.538 45.2085C103.873 45.2085 104.674 44.4667 105.06 43.5764L105.505 42.5378Z" fill="#086666"/>
</g>
<path d="M51.2575 21.9134C52.8904 21.9134 54.2141 20.5896 54.2141 18.9567C54.2141 17.3237 52.8904 16 51.2575 16C49.6245 16 48.3008 17.3237 48.3008 18.9567C48.3008 20.5896 49.6245 21.9134 51.2575 21.9134Z" fill="#73C5D0"/>
</g>
</g>
<defs>
<clipPath id="clip0_476_776">
<rect width="99.6875" height="33" fill="white" transform="translate(16 16)"/>
</clipPath>
</defs>
</svg>
