<svg width="130" height="60" viewBox="0 0 130 60" fill="none" xmlns="http://www.w3.org/2000/svg">
<rect width="130" height="60" fill="white"/>
<g clip-path="url(#clip0_43_201)">
<path fill-rule="evenodd" clip-rule="evenodd" d="M59.6563 16.6625C59.6563 16.6625 60.5066 12.342 65.0092 13.1716C65.7847 13.3144 66.5318 13.4879 67.2604 13.6572C70.7621 14.4705 73.8392 15.1852 77.6156 11.9273C77.6156 11.9273 76.6504 15.7595 71.6972 16.4983C69.5859 16.8132 67.9613 16.501 66.4193 16.2045C64.3436 15.8056 62.4178 15.4354 59.6563 16.6625ZM53.9802 8H78.3256V32.7388H53.9802V27.4506C54.3567 27.5196 54.734 27.5923 55.1141 27.6654C57.8503 28.1921 60.7302 28.7465 64.482 28.1851C73.2788 26.8889 74.9923 20.0627 74.9923 20.0627C68.3084 25.8329 62.8638 24.5747 56.6677 23.1427C55.7889 22.9397 54.895 22.7331 53.9802 22.5426V20.9656C56.4714 20.4769 58.5267 20.8727 60.6937 21.2902C62.9131 21.7177 65.2497 22.1677 68.2915 21.713C75.4302 20.6459 76.8205 15.1201 76.8205 15.1201C71.4002 19.8014 66.9802 18.7804 61.9537 17.6194C60.8846 17.3724 59.788 17.1192 58.6486 16.913C56.6205 16.5458 55.1027 16.913 53.9717 17.5611L53.9802 8ZM41.2803 46.5728H42.22C42.5455 46.5697 42.8704 46.6016 43.1893 46.6679C43.4675 46.7262 43.7345 46.8298 43.9802 46.9746C44.2086 47.1083 44.3967 47.303 44.5241 47.5376C44.6515 47.7721 44.7134 48.0376 44.703 48.3053C44.7113 48.5954 44.6453 48.8827 44.5117 49.1391C44.3877 49.3675 44.2093 49.5606 43.9929 49.7008C43.7625 49.8466 43.5095 49.9518 43.2446 50.0119C42.9505 50.0808 42.6494 50.1142 42.3475 50.1112H41.7395C41.586 50.1091 41.4328 50.0989 41.2803 50.081V46.5728ZM41.2803 41.6735C41.337 41.6735 41.4068 41.6628 41.4882 41.6503C41.5534 41.6404 41.6261 41.6293 41.7055 41.6216C41.8195 41.6105 41.9612 41.6136 42.1307 41.6172C42.2267 41.6193 42.3315 41.6216 42.4453 41.6216C42.9528 41.5907 43.4574 41.7189 43.8909 41.9888C44.0578 42.1093 44.1921 42.2707 44.2813 42.458C44.3705 42.6453 44.4117 42.8525 44.4011 43.0603C44.406 43.3488 44.3179 43.631 44.1502 43.8639C43.9558 44.111 43.6964 44.2968 43.4019 44.3996C43.0061 44.534 42.5905 44.5983 42.1732 44.5897H41.2676L41.2803 41.6735ZM38.6868 52.0425C38.9844 52.0857 39.2948 52.1116 39.7582 52.1462C40.2216 52.1807 40.8509 52.2023 41.5312 52.2067C42.242 52.2116 42.9523 52.1669 43.657 52.0727C44.1946 52.0033 44.7234 51.8759 45.2344 51.6925C45.6306 51.5493 46.0022 51.3438 46.3356 51.0833C46.5888 50.8774 46.8133 50.6376 47.0032 50.3705C47.1886 50.0991 47.3321 49.8004 47.4283 49.4848C47.5369 49.1444 47.59 48.7884 47.5856 48.4306C47.5929 47.9418 47.4835 47.4585 47.2668 47.0221C47.0663 46.6153 46.7752 46.2617 46.4164 45.9896C46.0417 45.7094 45.6173 45.5055 45.1664 45.389V45.3544C45.5813 45.1983 45.9656 44.9687 46.3016 44.6761C46.584 44.4236 46.8101 44.1129 46.9649 43.7645C47.1056 43.4346 47.178 43.0786 47.1775 42.719C47.1835 42.3628 47.12 42.0088 46.9904 41.6778C46.8757 41.3734 46.7039 41.0946 46.4844 40.8569C46.268 40.6175 46.0118 40.4187 45.7276 40.2693C45.4244 40.086 45.1003 39.9409 44.7625 39.8373C44.3804 39.727 43.9889 39.6532 43.5933 39.6169C43.1681 39.5737 42.6621 39.5564 42.1052 39.5564C41.6333 39.5564 41.1739 39.5564 40.7191 39.591C40.564 39.6027 40.4158 39.6135 40.272 39.624C39.994 39.6443 39.7325 39.6632 39.4691 39.686C39.1595 39.7128 38.9903 39.7396 38.821 39.7663C38.7718 39.7741 38.7225 39.7819 38.6698 39.7897C38.6315 39.7959 38.5966 39.816 38.5717 39.8461C38.5467 39.8762 38.5332 39.9145 38.5337 39.9539V51.8697C38.5355 51.9088 38.5511 51.9461 38.5776 51.9746C38.6041 52.0032 38.6398 52.0211 38.6783 52.0252L38.6868 52.0425ZM53.6146 49.0311C53.6188 48.9491 53.6188 48.8669 53.6146 48.7848L53.6273 47.8214C53.1873 47.8122 52.7478 47.8557 52.3178 47.951C51.9799 48.0115 51.6634 48.1604 51.3995 48.383C51.2859 48.4902 51.1964 48.6209 51.137 48.7662C51.0776 48.9116 51.0496 49.0682 51.055 49.2256C51.048 49.434 51.098 49.6404 51.1996 49.8218C51.2912 49.9772 51.4258 50.1019 51.5865 50.1803C51.762 50.2588 51.9518 50.2985 52.1435 50.297C52.3594 50.2948 52.5724 50.2462 52.7685 50.1544C52.9584 50.0676 53.129 49.9427 53.2702 49.7872C53.4047 49.6355 53.5074 49.4577 53.5721 49.2644C53.5932 49.1882 53.6075 49.11 53.6146 49.0311ZM56.0891 45.2291C56.2238 45.7213 56.2882 46.2305 56.2804 46.7413L56.3229 49.865C56.3229 49.9611 56.3215 50.0554 56.3201 50.1485C56.3172 50.3313 56.3145 50.5098 56.3229 50.6901C56.3357 50.9623 56.3484 51.2129 56.3697 51.4419C56.3875 51.6421 56.4159 51.8411 56.4547 52.0382H53.9717C53.9281 52.037 53.8865 52.019 53.8557 51.9876C53.8248 51.9562 53.807 51.914 53.8059 51.8697V51.1351H53.7549C53.4615 51.4947 53.0865 51.7765 52.6622 51.956C52.2046 52.1507 51.7126 52.2477 51.2166 52.2412C50.803 52.2438 50.3929 52.1646 50.0091 52.0079C49.6704 51.8709 49.3645 51.6617 49.112 51.3944C48.869 51.1473 48.6768 50.8536 48.5465 50.5303C48.4173 50.2004 48.3509 49.8485 48.3509 49.4934C48.3373 48.9706 48.4627 48.4538 48.7142 47.9975C48.9657 47.5412 49.3337 47.1624 49.7795 46.9011C50.2874 46.6001 50.8404 46.3855 51.4164 46.2661C52.116 46.1222 52.8285 46.0526 53.5423 46.0587V45.9463C53.5445 45.8128 53.5244 45.6798 53.4828 45.5532C53.4352 45.4086 53.3534 45.2781 53.2447 45.173C53.1058 45.0373 52.9365 44.938 52.7515 44.8835C52.4856 44.8016 52.2087 44.7623 51.9309 44.7669C51.625 44.7676 51.3201 44.801 51.021 44.8662C50.7315 44.9229 50.447 45.0038 50.1707 45.1082C49.9924 45.1746 49.819 45.254 49.652 45.3458C49.6302 45.3569 49.6063 45.363 49.582 45.3637C49.5576 45.3644 49.5334 45.3596 49.5111 45.3497C49.4888 45.3398 49.4688 45.325 49.4528 45.3064C49.4367 45.2878 49.4249 45.2659 49.4181 45.2421L48.993 43.7732C48.983 43.7367 48.9851 43.698 48.999 43.6628C49.0128 43.6277 49.0376 43.5982 49.0695 43.5788C49.2952 43.4639 49.5281 43.3643 49.7668 43.2806C50.1445 43.1434 50.5327 43.0379 50.9275 42.9653C51.4144 42.8771 51.9082 42.8337 52.4029 42.8356C53.033 42.8214 53.6603 42.9269 54.2523 43.1467C54.7141 43.321 55.1261 43.609 55.4513 43.9849C55.7485 44.3488 55.966 44.773 56.0891 45.2291ZM57.9088 52.064H60.3238C60.3671 52.0641 60.4086 52.0469 60.4396 52.0162C60.4705 51.9856 60.4885 51.9438 60.4897 51.8999V46.8709C60.483 46.7443 60.483 46.6173 60.4897 46.4907C60.4982 46.3811 60.5225 46.2734 60.5619 46.171C60.631 45.9901 60.727 45.821 60.8468 45.6698C60.9742 45.5074 61.1335 45.3735 61.3144 45.2767C61.5195 45.1693 61.7471 45.1144 61.9778 45.1168C62.2658 45.1057 62.549 45.194 62.7813 45.3674C62.9946 45.5447 63.1514 45.7822 63.232 46.05C63.3312 46.3803 63.3786 46.7244 63.3723 47.0696V51.8999C63.3734 51.9431 63.3907 51.9842 63.4208 52.0147C63.4509 52.0453 63.4913 52.063 63.5339 52.064H65.9616C66.0048 52.0641 66.0464 52.0469 66.0774 52.0162C66.1084 51.9856 66.1263 51.9438 66.1274 51.8999V46.7413C66.1368 46.1558 66.055 45.5726 65.885 45.0131C65.7505 44.5668 65.5245 44.1545 65.2218 43.8034C64.9452 43.4881 64.6002 43.2426 64.2141 43.0862C63.8079 42.9251 63.3746 42.8459 62.9386 42.8529C62.5992 42.8521 62.2614 42.9001 61.9352 42.9955C61.658 43.0797 61.3934 43.2018 61.1487 43.3584C60.9379 43.4928 60.7438 43.6524 60.5704 43.8336C60.4296 43.9772 60.3055 44.1366 60.2005 44.3089H60.1452V43.2288C60.1458 43.2063 60.142 43.1839 60.1338 43.163C60.1258 43.1421 60.1136 43.123 60.0982 43.1069C60.0828 43.0908 60.0642 43.0779 60.0439 43.0692C60.0235 43.0605 60.0016 43.056 59.9794 43.056H57.6282L57.6792 43.851C57.7033 44.2346 57.7023 44.5226 57.7011 44.9127C57.7008 45.0057 57.7005 45.1045 57.7005 45.2119V51.8956C57.6999 51.9179 57.7038 51.94 57.7119 51.9607C57.72 51.9814 57.7322 52.0003 57.7478 52.016C57.7633 52.0318 57.7818 52.0442 57.8022 52.0524C57.8225 52.0607 57.8444 52.0647 57.8663 52.064H57.9088ZM69.8647 45.942C69.7984 46.135 69.7542 46.335 69.7329 46.5383L72.9939 46.5555C72.9958 46.3623 72.9759 46.1695 72.9344 45.9809C72.8866 45.772 72.8062 45.5722 72.6963 45.389C72.5788 45.1869 72.4137 45.0176 72.2159 44.8965C71.979 44.7756 71.7177 44.7127 71.4527 44.7127C71.1877 44.7127 70.9264 44.7756 70.6895 44.8965C70.4889 45.008 70.3147 45.1628 70.1793 45.3501C70.0451 45.5298 69.9389 45.7294 69.8647 45.942ZM75.5042 48.1433C75.4943 48.2056 75.4855 48.2613 75.4855 48.3096L75.4642 48.3053C75.4582 48.3446 75.4387 48.3805 75.4091 48.4066C75.3795 48.4327 75.3418 48.4473 75.3027 48.4479H69.7329C69.7444 48.7183 69.8266 48.9808 69.971 49.2082C70.1125 49.4262 70.3017 49.6081 70.5237 49.7397C70.767 49.8858 71.0308 49.9937 71.306 50.0594C71.6101 50.1296 71.921 50.1644 72.2329 50.1631C72.667 50.1664 73.1006 50.1346 73.5297 50.0681C73.8592 50.0137 74.1846 49.9357 74.5033 49.8347C74.5257 49.8268 74.5494 49.824 74.5729 49.8265C74.5964 49.829 74.6192 49.8367 74.6394 49.849C74.6597 49.8614 74.677 49.8781 74.6903 49.8981C74.7035 49.918 74.7122 49.9406 74.7159 49.9644C74.8137 50.4871 74.9157 51.0142 75.0178 51.537C75.0235 51.5762 75.0162 51.6162 74.997 51.6507C74.9777 51.6851 74.9476 51.7121 74.9115 51.7271C74.4704 51.8996 74.0131 52.0255 73.5467 52.103C72.9845 52.1972 72.4158 52.2449 71.846 52.2455C70.9636 52.2638 70.0895 52.0699 69.2949 51.6795C68.6121 51.3327 68.051 50.7806 67.6878 50.0983C67.3016 49.3455 67.1086 48.5059 67.1266 47.6573C67.1284 47.1925 67.1855 46.7298 67.2966 46.279C67.4117 45.8253 67.5862 45.3894 67.8154 44.9829C68.0494 44.5706 68.3481 44.2 68.6997 43.8855C69.069 43.5589 69.4941 43.3042 69.954 43.1338C70.4837 42.9436 71.0419 42.8486 71.6036 42.8529C72.119 42.8459 72.6316 42.9322 73.1173 43.1078C73.5298 43.2594 73.9085 43.4929 74.2312 43.7948C74.5419 44.0816 74.7996 44.4225 74.9923 44.8015C75.1848 45.1889 75.3277 45.5998 75.4175 46.0241C75.5075 46.4589 75.5531 46.9019 75.5535 47.3462C75.5535 47.4625 75.5455 47.5824 75.5378 47.6979C75.5306 47.8054 75.5237 47.9091 75.5237 48.0029C75.5185 48.0527 75.5111 48.0997 75.5042 48.1433ZM76.6164 51.6795C76.9794 51.855 77.36 51.9897 77.7516 52.0813C78.2828 52.206 78.8264 52.2684 79.3715 52.2671C80.0981 52.2822 80.8205 52.1515 81.4974 51.8826C82.0133 51.6734 82.457 51.3142 82.7729 50.85C83.0205 50.4525 83.1662 49.9983 83.1966 49.5289C83.227 49.0595 83.1413 48.5898 82.9472 48.1627C82.765 47.8002 82.5014 47.4864 82.1777 47.2468C81.7574 46.949 81.296 46.7161 80.8086 46.5555C80.5191 46.4564 80.2353 46.341 79.9583 46.2098C79.7974 46.1324 79.653 46.0238 79.5331 45.8902C79.4449 45.7826 79.3994 45.6455 79.4056 45.5056C79.4027 45.4021 79.4262 45.2995 79.4739 45.2078C79.5216 45.1163 79.5918 45.0387 79.6777 44.9829C79.9122 44.8409 80.1831 44.7732 80.4557 44.7884C80.7043 44.7918 80.9521 44.8193 81.1955 44.8706C81.4234 44.9221 81.6478 44.9885 81.8673 45.0693L82.1947 45.2076C82.2169 45.2195 82.2415 45.226 82.2666 45.2265C82.2917 45.2271 82.3166 45.2217 82.3393 45.2108C82.362 45.1999 82.3819 45.1838 82.3974 45.1637C82.4129 45.1436 82.4235 45.1202 82.4286 45.0952L82.8325 43.4318C82.8362 43.413 82.8336 43.3934 82.8252 43.3761C82.8167 43.3589 82.8028 43.3451 82.7857 43.3368C82.4662 43.1892 82.1329 43.0748 81.7908 42.9955C81.3234 42.888 80.8456 42.8344 80.3664 42.8356C79.8606 42.8323 79.3573 42.9082 78.8741 43.0603C78.4603 43.1927 78.0751 43.4038 77.7389 43.6824C77.4319 43.936 77.1849 44.2563 77.0161 44.6199C76.8454 44.989 76.7568 45.3917 76.7567 45.7994C76.7497 46.1598 76.8316 46.5163 76.9948 46.8364C77.1936 47.2052 77.4729 47.523 77.8112 47.7652C78.2649 48.0895 78.7655 48.3402 79.295 48.5084C79.5659 48.5932 79.8291 48.7016 80.0816 48.8324C80.237 48.9027 80.3718 49.0129 80.4727 49.1521C80.5493 49.2729 80.5878 49.4146 80.5833 49.5582C80.5879 49.6649 80.5648 49.771 80.5162 49.8658C80.4677 49.9606 80.3956 50.0408 80.3069 50.0983C80.0307 50.2489 79.7184 50.3178 79.4056 50.297C79.1195 50.29 78.8348 50.2552 78.5552 50.1933C78.2667 50.1284 77.9827 50.0448 77.7049 49.9427C77.539 49.8864 77.3782 49.8156 77.2244 49.731C77.2026 49.7207 77.1788 49.7154 77.1547 49.7154C77.1306 49.7154 77.1068 49.7207 77.085 49.731C77.0632 49.7412 77.0438 49.7562 77.0282 49.7749C77.0126 49.7936 77.0013 49.8154 76.9948 49.839L76.5696 51.4894C76.5624 51.5257 76.5663 51.5634 76.5807 51.5974C76.5952 51.6313 76.6195 51.66 76.6505 51.6795H76.6164ZM86.9566 45.942C86.8851 46.1336 86.8393 46.3342 86.8206 46.5383L90.0859 46.5339C90.0841 46.3407 90.0627 46.1481 90.0222 45.9593C89.9743 45.7504 89.8939 45.5506 89.784 45.3674C89.6638 45.1732 89.4989 45.0116 89.3036 44.8965C89.0668 44.7756 88.8054 44.7127 88.5404 44.7127C88.2754 44.7127 88.014 44.7756 87.7772 44.8965C87.5757 45.0068 87.4014 45.1619 87.267 45.3501C87.1324 45.5289 87.0276 45.7288 86.9566 45.942ZM92.5916 48.1433C92.5818 48.2056 92.5731 48.2613 92.5731 48.3096L92.535 48.3053C92.529 48.3446 92.5094 48.3805 92.48 48.4066C92.4502 48.4327 92.4125 48.4473 92.3733 48.4479H86.7993C86.8143 48.7183 86.8978 48.9802 87.0417 49.2082C87.1832 49.4262 87.3724 49.6081 87.5944 49.7397C87.8377 49.8858 88.1015 49.9937 88.3767 50.0594C88.6808 50.1296 88.9917 50.1644 89.3036 50.1631C89.7376 50.1664 90.1712 50.1346 90.6004 50.0681C90.9298 50.0132 91.2551 49.9352 91.574 49.8347C91.5963 49.8268 91.6201 49.824 91.6436 49.8265C91.6671 49.829 91.6899 49.8367 91.7101 49.849C91.7304 49.8614 91.7477 49.8781 91.761 49.8981C91.7741 49.918 91.7829 49.9406 91.7866 49.9644C91.8376 50.2257 91.8876 50.4882 91.9375 50.7507C91.9875 51.0131 92.0374 51.2756 92.0885 51.537C92.0951 51.5763 92.088 51.6166 92.0686 51.6512C92.0493 51.6859 92.0188 51.7127 91.9822 51.7271C91.5411 51.8996 91.0838 52.0255 90.6173 52.103C90.0552 52.1972 89.4864 52.2449 88.9167 52.2455C88.0343 52.2638 87.1602 52.0699 86.3656 51.6795C85.6828 51.3327 85.1217 50.7806 84.7585 50.0983C84.3723 49.3455 84.1793 48.5059 84.1973 47.6573C84.1991 47.1925 84.2562 46.7298 84.3673 46.279C84.4805 45.8247 84.6551 45.3885 84.886 44.9829C85.1201 44.5706 85.4188 44.2 85.7704 43.8855C86.1457 43.5562 86.5783 43.3012 87.0459 43.1338C87.5741 42.9432 88.1309 42.8481 88.6913 42.8529C89.2068 42.8459 89.7193 42.9322 90.205 43.1078C90.6175 43.2594 90.9961 43.4929 91.3189 43.7948C91.6296 44.0816 91.8873 44.4225 92.08 44.8015C92.2725 45.1889 92.4154 45.5998 92.5051 46.0241C92.5954 46.4589 92.6406 46.9019 92.6412 47.3462C92.6412 47.4625 92.633 47.5824 92.6254 47.6979C92.6183 47.8054 92.6112 47.9091 92.6112 48.0029C92.6063 48.0527 92.5987 48.0997 92.5916 48.1433Z" fill="#006738"/>
</g>
<defs>
<clipPath id="clip0_43_201">
<rect width="55" height="44.2683" fill="white" transform="translate(38 8)"/>
</clipPath>
</defs>
</svg>
