<svg width="60" height="60" viewBox="0 0 60 60" fill="none" xmlns="http://www.w3.org/2000/svg">
<rect width="60" height="60" fill="#006738"/>
<path fill-rule="evenodd" clip-rule="evenodd" d="M19.5675 23.5796C19.5675 23.5796 20.9987 16.3079 28.5768 17.7041C29.8821 17.9446 31.1394 18.2366 32.3657 18.5214C38.2594 19.8904 43.4384 21.0933 49.7943 15.6099C49.7943 15.6099 48.1699 22.0598 39.8332 23.3032C36.2798 23.8333 33.5454 23.3077 30.9501 22.8088C27.4567 22.1374 24.2153 21.5143 19.5675 23.5796ZM10.0143 9H50.9893V50.6371H10.0143V41.7367C10.648 41.8529 11.283 41.9752 11.9227 42.0983C16.5278 42.9847 21.375 43.9178 27.6895 42.9729C42.4953 40.7913 45.3791 29.3023 45.3791 29.3023C34.1297 39.014 24.966 36.8963 14.5376 34.4863C13.0585 34.1445 11.5539 33.7968 10.0143 33.4762V30.8221C14.2071 29.9994 17.6664 30.6657 21.3136 31.3683C25.049 32.0878 28.9816 32.8453 34.1013 32.08C46.1162 30.2839 48.4561 20.9836 48.4561 20.9836C39.3333 28.8626 31.8942 27.1442 23.4342 25.1901C21.6348 24.7745 19.7893 24.3482 17.8716 24.0013C14.4582 23.3832 11.9035 24.0013 10 25.092L10.0143 9Z" fill="white"/>
</svg>
