<svg width="60" height="60" viewBox="0 0 60 60" fill="none" xmlns="http://www.w3.org/2000/svg">
<rect width="60" height="60" fill="#0E5074"/>
<g clip-path="url(#clip0_476_816)">
<path fill-rule="evenodd" clip-rule="evenodd" d="M24.2892 31.8382L17.8013 22.6346C17.6786 22.4413 17.5088 22.2822 17.3077 22.1718C17.1065 22.0615 16.8806 22.0035 16.6509 22.0034C16.4212 22.0033 16.1952 22.061 15.9939 22.1711C15.7927 22.2813 15.6227 22.4403 15.4998 22.6334L8.99805 31.8382H10.6317L15.8328 24.4678L21.0262 31.8382H24.2892ZM35.7262 30.4892H27.567L29.853 22.0195H27.0912L25.0926 29.4246C25.0159 29.7109 25.0065 30.0109 25.0651 30.3014C25.1237 30.5919 25.2487 30.865 25.4305 31.0997C25.6122 31.3344 25.8458 31.5243 26.1132 31.6547C26.3805 31.7852 26.6745 31.8526 26.9722 31.8518H35.3553L35.7262 30.4892ZM40.4789 24.7911L40.9347 23.1603H48.5587L48.869 22.0204H38.9883L37.8496 26.1519C37.8496 26.1519 48.1642 25.1689 48.1642 28.403C48.1642 31.4466 40.2649 30.7633 37.5765 30.4843L37.2204 31.9402C40.3882 32.2657 50.9992 33.0128 50.9992 28.4241C50.9992 24.6666 43.6766 24.6279 40.4789 24.79V24.7911ZM37.0705 35.6644C37.1094 35.7425 37.1321 35.8276 37.1374 35.9147C37.1426 36.0017 37.1303 36.0889 37.1011 36.1711C37.0685 36.2986 37.0108 36.4185 36.9313 36.5237C36.8519 36.6289 36.7523 36.7174 36.6383 36.7841C36.3521 36.9394 36.0286 37.0137 35.7029 36.9989H34.2654L35.1029 33.901H36.4514C36.7198 33.8771 36.9877 33.9509 37.2055 34.1088C37.2829 34.1833 37.3364 34.279 37.3594 34.3837C37.3823 34.4884 37.3736 34.5975 37.3344 34.6974C37.2922 34.8615 37.2078 35.0118 37.0893 35.1335C36.9709 35.2538 36.8262 35.3453 36.6665 35.4011C36.7486 35.4139 36.8271 35.4439 36.8967 35.4891C36.9663 35.5343 37.0255 35.5936 37.0705 35.6632V35.6644ZM36.4438 36.5871C36.5275 36.5401 36.6004 36.4764 36.6579 36.3998C36.7154 36.3233 36.7562 36.2356 36.7778 36.1425C36.8821 35.7561 36.6515 35.5629 36.0861 35.5629H34.9832L34.6686 36.7266H35.7715C36.004 36.7374 36.2354 36.689 36.4438 36.5859V36.5871ZM35.3598 34.1719L35.056 35.296H36.0517C36.2689 35.3047 36.4844 35.2549 36.6755 35.152C36.7541 35.1072 36.8228 35.0471 36.8775 34.9752C36.9322 34.9034 36.9718 34.8213 36.9939 34.7339C37.0225 34.6631 37.029 34.5853 37.0126 34.5108C36.9961 34.4362 36.9575 34.3683 36.9017 34.3158C36.7422 34.2056 36.5489 34.1547 36.3555 34.1719H35.3598ZM40.2616 36.1721H38.5203L37.9215 36.9998H37.5776L39.844 33.902H40.1699L40.7612 36.9998H40.4129L40.2616 36.1721ZM40.2128 35.9066L39.9126 34.2417L38.7126 35.9066H40.2128ZM45.1755 33.8999L44.3382 36.9977H44.0657L42.7359 34.484L42.0564 36.9977H41.7265L42.5638 33.8999H42.8363L44.1706 36.4133L44.85 33.8999H45.1755ZM47.1652 35.5413L46.3538 36.1833L46.1337 36.9977H45.8038L46.6413 33.8999H46.9712L46.465 35.7718L48.8064 33.8999H49.1858L47.4536 35.3026L48.4423 36.9977H48.0492L47.1652 35.5413Z" fill="white"/>
</g>
<defs>
<clipPath id="clip0_476_816">
<rect width="42" height="15" fill="white" transform="translate(9 22)"/>
</clipPath>
</defs>
</svg>
