<svg width="130" height="60" viewBox="0 0 130 60" fill="none" xmlns="http://www.w3.org/2000/svg">
<rect width="130" height="60" fill="white"/>
<path d="M49.6953 40.8047V35.7699C49.6953 35.0578 49.4095 34.3953 48.2328 34.3953C47.1064 34.3953 46.7029 35.0743 46.7029 35.8031V40.8047H44.5679V35.7699C44.5679 35.0578 44.282 34.3953 43.1053 34.3953C41.9789 34.3953 41.5754 35.0743 41.5754 35.8031V40.8047H39.4404V32.7888H41.3569L41.3905 33.8653H41.4074C41.7435 33.0869 42.5001 32.5735 43.8113 32.5735C44.9041 32.5735 45.8287 33.0207 46.2154 33.8156C46.602 33.1035 47.5939 32.5735 48.8043 32.5735C50.6704 32.5735 51.7967 33.6335 51.7967 35.3724V40.8047H49.6953Z" fill="#1F191A"/>
<path d="M57.6475 41.0366C55.2099 41.0366 53.2598 39.3142 53.2598 36.8133C53.2598 34.2794 55.1931 32.5735 57.6475 32.5735C60.0684 32.5735 62.0185 34.2959 62.0185 36.8133C62.0017 39.3307 60.0852 41.0366 57.6475 41.0366ZM57.6475 34.4284C56.4371 34.4284 55.3948 35.4221 55.3948 36.8464C55.3948 38.2542 56.4371 39.2479 57.6475 39.2479C58.858 39.2479 59.9002 38.2542 59.9002 36.8464C59.8835 35.4055 58.8411 34.4284 57.6475 34.4284Z" fill="#1F191A"/>
<path d="M69.5499 40.8048V39.8608H69.5333C69.1126 40.5232 68.2723 41.0035 67.0451 41.0035C65.1622 41.0035 63.1279 39.546 63.1279 36.7968C63.1279 34.2628 64.9604 32.5735 67.2635 32.5735C68.121 32.5735 69.0793 32.8716 69.3986 33.1698V28.2012H71.4832V40.8048H69.5499ZM69.3819 35.2068C69.1297 34.9087 68.5073 34.445 67.5495 34.445C66.2547 34.445 65.2459 35.4553 65.2459 36.8465C65.2459 38.2542 66.2547 39.248 67.5495 39.248C68.4569 39.248 69.0793 38.7842 69.3819 38.3205V35.2068Z" fill="#1F191A"/>
<path d="M79.0821 41.0698C78.5606 40.9705 77.9891 40.5564 77.8045 39.9271C77.4343 40.722 76.594 41.0367 75.6523 41.0367C74.1224 41.0367 72.9795 39.9436 72.9795 38.4696C72.9795 36.9625 74.2233 36.035 75.7027 35.886L77.4847 35.7204V35.3394C77.4847 34.7432 77.0479 34.2795 76.0558 34.2795C75.2659 34.2795 74.3918 34.5445 73.7865 34.9088L73.3997 33.2526C74.1058 32.8055 75.1312 32.557 76.1567 32.557C78.1571 32.557 79.5527 33.5507 79.5527 35.4554V38.3868C79.5527 39.2149 79.9391 39.6621 80.5277 39.8277L79.0821 41.0698ZM77.4847 37.2109L76.2071 37.3103C75.3496 37.3765 74.9799 37.9231 74.9799 38.453C74.9799 38.9499 75.3668 39.3971 75.9887 39.3971C76.7957 39.3971 77.4847 38.8009 77.4847 37.9065V37.2109Z" fill="#1F191A"/>
<path d="M83.7393 41.1195C82.6463 41.0201 81.5371 40.3245 81.5371 38.5855V28.2178H83.6551V38.3371C83.6551 39.0327 84.1428 39.4633 84.7481 39.5461L83.7393 41.1195Z" fill="#1F191A"/>
<path d="M96.1967 40.8047V35.7699C96.1967 35.0578 95.9107 34.3953 94.734 34.3953C93.6077 34.3953 93.2042 35.0743 93.2042 35.8031V40.8047H91.0691V35.7699C91.0691 35.0578 90.7831 34.3953 89.6063 34.3953C88.48 34.3953 88.0765 35.0743 88.0765 35.8031V40.8047H85.9414V32.7888H87.8581L87.8919 33.8653H87.9085C88.245 33.0869 89.0011 32.5735 90.3125 32.5735C91.4055 32.5735 92.33 33.0207 92.7164 33.8156C93.1033 33.1035 94.0949 32.5735 95.3055 32.5735C97.1717 32.5735 98.298 33.6335 98.298 35.3724V40.8047H96.1967Z" fill="#01B0CC"/>
<path d="M105.862 41.0698C105.341 40.9705 104.77 40.5564 104.585 39.9271C104.215 40.722 103.374 41.0367 102.433 41.0367C100.903 41.0367 99.7598 39.9436 99.7598 38.4696C99.7598 36.9625 101.004 36.035 102.483 35.886L104.266 35.7204V35.3394C104.266 34.7432 103.828 34.2795 102.837 34.2795C102.046 34.2795 101.172 34.5445 100.567 34.9088L100.163 33.2526C100.869 32.8055 101.895 32.557 102.937 32.557C104.938 32.557 106.333 33.5507 106.333 35.4554V38.3868C106.333 39.2149 106.737 39.6621 107.308 39.8277L105.862 41.0698ZM104.266 37.2109L102.988 37.3103C102.13 37.3765 101.761 37.9231 101.761 38.453C101.761 38.9499 102.164 39.3971 102.769 39.3971C103.576 39.3971 104.266 38.8009 104.266 37.9065V37.2109Z" fill="#01B0CC"/>
<path d="M109.527 31.464C109.141 31.464 108.317 30.669 108.317 30.2715C108.317 29.8906 109.124 29.0791 109.527 29.0791C109.948 29.0791 110.705 29.8741 110.705 30.2715C110.705 30.669 109.931 31.464 109.527 31.464ZM108.435 40.8049V32.7889H110.604V40.8049H108.435Z" fill="#01B0CC"/>
<path d="M114.89 40.9539C113.865 40.9539 113.092 40.722 112.487 40.3908L112.251 38.3867C112.89 38.8837 113.848 39.2646 114.79 39.2646C115.395 39.2646 115.815 38.9499 115.815 38.5358C115.815 38.0887 115.496 37.8402 114.874 37.658C113.294 37.1446 112.386 36.3993 112.386 35.0744C112.386 33.6169 113.562 32.6564 115.26 32.6564C116.219 32.6564 117.16 32.9379 117.53 33.1532L117.16 34.7763C116.79 34.5444 116.151 34.296 115.395 34.296C114.84 34.296 114.504 34.5775 114.504 34.9916C114.504 35.3725 114.79 35.5878 115.445 35.7866C117.143 36.3165 118.001 37.128 118.001 38.4861C117.967 39.8111 116.958 40.9539 114.89 40.9539Z" fill="#01B0CC"/>
<path d="M22.5117 29.2613V39.364L41.2227 20.9472V10.8279L22.5117 29.2613Z" fill="url(#paint0_linear_68_218)"/>
<path d="M22.5117 39.3475L34.3637 46.9162V36.8797L22.5117 29.2612V39.3475Z" fill="url(#paint1_linear_68_218)"/>
<path d="M12.7783 33.2196L21.6211 38.801H22.5121V29.2614L12.7783 23.1003V33.2196Z" fill="url(#paint2_linear_68_218)"/>
<path d="M12.7783 38.8009V48.9202L22.5121 39.3806V29.2612L12.7783 38.8009Z" fill="url(#paint3_linear_68_218)"/>
<defs>
<linearGradient id="paint0_linear_68_218" x1="22.5115" y1="25.0919" x2="41.222" y2="25.0919" gradientUnits="userSpaceOnUse">
<stop stop-color="#006A69"/>
<stop offset="0.25" stop-color="#007F84"/>
<stop offset="0.5736" stop-color="#0097A8"/>
<stop offset="0.8352" stop-color="#00A8C1"/>
<stop offset="1" stop-color="#00B1CD"/>
</linearGradient>
<linearGradient id="paint1_linear_68_218" x1="22.5115" y1="38.0832" x2="34.3616" y2="38.0832" gradientUnits="userSpaceOnUse">
<stop stop-color="#3F9E71"/>
<stop offset="1" stop-color="#166E55"/>
</linearGradient>
<linearGradient id="paint2_linear_68_218" x1="12.7783" y1="30.946" x2="22.5119" y2="30.946" gradientUnits="userSpaceOnUse">
<stop stop-color="#8CAD34"/>
<stop offset="0.7172" stop-color="#63842A"/>
<stop offset="1" stop-color="#547424"/>
</linearGradient>
<linearGradient id="paint3_linear_68_218" x1="12.7783" y1="39.0885" x2="22.5119" y2="39.0885" gradientUnits="userSpaceOnUse">
<stop stop-color="#2B9E8F"/>
<stop offset="1" stop-color="#046666"/>
</linearGradient>
</defs>
</svg>
