<svg width="130" height="60" viewBox="0 0 130 60" fill="none" xmlns="http://www.w3.org/2000/svg">
<rect width="130" height="60" fill="white"/>
<g clip-path="url(#clip0_476_754)">
<path d="M19.7934 19.4156H16.002L16.2424 19.9743L22.4381 34.0118H24.0009L28.8326 22.9527L29.4198 21.6043L30.1365 19.9743V19.4156H26.5855L23.2796 27.5795H23.1779L19.7934 19.4156ZM44.3173 33.8456H48.2012L47.9284 33.3099L41.409 19.2309H39.8185L33.3176 33.3099V33.8456H36.9287L37.7748 32.0308H43.4712L44.3173 33.8456ZM42.2736 28.877H38.9723L40.6045 25.086L42.2736 28.877Z" fill="#2D5173"/>
<path d="M47.2305 26.3974C47.2536 31.3059 50.9664 33.7763 54.6422 33.7578C57.7169 33.7578 60.9581 32.1509 61.4945 28.0689H57.8603C57.4673 29.6158 56.2096 30.3962 54.6422 30.3962C52.4552 30.3777 51.0496 28.5215 51.0496 26.3974C51.0496 24.0101 52.4737 22.3801 54.6422 22.3801C56.1911 22.3801 57.2823 23.0404 57.8002 24.5042H61.4344C60.8749 20.6485 57.6337 19.0185 54.6422 19.0185C50.9664 19.0185 47.2536 21.4935 47.2305 26.3974ZM72.0503 19.1847H63.0295V33.6147H72.2353V30.3362H66.7054V27.8011H71.6157V24.5226H66.7054V22.4817H72.0503V19.1847ZM83.3136 28.503C86.9663 26.028 85.9352 19.2078 80.2573 19.1847H73.9229V33.6147H77.6172V29.3665H79.536L82.0143 33.6147H86.49L86.1432 33.079L83.3136 28.503ZM80.2573 26.088H77.6172V22.4817C78.4818 22.4817 79.3927 22.4632 80.2573 22.4817C82.3657 22.5047 82.2594 26.088 80.2573 26.088ZM90.4433 22.4817V33.6147H94.096V22.4817H97.6238V19.1847H86.8923V22.4817H90.4433ZM107.25 33.6147H110.861V33.079L104.342 19H102.751L96.2506 33.079L95.9778 33.6147H99.8663L100.712 31.8H106.404L107.25 33.6147ZM105.207 28.6461H101.91L103.537 24.8551L105.207 28.6461Z" fill="#2D5173"/>
<path d="M106.398 31.7999L107.254 33.6239H111.133L110.278 31.7999H106.398Z" fill="#F7933A"/>
<path d="M32.4123 22.2554L31.8204 19.4202H28.5469L29.1387 22.2554H32.4123ZM29.2728 22.9019L31.5569 33.8456H34.8258L32.5463 22.9019H29.2728Z" fill="#F7933A"/>
<path d="M90.9929 40.3333C91.2149 40.3333 91.3952 40.2825 91.5339 40.1855C91.668 40.0885 91.7373 39.9084 91.7373 39.6406C91.7373 39.5113 91.7188 39.4005 91.6819 39.3128C91.6449 39.225 91.5986 39.1558 91.5339 39.1004C91.4738 39.0496 91.3998 39.0126 91.3166 38.9895C91.2287 38.9711 91.1363 38.9572 91.0345 38.9572H90.6369V40.3333H90.9929ZM90.9005 38.32C91.1548 38.32 91.3397 38.2738 91.4599 38.1815C91.5755 38.0891 91.6356 37.9367 91.6356 37.7197C91.6356 37.5027 91.5801 37.3457 91.4738 37.2579C91.3674 37.1702 91.201 37.124 90.9698 37.124H90.6369V38.32H90.9005ZM91.2565 36.4453C91.446 36.4453 91.6171 36.4637 91.779 36.5053C91.9408 36.5422 92.0749 36.6069 92.1905 36.6946C92.3061 36.787 92.3985 36.907 92.4586 37.0548C92.5234 37.2025 92.5557 37.3872 92.5557 37.6043C92.5557 37.849 92.5002 38.0614 92.3847 38.2415C92.2691 38.417 92.0934 38.537 91.8668 38.6017V38.6155C92.1211 38.6478 92.3245 38.754 92.4725 38.9387C92.6205 39.1235 92.6991 39.3682 92.6991 39.6729C92.6991 39.853 92.6713 40.0239 92.6251 40.1855C92.5788 40.3471 92.5002 40.4903 92.3847 40.6103C92.2737 40.7304 92.1257 40.8273 91.9454 40.9012C91.7651 40.9751 91.5385 41.012 91.2703 41.012H89.7168V36.4453H91.2565Z" fill="#F7933A"/>
<path d="M95.308 39.2897L94.8687 37.2395H94.8548L94.4156 39.2897H95.308ZM95.4328 36.4453L96.6396 41.012H95.6825L95.4698 40.047H94.2538L94.0411 41.012H93.084L94.2908 36.4453H95.4328Z" fill="#F7933A"/>
<path d="M99.2656 39.5714H99.2749V36.4453H100.121V41.012H99.0714L97.9479 37.8121H97.934V41.012H97.0879V36.4453H98.1513L99.2656 39.5714Z" fill="#F7933A"/>
<path d="M101.813 38.2738H101.823L102.988 36.4453H103.987L102.747 38.4031L104.13 41.012H103.09L102.151 39.1373L101.813 39.6545V41.012H100.889V36.4453H101.813V38.2738Z" fill="#F7933A"/>
<path d="M104.5 36.4453H105.42V41.012H104.5V36.4453Z" fill="#F7933A"/>
<path d="M108.41 39.5714H108.419V36.4453H109.266V41.012H108.216L107.088 37.8121H107.079V41.012H106.232V36.4453H107.296L108.41 39.5714Z" fill="#F7933A"/>
<path d="M112.037 37.5396C112.018 37.4519 111.986 37.3687 111.944 37.2949C111.898 37.221 111.847 37.1563 111.778 37.1101C111.713 37.0594 111.634 37.0363 111.537 37.0363C111.315 37.0363 111.158 37.1563 111.061 37.4057C110.959 37.6504 110.913 38.0614 110.913 38.634C110.913 38.9064 110.922 39.1511 110.936 39.3728C110.955 39.5944 110.987 39.7837 111.029 39.9407C111.075 40.0931 111.14 40.2132 111.223 40.2963C111.306 40.3794 111.412 40.421 111.546 40.421C111.602 40.421 111.662 40.4071 111.727 40.3794C111.796 40.3471 111.856 40.3009 111.912 40.2409C111.972 40.1855 112.018 40.107 112.06 40.0146C112.097 39.9223 112.115 39.8161 112.115 39.6914V39.225H111.505V38.5508H112.998V41.012H112.319V40.5872H112.309C112.198 40.7673 112.064 40.892 111.907 40.9705C111.75 41.0443 111.565 41.0813 111.348 41.0813C111.066 41.0813 110.834 41.0305 110.659 40.9335C110.483 40.8365 110.344 40.6842 110.243 40.481C110.141 40.2732 110.076 40.0238 110.044 39.7237C110.007 39.4236 109.988 39.0726 109.988 38.6755C109.988 38.2923 110.016 37.9552 110.062 37.6689C110.113 37.378 110.196 37.1379 110.317 36.9439C110.437 36.75 110.594 36.6022 110.788 36.5052C110.987 36.4083 111.232 36.3575 111.528 36.3575C112.032 36.3575 112.393 36.4822 112.615 36.7315C112.836 36.9809 112.947 37.3364 112.947 37.8028H112.064C112.064 37.7151 112.055 37.6273 112.037 37.5396Z" fill="#F7933A"/>
</g>
<defs>
<clipPath id="clip0_476_754">
<rect width="97" height="22.0813" fill="white" transform="translate(16 19)"/>
</clipPath>
</defs>
</svg>
