<svg width="130" height="60" viewBox="0 0 130 60" fill="none" xmlns="http://www.w3.org/2000/svg">
<rect width="130" height="60" fill="white"/>
<path d="M103.629 36.397V33.4922H107.087V31.5441H103.629V28.8442H108.113V26.862H101.471V38.0727C103.731 38.7208 105.854 39.0633 108.456 39.1304V37.1154C106.812 37.047 105.202 36.807 103.629 36.397ZM111.092 37.0469C112.256 36.9449 113.215 36.7057 113.899 36.3632C114.345 36.1233 114.721 35.7139 114.653 35.0983C114.551 34.2436 113.591 33.8685 112.907 33.5605C112.051 33.1848 111.161 32.7752 110.51 32.1598C109.791 31.442 109.551 30.5879 109.586 29.6983C109.724 27.7509 111.434 26.6574 113.249 26.6574C114.516 26.6574 115.612 27.0672 116.467 27.9215L115.064 29.3571C115.064 29.3571 114.243 28.6047 113.249 28.6047C112.394 28.6047 111.811 29.0496 111.777 29.7326C111.708 30.6901 112.975 31.203 113.66 31.5102C114.686 31.9885 115.44 32.3988 116.023 32.9109C116.605 33.4921 117.083 34.3128 117.015 35.3389C116.845 37.491 114.858 38.4814 113.044 38.8585C112.119 39.0282 111.058 39.1303 109.654 39.1303V37.0807C110.27 37.0807 110.989 37.0469 111.092 37.0469ZM76.4765 38.3786V26.8619H83.1193V28.8441H78.6674V31.5439H82.1265V33.492H78.6674V36.3969H83.1193V38.3784L76.4765 38.3786ZM87.8787 38.5857C86.6455 38.5507 85.447 38.2082 84.5216 37.4226L84.2841 37.1834L85.6867 35.7139L85.9272 35.9529C86.4753 36.4309 87.2626 36.568 87.9121 36.568C88.9055 36.568 89.5221 36.1232 89.5899 35.3389C89.6594 34.3806 88.4593 33.8685 87.7755 33.5604C86.851 33.1502 85.9945 32.74 85.3783 32.1259C84.6598 31.4756 84.4193 30.5879 84.4538 29.6983C84.6258 27.7167 86.3714 26.6574 88.1185 26.6574C88.871 26.6574 89.5564 26.7596 90.2064 27.0671V29.1859C89.2815 28.7418 88.6999 28.6047 88.1518 28.6047H88.1185C87.2624 28.6047 86.7136 29.0495 86.6454 29.7325C86.5759 30.69 87.8435 31.2029 88.5282 31.5102C89.5564 31.9885 90.3089 32.3987 90.8567 32.946C91.5754 33.6285 91.8153 34.5171 91.7465 35.3718C91.5755 37.4909 89.8301 38.5857 87.8787 38.5857ZM72.6775 38.4476L67.2667 31.066V38.3786H65.1445V26.8618H66.9234L72.0601 33.8683V26.8618H74.1828V38.4476H72.6775ZM57.6128 33.1164L58.878 29.1861L60.1453 33.1164H57.6128ZM60.1452 26.8618H57.6451L53.675 38.3786H55.8999L57.0295 34.9618H60.7614L61.858 38.3786H64.2202L60.1452 26.8618ZM49.1538 36.4994H47.7159V33.39H48.9487C49.9424 33.39 51.1753 33.6622 51.1753 34.9617C51.1753 36.0899 50.1816 36.4656 49.1538 36.4994ZM47.7159 28.7417H48.8806C49.7708 28.7417 50.8667 29.0152 50.8667 30.1422C50.8667 31.2704 49.8746 31.6465 48.8475 31.681H47.7159V28.7417ZM51.6537 32.4325C52.5101 32.0223 53.0581 30.9627 53.0581 29.9724C53.0581 29.5272 52.989 29.1175 52.8187 28.7417C52.1674 27.3064 50.4565 26.8964 48.9158 26.8617H45.5597V38.3785H49.1212C50.3872 38.3785 51.4834 38.0724 52.2373 37.4567C52.9558 36.8751 53.3663 36.0211 53.3663 35.0298C53.3663 34.3805 53.1946 33.6967 52.6812 33.1501C52.4076 32.8772 52.0649 32.6034 51.6537 32.4325ZM94.794 38.4473V28.8438H91.9184V26.8615H99.8614V28.8438H96.9848V38.4473H94.794ZM36.4828 39.4886C35.7957 40.1239 34.9679 40.5934 33.8028 41.0107L19.8677 45.8517V33.8679L30.1313 27.9616L30.1395 27.9569C30.3517 27.8293 30.5318 27.7049 30.7061 27.5841C30.7391 27.5619 30.7724 27.5384 30.8053 27.5162C33.2391 27.6247 35.0977 28.2839 36.4836 29.5291C37.9423 30.9044 38.6512 32.5335 38.6512 34.5079C38.6512 36.4849 37.9402 38.1143 36.4828 39.4886ZM28.6385 27.5093L19.8677 32.5576V27.5093H28.6385ZM18.7301 44.552L14.3484 37.0604L18.7301 34.5261V44.552ZM24.3531 14.1354C27.1893 14.1354 29.2836 14.7962 30.7538 16.1548C32.192 17.4829 32.9218 19.1585 32.9218 21.1354C32.9218 23.2558 32.0443 25.1093 30.4471 26.374H18.7302V33.2138L14.1381 35.8686V14.1356L24.3531 14.1354ZM37.2598 28.6983L37.2503 28.6902C35.9129 27.4873 34.1522 26.7454 32.0034 26.4784C33.3234 25.057 34.0597 23.1719 34.0597 21.1355C34.0597 18.8287 33.207 16.8728 31.5262 15.3212C29.8365 13.7595 27.4895 13 24.3531 13H13V37.0084L19.0436 47.3412L34.1824 42.0825C35.4853 41.6154 36.4619 41.0569 37.2599 40.3183C38.9382 38.7382 39.7888 36.7837 39.7888 34.5088C39.7888 32.2346 38.9381 30.2794 37.2598 28.6983Z" fill="#004B8D"/>
</svg>
