<svg width="60" height="60" viewBox="0 0 60 60" fill="none" xmlns="http://www.w3.org/2000/svg">
<rect width="60" height="60" fill="#004B8D"/>
<path d="M43.9274 41.3962C43.081 42.1732 42.0613 42.7474 40.6261 43.2577L23.46 49.1784V34.5219L36.1033 27.2984L36.1135 27.2926C36.3749 27.1366 36.5967 26.9844 36.8114 26.8366C36.852 26.8096 36.893 26.7808 36.9335 26.7537C39.9317 26.8864 42.2213 27.6925 43.9284 29.2154C45.7254 30.8974 46.5986 32.8899 46.5986 35.3046C46.5986 37.7226 45.7228 39.7154 43.9274 41.3962ZM34.2644 26.7452L23.46 32.9194V26.7452H34.2644ZM22.0587 47.5887L16.6611 38.4263L22.0587 35.3268V47.5887ZM28.9853 10.3886C32.4792 10.3886 35.0591 11.1967 36.8702 12.8584C38.6419 14.4827 39.5408 16.532 39.5408 18.9498C39.5408 21.5431 38.4599 23.8099 36.4923 25.3568H22.0588V33.7219L16.402 36.9688V10.3889L28.9853 10.3886ZM44.8847 28.1994L44.8729 28.1894C43.2254 26.7183 41.0565 25.8109 38.4094 25.4844C40.0356 23.746 40.9425 21.4405 40.9425 18.9499C40.9425 16.1286 39.8922 13.7365 37.8217 11.8389C35.7401 9.92885 32.849 9 28.9854 9H15V38.3628L22.4448 51L41.0937 44.5686C42.6986 43.9972 43.9018 43.3143 44.8848 42.4108C46.9522 40.4784 48 38.088 48 35.3057C48 32.5243 46.952 30.1331 44.8847 28.1994Z" fill="white"/>
</svg>
