<svg width="60" height="60" viewBox="0 0 60 60" fill="none" xmlns="http://www.w3.org/2000/svg">
<rect width="60" height="60" fill="#EC0000"/>
<path fill-rule="evenodd" clip-rule="evenodd" d="M28.6785 46.1715V38.1979C28.6785 38.112 28.5786 38.0631 28.5073 38.1144C24.4339 41.0489 19.7979 43.7243 14.6999 46.0775C14.5968 46.1253 14.6318 46.2758 14.7461 46.2758H28.571C28.6304 46.2758 28.6785 46.2288 28.6785 46.1715Z" fill="white"/>
<path fill-rule="evenodd" clip-rule="evenodd" d="M45.1808 14.3889C45.2312 14.3197 45.1799 14.2242 45.0931 14.2242H24.0953C17.9677 14.2242 13 19.008 13 24.909V34.9119C13 34.9835 13.0725 35.0339 13.1421 35.0108C27.4658 30.3264 38.8712 23.018 45.1808 14.3889Z" fill="white"/>
<path fill-rule="evenodd" clip-rule="evenodd" d="M34.4551 33.5416V46.1715C34.4551 46.2288 34.5033 46.2756 34.5626 46.2756H34.913C41.0404 46.2756 46.0078 41.4921 46.0078 35.5911V17.1672C46.0078 17.0498 45.8388 17.0219 45.7991 17.1329C43.7246 22.955 39.8383 28.4853 34.4879 33.4666C34.467 33.486 34.4551 33.513 34.4551 33.5416Z" fill="white"/>
</svg>
