<svg width="130" height="60" viewBox="0 0 130 60" fill="none" xmlns="http://www.w3.org/2000/svg">
<rect width="130" height="60" fill="white"/>
<g clip-path="url(#clip0_68_207)">
<path fill-rule="evenodd" clip-rule="evenodd" d="M43.2314 27.9376H48.3289V35.2234H48.3659C50.3788 35.2234 52.0107 33.6389 52.0107 31.6842V27.9376H57.2499V24.9127H43.2314V27.9376Z" fill="#222222"/>
<path fill-rule="evenodd" clip-rule="evenodd" d="M67.6363 32.1999H64.1328C62.9108 32.1999 61.8549 31.2902 61.7978 30.1049C61.7372 28.8444 62.7757 27.7999 64.0611 27.7999H67.5644C68.7865 27.7999 69.8425 28.7098 69.8994 29.895C69.96 31.1557 68.9214 32.1999 67.6363 32.1999ZM68.5022 24.775H63.1953C60.2358 24.775 57.8145 27.1262 57.8145 29.9999C57.8145 32.8736 60.2358 35.2249 63.1953 35.2249H68.5022C71.4616 35.2249 73.883 32.8736 73.883 29.9999C73.883 27.1262 71.4616 24.775 68.5022 24.775Z" fill="#222222"/>
<path fill-rule="evenodd" clip-rule="evenodd" d="M102.352 32.1999H98.8481C97.6257 32.1999 96.5697 31.2902 96.5127 30.1049C96.4522 28.8444 97.491 27.7999 98.7759 27.7999H102.279C103.501 27.7999 104.558 28.7098 104.615 29.895C104.675 31.1557 103.637 32.1999 102.352 32.1999ZM103.217 24.775H97.9104C94.9507 24.775 92.5293 27.1262 92.5293 29.9999C92.5293 32.8736 94.9507 35.2249 97.9104 35.2249H103.217C106.177 35.2249 108.598 32.8736 108.598 29.9999C108.598 27.1262 106.177 24.775 103.217 24.775Z" fill="#222222"/>
<path fill-rule="evenodd" clip-rule="evenodd" d="M86.6125 28.6349C86.6125 29.1587 86.1709 29.5877 85.631 29.5877H80.6646V27.6628H85.631C86.1709 27.6628 86.6125 28.0916 86.6125 28.6158V28.6349ZM90.3415 28.7913C90.3415 27.7623 89.9083 26.8272 89.2087 26.1478C88.5105 25.47 87.5474 25.0494 86.4878 25.0494H76.5586V30.8603V32.6123V35.0869H80.5231V32.6123H84.7144L86.1849 35.0869H90.3415L88.5583 31.9426C89.6278 31.2756 90.3415 30.1103 90.3415 28.7913Z" fill="#222222"/>
<path fill-rule="evenodd" clip-rule="evenodd" d="M29.0714 38.1963V34.0915C29.0714 34.0473 29.0199 34.0221 28.9832 34.0485C26.8863 35.5592 24.4997 36.9365 21.8753 38.1479C21.8222 38.1725 21.8402 38.25 21.8991 38.25H29.016C29.0466 38.25 29.0714 38.2258 29.0714 38.1963Z" fill="#EC0000"/>
<path fill-rule="evenodd" clip-rule="evenodd" d="M37.5665 21.8348C37.5924 21.7992 37.566 21.75 37.5213 21.75H26.7118C23.5574 21.75 21 24.2127 21 27.2505V32.3999C21 32.4368 21.0373 32.4627 21.0732 32.4508C28.4469 30.0393 34.3183 26.277 37.5665 21.8348Z" fill="#EC0000"/>
<path fill-rule="evenodd" clip-rule="evenodd" d="M32.0449 31.6945V38.1963C32.0449 38.2258 32.0697 38.2498 32.1003 38.2498H32.2807C35.435 38.2498 37.9922 35.7874 37.9922 32.7496V23.265C37.9922 23.2046 37.9052 23.1902 37.8848 23.2474C36.8168 26.2446 34.8162 29.0915 32.0618 31.6559C32.051 31.6659 32.0449 31.6798 32.0449 31.6945Z" fill="#EC0000"/>
</g>
<defs>
<clipPath id="clip0_68_207">
<rect width="88" height="16.5" fill="white" transform="translate(21 21.75)"/>
</clipPath>
</defs>
</svg>
