<svg width="60" height="60" viewBox="0 0 60 60" fill="none" xmlns="http://www.w3.org/2000/svg">
<rect width="60" height="60" fill="black"/>
<path d="M50.1847 28.3361C50.5098 27.7596 50.6949 27.0933 50.6949 26.3842C50.6949 24.1874 48.9168 22.4066 46.7229 22.4066L46.7169 22.404H38.7734V22.4066V25.056V27.685C37.8728 27.6676 37.0059 27.6815 36.1737 27.726C36.2271 26.3243 36.1944 24.8465 36.0225 23.4432C35.7 20.8101 34.7459 17.5647 32.0324 17.056C30.8752 16.8389 29.5338 17.2557 28.1528 18.2602C25.9676 19.8496 23.767 22.8011 21.9558 26.5707C20.8071 28.9615 19.8375 31.6395 19.0723 34.5093L13.7203 28.959L20.2736 22.3957L20.2303 22.3524V22.3814H16.5669L9.63139 29.3278V22.404H7V35.6631H9.63139V33.0548L11.8602 30.8227L16.515 35.6499H18.7818C18.284 37.6929 17.8883 39.8242 17.6038 42.0119L17.433 43.3251L20.0554 43.6669L20.2262 42.3537C20.9342 36.9066 22.3565 31.8461 24.3392 27.7189C25.94 24.3864 27.8965 21.7197 29.7069 20.4028C30.8108 19.5998 31.3932 19.6307 31.5459 19.659C32.952 19.9223 33.7379 23.6772 33.5261 27.989C31.1261 28.3493 29.0869 29.02 27.4311 29.9974C24.4005 31.7861 23.3742 34.1441 23.0468 35.8078C22.4181 39.0027 23.8825 42.2648 26.3803 43.2335C27.6572 43.7287 28.9827 43.6266 30.213 42.9377C32.7375 41.5247 34.6853 37.7107 35.6985 32.1984C35.797 31.6622 35.8892 31.0514 35.9668 30.39C36.8445 30.3332 37.7719 30.314 38.7472 30.3328L38.7727 30.3332V30.3588V33.0108V35.5712V35.6631H48.0402C50.2336 35.6631 52.0121 33.8823 52.0121 31.6851C52.0128 30.2793 51.2845 29.0437 50.1847 28.3361ZM33.0983 31.719C32.2556 36.3044 30.6949 39.6343 28.9236 40.6257C28.381 40.9294 27.8766 40.973 27.3359 40.7631C26.2076 40.3257 25.2346 38.393 25.6425 36.3195C25.8652 35.1883 26.5891 33.5688 28.7746 32.279C29.9947 31.5589 31.4956 31.0363 33.2635 30.7138C33.2145 31.0498 33.1596 31.3856 33.0983 31.719ZM41.4215 25.0556H46.7233V25.059C47.454 25.059 48.0465 25.6524 48.0465 26.3842C48.0465 27.116 47.4543 27.7094 46.7233 27.7094L46.7173 27.7075H41.4217V25.0556H41.4215ZM48.0412 33.0104L48.0465 33.0112H41.4217V30.3591H48.0412V30.3599C48.7719 30.3599 49.3645 30.953 49.3645 31.6851C49.3642 32.4172 48.7719 33.0104 48.0412 33.0104Z" fill="white"/>
</svg>
