<svg width="60" height="60" viewBox="0 0 60 60" fill="none" xmlns="http://www.w3.org/2000/svg">
<rect width="60" height="60" fill="white"/>
<g clip-path="url(#clip0_43_19)">
<path fill-rule="evenodd" clip-rule="evenodd" d="M27.3927 40.8976C27.3927 39.2643 27.49 38.1689 28.2709 36.8291C28.7349 36.0335 29.7162 35.1319 30.7479 35.1319C31.3533 35.1319 31.8336 35.207 32.1207 35.207V44.0995C32.1207 44.3319 31.1529 44.8909 30.5191 44.8909C29.54 44.8909 29.0611 44.7448 28.4315 44.1276C27.7203 43.431 27.3927 42.0653 27.3927 40.8962V40.8976ZM21.3303 40.5963C21.3303 42.5554 21.6039 44.1761 22.1261 45.6127C22.5176 46.6899 22.8551 47.0936 23.4818 47.8906C23.5707 48.0037 23.7305 48.1617 23.8378 48.2551L24.2336 48.5802C25.7051 49.6665 27.6997 50 29.4831 49.5569C30.4452 49.3182 31.6212 48.7297 32.3218 48.029L32.8725 47.4798C32.9691 47.3619 32.9165 47.345 33.075 47.3029C33.0849 47.7326 33.6391 48.5998 34.0491 48.9025C34.1891 49.0057 34.2729 49.0829 34.4335 49.163C34.9274 49.408 35.3636 49.5639 35.9726 49.5639C36.8629 49.5639 37.766 49.3378 38.419 48.8161C39.04 48.3197 39.4422 47.4651 39.4422 46.6625C39.4422 46.4343 39.3832 46.225 39.3662 46.0221C38.0744 46.0221 38.1461 44.5595 38.1461 43.2716V31.3647L35.0226 30.5326C32.4419 30.0242 29.4142 30.0312 27.0332 30.9715C26.3972 31.2228 25.1666 31.9012 24.6372 32.4095C23.9835 33.038 23.9636 33.012 23.4051 33.717C23.2111 33.9614 23.0484 34.2163 22.8857 34.4852C22.5731 35.0013 22.2618 35.6298 22.0586 36.2301C21.5854 37.631 21.3296 39.0347 21.3296 40.597L21.3303 40.5963Z" fill="#373435"/>
<path fill-rule="evenodd" clip-rule="evenodd" d="M28.6129 14.1064C28.5986 13.9386 28.5105 13.8683 28.4345 13.7174C28.3592 13.5678 28.3087 13.4856 28.2292 13.355C27.8 12.6479 27.2784 11.99 26.6411 11.4577C25.7493 10.712 24.643 10.0751 23.3889 10.0751C22.0396 10.0751 21.2914 10.2577 20.1495 10.9058C19.4418 11.3082 18.7952 11.9121 18.2957 12.5398C16.5925 14.6815 16.0937 17.8308 16.9115 20.5833C17.0302 20.9822 17.1645 21.3579 17.3272 21.7174C17.934 23.0642 18.9245 24.2614 20.1154 25.1419C20.2866 25.2683 20.8871 25.75 21.1016 25.75C21.2047 25.75 21.2068 25.7318 21.2921 25.7121C21.3844 25.321 21.1521 25.3034 20.8622 25.0064C19.6393 23.7509 18.8513 21.6949 18.8513 19.8713C18.8513 17.7746 19.505 15.5487 21.3653 14.4427C22.591 13.7139 24.071 13.5362 25.3266 14.3395C25.5582 14.4877 25.7607 14.6218 25.9703 14.7966C26.5729 15.3001 27.0916 15.8815 27.5307 16.5331C27.6117 16.6539 27.6721 16.7347 27.7396 16.8568L27.8099 16.9938C28.1069 17.5176 28.1354 17.7992 28.4608 17.7992C28.6597 17.7992 29.2104 16.913 29.3426 16.7494C30.2272 15.6533 31.2461 14.7341 32.6054 14.2082C33.9867 13.6745 35.9848 13.5783 37.2148 14.5368C37.7803 14.9771 38.1953 15.6034 38.4177 16.3246C39.3002 19.1874 37.7477 21.8747 35.3545 23.444C32.8939 25.0577 31.5417 25.0268 28.902 25.7718C28.0529 26.0112 27.2848 26.2696 26.5025 26.6411C26.3604 26.7085 26.2886 26.7506 26.1394 26.8103C26.0068 26.8629 25.8781 26.9246 25.7543 26.995C25.2989 27.2569 24.7993 27.5076 24.3567 27.7997C23.4706 28.3846 22.7174 29.0348 21.9678 29.7721C21.383 30.3472 20.7123 31.2509 20.3378 31.9672C20.0962 32.4306 19.4994 33.439 19.4994 33.927C19.4994 34.1741 19.7388 34.304 19.9569 34.304C20.1175 34.304 20.4884 33.4993 20.6206 33.302C20.7464 33.1145 20.8203 32.9769 20.9538 32.8021C21.0853 32.6293 21.1997 32.4798 21.3347 32.3119C22.1007 31.3577 23.0535 30.6288 24.1058 30.0011L25.252 29.4379C26.0734 29.1058 26.9409 28.8116 27.8277 28.5918C29.673 28.1346 31.7464 27.9486 33.5853 27.5364C35.0248 27.2141 36.6449 26.6615 37.9154 25.9375C38.8043 25.4312 39.6235 24.8344 40.3476 24.121L40.938 23.4609C41.8433 22.3725 42.3812 21.0924 42.7293 19.7295C42.9126 19.0119 43.1045 17.5513 43.0334 16.7031C42.988 16.1596 43 15.687 42.8963 15.1779C42.5559 13.5067 41.6464 11.99 40.1891 11.1088C38.979 10.3771 37.6496 10.0218 36.3159 10H36.0637C34.5069 10.0239 32.9557 10.5007 31.595 11.3636C31.1758 11.6298 30.731 11.9219 30.3771 12.2702C29.9913 12.6493 29.6844 12.907 29.2907 13.3445C29.2218 13.421 29.2104 13.4519 29.1372 13.532C29.0626 13.6149 29.0349 13.6549 28.9653 13.7384C28.8637 13.8606 28.7777 14.0635 28.6136 14.1064H28.6129Z" fill="#FF0000"/>
<path fill-rule="evenodd" clip-rule="evenodd" d="M7.14575 25.5618C7.31131 25.9024 7.37455 27.2639 7.37455 27.747V49.3757H16.2585C17.2625 49.3757 18.0498 49.1925 18.695 48.5809L18.7334 48.5429C19.8226 47.4208 19.8433 45.4772 19.8433 43.7611H13.8569V27.4079C13.8569 26.5793 13.626 25.981 12.8877 25.6524C11.7721 25.1545 9.88421 25.3062 8.63364 25.3743C8.40271 25.387 8.12986 25.4277 7.88117 25.46C7.68648 25.4853 7.35607 25.5618 7.14575 25.5618ZM46.648 32.8716C46.5848 32.741 46.5393 32.4503 46.5037 32.2986L46.1449 30.8071C46.1236 30.6955 46.135 30.5733 46 30.5733H41.5391V49.3757H47.7159V36.6395C47.7159 36.386 48.5906 35.945 48.8486 35.8369C50.5894 35.1066 52.6443 35.7723 53.2064 35.7723C53.2561 35.5602 53.3463 35.3362 53.4209 35.1179C53.6419 34.4683 53.8451 33.6433 53.8544 32.8526V32.7346C53.8409 31.7284 53.4948 30.7966 52.4446 30.3837C51.2367 29.9083 49.3751 30.3971 48.4421 30.9511C47.8183 31.3218 47.2001 31.9299 46.8512 32.5823C46.8178 32.6455 46.8107 32.6743 46.778 32.736C46.6992 32.8842 46.7581 32.8322 46.648 32.8716Z" fill="#373435"/>
</g>
<defs>
<clipPath id="clip0_43_19">
<rect width="47" height="40" fill="white" transform="translate(7 10)"/>
</clipPath>
</defs>
</svg>
