<svg width="130" height="60" viewBox="0 0 130 60" fill="none" xmlns="http://www.w3.org/2000/svg">
<rect width="130" height="60" fill="white"/>
<g clip-path="url(#clip0_43_189)">
<path d="M25.9254 32.0035C24.4273 31.8781 23.0912 31.362 22.0906 30.8613C21.3336 30.477 20.769 30.1095 20.4816 29.9272L18.0003 33.7014C18.0903 33.789 18.1364 33.8471 18.1364 33.8471C18.9713 34.3853 19.76 34.8007 20.5068 35.104C22.6488 35.9838 24.4488 35.9687 25.9257 35.5054C29.6088 34.347 31.2932 30.3783 31.2932 30.3783C29.4686 31.7905 27.5971 32.1403 25.9254 32.0035ZM6.94482 33.6512C9.26297 31.6665 11.3774 31.1635 13.1329 31.3144L15.3672 27.9449C8.83917 26.9652 6.94482 33.6512 6.94482 33.6512Z" fill="#FFCC00"/>
<path d="M20.5065 35.1043L19.3152 38.2953H25.9254V35.5057C24.4482 35.969 22.6485 35.9841 20.5065 35.1043ZM19.3152 22L15.3675 27.9449L13.1332 31.3144L8.45337 38.36H14.9312L18 33.7016L20.4813 29.9275L25.0084 23.0511L22.0906 30.8616C23.0912 31.3623 24.4273 31.8784 25.9254 32.0038V22L19.3152 22Z" fill="#278428"/>
<path d="M34.4819 37.2256C34.2261 37.2256 34.0752 37.2334 33.9028 37.2218V35.4218L33.9112 34.5739L33.9028 32.908C34.0436 32.908 34.2261 32.8938 34.5594 32.8938C35.2412 32.8938 35.6084 33.1121 35.6084 33.5986C35.6084 34.072 35.2476 34.4592 34.5658 34.4526V35.3443C35.1994 35.3518 35.7658 35.6796 35.7658 36.3208C35.7658 36.9948 35.1634 37.2256 34.4819 37.2256ZM36.0247 34.805V34.7858C36.7626 34.5109 37.1071 33.9881 37.1071 33.4267C37.1071 32.8386 36.7838 32.4023 36.3185 32.1661C35.8357 31.8915 35.3597 31.899 34.378 31.899C33.6163 31.899 32.8174 31.9248 32.4163 31.9455V38.2215H34.0444C35.3681 38.2215 36.1716 38.1066 36.654 37.7365C37.0694 37.423 37.344 36.9675 37.344 36.3803C37.3411 35.5533 36.7809 34.9905 36.0232 34.805H36.0247Z" fill="#45403E"/>
<path d="M44.2017 38.2488V31.8511H45.8189L47.0859 34.1956C47.4531 34.8679 47.8055 35.6694 48.0865 36.3907H48.1071C48.0906 35.5431 48.0569 34.6978 48.0569 33.7225L47.9962 31.8514H49.2653V38.2491H47.8137L46.5068 35.782C46.1443 35.0877 45.7367 34.2697 45.4473 33.5213H45.4096C45.4537 34.3768 45.4749 35.2761 45.4749 36.3213V38.2494H44.1997L44.2006 38.2488H44.2017Z" fill="#45403E"/>
<path d="M108.736 38.2488V31.8511H110.351L111.62 34.1956C111.983 34.8679 112.336 35.6694 112.616 36.3907H112.636C112.619 35.5431 112.585 34.6978 112.585 33.7225L112.526 31.8514H113.793V38.2491H112.346L111.037 35.782C110.676 35.0877 110.269 34.2697 109.976 33.5213H109.94C109.988 34.3768 110.007 35.2761 110.007 36.3213V38.2494H108.732L108.733 38.2488H108.736Z" fill="#45403E"/>
<path d="M54.9449 38.081C54.6994 38.2012 54.1185 38.3521 53.3824 38.3521C51.2697 38.3521 50.1809 36.9675 50.1809 35.1367C50.1809 32.9521 51.6703 31.7454 53.5203 31.7454C54.2378 31.7454 54.7809 31.899 55.0265 32.0319L55.016 33.1263C54.7452 33.0023 54.0761 32.9353 53.5728 32.9353C52.486 32.9353 51.6323 33.6255 51.6323 35.0604C51.6323 36.3417 52.36 37.1481 53.583 37.1481C54.0088 37.1481 54.6506 37.0616 54.9339 36.9376L54.9484 38.081H54.9449Z" fill="#45403E"/>
<path d="M65.2963 37.1559C65.4159 37.1855 65.6156 37.1855 65.7767 37.1855C67.04 37.196 67.8638 36.4746 67.8638 34.9454C67.8638 33.5687 67.121 32.9144 65.9236 32.9144C65.6235 32.9144 65.4156 32.9443 65.296 32.9739V37.1559H65.2931H65.2963ZM63.9204 31.9454C64.4426 31.899 65.1268 31.8717 65.8171 31.8717C66.9872 31.8717 67.7094 32.0035 68.2882 32.4679C68.9257 32.9634 69.3242 33.7571 69.3242 34.9016C69.3242 36.1222 68.8984 36.9675 68.3196 37.4903C67.6757 38.0476 66.6772 38.2322 65.4711 38.2555C64.8226 38.2697 64.2687 38.2218 63.9204 38.2218V31.9454Z" fill="#45403E"/>
<path d="M72.1207 33.0281L71.2557 36.6061L70.829 38.2488H69.395L71.2644 31.8511H73.0699L74.977 38.2488H73.4879L73.0148 36.6061L72.1207 33.0281Z" fill="#45403E"/>
<path d="M40.8056 33.0281L39.9347 36.6061L39.5109 38.2488H38.0828L39.9434 31.8511H41.7519L43.659 38.2488H42.1728L41.6996 36.6061L40.8056 33.0281Z" fill="#45403E"/>
<path d="M80.4195 33.0281L79.5487 36.6061L79.122 38.2488H77.6909L79.5603 31.8511H81.3658L83.2671 38.2488H81.7809L81.3078 36.6061L80.4195 33.0281Z" fill="#45403E"/>
<path d="M94.1612 33.0281L93.2933 36.6061L92.8695 38.2488H91.4326L93.3049 31.8511H95.1075L97.0117 38.2488H95.5226L95.0553 36.6061L94.1612 33.0281Z" fill="#45403E"/>
<path d="M120.202 33.0281L119.334 36.6061L118.904 38.2488H117.473L119.343 31.8511H121.151L123.055 38.2488H121.566L121.096 36.6061L120.202 33.0281Z" fill="#45403E"/>
<path d="M97.2151 37.4682L100.124 33.0746V33.0488H97.4792V31.8511H101.915V32.6862L99.0641 37.0139V37.0514H101.958V38.2488H97.2151V37.4682Z" fill="#45403E"/>
<path d="M105.555 30.3152L106.423 31.5106H105.527L105.106 30.8833H105.085L104.662 31.5106H103.774L104.637 30.3152H105.555ZM105.096 37.2035C105.969 37.2035 106.466 36.2833 106.466 35.0305C106.466 33.8836 105.986 32.8975 105.096 32.8975C104.207 32.8975 103.708 33.8627 103.708 35.0601C103.708 36.2665 104.224 37.2035 105.088 37.2035H105.096ZM105.038 38.3521C103.352 38.3521 102.353 36.9188 102.353 35.0978C102.353 33.1814 103.454 31.7454 105.13 31.7454C106.882 31.7454 107.843 33.2203 107.843 34.9855C107.843 37.0915 106.714 38.3521 105.047 38.3521H105.037H105.038H105.038Z" fill="#45403E"/>
<path d="M58.2714 37.2035H58.2607C57.3942 37.2035 56.8804 36.2665 56.8804 35.0601C56.8804 33.8627 57.38 32.8975 58.2714 32.8975C59.1585 32.8975 59.6389 33.8833 59.6389 35.0305C59.6418 36.2836 59.1425 37.2035 58.2746 37.2035H58.2714ZM58.3033 31.7454C56.6249 31.7454 55.5239 33.1814 55.5239 35.0978C55.5239 36.9184 56.5245 38.3521 58.209 38.3521H58.2194C59.883 38.3521 61.0139 37.0914 61.0139 34.9855C61.011 33.2203 60.0502 31.7454 58.2998 31.7454H58.3033Z" fill="#45403E"/>
<path d="M116.588 38.2488H115.212V31.8511H116.588V38.2488Z" fill="#45403E"/>
<path d="M84.0625 38.2694V31.8885H86.1496L87.2788 35.7803L88.4428 31.8717H90.5299V38.2555H89.2149V33.3739L87.6358 38.1855H86.7737L85.3658 33.4331L85.3716 38.2555L84.0625 38.2694Z" fill="#45403E"/>
</g>
<defs>
<clipPath id="clip0_43_189">
<rect width="116.111" height="16.36" fill="white" transform="translate(6.94482 22)"/>
</clipPath>
</defs>
</svg>
