<svg width="60" height="60" viewBox="0 0 60 60" fill="none" xmlns="http://www.w3.org/2000/svg">
<rect width="60" height="60" fill="white"/>
<path d="M42.9357 33.599C40.1269 33.3639 37.6217 32.3962 35.7457 31.4574C34.3263 30.7368 33.2677 30.0478 32.7289 29.706L28.0766 36.7823C28.2454 36.9467 28.3319 37.0556 28.3319 37.0556C29.8972 38.0646 31.3759 38.8434 32.7762 39.4122C36.7922 41.0618 40.1671 41.0335 42.9363 40.1648C49.8417 37.9928 53 30.5518 53 30.5518C49.5788 33.1996 46.07 33.8554 42.9357 33.599ZM7.34839 36.6882C11.6948 32.9672 15.6591 32.024 18.9507 32.307L23.1398 25.9893C10.9002 24.1525 7.34839 36.6882 7.34839 36.6882Z" fill="#FFCC00"/>
<path d="M32.7761 39.4126L30.5425 45.3956H42.9361V40.1653C40.1664 41.034 36.7921 41.0623 32.7761 39.4126ZM30.5425 14.8431L23.1407 25.9893L18.9516 32.3069L10.1772 45.5169H22.3227L28.0765 36.7828L32.7287 29.7065L41.2168 16.8138L35.7461 31.4579C37.6221 32.3967 40.1273 33.3644 42.9361 33.5995V14.8431L30.5425 14.8431Z" fill="#278428"/>
</svg>
