<svg width="60" height="60" viewBox="0 0 60 60" fill="none" xmlns="http://www.w3.org/2000/svg">
<rect width="60" height="60" fill="white"/>
<path fill-rule="evenodd" clip-rule="evenodd" d="M24.5279 23.4013C25.9637 23.9745 27.3824 24.5902 28.7837 25.2455C24.3215 27.0781 20.0111 29.2473 15.8997 31.7313C14.5079 30.9938 13.096 30.2969 11.6641 29.6425C15.7698 27.2251 20.0693 25.1344 24.5279 23.4013Z" fill="#0067B1"/>
<path fill-rule="evenodd" clip-rule="evenodd" d="M19.2169 21.5033C14.5825 22.9871 10.1231 24.928 5.89697 27.2826C7.24482 27.7756 8.5802 28.3005 9.89665 28.8621C13.9918 26.4253 18.3203 24.3752 22.8237 22.7455C21.6327 22.3028 20.428 21.889 19.2169 21.5033Z" fill="#0067B1"/>
<path fill-rule="evenodd" clip-rule="evenodd" d="M34.1942 23.2181C30.5541 21.4377 26.7752 19.9385 22.8893 18.7418C21.5223 19.1401 20.1678 19.574 18.8247 20.0467C22.8262 21.2443 26.7159 22.7609 30.4621 24.5752C31.6934 24.0977 32.9391 23.6434 34.1942 23.2181Z" fill="#E31836"/>
<path fill-rule="evenodd" clip-rule="evenodd" d="M40.1378 21.4281C36.4135 19.7849 32.5611 18.4104 28.6254 17.3163C27.3713 17.5782 26.1257 17.8711 24.8887 18.192C28.7974 19.3452 32.5982 20.8076 36.2642 22.5484C37.5461 22.1473 38.8377 21.7732 40.1378 21.4281Z" fill="#E31836"/>
<path fill-rule="evenodd" clip-rule="evenodd" d="M49.671 24.6675C40.3268 27.8524 31.572 32.3886 23.6523 38.0674C25.6331 39.2969 27.5611 40.6017 29.4462 41.9763C36.9111 35.9891 45.1986 31.0015 54.1172 27.2125C52.6623 26.3204 51.1748 25.4726 49.671 24.6675Z" fill="#E31836"/>
<path fill-rule="evenodd" clip-rule="evenodd" d="M43.2421 21.5802C33.5269 24.1784 24.3927 28.3705 16.1582 33.8917C18.0137 34.8148 19.8357 35.7998 21.6204 36.8486C29.6904 31.1999 38.6455 26.8018 48.1967 23.9011C46.5678 23.0756 44.9159 22.2983 43.2421 21.5802Z" fill="#E31836"/>
<path fill-rule="evenodd" clip-rule="evenodd" d="M32.5024 40.9638C32.5024 40.3983 32.9737 39.9382 33.5511 39.9382C34.1285 39.9382 34.5988 40.3983 34.5988 40.9638C34.5988 41.5389 34.1285 42 33.5511 42C32.9737 42 32.5024 41.5389 32.5024 40.9638ZM32.7003 40.9638C32.7003 41.4345 33.0789 41.797 33.5511 41.797C34.0195 41.797 34.3971 41.4345 34.3971 40.9638C34.3971 40.5085 34.0195 40.1422 33.5511 40.1422C33.0798 40.1422 32.7003 40.5085 32.7003 40.9638Z" fill="#E31836"/>
<path fill-rule="evenodd" clip-rule="evenodd" d="M34.0614 41.5439H33.8654L33.5299 41.0122H33.3225V41.5439H33.1504V40.3917H33.6609C33.7583 40.3917 33.8587 40.3975 33.9486 40.4477C34.0338 40.499 34.0787 40.5995 34.0787 40.6971C34.0787 40.9223 33.9152 41.0074 33.7078 41.0132L34.0614 41.5439ZM33.5156 40.8711C33.6781 40.8711 33.9037 40.8991 33.9037 40.6942C33.9037 40.5434 33.7736 40.5241 33.6265 40.5241H33.3234V40.8702L33.5156 40.8711Z" fill="#E31836"/>
</svg>
