<svg width="130" height="60" viewBox="0 0 130 60" fill="none" xmlns="http://www.w3.org/2000/svg">
<rect width="130" height="60" fill="white"/>
<g clip-path="url(#clip0_308_143)">
<path d="M12.0309 32.687H15.0711L16.0002 37.5412H16.0239L17.1227 32.687H20.0781V41.3505H17.9057V34.9515H17.8821L16.3991 41.3505H15.0833L13.721 34.7328H13.6965V41.3505H12.0308" fill="#0067B1"/>
<path d="M38.9292 38.4514V32.6866H40.8829V41.3494H38.9292" fill="#0067B1"/>
<path d="M41.8271 41.3503H43.7816V32.6867H41.8271V41.3503Z" fill="#0067B1"/>
<path d="M48.0415 32.6867H50.2122V39.8175H53.1563V41.35H48.0415" fill="#0067B1"/>
<path d="M55.4873 35.2428L56.1987 38.7839H56.2248L57.0569 35.2428H58.5863L56.5478 41.5462C56.1384 42.8099 55.2442 43.1761 54.0884 43.1761C53.895 43.1761 53.7017 43.1514 53.5092 43.1267V41.7285C53.6788 41.7648 53.8591 41.7879 54.0288 41.7879C54.6186 41.7879 55.1259 41.6188 55.1259 41.0587C55.1259 40.9127 55.0998 40.7049 55.0403 40.511L53.4717 35.2428" fill="#0067B1"/>
<path d="M70.8765 32.6867H72.8294V36.0587H72.853C73.2641 35.4385 73.8776 35.097 74.5783 35.097C75.3606 35.097 75.8688 35.6322 75.8688 36.472V41.35H73.9143V37.0312C73.9143 36.7029 73.8049 36.4843 73.4436 36.4843C73.238 36.4843 73.0708 36.5693 72.9362 36.7384L72.8294 36.886V41.3501H70.8765" fill="#0067B1"/>
<path d="M62.9074 35.0992C62.1431 35.0992 61.608 35.4515 61.2107 35.8655H61.1838L61.1707 35.2386H59.2627V41.3498H61.214V36.9807C61.3918 36.7514 61.6284 36.6012 61.847 36.6012C62.1774 36.6012 62.2973 36.7984 62.2973 37.144V41.3498H64.2477V36.5187C64.2477 35.6807 63.7607 35.0992 62.9074 35.0992Z" fill="#0067B1"/>
<path d="M24.225 37.5719H22.7665C22.7371 36.9904 22.9362 36.3395 23.4835 36.3395C24.1639 36.3395 24.2413 36.9994 24.225 37.5719ZM23.5055 35.099C21.7126 35.099 20.8169 36.5573 20.8169 38.2854C20.8169 39.9755 21.6636 41.4973 23.5268 41.4973C25.2603 41.4973 25.8549 40.1074 25.9471 39.832L24.6289 39.3453C24.5351 39.8395 24.1362 40.1834 23.6655 40.1834C22.8799 40.1834 22.7421 39.2752 22.7665 38.7383H26.0238V38.3217C26.0238 36.7289 25.3793 35.099 23.5055 35.099Z" fill="#0067B1"/>
<path d="M35.7959 38.2958V41.3502H37.7471V35.2389H35.7959" fill="#0067B1"/>
<path d="M35.7959 34.4371H37.7471V32.6876H35.7959V34.4371Z" fill="#0067B1"/>
<path d="M67.7787 36.3375C68.0943 36.3375 68.2493 36.5091 68.3431 36.7524C68.4329 36.9801 68.4427 37.2786 68.4427 37.5171H70.1011C70.1011 36.9116 69.7911 35.0962 67.7232 35.0962C65.8837 35.0962 64.9668 36.7632 64.9668 38.4277C64.9668 39.9355 65.8837 41.4953 67.6343 41.4953C69.0553 41.4953 69.8971 40.7158 70.0423 39.2352L68.5234 39.0142C68.5234 39.4777 68.4647 40.1805 67.7787 40.1805C67.2778 40.1805 67.0575 39.7326 67.0575 38.3568C67.0575 37.1434 67.1318 36.3375 67.7787 36.3375Z" fill="#0067B1"/>
<path d="M28.6898 36.0695H28.6637L28.6417 35.238H26.7549V41.3492H28.7061V37.395C28.9353 37.1137 29.2804 36.9199 29.7715 36.9199C30.1108 36.9199 30.3507 37.0015 30.5677 37.0898V35.0986C29.8172 35.0986 29.0903 35.4253 28.6898 36.0695Z" fill="#0067B1"/>
<path d="M33.1566 36.0695H33.1297L33.1085 35.238H31.2217V41.3492H33.1729V37.395C33.4021 37.1137 33.7472 36.9199 34.2374 36.9199C34.5776 36.9199 34.8174 37.0015 35.0344 37.0898V35.0986C34.2839 35.0986 33.5571 35.4253 33.1566 36.0695Z" fill="#0067B1"/>
<path d="M40.4965 22.8788C38.6765 22.8788 37.7715 24.2326 37.7715 26.0598C37.7715 27.962 38.641 29.2907 40.4965 29.2907C42.3536 29.2907 43.2205 27.962 43.2205 26.0598C43.2205 24.2326 42.3164 22.8788 40.4965 22.8788ZM40.4965 28.0475C40.0128 28.0475 39.7977 27.6084 39.7977 26.0592C39.7977 24.645 39.9411 24.1214 40.4965 24.1214C41.0509 24.1214 41.1948 24.645 41.1948 26.0592C41.1948 27.609 40.9782 28.0475 40.4965 28.0475Z" fill="#0067B1"/>
<path d="M44.4789 22.3569V23.0405H43.6826V24.4312H44.4789V29.1582H46.4318V24.4312H47.4947V23.0405H46.4318V22.42C46.4318 22.0482 46.6175 21.8448 47.1316 21.8448C47.2399 21.8448 47.3843 21.8688 47.4942 21.8943V20.3831C47.1791 20.3466 46.8893 20.3091 46.5051 20.3091C45.2153 20.3097 44.4789 20.8576 44.4789 22.3569Z" fill="#0067B1"/>
<path d="M23.6583 24.7591C23.6583 23.4065 22.4417 22.8954 21.2706 22.8954C20.1629 22.8954 19.0769 23.3814 18.8607 24.5886L20.5595 24.9421C20.5806 24.5849 20.7307 24.1385 21.1995 24.1385C21.5368 24.1385 21.7049 24.381 21.7049 24.746V25.2722C20.4146 25.4234 18.6364 25.8943 18.5936 27.4863C18.5637 28.6116 19.3058 29.2764 20.2795 29.2764C20.8555 29.2764 21.4321 28.9547 21.7652 28.5996C21.777 28.7013 21.7899 28.9902 21.8266 29.1591H23.8399C23.7661 29.0757 23.6578 28.8671 23.6578 28.172L23.6583 24.7591ZM21.7054 27.6C21.5393 27.8211 21.301 27.9801 21.0788 27.9801C20.7286 27.9801 20.512 27.758 20.512 27.3315C20.512 26.5503 21.0226 26.2885 21.7049 26.2218L21.7054 27.6Z" fill="#0067B1"/>
<path d="M28.4474 22.8945C27.6857 22.8945 27.1478 23.2512 26.7456 23.6657H26.7203L26.7105 23.04H24.7993V29.1582H26.7523V24.7832C26.9307 24.5517 27.168 24.403 27.3876 24.403C27.7141 24.403 27.8379 24.5965 27.8379 24.9454V29.1577H29.7908V24.3186C29.7914 23.4796 29.3025 22.8945 28.4474 22.8945Z" fill="#0067B1"/>
<path d="M36.3698 29.1582L34.7268 24.9235L36.3605 23.04H34.4184L32.9816 24.8891H32.9579V20.4807H31.0039V29.1582H32.9579V26.9671L33.3684 26.4894H33.3921L34.3441 29.1582H36.3698Z" fill="#0067B1"/>
<path d="M16.5119 24.6453V24.5775C17.1339 24.3324 17.9126 23.7348 17.9126 22.6007C17.9126 21.4024 16.9132 20.4804 15.3928 20.4804H12V29.1592H15.3062C16.9358 29.1592 18.1162 28.3233 18.1162 26.8377C18.1162 25.7254 17.4418 24.955 16.5119 24.6453ZM14.1081 22.0168H14.8678C15.3608 22.0168 15.9131 22.1508 15.9131 22.9789C15.9131 23.492 15.6031 23.9181 14.8187 23.9181H14.1081L14.1081 22.0168ZM14.9039 27.551H14.1081V25.3807H14.9039C15.6032 25.3807 15.9983 25.8078 15.9983 26.4539C15.9983 27.3429 15.3732 27.551 14.9039 27.551Z" fill="#0067B1"/>
<path d="M89.029 28.1724V24.7594C89.029 23.4068 87.813 22.8958 86.6429 22.8958C85.5336 22.8958 84.4475 23.3818 84.2309 24.5889L85.9311 24.9424C85.9518 24.5852 86.1008 24.1388 86.5706 24.1388C86.9063 24.1388 87.077 24.3813 87.077 24.7463V25.2725C85.7852 25.4237 84.0055 25.8946 83.9638 27.4866C83.9339 28.6119 84.6754 29.2767 85.6501 29.2767C86.2262 29.2767 86.8017 28.955 87.1374 28.5999C87.1472 28.7016 87.1607 28.9905 87.1963 29.1594H89.2091C89.1379 29.0755 89.029 28.8675 89.029 28.1724ZM87.0776 27.6002C86.909 27.8213 86.6718 27.9804 86.4505 27.9804C86.0993 27.9804 85.8827 27.7582 85.8827 27.3317C85.8827 26.5505 86.3938 26.2888 87.0771 26.222L87.0776 27.6002Z" fill="#0067B1"/>
<path d="M67.7363 22.8788C65.9396 22.8788 65.0464 24.3415 65.0464 26.0727C65.0464 27.7669 65.8906 29.2912 67.759 29.2912C69.4975 29.2912 70.0988 27.9015 70.1844 27.6204L68.8673 27.1324C68.7708 27.6257 68.3727 27.973 67.9019 27.973C67.1154 27.973 66.9725 27.0682 66.9994 26.5238H70.2674V26.1087C70.2674 24.5125 69.6171 22.8788 67.7363 22.8788ZM68.4588 25.3526H66.9994C66.9694 24.7769 67.1685 24.122 67.7229 24.122C68.398 24.122 68.4774 24.7848 68.4588 25.3526Z" fill="#0067B1"/>
<path d="M77.4871 23.0405H75.5352V29.1587H77.4871V23.0405Z" fill="#0067B1"/>
<path d="M77.4871 20.4802H75.5352V22.2354H77.4871V20.4802Z" fill="#0067B1"/>
<path d="M81.1567 24.1219C81.4718 24.1219 81.6276 24.2929 81.723 24.5354C81.8086 24.768 81.82 25.06 81.82 25.304H83.4851C83.4851 24.695 83.1706 22.8793 81.099 22.8793C79.2538 22.8793 78.3389 24.5496 78.3389 26.2187C78.3389 27.7299 79.2532 29.2911 81.0143 29.2911C82.4367 29.2911 83.2798 28.5115 83.4258 27.0243L81.9065 26.8043C81.9065 27.2678 81.8461 27.9729 81.1577 27.9729C80.6528 27.9729 80.4357 27.5239 80.4357 26.1451C80.4338 24.9265 80.507 24.1219 81.1567 24.1219Z" fill="#0067B1"/>
<path d="M50.8893 20.4807L48.8765 29.1586H50.7567L51.1311 27.4044H53.1202L53.458 29.1586H55.5677L53.7339 20.4807H50.8893ZM51.4328 25.8683L52.1579 22.3329H52.2012L52.8185 25.8683H51.4328Z" fill="#0067B1"/>
<path d="M73.0134 23.8683H72.9809L72.9613 23.0396H71.0713V29.1579H73.0263V25.1963C73.2558 24.92 73.5993 24.7223 74.0974 24.7223C74.4342 24.7223 74.6719 24.8047 74.8937 24.8918V22.8941C74.1407 22.8941 73.4121 23.2222 73.0134 23.8683Z" fill="#0067B1"/>
<path d="M62.8361 22.8945C62.0182 22.8945 61.4349 23.3398 61.0936 23.7131H61.0683C60.8837 23.2412 60.4876 22.8945 59.894 22.8945C59.1663 22.8945 58.5542 23.2746 58.1457 23.6636H58.121L58.1107 23.0405H56.2046V29.1587H58.121V24.7952C58.2855 24.5699 58.5789 24.4187 58.7837 24.4187C59.1462 24.4187 59.2421 24.6372 59.2421 24.9667V29.1587H61.1595V24.7951C61.2864 24.6262 61.5654 24.4187 61.8274 24.4187C62.1827 24.4187 62.2817 24.6371 62.2817 24.9667V29.1587H64.1976V24.2815C64.1976 23.4362 63.6478 22.8945 62.8361 22.8945Z" fill="#0067B1"/>
<path fill-rule="evenodd" clip-rule="evenodd" d="M101.037 19.1061C101.812 19.4153 102.577 19.7475 103.333 20.101C100.926 21.0897 98.6007 22.2599 96.3827 23.6C95.6318 23.2021 94.8702 22.8261 94.0977 22.4731C96.3126 21.169 98.6321 20.0411 101.037 19.1061Z" fill="#0067B1"/>
<path fill-rule="evenodd" clip-rule="evenodd" d="M98.1722 18.0825C95.672 18.8829 93.2662 19.93 90.9863 21.2003C91.7135 21.4662 92.4339 21.7494 93.1441 22.0524C95.3533 20.7378 97.6885 19.6318 100.118 18.7526C99.4754 18.5138 98.8255 18.2905 98.1722 18.0825Z" fill="#0067B1"/>
<path fill-rule="evenodd" clip-rule="evenodd" d="M106.252 19.0076C104.288 18.0471 102.25 17.2383 100.153 16.5927C99.4157 16.8075 98.685 17.0417 97.9604 17.2966C100.119 17.9427 102.218 18.7609 104.239 19.7397C104.903 19.4821 105.575 19.237 106.252 19.0076Z" fill="#E31836"/>
<path fill-rule="evenodd" clip-rule="evenodd" d="M109.459 18.0418C107.449 17.1553 105.371 16.4138 103.248 15.8235C102.571 15.9648 101.899 16.1228 101.232 16.296C103.341 16.9181 105.391 17.707 107.369 18.6461C108.06 18.4297 108.757 18.2279 109.459 18.0418Z" fill="#E31836"/>
<path fill-rule="evenodd" clip-rule="evenodd" d="M114.602 19.7892C109.56 21.5073 104.837 23.9546 100.565 27.0181C101.633 27.6814 102.674 28.3854 103.691 29.1269C107.718 25.897 112.189 23.2063 117 21.1622C116.215 20.6809 115.413 20.2235 114.602 19.7892Z" fill="#E31836"/>
<path fill-rule="evenodd" clip-rule="evenodd" d="M111.133 18.1236C105.892 19.5253 100.964 21.7869 96.522 24.7655C97.523 25.2634 98.5059 25.7948 99.4687 26.3606C103.822 23.3132 108.653 20.9406 113.806 19.3757C112.927 18.9304 112.036 18.511 111.133 18.1236Z" fill="#E31836"/>
<path fill-rule="evenodd" clip-rule="evenodd" d="M105.339 28.5809C105.339 28.2758 105.594 28.0276 105.905 28.0276C106.217 28.0276 106.47 28.2758 106.47 28.5809C106.47 28.8911 106.217 29.1399 105.905 29.1399C105.594 29.1399 105.339 28.8911 105.339 28.5809ZM105.446 28.5809C105.446 28.8348 105.65 29.0304 105.905 29.0304C106.158 29.0304 106.361 28.8348 106.361 28.5809C106.361 28.3353 106.158 28.1376 105.905 28.1376C105.651 28.1376 105.446 28.3352 105.446 28.5809Z" fill="#E31836"/>
<path fill-rule="evenodd" clip-rule="evenodd" d="M106.18 28.8939H106.075L105.894 28.6071H105.782V28.8939H105.689V28.2723H105.964C106.017 28.2723 106.071 28.2754 106.12 28.3025C106.166 28.3301 106.19 28.3844 106.19 28.4371C106.19 28.5586 106.102 28.6044 105.99 28.6076L106.18 28.8939ZM105.886 28.5309C105.974 28.5309 106.095 28.546 106.095 28.4355C106.095 28.3541 106.025 28.3437 105.946 28.3437H105.782V28.5304L105.886 28.5309Z" fill="#E31836"/>
</g>
<defs>
<clipPath id="clip0_308_143">
<rect width="105" height="27.3529" fill="white" transform="translate(12 15.8235)"/>
</clipPath>
</defs>
</svg>
