<svg width="60" height="60" viewBox="0 0 60 60" fill="none" xmlns="http://www.w3.org/2000/svg">
<rect width="60" height="60" fill="#0067B1"/>
<path fill-rule="evenodd" clip-rule="evenodd" d="M24.5279 23.4014C25.9637 23.9746 27.3824 24.5903 28.7837 25.2456C24.3215 27.0782 20.0111 29.2473 15.8997 31.7314C14.5079 30.9939 13.096 30.297 11.6641 29.6426C15.7698 27.2252 20.0693 25.1345 24.5279 23.4014Z" fill="white"/>
<path fill-rule="evenodd" clip-rule="evenodd" d="M19.2169 21.5034C14.5825 22.9871 10.1231 24.9281 5.89697 27.2827C7.24482 27.7757 8.5802 28.3005 9.89665 28.8621C13.9918 26.4254 18.3203 24.3753 22.8237 22.7456C21.6327 22.3029 20.428 21.8891 19.2169 21.5034Z" fill="white"/>
<path fill-rule="evenodd" clip-rule="evenodd" d="M34.1942 23.2182C30.5541 21.4378 26.7752 19.9385 22.8893 18.7419C21.5223 19.1401 20.1678 19.5741 18.8247 20.0468C22.8262 21.2444 26.7159 22.761 30.4621 24.5753C31.6934 24.0978 32.9391 23.6435 34.1942 23.2182Z" fill="#E31836"/>
<path fill-rule="evenodd" clip-rule="evenodd" d="M40.1378 21.4282C36.4135 19.7849 32.5611 18.4105 28.6254 17.3163C27.3713 17.5783 26.1257 17.8712 24.8887 18.1921C28.7974 19.3452 32.5982 20.8076 36.2642 22.5485C37.5461 22.1473 38.8377 21.7732 40.1378 21.4282Z" fill="#E31836"/>
<path fill-rule="evenodd" clip-rule="evenodd" d="M49.671 24.6675C40.3268 27.8524 31.572 32.3887 23.6523 38.0674C25.6331 39.2969 27.5611 40.6018 29.4462 41.9763C36.9111 35.9892 45.1986 31.0016 54.1172 27.2126C52.6623 26.3204 51.1748 25.4727 49.671 24.6675Z" fill="#E31836"/>
<path fill-rule="evenodd" clip-rule="evenodd" d="M43.2421 21.5803C33.5269 24.1784 24.3927 28.3706 16.1582 33.8918C18.0137 34.8149 19.8357 35.7998 21.6204 36.8486C29.6904 31.1999 38.6455 26.8019 48.1967 23.9011C46.5678 23.0757 44.9159 22.2983 43.2421 21.5803Z" fill="#E31836"/>
<path fill-rule="evenodd" clip-rule="evenodd" d="M32.5024 40.9639C32.5024 40.3984 32.9737 39.9383 33.5511 39.9383C34.1285 39.9383 34.5988 40.3984 34.5988 40.9639C34.5988 41.539 34.1285 42 33.5511 42C32.9737 42 32.5024 41.539 32.5024 40.9639ZM32.7003 40.9639C32.7003 41.4346 33.0789 41.7971 33.5511 41.7971C34.0195 41.7971 34.3971 41.4346 34.3971 40.9639C34.3971 40.5086 34.0195 40.1422 33.5511 40.1422C33.0798 40.1422 32.7003 40.5086 32.7003 40.9639Z" fill="#E31836"/>
<path fill-rule="evenodd" clip-rule="evenodd" d="M34.0614 41.5439H33.8654L33.5299 41.0123H33.3225V41.5439H33.1504V40.3918H33.6609C33.7583 40.3918 33.8587 40.3976 33.9486 40.4478C34.0338 40.499 34.0787 40.5996 34.0787 40.6972C34.0787 40.9224 33.9152 41.0075 33.7078 41.0133L34.0614 41.5439ZM33.5156 40.8712C33.6781 40.8712 33.9037 40.8992 33.9037 40.6943C33.9037 40.5435 33.7736 40.5242 33.6265 40.5242H33.3234V40.8702L33.5156 40.8712Z" fill="#E31836"/>
</svg>
