<svg width="130" height="60" viewBox="0 0 130 60" fill="none" xmlns="http://www.w3.org/2000/svg">
<rect width="130" height="60" fill="white"/>
<path d="M49.7252 26.3636H54.7845L54.4586 27.2376H48.3919V21.3413H49.7178V26.3636H49.7252ZM44.0734 22.2006L44.3993 21.3339H37.6734V27.2302H44.0808L44.4067 26.3636H39.0067V24.6895H42.7845L43.103 23.8302H39.0067V22.2006H44.0734ZM25.8734 22.2006H29.6586V27.2302H30.9845V22.2006H34.4364L34.7623 21.3339H26.1993L25.8734 22.2006ZM102.007 27.1784H103.333V21.3413H102.007V27.1784ZM21.2438 23.8006H17.1697C16.6734 23.8006 16.3623 23.4747 16.3623 23.0747V22.9117C16.3623 22.4895 16.703 22.2006 17.1549 22.2006H22.6586L22.9845 21.3339H16.7697C15.6438 21.3487 15.0808 22.0895 15.066 22.8376V23.2228C15.0808 23.9784 15.6586 24.7636 16.7993 24.7636H20.8734C21.3697 24.7636 21.6808 25.0895 21.6808 25.4895V25.6524C21.6808 26.0747 21.3401 26.3636 20.8882 26.3636H15.3845L15.0586 27.2302H21.2734C22.3919 27.2154 22.9623 26.4747 22.9771 25.7339V25.3487C22.9623 24.5858 22.3845 23.8006 21.2438 23.8006ZM113.14 23.8006H109.066C108.57 23.8006 108.259 23.4747 108.259 23.0747V22.9117C108.259 22.4895 108.599 22.2006 109.051 22.2006H114.555L114.881 21.3339H108.666C107.547 21.3487 106.977 22.0895 106.962 22.8302V23.2154C106.977 23.971 107.555 24.7561 108.696 24.7561H112.77C113.266 24.7561 113.577 25.0821 113.577 25.4821V25.645C113.577 26.0673 113.236 26.3561 112.785 26.3561H107.281L106.955 27.2228H113.17C114.288 27.208 114.859 26.4673 114.873 25.7265V25.3413C114.866 24.5858 114.288 23.8006 113.14 23.8006ZM86.266 25.7043L80.6882 21.3339H79.3623V27.171H80.6882V22.7932L86.266 27.171H87.5919V21.3339H86.266V25.7043ZM67.1475 27.1784H68.5697L71.7697 21.3413H70.3475L67.1475 27.1784ZM71.9919 21.3339L75.1919 27.171H76.6141L73.4141 21.3339H71.9919ZM59.6289 21.3339H58.303V27.2302H64.3697L64.6956 26.3561H59.6364V21.3339H59.6289ZM90.3104 22.2006H94.0956V27.2302H95.4215V22.2006H98.8734L99.1993 21.3339H90.6364L90.3104 22.2006ZM65.7993 27.4302C65.4586 27.4302 65.1919 27.7043 65.1919 28.0376C65.1919 28.371 65.466 28.645 65.7993 28.645C66.1401 28.645 66.4067 28.371 66.4067 28.0376C66.4067 27.7043 66.1327 27.4302 65.7993 27.4302ZM67.4141 29.245C67.0734 29.245 66.8067 29.5191 66.8067 29.8524C66.8067 30.1932 67.0808 30.4599 67.4141 30.4599C67.7549 30.4599 68.0215 30.1858 68.0215 29.8524C68.029 29.5117 67.7549 29.245 67.4141 29.245ZM78.5993 28.045C78.5993 27.7043 78.3252 27.4376 77.9919 27.4376C77.6512 27.4376 77.3845 27.7117 77.3845 28.045C77.3845 28.3858 77.6586 28.6524 77.9919 28.6524C78.3252 28.6524 78.5993 28.3784 78.5993 28.045ZM76.3771 29.2895C76.0364 29.2895 75.7697 29.5636 75.7697 29.8969C75.7697 30.2376 76.0438 30.5043 76.3771 30.5043C76.7178 30.5043 76.9845 30.2302 76.9845 29.8969C76.9919 29.5636 76.7178 29.2895 76.3771 29.2895ZM74.2882 30.5043C73.9475 30.5043 73.6808 30.7784 73.6808 31.1117C73.6808 31.4524 73.9549 31.7191 74.2882 31.7191C74.6289 31.7191 74.8956 31.445 74.8956 31.1117C74.8956 30.7784 74.6215 30.5043 74.2882 30.5043ZM70.0734 31.1117C70.0734 30.771 69.7993 30.5043 69.466 30.5043C69.1252 30.5043 68.8586 30.7784 68.8586 31.1117C68.8586 31.4524 69.1327 31.7191 69.466 31.7191C69.7993 31.7265 70.0734 31.4524 70.0734 31.1117ZM61.2215 22.9043C61.0512 22.9191 60.9252 23.0673 60.9401 23.2376C60.9549 23.408 61.103 23.5339 61.2734 23.5191C61.4438 23.5043 61.5697 23.3561 61.5549 23.1858C61.5475 23.0228 61.3919 22.8895 61.2215 22.9043ZM62.5771 28.8524C62.4067 28.8673 62.2808 29.0154 62.2956 29.1858C62.3104 29.3561 62.4586 29.4821 62.629 29.4673C62.7993 29.4524 62.9252 29.3043 62.9104 29.1339C62.8956 28.9636 62.7475 28.8376 62.5771 28.8524ZM64.9919 31.4154C64.8215 31.4302 64.6956 31.5784 64.7104 31.7487C64.7252 31.9191 64.8734 32.045 65.0438 32.0302C65.2141 32.0154 65.3401 31.8673 65.3252 31.6969C65.3178 31.5265 65.1697 31.4006 64.9919 31.4154ZM68.2586 33.0599C68.0882 33.0747 67.9623 33.2228 67.9771 33.3932C67.9919 33.5636 68.1401 33.6895 68.3104 33.6747C68.4808 33.6599 68.6067 33.5117 68.5919 33.3413C68.5771 33.171 68.429 33.045 68.2586 33.0599ZM71.8734 33.4747C71.703 33.4895 71.5771 33.6376 71.5919 33.808C71.6067 33.9784 71.7549 34.1043 71.9252 34.0895C72.0956 34.0747 72.2215 33.9265 72.2067 33.7561C72.1919 33.5858 72.0438 33.4599 71.8734 33.4747ZM75.6215 32.9636C75.4512 32.9784 75.3252 33.1265 75.3401 33.2969C75.3549 33.4673 75.503 33.5932 75.6734 33.5784C75.8438 33.5636 75.9697 33.4154 75.9549 33.245C75.9475 33.0747 75.7919 32.9487 75.6215 32.9636ZM78.8067 31.4154C78.6364 31.4302 78.5104 31.5784 78.5252 31.7487C78.5401 31.9191 78.6882 32.045 78.8586 32.0302C79.0289 32.0154 79.1549 31.8673 79.1401 31.6969C79.1252 31.5265 78.9771 31.4006 78.8067 31.4154ZM81.2215 28.8524C81.0512 28.8673 80.9252 29.0154 80.9401 29.1858C80.9549 29.3561 81.103 29.4821 81.2734 29.4673C81.4438 29.4524 81.5697 29.3043 81.5549 29.1339C81.5475 28.971 81.3919 28.8376 81.2215 28.8524ZM82.4512 25.845C82.2808 25.8599 82.1549 26.008 82.1697 26.1784C82.1845 26.3487 82.3326 26.4747 82.503 26.4599C82.6734 26.445 82.7993 26.2969 82.7845 26.1265C82.7697 25.9561 82.6215 25.8302 82.4512 25.845ZM62.2956 19.9487C62.3104 20.1191 62.4586 20.245 62.629 20.2302C62.7993 20.2154 62.9252 20.0672 62.9104 19.8969C62.8956 19.7265 62.7475 19.6006 62.5771 19.6154C62.4067 19.6228 62.2808 19.7783 62.2956 19.9487ZM65.0512 17.6746C65.2215 17.6598 65.3475 17.5117 65.3327 17.3413C65.3178 17.1709 65.1697 17.045 64.9993 17.0598C64.8289 17.0746 64.703 17.2228 64.7178 17.3932C64.7253 17.5635 64.8808 17.6895 65.0512 17.6746ZM68.1697 16.1191C68.3401 16.1043 68.466 15.9561 68.4512 15.7857C68.4364 15.6154 68.2882 15.4895 68.1178 15.5043C67.9475 15.5191 67.8215 15.6672 67.8364 15.8376C67.8512 16.008 67.9993 16.1339 68.1697 16.1191ZM62.4512 18.1117C62.5401 18.1043 62.6067 18.0228 62.5993 17.9339C62.5919 17.845 62.5104 17.7783 62.4215 17.7857C62.3326 17.7932 62.266 17.8746 62.2734 17.9635C62.2808 18.0524 62.3623 18.1191 62.4512 18.1117ZM60.429 28.608C60.5178 28.6006 60.5845 28.5191 60.5771 28.4302C60.5697 28.3413 60.4882 28.2747 60.3993 28.2821C60.3104 28.2895 60.2438 28.371 60.2512 28.4599C60.2586 28.5487 60.3401 28.6154 60.429 28.608ZM62.4512 31.2969C62.5401 31.2895 62.6067 31.208 62.5993 31.1191C62.5919 31.0302 62.5104 30.9636 62.4215 30.971C62.3326 30.9784 62.266 31.0599 62.2734 31.1487C62.2808 31.2376 62.3623 31.3043 62.4512 31.2969ZM65.666 33.5932C65.7549 33.5858 65.8215 33.5043 65.8141 33.4154C65.8067 33.3265 65.7252 33.2598 65.6364 33.2673C65.5475 33.2747 65.4808 33.3561 65.4882 33.445C65.4956 33.5339 65.5771 33.6006 65.666 33.5932ZM69.7549 35.0747C69.8438 35.0673 69.9104 34.9858 69.903 34.8969C69.8956 34.808 69.8141 34.7413 69.7252 34.7487C69.6364 34.7561 69.5697 34.8376 69.5771 34.9265C69.5845 35.0154 69.666 35.0821 69.7549 35.0747ZM74.066 35.0747C74.1549 35.0673 74.2215 34.9858 74.2141 34.8969C74.2067 34.808 74.1252 34.7413 74.0364 34.7487C73.9475 34.7561 73.8808 34.8376 73.8882 34.9265C73.8956 35.0154 73.9771 35.0821 74.066 35.0747ZM78.1549 33.6006C78.2438 33.5932 78.3104 33.5117 78.303 33.4228C78.2956 33.3339 78.2141 33.2673 78.1252 33.2747C78.0364 33.2821 77.9697 33.3636 77.9771 33.4524C77.9845 33.5413 78.066 33.608 78.1549 33.6006ZM81.4289 31.3265C81.5178 31.3191 81.5845 31.2376 81.5771 31.1487C81.5697 31.0599 81.4882 30.9932 81.3993 31.0006C81.3104 31.008 81.2438 31.0895 81.2512 31.1784C81.2586 31.2673 81.3401 31.3339 81.4289 31.3265ZM83.3919 28.608C83.4808 28.6006 83.5475 28.5191 83.5401 28.4302C83.5327 28.3413 83.4512 28.2747 83.3623 28.2821C83.2734 28.2895 83.2067 28.371 83.2141 28.4599C83.2215 28.5487 83.303 28.6154 83.3919 28.608ZM65.666 15.8154C65.7549 15.808 65.8215 15.7265 65.8141 15.6376C65.8067 15.5487 65.7252 15.482 65.6364 15.4895C65.5475 15.4969 65.4808 15.5783 65.4882 15.6672C65.4956 15.7561 65.5771 15.8228 65.666 15.8154ZM69.7549 14.3265C69.8438 14.3191 69.9104 14.2376 69.903 14.1487C69.8956 14.0598 69.8141 13.9932 69.7252 14.0006C69.6364 14.008 69.5697 14.0895 69.5771 14.1783C69.5845 14.2746 69.666 14.3413 69.7549 14.3265ZM65.1327 23.9265C65.4734 23.9265 65.7401 23.6524 65.7401 23.3191C65.7401 22.9784 65.466 22.7117 65.1327 22.7117C64.7919 22.7117 64.5252 22.9858 64.5252 23.3191C64.5178 23.6524 64.7919 23.9265 65.1327 23.9265ZM65.7993 21.6524C66.1401 21.6524 66.4067 21.3783 66.4067 21.045C66.4067 20.7043 66.1327 20.4376 65.7993 20.4376C65.466 20.4376 65.1919 20.7117 65.1919 21.045C65.1845 21.3783 65.4586 21.6524 65.7993 21.6524ZM67.4141 19.8376C67.7549 19.8376 68.0215 19.5635 68.0215 19.2302C68.0215 18.8895 67.7475 18.6228 67.4141 18.6228C67.0734 18.6228 66.8067 18.8969 66.8067 19.2302C66.8067 19.5635 67.0808 19.8376 67.4141 19.8376ZM69.4586 18.5783C69.7993 18.5783 70.066 18.3043 70.066 17.9709C70.066 17.6302 69.7919 17.3635 69.4586 17.3635C69.1178 17.3635 68.8512 17.6376 68.8512 17.9709C68.8512 18.3043 69.1252 18.5783 69.4586 18.5783ZM71.8956 18.2154C72.2364 18.2154 72.503 17.9413 72.503 17.608C72.503 17.2672 72.2289 17.0006 71.8956 17.0006C71.5549 17.0006 71.2882 17.2746 71.2882 17.608C71.2882 17.9413 71.5623 18.2154 71.8956 18.2154ZM71.8956 32.1117C72.2364 32.1117 72.503 31.8376 72.503 31.5043C72.503 31.1636 72.2289 30.8969 71.8956 30.8969C71.5549 30.8969 71.2882 31.171 71.2882 31.5043C71.2882 31.845 71.5623 32.1117 71.8956 32.1117ZM65.0067 18.7487C64.7401 18.7487 64.5252 18.9635 64.5252 19.2302C64.5252 19.4969 64.7401 19.7117 65.0067 19.7117C65.2734 19.7117 65.4882 19.4969 65.4882 19.2302C65.4882 18.9635 65.2734 18.7487 65.0067 18.7487ZM63.4808 21.2598C63.2141 21.2598 62.9993 21.4747 62.9993 21.7413C62.9993 22.008 63.2141 22.2228 63.4808 22.2228C63.7475 22.2228 63.9623 22.008 63.9623 21.7413C63.9623 21.4747 63.7475 21.2598 63.4808 21.2598ZM62.8956 24.0821C62.629 24.0821 62.4141 24.2969 62.4141 24.5636C62.4141 24.8302 62.629 25.045 62.8956 25.045C63.1623 25.045 63.3771 24.8302 63.3771 24.5636C63.3771 24.2969 63.1623 24.0821 62.8956 24.0821ZM67.3401 16.8598C67.0734 16.8598 66.8586 17.0746 66.8586 17.3413C66.8586 17.608 67.0734 17.8228 67.3401 17.8228C67.6067 17.8228 67.8215 17.608 67.8215 17.3413C67.8215 17.0746 67.6067 16.8598 67.3401 16.8598ZM70.3845 15.8376C70.1178 15.8376 69.903 16.0524 69.903 16.3191C69.903 16.5857 70.1178 16.8006 70.3845 16.8006C70.6512 16.8006 70.866 16.5783 70.866 16.3117C70.866 16.045 70.6512 15.8376 70.3845 15.8376ZM71.8956 14.9857C71.7252 14.9857 71.5845 15.1265 71.5845 15.2969C71.5845 15.4672 71.7252 15.608 71.8956 15.608C72.066 15.608 72.2067 15.4672 72.2067 15.2969C72.2067 15.1265 72.066 14.9857 71.8956 14.9857ZM81.2141 19.608C81.0438 19.5932 80.8956 19.7191 80.8808 19.8895C80.866 20.0598 80.9919 20.208 81.1623 20.2228C81.3327 20.2376 81.4808 20.1117 81.4956 19.9413C81.5178 19.7783 81.3919 19.6228 81.2141 19.608ZM79.0808 17.3932C79.0956 17.2228 78.9697 17.0746 78.7993 17.0598C78.6289 17.045 78.4808 17.1709 78.466 17.3413C78.4512 17.5117 78.5771 17.6598 78.7475 17.6746C78.9178 17.6895 79.066 17.5635 79.0808 17.3932ZM75.9623 15.8376C75.9771 15.6672 75.8512 15.5117 75.6808 15.4969C75.5104 15.482 75.3623 15.608 75.3475 15.7783C75.3327 15.9487 75.4586 16.0969 75.6289 16.1117C75.7919 16.1339 75.9475 16.008 75.9623 15.8376ZM81.5178 17.9635C81.5252 17.8746 81.4586 17.7932 81.3697 17.7857C81.2808 17.7783 81.1993 17.845 81.1919 17.9339C81.1845 18.0228 81.2512 18.1043 81.3401 18.1117C81.4364 18.1191 81.5104 18.0524 81.5178 17.9635ZM78.303 15.6672C78.3104 15.5783 78.2438 15.4969 78.1549 15.4895C78.066 15.482 77.9845 15.5487 77.9771 15.6376C77.9697 15.7265 78.0364 15.808 78.1252 15.8154C78.2215 15.8228 78.2956 15.7561 78.303 15.6672ZM74.2141 14.1783C74.2215 14.0895 74.1549 14.008 74.066 14.0006C73.9771 13.9932 73.8956 14.0598 73.8882 14.1487C73.8808 14.2376 73.9475 14.3191 74.0364 14.3265C74.1252 14.3339 74.2067 14.2746 74.2141 14.1783ZM78.6067 21.0376C78.6067 20.6969 78.3327 20.4302 77.9993 20.4302C77.6586 20.4302 77.3919 20.7043 77.3919 21.0376C77.3919 21.3783 77.666 21.645 77.9993 21.645C78.3327 21.6524 78.6067 21.3783 78.6067 21.0376ZM76.9919 19.2302C76.9919 18.8895 76.7178 18.6228 76.3845 18.6228C76.0438 18.6228 75.7771 18.8969 75.7771 19.2302C75.7771 19.5709 76.0512 19.8376 76.3845 19.8376C76.7178 19.8376 76.9919 19.5635 76.9919 19.2302ZM74.9475 17.9709C74.9475 17.6302 74.6734 17.3635 74.3401 17.3635C73.9993 17.3635 73.7327 17.6376 73.7327 17.9709C73.7327 18.3117 74.0067 18.5783 74.3401 18.5783C74.6734 18.5783 74.9475 18.3043 74.9475 17.9709ZM78.303 19.2302C78.303 19.4969 78.5178 19.7117 78.7845 19.7117C79.0512 19.7117 79.266 19.4969 79.266 19.2302C79.266 18.9635 79.0512 18.7487 78.7845 18.7487C78.5178 18.7487 78.303 18.9635 78.303 19.2302ZM78.3401 29.8524C78.3401 30.1191 78.5549 30.3339 78.8215 30.3339C79.0882 30.3339 79.303 30.1191 79.303 29.8524C79.303 29.5858 79.0882 29.371 78.8215 29.371C78.5549 29.371 78.3401 29.5858 78.3401 29.8524ZM75.9771 31.7487C75.9771 32.0154 76.1919 32.2302 76.4586 32.2302C76.7252 32.2302 76.9401 32.0154 76.9401 31.7487C76.9401 31.4821 76.7178 31.2747 76.4512 31.2747C76.1845 31.2747 75.9771 31.4895 75.9771 31.7487ZM72.9993 32.6895C72.9993 32.9561 73.2141 33.171 73.4808 33.171C73.7475 33.171 73.9623 32.9561 73.9623 32.6895C73.9623 32.4228 73.7475 32.208 73.4808 32.208C73.2141 32.208 72.9993 32.4228 72.9993 32.6895ZM69.9104 32.7265C69.9104 32.9932 70.1252 33.208 70.3919 33.208C70.6586 33.208 70.8734 32.9932 70.8734 32.7265C70.8734 32.4599 70.6586 32.245 70.3919 32.245C70.1252 32.245 69.9104 32.4599 69.9104 32.7265ZM66.8956 31.8154C66.8956 32.0821 67.1104 32.2969 67.3771 32.2969C67.6438 32.2969 67.8586 32.0821 67.8586 31.8154C67.8586 31.5487 67.6438 31.3339 67.3771 31.3339C67.1104 31.3339 66.8956 31.5487 66.8956 31.8154ZM64.5327 29.8302C64.5327 30.0969 64.7475 30.3117 65.0141 30.3117C65.2808 30.3117 65.4956 30.0969 65.4956 29.8302C65.4956 29.5636 65.2808 29.3487 65.0141 29.3487C64.7475 29.3487 64.5327 29.571 64.5327 29.8302ZM75.9697 17.3339C75.9697 17.6006 76.1845 17.8154 76.4512 17.8154C76.7178 17.8154 76.9327 17.6006 76.9327 17.3339C76.9327 17.0672 76.7178 16.8598 76.4512 16.8598C76.1845 16.8598 75.9697 17.0746 75.9697 17.3339ZM72.9327 16.3117C72.9327 16.5783 73.1475 16.7932 73.4141 16.7932C73.6808 16.7932 73.8956 16.5783 73.8956 16.3117C73.8956 16.045 73.6808 15.8302 73.4141 15.8302C73.1475 15.8302 72.9327 16.0524 72.9327 16.3117ZM83.3919 21.6302C83.4808 21.6228 83.5475 21.5413 83.5401 21.4524C83.5327 21.3635 83.4512 21.2969 83.3623 21.3043C83.2734 21.3117 83.2067 21.3932 83.2141 21.4821C83.2215 21.571 83.303 21.6376 83.3919 21.6302Z" fill="#23397F"/>
<path d="M15 44.9413V40.9117H17.4741V41.2895H15.4444V44.9413H15ZM15.3111 43.0969V42.7191H17.2074V43.0969H15.3111Z" fill="#23397F"/>
<path d="M22.2148 44.9413V40.9117H22.6593V44.9413H22.2148Z" fill="#23397F"/>
<path d="M27.7266 44.9413V40.9117H28.1784L30.4969 44.4302H30.3858V40.9117H30.8006V44.9413H30.3488L28.0377 41.4228H28.1488V44.9413H27.7266Z" fill="#23397F"/>
<path d="M35.4883 44.9413L36.9327 40.9117H37.5549L38.9994 44.9413H38.5475L37.1994 41.1191H37.2735L35.9253 44.9413H35.4883ZM36.2438 43.6376L36.3475 43.2672H38.1401L38.2438 43.6376H36.2438Z" fill="#23397F"/>
<path d="M43.6895 44.9413V40.9117H44.1413L46.4598 44.4302H46.3487V40.9117H46.7635V44.9413H46.3117L44.0006 41.4228H44.1117V44.9413H43.6895Z" fill="#23397F"/>
<path d="M53.4898 44.9931C53.2157 44.9931 52.9639 44.9561 52.7342 44.882C52.512 44.808 52.3194 44.6894 52.1565 44.5265C51.9935 44.3635 51.875 44.1561 51.7861 43.8894C51.6972 43.6302 51.6602 43.3042 51.6602 42.9339C51.6602 42.445 51.7342 42.0524 51.8824 41.7487C52.0305 41.445 52.2453 41.2228 52.5268 41.0746C52.8083 40.9339 53.1416 40.8598 53.5268 40.8598C53.6824 40.8598 53.8305 40.8672 53.9713 40.8894C54.112 40.9117 54.2527 40.9413 54.3935 40.9783V41.3635C54.2527 41.3191 54.112 41.2894 53.9713 41.2746C53.8305 41.2598 53.6898 41.245 53.5416 41.245C53.2379 41.245 52.9787 41.2968 52.7639 41.408C52.549 41.5191 52.3935 41.6894 52.2824 41.9413C52.1713 42.1857 52.1194 42.5191 52.1194 42.9265C52.1194 43.3487 52.1713 43.6894 52.2824 43.9339C52.3935 44.1783 52.549 44.3561 52.7565 44.4598C52.9639 44.5635 53.2157 44.6154 53.5046 44.6154C53.6527 44.6154 53.8009 44.6005 53.9342 44.5783C54.075 44.5561 54.2231 44.5191 54.3861 44.4672V44.8524C54.2527 44.8968 54.1046 44.9339 53.9565 44.9635C53.8157 44.9783 53.6602 44.9931 53.4898 44.9931Z" fill="#23397F"/>
<path d="M59.1191 44.9413V40.9117H59.5636V44.9413H59.1191Z" fill="#23397F"/>
<path d="M64.252 44.9413L65.6964 40.9117H66.3186L67.7631 44.9413H67.3112L65.9631 41.1191H66.0371L64.689 44.9413H64.252ZM65.0075 43.6376L65.1112 43.2672H66.9038L67.0075 43.6376H65.0075Z" fill="#23397F"/>
<path d="M72.4668 44.9413V40.9117H72.9927L74.452 44.0376H74.3483L75.7853 40.9117H76.3112V44.9413H75.8964V41.2969H76.0223L74.5853 44.3858H74.1853L72.7335 41.2969H72.8742V44.9413H72.4668Z" fill="#23397F"/>
<path d="M81.3926 44.9413V40.9117H83.8889V41.2821H81.8296V44.5635H83.9111V44.9339H81.3926V44.9413ZM81.6741 43.0598V42.6895H83.6222V43.0598H81.6741Z" fill="#23397F"/>
<path d="M88.7188 44.9413V40.9117H89.1706L91.4891 44.4302H91.378V40.9117H91.7928V44.9413H91.341L89.0299 41.4228H89.141V44.9413H88.7188Z" fill="#23397F"/>
<path d="M97.7861 44.9413V41.2969H96.4453V40.9117H99.5712V41.2969H98.2305V44.9413H97.7861Z" fill="#23397F"/>
<path d="M105.504 44.9931C105.171 44.9931 104.875 44.9191 104.623 44.7783C104.371 44.6376 104.178 44.4154 104.037 44.1117C103.897 43.8079 103.83 43.4154 103.83 42.9265C103.83 42.445 103.897 42.045 104.037 41.7413C104.178 41.4376 104.371 41.2154 104.623 41.0746C104.875 40.9339 105.163 40.8598 105.504 40.8598C105.837 40.8598 106.134 40.9339 106.378 41.0746C106.63 41.2154 106.823 41.4376 106.963 41.7413C107.104 42.045 107.171 42.4376 107.171 42.9265C107.171 43.408 107.104 43.8079 106.963 44.1117C106.823 44.4154 106.63 44.6376 106.378 44.7783C106.126 44.9191 105.837 44.9931 105.504 44.9931ZM105.504 44.6154C105.749 44.6154 105.963 44.5635 106.141 44.4524C106.326 44.3413 106.467 44.1709 106.563 43.9265C106.667 43.682 106.712 43.3561 106.712 42.9413C106.712 42.5191 106.66 42.1857 106.563 41.9413C106.46 41.6894 106.319 41.5117 106.141 41.408C105.956 41.2968 105.749 41.245 105.504 41.245C105.26 41.245 105.045 41.2968 104.86 41.408C104.675 41.5117 104.534 41.6894 104.437 41.9339C104.334 42.1783 104.289 42.5042 104.289 42.9191C104.289 43.3413 104.341 43.6746 104.437 43.9191C104.541 44.1635 104.682 44.3487 104.86 44.4524C105.045 44.5561 105.26 44.6154 105.504 44.6154Z" fill="#23397F"/>
<path d="M112.866 44.9932C112.703 44.9932 112.54 44.9784 112.37 44.9488C112.2 44.9191 112.029 44.8821 111.874 44.8228V44.4451C111.985 44.4821 112.103 44.5117 112.214 44.5414C112.333 44.5636 112.444 44.5858 112.555 44.6006C112.666 44.6154 112.77 44.6228 112.874 44.6228C113.207 44.6228 113.451 44.5562 113.614 44.4302C113.777 44.3043 113.851 44.1191 113.851 43.8821C113.851 43.6747 113.792 43.5191 113.674 43.4154C113.555 43.3043 113.348 43.2154 113.059 43.1414L112.844 43.0821C112.503 42.9932 112.244 42.8599 112.074 42.6895C111.903 42.5117 111.814 42.2821 111.814 41.9858C111.814 41.6377 111.933 41.3636 112.177 41.171C112.414 40.971 112.777 40.8747 113.251 40.8747C113.407 40.8747 113.563 40.8821 113.711 40.9043C113.866 40.9265 114 40.9562 114.126 40.9932V41.371C113.985 41.3265 113.844 41.2969 113.696 41.2747C113.548 41.2525 113.4 41.2451 113.251 41.2451C113.022 41.2451 112.829 41.2747 112.689 41.3265C112.54 41.3858 112.429 41.4673 112.363 41.571C112.289 41.6747 112.259 41.808 112.259 41.9562C112.259 42.1562 112.311 42.3043 112.422 42.4154C112.533 42.5265 112.726 42.6154 113 42.6895L113.222 42.7414C113.466 42.808 113.674 42.8895 113.829 42.9858C113.992 43.0821 114.111 43.208 114.185 43.3488C114.266 43.4895 114.303 43.6599 114.303 43.8525C114.303 44.0969 114.244 44.3043 114.133 44.4747C114.022 44.6451 113.859 44.771 113.644 44.8673C113.429 44.9488 113.17 44.9932 112.866 44.9932Z" fill="#23397F"/>
</svg>
