<svg width="60" height="60" viewBox="0 0 60 60" fill="none" xmlns="http://www.w3.org/2000/svg">
<rect width="60" height="60" fill="white"/>
<path d="M21.1248 34.415H23.7516L29.6618 23.6342H27.0351L21.1248 34.415ZM30.0723 23.6206L35.9825 34.4013H38.6092L32.699 23.6206H30.0723ZM18.6349 34.8801C18.0055 34.8801 17.513 35.3863 17.513 36.002C17.513 36.6176 18.0192 37.1238 18.6349 37.1238C19.2642 37.1238 19.7567 36.6176 19.7567 36.002C19.7567 35.3863 19.2505 34.8801 18.6349 34.8801ZM21.6174 38.232C20.988 38.232 20.4955 38.7382 20.4955 39.3538C20.4955 39.9832 21.0017 40.4757 21.6174 40.4757C22.2467 40.4757 22.7392 39.9695 22.7392 39.3538C22.7529 38.7245 22.2467 38.232 21.6174 38.232ZM42.2758 36.0157C42.2758 35.3863 41.7696 34.8938 41.1539 34.8938C40.5246 34.8938 40.0321 35.4 40.0321 36.0157C40.0321 36.645 40.5383 37.1375 41.1539 37.1375C41.7696 37.1375 42.2758 36.6313 42.2758 36.0157ZM38.1714 38.3141C37.5421 38.3141 37.0496 38.8203 37.0496 39.4359C37.0496 40.0653 37.5558 40.5578 38.1714 40.5578C38.8008 40.5578 39.2933 40.0516 39.2933 39.4359C39.307 38.8203 38.8008 38.3141 38.1714 38.3141ZM34.3134 40.5578C33.6841 40.5578 33.1915 41.064 33.1915 41.6796C33.1915 42.3089 33.6977 42.8015 34.3134 42.8015C34.9427 42.8015 35.4352 42.2953 35.4352 41.6796C35.4352 41.064 34.929 40.5578 34.3134 40.5578ZM26.5289 41.6796C26.5289 41.0503 26.0226 40.5578 25.407 40.5578C24.7777 40.5578 24.2852 41.064 24.2852 41.6796C24.2852 42.3089 24.7914 42.8015 25.407 42.8015C26.0226 42.8151 26.5289 42.3089 26.5289 41.6796ZM10.18 26.521C9.86531 26.5484 9.63273 26.822 9.6601 27.1366C9.68746 27.4513 9.96108 27.6839 10.2757 27.6565C10.5904 27.6292 10.823 27.3555 10.7956 27.0409C10.7819 26.7399 10.4946 26.4936 10.18 26.521ZM12.6836 37.5069C12.369 37.5343 12.1364 37.8079 12.1637 38.1225C12.1911 38.4372 12.4647 38.6698 12.7794 38.6424C13.0941 38.6151 13.3266 38.3414 13.2993 38.0268C13.2719 37.7121 12.9983 37.4795 12.6836 37.5069ZM17.1436 42.2405C16.829 42.2679 16.5964 42.5415 16.6238 42.8562C16.6511 43.1709 16.9247 43.4034 17.2394 43.3761C17.5541 43.3487 17.7867 43.0751 17.7593 42.7604C17.7456 42.4458 17.472 42.2132 17.1436 42.2405ZM23.177 45.2777C22.8623 45.3051 22.6297 45.5787 22.6571 45.8934C22.6845 46.208 22.9581 46.4406 23.2728 46.4133C23.5874 46.3859 23.82 46.1123 23.7926 45.7976C23.7653 45.483 23.4917 45.2504 23.177 45.2777ZM29.8534 46.0439C29.5387 46.0712 29.3061 46.3449 29.3335 46.6595C29.3608 46.9742 29.6345 47.2068 29.9491 47.1794C30.2638 47.152 30.4964 46.8784 30.469 46.5638C30.4416 46.2491 30.168 46.0165 29.8534 46.0439ZM36.776 45.0999C36.4613 45.1272 36.2287 45.4009 36.2561 45.7155C36.2835 46.0302 36.5571 46.2628 36.8717 46.2354C37.1864 46.208 37.419 45.9344 37.3916 45.6198C37.3779 45.3051 37.0906 45.0725 36.776 45.0999ZM42.6588 42.2405C42.3442 42.2679 42.1116 42.5415 42.139 42.8562C42.1663 43.1709 42.4399 43.4034 42.7546 43.3761C43.0693 43.3487 43.3018 43.0751 43.2745 42.7604C43.2471 42.4458 42.9735 42.2132 42.6588 42.2405ZM47.1189 37.5069C46.8042 37.5343 46.5716 37.8079 46.599 38.1225C46.6263 38.4372 46.9 38.6698 47.2146 38.6424C47.5293 38.6151 47.7619 38.3414 47.7345 38.0268C47.7208 37.7258 47.4335 37.4795 47.1189 37.5069ZM49.3899 31.9524C49.0753 31.9797 48.8427 32.2534 48.87 32.568C48.8974 32.8827 49.171 33.1153 49.4857 33.0879C49.8004 33.0605 50.0329 32.7869 50.0056 32.4723C49.9782 32.1576 49.7046 31.925 49.3899 31.9524ZM12.1637 21.0622C12.1911 21.3769 12.4647 21.6094 12.7794 21.5821C13.0941 21.5547 13.3266 21.2811 13.2993 20.9664C13.2719 20.6518 12.9983 20.4192 12.6836 20.4465C12.369 20.4602 12.1364 20.7475 12.1637 21.0622ZM17.2531 16.8621C17.5678 16.8347 17.8003 16.5611 17.773 16.2465C17.7456 15.9318 17.472 15.6992 17.1573 15.7266C16.8427 15.7539 16.6101 16.0276 16.6374 16.3422C16.6511 16.6569 16.9384 16.8895 17.2531 16.8621ZM23.0128 13.9891C23.3275 13.9617 23.5601 13.6881 23.5327 13.3734C23.5053 13.0588 23.2317 12.8262 22.9171 12.8536C22.6024 12.8809 22.3698 13.1545 22.3972 13.4692C22.4245 13.7839 22.6982 14.0164 23.0128 13.9891ZM12.451 17.6693C12.6152 17.6556 12.7383 17.5051 12.7247 17.3409C12.711 17.1768 12.5605 17.0536 12.3963 17.0673C12.2321 17.081 12.109 17.2315 12.1227 17.3957C12.1364 17.5598 12.2869 17.683 12.451 17.6693ZM8.71611 37.0554C8.88028 37.0417 9.00341 36.8912 8.98973 36.7271C8.97605 36.5629 8.82556 36.4398 8.66138 36.4535C8.49721 36.4671 8.37408 36.6176 8.38776 36.7818C8.40144 36.946 8.55193 37.0691 8.71611 37.0554ZM12.451 42.0216C12.6152 42.008 12.7383 41.8575 12.7247 41.6933C12.711 41.5291 12.5605 41.406 12.3963 41.4197C12.2321 41.4334 12.109 41.5839 12.1227 41.748C12.1364 41.9122 12.2869 42.0353 12.451 42.0216ZM18.3886 46.2628C18.5528 46.2491 18.6759 46.0986 18.6622 45.9344C18.6486 45.7703 18.4981 45.6471 18.3339 45.6608C18.1697 45.6745 18.0466 45.825 18.0603 45.9892C18.074 46.1533 18.2245 46.2765 18.3886 46.2628ZM25.9406 48.999C26.1047 48.9853 26.2279 48.8348 26.2142 48.6706C26.2005 48.5065 26.05 48.3833 25.8858 48.397C25.7217 48.4107 25.5985 48.5612 25.6122 48.7254C25.6259 48.8895 25.7764 49.0127 25.9406 48.999ZM33.903 48.999C34.0671 48.9853 34.1903 48.8348 34.1766 48.6706C34.1629 48.5065 34.0124 48.3833 33.8482 48.397C33.684 48.4107 33.5609 48.5612 33.5746 48.7254C33.5883 48.8895 33.7388 49.0127 33.903 48.999ZM41.4549 46.2765C41.6191 46.2628 41.7422 46.1123 41.7285 45.9481C41.7148 45.7839 41.5644 45.6608 41.4002 45.6745C41.236 45.6882 41.1129 45.8387 41.1266 46.0028C41.1402 46.167 41.2907 46.2901 41.4549 46.2765ZM47.5019 42.0764C47.6661 42.0627 47.7892 41.9122 47.7756 41.748C47.7619 41.5839 47.6114 41.4607 47.4472 41.4744C47.283 41.4881 47.1599 41.6386 47.1736 41.8027C47.1873 41.9669 47.3378 42.09 47.5019 42.0764ZM51.1274 37.0554C51.2916 37.0417 51.4147 36.8912 51.401 36.7271C51.3874 36.5629 51.2369 36.4398 51.0727 36.4535C50.9085 36.4671 50.7854 36.6176 50.7991 36.7818C50.8128 36.946 50.9632 37.0691 51.1274 37.0554ZM18.3886 13.4282C18.5528 13.4145 18.6759 13.264 18.6622 13.0998C18.6486 12.9356 18.4981 12.8125 18.3339 12.8262C18.1697 12.8399 18.0466 12.9904 18.0603 13.1545C18.074 13.3187 18.2245 13.4418 18.3886 13.4282ZM25.9406 10.6783C26.1047 10.6646 26.2279 10.5141 26.2142 10.3499C26.2005 10.1857 26.05 10.0626 25.8858 10.0763C25.7217 10.09 25.5985 10.2405 25.6122 10.4046C25.6259 10.5825 25.7764 10.7056 25.9406 10.6783ZM17.4036 28.409C18.0329 28.409 18.5254 27.9028 18.5254 27.2871C18.5254 26.6578 18.0192 26.1653 17.4036 26.1653C16.7743 26.1653 16.2817 26.6715 16.2817 27.2871C16.2681 27.9028 16.7743 28.409 17.4036 28.409ZM18.6349 24.2089C19.2642 24.2089 19.7567 23.7026 19.7567 23.087C19.7567 22.4577 19.2505 21.9651 18.6349 21.9651C18.0192 21.9651 17.513 22.4713 17.513 23.087C17.4994 23.7026 18.0055 24.2089 18.6349 24.2089ZM21.6174 20.857C22.2467 20.857 22.7392 20.3508 22.7392 19.7351C22.7392 19.1058 22.233 18.6133 21.6174 18.6133C20.988 18.6133 20.4955 19.1195 20.4955 19.7351C20.4955 20.3508 21.0017 20.857 21.6174 20.857ZM25.3933 18.5312C26.0226 18.5312 26.5152 18.025 26.5152 17.4093C26.5152 16.78 26.009 16.2875 25.3933 16.2875C24.764 16.2875 24.2715 16.7937 24.2715 17.4093C24.2715 18.025 24.7777 18.5312 25.3933 18.5312ZM29.8944 17.8608C30.5237 17.8608 31.0162 17.3546 31.0162 16.739C31.0162 16.1096 30.51 15.6171 29.8944 15.6171C29.2651 15.6171 28.7725 16.1233 28.7725 16.739C28.7725 17.3546 29.2787 17.8608 29.8944 17.8608ZM29.8944 43.5266C30.5237 43.5266 31.0162 43.0204 31.0162 42.4047C31.0162 41.7754 30.51 41.2829 29.8944 41.2829C29.2651 41.2829 28.7725 41.7891 28.7725 42.4047C28.7725 43.034 29.2787 43.5266 29.8944 43.5266ZM17.171 18.8459C16.6785 18.8459 16.2817 19.2426 16.2817 19.7351C16.2817 20.2276 16.6785 20.6244 17.171 20.6244C17.6635 20.6244 18.0603 20.2276 18.0603 19.7351C18.0603 19.2426 17.6635 18.8459 17.171 18.8459ZM14.3527 23.4837C13.8602 23.4837 13.4634 23.8805 13.4634 24.3731C13.4634 24.8656 13.8602 25.2623 14.3527 25.2623C14.8452 25.2623 15.242 24.8656 15.242 24.3731C15.242 23.8805 14.8452 23.4837 14.3527 23.4837ZM13.2719 28.6963C12.7794 28.6963 12.3826 29.093 12.3826 29.5856C12.3826 30.0781 12.7794 30.4748 13.2719 30.4748C13.7644 30.4748 14.1612 30.0781 14.1612 29.5856C14.1612 29.093 13.7644 28.6963 13.2719 28.6963ZM21.4805 15.3572C20.988 15.3572 20.5913 15.7539 20.5913 16.2465C20.5913 16.739 20.988 17.1357 21.4805 17.1357C21.9731 17.1357 22.3698 16.739 22.3698 16.2465C22.3698 15.7539 21.9731 15.3572 21.4805 15.3572ZM27.1035 13.4692C26.6109 13.4692 26.2142 13.866 26.2142 14.3585C26.2142 14.851 26.6109 15.2477 27.1035 15.2477C27.596 15.2477 27.9927 14.8373 27.9927 14.3448C27.9927 13.8523 27.596 13.4692 27.1035 13.4692ZM29.8944 11.8959C29.5797 11.8959 29.3198 12.1558 29.3198 12.4705C29.3198 12.7851 29.5797 13.0451 29.8944 13.0451C30.2091 13.0451 30.469 12.7851 30.469 12.4705C30.469 12.1558 30.2091 11.8959 29.8944 11.8959ZM47.1052 20.4329C46.7905 20.4055 46.5169 20.6381 46.4895 20.9527C46.4622 21.2674 46.6948 21.541 47.0094 21.5684C47.3241 21.5958 47.5977 21.3632 47.6251 21.0485C47.6661 20.7475 47.4335 20.4602 47.1052 20.4329ZM43.165 16.3422C43.1924 16.0276 42.9598 15.7539 42.6451 15.7266C42.3305 15.6992 42.0569 15.9318 42.0295 16.2465C42.0021 16.5611 42.2347 16.8347 42.5494 16.8621C42.864 16.8895 43.1377 16.6569 43.165 16.3422ZM37.4053 13.4692C37.4327 13.1545 37.2001 12.8672 36.8854 12.8399C36.5708 12.8125 36.2971 13.0451 36.2698 13.3598C36.2424 13.6744 36.475 13.948 36.7897 13.9754C37.0906 14.0164 37.3779 13.7839 37.4053 13.4692ZM47.6661 17.3957C47.6798 17.2315 47.5567 17.081 47.3925 17.0673C47.2283 17.0536 47.0778 17.1768 47.0641 17.3409C47.0505 17.5051 47.1736 17.6556 47.3378 17.6693C47.5156 17.683 47.6524 17.5598 47.6661 17.3957ZM41.7285 13.1545C41.7422 12.9904 41.6191 12.8399 41.4549 12.8262C41.2907 12.8125 41.1402 12.9356 41.1266 13.0998C41.1129 13.264 41.236 13.4145 41.4002 13.4282C41.578 13.4418 41.7148 13.3187 41.7285 13.1545ZM34.1766 10.4046C34.1903 10.2405 34.0671 10.09 33.903 10.0763C33.7388 10.0626 33.5883 10.1857 33.5746 10.3499C33.5609 10.5141 33.684 10.6646 33.8482 10.6783C34.0124 10.6919 34.1629 10.5825 34.1766 10.4046ZM42.2894 23.0733C42.2894 22.444 41.7832 21.9515 41.1676 21.9515C40.5383 21.9515 40.0458 22.4577 40.0458 23.0733C40.0458 23.7026 40.552 24.1952 41.1676 24.1952C41.7832 24.2089 42.2894 23.7026 42.2894 23.0733ZM39.307 19.7351C39.307 19.1058 38.8008 18.6133 38.1851 18.6133C37.5558 18.6133 37.0633 19.1195 37.0633 19.7351C37.0633 20.3645 37.5695 20.857 38.1851 20.857C38.8008 20.857 39.307 20.3508 39.307 19.7351ZM35.531 17.4093C35.531 16.78 35.0248 16.2875 34.4092 16.2875C33.7798 16.2875 33.2873 16.7937 33.2873 17.4093C33.2873 18.0387 33.7935 18.5312 34.4092 18.5312C35.0248 18.5312 35.531 18.025 35.531 17.4093ZM41.7285 19.7351C41.7285 20.2276 42.1253 20.6244 42.6178 20.6244C43.1103 20.6244 43.5071 20.2276 43.5071 19.7351C43.5071 19.2426 43.1103 18.8459 42.6178 18.8459C42.1253 18.8459 41.7285 19.2426 41.7285 19.7351ZM41.7969 39.3538C41.7969 39.8464 42.1937 40.2431 42.6862 40.2431C43.1787 40.2431 43.5755 39.8464 43.5755 39.3538C43.5755 38.8613 43.1787 38.4646 42.6862 38.4646C42.1937 38.4646 41.7969 38.8613 41.7969 39.3538ZM37.4327 42.8562C37.4327 43.3487 37.8294 43.7455 38.3219 43.7455C38.8145 43.7455 39.2112 43.3487 39.2112 42.8562C39.2112 42.3637 38.8008 41.9806 38.3083 41.9806C37.8157 41.9806 37.4327 42.3774 37.4327 42.8562ZM31.9329 44.5937C31.9329 45.0862 32.3296 45.483 32.8221 45.483C33.3147 45.483 33.7114 45.0862 33.7114 44.5937C33.7114 44.1012 33.3147 43.7044 32.8221 43.7044C32.3296 43.7044 31.9329 44.1012 31.9329 44.5937ZM26.2279 44.6621C26.2279 45.1546 26.6246 45.5514 27.1171 45.5514C27.6097 45.5514 28.0064 45.1546 28.0064 44.6621C28.0064 44.1696 27.6097 43.7728 27.1171 43.7728C26.6246 43.7728 26.2279 44.1696 26.2279 44.6621ZM20.6597 42.9793C20.6597 43.4718 21.0564 43.8686 21.5489 43.8686C22.0415 43.8686 22.4382 43.4718 22.4382 42.9793C22.4382 42.4868 22.0415 42.09 21.5489 42.09C21.0564 42.09 20.6597 42.4868 20.6597 42.9793ZM16.2954 39.3128C16.2954 39.8053 16.6922 40.2021 17.1847 40.2021C17.6772 40.2021 18.074 39.8053 18.074 39.3128C18.074 38.8203 17.6772 38.4235 17.1847 38.4235C16.6922 38.4235 16.2954 38.834 16.2954 39.3128ZM37.419 16.2328C37.419 16.7253 37.8157 17.122 38.3083 17.122C38.8008 17.122 39.1975 16.7253 39.1975 16.2328C39.1975 15.7403 38.8008 15.3572 38.3083 15.3572C37.8157 15.3572 37.419 15.7539 37.419 16.2328ZM31.8097 14.3448C31.8097 14.8373 32.2065 15.2341 32.699 15.2341C33.1915 15.2341 33.5883 14.8373 33.5883 14.3448C33.5883 13.8523 33.1915 13.4555 32.699 13.4555C32.2065 13.4555 31.8097 13.866 31.8097 14.3448ZM51.1274 24.1679C51.2916 24.1542 51.4147 24.0037 51.401 23.8395C51.3874 23.6753 51.2369 23.5521 51.0727 23.5658C50.9085 23.5795 50.7854 23.73 50.7991 23.8942C50.8128 24.0584 50.9632 24.1815 51.1274 24.1679Z" fill="#23397F"/>
<path d="M15.1599 32.0402C15.1599 31.4246 15.6524 30.9184 16.2817 30.9184C16.8974 30.9184 17.4036 31.4246 17.4036 32.0402C17.4036 32.6559 16.9111 33.1621 16.2817 33.1621C15.6661 33.1621 15.1599 32.6559 15.1599 32.0402Z" fill="#23397F"/>
<path d="M43.4113 25.919C44.0269 25.919 44.5331 26.4115 44.5331 27.0409C44.5331 27.6702 44.0269 28.1765 43.4113 28.1628C42.7956 28.1628 42.2894 27.6702 42.2894 27.0409C42.2894 26.4252 42.782 25.919 43.4113 25.919Z" fill="#23397F"/>
<path d="M43.9404 30.4748C44.556 30.4748 45.0622 30.9673 45.0622 31.5967C45.0622 32.226 44.556 32.7323 43.9404 32.7186C43.3247 32.7186 42.8186 32.226 42.8186 31.5967C42.8186 30.981 43.3111 30.4748 43.9404 30.4748Z" fill="#23397F"/>
<path d="M14.1612 37.1375C13.6687 37.1375 13.2719 36.7408 13.2719 36.2482C13.2719 35.7694 13.6687 35.359 14.1612 35.359C14.6537 35.359 15.0504 35.7557 15.0504 36.2482C15.0504 36.7408 14.6537 37.1375 14.1612 37.1375Z" fill="#23397F"/>
<path d="M11.165 34.0513C10.6725 34.0513 10.2757 33.6546 10.2757 33.1621C10.2757 32.6832 10.6725 32.2728 11.165 32.2728C11.6575 32.2728 12.0543 32.6695 12.0543 33.1621C12.0543 33.6546 11.6575 34.0513 11.165 34.0513Z" fill="#23397F"/>
<path d="M45.636 36.8912C45.1435 36.8912 44.7467 36.4945 44.7467 36.002C44.7467 35.5231 45.1435 35.1127 45.636 35.1127C46.1285 35.1127 46.5253 35.5095 46.5253 36.002C46.5253 36.4945 46.1285 36.8912 45.636 36.8912Z" fill="#23397F"/>
<path d="M46.1201 25.0571C45.6276 25.0571 45.2309 24.6604 45.2309 24.1679C45.2309 23.689 45.6276 23.2786 46.1201 23.2786C46.6127 23.2786 47.0094 23.6753 47.0094 24.1679C47.0094 24.6604 46.6127 25.0571 46.1201 25.0571Z" fill="#23397F"/>
<path d="M48.0629 29.2983C47.5703 29.2983 47.1736 28.9015 47.1736 28.409C47.1736 27.9301 47.5703 27.5197 48.0629 27.5197C48.5554 27.5197 48.9521 27.9165 48.9521 28.409C48.9521 28.9015 48.5554 29.2983 48.0629 29.2983Z" fill="#23397F"/>
</svg>
