<svg width="60" height="60" viewBox="0 0 60 60" fill="none" xmlns="http://www.w3.org/2000/svg">
<rect width="60" height="60" fill="#23397F"/>
<path d="M21.1248 34.4149H23.7516L29.6618 23.6342H27.0351L21.1248 34.4149ZM30.0723 23.6205L35.9825 34.4012H38.6092L32.699 23.6205H30.0723ZM18.6349 34.8801C18.0055 34.8801 17.513 35.3863 17.513 36.0019C17.513 36.6176 18.0192 37.1238 18.6349 37.1238C19.2642 37.1238 19.7567 36.6176 19.7567 36.0019C19.7567 35.3863 19.2505 34.8801 18.6349 34.8801ZM21.6174 38.2319C20.988 38.2319 20.4955 38.7381 20.4955 39.3538C20.4955 39.9831 21.0017 40.4756 21.6174 40.4756C22.2467 40.4756 22.7392 39.9694 22.7392 39.3538C22.7529 38.7244 22.2467 38.2319 21.6174 38.2319ZM42.2758 36.0156C42.2758 35.3863 41.7696 34.8937 41.1539 34.8937C40.5246 34.8937 40.0321 35.3999 40.0321 36.0156C40.0321 36.6449 40.5383 37.1374 41.1539 37.1374C41.7696 37.1374 42.2758 36.6312 42.2758 36.0156ZM38.1714 38.314C37.5421 38.314 37.0496 38.8202 37.0496 39.4359C37.0496 40.0652 37.5558 40.5577 38.1714 40.5577C38.8008 40.5577 39.2933 40.0515 39.2933 39.4359C39.307 38.8202 38.8008 38.314 38.1714 38.314ZM34.3134 40.5577C33.6841 40.5577 33.1915 41.0639 33.1915 41.6796C33.1915 42.3089 33.6977 42.8014 34.3134 42.8014C34.9427 42.8014 35.4352 42.2952 35.4352 41.6796C35.4352 41.0639 34.929 40.5577 34.3134 40.5577ZM26.5289 41.6796C26.5289 41.0502 26.0226 40.5577 25.407 40.5577C24.7777 40.5577 24.2852 41.0639 24.2852 41.6796C24.2852 42.3089 24.7914 42.8014 25.407 42.8014C26.0226 42.8151 26.5289 42.3089 26.5289 41.6796ZM10.18 26.5209C9.86531 26.5483 9.63273 26.8219 9.6601 27.1366C9.68746 27.4512 9.96108 27.6838 10.2757 27.6565C10.5904 27.6291 10.823 27.3555 10.7956 27.0408C10.7819 26.7398 10.4946 26.4936 10.18 26.5209ZM12.6836 37.5068C12.369 37.5342 12.1364 37.8078 12.1637 38.1225C12.1911 38.4371 12.4647 38.6697 12.7794 38.6424C13.0941 38.615 13.3266 38.3414 13.2993 38.0267C13.2719 37.712 12.9983 37.4795 12.6836 37.5068ZM17.1436 42.2405C16.829 42.2678 16.5964 42.5415 16.6238 42.8561C16.6511 43.1708 16.9247 43.4034 17.2394 43.376C17.5541 43.3486 17.7867 43.075 17.7593 42.7604C17.7456 42.4457 17.472 42.2131 17.1436 42.2405ZM23.177 45.2777C22.8623 45.305 22.6297 45.5787 22.6571 45.8933C22.6845 46.208 22.9581 46.4406 23.2728 46.4132C23.5874 46.3858 23.82 46.1122 23.7926 45.7976C23.7653 45.4829 23.4917 45.2503 23.177 45.2777ZM29.8534 46.0438C29.5387 46.0712 29.3061 46.3448 29.3335 46.6595C29.3608 46.9741 29.6345 47.2067 29.9491 47.1793C30.2638 47.152 30.4964 46.8784 30.469 46.5637C30.4416 46.249 30.168 46.0165 29.8534 46.0438ZM36.776 45.0998C36.4613 45.1272 36.2287 45.4008 36.2561 45.7155C36.2835 46.0301 36.5571 46.2627 36.8717 46.2354C37.1864 46.208 37.419 45.9344 37.3916 45.6197C37.3779 45.305 37.0906 45.0725 36.776 45.0998ZM42.6588 42.2405C42.3442 42.2678 42.1116 42.5415 42.139 42.8561C42.1663 43.1708 42.4399 43.4034 42.7546 43.376C43.0693 43.3486 43.3018 43.075 43.2745 42.7604C43.2471 42.4457 42.9735 42.2131 42.6588 42.2405ZM47.1189 37.5068C46.8042 37.5342 46.5716 37.8078 46.599 38.1225C46.6263 38.4371 46.9 38.6697 47.2146 38.6424C47.5293 38.615 47.7619 38.3414 47.7345 38.0267C47.7208 37.7257 47.4335 37.4795 47.1189 37.5068ZM49.3899 31.9523C49.0753 31.9797 48.8427 32.2533 48.87 32.568C48.8974 32.8826 49.171 33.1152 49.4857 33.0878C49.8004 33.0605 50.0329 32.7869 50.0056 32.4722C49.9782 32.1575 49.7046 31.925 49.3899 31.9523ZM12.1637 21.0621C12.1911 21.3768 12.4647 21.6094 12.7794 21.582C13.0941 21.5547 13.3266 21.281 13.2993 20.9664C13.2719 20.6517 12.9983 20.4191 12.6836 20.4465C12.369 20.4602 12.1364 20.7475 12.1637 21.0621ZM17.2531 16.862C17.5678 16.8347 17.8003 16.5611 17.773 16.2464C17.7456 15.9317 17.472 15.6992 17.1573 15.7265C16.8427 15.7539 16.6101 16.0275 16.6374 16.3422C16.6511 16.6568 16.9384 16.8894 17.2531 16.862ZM23.0128 13.989C23.3275 13.9617 23.5601 13.688 23.5327 13.3734C23.5053 13.0587 23.2317 12.8261 22.9171 12.8535C22.6024 12.8809 22.3698 13.1545 22.3972 13.4691C22.4245 13.7838 22.6982 14.0164 23.0128 13.989ZM12.451 17.6692C12.6152 17.6555 12.7383 17.5051 12.7247 17.3409C12.711 17.1767 12.5605 17.0536 12.3963 17.0673C12.2321 17.0809 12.109 17.2314 12.1227 17.3956C12.1364 17.5598 12.2869 17.6829 12.451 17.6692ZM8.71611 37.0554C8.88028 37.0417 9.00341 36.8912 8.98973 36.727C8.97605 36.5628 8.82556 36.4397 8.66138 36.4534C8.49721 36.4671 8.37408 36.6176 8.38776 36.7817C8.40144 36.9459 8.55193 37.069 8.71611 37.0554ZM12.451 42.0216C12.6152 42.0079 12.7383 41.8574 12.7247 41.6932C12.711 41.5291 12.5605 41.4059 12.3963 41.4196C12.2321 41.4333 12.109 41.5838 12.1227 41.748C12.1364 41.9121 12.2869 42.0353 12.451 42.0216ZM18.3886 46.2627C18.5528 46.249 18.6759 46.0985 18.6622 45.9344C18.6486 45.7702 18.4981 45.6471 18.3339 45.6607C18.1697 45.6744 18.0466 45.8249 18.0603 45.9891C18.074 46.1533 18.2245 46.2764 18.3886 46.2627ZM25.9406 48.9989C26.1047 48.9852 26.2279 48.8348 26.2142 48.6706C26.2005 48.5064 26.05 48.3833 25.8858 48.397C25.7217 48.4106 25.5985 48.5611 25.6122 48.7253C25.6259 48.8895 25.7764 49.0126 25.9406 48.9989ZM33.903 48.9989C34.0671 48.9852 34.1903 48.8348 34.1766 48.6706C34.1629 48.5064 34.0124 48.3833 33.8482 48.397C33.684 48.4106 33.5609 48.5611 33.5746 48.7253C33.5883 48.8895 33.7388 49.0126 33.903 48.9989ZM41.4549 46.2764C41.6191 46.2627 41.7422 46.1122 41.7285 45.9481C41.7148 45.7839 41.5644 45.6607 41.4002 45.6744C41.236 45.6881 41.1129 45.8386 41.1266 46.0028C41.1402 46.1669 41.2907 46.2901 41.4549 46.2764ZM47.5019 42.0763C47.6661 42.0626 47.7892 41.9121 47.7756 41.748C47.7619 41.5838 47.6114 41.4607 47.4472 41.4743C47.283 41.488 47.1599 41.6385 47.1736 41.8027C47.1873 41.9669 47.3378 42.09 47.5019 42.0763ZM51.1274 37.0554C51.2916 37.0417 51.4147 36.8912 51.401 36.727C51.3874 36.5628 51.2369 36.4397 51.0727 36.4534C50.9085 36.4671 50.7854 36.6176 50.7991 36.7817C50.8128 36.9459 50.9632 37.069 51.1274 37.0554ZM18.3886 13.4281C18.5528 13.4144 18.6759 13.2639 18.6622 13.0998C18.6486 12.9356 18.4981 12.8124 18.3339 12.8261C18.1697 12.8398 18.0466 12.9903 18.0603 13.1545C18.074 13.3186 18.2245 13.4418 18.3886 13.4281ZM25.9406 10.6782C26.1047 10.6645 26.2279 10.514 26.2142 10.3499C26.2005 10.1857 26.05 10.0626 25.8858 10.0762C25.7217 10.0899 25.5985 10.2404 25.6122 10.4046C25.6259 10.5824 25.7764 10.7056 25.9406 10.6782ZM17.4036 28.4089C18.0329 28.4089 18.5254 27.9027 18.5254 27.2871C18.5254 26.6577 18.0192 26.1652 17.4036 26.1652C16.7743 26.1652 16.2817 26.6714 16.2817 27.2871C16.2681 27.9027 16.7743 28.4089 17.4036 28.4089ZM18.6349 24.2088C19.2642 24.2088 19.7567 23.7026 19.7567 23.0869C19.7567 22.4576 19.2505 21.9651 18.6349 21.9651C18.0192 21.9651 17.513 22.4713 17.513 23.0869C17.4994 23.7026 18.0055 24.2088 18.6349 24.2088ZM21.6174 20.8569C22.2467 20.8569 22.7392 20.3507 22.7392 19.7351C22.7392 19.1057 22.233 18.6132 21.6174 18.6132C20.988 18.6132 20.4955 19.1194 20.4955 19.7351C20.4955 20.3507 21.0017 20.8569 21.6174 20.8569ZM25.3933 18.5311C26.0226 18.5311 26.5152 18.0249 26.5152 17.4093C26.5152 16.78 26.009 16.2874 25.3933 16.2874C24.764 16.2874 24.2715 16.7936 24.2715 17.4093C24.2715 18.0249 24.7777 18.5311 25.3933 18.5311ZM29.8944 17.8608C30.5237 17.8608 31.0162 17.3546 31.0162 16.7389C31.0162 16.1096 30.51 15.6171 29.8944 15.6171C29.2651 15.6171 28.7725 16.1233 28.7725 16.7389C28.7725 17.3546 29.2787 17.8608 29.8944 17.8608ZM29.8944 43.5265C30.5237 43.5265 31.0162 43.0203 31.0162 42.4047C31.0162 41.7753 30.51 41.2828 29.8944 41.2828C29.2651 41.2828 28.7725 41.789 28.7725 42.4047C28.7725 43.034 29.2787 43.5265 29.8944 43.5265ZM17.171 18.8458C16.6785 18.8458 16.2817 19.2426 16.2817 19.7351C16.2817 20.2276 16.6785 20.6243 17.171 20.6243C17.6635 20.6243 18.0603 20.2276 18.0603 19.7351C18.0603 19.2426 17.6635 18.8458 17.171 18.8458ZM14.3527 23.4837C13.8602 23.4837 13.4634 23.8805 13.4634 24.373C13.4634 24.8655 13.8602 25.2623 14.3527 25.2623C14.8452 25.2623 15.242 24.8655 15.242 24.373C15.242 23.8805 14.8452 23.4837 14.3527 23.4837ZM13.2719 28.6962C12.7794 28.6962 12.3826 29.093 12.3826 29.5855C12.3826 30.078 12.7794 30.4748 13.2719 30.4748C13.7644 30.4748 14.1612 30.078 14.1612 29.5855C14.1612 29.093 13.7644 28.6962 13.2719 28.6962ZM21.4805 15.3571C20.988 15.3571 20.5913 15.7539 20.5913 16.2464C20.5913 16.7389 20.988 17.1357 21.4805 17.1357C21.9731 17.1357 22.3698 16.7389 22.3698 16.2464C22.3698 15.7539 21.9731 15.3571 21.4805 15.3571ZM27.1035 13.4691C26.6109 13.4691 26.2142 13.8659 26.2142 14.3584C26.2142 14.8509 26.6109 15.2477 27.1035 15.2477C27.596 15.2477 27.9927 14.8372 27.9927 14.3447C27.9927 13.8522 27.596 13.4691 27.1035 13.4691ZM29.8944 11.8958C29.5797 11.8958 29.3198 12.1558 29.3198 12.4704C29.3198 12.7851 29.5797 13.045 29.8944 13.045C30.2091 13.045 30.469 12.7851 30.469 12.4704C30.469 12.1558 30.2091 11.8958 29.8944 11.8958ZM47.1052 20.4328C46.7905 20.4054 46.5169 20.638 46.4895 20.9527C46.4622 21.2673 46.6948 21.541 47.0094 21.5683C47.3241 21.5957 47.5977 21.3631 47.6251 21.0485C47.6661 20.7475 47.4335 20.4602 47.1052 20.4328ZM43.165 16.3422C43.1924 16.0275 42.9598 15.7539 42.6451 15.7265C42.3305 15.6992 42.0569 15.9317 42.0295 16.2464C42.0021 16.5611 42.2347 16.8347 42.5494 16.862C42.864 16.8894 43.1377 16.6568 43.165 16.3422ZM37.4053 13.4691C37.4327 13.1545 37.2001 12.8672 36.8854 12.8398C36.5708 12.8124 36.2971 13.045 36.2698 13.3597C36.2424 13.6744 36.475 13.948 36.7897 13.9753C37.0906 14.0164 37.3779 13.7838 37.4053 13.4691ZM47.6661 17.3956C47.6798 17.2314 47.5567 17.0809 47.3925 17.0673C47.2283 17.0536 47.0778 17.1767 47.0641 17.3409C47.0505 17.5051 47.1736 17.6555 47.3378 17.6692C47.5156 17.6829 47.6524 17.5598 47.6661 17.3956ZM41.7285 13.1545C41.7422 12.9903 41.6191 12.8398 41.4549 12.8261C41.2907 12.8124 41.1402 12.9356 41.1266 13.0998C41.1129 13.2639 41.236 13.4144 41.4002 13.4281C41.578 13.4418 41.7148 13.3186 41.7285 13.1545ZM34.1766 10.4046C34.1903 10.2404 34.0671 10.0899 33.903 10.0762C33.7388 10.0626 33.5883 10.1857 33.5746 10.3499C33.5609 10.514 33.684 10.6645 33.8482 10.6782C34.0124 10.6919 34.1629 10.5824 34.1766 10.4046ZM42.2894 23.0732C42.2894 22.4439 41.7832 21.9514 41.1676 21.9514C40.5383 21.9514 40.0458 22.4576 40.0458 23.0732C40.0458 23.7026 40.552 24.1952 41.1676 24.1952C41.7832 24.2088 42.2894 23.7026 42.2894 23.0732ZM39.307 19.7351C39.307 19.1057 38.8008 18.6132 38.1851 18.6132C37.5558 18.6132 37.0633 19.1194 37.0633 19.7351C37.0633 20.3644 37.5695 20.8569 38.1851 20.8569C38.8008 20.8569 39.307 20.3507 39.307 19.7351ZM35.531 17.4093C35.531 16.78 35.0248 16.2874 34.4092 16.2874C33.7798 16.2874 33.2873 16.7936 33.2873 17.4093C33.2873 18.0386 33.7935 18.5311 34.4092 18.5311C35.0248 18.5311 35.531 18.0249 35.531 17.4093ZM41.7285 19.7351C41.7285 20.2276 42.1253 20.6243 42.6178 20.6243C43.1103 20.6243 43.5071 20.2276 43.5071 19.7351C43.5071 19.2426 43.1103 18.8458 42.6178 18.8458C42.1253 18.8458 41.7285 19.2426 41.7285 19.7351ZM41.7969 39.3538C41.7969 39.8463 42.1937 40.243 42.6862 40.243C43.1787 40.243 43.5755 39.8463 43.5755 39.3538C43.5755 38.8613 43.1787 38.4645 42.6862 38.4645C42.1937 38.4645 41.7969 38.8613 41.7969 39.3538ZM37.4327 42.8561C37.4327 43.3486 37.8294 43.7454 38.3219 43.7454C38.8145 43.7454 39.2112 43.3486 39.2112 42.8561C39.2112 42.3636 38.8008 41.9805 38.3083 41.9805C37.8157 41.9805 37.4327 42.3773 37.4327 42.8561ZM31.9329 44.5936C31.9329 45.0861 32.3296 45.4829 32.8221 45.4829C33.3147 45.4829 33.7114 45.0861 33.7114 44.5936C33.7114 44.1011 33.3147 43.7044 32.8221 43.7044C32.3296 43.7044 31.9329 44.1011 31.9329 44.5936ZM26.2279 44.662C26.2279 45.1545 26.6246 45.5513 27.1171 45.5513C27.6097 45.5513 28.0064 45.1545 28.0064 44.662C28.0064 44.1695 27.6097 43.7728 27.1171 43.7728C26.6246 43.7728 26.2279 44.1695 26.2279 44.662ZM20.6597 42.9793C20.6597 43.4718 21.0564 43.8685 21.5489 43.8685C22.0415 43.8685 22.4382 43.4718 22.4382 42.9793C22.4382 42.4867 22.0415 42.09 21.5489 42.09C21.0564 42.09 20.6597 42.4867 20.6597 42.9793ZM16.2954 39.3127C16.2954 39.8053 16.6922 40.202 17.1847 40.202C17.6772 40.202 18.074 39.8053 18.074 39.3127C18.074 38.8202 17.6772 38.4235 17.1847 38.4235C16.6922 38.4235 16.2954 38.8339 16.2954 39.3127ZM37.419 16.2327C37.419 16.7252 37.8157 17.122 38.3083 17.122C38.8008 17.122 39.1975 16.7252 39.1975 16.2327C39.1975 15.7402 38.8008 15.3571 38.3083 15.3571C37.8157 15.3571 37.419 15.7539 37.419 16.2327ZM31.8097 14.3447C31.8097 14.8372 32.2065 15.234 32.699 15.234C33.1915 15.234 33.5883 14.8372 33.5883 14.3447C33.5883 13.8522 33.1915 13.4555 32.699 13.4555C32.2065 13.4555 31.8097 13.8659 31.8097 14.3447ZM51.1274 24.1678C51.2916 24.1541 51.4147 24.0036 51.401 23.8394C51.3874 23.6752 51.2369 23.5521 51.0727 23.5658C50.9085 23.5794 50.7854 23.7299 50.7991 23.8942C50.8128 24.0583 50.9632 24.1815 51.1274 24.1678Z" fill="white"/>
<path d="M15.1599 32.0401C15.1599 31.4245 15.6524 30.9183 16.2817 30.9183C16.8974 30.9183 17.4036 31.4245 17.4036 32.0401C17.4036 32.6558 16.9111 33.162 16.2817 33.162C15.6661 33.162 15.1599 32.6558 15.1599 32.0401Z" fill="white"/>
<path d="M43.4113 25.919C44.0269 25.919 44.5331 26.4115 44.5331 27.0408C44.5331 27.6701 44.0269 28.1764 43.4113 28.1627C42.7956 28.1627 42.2894 27.6701 42.2894 27.0408C42.2894 26.4252 42.782 25.919 43.4113 25.919Z" fill="white"/>
<path d="M43.9404 30.4748C44.556 30.4748 45.0622 30.9673 45.0622 31.5966C45.0622 32.2259 44.556 32.7322 43.9404 32.7185C43.3247 32.7185 42.8186 32.2259 42.8186 31.5966C42.8186 30.981 43.3111 30.4748 43.9404 30.4748Z" fill="white"/>
<path d="M14.1612 37.1374C13.6687 37.1374 13.2719 36.7407 13.2719 36.2482C13.2719 35.7693 13.6687 35.3589 14.1612 35.3589C14.6537 35.3589 15.0504 35.7557 15.0504 36.2482C15.0504 36.7407 14.6537 37.1374 14.1612 37.1374Z" fill="white"/>
<path d="M11.165 34.0513C10.6725 34.0513 10.2757 33.6545 10.2757 33.162C10.2757 32.6832 10.6725 32.2727 11.165 32.2727C11.6575 32.2727 12.0543 32.6695 12.0543 33.162C12.0543 33.6545 11.6575 34.0513 11.165 34.0513Z" fill="white"/>
<path d="M45.636 36.8912C45.1435 36.8912 44.7467 36.4944 44.7467 36.0019C44.7467 35.5231 45.1435 35.1126 45.636 35.1126C46.1285 35.1126 46.5253 35.5094 46.5253 36.0019C46.5253 36.4944 46.1285 36.8912 45.636 36.8912Z" fill="white"/>
<path d="M46.1201 25.0571C45.6276 25.0571 45.2309 24.6603 45.2309 24.1678C45.2309 23.689 45.6276 23.2785 46.1201 23.2785C46.6127 23.2785 47.0094 23.6753 47.0094 24.1678C47.0094 24.6603 46.6127 25.0571 46.1201 25.0571Z" fill="white"/>
<path d="M48.0629 29.2982C47.5703 29.2982 47.1736 28.9014 47.1736 28.4089C47.1736 27.9301 47.5703 27.5197 48.0629 27.5197C48.5554 27.5197 48.9521 27.9164 48.9521 28.4089C48.9521 28.9014 48.5554 29.2982 48.0629 29.2982Z" fill="white"/>
</svg>
