<svg width="130" height="60" viewBox="0 0 130 60" fill="none" xmlns="http://www.w3.org/2000/svg">
<rect width="130" height="60" fill="white"/>
<path fill-rule="evenodd" clip-rule="evenodd" d="M54.489 28.3422V27.2164C54.489 26.8118 54.3404 26.669 53.9416 26.669H50.4925C50.088 26.669 49.9452 26.8178 49.9452 27.2164V28.3422H51.1752V28.0359C51.1729 28.0124 51.1758 27.9888 51.1837 27.9666C51.1917 27.9445 51.2044 27.9243 51.2211 27.9077C51.2377 27.891 51.2578 27.8783 51.28 27.8704C51.3022 27.8624 51.3258 27.8595 51.3492 27.8618H51.5084V32.3491H52.9289V27.8589H53.0865C53.1101 27.8563 53.1337 27.8591 53.1562 27.8669C53.1786 27.8747 53.1987 27.8874 53.2158 27.9041C53.2324 27.9207 53.2452 27.9409 53.2533 27.9632C53.2615 27.9855 53.2642 28.0093 53.2618 28.0329V28.3422H54.489ZM40.9604 26.669L39.2054 32.3491H39.9163C40.3297 32.3491 40.4963 32.2301 40.6123 31.8895L41.7174 28.1206H41.7338L42.2722 30.0006H41.762L40.8697 31.1518H42.592L42.8493 31.882C42.9653 32.2226 43.1303 32.3416 43.5453 32.3416H44.2354L42.4804 26.669H40.9604ZM57.3743 26.669H55.8544L54.1008 32.3491H54.8057C55.2192 32.3491 55.3856 32.2301 55.5018 31.8895L56.6113 28.1281H56.6275L57.166 30.008H56.6515L55.7592 31.1592H57.4827L57.7402 31.8895C57.8563 32.2301 58.0212 32.3491 58.4347 32.3491H59.1265L57.3743 26.669ZM37.1157 27.8589H38.1196C38.1436 27.856 38.1678 27.8586 38.1906 27.8665C38.2134 27.8744 38.2341 27.8873 38.2511 27.9044C38.2682 27.9214 38.2811 27.9421 38.289 27.9649C38.2969 27.9876 38.2995 28.0119 38.2966 28.0359V28.3452H39.5653V27.2476C39.5653 26.843 39.3913 26.669 38.9867 26.669H35.6953V32.3491H37.1157V31.1592H37.6095L38.5346 29.9693H37.1157V27.8589ZM47.326 31.128C46.4917 31.128 45.8016 30.3739 45.8016 29.4458C45.8016 28.4151 46.4679 27.8827 47.2889 27.8827C47.6548 27.8827 48.1619 28.0091 48.1619 28.3288V28.3393H49.4306V27.8931C49.4306 26.8296 47.9314 26.5679 47.2576 26.5679C45.5681 26.5679 44.3217 27.8128 44.3217 29.4399C44.3217 31.1458 45.5115 32.4309 47.2963 32.4309C47.7388 32.431 48.1767 32.341 48.5832 32.1663C48.9898 31.9917 49.3566 31.736 49.6611 31.415L48.9398 30.3992C48.7308 30.6201 48.4803 30.7977 48.2027 30.9217C47.925 31.0458 47.6256 31.1138 47.3216 31.122" fill="#0A6D99"/>
<path fill-rule="evenodd" clip-rule="evenodd" d="M63.1463 26.6707H60.9258V32.3403H61.4956V29.8H62.9648V29.3003H61.4956V27.1704H62.9323C62.9563 27.1673 62.981 27.1697 63.0043 27.1776C63.0271 27.1854 63.048 27.1984 63.0654 27.2157C63.0829 27.233 63.0956 27.2539 63.1038 27.277C63.1115 27.3001 63.1138 27.3247 63.1107 27.3489V27.7267H63.6341V27.163C63.6341 26.8164 63.4975 26.6707 63.151 26.6707H63.1463ZM86.8316 31.903C85.5421 31.903 84.5828 30.8143 84.5828 29.4594C84.5828 28.1045 85.5499 27.105 86.8138 27.105C87.4685 27.105 88.3875 27.395 88.3875 27.9275V28.2413H88.9186V27.7743C88.9186 26.9191 87.6051 26.5725 86.7976 26.5725C85.2018 26.5725 83.9998 27.8219 83.9998 29.4594C83.9998 31.0969 85.1689 32.434 86.8258 32.434C87.2335 32.4368 87.6376 32.3568 88.0132 32.1988C88.3891 32.0408 88.729 31.8081 89.0123 31.5149L88.6895 31.1029C88.4491 31.3539 88.161 31.5542 87.842 31.6916C87.5227 31.8291 87.1793 31.901 86.8316 31.903Z" fill="#EE7B36"/>
<path d="M64.9922 26.6707H65.5334V32.3403H64.9922V26.6707ZM94.3102 26.6707H94.8514V32.3403H94.3102V26.6707Z" fill="#EE7B36"/>
<path fill-rule="evenodd" clip-rule="evenodd" d="M70.9442 27.163V31.4123C70.8772 31.2962 67.6141 26.6707 67.6141 26.6707H67.0977V32.3403H67.1724C67.5188 32.3403 67.6644 32.1916 67.6644 31.848V27.6211C67.7387 27.7475 70.9945 32.3403 70.9945 32.3403H71.4958V26.6707H71.4378C71.0913 26.6707 70.9453 26.8194 70.9453 27.163H70.9442ZM82.2789 27.163V31.4123C82.2119 31.2962 78.9488 26.6707 78.9488 26.6707H78.4328V32.3403H78.5071C78.8536 32.3403 78.9991 32.1916 78.9991 31.848V27.6211C79.0735 27.7475 82.3292 32.3403 82.3292 32.3403H82.8306V26.6707H82.7725C82.426 26.6707 82.2804 26.8194 82.2804 27.163H82.2789ZM92.4623 26.6707H90.2433V32.3403H92.4623C92.8088 32.3403 92.9474 32.1916 92.9474 31.848V31.2843H92.422V31.6621C92.4255 31.6862 92.4236 31.7108 92.4159 31.7339C92.4081 31.757 92.3953 31.7781 92.3779 31.7953C92.3609 31.8126 92.34 31.8257 92.3171 31.8336C92.2939 31.8414 92.2695 31.8438 92.2451 31.8406H90.8069V29.8H92.2823V29.3003H90.8116V27.1704H92.2498C92.2738 27.1672 92.2986 27.1696 92.3214 27.1775C92.3446 27.1853 92.3655 27.1984 92.3826 27.2157C92.3996 27.233 92.4128 27.254 92.4201 27.2771C92.4279 27.3002 92.4302 27.3248 92.4267 27.3489V27.7267H92.9516V27.163C92.9516 26.8165 92.8134 26.6707 92.467 26.6707H92.4623ZM74.7458 26.6707L72.891 31.6621V31.6785L72.644 32.3403H72.7675C73.1705 32.3403 73.2836 32.26 73.4291 31.8718L75.0431 27.2835H75.0578L76.026 30.0424H74.3114L73.932 30.5332H76.1735L76.6655 31.8718C76.8146 32.26 76.9319 32.3403 77.3349 32.3403H77.451L75.3435 26.6707H74.7458ZM103.471 26.6707H102.876L101.022 31.6621V31.6785L100.76 32.3403H100.884C101.287 32.3403 101.4 32.26 101.544 31.8718L103.158 27.2835H103.174L104.141 30.0424H102.439L102.06 30.5332H104.301L104.792 31.8718C104.941 32.26 105.058 32.3403 105.461 32.3403H105.579L103.471 26.6707ZM99.6358 31.6547L98.8267 30.0424C98.7841 29.9507 98.7171 29.8724 98.6331 29.8164V29.8C99.1894 29.6795 99.7295 29.1634 99.7295 28.2844C99.7295 27.2998 99.0528 26.6707 98.1008 26.6707H96.2147V32.3403H96.7784V27.1704H98.0443C98.7152 27.1704 99.1345 27.5988 99.1345 28.2993C99.1345 28.9998 98.7152 29.4535 98.037 29.4535H97.1771L96.792 29.9532H97.7304C98.0443 29.9532 98.15 29.9934 98.3029 30.2923L99.124 31.912C99.3083 32.2838 99.4469 32.3403 99.9064 32.3403H99.9927L99.6757 31.7156C99.6617 31.6968 99.6497 31.6764 99.6401 31.6547H99.6358ZM115.336 26.6677H113.811L112.064 32.3403H112.775C113.188 32.3403 113.354 32.2214 113.471 31.8808L114.58 28.1193H114.592L115.131 30.0008H114.616L113.723 31.1505H115.446L115.703 31.8808C115.819 32.2214 115.984 32.3403 116.398 32.3403H117.089L115.336 26.6677Z" fill="#EE7B36"/>
<path d="M107.794 30.5037C107.794 30.5037 108.428 31.0823 109.132 31.0823C109.413 31.0823 109.727 30.9737 109.727 30.6361C109.727 29.9697 107.199 29.9935 107.199 28.2696C107.199 27.2359 108.067 26.5547 109.18 26.5547C110.387 26.5547 110.983 27.1883 110.983 27.1883L110.403 28.3098C110.403 28.3098 109.838 27.816 109.165 27.816C108.882 27.816 108.57 27.9409 108.57 28.2622C108.57 28.9672 111.099 28.8423 111.099 30.6123C111.099 31.5449 110.384 32.3525 109.123 32.3525C108.363 32.3651 107.628 32.0776 107.078 31.5523L107.794 30.5037Z" fill="#EE7B36"/>
<path fill-rule="evenodd" clip-rule="evenodd" d="M111.572 32.0234C111.572 32.087 111.553 32.1491 111.518 32.202C111.483 32.2548 111.433 32.296 111.374 32.3203C111.315 32.3446 111.251 32.3509 111.188 32.3385C111.126 32.3262 111.069 32.2956 111.024 32.2506C110.979 32.2057 110.948 32.1485 110.936 32.0861C110.924 32.0238 110.93 31.9592 110.954 31.9005C110.978 31.8418 111.02 31.7916 111.073 31.7563C111.125 31.721 111.188 31.7022 111.251 31.7022C111.293 31.7022 111.335 31.7105 111.374 31.7266C111.413 31.7428 111.448 31.7665 111.478 31.7963C111.508 31.8261 111.532 31.8615 111.548 31.9005C111.564 31.9395 111.572 31.9812 111.572 32.0234ZM117.996 32.022C117.996 32.0855 117.977 32.1476 117.942 32.2005C117.907 32.2533 117.857 32.2945 117.798 32.3188C117.739 32.3431 117.675 32.3495 117.612 32.3371C117.55 32.3247 117.493 32.2941 117.448 32.2492C117.403 32.2042 117.372 32.1469 117.36 32.0847C117.347 32.0223 117.354 31.9577 117.378 31.899C117.402 31.8403 117.444 31.7902 117.497 31.7548C117.55 31.7195 117.611 31.7007 117.675 31.7007C117.717 31.7007 117.759 31.709 117.798 31.7252C117.837 31.7413 117.872 31.7649 117.902 31.7948C117.932 31.8246 117.956 31.86 117.972 31.899C117.988 31.938 117.996 31.9798 117.996 32.022Z" fill="#EE7B36"/>
<path fill-rule="evenodd" clip-rule="evenodd" d="M19.7328 36.2069C20.5702 35.1583 21.0105 32.42 21.424 29.8543C21.5534 29.0451 21.6813 28.2538 21.8181 27.5325H19.416L20.1939 26.71H21.9788C22.0635 26.3351 22.1513 25.9901 22.2465 25.6851C22.9129 23.5463 24.4776 21.7049 26.5837 20.8839C24.6723 19.996 22.5198 19.7692 20.4653 20.2391C18.4108 20.709 16.571 21.849 15.2356 23.4795C13.9002 25.11 13.1451 27.1385 13.0893 29.2453C13.0334 31.3521 13.68 33.4176 14.9271 35.1166C16.0114 36.5921 18.3481 37.9263 19.7284 36.1995" fill="url(#paint0_linear_476_798)"/>
<path fill-rule="evenodd" clip-rule="evenodd" d="M29.9197 23.4689C28.9291 22.2671 26.8631 21.2824 25.6316 22.6984C24.9488 23.4823 24.5978 24.9696 24.2929 26.7144H28.4576L27.5562 27.7034C27.5562 27.7034 26.1224 27.5547 24.1576 27.5369C24.1576 27.5681 24.1472 27.6008 24.1427 27.6321V27.5369H22.5899L24.0267 28.2538C23.5314 31.2285 22.9349 34.538 21.0281 36.5995C20.6452 37.0178 20.2098 37.3848 19.7326 37.6912C19.4227 37.8884 19.0951 38.0562 18.7539 38.1925C20.7092 39.0553 22.8982 39.2334 24.9672 38.6981C27.0362 38.1627 28.8642 36.9451 30.1555 35.2421C31.4468 33.5392 32.1259 31.4505 32.0832 29.3138C32.0404 27.1771 31.2781 25.1173 29.9197 23.4674" fill="url(#paint1_linear_476_798)"/>
<path d="M105.926 34.7288H107.527" stroke="white" stroke-width="0.3" stroke-miterlimit="10"/>
<defs>
<linearGradient id="paint0_linear_476_798" x1="17.4737" y1="36.9562" x2="25.5056" y2="20.4462" gradientUnits="userSpaceOnUse">
<stop stop-color="#EE7B36"/>
<stop offset="0.508917" stop-color="#E9AC48"/>
<stop offset="1" stop-color="#EE7B36"/>
</linearGradient>
<linearGradient id="paint1_linear_476_798" x1="29.2997" y1="23.1234" x2="22.8295" y2="39.0384" gradientUnits="userSpaceOnUse">
<stop stop-color="#2F7BA5"/>
<stop offset="1" stop-color="#0A6D99"/>
</linearGradient>
</defs>
</svg>
