<svg width="60" height="60" viewBox="0 0 60 60" fill="none" xmlns="http://www.w3.org/2000/svg">
<rect width="60" height="60" fill="white"/>
<path fill-rule="evenodd" clip-rule="evenodd" d="M23.393 43.9827C25.1964 41.7244 26.1446 35.8272 27.035 30.3016C27.3138 28.559 27.5892 26.8549 27.8839 25.3014H22.7107L24.386 23.53H28.2299C28.4124 22.7228 28.6014 21.9796 28.8065 21.323C30.2415 16.7167 33.6113 12.751 38.1471 10.9829C34.0307 9.07073 29.3951 8.58222 24.9705 9.59426C20.5458 10.6063 16.5836 13.0614 13.7077 16.5729C10.8317 20.0844 9.2056 24.4528 9.08531 28.9901C8.96503 33.5274 10.3574 37.9758 13.0433 41.6348C15.3784 44.8123 20.4108 47.6856 23.3834 43.9667" fill="url(#paint0_linear_476_797)"/>
<path fill-rule="evenodd" clip-rule="evenodd" d="M45.3281 16.5501C43.1947 13.9619 38.7454 11.8413 36.0931 14.8908C34.6228 16.5789 33.8668 19.7822 33.2102 23.5396H42.1793L40.2381 25.6697C40.2381 25.6697 37.1502 25.3494 32.9186 25.3109C32.9186 25.3782 32.8963 25.4487 32.8866 25.516V25.3109H29.5425L32.6367 26.8549C31.5701 33.2614 30.2856 40.3887 26.179 44.8283C25.3544 45.7292 24.4166 46.5195 23.389 47.1796C22.7216 47.6043 22.016 47.9656 21.2812 48.259C25.4921 50.1172 30.2066 50.5009 34.6624 49.3478C39.1182 48.1948 43.0549 45.5726 45.8358 41.9051C48.6168 38.2377 50.0795 33.7395 49.9873 29.1378C49.8952 24.5361 48.2536 20.1001 45.3281 16.5469" fill="url(#paint1_linear_476_797)"/>
<defs>
<linearGradient id="paint0_linear_476_797" x1="18.5277" y1="45.5964" x2="35.8253" y2="10.0403" gradientUnits="userSpaceOnUse">
<stop stop-color="#EE7B36"/>
<stop offset="0.508917" stop-color="#E9AC48"/>
<stop offset="1" stop-color="#EE7B36"/>
</linearGradient>
<linearGradient id="paint1_linear_476_797" x1="43.9927" y1="15.8061" x2="30.0586" y2="50.0809" gradientUnits="userSpaceOnUse">
<stop stop-color="#2F7BA5"/>
<stop offset="1" stop-color="#0A6D99"/>
</linearGradient>
</defs>
</svg>
