<svg width="60" height="60" viewBox="0 0 60 60" fill="none" xmlns="http://www.w3.org/2000/svg">
<rect width="60" height="60" fill="url(#paint0_linear_48_15)"/>
<path fill-rule="evenodd" clip-rule="evenodd" d="M20.7498 36.0178V13.7804C20.7498 10.0193 20.3013 10.1918 17.5703 10.1918V9.01453H27.6595C36.9412 9.01453 42.9999 11.6438 42.9999 22.3733C42.9999 28.9247 38.8466 36.0172 28.732 36.0172L20.7498 36.0178ZM24.2549 32.0678C24.7808 34.4477 28.0087 34.8242 29.1496 34.8242C35.1381 34.8242 39.2872 30.7096 39.2872 22.5573C39.2872 18.8307 38.0252 15.8528 36.0024 13.7077C33.8344 11.409 31.8854 9.96055 24.2555 10.1149L24.2549 32.0678Z" fill="white"/>
<path fill-rule="evenodd" clip-rule="evenodd" d="M20.7495 42.065H29.4121V50.7276H20.7495V42.065Z" fill="#B1B1B1"/>
<path fill-rule="evenodd" clip-rule="evenodd" d="M29.4121 42.065H38.074V50.7276H29.4121V42.065Z" fill="white"/>
<defs>
<linearGradient id="paint0_linear_48_15" x1="0" y1="0" x2="60" y2="60" gradientUnits="userSpaceOnUse">
<stop stop-color="#1A3470"/>
<stop offset="0.6" stop-color="#0E64A0"/>
<stop offset="1" stop-color="#0293D0"/>
</linearGradient>
</defs>
</svg>
