<svg width="130" height="60" viewBox="0 0 130 60" fill="none" xmlns="http://www.w3.org/2000/svg">
<rect width="130" height="60" fill="white"/>
<path fill-rule="evenodd" clip-rule="evenodd" d="M16.2059 32.0329V23.937C16.2059 22.9121 16.1732 22.4417 15.3726 22.4417H15V22.0195H18.9709C20.8584 22.0195 21.9257 22.5261 21.901 24.0894C21.8882 24.9023 20.9942 26.0449 19.7122 26.503C20.9224 26.7347 22.1831 28.0117 22.1831 29.2891C22.1831 31.6617 20.1476 32.0327 18.5983 32.0327H16.2059V32.0329ZM17.5111 26.4112L18.4656 26.4106C19.907 26.4097 20.647 25.0498 20.647 24.3412C20.647 22.4677 19.121 22.3214 17.5113 22.4428L17.5111 26.4112ZM17.5111 30.5471C17.5111 31.1333 18.2962 31.5591 18.8474 31.6332C20.2305 31.8192 21.0319 30.6579 21.0355 29.7397C21.0427 27.9884 19.4869 26.8098 18.2062 26.8687C17.9898 26.8785 17.6444 26.8606 17.5109 26.8832L17.5111 30.5471ZM33.3403 26.0954C34.1763 25.0971 35.4348 24.6583 36.1909 24.6583C36.5794 24.6583 36.915 24.7578 37.1946 24.9512C37.4761 25.1458 37.6999 25.4674 37.8655 25.915C37.9813 26.2281 38.0525 26.6474 38.0525 27.2911V30.3473C38.0525 30.7964 38.0904 31.1008 38.1615 31.2631C38.2174 31.3903 38.3106 31.4929 38.4358 31.5638C38.5631 31.6359 38.8378 31.6729 39.1787 31.6729V31.9604H35.6487V31.6729H35.7977C36.1279 31.6729 36.4232 31.6226 36.5554 31.5212C36.686 31.4211 36.7787 31.2702 36.8297 31.0765C36.8499 30.9996 36.8616 30.7545 36.8616 30.3471V27.4055C36.8616 26.7533 36.776 26.2763 36.6086 25.9812C36.4412 25.6861 36.0958 25.5393 35.6965 25.5393C35.0815 25.5393 33.9501 25.8775 33.3405 26.5562V30.3471C33.3405 30.8287 33.3692 31.1248 33.4258 31.2388C33.4996 31.3881 33.6008 31.498 33.7292 31.569C33.8565 31.6392 34.2017 31.6729 34.5931 31.6729V31.9604H31.0467V31.6729H31.2038C31.5685 31.6729 31.8134 31.5822 31.9411 31.3986C32.0688 31.215 32.1327 30.8635 32.1327 30.3471V26.8713C32.1327 26.1637 31.654 25.779 30.8891 25.5554L33.34 24.5968L33.3403 26.0954ZM45.4176 26.4058C45.085 25.8827 44.4462 25.1263 43.5298 25.0848C42 25.0152 41.4196 26.6673 41.4135 27.8627C41.4021 30.1226 42.2235 31.5182 44.1899 31.5755C44.7512 31.5919 45.5072 31.4244 46.0602 31.0747L46.079 31.7072C45.2883 32.194 44.5719 32.2641 43.5552 32.2641C41.4366 32.2641 40.0606 30.6162 40.0606 28.6478C40.0606 26.5273 41.4912 24.6128 43.8759 24.6128C44.6015 24.6128 45.8324 24.8718 46.3089 25.4526L45.4176 26.4058ZM50.6366 24.5708C52.6216 24.5708 54.2309 26.2916 54.2309 28.4144C54.2309 30.5372 52.6216 32.258 50.6366 32.258C48.6514 32.258 47.0424 30.5372 47.0424 28.4144C47.0424 26.2916 48.6514 24.5708 50.6366 24.5708ZM50.6366 25.0237C51.8758 25.0237 52.8802 26.5419 52.8802 28.4146C52.8802 30.2874 51.8755 31.8055 50.6366 31.8055C49.3975 31.8055 48.3928 30.2874 48.3928 28.4146C48.3928 26.5419 49.3975 25.0237 50.6366 25.0237ZM23.7423 27.0303C23.7352 25.3869 25.4894 24.5966 26.5596 24.5966C27.1959 24.5966 27.7148 24.7032 28.1221 24.916C28.4283 25.0758 28.5196 25.3155 28.6655 25.6591C28.7591 25.8797 28.7991 26.3381 28.8067 27.0276L28.8467 30.6986C28.8565 31.602 29.9354 31.6192 30.2151 31.5187L30.2292 31.8628C29.7687 32.1759 29.2967 32.3173 28.9384 32.2668C28.1919 32.1617 27.7846 31.4805 27.7128 30.8611C27.2046 31.487 26.316 32.2614 25.2793 32.2614C24.3692 32.2614 23.5785 31.6421 23.6175 30.3888C23.671 28.6772 26.545 28.1763 27.6483 27.7743V26.9369C27.6483 25.8598 27.52 25.1618 26.3252 25.1618C25.4548 25.1618 25.0479 25.531 25.1182 26.5376L23.7423 27.0303ZM27.6483 29.834V28.2535C26.9333 28.5352 25.5473 28.8922 25.0809 29.5467C24.9025 29.797 24.6879 30.4703 25.065 31.0222C25.8099 32.1121 27.6483 31.0786 27.6483 29.834Z" fill="#B1B1B1"/>
<path fill-rule="evenodd" clip-rule="evenodd" d="M66.213 27.0302C66.2058 25.3869 67.9601 24.5966 69.0302 24.5966C69.6665 24.5966 70.1855 24.7032 70.5928 24.916C70.899 25.0758 70.9903 25.3155 71.1362 25.6591C71.2298 25.8797 71.2698 26.3381 71.2774 27.0276L71.3173 30.6986C71.3272 31.602 72.4061 31.6192 72.6858 31.5187L72.6999 31.8628C72.2393 32.1759 71.7673 32.3173 71.4091 32.2668C70.6626 32.1617 70.2553 31.4805 70.1834 30.8611C69.6753 31.487 68.7867 32.2614 67.75 32.2614C66.8399 32.2614 66.0492 31.6421 66.0882 30.3888C66.1416 28.6772 69.0157 28.1763 70.119 27.7743V26.9369C70.119 25.8598 69.9906 25.1618 68.7959 25.1618C67.9255 25.1618 67.5186 25.531 67.5889 26.5376L66.213 27.0302ZM70.119 29.834V28.2535C69.4039 28.5351 68.018 28.8922 67.5516 29.5467C67.3732 29.797 67.1586 30.4703 67.5357 31.0222C68.2806 32.1121 70.119 31.0786 70.119 29.834ZM56.5101 32.0329V23.7868C56.5101 22.3921 56.3437 22.4561 55.3311 22.4561V22.0195H59.0723C62.5142 22.0195 64.7609 22.9945 64.7609 26.9732C64.7609 29.4026 63.2207 32.0327 59.47 32.0327H56.5101V32.0329ZM57.8098 30.5682C58.0049 31.4507 59.2018 31.5903 59.6249 31.5903C61.8456 31.5903 63.3841 30.0645 63.3841 27.0415C63.3841 25.6596 62.9162 24.5553 62.1661 23.7599C61.3621 22.9074 60.6394 22.3703 57.81 22.4276L57.8098 30.5682ZM73.6774 33.7786C74.0726 33.9645 74.7046 33.9651 74.9747 33.8785C76.1595 33.4987 76.5397 32.8496 77.0066 31.8444L74.3657 26.3156C74.0587 25.6728 73.8648 25.2491 73.2305 25.2176V24.8042H76.199V25.2176H76.0338C75.3836 25.2176 75.3722 25.5361 75.7782 26.4166L77.639 30.4519L79.5686 26.2279C79.8069 25.706 79.8974 25.2064 79.0344 25.2064V24.8044H81.2528V25.2064C80.8982 25.2064 80.6394 25.1894 80.147 26.2279L76.8306 33.2211C76.2652 34.4131 75.059 35.4965 73.0368 34.8665L73.6774 33.7786ZM96.4576 24.8044H99.4443V25.2134H99.2259C98.5164 25.2134 98.6544 25.6948 98.9085 26.2415L100.928 30.5902L102.74 26.0916C102.957 25.553 102.96 25.2206 102.016 25.2206V24.8042H104.473V25.2206C104.153 25.2206 103.855 25.1954 103.49 26.0555L100.86 32.2537H100.401L97.5672 26.2104C97.2463 25.5258 97.1376 25.2708 96.4574 25.2134V24.8044H96.4576ZM114.85 22V30.3471C114.85 30.7915 114.881 31.0878 114.946 31.231C115.011 31.375 115.111 31.4866 115.246 31.5611C115.379 31.6356 115.632 31.6729 116 31.6729V31.9604H112.502V31.6729C112.829 31.6729 113.142 31.6383 113.262 31.5717C113.382 31.5052 113.476 31.3937 113.544 31.2388C113.612 31.0851 113.645 30.7863 113.645 30.3471V24.1641C113.645 23.5024 112.812 23.0787 112.374 22.8785L114.85 22ZM92.344 24.5708C94.3289 24.5708 95.9382 26.2916 95.9382 28.4144C95.9382 30.5372 94.3289 32.258 92.344 32.258C90.3587 32.258 88.7497 30.5372 88.7497 28.4144C88.7497 26.2916 90.359 24.5708 92.344 24.5708ZM92.344 25.0237C93.5831 25.0237 94.5875 26.5419 94.5875 28.4146C94.5875 30.2874 93.5831 31.8055 92.344 31.8055C91.1048 31.8055 90.1002 30.2874 90.1002 28.4146C90.1004 26.5419 91.1048 25.0237 92.344 25.0237ZM105.362 27.0302C105.354 25.3869 107.109 24.5966 108.179 24.5966C108.815 24.5966 109.334 24.7032 109.742 24.916C110.048 25.0758 110.139 25.3155 110.285 25.6591C110.379 25.8797 110.418 26.3381 110.426 27.0276L110.466 30.6986C110.476 31.602 111.555 31.6192 111.834 31.5187L111.849 31.8628C111.388 32.1759 110.916 32.3173 110.558 32.2668C109.811 32.1617 109.404 31.4805 109.332 30.8611C108.824 31.487 107.935 32.2614 106.899 32.2614C105.989 32.2614 105.198 31.6421 105.237 30.3888C105.29 28.6772 108.164 28.1763 109.268 27.7743V26.9369C109.268 25.8598 109.139 25.1618 107.945 25.1618C107.074 25.1618 106.667 25.531 106.738 26.5376L105.362 27.0302ZM109.268 29.834V28.2535C108.552 28.5351 107.167 28.8922 106.7 29.5467C106.522 29.797 106.307 30.4703 106.684 31.0222C107.429 32.1121 109.268 31.0786 109.268 29.834ZM87.1048 26.4058C86.7721 25.8827 86.1334 25.1263 85.217 25.0848C83.6871 25.0152 83.1067 26.6673 83.1007 27.8627C83.0892 30.1226 83.9107 31.5182 85.877 31.5755C86.4384 31.5919 87.1943 31.4244 87.7473 31.0747L87.7662 31.7072C86.9755 32.194 86.2591 32.2641 85.2423 32.2641C83.1238 32.2641 81.7477 30.6162 81.7477 28.6478C81.7477 26.5273 83.1783 24.6128 85.563 24.6128C86.2887 24.6128 87.5195 24.8718 87.996 25.4526L87.1048 26.4058Z" fill="#1A1E51"/>
<path fill-rule="evenodd" clip-rule="evenodd" d="M56.5103 34.2753H59.7225V37.4876H56.5103V34.2753Z" fill="#B1B1B1"/>
<path fill-rule="evenodd" clip-rule="evenodd" d="M59.7227 34.2753H62.9347V37.4876H59.7227V34.2753Z" fill="#1A1E51"/>
</svg>
