<svg width="130" height="60" viewBox="0 0 130 60" fill="none" xmlns="http://www.w3.org/2000/svg">
<rect width="130" height="60" fill="white"/>
<g clip-path="url(#clip0_307_84)">
<path d="M54.9797 26.656H47.8911V28.3514L48.1048 28.3307V28.3101C48.1435 28.062 48.5708 27.5864 49.0952 27.5864C49.0952 27.5864 50.61 27.5864 50.6683 27.5864C50.6683 27.6691 50.6683 36.3323 50.6683 36.3323H52.222C52.222 36.3323 52.222 27.6691 52.222 27.6071C52.2996 27.6071 53.8338 27.6071 53.8338 27.6071C54.3777 27.6071 54.7272 27.9172 54.7855 28.2067V28.248H55.0185L54.9992 26.6974H54.9797V26.656Z" fill="#183964"/>
<path d="M19.594 26.656H19.5552V26.8834L19.5746 26.9041C19.7105 26.9868 19.8465 27.3383 19.8465 27.7725V36.3323H21.3613C21.3613 36.3323 21.3613 32.011 21.3613 31.9283C21.439 31.9283 22.041 31.9283 22.041 31.9283C22.6431 31.9697 22.8761 32.3832 23.1674 32.9207L23.2063 32.9828L23.4005 33.3136C23.7306 33.8925 24.1773 34.6782 24.624 35.4225C24.9541 35.9394 25.362 36.2496 25.8863 36.3323C26.2553 36.3943 26.9933 36.3736 27.2846 36.2909L27.6148 36.2082L27.7508 36.1668L27.2846 36.0221C27.0904 35.9601 26.7991 35.8153 26.4107 35.3398C26.1582 35.0503 25.7698 34.368 25.1678 33.3756L24.5851 32.3832L24.5657 32.3625C24.4104 32.1144 24.1385 31.7216 23.6918 31.4734C24.5463 31.184 25.3814 30.357 25.3814 29.1164C25.3814 28.7649 25.3037 28.1033 24.7405 27.5244C24.1773 26.9455 23.284 26.656 22.0799 26.656H19.594ZM22.1964 27.5244C23.75 27.5864 23.7889 28.9924 23.7889 29.1371C23.7889 30.543 22.8178 31.0393 21.9633 31.0393C21.9633 31.0393 21.4196 31.0186 21.3613 31.0186C21.3613 30.9359 21.3613 27.6071 21.3613 27.5244C21.5361 27.5244 21.8274 27.5037 22.1964 27.5244Z" fill="#183964"/>
<path d="M35.1307 26.6559H35.0918L35.1111 26.904H35.1307C35.2666 26.9661 35.3831 27.3176 35.3831 27.607V36.3115H37.9854C39.6945 36.3115 41.1316 35.7533 42.1026 34.6781C42.9184 33.7891 43.3651 32.5692 43.3651 31.3286C43.3651 30.5843 43.132 29.4472 42.4523 28.5168C41.5589 27.2762 40.1411 26.6353 38.2185 26.6353L35.1307 26.6559ZM36.9368 27.5863C37.0144 27.5863 37.7525 27.5863 37.7525 27.5863C37.9661 27.5863 38.5098 27.607 38.8983 27.669C41.4618 28.0826 41.7337 30.3776 41.7337 31.3286C41.7337 32.1143 41.5978 33.2515 40.9569 34.1199C40.3355 34.9676 39.3643 35.4018 38.0438 35.4018C37.733 35.4018 37.3446 35.4018 36.9173 35.3811C36.9368 35.3191 36.9368 27.669 36.9368 27.5863Z" fill="#183964"/>
<path d="M46.5109 26.656H44.7241V26.8834L44.7436 26.9041C44.899 26.9868 45.0154 27.297 45.0154 27.7105V36.3323H46.5303V26.6767L46.5109 26.656Z" fill="#183964"/>
<path d="M33.1697 26.656H28.062L28.0815 26.8834H28.1009C28.2369 26.9661 28.3922 27.297 28.3922 27.7518V36.3116H33.4804L33.8494 34.5955L33.6359 34.5128L33.5775 34.6162C33.1502 35.3191 32.7231 35.4018 31.2471 35.4018C30.7227 35.4225 30.1984 35.3605 29.8875 35.3398C29.8875 35.2778 29.8875 31.4734 29.8875 31.3907C29.9653 31.3907 32.4705 31.3907 32.4705 31.3907V30.5224C32.4705 30.5224 29.9653 30.5224 29.8875 30.5224C29.8875 30.4397 29.8875 27.5864 29.8875 27.5244C29.9653 27.5244 31.985 27.5451 31.985 27.5451C32.4511 27.5451 32.9755 28.0206 33.0144 28.3101V28.3514H33.2279L33.1697 26.656Z" fill="#183964"/>
<path d="M75.7578 26.656H73.9712L73.9905 26.8834H74.0101C74.1654 26.9661 74.2818 27.297 74.2818 27.7105V36.3323H75.7967V26.6767L75.7578 26.656Z" fill="#183964"/>
<path d="M96.9663 26.6559H91.8779L91.8975 26.904H91.9168C92.0528 26.9867 92.2081 27.2969 92.2081 27.7517V36.3115H97.2965L97.6653 34.5954L97.4324 34.5127L97.374 34.6161C96.9468 35.3191 96.5195 35.4018 95.063 35.4018C94.5386 35.4225 94.0143 35.3604 93.7036 35.3398C93.7036 35.2777 93.7036 31.4734 93.7036 31.3907C93.7812 31.3907 96.2866 31.3907 96.2866 31.3907V30.5223C96.2866 30.5223 93.7812 30.5223 93.7036 30.5223C93.7036 30.4396 93.7036 27.5863 93.7036 27.5243C93.7812 27.5243 95.8009 27.545 95.8009 27.545C96.3837 27.545 96.811 27.9999 96.811 28.31V28.3513L97.0439 28.3307L97.0052 26.6353L96.9663 26.6559Z" fill="#183964"/>
<path d="M78.2248 29.0955C78.2055 30.4395 78.9629 31.1011 80.2059 31.7627L80.6718 32.0108C81.643 32.5277 82.2838 32.8585 82.2838 33.8303C82.2838 33.9957 82.2449 34.5746 81.8372 35.0295C81.5459 35.3396 81.138 35.4844 80.633 35.4844C79.1765 35.4637 78.6521 34.2645 78.4579 33.5615L78.419 33.4374L78.1084 33.4995L78.186 35.5257L78.2637 35.5671C78.7492 35.8565 79.5649 36.3527 80.7107 36.3734C81.5459 36.3734 82.3809 36.0219 82.9442 35.4223C83.449 34.8848 83.7209 34.2231 83.7209 33.4788C83.7209 31.7834 82.614 31.1838 81.4486 30.5222L81.2351 30.3981C79.9728 29.7365 79.5455 29.4264 79.5455 28.682C79.5455 28.1651 79.9144 27.3795 80.9244 27.4001C82.1478 27.4208 82.6722 28.3512 82.7887 28.8474L82.8275 28.9922L83.1384 28.9508L83.0217 27.1727L82.9635 27.1313C82.2645 26.6351 81.3904 26.5731 81.0409 26.5731C79.6815 26.5524 78.2444 27.4415 78.2248 29.0955Z" fill="#183964"/>
<path d="M58.2612 29.0954C58.2416 30.4394 58.9991 31.101 60.242 31.7626L60.7081 32.0107C61.6791 32.5276 62.32 32.8584 62.32 33.8302C62.32 33.9956 62.2812 34.5745 61.8733 35.0294C61.582 35.3395 61.1743 35.4842 60.6693 35.4842C59.2128 35.4636 58.6884 34.2644 58.4942 33.5614L58.4554 33.4373L58.1445 33.4994L58.2223 35.5256L58.2999 35.5669C58.7855 35.8564 59.6012 36.3526 60.747 36.3733C61.582 36.3733 62.417 36.0218 62.9803 35.4222C63.4853 34.8846 63.7571 34.223 63.7571 33.4787C63.7571 31.7833 62.6501 31.1837 61.4849 30.5221L61.2714 30.398C60.0089 29.7364 59.5817 29.4262 59.5817 28.6819C59.5817 28.165 59.9507 27.3793 60.9606 27.4C62.1841 27.4207 62.7085 28.3511 62.825 28.8473L62.8638 28.9921L63.1745 28.9507L63.0774 27.1933L63.0192 27.1519C62.3199 26.6557 61.4461 26.5937 61.0965 26.5937C59.7372 26.5523 58.2805 27.4414 58.2612 29.0954Z" fill="#183964"/>
<path d="M85.0422 29.0954C85.0229 30.4393 85.7803 31.1009 87.0232 31.7625L87.4892 32.0106C88.4604 32.5275 89.1012 32.8583 89.1012 33.8301C89.1012 33.9955 89.0623 34.5744 88.6546 35.0293C88.3633 35.3394 87.9554 35.4842 87.4505 35.4842C85.9939 35.4635 85.4695 34.2643 85.2753 33.5613L85.2364 33.4373L84.9258 33.4993L85.0035 35.5255L85.0811 35.5669C85.5666 35.8563 86.3823 36.3525 87.5281 36.3732C88.3633 36.3732 89.1983 36.0217 89.7615 35.4221C90.2664 34.8846 90.5383 34.2229 90.5383 33.4786C90.5383 31.7832 89.4314 31.1836 88.2662 30.522L88.0525 30.3979C86.7902 29.7363 86.3629 29.4262 86.3629 28.6818C86.3629 28.351 86.4989 28.0202 86.732 27.7721C86.9844 27.524 87.3339 27.3793 87.7418 27.3793C88.9652 27.3999 89.4896 28.3304 89.6062 28.8266L89.6449 28.9506L89.9557 28.9093L89.8586 27.1518L89.8004 27.1105C89.1012 26.6143 88.2273 26.5522 87.8778 26.5522C86.5182 26.5522 85.0617 27.4413 85.0422 29.0954Z" fill="#183964"/>
<path d="M71.9703 26.6559H70.7663L70.7856 26.8833H70.805C70.8634 26.9246 71.0576 27.0694 71.0576 27.669V33.148C71.0576 34.2025 70.6885 35.4844 68.9408 35.4844C67.2899 35.4844 66.9404 34.4299 66.9404 32.8586V26.6352H65.0371L65.0565 26.8419H65.076C65.1924 26.904 65.4062 27.1727 65.4062 27.6896V32.8379C65.4062 36.0426 67.387 36.3941 68.8824 36.3941C69.6204 36.3941 71.9897 36.1667 71.9897 33.148V26.6145L71.9703 26.6559Z" fill="#183964"/>
<path d="M11.2623 28.0408C10.4661 28.9713 10 30.2118 10 31.4937C10 32.9203 10.5244 34.2022 11.476 35.1326C12.3887 36.0217 13.5928 36.4972 14.894 36.4972C15.5738 36.4972 16.9138 36.3732 18.1955 35.5255L18.2538 35.4841L18.4092 33.4786L18.1567 33.4579L18.1179 33.5406C17.1662 35.7115 15.6903 35.4014 15.1271 35.4014C12.6218 35.4014 11.7673 33.4372 11.7673 31.3076C11.7673 29.2607 12.6218 27.5033 15.1465 27.5033C15.9233 27.5033 17.3216 27.4826 18.0596 29.3434L18.0984 29.4468L18.3315 29.3641L18.1761 27.2758L18.1179 27.2552C16.9332 26.6969 15.9816 26.4488 15.03 26.4488C13.4957 26.4281 12.1946 26.9864 11.2623 28.0408Z" fill="#183964"/>
<path d="M115.378 33.1892C113.688 32.8997 111.863 32.7343 110.523 32.9824C110.445 33.0031 110.387 32.9411 110.387 32.8584C110.387 32.3621 110.387 30.7494 110.018 28.7439C110.018 28.7025 109.998 28.6819 109.959 28.6612C105.551 25.3737 101.57 23.1821 99.9382 22.3551C99.8218 22.2931 99.7052 22.4585 99.8023 22.5618C104.56 27.2139 106.231 35.1327 106.444 36.1872C106.464 36.2492 106.522 36.2905 106.58 36.2905C111.921 35.1947 117.281 36.5593 118.776 36.9935C118.893 37.0349 118.971 36.8695 118.893 36.7868C117.786 35.5255 116.621 34.347 115.436 33.2305C115.436 33.2099 115.416 33.1892 115.378 33.1892Z" fill="#183964"/>
<path d="M119.864 33.9956C115.572 27.8756 109.474 23.3682 107.552 22.0243C107.435 21.9416 107.319 22.0864 107.396 22.2104C108.872 24.278 109.63 26.6557 109.999 28.6406C109.999 28.6819 110.018 28.7026 110.037 28.7233C111.805 30.0465 113.611 31.5352 115.398 33.1685C115.417 33.1892 115.436 33.1892 115.456 33.1892C117.32 33.52 119.029 33.9749 119.728 34.1817C119.845 34.223 119.923 34.099 119.864 33.9956Z" fill="#183964"/>
<path d="M54.9797 26.656H47.8911V28.3514L48.1048 28.3307V28.3101C48.1435 28.062 48.5708 27.5864 49.0952 27.5864C49.0952 27.5864 50.61 27.5864 50.6683 27.5864C50.6683 27.6691 50.6683 36.3323 50.6683 36.3323H52.222C52.222 36.3323 52.222 27.6691 52.222 27.6071C52.2996 27.6071 53.8338 27.6071 53.8338 27.6071C54.3777 27.6071 54.7272 27.9172 54.7855 28.2067V28.248H55.0185L54.9992 26.6974H54.9797V26.656Z" fill="#183964"/>
<path d="M19.594 26.656H19.5552V26.8834L19.5746 26.9041C19.7105 26.9868 19.8465 27.3383 19.8465 27.7725V36.3323H21.3613C21.3613 36.3323 21.3613 32.011 21.3613 31.9283C21.439 31.9283 22.041 31.9283 22.041 31.9283C22.6431 31.9697 22.8761 32.3832 23.1674 32.9207L23.2063 32.9828L23.4005 33.3136C23.7306 33.8925 24.1773 34.6782 24.624 35.4225C24.9541 35.9394 25.362 36.2496 25.8863 36.3323C26.2553 36.3943 26.9933 36.3736 27.2846 36.2909L27.6148 36.2082L27.7508 36.1668L27.2846 36.0221C27.0904 35.9601 26.7991 35.8153 26.4107 35.3398C26.1582 35.0503 25.7698 34.368 25.1678 33.3756L24.5851 32.3832L24.5657 32.3625C24.4104 32.1144 24.1385 31.7216 23.6918 31.4734C24.5463 31.184 25.3814 30.357 25.3814 29.1164C25.3814 28.7649 25.3037 28.1033 24.7405 27.5244C24.1773 26.9455 23.284 26.656 22.0799 26.656H19.594ZM22.1964 27.5244C23.75 27.5864 23.7889 28.9924 23.7889 29.1371C23.7889 30.543 22.8178 31.0393 21.9633 31.0393C21.9633 31.0393 21.4196 31.0186 21.3613 31.0186C21.3613 30.9359 21.3613 27.6071 21.3613 27.5244C21.5361 27.5244 21.8274 27.5037 22.1964 27.5244Z" fill="#183964"/>
<path d="M35.1307 26.6559H35.0918L35.1111 26.904H35.1307C35.2666 26.9661 35.3831 27.3176 35.3831 27.607V36.3115H37.9854C39.6945 36.3115 41.1316 35.7533 42.1026 34.6781C42.9184 33.7891 43.3651 32.5692 43.3651 31.3286C43.3651 30.5843 43.132 29.4472 42.4523 28.5168C41.5589 27.2762 40.1411 26.6353 38.2185 26.6353L35.1307 26.6559ZM36.9368 27.5863C37.0144 27.5863 37.7525 27.5863 37.7525 27.5863C37.9661 27.5863 38.5098 27.607 38.8983 27.669C41.4618 28.0826 41.7337 30.3776 41.7337 31.3286C41.7337 32.1143 41.5978 33.2515 40.9569 34.1199C40.3355 34.9676 39.3643 35.4018 38.0438 35.4018C37.733 35.4018 37.3446 35.4018 36.9173 35.3811C36.9368 35.3191 36.9368 27.669 36.9368 27.5863Z" fill="#183964"/>
<path d="M46.5109 26.656H44.7241V26.8834L44.7436 26.9041C44.899 26.9868 45.0154 27.297 45.0154 27.7105V36.3323H46.5303V26.6767L46.5109 26.656Z" fill="#183964"/>
<path d="M33.1697 26.656H28.062L28.0815 26.8834H28.1009C28.2369 26.9661 28.3922 27.297 28.3922 27.7518V36.3116H33.4804L33.8494 34.5955L33.6359 34.5128L33.5775 34.6162C33.1502 35.3191 32.7231 35.4018 31.2471 35.4018C30.7227 35.4225 30.1984 35.3605 29.8875 35.3398C29.8875 35.2778 29.8875 31.4734 29.8875 31.3907C29.9653 31.3907 32.4705 31.3907 32.4705 31.3907V30.5224C32.4705 30.5224 29.9653 30.5224 29.8875 30.5224C29.8875 30.4397 29.8875 27.5864 29.8875 27.5244C29.9653 27.5244 31.985 27.5451 31.985 27.5451C32.4511 27.5451 32.9755 28.0206 33.0144 28.3101V28.3514H33.2279L33.1697 26.656Z" fill="#183964"/>
<path d="M75.7578 26.656H73.9712L73.9905 26.8834H74.0101C74.1654 26.9661 74.2818 27.297 74.2818 27.7105V36.3323H75.7967V26.6767L75.7578 26.656Z" fill="#183964"/>
<path d="M96.9663 26.6559H91.8779L91.8975 26.904H91.9168C92.0528 26.9867 92.2081 27.2969 92.2081 27.7517V36.3115H97.2965L97.6653 34.5954L97.4324 34.5127L97.374 34.6161C96.9468 35.3191 96.5195 35.4018 95.063 35.4018C94.5386 35.4225 94.0143 35.3604 93.7036 35.3398C93.7036 35.2777 93.7036 31.4734 93.7036 31.3907C93.7812 31.3907 96.2866 31.3907 96.2866 31.3907V30.5223C96.2866 30.5223 93.7812 30.5223 93.7036 30.5223C93.7036 30.4396 93.7036 27.5863 93.7036 27.5243C93.7812 27.5243 95.8009 27.545 95.8009 27.545C96.3837 27.545 96.811 27.9999 96.811 28.31V28.3513L97.0439 28.3307L97.0052 26.6353L96.9663 26.6559Z" fill="#183964"/>
<path d="M78.2248 29.0955C78.2055 30.4395 78.9629 31.1011 80.2059 31.7627L80.6718 32.0108C81.643 32.5277 82.2838 32.8585 82.2838 33.8303C82.2838 33.9957 82.2449 34.5746 81.8372 35.0295C81.5459 35.3396 81.138 35.4844 80.633 35.4844C79.1765 35.4637 78.6521 34.2645 78.4579 33.5615L78.419 33.4374L78.1084 33.4995L78.186 35.5257L78.2637 35.5671C78.7492 35.8565 79.5649 36.3527 80.7107 36.3734C81.5459 36.3734 82.3809 36.0219 82.9442 35.4223C83.449 34.8848 83.7209 34.2231 83.7209 33.4788C83.7209 31.7834 82.614 31.1838 81.4486 30.5222L81.2351 30.3981C79.9728 29.7365 79.5455 29.4264 79.5455 28.682C79.5455 28.1651 79.9144 27.3795 80.9244 27.4001C82.1478 27.4208 82.6722 28.3512 82.7887 28.8474L82.8275 28.9922L83.1384 28.9508L83.0217 27.1727L82.9635 27.1313C82.2645 26.6351 81.3904 26.5731 81.0409 26.5731C79.6815 26.5524 78.2444 27.4415 78.2248 29.0955Z" fill="#183964"/>
<path d="M58.2612 29.0954C58.2416 30.4394 58.9991 31.101 60.242 31.7626L60.7081 32.0107C61.6791 32.5276 62.32 32.8584 62.32 33.8302C62.32 33.9956 62.2812 34.5745 61.8733 35.0294C61.582 35.3395 61.1743 35.4842 60.6693 35.4842C59.2128 35.4636 58.6884 34.2644 58.4942 33.5614L58.4554 33.4373L58.1445 33.4994L58.2223 35.5256L58.2999 35.5669C58.7855 35.8564 59.6012 36.3526 60.747 36.3733C61.582 36.3733 62.417 36.0218 62.9803 35.4222C63.4853 34.8846 63.7571 34.223 63.7571 33.4787C63.7571 31.7833 62.6501 31.1837 61.4849 30.5221L61.2714 30.398C60.0089 29.7364 59.5817 29.4262 59.5817 28.6819C59.5817 28.165 59.9507 27.3793 60.9606 27.4C62.1841 27.4207 62.7085 28.3511 62.825 28.8473L62.8638 28.9921L63.1745 28.9507L63.0774 27.1933L63.0192 27.1519C62.3199 26.6557 61.4461 26.5937 61.0965 26.5937C59.7372 26.5523 58.2805 27.4414 58.2612 29.0954Z" fill="#183964"/>
<path d="M85.0422 29.0954C85.0229 30.4393 85.7803 31.1009 87.0232 31.7625L87.4892 32.0106C88.4604 32.5275 89.1012 32.8583 89.1012 33.8301C89.1012 33.9955 89.0623 34.5744 88.6546 35.0293C88.3633 35.3394 87.9554 35.4842 87.4505 35.4842C85.9939 35.4635 85.4695 34.2643 85.2753 33.5613L85.2364 33.4373L84.9258 33.4993L85.0035 35.5255L85.0811 35.5669C85.5666 35.8563 86.3823 36.3525 87.5281 36.3732C88.3633 36.3732 89.1983 36.0217 89.7615 35.4221C90.2664 34.8846 90.5383 34.2229 90.5383 33.4786C90.5383 31.7832 89.4314 31.1836 88.2662 30.522L88.0525 30.3979C86.7902 29.7363 86.3629 29.4262 86.3629 28.6818C86.3629 28.351 86.4989 28.0202 86.732 27.7721C86.9844 27.524 87.3339 27.3793 87.7418 27.3793C88.9652 27.3999 89.4896 28.3304 89.6062 28.8266L89.6449 28.9506L89.9557 28.9093L89.8586 27.1518L89.8004 27.1105C89.1012 26.6143 88.2273 26.5522 87.8778 26.5522C86.5182 26.5522 85.0617 27.4413 85.0422 29.0954Z" fill="#183964"/>
<path d="M71.9703 26.6559H70.7663L70.7856 26.8833H70.805C70.8634 26.9246 71.0576 27.0694 71.0576 27.669V33.148C71.0576 34.2025 70.6885 35.4844 68.9408 35.4844C67.2899 35.4844 66.9404 34.4299 66.9404 32.8586V26.6352H65.0371L65.0565 26.8419H65.076C65.1924 26.904 65.4062 27.1727 65.4062 27.6896V32.8379C65.4062 36.0426 67.387 36.3941 68.8824 36.3941C69.6204 36.3941 71.9897 36.1667 71.9897 33.148V26.6145L71.9703 26.6559Z" fill="#183964"/>
<path d="M11.2623 28.0408C10.4661 28.9713 10 30.2118 10 31.4937C10 32.9203 10.5244 34.2022 11.476 35.1326C12.3887 36.0217 13.5928 36.4972 14.894 36.4972C15.5738 36.4972 16.9138 36.3732 18.1955 35.5255L18.2538 35.4841L18.4092 33.4786L18.1567 33.4579L18.1179 33.5406C17.1662 35.7115 15.6903 35.4014 15.1271 35.4014C12.6218 35.4014 11.7673 33.4372 11.7673 31.3076C11.7673 29.2607 12.6218 27.5033 15.1465 27.5033C15.9233 27.5033 17.3216 27.4826 18.0596 29.3434L18.0984 29.4468L18.3315 29.3641L18.1761 27.2758L18.1179 27.2552C16.9332 26.6969 15.9816 26.4488 15.03 26.4488C13.4957 26.4281 12.1946 26.9864 11.2623 28.0408Z" fill="#183964"/>
<path d="M115.378 33.1892C113.688 32.8997 111.863 32.7343 110.523 32.9824C110.445 33.0031 110.387 32.9411 110.387 32.8584C110.387 32.3621 110.387 30.7494 110.018 28.7439C110.018 28.7025 109.998 28.6819 109.959 28.6612C105.551 25.3737 101.57 23.1821 99.9382 22.3551C99.8218 22.2931 99.7052 22.4585 99.8023 22.5618C104.56 27.2139 106.231 35.1327 106.444 36.1872C106.464 36.2492 106.522 36.2905 106.58 36.2905C111.921 35.1947 117.281 36.5593 118.776 36.9935C118.893 37.0349 118.971 36.8695 118.893 36.7868C117.786 35.5255 116.621 34.347 115.436 33.2305C115.436 33.2099 115.416 33.1892 115.378 33.1892Z" fill="#183964"/>
<path d="M119.864 33.9956C115.572 27.8756 109.474 23.3682 107.552 22.0243C107.435 21.9416 107.319 22.0864 107.396 22.2104C108.872 24.278 109.63 26.6557 109.999 28.6406C109.999 28.6819 110.018 28.7026 110.037 28.7233C111.805 30.0465 113.611 31.5352 115.398 33.1685C115.417 33.1892 115.436 33.1892 115.456 33.1892C117.32 33.52 119.029 33.9749 119.728 34.1817C119.845 34.223 119.923 34.099 119.864 33.9956Z" fill="#183964"/>
</g>
<defs>
<clipPath id="clip0_307_84">
<rect width="110" height="15" fill="white" transform="translate(10 22)"/>
</clipPath>
</defs>
</svg>
