<svg width="60" height="60" viewBox="0 0 60 60" fill="none" xmlns="http://www.w3.org/2000/svg">
<rect width="60" height="60" fill="#183964"/>
<path d="M41.6188 38.1799C38.1011 37.5773 34.3007 37.233 31.511 37.7495C31.3495 37.7925 31.2279 37.6634 31.2279 37.4913C31.2279 36.4582 31.2279 33.1008 30.46 28.9257C30.46 28.8396 30.4194 28.7965 30.3388 28.7535C21.1608 21.9096 12.8726 17.3471 9.47649 15.6254C9.23406 15.4962 8.99129 15.8406 9.19343 16.0558C19.0991 25.7405 22.5761 42.226 23.0207 44.4212C23.061 44.5503 23.1826 44.6364 23.3038 44.6364C34.4219 42.3551 45.5807 45.196 48.6941 46.0998C48.9366 46.1859 49.0984 45.8416 48.9366 45.6694C46.6321 43.0438 44.2064 40.5903 41.74 38.266C41.74 38.223 41.6994 38.1799 41.6188 38.1799Z" fill="white"/>
<path d="M50.9588 39.8593C42.0236 27.1185 29.3285 17.7352 25.326 14.9374C25.0832 14.7652 24.8408 15.0665 25.0026 15.3248C28.0751 19.629 29.6519 24.579 30.4202 28.7111C30.4202 28.7973 30.4605 28.8403 30.5011 28.8833C34.1803 31.6381 37.9404 34.7372 41.6599 38.1376C41.7002 38.1806 41.7408 38.1806 41.7811 38.1806C45.6624 38.8693 49.2204 39.8163 50.6757 40.2467C50.9185 40.3328 51.08 40.0745 50.9588 39.8593Z" fill="white"/>
</svg>
