<svg width="60" height="60" viewBox="0 0 60 60" fill="none" xmlns="http://www.w3.org/2000/svg">
<rect width="60" height="60" fill="white"/>
<path d="M41.6188 38.1797C38.1011 37.5771 34.3007 37.2328 31.511 37.7493C31.3495 37.7923 31.2279 37.6632 31.2279 37.491C31.2279 36.4579 31.2279 33.1006 30.46 28.9254C30.46 28.8393 30.4194 28.7963 30.3388 28.7532C21.1608 21.9094 12.8726 17.3468 9.47649 15.6251C9.23406 15.496 8.99129 15.8403 9.19343 16.0555C19.0991 25.7402 22.5761 42.2257 23.0207 44.4209C23.061 44.5501 23.1826 44.6361 23.3038 44.6361C34.4219 42.3549 45.5807 45.1957 48.6941 46.0996C48.9366 46.1857 49.0984 45.8414 48.9366 45.6692C46.6321 43.0436 44.2064 40.5901 41.74 38.2658C41.74 38.2227 41.6994 38.1797 41.6188 38.1797Z" fill="#183964"/>
<path d="M50.9588 39.8591C42.0236 27.1183 29.3285 17.7349 25.326 14.9371C25.0832 14.7649 24.8408 15.0662 25.0026 15.3245C28.0751 19.6288 29.6519 24.5788 30.4202 28.7109C30.4202 28.797 30.4605 28.84 30.5011 28.8831C34.1803 31.6378 37.9404 34.737 41.6599 38.1373C41.7002 38.1804 41.7408 38.1804 41.7811 38.1804C45.6624 38.8691 49.2204 39.816 50.6757 40.2465C50.9185 40.3325 51.08 40.0743 50.9588 39.8591Z" fill="#183964"/>
</svg>
