<svg width="60" height="60" viewBox="0 0 60 60" fill="none" xmlns="http://www.w3.org/2000/svg">
<rect width="60" height="60" fill="white"/>
<path d="M29.7971 13.6097C16.8971 13.6097 6.43359 20.3187 6.43359 28.5741C6.43359 36.8295 16.8971 44.1919 29.7971 44.1919C42.6971 44.1919 53.1606 36.8513 53.1606 28.5741C53.1606 20.2969 42.6971 13.6097 29.7971 13.6097Z" fill="#00B696"/>
<path d="M22.1857 23.9564C22.1639 23.9782 21.9464 24.2178 22.0987 24.4138C22.4685 24.8712 23.5779 25.1326 24.7091 24.893C25.3835 24.7405 26.2319 24.0653 27.0803 23.39C27.9939 22.6712 28.8858 21.9524 29.7777 21.6692C30.7349 21.3643 31.344 21.495 31.7573 21.6257C32.1924 21.7564 32.7145 22.0613 33.5629 22.6712C35.1291 23.8475 41.416 29.3584 42.5254 30.295C43.3955 29.9029 47.5723 28.2039 52.8584 27.0494C52.4016 24.2178 50.7048 21.5386 48.0944 19.4257C44.4615 20.9504 39.7409 21.8653 35.3902 19.7524C35.3684 19.7524 33.019 18.6415 30.7131 18.6851C27.276 18.7722 25.775 20.2534 24.2088 21.8435L22.1857 23.9564Z" fill="white"/>
<path d="M42.2417 30.8829C42.1765 30.8176 34.8454 24.3918 33.1704 23.1503C32.2132 22.4315 31.6694 22.2354 31.1038 22.1701C30.821 22.1265 30.4077 22.1918 30.1249 22.2572C29.3418 22.475 28.3411 23.1503 27.4492 23.8473C26.5138 24.5879 25.6436 25.2849 24.8387 25.4592C23.7946 25.6988 22.5328 25.4156 21.9455 25.0235C21.7062 24.8711 21.5539 24.675 21.4669 24.5008C21.2494 23.9998 21.6409 23.6077 21.7062 23.5423L23.7293 21.3423C23.9686 21.1027 24.2079 20.8631 24.4472 20.6453C23.7946 20.7324 23.1854 20.9067 22.5981 21.0592C21.8585 21.2552 21.1624 21.4513 20.4445 21.4513C20.1399 21.4513 18.5519 21.1899 18.2474 21.1027C16.42 20.6018 14.3317 20.1225 11.9388 18.9899C9.06728 21.1245 7.19646 23.7602 6.63086 26.7225C7.04418 26.8315 8.13187 27.0711 8.41467 27.1364C14.919 28.5958 16.9421 30.077 17.3119 30.382C17.7035 29.9463 18.2909 29.6631 18.9217 29.6631C19.6396 29.6631 20.2922 30.0334 20.6838 30.578C21.0536 30.273 21.5757 30.0334 22.2283 30.0334C22.5328 30.0334 22.8374 30.0988 23.1637 30.1859C23.9033 30.4473 24.2731 30.9265 24.4689 31.3621C24.7082 31.2532 25.0128 31.1661 25.3826 31.1661C25.7306 31.1661 26.1004 31.2532 26.4703 31.4057C27.6667 31.9285 27.8625 33.1047 27.7537 33.9978C27.8407 33.9978 27.9278 33.976 28.0148 33.976C29.4288 33.976 30.6035 35.1305 30.6035 36.5681C30.6035 37.0037 30.4947 37.4176 30.2989 37.7879C30.6905 38.0057 31.6694 38.5067 32.5396 38.3978C33.2357 38.3107 33.4967 38.0711 33.5837 37.9404C33.649 37.8532 33.7143 37.7443 33.649 37.6572L31.8217 35.6097C31.8217 35.6097 31.5171 35.3265 31.6259 35.2176C31.7347 35.1087 31.9087 35.2612 32.0392 35.3701C32.9746 36.1542 34.1058 37.3305 34.1058 37.3305C34.1276 37.3522 34.1928 37.4829 34.6279 37.5701C34.9977 37.6354 35.6286 37.5919 36.0854 37.2216C36.1942 37.1344 36.303 37.0037 36.4117 36.8948L36.39 36.9166C36.8685 36.3067 36.3465 35.6968 36.3465 35.6968L34.1928 33.279C34.1928 33.279 33.8883 32.9958 33.9971 32.8869C34.0841 32.778 34.2799 32.9305 34.4321 33.0394C35.1065 33.6057 36.0637 34.5641 36.9991 35.479C37.1731 35.6097 37.978 36.1107 39.0657 35.4136C39.7183 34.978 39.8488 34.4552 39.8271 34.0631C39.7835 33.5404 39.3702 33.1701 39.3702 33.1701L36.4335 30.2295C36.4335 30.2295 36.1289 29.9681 36.2377 29.8374C36.3247 29.7285 36.5205 29.881 36.651 29.9899C37.5864 30.774 40.1099 33.0829 40.1099 33.0829C40.1534 33.1047 41.0235 33.7364 42.0894 33.0394C42.481 32.7998 42.7203 32.4295 42.7421 31.9938C42.7638 31.3186 42.2417 30.8829 42.2417 30.8829Z" fill="white"/>
<path d="M28.0363 34.6081C27.5795 34.6081 27.0791 34.8695 27.0139 34.8259C26.9703 34.8041 27.0356 34.6299 27.0791 34.521C27.1226 34.4121 27.71 32.6259 26.2742 31.9942C25.1648 31.515 24.4687 32.0596 24.2511 32.2992C24.1859 32.3645 24.1641 32.3645 24.1641 32.2774C24.1424 31.9507 23.9901 31.0794 23.0329 30.7744C21.6624 30.3606 20.7705 31.319 20.553 31.6675C20.4442 30.8833 19.7916 30.2734 18.9867 30.2734C18.0948 30.2734 17.3987 30.9922 17.377 31.8635C17.377 32.7566 18.0948 33.4536 18.965 33.4536C19.4 33.4536 19.7916 33.2794 20.0744 33.018C20.0744 33.018 20.0962 33.0398 20.0744 33.0616C20.0092 33.4536 19.8786 34.8913 21.3796 35.4794C21.9887 35.719 22.4891 35.5447 22.9242 35.2398C23.0547 35.1526 23.0764 35.1962 23.0547 35.3051C22.9894 35.6754 23.0764 36.4596 24.1859 36.917C25.0343 37.2655 25.5346 36.917 25.8609 36.612C26.0132 36.4814 26.0349 36.5031 26.0567 36.6992C26.1002 37.7665 26.9921 38.616 28.058 38.616C29.1675 38.616 30.0594 37.7229 30.0594 36.612C30.0376 35.5229 29.1457 34.6299 28.0363 34.6081Z" fill="white"/>
<path d="M29.7986 13C16.6593 13 6 19.9921 6 28.596C6 28.8139 6 29.4238 6 29.5109C6 38.6158 15.3106 46 29.7986 46C44.2866 46 53.5972 38.6158 53.5972 29.5109V28.596C53.5972 19.9921 42.9378 13 29.7986 13ZM52.5095 26.8535C47.3321 28.0079 43.4817 29.6851 42.5028 30.099C40.2404 28.1168 35.0195 23.5861 33.6055 22.5188C32.8006 21.9089 32.2568 21.5822 31.7564 21.4515C31.5389 21.3861 31.2343 21.3208 30.8428 21.3208C30.4729 21.3208 30.1031 21.3861 29.6898 21.5168C28.7762 21.8 27.8625 22.5406 26.9924 23.2376V23.2594C26.1657 23.9129 25.3173 24.5881 24.6865 24.7406C24.4037 24.8059 24.1209 24.8277 23.8381 24.8277C23.1202 24.8277 22.4676 24.6099 22.2283 24.3049C22.1848 24.2614 22.2065 24.1743 22.3153 24.0436L22.3371 24.0218L24.3166 21.8871C25.8829 20.3188 27.3404 18.8594 30.734 18.7723C30.7993 18.7723 30.8428 18.7723 30.908 18.7723C33.0181 18.7723 35.1282 19.7089 35.3458 19.8178C37.3254 20.7762 39.3485 21.2772 41.4151 21.2772C43.5469 21.2772 45.7441 20.7545 48.05 19.6871C50.4211 21.7347 52.0309 24.196 52.5095 26.8535ZM29.7986 13.9149C36.7815 13.9149 43.0249 15.9188 47.2233 19.0772C45.2002 19.9485 43.2641 20.4059 41.3933 20.4059C39.479 20.4059 37.5647 19.9485 35.7156 19.0337C35.6286 18.9901 33.3009 17.8792 30.8645 17.8792C30.7993 17.8792 30.734 17.8792 30.6687 17.8792C27.819 17.9446 26.231 18.9465 25.1433 19.8396C24.0991 19.8614 23.1854 20.1228 22.3806 20.3406C21.6627 20.5366 21.0536 20.7109 20.4445 20.7109C20.2052 20.7109 19.7484 20.6891 19.7049 20.6891C19.0087 20.6673 15.5281 19.8178 12.7437 18.7723C16.9639 15.7881 23.0332 13.9149 29.7986 13.9149ZM11.9605 19.3822C14.8538 20.5802 18.3779 21.4951 19.5091 21.5604C19.8136 21.5822 20.1399 21.6257 20.488 21.6257C21.2276 21.6257 21.9672 21.4079 22.6851 21.2119C23.0984 21.103 23.577 20.9723 24.0556 20.8634C23.9251 20.9941 23.7946 21.1248 23.664 21.2554L21.6409 23.4337C21.4887 23.5861 21.1406 24.0218 21.3581 24.5446C21.4452 24.7624 21.6409 24.9584 21.8802 25.1327C22.3588 25.4594 23.229 25.6772 24.0121 25.6772C24.3166 25.6772 24.5994 25.6554 24.8605 25.5901C25.7089 25.3941 26.6008 24.697 27.5362 23.9347C28.2758 23.3465 29.3418 22.5842 30.1684 22.3663C30.4077 22.301 30.6687 22.2574 30.908 22.2574C30.9733 22.2574 31.0385 22.2574 31.1038 22.2792C31.6476 22.3446 32.1697 22.5406 33.0834 23.2376C34.7367 24.4792 42.0677 30.9049 42.1329 30.9703C42.1329 30.9703 42.6115 31.3842 42.568 32.0594C42.5463 32.4297 42.3505 32.7564 41.9807 32.996C41.6761 33.1921 41.3498 33.301 41.0235 33.301C40.5232 33.301 40.1969 33.0614 40.1751 33.0614C40.1534 33.0396 37.6299 30.7307 36.7163 29.9465C36.564 29.8158 36.4335 29.7069 36.2812 29.7069C36.1942 29.7069 36.1289 29.7505 36.0854 29.7941C35.9331 29.9683 36.1072 30.2297 36.3029 30.3822L39.2397 33.3446C39.2397 33.3446 39.6095 33.6931 39.653 34.1505C39.6748 34.6297 39.4355 35.0436 38.9569 35.3703C38.6088 35.6099 38.2608 35.7188 37.9127 35.7188C37.4559 35.7188 37.1513 35.5228 37.0861 35.4574L36.6728 35.0436C35.9114 34.2812 35.1065 33.497 34.5191 33.0178C34.3669 32.9089 34.2363 32.8 34.0841 32.8C34.0188 32.8 33.9535 32.8218 33.8883 32.8871C33.823 32.9525 33.7795 33.0832 33.9318 33.3228C33.9971 33.4099 34.0841 33.497 34.0841 33.497L36.2159 35.9149C36.2377 35.9366 36.651 36.4376 36.2594 36.9386L36.1724 37.0257C36.1072 37.0911 36.0419 37.1564 35.9766 37.2218C35.6068 37.5267 35.1282 37.5485 34.9325 37.5485C34.8237 37.5485 34.7367 37.5485 34.6497 37.5267C34.4321 37.4832 34.3016 37.4396 34.2363 37.3525L34.2146 37.3307C34.1058 37.2 33.0181 36.1109 32.1262 35.3703C32.0175 35.2614 31.8652 35.1525 31.7129 35.1525C31.6476 35.1525 31.5824 35.1743 31.5171 35.2396C31.3431 35.4356 31.6041 35.7188 31.7129 35.8277L33.5402 37.8535C33.5402 37.8752 33.5185 37.9188 33.475 37.9842C33.4097 38.0713 33.1922 38.2891 32.5178 38.3762C32.4308 38.3762 32.3655 38.398 32.2785 38.398C31.6041 38.398 30.8645 38.0713 30.4947 37.8752C30.6687 37.505 30.7557 37.1129 30.7557 36.7208C30.7557 35.2178 29.5375 33.998 28.0365 33.998C28.0148 33.998 27.9713 33.998 27.9495 33.998C27.993 33.301 27.906 32.0158 26.5573 31.4277C26.1657 31.2535 25.7959 31.1663 25.4261 31.1663C25.1433 31.1663 24.8605 31.2099 24.5994 31.3188C24.3166 30.7743 23.8598 30.3822 23.2725 30.1861C22.9462 30.0772 22.6199 30.0119 22.2935 30.0119C21.7279 30.0119 21.2276 30.1861 20.7708 30.4911C20.3357 29.9465 19.6831 29.6198 18.987 29.6198C18.3779 29.6198 17.7905 29.8594 17.3554 30.295C16.7899 29.8594 14.5275 28.4218 8.50168 27.0495C8.21888 26.9842 7.56627 26.7881 7.15295 26.6792C7.67504 23.9129 9.39358 21.4297 11.9605 19.3822ZM23.1419 35.1307L23.0767 35.0653H23.0114C22.9679 35.0653 22.9027 35.0871 22.8374 35.1307C22.5328 35.3485 22.2283 35.4574 21.9455 35.4574C21.7715 35.4574 21.6192 35.4139 21.4452 35.3703C20.0529 34.8257 20.1617 33.497 20.2269 33.105C20.2269 33.0178 20.2269 32.9525 20.1617 32.9089L20.0529 32.8218L19.9659 32.9089C19.6831 33.1703 19.335 33.3228 18.9652 33.3228C18.1603 33.3228 17.5077 32.6693 17.5077 31.8634C17.5077 31.0574 18.1603 30.404 18.9652 30.404C19.6831 30.404 20.314 30.9485 20.401 31.6673L20.4445 32.0594L20.662 31.7327C20.6838 31.6891 21.2711 30.796 22.3588 30.796C22.5546 30.796 22.7721 30.8396 22.9897 30.905C23.8598 31.1663 23.9903 31.9505 24.0121 32.2772C24.0338 32.4733 24.1644 32.4733 24.1861 32.4733C24.2514 32.4733 24.3166 32.4297 24.3602 32.3861C24.5124 32.2119 24.8822 31.9287 25.4261 31.9287C25.6871 31.9287 25.9482 31.9941 26.231 32.103C27.6015 32.6911 26.9706 34.4337 26.9706 34.4554C26.8618 34.7386 26.8401 34.8693 26.9488 34.9347L26.9924 34.9564H27.0359C27.1011 34.9564 27.1664 34.9347 27.2969 34.8911C27.4927 34.8257 27.7537 34.7386 28.0365 34.7386C29.059 34.7604 29.9074 35.5881 29.9074 36.6119C29.9074 37.6356 29.059 38.4851 28.0365 38.4851C27.0359 38.4851 26.2092 37.701 26.1657 36.699C26.1657 36.6119 26.144 36.3941 25.9699 36.3941C25.8829 36.3941 25.8177 36.4376 25.7524 36.503C25.5349 36.699 25.2521 36.9168 24.8387 36.9168C24.6429 36.9168 24.4472 36.8733 24.2296 36.7861C23.1637 36.3505 23.1419 35.6317 23.1854 35.3267C23.1854 35.2614 23.2072 35.196 23.1419 35.1307ZM29.7986 43.2337C17.1597 43.2337 6.91366 36.6772 6.91366 28.5743C6.91366 28.2475 6.93541 27.9208 6.97892 27.5941C7.08769 27.6158 8.08836 27.8554 8.28414 27.899C14.4404 29.2713 16.4853 30.6871 16.8334 30.9703C16.7246 31.2535 16.6593 31.5584 16.6593 31.8634C16.6593 33.1485 17.7035 34.1723 18.9652 34.1723C19.1175 34.1723 19.248 34.1505 19.4003 34.1287C19.5961 35.0653 20.2052 35.7842 21.1406 36.1545C21.4234 36.2634 21.6844 36.3069 21.9672 36.3069C22.1413 36.3069 22.3153 36.2852 22.4893 36.2416C22.6634 36.6772 23.0549 37.2218 23.9251 37.5921C24.2296 37.7228 24.5342 37.7881 24.8387 37.7881C25.078 37.7881 25.3173 37.7446 25.5349 37.6574C25.9482 38.6812 26.9488 39.3564 28.0583 39.3564C28.7979 39.3564 29.494 39.0515 30.0161 38.5287C30.4512 38.7683 31.3866 39.2257 32.322 39.2257C32.4525 39.2257 32.5613 39.2257 32.6701 39.204C33.6055 39.0951 34.0406 38.7248 34.2363 38.4416C34.2799 38.398 34.3016 38.3327 34.3234 38.2891C34.5409 38.3545 34.7802 38.398 35.063 38.398C35.5633 38.398 36.0637 38.2238 36.564 37.8752C37.0426 37.5267 37.3906 37.0257 37.4341 36.5901V36.5683C37.6082 36.6119 37.7605 36.6119 37.9345 36.6119C38.4566 36.6119 38.9787 36.4594 39.4572 36.1327C40.4144 35.501 40.5667 34.6951 40.5667 34.1723C40.7407 34.2158 40.893 34.2158 41.067 34.2158C41.5674 34.2158 42.0459 34.0634 42.5028 33.7802C43.0901 33.4099 43.4382 32.8218 43.5034 32.1465C43.5469 31.6891 43.4164 31.2317 43.1771 30.8396C44.7652 30.1644 48.398 28.8356 52.6618 27.8554C52.6835 28.0951 52.6835 28.3347 52.6835 28.596C52.6835 36.6772 42.4375 43.2337 29.7986 43.2337Z" fill="#0A0080"/>
</svg>
