<svg width="130" height="60" viewBox="0 0 130 60" fill="none" xmlns="http://www.w3.org/2000/svg">
<rect width="130" height="60" fill="white"/>
<path d="M69.5953 24.9717C69.5953 25.8196 69.5953 26.6711 69.5953 27.519C69.5953 27.7992 69.5055 27.8782 69.236 27.8782C68.8049 27.8782 68.3738 27.8567 67.9426 27.8782C67.6408 27.8962 67.5618 27.7848 67.5834 27.4974C67.5834 26.1034 67.5834 24.7094 67.5834 23.319C67.5834 23.1502 67.5834 22.9813 67.5834 22.816C67.5474 21.8532 67.048 21.343 66.1463 21.3394C65.9474 21.3274 65.7481 21.3569 65.5612 21.426C65.3743 21.4951 65.2038 21.6023 65.0605 21.7408C64.9173 21.8793 64.8044 22.0461 64.7291 22.2306C64.6537 22.4151 64.6176 22.6132 64.6229 22.8124C64.6014 24.3286 64.6014 25.8471 64.6229 27.3681C64.6229 27.7525 64.5223 27.8854 64.1343 27.8495C63.7589 27.8189 63.3816 27.8189 63.0062 27.8495C62.6469 27.8782 62.5894 27.7309 62.593 27.4184C62.593 25.9813 62.593 24.519 62.593 23.0711C62.6039 22.8159 62.5773 22.5605 62.514 22.3131C62.4397 21.982 62.2406 21.6924 61.9583 21.5044C61.6759 21.3164 61.3319 21.2444 60.9978 21.3035C60.6268 21.3183 60.2758 21.4763 60.0186 21.7442C59.7614 22.0121 59.6179 22.3692 59.6182 22.7406C59.6182 24.1597 59.6182 25.5825 59.6182 27.0016C59.611 27.1416 59.611 27.2819 59.6182 27.4219C59.6542 27.713 59.5356 27.81 59.259 27.7812C58.8135 27.7597 58.368 27.7812 57.9225 27.7812C57.7069 27.7812 57.6207 27.7237 57.6243 27.4974C57.6458 25.7872 57.5308 24.0699 57.6602 22.3598C57.6722 21.7044 57.8899 21.0695 58.2826 20.5447C58.6752 20.0199 59.2229 19.6318 59.8482 19.4353C61.1631 18.9826 62.4062 19.1622 63.4409 20.1933C63.6529 20.4053 63.7283 20.2652 63.8577 20.1358C64.2138 19.8077 64.6353 19.5585 65.0945 19.4046C65.5536 19.2506 66.0401 19.1954 66.5221 19.2426C67.0041 19.2897 67.4707 19.4381 67.8913 19.6781C68.312 19.9181 68.6772 20.2443 68.963 20.6352C69.3144 21.1239 69.5154 21.7045 69.5414 22.3059C69.5666 23.1825 69.5414 24.0627 69.5414 24.9394L69.5953 24.9717Z" fill="#28307B"/>
<path d="M107.61 20.3263C107.61 19.6365 107.61 18.9467 107.61 18.2569C107.613 18.0086 107.67 17.7638 107.777 17.5399C107.885 17.3161 108.04 17.1186 108.232 16.9616C108.425 16.8045 108.649 16.6917 108.89 16.6312C109.131 16.5707 109.382 16.5639 109.626 16.6114C109.888 16.6581 109.827 16.8413 109.827 16.9958C109.827 18.3323 109.827 19.6688 109.849 21.0053C109.849 22.0832 109.849 23.1789 109.849 24.2675C109.891 25.1474 109.595 26.0101 109.021 26.6783C108.447 27.3465 107.639 27.7695 106.762 27.8603C105.974 27.9779 105.17 27.9437 104.395 27.7597C103.769 27.6285 103.195 27.3143 102.747 26.857C102.3 26.3997 101.998 25.8199 101.88 25.1909C101.496 23.7393 101.685 22.1956 102.408 20.8796C102.82 20.1585 103.495 19.6238 104.291 19.3864C105.087 19.1489 105.943 19.2269 106.683 19.6042C107.017 19.8119 107.327 20.0539 107.61 20.3263ZM107.671 23.725C107.677 23.2795 107.613 22.8358 107.481 22.4101C107.379 22.0367 107.155 21.708 106.846 21.4757C106.536 21.2435 106.158 21.121 105.771 21.1275C104.945 21.1275 104.402 21.5514 104.125 22.3993C103.888 23.1915 103.888 24.0358 104.125 24.828C104.186 25.1877 104.369 25.5156 104.642 25.7574C104.915 25.9992 105.263 26.1404 105.627 26.1573C106.604 26.1969 107.165 25.834 107.481 24.9502C107.623 24.5579 107.688 24.1419 107.671 23.725Z" fill="#28307B"/>
<path d="M86.7918 32.998C86.7918 32.2615 86.8205 31.622 86.7918 30.9897C86.7127 29.5741 87.8013 29.2508 88.7714 29.24C89.0265 29.24 89.0193 29.3981 89.0193 29.5777C89.0193 30.2603 89.0193 30.943 89.0193 31.6256C89.0193 33.3645 89.0193 35.1058 89.0193 36.8494C89.0193 38.8506 87.9235 40.162 85.9439 40.4817C84.9339 40.6566 83.8952 40.5471 82.9439 40.1656C81.823 39.7021 81.2553 38.7787 81.029 37.6506C80.7446 36.36 80.8831 35.0121 81.4242 33.8064C82.2577 31.9741 84.6146 31.2699 86.1271 32.3944C86.3355 32.5489 86.5115 32.7321 86.7918 32.998ZM86.8528 36.3932C86.8906 35.7714 86.7603 35.1509 86.4756 34.5968C85.8684 33.483 84.1547 33.4255 83.5655 34.4782C83.2725 34.9952 83.1114 35.5764 83.0964 36.1704C83.0813 36.7644 83.2128 37.353 83.4793 37.8842C83.6098 38.1715 83.8258 38.4115 84.0977 38.5716C84.3697 38.7317 84.6844 38.8041 84.999 38.7787C85.319 38.7953 85.6367 38.7163 85.9118 38.5519C86.1869 38.3875 86.4069 38.1451 86.5439 37.8554C86.7758 37.4044 86.8825 36.8994 86.8528 36.3932Z" fill="#00B696"/>
<path d="M75.7429 24.2245C74.8376 24.2245 73.9466 24.2245 73.0268 24.2245C72.7358 24.2245 72.6675 24.3215 72.7142 24.5838C72.7651 25.0547 72.9971 25.4874 73.3611 25.7904C73.7252 26.0934 74.1928 26.2431 74.6651 26.2077C75.2112 26.2077 75.7609 26.1502 76.1489 25.676C76.195 25.6285 76.2513 25.5922 76.3136 25.5697C76.3759 25.5473 76.4424 25.5394 76.5082 25.5466C77.0794 25.5466 77.6507 25.5466 78.2219 25.5466C78.5309 25.5466 78.5489 25.6508 78.4267 25.8879C78.2009 26.3781 77.8664 26.8104 77.4487 27.1521C77.0311 27.4938 76.5411 27.736 76.016 27.8604C75.3512 28.0441 74.6548 28.084 73.9734 27.9774C73.2919 27.8709 72.641 27.6203 72.064 27.2424C71.6404 26.9631 71.2852 26.5919 71.0246 26.1566C70.764 25.7212 70.6047 25.2328 70.5586 24.7275C70.3718 23.2688 70.44 21.8533 71.4496 20.6569C72.5274 19.3851 74.4711 18.9432 76.2064 19.5396C77.7154 20.0569 78.6243 21.3755 78.7393 23.2149C78.8004 24.2389 78.8004 24.2389 77.7836 24.2389L75.7429 24.2245ZM74.6256 22.7874C75.1286 22.7874 75.628 22.7874 76.131 22.7874C76.3932 22.7874 76.4902 22.7443 76.4292 22.4281C76.3416 22.0216 76.1134 21.6589 75.7849 21.404C75.4563 21.149 75.0483 21.018 74.6328 21.0341C74.2029 20.9983 73.7749 21.1232 73.4318 21.3847C73.0887 21.6462 72.8548 22.0257 72.7753 22.4497C72.7322 22.6617 72.7538 22.7874 73.0268 22.7766C73.5693 22.7802 74.0975 22.791 74.6256 22.791V22.7874Z" fill="#28307B"/>
<path d="M76.9229 36.8421C76.0463 36.8421 75.1661 36.8421 74.2894 36.8421C73.9302 36.8421 73.8906 36.9607 73.9302 37.2625C73.9793 37.6605 74.1621 38.0301 74.4486 38.3107C74.7351 38.5914 75.1084 38.7665 75.5074 38.8074C76.1792 38.872 76.8547 38.8756 77.3648 38.3044C77.4226 38.2537 77.491 38.2167 77.565 38.1962C77.6391 38.1757 77.7168 38.1721 77.7924 38.1858H79.3373C79.7648 38.1858 79.8115 38.2577 79.5923 38.6385C79.1682 39.4507 78.4498 40.0702 77.584 40.3702C76.9584 40.5928 76.2941 40.6859 75.6314 40.6439C74.9687 40.6019 74.3215 40.4257 73.729 40.1259C73.2653 39.9133 72.8567 39.597 72.5347 39.2014C72.2126 38.8059 71.9857 38.3416 71.8715 37.8445C71.5162 36.5838 71.6154 35.2383 72.1517 34.0434C72.935 32.4051 74.7026 31.665 76.6678 31.9668C78.8235 32.2973 79.9013 33.9428 79.9552 35.9691C79.9839 36.8457 79.9552 36.8493 79.0858 36.8493L76.9229 36.8421ZM75.8451 35.405C76.3445 35.405 76.8475 35.405 77.3469 35.405C77.6451 35.405 77.7421 35.3439 77.6738 35.0242C77.4834 34.1583 76.7972 33.6446 75.7948 33.6589C75.366 33.6473 74.9476 33.7917 74.6173 34.0653C74.2869 34.3388 74.067 34.7229 73.9984 35.1463C73.9589 35.3727 74.0667 35.4086 74.2535 35.405C74.7745 35.4086 75.3026 35.4122 75.8343 35.4122L75.8451 35.405Z" fill="#00B696"/>
<path d="M114.688 19.1838C118.09 19.0796 119.171 21.9538 118.977 24.0376C118.855 25.3633 118.36 26.5238 117.228 27.3106C116.326 27.9357 115.288 28.0291 114.228 27.9429C111.616 27.7741 110.542 25.622 110.495 23.84C110.446 22.8769 110.669 21.9195 111.138 21.0772C111.936 19.6868 113.19 19.155 114.688 19.1838ZM116.718 23.5777C116.727 23.15 116.67 22.7234 116.549 22.3131C116.446 21.9275 116.214 21.5884 115.893 21.3515C115.572 21.1145 115.18 20.9937 114.781 21.0089C114.375 20.9842 113.973 21.098 113.64 21.3317C113.307 21.5653 113.064 21.905 112.949 22.2951C112.698 23.1211 112.7 24.0035 112.956 24.828C113.078 25.2087 113.318 25.5408 113.64 25.7764C113.963 26.0121 114.353 26.1391 114.752 26.1391C115.152 26.1391 115.541 26.0121 115.864 25.7764C116.187 25.5408 116.427 25.2087 116.549 24.828C116.666 24.4217 116.723 24.0005 116.718 23.5777Z" fill="#28307B"/>
<path d="M101.067 23.3443C101.067 23.8904 101.067 24.4221 101.067 24.9754C101.072 25.5872 100.874 26.1834 100.504 26.6709C100.134 27.1584 99.6133 27.5097 99.0228 27.6699C97.9371 27.9927 96.7931 28.0688 95.6743 27.8927C95.1643 27.829 94.6912 27.5937 94.3327 27.2255C93.9743 26.8572 93.7518 26.3779 93.7019 25.8664C93.5474 24.5694 94.0827 23.5742 95.1893 23.1215C95.8989 22.8742 96.6384 22.7232 97.3881 22.6724C97.7552 22.6477 98.1175 22.5752 98.4659 22.4569C98.6013 22.4177 98.7192 22.3331 98.7996 22.2173C98.8801 22.1015 98.9183 21.9616 98.9078 21.8209C98.9163 21.673 98.8758 21.5264 98.7927 21.4037C98.7096 21.2809 98.5885 21.189 98.4479 21.1419C97.9183 20.955 97.3444 20.9337 96.8024 21.0808C96.6289 21.1398 96.4748 21.2448 96.3564 21.3847C96.238 21.5245 96.16 21.694 96.1306 21.8748C96.1261 21.9162 96.1129 21.9562 96.0918 21.9921C96.0707 22.028 96.0422 22.059 96.0083 22.0831C95.9743 22.1072 95.9357 22.1239 95.8948 22.1319C95.854 22.14 95.8119 22.1393 95.7713 22.1299C95.2683 22.1299 94.7654 22.1299 94.266 22.1299C93.9857 22.1299 93.9426 22.0221 93.9714 21.7707C94.1258 20.4557 94.963 19.5719 96.3857 19.3204C97.5013 19.1064 98.6546 19.2122 99.7126 19.6258C100.113 19.7599 100.459 20.0185 100.701 20.3637C100.944 20.7089 101.069 21.1226 101.06 21.5443C101.06 22.1443 101.06 22.7443 101.06 23.3407L101.067 23.3443ZM98.8826 24.3143C98.8826 23.7503 98.8826 23.7538 98.3653 23.9083C98.2611 23.9407 98.1497 23.9586 98.0419 23.9838C97.5199 24.0587 97.0054 24.1789 96.5042 24.3431C96.269 24.4365 96.0758 24.6124 95.9608 24.8378C95.8458 25.0633 95.8167 25.3229 95.8791 25.5682C95.9139 25.8054 96.0376 26.0205 96.225 26.1699C96.4125 26.3193 96.6497 26.3919 96.8887 26.373C98.1928 26.3334 98.9186 25.7191 98.8826 24.3143Z" fill="#28307B"/>
<path d="M103.446 40.6361C100.349 40.7403 98.9625 38.2397 99.1925 35.8074C99.3146 34.4781 99.7889 33.2925 100.935 32.5308C101.605 32.0927 102.38 31.8405 103.18 31.8001C103.98 31.7597 104.776 31.9325 105.487 32.3009C107.003 33.0195 107.538 34.4099 107.643 35.9907C107.732 37.0845 107.438 38.1752 106.813 39.0768C106.098 40.1223 105.009 40.6145 103.446 40.6361ZM105.383 36.2386C105.388 35.9299 105.36 35.6216 105.3 35.3188C105.247 34.9084 105.061 34.5267 104.77 34.2321C104.479 33.9375 104.1 33.7463 103.691 33.6877C103.26 33.607 102.815 33.6838 102.436 33.9041C102.058 34.1244 101.771 34.4735 101.628 34.8877C101.3 35.7731 101.306 36.748 101.646 37.629C101.98 38.5092 102.602 38.8577 103.622 38.8146C104.001 38.796 104.363 38.6549 104.655 38.4126C104.947 38.1703 105.152 37.8398 105.239 37.4709C105.352 37.0655 105.401 36.6447 105.383 36.2242V36.2386Z" fill="#00B696"/>
<path d="M91.8345 22.4388C91.7376 22.4334 91.6404 22.4334 91.5435 22.4388C91.0082 22.5107 90.6273 22.4388 90.4333 21.7993C90.2681 21.2568 89.7148 21.1095 89.1651 21.1095C88.8583 21.0786 88.5495 21.1431 88.2807 21.2942C88.0119 21.4453 87.7963 21.6756 87.6633 21.9538C87.4232 22.4818 87.2951 23.0539 87.2871 23.6339C87.2791 24.2139 87.3913 24.7893 87.6166 25.3238C87.8753 25.9813 88.4717 26.2328 89.316 26.1573C89.6203 26.1664 89.9168 26.0605 90.1465 25.8607C90.3762 25.661 90.5222 25.3821 90.5555 25.0795C90.6309 24.7454 90.7854 24.7022 91.0621 24.7202C91.6046 24.7202 92.1399 24.7202 92.6932 24.7202C92.9231 24.7202 93.0093 24.7525 92.959 25.022C92.8066 25.7693 92.425 26.4504 91.8673 26.9707C91.3097 27.491 90.6037 27.8246 89.8477 27.9249C89.0609 28.0383 88.2593 27.9919 87.4909 27.7884C86.9054 27.6237 86.3759 27.3026 85.9594 26.8594C85.5429 26.4163 85.255 25.868 85.1268 25.2735C84.7762 24.0147 84.8649 22.674 85.3783 21.4724C85.5484 21.0512 85.8047 20.6703 86.1308 20.3541C86.4568 20.0379 86.8455 19.7934 87.2717 19.6365C87.9501 19.3781 88.6748 19.2638 89.3998 19.3009C90.1247 19.338 90.834 19.5257 91.4824 19.852C92.4848 20.3227 92.8261 21.2388 92.9986 22.2484C93.0273 22.4137 92.9554 22.4747 92.7938 22.4711C92.474 22.4711 92.1543 22.4711 91.8345 22.4711V22.4388Z" fill="#28307B"/>
<path d="M64.4847 35.1033C64.4021 35.1033 64.3158 35.1033 64.2332 35.1033C63.723 35.1392 63.2883 35.1679 63.123 34.4709C63.0045 33.9859 62.4907 33.8027 61.9841 33.7524C61.3446 33.7129 60.7482 33.8674 60.4357 34.4709C60.1508 35.0159 59.9925 35.618 59.9726 36.2326C59.9527 36.8472 60.0717 37.4583 60.3207 38.0206C60.4621 38.3205 60.7 38.5642 60.9964 38.7127C61.2929 38.8613 61.6305 38.906 61.9554 38.8397C62.753 38.7391 63.0943 38.4517 63.2739 37.6685C63.3278 37.4242 63.4284 37.3523 63.662 37.3595C64.2176 37.3739 64.7745 37.3739 65.3326 37.3595C65.6308 37.3595 65.6919 37.4493 65.6236 37.7188C65.5106 38.3319 65.2339 38.903 64.8228 39.3717C64.4117 39.8404 63.8815 40.1891 63.2883 40.381C62.2226 40.744 61.0667 40.744 60.0009 40.381C59.4948 40.2142 59.0378 39.9248 58.6705 39.5387C58.3031 39.1526 58.037 38.6817 57.8956 38.1679C57.4893 36.953 57.5045 35.6366 57.9387 34.4314C58.5531 32.7069 60.1914 31.7764 62.171 31.9632C62.6589 32.0009 63.141 32.0938 63.6081 32.2398C64.9374 32.6817 65.4691 33.5584 65.6775 34.8554C65.7062 35.0458 65.6272 35.1033 65.4547 35.0997L64.4847 35.1033Z" fill="#00B696"/>
<path d="M97.2792 40.5319C96.9451 40.5067 96.6109 40.4708 96.2804 40.4564C95.2601 40.4133 94.9044 39.8026 94.9044 38.89C94.9044 37.6505 94.9044 36.411 94.9044 35.1715C94.9044 33.3751 94.9044 31.55 94.8828 29.7393C94.8828 29.4123 94.969 29.3153 95.3032 29.3153C96.8696 29.3153 97.0995 29.5488 97.0995 31.1332C97.0995 31.8518 96.963 31.8051 97.7067 31.8518C97.9474 31.8518 98.26 31.6973 98.4253 31.9811C98.5905 32.265 98.3319 32.9224 98.066 33.1488C97.8807 33.2992 97.6507 33.3839 97.4121 33.3895C97.1786 33.3895 97.1031 33.4973 97.1067 33.7272C97.1067 35.2038 97.1067 36.6804 97.1283 38.1571C97.1283 38.6349 97.3079 38.7894 97.8001 38.8002C98.4792 38.8002 98.4792 38.8002 98.4792 39.4972C98.4792 40.5283 98.4792 40.5283 97.4229 40.5283H97.2971L97.2792 40.5319Z" fill="#00B696"/>
<path d="M66.5273 37.9237C66.5633 37.2052 66.4842 36.386 66.574 35.5525C66.6367 34.7056 66.9868 33.9055 67.5664 33.2847C68.1459 32.664 68.9202 32.2599 69.7608 32.1394C70.1847 32.0585 70.6155 32.0188 71.047 32.0208C71.2734 32.0208 71.374 32.0963 71.3668 32.337C71.3668 32.8939 71.3668 33.4507 71.3668 34.0076C71.3668 34.2663 71.277 34.2986 71.0398 34.2627C70.7932 34.2268 70.5427 34.2268 70.2961 34.2627C69.2506 34.4208 68.7728 34.9274 68.7441 35.9908C68.7081 37.3381 68.7081 38.689 68.7441 40.0398C68.7441 40.4638 68.6327 40.6111 68.2052 40.5752C67.7612 40.5518 67.3162 40.5518 66.8722 40.5752C66.61 40.5752 66.5345 40.4818 66.5381 40.2159C66.5345 39.5009 66.5273 38.7788 66.5273 37.9237Z" fill="#00B696"/>
<path d="M79.7453 25.1333C79.7884 24.4148 79.6662 23.5094 79.8171 22.6184C80.2375 20.1035 82.2422 19.2161 84.2973 19.2807C84.5057 19.2807 84.5919 19.3706 84.5883 19.5825C84.5883 20.125 84.5883 20.6604 84.5883 21.2136C84.5883 21.44 84.5344 21.5478 84.2757 21.4975C84.0833 21.4669 83.8879 21.4597 83.6937 21.4759C83.2771 21.4557 82.8687 21.5973 82.554 21.8711C82.2393 22.145 82.0426 22.5299 82.0051 22.9453C81.9478 23.2738 81.9225 23.6071 81.9297 23.9405C81.9297 25.1118 81.9297 26.2794 81.9297 27.4507C81.9297 27.7057 81.883 27.8315 81.5884 27.8099C81.0746 27.7884 80.5572 27.8099 80.0435 27.8099C79.7992 27.8099 79.7309 27.7273 79.7345 27.4974C79.7489 26.7644 79.7453 26.0279 79.7453 25.1333Z" fill="#28307B"/>
<path d="M92.9706 36.35C92.9706 37.6146 92.9706 38.8829 92.9706 40.1511C92.9706 40.4278 92.8916 40.5104 92.6114 40.5104C92.1227 40.5104 91.6341 40.5104 91.1455 40.5104C90.8725 40.5104 90.7539 40.4385 90.7539 40.1296C90.7539 37.6218 90.7539 35.1141 90.7539 32.6063C90.7539 32.2794 90.8473 32.1608 91.1814 32.1824C91.6701 32.2075 92.1587 32.1824 92.6473 32.1824C92.8844 32.1824 92.9527 32.265 92.9491 32.5021C92.9491 33.7848 92.9491 35.0674 92.9491 36.35H92.9706Z" fill="#00B696"/>
<path d="M92.9449 30.3823V30.9356C92.9449 31.5032 92.9449 31.5068 92.3952 31.5068C91.9676 31.5068 91.5365 31.5068 91.1054 31.5068C90.8682 31.5068 90.7461 31.4565 90.7461 31.1835C90.7641 30.6697 90.7461 30.156 90.7461 29.6422C90.7461 29.423 90.7892 29.3081 91.0407 29.3153C91.5832 29.3153 92.1185 29.3153 92.6682 29.3153C92.8766 29.3153 92.9628 29.3584 92.9305 29.5991C92.9125 29.8622 92.9125 30.1263 92.9305 30.3895L92.9449 30.3823Z" fill="#00B696"/>
<path d="M75.8847 31.1728C74.8715 31.1728 74.9075 31.1728 75.1877 30.2028C75.3314 29.707 75.547 29.5273 76.0607 29.6028C76.4523 29.6638 76.9949 29.4267 77.2032 29.707C77.4116 29.9872 77.0164 30.4255 76.9446 30.7848C76.9435 30.8472 76.9282 30.9085 76.8998 30.964C76.8714 31.0196 76.8307 31.0679 76.7808 31.1053C76.7309 31.1428 76.6731 31.1683 76.6118 31.18C76.5505 31.1917 76.4874 31.1892 76.4272 31.1728C76.2465 31.162 76.0654 31.162 75.8847 31.1728Z" fill="#00B696"/>
<path d="M31.58 16.5016C20.9664 16.5016 12.3574 22.0214 12.3574 28.8136C12.3574 35.6059 20.9664 41.6634 31.58 41.6634C42.1935 41.6634 50.8025 35.6238 50.8025 28.8136C50.8025 22.0035 42.1935 16.5016 31.58 16.5016Z" fill="#00B696"/>
<path d="M25.317 25.0144C25.2991 25.0323 25.1201 25.2295 25.2454 25.3908C25.5496 25.7671 26.4624 25.9822 27.3931 25.785C27.948 25.6596 28.646 25.104 29.344 24.5485C30.0958 23.9571 30.8296 23.3656 31.5634 23.1327C32.3509 22.8818 32.8521 22.9893 33.1921 23.0968C33.5501 23.2043 33.9796 23.4552 34.6777 23.957C35.9663 24.9248 41.1389 29.4589 42.0517 30.2296C42.7676 29.907 46.204 28.5091 50.5533 27.5593C50.1774 25.2295 48.7813 23.0251 46.6336 21.2867C43.6446 22.5413 39.7607 23.294 36.1811 21.5556C36.1632 21.5556 34.2302 20.6416 32.333 20.6774C29.5051 20.7491 28.2702 21.9678 26.9815 23.276L25.317 25.0144Z" fill="white"/>
<path d="M41.8167 30.7134C41.763 30.6596 35.7314 25.3728 34.3532 24.3512C33.5657 23.7598 33.1183 23.5985 32.6529 23.5448C32.4202 23.5089 32.0802 23.5627 31.8475 23.6164C31.2032 23.7957 30.3799 24.3512 29.646 24.9247C28.8764 25.534 28.1605 26.1075 27.4983 26.2509C26.6392 26.448 25.6011 26.2151 25.1178 25.8925C24.9209 25.767 24.7957 25.6057 24.7241 25.4624C24.5451 25.0502 24.8673 24.7276 24.9209 24.6738L26.5855 22.8637C26.7823 22.6666 26.9792 22.4695 27.1761 22.2903C26.6392 22.3619 26.138 22.5053 25.6548 22.6308C25.0462 22.7921 24.4735 22.9534 23.8829 22.9534C23.6323 22.9534 22.3257 22.7383 22.0752 22.6666C20.5717 22.2544 18.8535 21.8601 16.8847 20.9282C14.5222 22.6845 12.9829 24.853 12.5176 27.2903C12.8576 27.38 13.7525 27.5771 13.9852 27.6309C19.3367 28.8316 21.0013 30.0503 21.3055 30.3012C21.6277 29.9427 22.1109 29.7098 22.63 29.7098C23.2206 29.7098 23.7576 30.0144 24.0797 30.4625C24.384 30.2116 24.8136 30.0144 25.3505 30.0144C25.6011 30.0144 25.8516 30.0682 26.1201 30.1399C26.7287 30.3549 27.0329 30.7492 27.194 31.1076C27.3909 31.018 27.6415 30.9463 27.9457 30.9463C28.2321 30.9463 28.5364 31.018 28.8406 31.1435C29.825 31.5736 29.9861 32.5413 29.8966 33.2761C29.9682 33.2761 30.0398 33.2582 30.1114 33.2582C31.2748 33.2582 32.2413 34.208 32.2413 35.3909C32.2413 35.7493 32.1518 36.0898 31.9907 36.3945C32.3129 36.5737 33.1183 36.9859 33.8342 36.8963C34.4069 36.8246 34.6217 36.6274 34.6933 36.5199C34.747 36.4482 34.8007 36.3586 34.747 36.2869L33.2436 34.6023C33.2436 34.6023 32.993 34.3693 33.0825 34.2797C33.172 34.1901 33.3151 34.3156 33.4225 34.4052C34.1922 35.0504 35.1229 36.0181 35.1229 36.0181C35.1407 36.036 35.1944 36.1436 35.5524 36.2153C35.8567 36.269 36.3757 36.2332 36.7516 35.9285C36.8411 35.8568 36.9306 35.7493 37.02 35.6597L37.0021 35.6776C37.3959 35.1758 36.9664 34.674 36.9664 34.674L35.1944 32.6847C35.1944 32.6847 34.9439 32.4517 35.0334 32.3621C35.105 32.2725 35.266 32.398 35.3913 32.4876C35.9462 32.9535 36.7337 33.7421 37.5033 34.4948C37.6465 34.6023 38.3087 35.0145 39.2036 34.441C39.7406 34.0826 39.8479 33.6525 39.83 33.3299C39.7943 32.8998 39.4542 32.5951 39.4542 32.5951L37.0379 30.1757C37.0379 30.1757 36.7874 29.9607 36.8769 29.8531C36.9485 29.7635 37.1095 29.889 37.2169 29.9786C37.9865 30.6237 40.0627 32.5234 40.0627 32.5234C40.0985 32.5413 40.8144 33.0611 41.6914 32.4876C42.0136 32.2904 42.2105 31.9858 42.2284 31.6274C42.2463 31.0718 41.8167 30.7134 41.8167 30.7134Z" fill="white"/>
<path d="M30.1314 33.7783C29.7555 33.7783 29.3439 33.9933 29.2902 33.9575C29.2544 33.9396 29.3081 33.7962 29.3439 33.7066C29.3797 33.617 29.8629 32.1474 28.6816 31.6277C27.7688 31.2334 27.1961 31.6815 27.0171 31.8786C26.9634 31.9324 26.9455 31.9324 26.9455 31.8607C26.9276 31.5919 26.8023 30.875 26.0148 30.6241C24.8873 30.2836 24.1534 31.0721 23.9744 31.3589C23.885 30.7137 23.348 30.2119 22.6858 30.2119C21.952 30.2119 21.3792 30.8033 21.3613 31.5202C21.3613 32.255 21.952 32.8284 22.6679 32.8284C23.0258 32.8284 23.348 32.6851 23.5807 32.47C23.5807 32.47 23.5986 32.4879 23.5807 32.5059C23.527 32.8284 23.4196 34.0113 24.6546 34.4951C25.1557 34.6923 25.5674 34.5489 25.9253 34.298C26.0327 34.2263 26.0506 34.2622 26.0327 34.3518C25.979 34.6564 26.0506 35.3016 26.9634 35.678C27.6615 35.9647 28.0731 35.678 28.3416 35.4271C28.4669 35.3195 28.4848 35.3375 28.5027 35.4988C28.5385 36.3769 29.2723 37.0758 30.1493 37.0758C31.0621 37.0758 31.7959 36.3411 31.7959 35.4271C31.778 34.531 31.0442 33.7962 30.1314 33.7783Z" fill="white"/>
<path d="M31.5805 16C20.7701 16 12 21.7528 12 28.8318C12 29.011 12 29.5128 12 29.5845C12 37.0757 19.6604 43.1511 31.5805 43.1511C43.5006 43.1511 51.161 37.0757 51.161 29.5845V28.8318C51.161 21.7528 42.3909 16 31.5805 16ZM50.2661 27.3981C46.0064 28.3479 42.8384 29.7279 42.033 30.0684C40.1716 28.4375 35.876 24.7098 34.7127 23.8317C34.0504 23.3299 33.603 23.0611 33.1913 22.9535C33.0123 22.8998 32.7618 22.846 32.4396 22.846C32.1353 22.846 31.8311 22.8998 31.491 23.0073C30.7393 23.2403 29.9876 23.8496 29.2716 24.4231V24.441C28.5915 24.9787 27.8935 25.5342 27.3745 25.6597C27.1418 25.7134 26.9091 25.7314 26.6764 25.7314C26.0858 25.7314 25.5488 25.5522 25.352 25.3012C25.3162 25.2654 25.3341 25.1937 25.4236 25.0862L25.4415 25.0683L27.0702 23.312C28.3588 22.0216 29.558 20.8209 32.3501 20.7492C32.4038 20.7492 32.4396 20.7492 32.4933 20.7492C34.2294 20.7492 35.9655 21.5198 36.1445 21.6094C37.7732 22.398 39.4378 22.8102 41.1381 22.8102C42.8921 22.8102 44.6998 22.3801 46.597 21.5019C48.5479 23.1865 49.8723 25.2116 50.2661 27.3981ZM31.5805 16.7527C37.3258 16.7527 42.4625 18.4015 45.9169 21.0001C44.2523 21.717 42.6594 22.0933 41.1202 22.0933C39.5451 22.0933 37.9701 21.717 36.4488 20.9643C36.3772 20.9284 34.4621 20.0144 32.4575 20.0144C32.4038 20.0144 32.3501 20.0144 32.2964 20.0144C29.9518 20.0682 28.6452 20.8926 27.7503 21.6273C26.8912 21.6453 26.1395 21.8603 25.4773 22.0395C24.8866 22.2008 24.3855 22.3442 23.8843 22.3442C23.6874 22.3442 23.3116 22.3263 23.2758 22.3263C22.7031 22.3084 19.8394 21.6094 17.5484 20.7492C21.0206 18.294 26.0142 16.7527 31.5805 16.7527ZM16.9041 21.251C19.2845 22.2367 22.184 22.9894 23.1147 23.0431C23.3653 23.0611 23.6338 23.0969 23.9201 23.0969C24.5287 23.0969 25.1372 22.9177 25.7278 22.7564C26.0679 22.6668 26.4616 22.5593 26.8554 22.4697C26.748 22.5772 26.6406 22.6847 26.5332 22.7922L24.8687 24.5844C24.7434 24.7098 24.4571 25.0683 24.636 25.4984C24.7076 25.6776 24.8687 25.8389 25.0656 25.9823C25.4594 26.2511 26.1753 26.4303 26.8196 26.4303C27.0702 26.4303 27.3029 26.4124 27.5176 26.3586C28.2157 26.1973 28.9495 25.6238 29.7191 24.9966C30.3276 24.5127 31.2046 23.8855 31.8848 23.7062C32.0816 23.6525 32.2964 23.6166 32.4933 23.6166C32.547 23.6166 32.6007 23.6166 32.6544 23.6346C33.1018 23.6883 33.5314 23.8496 34.2831 24.4231C35.6434 25.4446 41.675 30.7315 41.7287 30.7852C41.7287 30.7852 42.1225 31.1257 42.0867 31.6813C42.0688 31.986 41.9077 32.2548 41.6034 32.4519C41.3528 32.6132 41.0844 32.7028 40.8159 32.7028C40.4043 32.7028 40.1358 32.5057 40.1179 32.5057C40.1 32.4878 38.0238 30.5881 37.2721 29.9429C37.1468 29.8354 37.0394 29.7458 36.9141 29.7458C36.8425 29.7458 36.7888 29.7816 36.753 29.8175C36.6278 29.9608 36.7709 30.1759 36.932 30.3013L39.3483 32.7387C39.3483 32.7387 39.6525 33.0254 39.6883 33.4018C39.7062 33.796 39.5093 34.1365 39.1156 34.4054C38.8292 34.6025 38.5429 34.6921 38.2565 34.6921C37.8806 34.6921 37.63 34.5308 37.5764 34.4771L37.2363 34.1365C36.6099 33.5093 35.9476 32.8641 35.4644 32.4698C35.3391 32.3802 35.2317 32.2906 35.1064 32.2906C35.0527 32.2906 34.999 32.3086 34.9453 32.3623C34.8916 32.4161 34.8558 32.5236 34.9811 32.7207C35.0348 32.7924 35.1064 32.8641 35.1064 32.8641L36.8604 34.8534C36.8783 34.8713 37.2184 35.2835 36.8962 35.6957L36.8246 35.7674C36.7709 35.8212 36.7172 35.8749 36.6636 35.9287C36.3593 36.1796 35.9655 36.1975 35.8044 36.1975C35.715 36.1975 35.6434 36.1975 35.5718 36.1796C35.3928 36.1438 35.2854 36.1079 35.2317 36.0362L35.2138 36.0183C35.1243 35.9108 34.2294 35.0147 33.4956 34.4054C33.4061 34.3158 33.2808 34.2262 33.1555 34.2262C33.1018 34.2262 33.0481 34.2441 32.9944 34.2978C32.8513 34.4591 33.066 34.6921 33.1555 34.7817L34.659 36.4484C34.659 36.4663 34.6411 36.5022 34.6053 36.5559C34.5516 36.6276 34.3726 36.8068 33.8178 36.8785C33.7462 36.8785 33.6925 36.8965 33.6209 36.8965C33.066 36.8965 32.4575 36.6276 32.1532 36.4663C32.2964 36.1617 32.368 35.8391 32.368 35.5165C32.368 34.2799 31.3657 33.2763 30.1308 33.2763C30.1129 33.2763 30.0771 33.2763 30.0592 33.2763C30.095 32.7028 30.0234 31.6455 28.9137 31.1616C28.5915 31.0182 28.2873 30.9465 27.983 30.9465C27.7503 30.9465 27.5176 30.9824 27.3029 31.072C27.0702 30.6239 26.6943 30.3013 26.2111 30.1401C25.9426 30.0504 25.6741 29.9967 25.4057 29.9967C24.9403 29.9967 24.5287 30.1401 24.1528 30.391C23.7948 29.9429 23.2579 29.6741 22.6852 29.6741C22.184 29.6741 21.7008 29.8712 21.3428 30.2297C20.8774 29.8712 19.016 28.6884 14.0583 27.5594C13.8256 27.5056 13.2887 27.3443 12.9486 27.2547C13.3782 24.9787 14.7921 22.9356 16.9041 21.251ZM26.1037 34.2082L26.05 34.1545H25.9963C25.9605 34.1545 25.9068 34.1724 25.8531 34.2082C25.6025 34.3874 25.352 34.4771 25.1193 34.4771C24.9761 34.4771 24.8508 34.4412 24.7076 34.4054C23.5622 33.9573 23.6517 32.8641 23.7053 32.5415C23.7053 32.4698 23.7053 32.4161 23.6516 32.3802L23.5622 32.3086L23.4906 32.3802C23.2579 32.5953 22.9715 32.7207 22.6673 32.7207C22.005 32.7207 21.4681 32.1831 21.4681 31.52C21.4681 30.8569 22.005 30.3193 22.6673 30.3193C23.2579 30.3193 23.7769 30.7673 23.8485 31.3587L23.8843 31.6813L24.0633 31.4125C24.0812 31.3766 24.5645 30.6419 25.4594 30.6419C25.6204 30.6419 25.7994 30.6777 25.9784 30.7315C26.6943 30.9465 26.8017 31.5917 26.8196 31.8605C26.8375 32.0218 26.9449 32.0218 26.9628 32.0218C27.0165 32.0218 27.0702 31.986 27.106 31.9501C27.2313 31.8067 27.5355 31.5738 27.983 31.5738C28.1978 31.5738 28.4125 31.6275 28.6452 31.7171C29.7728 32.201 29.2537 33.6347 29.2537 33.6527C29.1643 33.8856 29.1464 33.9932 29.2359 34.0469L29.2716 34.0649H29.3074C29.3611 34.0649 29.4148 34.0469 29.5222 34.0111C29.6833 33.9573 29.8981 33.8856 30.1308 33.8856C30.972 33.9036 31.67 34.5846 31.67 35.4269C31.67 36.2692 30.972 36.9681 30.1308 36.9681C29.3074 36.9681 28.6273 36.323 28.5915 35.4986C28.5915 35.4269 28.5736 35.2477 28.4304 35.2477C28.3588 35.2477 28.3052 35.2835 28.2515 35.3373C28.0725 35.4986 27.8398 35.6778 27.4997 35.6778C27.3387 35.6778 27.1776 35.642 26.9986 35.5703C26.1216 35.2118 26.1037 34.6204 26.1395 34.3695C26.1395 34.3158 26.1574 34.262 26.1037 34.2082ZM31.5805 40.875C21.1817 40.875 12.7517 35.4807 12.7517 28.8139C12.7517 28.545 12.7696 28.2762 12.8054 28.0074C12.8949 28.0253 13.7182 28.2225 13.8793 28.2583C18.9445 29.3873 20.6269 30.5522 20.9132 30.7852C20.8238 31.0182 20.7701 31.2691 20.7701 31.52C20.7701 32.5774 21.6292 33.4197 22.6673 33.4197C22.7925 33.4197 22.8999 33.4018 23.0252 33.3838C23.1863 34.1545 23.6874 34.7459 24.4571 35.0505C24.6897 35.1402 24.9045 35.176 25.1372 35.176C25.2804 35.176 25.4236 35.1581 25.5667 35.1222C25.7099 35.4807 26.0321 35.9287 26.748 36.2334C26.9986 36.3409 27.2492 36.3947 27.4997 36.3947C27.6966 36.3947 27.8935 36.3588 28.0725 36.2871C28.4125 37.1294 29.2359 37.685 30.1487 37.685C30.7572 37.685 31.3299 37.4341 31.7595 37.004C32.1174 37.2011 32.8871 37.5775 33.6567 37.5775C33.7641 37.5775 33.8536 37.5775 33.943 37.5595C34.7127 37.4699 35.0706 37.1653 35.2317 36.9323C35.2675 36.8965 35.2854 36.8427 35.3033 36.8068C35.4823 36.8606 35.6792 36.8965 35.9118 36.8965C36.3235 36.8965 36.7351 36.7531 37.1468 36.4663C37.5406 36.1796 37.8269 35.7674 37.8627 35.409V35.391C38.0059 35.4269 38.1312 35.4269 38.2744 35.4269C38.7039 35.4269 39.1335 35.3014 39.5272 35.0326C40.3148 34.5129 40.44 33.8498 40.44 33.4197C40.5832 33.4555 40.7085 33.4555 40.8517 33.4555C41.2634 33.4555 41.6571 33.3301 42.033 33.0971C42.5162 32.7924 42.8026 32.3085 42.8563 31.753C42.8921 31.3766 42.7847 31.0003 42.5878 30.6777C43.8944 30.1221 46.8834 29.0289 50.3914 28.2225C50.4093 28.4196 50.4093 28.6167 50.4093 28.8318C50.4093 35.4807 41.9793 40.875 31.5805 40.875Z" fill="#0A0080"/>
</svg>
