<svg width="60" height="60" viewBox="0 0 60 60" fill="none" xmlns="http://www.w3.org/2000/svg">
<rect width="60" height="60" fill="#FFCE00"/>
<path d="M14.1951 44.7071C12.9512 44.7071 12 43.6829 12 42.5121V17.0488C12 15.8049 12.9512 14.7805 14.2683 14.7805H14.7073C15.8049 14.7805 16.3902 15.3659 17.1219 16.0244L43.6098 38.0488V16.9756C43.6098 15.7317 44.6342 14.7805 45.8047 14.7805C47.0488 14.7805 48 15.8049 48 16.9756V42.4388C48 43.6829 47.0488 44.6342 45.8047 44.6342H45.6587C44.561 44.6342 44.0487 44.1221 43.2438 43.4634L16.3902 21.1464V42.5121C16.3902 43.7559 15.3658 44.7071 14.1951 44.7071Z" fill="#1A1A13"/>
<path d="M22.5366 32.7072C22.5366 31.4634 23.4878 30.5121 24.7317 30.5121C25.9756 30.5121 26.9268 31.4634 26.9268 32.6342V45.805C26.9268 47.0488 25.9024 48 24.7317 48C23.4878 48 22.5366 46.9755 22.5366 45.805V32.7072Z" fill="#1A1A13"/>
<path d="M33.1462 41.4146C33.1462 40.1708 34.0974 39.2196 35.3415 39.2196C36.5123 39.2196 37.4635 40.1708 37.5367 41.4146V45.805C37.5367 47.0488 36.5123 48 35.3415 48C34.0974 48 33.1462 46.9755 33.1462 45.805V41.4146Z" fill="#1A1A13"/>
<path d="M33.1462 14.1951C33.1462 12.9512 34.0974 12 35.3415 12C36.5123 12 37.4635 12.9512 37.5367 14.1951V26.561C37.5367 27.8048 36.5123 28.7559 35.3415 28.7559C34.0974 28.7559 33.1462 27.7317 33.1462 26.561V14.1951Z" fill="#1A1A13"/>
<path d="M22.5366 14.1951C22.5366 12.9512 23.4878 12 24.7317 12C25.9756 12 26.9268 12.9512 26.9268 14.1951V17.8537C26.9268 19.0976 25.9024 20.0488 24.7317 20.0488C23.4878 20.0488 22.5366 19.0244 22.5366 17.8537V14.1951Z" fill="#1A1A13"/>
</svg>
