<svg width="130" height="60" viewBox="0 0 130 60" fill="none" xmlns="http://www.w3.org/2000/svg">
<rect width="130" height="60" fill="white"/>
<path d="M115.318 11H15.2292C13.4458 11 12 12.4458 12 14.2292V45.7708C12 47.5542 13.4458 49 15.2292 49H115.318C117.102 49 118.548 47.5542 118.548 45.7708V14.2292C118.548 12.4458 117.102 11 115.318 11Z" fill="#FFCE00"/>
<path d="M44.6311 30.3238V30.2832C44.6311 26.3167 47.6569 23.0383 51.8769 23.0383C56.1368 23.0383 59.0829 26.3167 59.0829 30.2427V30.2832C59.0829 34.2498 56.0573 37.5281 51.8371 37.5281C47.617 37.5281 44.6311 34.2498 44.6311 30.3238ZM56.5749 30.3238V30.2832C56.5749 27.5714 54.6241 25.3049 51.8769 25.3049C49.1299 25.3049 47.2189 27.531 47.2189 30.2427V30.2832C47.2189 32.995 49.1697 35.2616 51.9167 35.2616C54.6637 35.2616 56.5749 33.0356 56.5749 30.3238ZM62.6661 24.4144V36.1925C62.6661 36.8805 63.1837 37.4067 63.8605 37.4067C64.5372 37.4067 65.0548 36.8805 65.0548 36.1925V27.7738L68.3992 32.8736C68.6778 33.2783 68.9564 33.5212 69.3945 33.5212C69.8324 33.5212 70.1509 33.2783 70.4295 32.8736L73.8137 27.7333V36.1521C73.8137 36.7996 74.3709 37.3663 75.008 37.3663C75.6849 37.3663 76.2423 36.8401 76.2423 36.1521V24.4144C76.2423 23.7263 75.7247 23.1597 75.008 23.1597H74.7692C74.2915 23.1597 73.933 23.3621 73.6544 23.8073L69.4342 30.4856L65.2938 23.8478C65.0548 23.4835 64.6965 23.2002 64.179 23.2002H63.9402C63.2235 23.1597 62.6661 23.7263 62.6661 24.4144ZM79.7456 35.7069L84.8815 24.0906C85.1601 23.4835 85.6378 23.0788 86.3546 23.0788H86.474C87.1507 23.0788 87.6285 23.443 87.9073 24.0906L93.043 35.7069C93.1226 35.8687 93.1625 36.071 93.1625 36.233C93.1625 36.8805 92.6847 37.4067 92.008 37.4067C91.4506 37.4067 91.0523 37.0831 90.8136 36.5569L89.6988 33.926H82.9705L81.8159 36.6378C81.6169 37.1234 81.2187 37.4067 80.7011 37.4067C80.0642 37.4067 79.5865 36.9211 79.5865 36.2734C79.5865 36.0711 79.6661 35.8687 79.7456 35.7069ZM88.8229 31.6998L86.3944 26.0334L83.9658 31.6998H88.8229ZM96.5067 24.4954C96.5067 23.8073 97.0242 23.2407 97.7409 23.2407H101.682C106.022 23.2407 109.048 26.2762 109.048 30.2023V30.2427C109.048 34.2092 106.022 37.2449 101.682 37.2449H97.7409C97.0641 37.2449 96.5067 36.7187 96.5067 35.9901V24.4954ZM101.682 35.0592C104.589 35.0592 106.5 33.0759 106.5 30.3238V30.2832C106.5 27.531 104.589 25.5072 101.682 25.5072H98.9352V35.0592H101.682ZM21.5 36.9211C21.5 37.5687 22.0176 38.1352 22.6944 38.1352C23.3314 38.1352 23.8887 37.6091 23.8887 36.9211V25.1025L38.4999 37.4472C38.9378 37.8116 39.2166 38.0949 39.8138 38.0949H39.8933C40.5702 38.0949 41.0877 37.5687 41.0877 36.8805V22.7954C41.0877 22.1478 40.5702 21.5812 39.8933 21.5812C39.2564 21.5812 38.699 22.1074 38.699 22.7954V34.4521L24.2869 22.2693C23.8887 21.905 23.5702 21.5812 22.9731 21.5812H22.7342C22.0176 21.5812 21.5 22.1478 21.5 22.8359V36.9211ZM28.4274 30.2832C27.7506 30.2832 27.233 30.8094 27.233 31.4974V38.7425C27.233 39.39 27.7506 39.9567 28.4274 39.9567C29.0644 39.9567 29.6217 39.4305 29.6217 38.7425V31.457C29.6217 30.8094 29.1042 30.2832 28.4274 30.2832ZM34.2002 35.0998C33.5233 35.0998 33.0057 35.626 33.0057 36.314V38.7425C33.0057 39.39 33.5233 39.9567 34.2002 39.9567C34.8372 39.9567 35.3946 39.4305 35.3946 38.7425V36.314C35.3548 35.626 34.8372 35.0998 34.2002 35.0998ZM34.2002 20.0432C33.5233 20.0432 33.0057 20.5693 33.0057 21.2574V28.0976C33.0057 28.7452 33.5233 29.3118 34.2002 29.3118C34.8372 29.3118 35.3946 28.7857 35.3946 28.0976V21.2574C35.3548 20.5693 34.8372 20.0432 34.2002 20.0432ZM28.4274 20.0432C27.7506 20.0432 27.233 20.5693 27.233 21.2574V23.2811C27.233 23.9287 27.7506 24.4954 28.4274 24.4954C29.0644 24.4954 29.6217 23.9692 29.6217 23.2811V21.2574C29.6217 20.5693 29.1042 20.0432 28.4274 20.0432Z" fill="#1A1A13"/>
</svg>
