<svg width="60" height="60" viewBox="0 0 60 60" fill="none" xmlns="http://www.w3.org/2000/svg">
<rect width="60" height="60" fill="white"/>
<rect x="13" y="11" width="38" height="38" rx="4" fill="#FFCE00"/>
<path d="M20.8364 37.6184C20.8364 38.3399 21.413 38.971 22.1669 38.971C22.8765 38.971 23.4974 38.3848 23.4974 37.6184V24.453L39.7736 38.2046C40.2614 38.6105 40.572 38.926 41.2373 38.926H41.3258C42.0798 38.926 42.6564 38.3399 42.6564 37.5733V21.8831C42.6564 21.1617 42.0798 20.5305 41.3258 20.5305C40.6163 20.5305 39.9954 21.1166 39.9954 21.8831V34.8682L23.9409 21.2969C23.4974 20.8912 23.1426 20.5305 22.4774 20.5305H22.2112C21.413 20.5305 20.8364 21.1617 20.8364 21.9282V37.6184ZM28.5532 30.2242C27.7993 30.2242 27.2227 30.8103 27.2227 31.5767V39.6475C27.2227 40.3687 27.7993 41 28.5532 41C29.2628 41 29.8837 40.4139 29.8837 39.6475V31.5317C29.8837 30.8103 29.3072 30.2242 28.5532 30.2242ZM34.9839 35.5896C34.2299 35.5896 33.6533 36.1757 33.6533 36.9422V39.6475C33.6533 40.3687 34.2299 41 34.9839 41C35.6936 41 36.3145 40.4139 36.3145 39.6475V36.9422C36.2701 36.1757 35.6936 35.5896 34.9839 35.5896ZM34.9839 18.8171C34.2299 18.8171 33.6533 19.4033 33.6533 20.1698V27.7895C33.6533 28.5109 34.2299 29.142 34.9839 29.142C35.6936 29.142 36.3145 28.5559 36.3145 27.7895V20.1698C36.2701 19.4033 35.6936 18.8171 34.9839 18.8171ZM28.5532 18.8171C27.7993 18.8171 27.2227 19.4033 27.2227 20.1698V22.4241C27.2227 23.1455 27.7993 23.7767 28.5532 23.7767C29.2628 23.7767 29.8837 23.1906 29.8837 22.4241V20.1698C29.8837 19.4033 29.3072 18.8171 28.5532 18.8171Z" fill="#1A1A13"/>
</svg>
