<svg width="130" height="60" viewBox="0 0 130 60" fill="none" xmlns="http://www.w3.org/2000/svg">
<rect width="130" height="60" fill="white"/>
<g clip-path="url(#clip0_308_139)">
<path d="M12.3992 39.0884H9.73975V31.1533H12.3992C15.2129 31.1533 16.7209 32.5033 16.7209 35.1154C16.7209 37.7052 15.4682 39.0884 12.3992 39.0884ZM12.2065 32.3604H11.3345V37.8808H12.1872C14.3842 37.9248 15.0925 36.8714 15.0925 35.1263C15.0925 33.2056 14.0759 32.3604 12.2065 32.3604Z" fill="#1C62B7"/>
<path d="M19.159 35.7409C19.2023 35.0164 19.5637 34.3469 20.3972 34.3469C21.2066 34.3469 21.6065 34.9393 21.5727 35.7409H19.159ZM20.4453 33.4142C18.3206 33.4142 17.5835 34.8958 17.5835 36.2893C17.5835 37.9469 18.4314 39.1867 20.243 39.2416C21.6835 39.253 22.9603 38.8247 23.047 37.2774H21.5727C21.5727 37.9029 21.0572 38.3089 20.455 38.3089C19.4384 38.3089 19.1156 37.5736 19.1011 36.6736L23.1723 36.6627C23.2927 35.0164 22.5652 33.4142 20.4453 33.4142Z" fill="#1C62B7"/>
<path d="M29.7098 39.0884H28.1873L28.1777 38.1883C27.9224 38.9014 27.2141 39.2639 26.3469 39.2639C25.3159 39.2639 24.3426 38.6492 24.333 37.1785V33.6116H25.8747V36.9698C25.8651 37.7601 26.1783 38.1992 26.9347 38.2101C27.6188 38.2101 28.1777 37.8259 28.1777 36.7616V33.6116H29.7098V39.0884Z" fill="#1C62B7"/>
<path d="M31.6856 33.6338V32.7664L33.1743 31.9984V33.6338H34.5956V34.698H33.1743V37.3432C33.1743 37.8807 33.3622 38.1883 33.9211 38.2101C34.1331 38.2101 34.3258 38.2318 34.6052 38.1552V39.0992C33.8777 39.1981 33.0394 39.3845 32.3456 39.0221C31.8205 38.7481 31.6856 38.265 31.6856 37.497V34.698H30.4907V33.6338H31.6856Z" fill="#1C62B7"/>
<path d="M40.3817 36.7284C40.6274 37.2116 40.6178 37.848 40.3143 38.2871C39.7891 39.0769 38.6473 39.2747 37.7656 39.2529C36.5129 39.1758 35.4 38.8578 35.453 37.3871H36.9755C36.961 38.0236 37.3657 38.254 37.9439 38.2758C38.5027 38.2758 39.0616 38.0893 39.0616 37.5844C39.0616 37.1784 38.6714 37.0029 38.1703 36.8931C37.597 36.7724 37.1874 36.7176 36.5467 36.4649C36.036 36.2235 35.5301 35.8175 35.5301 35.0495C35.5301 34.4126 36.036 33.93 36.696 33.6664C37.1393 33.4799 37.6885 33.425 38.1607 33.425C39.2206 33.425 40.3721 33.787 40.3046 35.104H38.8737C38.8737 34.9066 38.8303 34.6871 38.6617 34.5555C38.3486 34.2811 37.385 34.2479 37.0863 34.698C36.749 35.4664 37.7897 35.5213 38.9412 35.8284C39.6687 35.9931 40.1601 36.2893 40.3817 36.7284Z" fill="#1C62B7"/>
<path d="M44.1929 33.4028C45.4118 33.4028 46.6741 33.9517 46.6741 35.4556L45.1757 35.4442C45.1757 34.742 44.7855 34.3137 44.0483 34.3469C43.8556 34.3577 43.6533 34.4235 43.4894 34.5115C43.0269 34.7751 42.8824 35.5104 42.8824 36.2458C42.8824 37.0247 43.0751 37.7823 43.422 38.0562C43.6533 38.2758 44.0676 38.3421 44.4241 38.2758C45.0167 38.1774 45.195 37.6062 45.2094 37.1127L46.6741 37.1018C46.6934 38.6709 45.3877 39.2638 44.0242 39.2416C42.2031 39.1758 41.3647 38.0127 41.3647 36.2893C41.3647 34.5447 42.3813 33.4028 44.1929 33.4028Z" fill="#1C62B7"/>
<path d="M47.8545 31.1642H49.3962V34.4785C49.8009 33.7762 50.4032 33.4691 51.2174 33.4691C52.2484 33.4691 53.2217 34.2262 53.2217 35.3127V39.0883H51.6992V35.7296C51.6992 34.9834 51.3764 34.4898 50.6489 34.4898C49.9696 34.4898 49.3866 34.9285 49.3866 35.9383V39.0883H47.8545V31.1642Z" fill="#1C62B7"/>
<path d="M55.992 35.7409C56.0353 35.0164 56.3919 34.3469 57.2302 34.3469C58.0348 34.3469 58.4395 34.9393 58.4057 35.7409H55.992ZM57.2783 33.4142C55.1536 33.4142 54.4165 34.8958 54.4165 36.2893C54.4165 37.9469 55.2645 39.1867 57.076 39.2416C58.5166 39.253 59.7933 38.8247 59.88 37.2774H58.4057C58.4057 37.9029 57.8902 38.3089 57.288 38.3089C56.2714 38.3089 55.9486 37.5736 55.9341 36.6736L60.0053 36.6627C60.1257 35.0164 59.3982 33.4142 57.2783 33.4142Z" fill="#1C62B7"/>
<path d="M69.511 38.8579C68.9907 39.0221 68.3162 39.0883 67.5935 39.0883H64.6738V31.175H67.7814C69.1689 31.175 70.6191 31.6033 70.677 33.1289C70.7107 34.0947 70.041 34.7089 69.2027 34.9833C69.8483 35.148 70.3734 35.3344 70.7299 35.9274C71.0431 36.454 71.0672 37.1567 70.8119 37.7383C70.542 38.2872 70.1277 38.6492 69.511 38.8579ZM67.7814 32.3604H66.2059V34.4127H67.8055C68.6438 34.4127 69.0774 34.0724 69.0774 33.4029C69.0774 32.7773 68.5763 32.3604 67.7814 32.3604ZM67.9404 35.598L66.2059 35.5871V37.9138H67.8826C69.0003 37.9138 69.3568 37.3758 69.3568 36.7067C69.3568 36.1909 68.9762 35.5871 67.9404 35.598Z" fill="#1C62B7"/>
<path d="M74.3863 38.298C73.8178 38.254 73.4805 37.9796 73.4805 37.4529C73.4902 36.3007 74.9789 36.4213 75.7498 36.4213C75.7835 37.3322 75.7064 38.2758 74.3863 38.298ZM77.2144 35.1153C77.2144 33.9957 75.9859 33.4359 74.5646 33.4468C73.2107 33.4691 72.2279 33.8968 72.2086 35.1811H73.6925C73.6588 34.5882 74.0731 34.2811 74.6224 34.2702C75.4462 34.2702 75.8172 34.6431 75.7401 35.5653C74.9211 35.6089 73.8274 35.554 73.0132 35.9273C72.4206 36.2018 71.9629 36.7175 71.9629 37.5404C71.9629 38.5942 72.7097 39.2307 73.8033 39.2638C74.5887 39.3405 75.48 39.0003 75.8269 38.2871L75.8847 39.0883H77.2144C77.2144 37.76 77.2144 36.454 77.2144 35.1153Z" fill="#1C62B7"/>
<path d="M78.6987 33.6115H80.2405V34.4898C80.6452 33.7762 81.3823 33.4691 82.211 33.4691C83.136 33.4691 84.0852 33.9958 84.0852 35.3127V39.0883H82.5434V35.7296C82.5531 35.0165 82.1965 34.4898 81.4931 34.4898C80.7993 34.4898 80.2308 34.9285 80.2308 35.9383V39.0883H78.6987V33.6115Z" fill="#1C62B7"/>
<path d="M89.4811 39.0883L87.1347 35.9491L89.2594 33.6116H91.071L88.8692 35.8943L91.4612 39.0883H89.4811ZM85.5737 31.1642H87.0914V39.0883H85.5737V31.1642Z" fill="#1C62B7"/>
<path d="M99.6372 19.7256H119.261V39.077H99.6372V19.7256ZM111.562 24.309L103.896 34.4131H107.36L115.055 24.309H111.562ZM102.369 36.3968H116.529V22.4062H102.369V36.3968Z" fill="#1C62B7"/>
</g>
<defs>
<clipPath id="clip0_308_139">
<rect width="111" height="21" fill="white" transform="translate(9 19)"/>
</clipPath>
</defs>
</svg>
