<svg width="130" height="60" viewBox="0 0 130 60" fill="none" xmlns="http://www.w3.org/2000/svg">
<rect width="130" height="60" fill="white"/>
<path d="M53.8621 8H76.4161V34.0221H53.8621V8Z" fill="#EA1C24"/>
<path d="M71.6702 21.7044C71.6739 21.7225 72.4016 26.458 64.1564 30.774C67.3648 30.7141 69.1496 30.9381 70.5819 30.1238C70.5819 30.1238 71.4767 29.7831 72.3094 28.5944C73.7464 26.2151 73.3324 22.961 71.6702 21.7044ZM71.693 12.6211C71.2971 12.2731 70.5169 11.5643 68.8838 11.3512C67.2499 11.138 63.2539 11.3144 63.2539 11.3144C63.3203 11.3291 69.3332 12.4534 67.7711 17.6398C69.0954 18.0992 70.2351 18.7978 70.9687 20.0434C72.6613 18.9249 73.9172 15.1945 71.693 12.6211ZM66.7218 19.9113C64.7027 22.6431 60.9763 25.0034 57.0762 26.2925V30.2799C61.8344 29.6286 68.517 26.3737 68.9941 22.5646C69.2148 20.849 67.1661 19.9601 66.7218 19.9113ZM57.0821 21.067V23.4506C57.553 23.293 61.5689 21.9437 63.8357 19.562C60.5498 19.562 57.4817 20.9054 57.0821 21.067ZM65.0664 14.9956C63.0501 12.5255 57.2265 13.9057 57.0821 13.9427V18.0764C61.7991 16.5582 65.4167 17.0592 65.4167 17.0592C65.4167 17.0592 65.5157 16.931 65.562 16.4821C65.6031 15.6731 65.2721 15.2322 65.0664 14.9956Z" fill="white"/>
<path d="M94.1768 38.8958L94.8664 38.1484C95.0518 37.9396 95.7048 37.282 95.7048 37.282H93.1955C93.1955 37.282 93.0264 37.6211 92.9352 37.8077C92.8465 37.9971 92.7718 38.1557 92.7094 38.2878L92.4852 38.7712C93.015 38.77 93.5787 38.8076 94.1768 38.8958ZM83.3259 45.3719C83.359 43.8242 83.3698 42.863 83.3513 42.4831C83.3204 41.7859 83.1208 41.2539 82.7606 40.8813C82.3959 40.5099 81.9035 40.242 81.2861 40.0727C80.6656 39.902 79.9929 39.8172 79.2605 39.8172C78.6186 39.8172 77.9488 39.8623 77.2639 39.9475C76.5753 40.0363 75.7857 40.181 74.8917 40.3935C74.8484 40.7854 74.8202 41.0765 74.8064 41.2706C74.7911 41.4633 74.7509 41.796 74.6805 42.2759C76.1166 41.698 77.4359 41.4104 78.6479 41.4104C78.975 41.4104 79.2724 41.4452 79.5433 41.5155C79.8174 41.5834 80.0416 41.709 80.2221 41.8875C80.3951 42.0656 80.4907 42.2857 80.5043 42.5434C80.5104 42.6754 80.4881 42.8051 80.4357 42.9307C80.3878 43.0565 80.3047 43.1783 80.1916 43.2929C80.0771 43.4102 79.9394 43.5047 79.7803 43.5791C79.619 43.649 79.4066 43.7242 79.1368 43.8031C78.8678 43.8777 78.6077 43.9407 78.3597 43.996C77.4162 44.2009 76.6635 44.4044 76.0943 44.6081C75.5266 44.8077 75.0939 45.0193 74.7962 45.2315C74.6167 45.364 74.4584 45.4986 74.3201 45.6358C74.3229 45.4947 74.3201 45.3555 74.3134 45.2128C74.2811 44.5164 74.144 43.8505 73.9075 43.214C73.6654 42.5786 73.3203 42.0172 72.8612 41.532C72.4015 41.0508 71.8041 40.7051 71.0678 40.5008C70.453 40.3268 69.7882 40.2274 69.0755 40.1989C68.9381 40.1937 68.799 40.191 68.6591 40.191C67.9949 40.191 67.3271 40.2274 66.6601 40.2955C65.9908 40.3689 65.0495 40.5134 63.8334 40.7307C63.9159 42.516 63.9603 44.8349 63.9654 47.6959C63.9687 49.6349 63.9518 51.3275 63.9159 52.4805H66.605L66.5567 49.3818C67.6792 50.1419 68.6073 50.2252 68.9817 50.3142C69.0126 50.3217 69.0437 50.3291 69.0755 50.3348C69.4207 50.4106 69.7657 50.4486 70.1182 50.4486C70.7627 50.4486 71.3515 50.3315 71.8855 50.0965C72.4199 49.8628 72.8809 49.5131 73.2697 48.9934C73.4372 48.7726 73.582 48.5389 73.7069 48.2931V48.2903C73.7818 48.5269 73.8856 48.7625 74.0187 48.9979C74.2969 49.4888 74.7124 49.8453 75.2604 50.0689C75.8088 50.2976 76.499 50.3541 77.3384 50.3541C77.5796 50.3541 77.8377 50.3437 78.1151 50.3244C78.3938 50.3039 78.7536 50.3152 79.2229 50.2323C79.3748 49.4827 79.5242 48.806 79.646 48.4289C79.2527 48.5606 78.938 48.6454 78.7047 48.6763C78.4716 48.7098 78.2478 48.7279 78.0342 48.7279C77.6992 48.7279 77.4089 48.7425 77.1609 48.6635C76.912 48.5824 76.7012 48.4417 76.5276 48.238C76.356 48.0378 76.2635 47.8524 76.2494 47.5738C76.2432 47.4014 76.2645 47.242 76.3236 47.0924C76.3764 46.9428 76.4714 46.8001 76.6068 46.6647C76.7394 46.5287 76.9063 46.4072 77.1025 46.2978C77.3002 46.1868 77.5246 46.0921 77.7725 46.0043C78.0192 45.9185 78.3518 45.8163 78.7658 45.7012C79.179 45.585 79.4661 45.4972 79.631 45.4437C79.7945 45.3845 79.9423 45.3236 80.071 45.2597C80.2008 45.1916 80.389 45.0772 80.6339 44.9089L80.6201 47.3878C80.6138 48.4405 80.5778 49.4853 80.5273 50.288C81.0706 50.2736 82.8684 50.2732 83.3738 50.2872C83.3176 48.6366 83.2896 46.9196 83.3259 45.3719ZM71.3718 46.9026C71.1791 47.4428 70.8885 47.8276 70.4934 48.1081C70.104 48.3885 69.6656 48.5273 69.1734 48.5273C69.1401 48.5273 69.1076 48.5273 69.0755 48.5257C68.7547 48.5118 68.4406 48.4324 68.1303 48.2895C67.7927 48.1309 67.4942 47.9309 67.2361 47.6282C66.9805 47.3258 66.8034 46.9924 66.7084 46.6322C66.6085 46.2734 66.5522 45.8945 66.5332 45.502C66.522 45.2843 66.5191 44.9406 66.5254 44.4794L66.5348 43.4055C66.5392 43.1553 66.5583 42.8538 66.5888 42.5075C67.3626 42.2522 68.0869 42.1215 68.758 42.1215C68.8672 42.1215 68.9716 42.1263 69.0755 42.1361C69.4672 42.1702 69.8282 42.2721 70.1602 42.4426C70.5769 42.6542 70.9166 42.9939 71.1791 43.4614C71.4421 43.9255 71.5915 44.4993 71.622 45.1752C71.6506 45.7854 71.5686 46.3621 71.3718 46.9026ZM52.6368 45.3708C52.6699 43.8242 52.6789 42.8607 52.661 42.4818C52.6289 41.7858 52.4316 41.254 52.0703 40.879C51.7057 40.5105 51.2139 40.2409 50.5974 40.0726C49.9757 39.9021 49.3014 39.8171 48.5714 39.8171C47.9273 39.8171 47.2585 39.861 46.5724 39.9474C45.8867 40.0338 45.0987 40.1808 44.2008 40.3934C44.1598 40.7841 44.1299 41.0764 44.1175 41.2715C44.1019 41.4638 44.0599 41.7959 43.9906 42.2738C45.4264 41.6982 46.7454 41.4091 47.9582 41.4091C48.2849 41.4091 48.5809 41.4435 48.8534 41.515C49.1261 41.5833 49.3519 41.7089 49.5318 41.8892C49.7054 42.0655 49.8027 42.2862 49.8139 42.5434C49.8183 42.6753 49.7982 42.805 49.7458 42.9306C49.6969 43.0564 49.6149 43.1782 49.502 43.293C49.3868 43.4089 49.2492 43.5036 49.089 43.579C48.9294 43.6491 48.7141 43.7242 48.4459 43.8022C48.1775 43.8776 47.9188 43.9425 47.6693 43.9959C46.7263 44.1996 45.9744 44.4043 45.4057 44.6082C44.8357 44.8076 44.3675 45.019 44.0731 45.2351C43.7746 45.4507 43.5713 45.6453 43.3892 45.8756C43.3703 45.9006 43.3516 45.9252 43.3329 45.9502C43.3285 45.9343 43.324 45.9154 43.3195 45.8989C43.2489 45.6383 43.1561 45.4013 43.0385 45.1885C42.9193 44.9728 42.7699 44.7722 42.5788 44.5828C42.3928 44.3905 42.1973 44.2335 41.9898 44.1124C41.7843 43.9894 41.5904 43.9002 41.4111 43.8384C41.2324 43.7796 40.9918 43.7189 40.6984 43.6563C41.0164 43.543 41.2728 43.4373 41.4639 43.3377C41.6527 43.2349 41.8505 43.0973 42.055 42.918C42.2586 42.7411 42.4351 42.5226 42.5845 42.2702C42.734 42.0165 42.844 41.7319 42.9116 41.4158C42.9835 41.0985 43.0103 40.7101 42.993 40.3609C42.9801 40.0775 42.9364 39.7988 42.8544 39.5248C42.779 39.2563 42.6678 39.0002 42.5203 38.7648C42.3731 38.5314 42.2024 38.3269 42.0068 38.1562C41.8089 37.982 41.5717 37.7564 41.2887 37.6373C41.0052 37.5141 40.6872 37.4287 40.3299 37.3683C39.9701 37.3114 39.4413 37.2773 38.7392 37.2773C38.5763 37.2773 38.3981 37.2791 38.2072 37.2807C37.8088 37.2848 33 37.2795 33 37.2795C33 37.2795 33.0485 38.0395 33.0485 43.7923C33.0485 49.5444 33.0002 50.2837 33.0002 50.2837L34.7032 50.2745L36.9842 50.2837C37.4289 50.2837 37.8366 50.281 38.2072 50.2761C39.3721 50.258 40.1684 50.2131 40.5973 50.1397C41.1626 50.0407 41.6661 49.8468 42.1108 49.5555C42.5126 49.2921 42.8265 48.947 43.0564 48.5136V48.5114L43.0858 48.4583C43.1516 48.6284 43.233 48.7998 43.3309 48.9693C43.6083 49.4606 44.0233 49.7915 44.5705 50.0139C45.119 50.2426 45.8114 50.354 46.6477 50.354C46.8916 50.354 47.1478 50.3438 47.4256 50.3239C47.7038 50.3028 48.0634 50.3141 48.5332 50.2328C48.6849 49.4832 48.8327 48.8059 48.9548 48.4288C48.5645 48.5607 48.2484 48.6455 48.0144 48.6762C47.7805 48.7097 47.558 48.7274 47.3434 48.7274C47.0108 48.7274 46.7196 48.7421 46.4707 48.6634C46.2211 48.5823 46.0104 48.4418 45.839 48.238C45.6654 48.0402 45.5732 47.8524 45.5592 47.5737C45.5506 47.4015 45.5742 47.2421 45.6323 47.0913C45.6879 46.9429 45.7821 46.8 45.9159 46.6649C46.0485 46.5283 46.2173 46.4077 46.4116 46.2967C46.6118 46.187 46.8343 46.0902 47.0833 46.0026C47.33 45.9162 47.6626 45.8162 48.0752 45.7014C48.4894 45.5851 48.7765 45.4983 48.9418 45.4436C49.1058 45.3845 49.253 45.3247 49.3799 45.2582C49.5105 45.1918 49.6981 45.0755 49.9448 44.91L49.9302 47.3877C49.9231 48.4406 49.891 49.495 49.8376 50.2959C50.3828 50.2822 52.1635 50.2749 52.6728 50.2879C52.6151 48.639 52.5991 46.9198 52.6368 45.3708ZM37.9546 39.1858C38.0429 39.1858 38.1268 39.1858 38.2072 39.188C38.5639 39.1971 38.8421 39.226 39.0462 39.2766C39.3012 39.3348 39.5138 39.4338 39.6976 39.5663C39.8803 39.7033 40.0149 39.8716 40.1102 40.0775C40.2062 40.2859 40.258 40.5042 40.2679 40.7351C40.2797 40.9727 40.2533 41.2622 40.1831 41.4908C40.1163 41.7213 40.0027 41.9299 39.8419 42.1183C39.6801 42.3112 39.4811 42.4515 39.2401 42.5432C39.0007 42.6352 38.7696 42.6954 38.5483 42.7251C38.4651 42.7377 38.3516 42.7479 38.2072 42.7548C37.9694 42.7661 37.6502 42.7729 37.2488 42.7729H35.7339L35.6979 39.1858H37.9546ZM40.6281 47.0092C40.5804 47.206 40.5108 47.3846 40.422 47.5411C40.3327 47.6946 40.2275 47.8265 40.1049 47.9255C39.9835 48.0261 39.8155 48.1182 39.5997 48.2083C39.3832 48.2947 39.1575 48.355 38.9146 48.3902C38.7337 48.417 38.4978 48.4329 38.2072 48.4398C38.1134 48.4418 38.0127 48.4418 37.9053 48.4418H35.7663L35.7282 44.6039H38.102C38.1379 44.6039 38.1723 44.6043 38.2072 44.6049C38.6943 44.6102 39.0624 44.6458 39.3158 44.7147C39.5835 44.7858 39.8172 44.9007 40.0247 45.0617C40.2275 45.221 40.3861 45.4099 40.4978 45.6322C40.6068 45.8499 40.6704 46.103 40.6838 46.3927C40.6939 46.6041 40.6736 46.809 40.6281 47.0092ZM63.2271 42.1367C63.1079 41.7641 62.8768 41.4183 62.5391 41.0998C62.2029 40.7882 61.7669 40.5573 61.2343 40.4115C60.703 40.2672 60.1472 40.1938 59.5724 40.1938C59.2116 40.1938 58.8656 40.2239 58.5348 40.2786C58.2044 40.3387 56.7277 40.6412 55.8542 41.734L55.8856 40.4257C55.4129 40.4359 54.9693 40.4451 54.5504 40.4451C54.1957 40.4451 53.7197 40.4359 53.1242 40.4257C53.1757 41.8694 53.046 50.2867 53.046 50.2867C53.6275 50.2735 55.3754 50.2735 55.8698 50.2867C55.8385 48.7409 55.83 47.4702 55.8497 46.5505C55.8751 45.5119 55.9504 44.7696 56.0779 44.3202C56.1993 43.8931 56.3809 43.5376 56.6265 43.2487C56.8596 42.9636 57.1413 42.7453 57.4672 42.5981C57.7987 42.4495 58.1549 42.3773 58.5401 42.3773C58.9362 42.3773 59.3048 42.457 59.6528 42.6174C60 42.7782 60.2595 43.0132 60.4351 43.3231C60.6116 43.6319 60.7111 44.0415 60.7322 44.5489C60.7547 45.0005 60.7616 45.9236 60.747 47.3184C60.7363 48.713 60.7176 49.7282 60.6902 50.2908C61.1852 50.2776 62.9741 50.2776 63.4843 50.2908C63.4589 49.6282 63.4461 43.4988 63.4388 43.3231C63.4187 42.9046 63.3467 42.5082 63.2271 42.1367ZM97.2786 50.2879C97.2498 49.8515 97.1852 47.6107 97.1556 45.79C97.1408 44.9613 97.1532 44.1364 97.1373 43.3123C97.1268 42.6958 97.1442 42.1078 96.9207 41.5248C96.9207 41.5248 96.5446 40.3194 94.6518 39.9531C89.431 38.9429 86.6362 41.8108 86.6001 41.8386L86.5962 40.3773L85.9195 40.4058L84.6309 40.4003L83.82 40.3718C83.874 41.2004 83.9233 42.123 83.915 42.9072C83.9077 43.6941 83.956 49.7993 83.9223 50.2867C83.9223 50.2867 84.0342 50.2639 85.3345 50.2639C86.635 50.2639 86.766 50.2867 86.766 50.2867C86.7266 49.673 86.6984 49.0622 86.6823 48.4577C86.6653 47.8422 86.5006 45.5829 87.3398 44.1724C89.1977 41.0485 94.4012 41.0497 94.4012 42.5082C94.4012 42.7611 94.4012 43.2316 93.6818 43.5296C93.4024 43.6457 90.9297 44.2622 90.193 44.5153C88.8279 44.9846 87.2785 45.7325 87.3958 47.555C87.4511 48.4048 87.8409 49.1834 88.4805 49.7198C89.0651 50.2101 89.7541 50.3579 90.8999 50.3774H91.5242C91.8767 50.3774 92.1571 50.3375 92.4652 50.3091C92.6225 50.2942 93.0047 50.2556 93.1377 50.2322C93.1474 50.1715 93.1299 50.2676 93.1693 50.0418C93.2418 49.6403 93.3728 48.9094 93.4958 48.537C93.5031 48.514 93.4818 48.4949 93.4603 48.5044C93.2514 48.6051 92.5596 48.7575 91.9514 48.7575H91.8621C90.9876 48.7575 90.1537 48.4872 90.099 47.6487L90.0948 47.5781C90.0312 46.5994 91.135 46.1443 91.9137 45.914C93.2751 45.5107 93.988 45.2871 94.4406 45.0403C94.4786 45.6483 94.517 50.0735 94.4366 50.2686L97.2786 50.2879Z" fill="#2F368E"/>
</svg>
