<svg width="60" height="60" viewBox="0 0 60 60" fill="none" xmlns="http://www.w3.org/2000/svg">
<rect width="60" height="60" fill="#EA1C24"/>
<path d="M10.0002 7H49.6051V52.6948H10.0002V7Z" fill="#EA1C24"/>
<path d="M41.2712 31.0646C41.2776 31.0964 42.5555 39.412 28.0769 46.991C33.7108 46.8857 36.8449 47.279 39.3601 45.8491C39.3601 45.8491 40.9314 45.2509 42.3936 43.1635C44.917 38.9855 44.1899 33.2712 41.2712 31.0646ZM41.3112 15.1144C40.6159 14.5033 39.246 13.2586 36.3783 12.8845C33.5091 12.5101 26.4921 12.8199 26.4921 12.8199C26.6087 12.8456 37.1673 14.8199 34.4243 23.9272C36.7498 24.7339 38.7511 25.9607 40.0393 28.148C43.0116 26.1838 45.2168 19.6332 41.3112 15.1144ZM32.5817 27.916C29.0362 32.713 22.4927 36.8577 15.644 39.1215V46.1232C23.9995 44.9796 35.734 39.2639 36.5719 32.5752C36.9595 29.5626 33.3619 28.0017 32.5817 27.916ZM15.6545 29.9455V34.131C16.4813 33.8543 23.5332 31.485 27.5138 27.3027C21.7437 27.3027 16.3562 29.6617 15.6545 29.9455ZM29.6749 19.2841C26.1343 14.9466 15.908 17.3702 15.6545 17.4352V24.6939C23.9376 22.0279 30.2899 22.9078 30.2899 22.9078C30.2899 22.9078 30.4639 22.6825 30.5452 21.8944C30.6172 20.4738 30.0361 19.6996 29.6749 19.2841Z" fill="white"/>
</svg>
