<svg width="60" height="60" viewBox="0 0 60 60" fill="none" xmlns="http://www.w3.org/2000/svg">
<rect width="60" height="60" fill="white"/>
<path d="M10 7H49.6049V52.6948H10V7Z" fill="#EA1C24"/>
<path d="M41.271 31.0646C41.2774 31.0964 42.5553 39.412 28.0767 46.991C33.7106 46.8857 36.8447 47.279 39.3598 45.8491C39.3598 45.8491 40.9312 45.2509 42.3934 43.1635C44.9167 38.9855 44.1897 33.2712 41.271 31.0646ZM41.3109 15.1144C40.6156 14.5033 39.2458 13.2586 36.378 12.8845C33.5088 12.5101 26.4919 12.8199 26.4919 12.8199C26.6084 12.8456 37.1671 14.8199 34.4241 23.9272C36.7495 24.7339 38.7509 25.9607 40.0391 28.148C43.0113 26.1838 45.2166 19.6332 41.3109 15.1144ZM32.5815 27.916C29.0359 32.713 22.4925 36.8577 15.6438 39.1215V46.1232C23.9993 44.9796 35.7338 39.2639 36.5717 32.5752C36.9593 29.5626 33.3616 28.0017 32.5815 27.916ZM15.6542 29.9455V34.131C16.4811 33.8543 23.533 31.485 27.5136 27.3027C21.7435 27.3027 16.3559 29.6617 15.6542 29.9455ZM29.6746 19.2841C26.1341 14.9466 15.9078 17.3702 15.6542 17.4352V24.6939C23.9373 22.0279 30.2897 22.9078 30.2897 22.9078C30.2897 22.9078 30.4637 22.6825 30.545 21.8944C30.617 20.4738 30.0358 19.6996 29.6746 19.2841Z" fill="white"/>
</svg>
