<svg width="60" height="60" viewBox="0 0 60 60" fill="none" xmlns="http://www.w3.org/2000/svg">
<rect width="60" height="60" fill="white"/>
<g clip-path="url(#clip0_308_94)">
<mask id="mask0_308_94" style="mask-type:luminance" maskUnits="userSpaceOnUse" x="4" y="21" width="52" height="17">
<path d="M4.2002 21.9486H55.7992V37.0515H4.2002V21.9486Z" fill="white"/>
</mask>
<g mask="url(#mask0_308_94)">
<path d="M12.2552 22.0996C11.8359 23.1509 11.3884 24.206 10.9272 25.2683L10.3032 26.6765L9.67198 25.2683C9.19603 24.206 8.73979 23.1509 8.31194 22.0996H4.81982V22.3752C5.20702 22.3752 5.52518 22.6933 5.52518 23.0854C5.46842 23.8114 5.40681 24.5386 5.33158 25.2683L5.09979 27.4851C4.98875 28.5461 4.86295 29.6035 4.71631 30.6536H5.83219C5.90123 29.6035 5.9875 28.5461 6.09607 27.4851L6.44013 24.1428C6.93579 25.1589 7.4105 26.1812 7.87045 27.2058L7.99749 27.4851C8.47468 28.5461 8.92844 29.6035 9.35878 30.6536H9.69665C10.1183 29.6035 10.5647 28.5461 11.0283 27.4851L11.2293 27.0298C11.6794 26.0051 12.1479 24.983 12.6313 23.968L12.9951 27.4851C13.1036 28.5461 13.1936 29.6035 13.2589 30.6536H15.8262C15.6782 29.6035 15.5512 28.5461 15.4427 27.4851L15.2134 25.2683C15.1061 24.206 15.0136 23.1509 14.9508 22.0996H12.2552Z" fill="#183181"/>
<path d="M23.7705 29.8033C24.0504 29.2788 24.3526 28.7483 24.6731 28.2177L27.7916 23.108V22.8919H20.9296V24.464H21.2008C21.2008 24.0852 21.4968 23.7756 21.8666 23.7526C22.0812 23.7453 22.2946 23.7417 22.5054 23.7417H24.72C24.445 24.2552 24.1516 24.7736 23.8346 25.292L20.7002 30.4382V30.6531H28.101V29.7402C27.5807 29.7814 27.053 29.8033 26.5277 29.8033H23.7705Z" fill="#183181"/>
<path d="M36.4567 30.6535C36.4789 30.6522 36.5011 30.6498 36.522 30.6486C36.4814 30.1241 36.4567 29.5985 36.4567 29.0692V27.1462H39.5209V29.0692C39.5209 29.5985 39.5024 30.129 39.4617 30.6535H41.8218C41.7786 30.129 41.7589 29.5985 41.7589 29.0692V24.4778C41.7589 23.9448 41.7786 23.418 41.8218 22.891H38.8131V23.1363H38.8809C39.2163 23.1363 39.4864 23.3972 39.5098 23.7275C39.5172 23.9764 39.5209 24.2264 39.5209 24.4778V26.2952H36.4567V24.4778C36.4567 23.9448 36.4764 23.418 36.5196 22.891H33.5122V23.1363H33.5775C33.9117 23.1363 34.183 23.3949 34.2064 23.7239C34.2151 23.9752 34.2199 24.2252 34.2199 24.4778V29.8522C33.9104 29.891 33.5923 29.9093 33.2705 29.9093C32.9239 29.9093 32.5825 29.8826 32.2495 29.8292C31.305 29.6519 31.1545 28.779 31.1545 28.2351V24.4329C31.1545 23.9168 31.1779 23.4033 31.2175 22.891H28.21V23.1363H28.274C28.6094 23.1363 28.8783 23.3949 28.9017 23.7227C28.9104 23.9752 28.9153 24.2252 28.9153 24.4778V27.8673C28.9153 28.6297 29.1606 30.3147 31.2618 30.6207C31.9178 30.7094 32.5886 30.7603 33.2705 30.7603C34.3408 30.7603 35.4037 30.7227 36.4567 30.6535Z" fill="#183181"/>
<path d="M51.924 26.7729C51.924 29.4171 49.6021 30.7598 47.3147 30.7598C45.0275 30.7598 42.7104 29.4171 42.7104 26.7729C42.7104 24.1276 45.0275 22.7849 47.3147 22.7849C49.6021 22.7849 51.924 24.1276 51.924 26.7729ZM49.6773 26.7729C49.6749 25.3319 49.0632 23.6359 47.3147 23.6359C45.5687 23.6359 44.9547 25.3319 44.9547 26.7729C44.9547 28.2128 45.5687 29.9087 47.3147 29.9087C49.0632 29.9087 49.6749 28.2128 49.6773 26.7729Z" fill="#183181"/>
<path d="M19.6331 24.4779C19.6331 23.945 19.6528 23.4181 19.6984 22.8911H16.6108V23.1668H16.6749C17.0745 23.1668 17.3865 23.4848 17.3865 23.8806C17.3926 24.0773 17.395 24.2764 17.395 24.4779V29.0693C17.395 29.5986 17.3741 30.1292 17.3384 30.6536H19.6984C19.6528 30.1292 19.6331 29.5986 19.6331 29.0693V24.4779Z" fill="#183181"/>
<path d="M9.01016 34.9166C15.2273 33.5448 21.6886 32.82 28.3224 32.82C37.6877 32.82 46.7247 34.2028 55.2378 36.7741C55.2699 36.7838 55.2884 36.813 55.2822 36.8481C55.2749 36.8809 55.2391 36.9064 55.2058 36.8991C46.4572 35.4775 37.4964 34.6666 28.368 34.5099C21.8476 34.397 15.4048 34.624 9.05206 35.1655C8.98797 35.1716 8.93121 35.1315 8.91398 35.0697C8.89798 35.0016 8.94112 34.9324 9.01016 34.9166Z" fill="#ED1A3A"/>
</g>
</g>
<defs>
<clipPath id="clip0_308_94">
<rect width="50.7692" height="15" fill="white" transform="translate(4.61523 22)"/>
</clipPath>
</defs>
</svg>
