<svg width="130" height="60" viewBox="0 0 130 60" fill="none" xmlns="http://www.w3.org/2000/svg">
<rect width="130" height="60" fill="white"/>
<mask id="mask0_43_33" style="mask-type:luminance" maskUnits="userSpaceOnUse" x="16" y="15" width="98" height="30">
<path d="M114 15H16V44.8594H114V15Z" fill="white"/>
</mask>
<g mask="url(#mask0_43_33)">
<path d="M58.5654 28.7453V27.4738C58.5654 27.1357 58.1813 26.9437 57.9107 27.1466L56.0227 28.5556V38.4687H58.5654V31.7575C58.8186 30.9526 59.1439 30.3681 59.5411 29.9995C59.9361 29.6331 60.3945 29.4499 60.9183 29.4499C61.2719 29.4499 61.6386 29.5196 62.0205 29.6614L62.4658 27.3756C62.0839 27.164 61.6321 27.0571 61.1104 27.0571C59.9689 27.0571 59.1242 27.6242 58.5676 28.7453H58.5654Z" fill="#0B3471"/>
<path d="M22.7792 32.4662C22.2991 32.2481 21.677 32.0256 20.9153 31.7988C20.1535 31.5589 19.5991 31.343 19.2521 31.1532C18.9051 30.9634 18.7327 30.6777 18.7327 30.296C18.7327 29.9426 18.8942 29.6547 19.2194 29.4279C19.5446 29.2033 19.9811 29.0899 20.5333 29.0899C21.0135 29.0899 21.5177 29.164 22.0481 29.3123C22.5784 29.4607 23.0412 29.6548 23.4362 29.8947L24.2198 28.1171C23.7527 27.7921 23.1918 27.5347 22.5348 27.3449C21.8778 27.1552 21.1903 27.0592 20.4678 27.0592C19.1975 27.0592 18.1804 27.3602 17.4165 27.96C16.6548 28.5598 16.2728 29.3756 16.2728 30.4051C16.2728 31.0834 16.4387 31.633 16.7705 32.0561C17.1022 32.4793 17.5017 32.7999 17.9687 33.0202C18.4358 33.2383 19.036 33.4607 19.7694 33.6876C20.5311 33.9275 21.0899 34.1544 21.4435 34.3659C21.7971 34.5775 21.9739 34.8742 21.9739 35.2558C21.9739 35.6375 21.784 35.9756 21.402 36.2308C21.02 36.4838 20.4984 36.6125 19.8349 36.6125C19.2696 36.6125 18.7108 36.5274 18.1608 36.3573C17.6108 36.1871 17.1153 35.9407 16.6788 35.6158L16 37.5852C16.4802 37.9517 17.0695 38.2461 17.7701 38.4643C18.4686 38.6824 19.2128 38.7914 20.0051 38.7914C21.3605 38.7914 22.4562 38.4708 23.29 37.8273C24.1237 37.1861 24.5406 36.2984 24.5406 35.1708C24.5406 34.451 24.3682 33.8752 24.0211 33.4455C23.6741 33.0158 23.2616 32.6908 22.7814 32.4706L22.7792 32.4662Z" fill="#0B3471"/>
<path d="M28.9671 27.14L27.0791 28.549V38.4687H29.6218V27.4694C29.6218 27.1313 29.2377 26.9393 28.9671 27.1422V27.14Z" fill="#0B3471"/>
<path d="M66.2178 27.1444L64.3298 28.5534V38.4687H66.8726V27.4716C66.8726 27.1335 66.4884 26.9415 66.2178 27.1444Z" fill="#0B3471"/>
<path d="M38.9439 32.4661C38.4637 32.248 37.8416 32.0256 37.0799 31.7987C36.3181 31.5588 35.7615 31.3429 35.4167 31.1531C35.0696 30.9634 34.8972 30.6776 34.8972 30.296C34.8972 29.9426 35.0588 29.6547 35.3839 29.4278C35.7092 29.2032 36.1457 29.0898 36.6979 29.0898C37.1781 29.0898 37.6823 29.1639 38.2126 29.3123C38.743 29.4606 39.2058 29.6547 39.6008 29.8946L40.3844 28.117C39.9173 27.792 39.3564 27.5347 38.6994 27.3449C38.0424 27.1551 37.3549 27.0592 36.6324 27.0592C35.3621 27.0592 34.345 27.3602 33.5811 27.96C32.8172 28.5598 32.4374 29.3755 32.4374 30.405C32.4374 31.0833 32.6033 31.633 32.9351 32.0561C33.2668 32.4792 33.6662 32.7999 34.1333 33.0201C34.6004 33.2383 35.2006 33.4607 35.934 33.6875C36.6979 33.9275 37.2545 34.1543 37.6081 34.3659C37.9616 34.5775 38.1384 34.8741 38.1384 35.2558C38.1384 35.6375 37.9485 35.9755 37.5666 36.2307C37.1846 36.4837 36.663 36.6124 35.9995 36.6124C35.4342 36.6124 34.8754 36.5274 34.3254 36.3573C33.7753 36.1871 33.2799 35.9406 32.8434 35.6157L32.1646 37.5852C32.6448 37.9516 33.2341 38.2461 33.9347 38.4642C34.6332 38.6823 35.3774 38.7913 36.1697 38.7913C37.5252 38.7913 38.6208 38.4707 39.4545 37.8273C40.2883 37.186 40.7052 36.2983 40.7052 35.1707C40.7052 34.4509 40.5328 33.8751 40.1858 33.4454C39.8387 33.0158 39.4262 32.6908 38.946 32.4705L38.9439 32.4661Z" fill="#0B3471"/>
<path d="M98.5689 32.2439C98.5689 31.3125 98.3859 30.451 98.0192 29.6614C97.6524 28.8718 97.0981 28.2393 96.3555 27.766C95.6136 27.2927 94.7055 27.0571 93.6337 27.0571C92.5623 27.0571 91.639 27.3014 90.8272 27.7878C90.0152 28.2742 89.3866 28.9635 88.9414 29.8512C88.4961 30.7411 88.2734 31.7771 88.2734 32.9636C88.2734 34.233 88.5158 35.3061 89.0047 36.1829C89.4914 37.0576 90.1527 37.7119 90.9865 38.1415C91.8203 38.5712 92.7585 38.7872 93.8044 38.7872C95.6549 38.7872 97.2068 38.2855 98.4663 37.2843L97.4495 35.6333C96.5017 36.3814 95.4022 36.7544 94.1451 36.7544C92.1957 36.7544 91.0935 35.7379 90.8403 33.7052H98.4464C98.5321 33.3519 98.5735 32.8655 98.5735 32.2439H98.5689ZM90.8141 31.9908C90.9122 31.0028 91.2134 30.259 91.7155 29.7574C92.2175 29.2557 92.8765 29.0049 93.6972 29.0049C94.518 29.0049 95.0983 29.2666 95.5309 29.7879C95.9604 30.3113 96.1901 31.0442 96.2184 31.9908H90.8162H90.8141Z" fill="#0B3471"/>
<path d="M51.1971 27.6918C50.5052 27.2687 49.7435 27.0571 48.9119 27.0571C48.1917 27.0571 43.2415 27.3734 43.2415 27.3734V41.5288H45.7798V37.8493C46.4717 38.2572 47.3098 38.4709 48.2964 38.4709C49.2829 38.4709 50.108 38.2135 50.8981 37.7141C51.6882 37.2146 52.3146 36.4992 52.7817 35.5678C53.2466 34.6387 53.4802 33.5525 53.4802 32.3115C53.4802 31.0704 53.2706 30.4248 52.8559 29.5851C52.4391 28.7476 51.8868 28.115 51.1949 27.6941L51.1971 27.6918ZM50.4681 34.582C50.1931 35.1666 49.8221 35.6115 49.3572 35.9146C48.8923 36.2178 48.3837 36.3705 47.8337 36.3705C47.3972 36.3705 47.0217 36.3181 46.7118 36.2112C46.4019 36.1044 46.092 35.9321 45.782 35.6922V29.2993H48.3205C49.0669 29.2993 49.6824 29.5959 50.1604 30.1871C50.6405 30.7781 50.8806 31.3517 50.8806 32.5209C50.8806 33.3104 50.7431 33.9974 50.4681 34.582Z" fill="#0B3471"/>
<path d="M79.9685 29.3691C80.2086 29.3124 80.4639 29.2666 80.7128 29.2491C80.4574 29.2644 80.2086 29.3037 79.9685 29.3691Z" fill="#0B3471"/>
<path d="M85.543 30.1957C85.4186 29.5435 85.1916 28.9786 84.8642 28.5184C84.5389 28.0603 84.0849 27.6983 83.5131 27.4431C82.9369 27.1857 82.1948 27.057 81.3021 27.057C81.3021 27.057 79.3923 27.0352 77.5174 27.9971C77.2206 27.744 76.8692 27.5325 76.4632 27.3667C75.9612 27.1617 75.3086 27.057 74.5185 27.057C73.6673 27.057 69.8892 27.3886 69.8892 27.3886V38.4708H72.4319V29.2992C72.4319 29.2992 73.9968 29.2403 74.2959 29.2403C75.1558 29.2403 75.7517 29.5304 76.0704 30.1019C76.3803 30.658 76.5374 31.308 76.5374 32.5447V38.473H79.0802V32.4902C79.0802 32.0147 79.0584 31.5632 79.0125 31.1488C78.9689 30.7366 78.8881 30.3418 78.7703 29.9732L78.7092 29.7965C78.7092 29.7965 79.2788 29.537 79.9663 29.3711C80.2064 29.3058 80.4552 29.2665 80.7106 29.2513C80.7892 29.2447 80.8678 29.2425 80.9442 29.2425C81.8194 29.2425 82.4196 29.5326 82.7317 30.104C83.0351 30.6602 83.1879 31.5697 83.1879 32.8043V38.473H85.7306V32.3768C85.7306 31.5915 85.6674 30.8609 85.543 30.2V30.1957Z" fill="#0B3471"/>
<path d="M105.318 15.6412L105.213 17.89L113.998 19.6959L106.335 15.096C105.898 14.8342 105.342 15.133 105.318 15.6412Z" fill="#0047BB"/>
<path d="M104.518 32.9985C104.486 33.6943 105.404 33.9713 105.765 33.3759L114 19.6959L104.816 26.5686L104.518 32.9985Z" fill="#0047BB"/>
<path d="M97.0254 16.2083C96.4803 16.0949 96.0416 16.6598 96.2881 17.1614L101.603 27.9797C101.788 28.357 102.271 28.4726 102.607 28.2218L104.816 26.5708L105.215 17.8921L97.0254 16.2083Z" fill="#0047BB"/>
</g>
</svg>
