<svg width="60" height="60" viewBox="0 0 60 60" fill="none" xmlns="http://www.w3.org/2000/svg">
<rect width="60" height="60" fill="#FAAF00"/>
<path fill-rule="evenodd" clip-rule="evenodd" d="M35.3379 13C35.2089 13.0047 35.0845 13.0497 34.9824 13.1288L31.1306 15.9116C30.957 16.0417 30.8379 16.2316 30.7965 16.4445C30.7551 16.6574 30.7943 16.8781 30.9065 17.0637L35.0173 23.5998C35.1139 23.7513 35.2225 23.8392 35.3272 23.8392C35.4325 23.8392 35.5331 23.7325 35.6176 23.5461L37.2266 19.5555C37.4084 19.022 37.4285 18.4467 37.2843 17.9019L35.8168 13.399C35.792 13.2891 35.7316 13.1904 35.645 13.1183C35.5584 13.0462 35.4505 13.0046 35.3379 13ZM29.6631 17.2836C29.495 16.7451 29.1719 16.2681 28.7341 15.9123L24.8863 13.1288C24.7842 13.0497 24.6599 13.0047 24.5308 13C24.419 13.0056 24.3121 13.0473 24.2261 13.1189C24.1401 13.1905 24.0797 13.2881 24.0539 13.397L22.5884 17.8992C22.5237 18.1065 22.5389 18.3305 22.631 18.5272C22.7231 18.7239 22.8854 18.879 23.0861 18.9621L30.2613 21.8455C30.4666 21.926 30.6168 21.9173 30.6886 21.8274C30.7193 21.7704 30.7376 21.7075 30.7423 21.6429C30.7469 21.5783 30.7377 21.5134 30.7154 21.4526L29.6631 17.2836ZM15.373 20.0135L16.8425 24.5164C16.9022 24.6901 17.0147 24.8407 17.1644 24.9471C17.314 25.0535 17.4932 25.1105 17.6769 25.1099C17.7459 25.1106 17.815 25.1032 17.8821 25.0857L25.3759 23.2148C25.561 23.1699 25.6797 23.0841 25.7045 22.9835C25.7294 22.8829 25.6556 22.7542 25.5094 22.6314L22.1961 19.7212C21.8285 19.414 21.1129 19.005 20.634 19.005H15.8867C15.6808 19.005 15.5185 19.2276 15.424 19.359C15.3275 19.5637 15.3094 19.7965 15.373 20.0135ZM22.3651 26.8111C22.3235 26.7146 22.1921 26.6515 22.0009 26.6388L17.6976 26.3464H17.5944C17.0639 26.362 16.5477 26.5212 16.1007 26.8071L12.2549 29.59C12.1804 29.6374 12.1184 29.702 12.0741 29.7783C12.0297 29.8546 12.0043 29.9404 12 30.0285C12.0048 30.116 12.0304 30.2009 12.0747 30.2764C12.1191 30.3519 12.1808 30.4157 12.2549 30.4624L16.1007 33.248C16.2792 33.3722 16.4973 33.4261 16.7131 33.3992C16.9289 33.3723 17.1272 33.2666 17.2697 33.1025L22.2357 27.1954C22.3611 27.0445 22.406 26.907 22.3651 26.8111ZM22.0385 32.2186C22.0594 32.0953 22.0304 31.9686 21.958 31.8666C21.9391 31.8472 21.9163 31.832 21.891 31.8221C21.8658 31.8122 21.8388 31.8077 21.8118 31.8089C21.7076 31.8161 21.6075 31.8516 21.522 31.9115L17.866 34.1955C17.4024 34.5192 17.0449 34.9727 16.8385 35.4991L15.369 40.002C15.3369 40.0857 15.3248 40.1757 15.3337 40.2648C15.3425 40.354 15.3721 40.4399 15.4199 40.5156C15.4744 40.5857 15.5448 40.6417 15.6253 40.6791C15.7058 40.7164 15.7941 40.7339 15.8827 40.7302H20.6488C20.8679 40.724 21.0771 40.637 21.236 40.486C21.3949 40.335 21.4925 40.1306 21.5099 39.9121L22.0385 32.2186ZM24.8514 36.4137C24.7548 36.2629 24.6462 36.1744 24.5436 36.1744C24.4403 36.1744 24.3276 36.283 24.2518 36.4694L22.6441 40.4607C22.4616 40.9941 22.4423 41.5698 22.5884 42.1143L24.0539 46.6172C24.0791 46.7264 24.1393 46.8244 24.2254 46.8961C24.3116 46.9678 24.4188 47.0093 24.5308 47.0142C24.6599 47.0095 24.7842 46.9645 24.8863 46.8854L28.7341 44.1019C28.9077 43.9718 29.0268 43.7819 29.0682 43.569C29.1096 43.3561 29.0703 43.1354 28.9581 42.9498L24.8514 36.4137ZM30.2057 42.7306C30.3733 43.2684 30.6966 43.7458 31.1346 44.1019L34.9824 46.8848C35.085 46.9644 35.2101 47.0097 35.3399 47.0142C35.4515 47.0088 35.5583 46.9671 35.6441 46.8955C35.7298 46.8238 35.7898 46.7261 35.8148 46.6172L37.2843 42.1143C37.3477 41.9065 37.3317 41.6826 37.2394 41.486C37.1471 41.2894 36.985 41.134 36.7846 41.0501L29.6054 38.1666C29.5284 38.1325 29.4454 38.1136 29.3612 38.111C29.3271 38.1075 29.2927 38.1126 29.261 38.1258C29.2294 38.139 29.2016 38.16 29.1802 38.1867C29.1491 38.2431 29.1304 38.3055 29.1254 38.3697C29.1205 38.4339 29.1293 38.4984 29.1513 38.5589L30.2057 42.7299V42.7306ZM44.4897 40.002L43.0202 35.4991C42.9609 35.3277 42.8502 35.1788 42.7032 35.0726C42.5561 34.9664 42.3799 34.9081 42.1986 34.9056C42.1288 34.9056 42.0604 34.9143 41.9927 34.9304L34.4807 36.8013C34.2956 36.8463 34.1742 36.9321 34.1521 37.032C34.1293 37.1326 34.199 37.2614 34.3453 37.3841L37.6606 40.1535C38.1126 40.4955 38.6559 40.696 39.222 40.7302H43.9779C44.0666 40.7338 44.1548 40.7161 44.2353 40.6788C44.3157 40.6415 44.3862 40.5856 44.4407 40.5156C44.4881 40.4397 44.5172 40.3537 44.5256 40.2646C44.5341 40.1754 44.5218 40.0856 44.4897 40.002ZM37.4875 33.2352C37.5264 33.3298 37.6619 33.3935 37.851 33.4056L42.167 33.7006H42.2703C42.8007 33.6847 43.3168 33.5255 43.764 33.2399L47.6118 30.4544C47.6862 30.408 47.7482 30.3443 47.7925 30.2687C47.8369 30.1932 47.8624 30.108 47.8667 30.0205C47.8617 29.9339 47.8362 29.8498 47.7922 29.775C47.7483 29.7003 47.6871 29.6371 47.6138 29.5907L43.766 26.8091C43.6203 26.7039 43.4447 26.648 43.265 26.6495C43.1382 26.6482 43.0127 26.6744 42.897 26.7263C42.7814 26.7781 42.6783 26.8544 42.5949 26.9499L37.615 32.8651C37.5016 33.0005 37.4466 33.1393 37.4875 33.2352ZM42.0503 25.7899C42.484 25.484 42.8173 25.0565 43.0081 24.5614L44.5105 19.9706C44.5694 19.7671 44.5525 19.5491 44.4629 19.357C44.377 19.2363 44.2228 19.0171 44.0336 19.0171H39.171C38.7599 19.0171 38.3957 19.5019 38.3668 19.9136L37.8242 27.7895C37.8061 27.9152 37.8324 28.0433 37.8987 28.1516C37.9765 28.2354 38.1267 28.2354 38.3098 28.1288L42.0503 25.7899Z" fill="white"/>
</svg>
