<svg width="130" height="60" viewBox="0 0 130 60" fill="none" xmlns="http://www.w3.org/2000/svg">
<rect width="130" height="60" fill="white"/>
<g clip-path="url(#clip0_308_102)">
<path d="M19.6006 28.9702V30.8338C19.6073 30.8777 19.6035 30.9225 19.5896 30.9646C19.5757 31.0068 19.552 31.045 19.5206 31.0764C19.4892 31.1077 19.4508 31.1312 19.4086 31.1449C19.3664 31.1587 19.3216 31.1623 19.2778 31.1555H17.7073C17.6636 31.1494 17.6191 31.1534 17.5772 31.1674C17.5354 31.1813 17.4973 31.2048 17.4661 31.2359C17.4348 31.267 17.4111 31.3049 17.397 31.3467C17.3828 31.3885 17.3785 31.4329 17.3844 31.4767V33.8141C17.3779 33.8579 17.3818 33.9027 17.3957 33.9447C17.4097 33.9868 17.4333 34.025 17.4647 34.0562C17.4961 34.0875 17.5345 34.1109 17.5766 34.1246C17.6187 34.1384 17.6635 34.142 17.7073 34.1352H19.2783C19.3221 34.129 19.3667 34.133 19.4087 34.1469C19.4507 34.1608 19.4889 34.1843 19.5202 34.2155C19.5516 34.2467 19.5753 34.2847 19.5894 34.3266C19.6036 34.3685 19.6078 34.4131 19.6018 34.4569V49.3521C19.5921 49.4181 19.606 49.4853 19.641 49.542C19.6761 49.5987 19.73 49.6412 19.7934 49.662C19.8356 49.6761 19.8806 49.6802 19.9246 49.6738H22.7218C22.7655 49.68 22.81 49.6759 22.8519 49.662C22.8937 49.648 22.9318 49.6246 22.9631 49.5935C22.9943 49.5624 23.018 49.5245 23.0322 49.4827C23.0463 49.4409 23.0506 49.3964 23.0447 49.3527V34.4598C23.0349 34.3938 23.0487 34.3265 23.0838 34.2698C23.1189 34.2131 23.1729 34.1706 23.2363 34.1499C23.2786 34.136 23.3235 34.1321 23.3676 34.1386H26.1005C26.1667 34.1481 26.234 34.1341 26.2909 34.0991C26.3478 34.0641 26.3907 34.0103 26.4121 33.9471C26.426 33.9052 26.4299 33.8606 26.4234 33.8169V31.4767C26.43 31.4328 26.4262 31.3881 26.4123 31.346C26.3985 31.3039 26.3749 31.2657 26.3435 31.2344C26.3122 31.2031 26.2739 31.1796 26.2318 31.1658C26.1897 31.152 26.1449 31.1483 26.1011 31.155H23.3676C23.3239 31.1611 23.2794 31.157 23.2375 31.1431C23.1957 31.1292 23.1576 31.1057 23.1263 31.0746C23.0951 31.0435 23.0714 31.0056 23.0572 30.9638C23.0431 30.922 23.0388 30.8775 23.0447 30.8338V28.2834C23.0447 27.4045 23.411 26.6755 24.5295 26.6755C24.879 26.6742 25.2273 26.7175 25.5658 26.8045C25.6062 26.8249 25.6508 26.8353 25.696 26.8349C25.7412 26.8345 25.7857 26.8233 25.8257 26.8022C25.8657 26.7812 25.9001 26.7509 25.9261 26.7138C25.952 26.6768 25.9687 26.6341 25.9749 26.5893L26.4933 24.4468C26.5079 24.4061 26.5139 24.3628 26.5109 24.3196C26.5079 24.2764 26.496 24.2343 26.4758 24.196C26.4557 24.1577 26.4278 24.124 26.3939 24.0971C26.3601 24.0701 26.321 24.0505 26.2791 24.0395C25.5991 23.8108 24.8863 23.6947 24.1689 23.6958C20.8274 23.6975 19.6018 25.3893 19.6018 28.969L19.6006 28.9702ZM37.2137 41.5223V42.3358C37.2137 44.6507 35.858 47.0305 32.4793 47.0305C29.5744 47.0305 28.7996 45.9798 28.7996 44.3307C28.7996 42.9786 29.3795 41.2012 32.4584 41.2012H36.8908C36.9568 41.1936 37.0234 41.2093 37.0791 41.2455C37.1349 41.2817 37.1763 41.3361 37.1962 41.3995C37.2093 41.4414 37.2123 41.4857 37.2053 41.529L37.2137 41.5223ZM77.3952 30.8068C76.7014 30.7964 76.0139 30.9389 75.3814 31.2241C74.749 31.5094 74.1871 31.9305 73.7359 32.4575C73.586 32.6705 73.4355 32.564 73.4355 32.2631V31.4705C73.4451 31.4044 73.431 31.3371 73.3957 31.2804C73.3605 31.2237 73.3063 31.1813 73.2428 31.1606C73.2009 31.1467 73.1564 31.1427 73.1127 31.1488H70.3155C70.2492 31.1394 70.1817 31.1534 70.1247 31.1883C70.0676 31.2233 70.0245 31.277 70.0028 31.3403C69.9889 31.382 69.9848 31.4264 69.9909 31.4699V49.3533C69.9846 49.3972 69.9887 49.4421 70.0028 49.4842C70.0169 49.5263 70.0407 49.5645 70.0723 49.5958C70.1038 49.627 70.1422 49.6505 70.1845 49.6642C70.2267 49.678 70.2716 49.6817 70.3155 49.675H73.1127C73.1558 49.6796 73.1994 49.6743 73.2402 49.6595C73.281 49.6448 73.3179 49.6209 73.3481 49.5897C73.3782 49.5585 73.4009 49.5208 73.4143 49.4796C73.4277 49.4383 73.4315 49.3945 73.4254 49.3516V37.693C73.4254 35.2068 74.4143 33.8141 76.5663 33.8141C77.2114 33.8064 77.8551 33.8779 78.4827 34.0271C78.6969 34.0699 78.8282 34.0062 78.8699 33.7916L79.4086 31.4564C79.4222 31.4155 79.4268 31.3721 79.4218 31.3292C79.4168 31.2864 79.4025 31.2452 79.3798 31.2085C79.3571 31.1718 79.3268 31.1404 79.2909 31.1164C79.2551 31.0924 79.2145 31.0764 79.1719 31.0693C78.5925 30.8967 77.9908 30.8105 77.3862 30.8136L77.3952 30.8068ZM60.1298 33.8141C63.3586 33.8141 64.2405 36.0648 64.2405 40.3482C64.2405 44.6316 63.3581 47.0355 60.1292 47.0355C56.9004 47.0355 55.7396 44.6282 55.7396 40.3482C55.7396 36.0682 56.8993 33.8141 60.1298 33.8141ZM47.3216 27.582H44.5228C44.4567 27.5727 44.3895 27.5868 44.3327 27.6217C44.2759 27.6567 44.2331 27.7104 44.2117 27.7736C44.1979 27.8155 44.194 27.86 44.2004 27.9037V30.8389C44.2103 30.905 44.1964 30.9725 44.1611 31.0293C44.1257 31.086 44.0714 31.1284 44.0077 31.1488C43.9657 31.1628 43.9209 31.1668 43.877 31.1606H42.6514C42.6077 31.1545 42.5632 31.1585 42.5213 31.1725C42.4795 31.1864 42.4414 31.2098 42.4102 31.2409C42.3789 31.2721 42.3552 31.31 42.3411 31.3518C42.3269 31.3935 42.3226 31.438 42.3285 31.4817V33.8192C42.3187 33.8851 42.3326 33.9524 42.3676 34.0092C42.4027 34.0659 42.4567 34.1083 42.5201 34.129C42.5624 34.143 42.6074 34.1468 42.6514 34.1403H43.877C43.9431 34.1311 44.0104 34.1452 44.0672 34.1801C44.1241 34.2151 44.167 34.2687 44.1886 34.3319C44.2025 34.3738 44.2064 34.4183 44.1999 34.462V44.6575C44.1999 48.4733 46.0307 49.9882 49.0865 49.9882C50.3335 49.9882 50.6789 49.8812 50.986 49.7527C51.0601 49.7263 51.1235 49.6763 51.1662 49.6103C51.209 49.5443 51.2289 49.466 51.2227 49.3876V47.1009C51.2227 46.8654 51.0948 46.7798 50.8564 46.8445C50.4246 46.9762 49.9752 47.0412 49.5238 47.0372C48.2751 47.0372 47.6501 46.5212 47.6501 44.9736V34.4609C47.6402 34.3948 47.6541 34.3273 47.6893 34.2704C47.7245 34.2136 47.7787 34.1711 47.8423 34.1505C47.8844 34.1366 47.9292 34.1328 47.973 34.1392H51.0722C51.1147 34.1453 51.1579 34.1429 51.1993 34.1321C51.2408 34.1214 51.2797 34.1024 51.3138 34.0765C51.3479 34.0505 51.3765 34.018 51.3979 33.9809C51.4193 33.9438 51.4331 33.9028 51.4385 33.8603L51.9344 31.5031C51.9981 31.2879 51.891 31.1595 51.6543 31.1595H47.9668C47.923 31.1656 47.8784 31.1616 47.8365 31.1476C47.7945 31.1336 47.7564 31.11 47.7251 31.0788C47.6938 31.0475 47.6701 31.0095 47.6561 30.9675C47.642 30.9256 47.6378 30.881 47.6439 30.8372V27.8986C47.6523 27.8334 47.6376 27.7673 47.6024 27.7118C47.5672 27.6563 47.5138 27.6147 47.4512 27.5944C47.4099 27.5807 47.3659 27.5767 47.3228 27.5826L47.3216 27.582ZM34.7304 31.1606H29.566C29.5223 31.1545 29.4778 31.1585 29.4359 31.1725C29.3941 31.1864 29.356 31.2098 29.3247 31.2409C29.2935 31.2721 29.2698 31.31 29.2557 31.3518C29.2415 31.3935 29.2372 31.438 29.2431 31.4817V33.8192C29.2333 33.8851 29.2472 33.9524 29.2822 34.0092C29.3173 34.0659 29.3713 34.1083 29.4347 34.129C29.477 34.143 29.522 34.1468 29.566 34.1403H34.0418C36.1932 34.1403 37.2053 34.8699 37.2053 36.8626V38.2767C37.2118 38.3205 37.2079 38.3652 37.194 38.4073C37.18 38.4493 37.1564 38.4875 37.125 38.5188C37.0935 38.55 37.0552 38.5734 37.0131 38.5872C36.9709 38.6009 36.9262 38.6045 36.8824 38.5978L32.1907 38.5769C28.2085 38.5769 25.2615 40.0558 25.2615 44.2344C25.2615 48.3719 28.5111 50 31.4582 50C33.7032 50 35.7633 49.3127 36.839 48.1088C37.0548 47.8936 37.2053 47.9364 37.2053 48.2372V49.3516C37.1988 49.3954 37.2026 49.4402 37.2166 49.4823C37.2305 49.5243 37.2542 49.5625 37.2856 49.5938C37.317 49.6251 37.3553 49.6486 37.3974 49.6624C37.4395 49.6762 37.4843 49.6799 37.5281 49.6733H40.327C40.3707 49.6794 40.4152 49.6754 40.4571 49.6614C40.4989 49.6475 40.537 49.624 40.5683 49.5929C40.5995 49.5618 40.6232 49.5239 40.6373 49.4821C40.6515 49.4403 40.6558 49.3959 40.6499 49.3521V36.4271C40.6499 32.7831 38.5452 31.155 34.7304 31.155V31.1606ZM60.1259 30.8169C54.7248 30.8372 52.2933 33.924 52.2933 40.3533C52.2933 46.7826 54.7468 49.9983 60.1259 49.9983C65.5044 49.9983 67.68 46.7826 67.68 40.3533C67.68 33.924 65.5061 30.8136 60.1292 30.8136L60.1259 30.8169Z" fill="#686058"/>
<path fill-rule="evenodd" clip-rule="evenodd" d="M101.307 10.5488C101.199 10.5528 101.094 10.5906 101.008 10.657L97.7722 12.995C97.6263 13.1043 97.5263 13.2639 97.4915 13.4427C97.4568 13.6216 97.4897 13.807 97.584 13.9629L101.038 19.4542C101.119 19.5815 101.21 19.6553 101.298 19.6553C101.386 19.6553 101.471 19.5657 101.542 19.4091L102.894 16.0564C103.046 15.6082 103.063 15.1249 102.942 14.6671L101.709 10.884C101.688 10.7917 101.638 10.7088 101.565 10.6482C101.492 10.5876 101.402 10.5527 101.307 10.5488ZM96.5393 14.1477C96.3981 13.6953 96.1266 13.2945 95.7588 12.9956L92.5261 10.657C92.4403 10.5906 92.3358 10.5528 92.2274 10.5488C92.1335 10.5535 92.0437 10.5886 91.9714 10.6487C91.8992 10.7089 91.8484 10.7909 91.8268 10.8823L90.5956 14.6649C90.5412 14.839 90.5539 15.0273 90.6313 15.1925C90.7086 15.3577 90.845 15.4881 91.0137 15.5578L97.0419 17.9804C97.2143 18.048 97.3406 18.0407 97.4008 17.9652C97.4267 17.9173 97.4421 17.8644 97.446 17.8101C97.4499 17.7558 97.4422 17.7013 97.4234 17.6502L96.5393 14.1477ZM84.5335 16.4412L85.7681 20.2243C85.8183 20.3702 85.9128 20.4967 86.0385 20.5862C86.1642 20.6756 86.3148 20.7234 86.4691 20.7229C86.5271 20.7235 86.5852 20.7173 86.6415 20.7026L92.9374 19.1308C93.0929 19.0931 93.1927 19.0209 93.2135 18.9364C93.2344 18.8519 93.1724 18.7438 93.0496 18.6407L90.2659 16.1956C89.9571 15.9376 89.3559 15.5939 88.9535 15.5939H84.9651C84.7922 15.5939 84.6558 15.7809 84.5763 15.8914C84.4953 16.0633 84.4801 16.2589 84.5335 16.4412ZM90.4079 22.1522C90.373 22.0711 90.2625 22.0181 90.1019 22.0074L86.4866 21.7618H86.3998C85.9542 21.7748 85.5204 21.9086 85.1449 22.1488L81.9138 24.4869C81.8513 24.5267 81.7992 24.5809 81.7619 24.645C81.7247 24.7091 81.7033 24.7812 81.6997 24.8553C81.7037 24.9287 81.7252 25.0001 81.7625 25.0636C81.7998 25.127 81.8516 25.1805 81.9138 25.2198L85.1449 27.5601C85.2948 27.6645 85.4781 27.7097 85.6594 27.6872C85.8407 27.6646 86.0073 27.5758 86.1271 27.4378L90.2992 22.475C90.4045 22.3483 90.4423 22.2328 90.4079 22.1522ZM90.1335 26.6953C90.151 26.5917 90.1267 26.4853 90.0659 26.3995C90.05 26.3832 90.0308 26.3705 90.0096 26.3622C89.9885 26.3538 89.9658 26.35 89.943 26.3511C89.8556 26.3571 89.7714 26.3869 89.6996 26.4373L86.628 28.3562C86.2385 28.6281 85.9381 29.0091 85.7647 29.4514L84.5301 33.2345C84.5032 33.3048 84.493 33.3804 84.5005 33.4553C84.5079 33.5302 84.5327 33.6024 84.573 33.666C84.6187 33.7249 84.6779 33.7719 84.7455 33.8033C84.8131 33.8347 84.8873 33.8494 84.9618 33.8463H88.9659C89.1501 33.841 89.3258 33.768 89.4593 33.6411C89.5928 33.5143 89.6748 33.3426 89.6895 33.159L90.1335 26.6953ZM92.4968 30.2198C92.4156 30.0931 92.3243 30.0187 92.2381 30.0187C92.1514 30.0187 92.0567 30.11 91.993 30.2666L90.6423 33.6198C90.489 34.068 90.4727 34.5517 90.5956 35.0091L91.8268 38.7922C91.8479 38.884 91.8985 38.9663 91.9709 39.0265C92.0432 39.0867 92.1334 39.1216 92.2274 39.1257C92.3358 39.1218 92.4403 39.084 92.5261 39.0176L95.7588 36.679C95.9047 36.5697 96.0047 36.4101 96.0395 36.2313C96.0742 36.0524 96.0413 35.867 95.947 35.7111L92.4968 30.2198ZM96.9951 35.5269C97.136 35.9787 97.4076 36.3798 97.7756 36.679L101.008 39.017C101.094 39.0839 101.2 39.122 101.309 39.1257C101.402 39.1212 101.492 39.0862 101.564 39.026C101.636 38.9658 101.687 38.8837 101.708 38.7922L102.942 35.0091C102.996 34.8346 102.982 34.6465 102.904 34.4813C102.827 34.3161 102.691 34.1855 102.522 34.115L96.4908 31.6925C96.4261 31.6638 96.3564 31.6479 96.2857 31.6457C96.257 31.6428 96.2281 31.6471 96.2015 31.6582C96.1749 31.6693 96.1516 31.6869 96.1336 31.7094C96.1074 31.7568 96.0918 31.8092 96.0876 31.8631C96.0834 31.917 96.0908 31.9712 96.1093 32.0221L96.9951 35.5263V35.5269ZM108.996 33.2345L107.761 29.4514C107.711 29.3074 107.618 29.1823 107.495 29.093C107.371 29.0038 107.223 28.9548 107.071 28.9528C107.012 28.9528 106.955 28.9601 106.898 28.9736L100.587 30.5454C100.431 30.5832 100.329 30.6553 100.311 30.7393C100.292 30.8238 100.35 30.9319 100.473 31.035L103.258 33.3618C103.638 33.6491 104.095 33.8176 104.57 33.8463H108.566C108.64 33.8493 108.714 33.8345 108.782 33.8031C108.85 33.7718 108.909 33.7248 108.955 33.666C108.994 33.6022 109.019 33.53 109.026 33.4551C109.033 33.3802 109.023 33.3047 108.996 33.2345ZM103.113 27.5494C103.146 27.6288 103.259 27.6824 103.418 27.6925L107.044 27.9404H107.131C107.577 27.927 108.01 27.7933 108.386 27.5533L111.619 25.2131C111.681 25.1741 111.733 25.1206 111.771 25.0571C111.808 24.9936 111.829 24.9221 111.833 24.8485C111.829 24.7758 111.807 24.7051 111.77 24.6423C111.733 24.5795 111.682 24.5264 111.621 24.4874L108.388 22.1505C108.265 22.0621 108.118 22.0152 107.967 22.0164C107.86 22.0153 107.755 22.0373 107.658 22.0809C107.561 22.1245 107.474 22.1886 107.404 22.2688L103.22 27.2384C103.125 27.3522 103.079 27.4688 103.113 27.5494ZM106.946 21.2942C107.311 21.0372 107.591 20.678 107.751 20.2621L109.013 16.4052C109.063 16.2342 109.049 16.051 108.973 15.8897C108.901 15.7883 108.772 15.604 108.613 15.604H104.527C104.182 15.604 103.876 16.0114 103.852 16.3573L103.396 22.9742C103.381 23.0798 103.403 23.1874 103.458 23.2784C103.524 23.3488 103.65 23.3488 103.804 23.2593L106.946 21.2942Z" fill="#FAAF00"/>
</g>
<defs>
<clipPath id="clip0_308_102">
<rect width="94.6667" height="40" fill="white" transform="translate(17.1665 10)"/>
</clipPath>
</defs>
</svg>
