<svg width="60" height="60" viewBox="0 0 60 60" fill="none" xmlns="http://www.w3.org/2000/svg">
<rect width="60" height="60" fill="#333132"/>
<path d="M31.491 10.9613C31.2007 10.4673 30.4894 10.4673 30.1991 10.9613L8.20703 48.98C11.9522 43.0091 17.7151 38.4039 24.4797 36.0359C24.9442 35.847 25.4232 35.7017 25.9023 35.571C25.9313 35.5565 25.9603 35.5565 25.9894 35.5419H26.0039L30.9974 26.898L35.3378 34.4233C39.2572 34.496 43.0023 35.3095 46.4427 36.7187L31.491 10.9613Z" fill="#FA8C1E"/>
<path d="M30.7373 35.1497C30.5922 34.8882 30.3019 34.7429 30.0115 34.7865C28.647 34.9463 27.3115 35.2078 26.0051 35.5419H25.9906C25.9615 35.5564 25.9325 35.5564 25.9035 35.571C25.4244 35.7017 24.9454 35.8615 24.4809 36.0358C17.7163 38.4038 11.9534 43.0091 8.20822 48.9799C7.90338 49.4739 8.25177 50.1276 8.84693 50.1276H17.5276L17.5712 50.0695L17.6147 50.1276C21.6647 45.8274 27.4131 43.1253 33.7857 43.1253C33.8728 43.1253 33.9599 43.1253 34.047 43.1253C34.6277 43.1398 34.9906 42.5006 34.7003 42.0067L30.7373 35.1497Z" fill="#E65A23"/>
<path d="M44.1763 49.7499C44.3069 49.9824 44.5537 50.1277 44.8295 50.1277H52.9441C53.5247 50.1277 53.8731 49.503 53.5828 49.009L46.4408 36.7187C43.0005 35.3095 39.2553 34.5105 35.3359 34.4233L44.1763 49.7499Z" fill="#FCB904"/>
</svg>
