<svg width="130" height="60" viewBox="0 0 130 60" fill="none" xmlns="http://www.w3.org/2000/svg">
<rect width="130" height="60" fill="white"/>
<path d="M59.4691 42.9015C59.4691 43.0284 59.3803 43.1173 59.2027 43.1173C59.0378 43.1173 58.5938 43.0919 58.5938 42.9523V37.9756C58.5938 37.8613 58.6826 37.7979 58.8348 37.7979H61.651C61.7525 37.7979 61.8286 37.8994 61.8286 38.0137C61.8286 38.1787 61.8032 38.585 61.6891 38.585H59.4564V40.0831H61.2831C61.3846 40.0831 61.4607 40.1719 61.4607 40.2862C61.4607 40.4512 61.4353 40.8575 61.3212 40.8575H59.4564V42.9015H59.4691Z" fill="#808285"/>
<path d="M63.0337 43.1173C62.8561 43.1173 62.3867 43.0919 62.3867 42.965V37.8613C62.3867 37.7344 62.8561 37.709 63.0337 37.709C63.1605 37.709 63.262 37.7979 63.262 37.8994V42.9142C63.262 43.0411 63.1605 43.1173 63.0337 43.1173Z" fill="#808285"/>
<path d="M67.4458 37.8486C67.4458 37.7344 67.9279 37.709 68.1181 37.709C68.245 37.709 68.3084 37.7852 68.3084 37.9248V42.9269C68.3084 43.0411 68.1943 43.1173 68.0928 43.1173C67.9279 43.1173 67.5346 43.0919 67.4585 42.9777L65.099 39.3467V42.9269C65.099 43.0411 64.9975 43.1173 64.8833 43.1173C64.7057 43.1173 64.2363 43.0919 64.2363 42.965V37.8613C64.2363 37.7344 64.7057 37.709 64.8706 37.709C64.9721 37.709 65.0482 37.7852 65.099 37.8613L67.4585 41.4923V37.8486H67.4458Z" fill="#808285"/>
<path d="M72.0542 41.8856H70.126L69.7708 42.9647C69.7201 43.1044 69.441 43.1171 69.1619 43.1171C69.035 43.1171 68.8828 43.079 68.8828 42.9647C68.8828 42.9393 68.8955 42.9266 68.8955 42.9012L70.6715 37.8738C70.7095 37.7468 71.1028 37.7214 71.3058 37.7214C71.3946 37.7214 71.4707 37.7849 71.5087 37.8865L73.2721 42.9139C73.2847 42.9393 73.2847 42.952 73.2847 42.9774C73.2847 43.0917 73.1325 43.1298 73.0057 43.1298C72.6885 43.1298 72.4348 43.1171 72.3841 42.952L72.0542 41.8856ZM70.3417 41.1873H71.8259L71.1409 39.0799C71.1155 39.0037 71.1028 38.9021 71.0901 38.826C71.0774 38.9021 71.0647 39.0037 71.0267 39.0799L70.3417 41.1873Z" fill="#808285"/>
<path d="M77.104 37.8486C77.104 37.7344 77.5861 37.709 77.7763 37.709C77.9032 37.709 77.9666 37.7852 77.9666 37.9248V42.9269C77.9666 43.0411 77.8525 43.1173 77.751 43.1173C77.5861 43.1173 77.1928 43.0919 77.1167 42.9777L74.7572 39.3467V42.9269C74.7572 43.0411 74.6557 43.1173 74.5415 43.1173C74.3639 43.1173 73.8945 43.0919 73.8945 42.965V37.8613C73.8945 37.7344 74.3639 37.709 74.5288 37.709C74.6303 37.709 74.7064 37.7852 74.7572 37.8613L77.1167 41.4923V37.8486H77.104Z" fill="#808285"/>
<path d="M79.7044 40.9971C79.7044 41.9874 79.8947 42.381 80.8968 42.381H80.9603C81.4296 42.381 81.8229 42.3048 82.0259 42.2667C82.1781 42.2413 82.2288 42.6222 82.2288 42.838C82.2288 43.0411 81.3409 43.1046 80.8715 43.1046H80.8081C79.4634 43.1046 78.8164 42.6095 78.8164 41.1241V39.6895C78.8164 38.2041 79.4761 37.709 80.8461 37.709H80.9095C81.3282 37.709 82.2288 37.7852 82.2288 37.9756C82.2288 38.2803 82.1908 38.5596 82.0639 38.5469C81.899 38.5215 81.4423 38.4453 80.9983 38.4453H80.9349C79.9074 38.4453 79.7044 38.8262 79.7044 39.8292V40.9971Z" fill="#808285"/>
<path d="M82.9648 37.9756C82.9648 37.8486 83.0663 37.7852 83.1932 37.7852H86.1109C86.2251 37.7852 86.3012 37.874 86.3012 38.001C86.3012 38.166 86.2758 38.5723 86.1616 38.5723H83.8528V39.9815H85.8318C85.9206 39.9815 86.0094 40.0704 86.0094 40.1846C86.0094 40.3497 85.984 40.7559 85.8699 40.7559H83.8401V42.2413H86.1109C86.2251 42.2413 86.3012 42.3302 86.3012 42.4571C86.3012 42.6095 86.2758 43.0284 86.1616 43.0284H83.2947C83.1044 43.0284 82.9648 42.9904 82.9648 42.8888V37.9756Z" fill="#808285"/>
<path d="M87.7329 43.1173C87.5553 43.1173 87.0859 43.0919 87.0859 42.965V37.8613C87.0859 37.7344 87.5553 37.709 87.7329 37.709C87.8598 37.709 87.9612 37.7979 87.9612 37.8994V42.9142C87.9612 43.0411 87.8598 43.1173 87.7329 43.1173Z" fill="#808285"/>
<path d="M88.9102 38.0645C88.9102 37.8867 88.9863 37.7852 89.1385 37.7852H90.7369C92.1957 37.7852 92.6017 38.2422 92.6017 39.3594V39.5245C92.6017 40.4385 92.3353 40.8575 91.6122 41.0098L92.6271 42.7618C92.6778 42.8507 92.7032 42.9142 92.7032 42.9777C92.7032 43.1046 92.5763 43.1173 92.4241 43.1173C92.2465 43.1173 91.8913 43.1046 91.7898 42.9269L90.7242 41.0987H89.7855V42.9269C89.7855 43.0411 89.684 43.1173 89.5698 43.1173C89.3922 43.1173 88.9228 43.0919 88.9228 42.965V38.0645H88.9102ZM89.7728 38.5723V40.3243H90.7876C91.4727 40.3243 91.701 40.1846 91.701 39.5371V39.3721C91.701 38.7119 91.46 38.5723 90.7876 38.5723H89.7728Z" fill="#808285"/>
<path d="M96.2027 41.8856H94.2744L93.9192 42.9647C93.8685 43.1044 93.5894 43.1171 93.3103 43.1171C93.1835 43.1171 93.0312 43.079 93.0312 42.9647C93.0312 42.9393 93.0439 42.9266 93.0439 42.9012L94.8199 37.8738C94.858 37.7468 95.2512 37.7214 95.4542 37.7214C95.543 37.7214 95.6191 37.7849 95.6572 37.8865L97.4205 42.9139C97.4332 42.9393 97.4332 42.952 97.4332 42.9774C97.4332 43.0917 97.2809 43.1298 97.1541 43.1298C96.8369 43.1298 96.5832 43.1171 96.5325 42.952L96.2027 41.8856ZM94.4901 41.1873H95.9743L95.2893 39.0799C95.2639 39.0037 95.2512 38.9021 95.2386 38.826C95.2259 38.9021 95.2132 39.0037 95.1751 39.0799L94.4901 41.1873Z" fill="#808285"/>
<path d="M68.4505 31.1324H62.8561L61.9427 33.9508C61.7651 34.484 60.6995 34.5094 59.6086 34.5094C59.1011 34.5094 58.543 34.3571 58.543 33.9254C58.543 33.8366 58.5683 33.7985 58.581 33.6969L64.0866 18.5383C64.2388 18.0305 65.8372 18.0051 66.5476 18.0051C66.814 18.0051 67.1312 18.1829 67.258 18.5383L72.7129 33.7096C72.7382 33.7985 72.7509 33.8493 72.7509 33.9381C72.7509 34.3571 72.1547 34.5221 71.6853 34.5221C70.5309 34.5221 69.5288 34.4713 69.3512 33.9254L68.4505 31.1324ZM63.7187 28.4663H67.5878L65.8119 22.9945C65.7231 22.766 65.6723 22.4867 65.6596 22.2455C65.6089 22.4867 65.5962 22.7787 65.5201 22.9945L63.7187 28.4663Z" fill="#333132"/>
<path d="M78.5341 33.8873C78.5341 34.2682 78.1155 34.5094 77.6842 34.5094C77.1006 34.5094 75.1978 34.4586 75.1978 33.9762V21.2171H71.3286C70.9988 21.2171 70.7324 20.8235 70.7324 20.4427C70.7324 19.9095 70.7832 18.2463 71.2652 18.2463H82.3905C82.7204 18.2463 82.9868 18.6399 82.9868 19.0208C82.9868 19.554 82.9233 21.2171 82.454 21.2171H78.5214V33.8873H78.5341Z" fill="#333132"/>
<path d="M84.5742 19.1734C84.5742 18.5767 84.904 18.2339 85.4242 18.2339H90.4857C95.1033 18.2339 96.4607 19.6812 96.4607 23.1725V23.82C96.4607 26.6003 95.5981 27.9079 93.5937 28.4158L96.4987 33.2782C96.6763 33.5829 96.7651 33.8114 96.7651 33.9891C96.7651 34.4589 96.2577 34.497 95.7249 34.497C95.0779 34.497 93.6825 34.4716 93.3654 33.913L90.2193 28.7332H87.8852V33.913C87.8852 34.2684 87.4919 34.497 87.0606 34.497C86.5024 34.497 84.5742 34.4335 84.5742 33.9384V19.1734ZM87.8725 21.2174V25.7751H90.6507C92.3632 25.7751 92.9975 25.445 92.9975 23.82V23.1725C92.9975 21.5728 92.3125 21.2174 90.6507 21.2174H87.8725Z" fill="#333132"/>
<path d="M101.369 34.5092C100.773 34.5092 98.8574 34.4584 98.8574 33.976V18.5508C98.8574 18.0557 100.773 18.0176 101.369 18.0176C101.775 18.0176 102.194 18.2588 102.194 18.6143V33.8744C102.194 34.2553 101.775 34.5092 101.369 34.5092Z" fill="#333132"/>
<path d="M113.702 31.1324H108.108L107.195 33.9508C107.017 34.484 105.951 34.5094 104.861 34.5094C104.353 34.5094 103.795 34.3571 103.795 33.9254C103.795 33.8366 103.82 33.7985 103.833 33.6969L109.339 18.5383C109.491 18.0305 111.089 18.0051 111.8 18.0051C112.066 18.0051 112.383 18.1829 112.51 18.5383L117.965 33.7096C117.99 33.7985 118.003 33.8493 118.003 33.9381C118.003 34.3571 117.407 34.5221 116.937 34.5221C115.783 34.5221 114.781 34.4713 114.603 33.9254L113.702 31.1324ZM108.971 28.4663H112.84L111.064 22.9945C110.975 22.766 110.924 22.4867 110.912 22.2455C110.861 22.4867 110.848 22.7787 110.785 22.9945L108.971 28.4663Z" fill="#333132"/>
<path d="M34.2755 13.7139C34.0218 13.2822 33.4002 13.2822 33.1465 13.7139L13.9277 46.9383C17.2006 41.7204 22.2368 37.6959 28.1484 35.6265C28.5543 35.4615 28.9729 35.3345 29.3916 35.2202C29.4169 35.2076 29.4423 35.2076 29.4677 35.1949H29.4804L33.8442 27.641L37.6372 34.2173C41.0624 34.2808 44.3353 34.9917 47.3418 36.2232L34.2755 13.7139Z" fill="#FA8C1E"/>
<path d="M33.6166 34.8519C33.4897 34.6234 33.236 34.4964 32.9823 34.5345C31.7898 34.6742 30.6227 34.9027 29.481 35.1947H29.4683C29.443 35.2074 29.4176 35.2074 29.3922 35.2201C28.9736 35.3343 28.555 35.474 28.149 35.6263C22.2375 37.6957 17.2013 41.7202 13.9284 46.9381C13.662 47.3698 13.9665 47.9411 14.4866 47.9411H22.0726L22.1107 47.8903L22.1487 47.9411C25.688 44.1832 30.7115 41.8218 36.2805 41.8218C36.3567 41.8218 36.4328 41.8218 36.5089 41.8218C37.0163 41.8345 37.3334 41.2759 37.0797 40.8442L33.6166 34.8519Z" fill="#E65A23"/>
<path d="M45.3623 47.6112C45.4765 47.8143 45.6921 47.9412 45.9331 47.9412H53.0244C53.5319 47.9412 53.8363 47.3953 53.5826 46.9637L47.3412 36.2232C44.3347 34.9917 41.0618 34.2935 37.6367 34.2173L45.3623 47.6112Z" fill="#FCB904"/>
</svg>
