<svg width="130" height="60" viewBox="0 0 130 60" fill="none" xmlns="http://www.w3.org/2000/svg">
<rect width="130" height="60" fill="white"/>
<path fill-rule="evenodd" clip-rule="evenodd" d="M84.0976 32.437C83.7717 34.7458 82.7311 35.9386 81.3081 35.9386C80.4015 35.9386 79.8825 35.3058 80.0366 34.3218L80.5368 31.2033C80.7299 30.0482 81.4226 29.1436 82.6538 29.1436C84.0215 29.1429 84.4272 30.0665 84.0976 32.437ZM79.4012 37.0188C79.5931 37.0188 80.0561 37.826 81.5566 37.826C84.7512 37.826 86.582 35.5171 87.0821 32.5339C87.7175 28.8542 85.9271 27.1795 83.6748 27.1795C82.6166 27.1795 81.9045 27.2764 81.3257 27.5852L82.1933 22.5039L79.4591 22.5416L76.8225 37.6737L78.8243 37.6146C78.8243 37.6146 79.1131 37.0188 79.4214 37.0188H79.4012ZM107.047 30.5704C107.45 28.2785 106.605 27.1625 104.12 27.1625C102.273 27.1625 101.598 27.8929 100.905 28.5874L101.002 27.3739L98.4792 27.4129L98.2288 29.2996L96.8045 37.6744L99.5386 37.6152L100.405 32.225C100.712 30.3571 102.003 28.9316 103.215 28.9316C104.563 28.9316 104.487 29.7016 104.276 30.8755L103.101 37.6744L105.834 37.6152L107.047 30.5704ZM118 27.2002L115.133 27.1619L111.243 31.1265H111.186L112.647 22.5202L110.03 22.541L107.393 37.6731L110.05 37.614L110.319 36.1324L110.857 32.8195C112.264 32.8195 113.053 32.9743 113.669 35.765L114.091 37.6731L116.807 37.6341C116.807 37.6341 116.133 34.7836 115.69 33.6675C115.229 32.4942 114.63 31.7984 113.553 31.5883L118 27.2002ZM42.5357 30.9353C44.479 30.5113 45.4045 28.8925 45.6737 27.8728C46.3664 25.0638 45.1144 22.8675 41.5341 22.9065L37.4128 22.9845L34.8523 37.6511L37.6047 37.6341L38.6641 31.7236C39.2228 31.7236 39.4536 31.7028 39.7229 31.7418C40.011 31.7613 40.4168 31.8192 40.6666 32.0293C41.1088 32.4533 41.4945 33.3599 41.7826 35.1309L42.2073 37.6511L45.0169 37.6341C44.6891 36.1129 44.4784 34.6886 44.2091 33.5323C43.9191 32.3206 43.5165 31.4732 42.5155 30.9347L42.5357 30.9353ZM42.9006 27.4682C42.6697 28.7781 41.7443 29.6072 40.4942 29.6072H38.9145L39.7235 25.0059L41.1692 24.948C42.5929 24.909 43.1132 26.159 42.9006 27.4682ZM55.0878 30.1646C55.4728 27.93 54.2788 27.1619 51.8724 27.1619C49.1968 27.1619 47.5598 28.5868 47.5598 28.5868L48.4852 30.1451C48.4852 30.1451 49.7353 29.0089 51.6793 29.0089C52.3159 29.0089 52.4902 29.4323 52.3933 30.1451L52.1819 31.4732C48.3122 31.3776 46.3286 32.2042 45.8851 34.7452C45.5196 36.8244 47.0974 37.7467 48.8489 37.7467C49.7542 37.7467 50.4669 37.6888 51.3515 36.9213C51.5257 37.4227 51.8139 37.6511 52.1618 37.7102C52.7179 37.826 53.7006 37.7297 53.9906 37.5184C53.9705 37.2101 53.9906 36.4187 54.3184 34.5716L55.0878 30.1646ZM51.9101 32.8805L51.6409 34.3822C51.569 34.8761 51.3246 35.3286 50.9511 35.6597C50.5776 35.9907 50.099 36.1789 49.6 36.1909C48.5985 36.1909 48.1958 35.6134 48.3682 34.8232C48.5985 33.5134 49.3301 33.168 49.9662 32.9938C50.2933 32.8975 51.3515 32.8805 51.9101 32.8805ZM60.1887 37.826C63.3852 37.826 65.2147 35.5171 65.7148 32.5339C66.3502 28.8542 64.5579 27.1795 62.3063 27.1795C61.2468 27.1795 60.5347 27.2764 59.9377 27.5852L60.8046 22.5039L58.0899 22.5416L55.4533 37.6737L57.4564 37.6146C57.4564 37.6146 57.7439 37.0188 58.0339 37.0188C58.2246 37.0188 58.687 37.826 60.1887 37.826ZM61.3047 29.1429C62.6718 29.1429 63.0763 30.0665 62.7479 32.4364C62.4227 34.7452 61.3815 35.938 59.937 35.938C59.033 35.938 58.5127 35.3051 58.687 34.3212L59.1877 31.2027C59.3809 30.0476 60.0735 29.1429 61.2852 29.1429H61.3047ZM70.3545 37.8826C67.8123 37.7474 66.3106 35.8613 66.5025 33.4002C66.7334 29.8765 68.773 26.9115 72.8364 27.1235C76.0518 27.2952 76.8602 29.3946 76.7451 31.7034C76.552 35.3429 74.4155 38.1148 70.3728 37.9034L70.3545 37.8826ZM70.6993 35.9978C72.7584 36.1135 73.6826 33.6864 73.8191 31.6286C73.8952 30.5509 74.0884 29.1046 72.5263 29.0467C70.5062 28.9316 69.4681 31.5109 69.3341 33.4769C69.2372 34.9025 69.6021 35.9588 70.6798 36.0179L70.6993 35.9978ZM96.4773 30.1269C96.8617 27.8929 95.6676 27.1235 93.2802 27.1235C90.6052 27.1235 88.9682 28.5478 88.9682 28.5478L89.8911 30.108C89.8911 30.108 91.1456 28.9706 93.0883 28.9706C93.7237 28.9706 93.8967 29.394 93.7828 30.108L93.5702 31.4335C89.6999 31.3367 87.7175 32.1658 87.2752 34.7081C86.9091 36.7848 88.4882 37.7096 90.2403 37.7096C91.1456 37.7096 91.8571 37.6505 92.7423 36.8829C92.9165 37.3818 93.204 37.614 93.5507 37.6731C94.11 37.7864 95.0914 37.6888 95.3801 37.4787C95.3619 37.1705 95.3801 36.3803 95.706 34.5332L96.4773 30.1269ZM91.3758 32.9566C91.7017 32.861 92.7618 32.8384 93.3015 32.8384L93.0323 34.3426C92.8391 35.575 91.7816 36.1513 91.0109 36.1513C90.0094 36.1513 89.6055 35.575 89.759 34.7836C89.9899 33.4763 90.7209 33.1284 91.3563 32.9566H91.3758ZM11 35.0579C11 32.5314 14.3098 30.476 18.4242 30.4244C18.4242 30.4244 18.4116 30.225 18.399 30.113C18.3871 29.9998 18.2996 29.8639 18.2996 29.6393C18.2996 29.4153 18.4865 28.4195 18.4865 28.4195C18.4865 28.4195 18.3374 28.2691 18.2499 27.9589C18.1625 27.6469 18.1373 27.4091 18.1373 27.4091C18.1373 27.4091 17.9882 26.6976 17.9882 26.4503C17.9882 26.332 18.0335 25.9244 18.0253 25.5368C18.0153 25.0443 17.9568 24.6775 17.9568 24.6775C17.7234 25.243 17.512 25.5085 17.3484 25.7067C17.2584 25.8747 17.2031 26.0848 17.1528 26.2578C17.1018 26.4321 16.8011 26.9341 16.8011 27.16C16.8011 27.4418 16.9646 27.6689 16.9646 27.757C16.9646 27.8444 16.891 27.9313 16.891 27.9313C16.9344 28.0747 16.969 28.1684 16.7501 28.1684C16.5928 28.1684 16.5041 28.008 16.5041 27.7337C16.5041 27.5846 16.5293 27.4494 16.5425 27.3254C16.5526 27.2204 16.5488 27.1254 16.5803 27.0134C16.725 26.4994 16.7759 26.1339 16.8652 25.5765C16.9149 25.2688 17.0924 25.1418 17.1767 24.8417C17.3107 24.3654 17.534 23.1997 17.6252 23.0493C17.729 22.8845 17.9668 22.8065 18.2128 22.6744C18.4462 22.5467 18.6136 22.458 18.6136 22.2044C18.6136 22.0188 18.4651 22.0295 18.3864 21.937C18.3204 21.859 18.3367 21.3394 18.3367 21.1022C18.3367 20.8657 18.2858 20.838 18.2858 20.6291C18.2858 20.4177 18.3783 20 18.8224 20C19.0137 20 19.0766 20.1793 19.1584 20.3605C19.2452 20.5568 19.3201 20.6536 19.3201 21.016C19.3201 21.2406 18.9942 21.4633 18.9942 21.9062C18.9942 22.0308 19.1087 22.2988 19.7554 22.2988C20.024 22.2988 20.1738 22.6234 20.1989 22.7467C20.2235 22.8725 20.2052 23.0103 20.2298 23.1777C20.2556 23.3482 20.3682 23.479 20.4128 23.6275C20.455 23.776 20.5487 24.3428 20.5745 24.4491C20.599 24.5554 20.7846 25.0216 20.8218 25.2412C20.8601 25.4588 20.9281 26.2389 20.9904 26.5812C21.0533 26.9222 21.0854 26.9083 21.1086 27.0593C21.1395 27.2613 21.2206 27.2556 21.2206 27.3971C21.2206 27.54 20.9841 27.9696 20.8218 27.9696C20.6909 27.9696 20.6425 27.5764 20.6425 27.4531C20.6425 27.1417 20.75 27.0536 20.75 26.6246C20.75 26.3012 20.6594 26.2138 20.4864 25.8325C20.3122 25.4532 20.2241 25.3034 20.2002 25.1852C20.1744 25.0663 19.9932 24.8234 19.9504 24.6617C19.8837 24.4145 19.7825 24.1125 19.7825 24.1125C19.7825 24.1125 19.5585 24.6989 19.5207 25.0732C19.5157 25.1355 19.3886 25.367 19.4037 25.5645C19.4151 25.7312 19.5717 25.747 19.6824 26.025C19.795 26.3063 19.7636 26.4119 19.7636 26.8429C19.7636 27.2719 19.4899 27.8501 19.4899 27.8501C19.6157 27.9998 19.795 28.7126 19.9567 28.985C20.0505 29.1423 20.3468 29.2883 20.6286 29.5311C21.0344 29.8828 21.0671 30.3565 21.3169 30.7365C24.1542 31.4046 26.1636 33.0856 26.1636 35.0554C26.1636 38.2613 22.7393 40.5035 18.5752 40.5035C14.413 40.5023 11 38.5753 11 35.0579ZM19.1483 30.4351C19.5226 30.4534 19.8907 30.488 20.2486 30.5358C20.2486 30.5358 20.0813 30.2867 19.9378 30.1552C19.795 30.0275 19.5585 29.9054 19.4182 29.7828C19.2773 29.6569 19.2402 29.4594 19.1181 29.3971C19.0768 29.5026 19.053 29.6142 19.0476 29.7274C19.0476 29.8293 19.1483 30.4351 19.1483 30.4351Z" fill="#3067AD"/>
<path fill-rule="evenodd" clip-rule="evenodd" d="M19.0715 34.4005C19.2401 34.4445 19.5201 34.5194 19.5201 34.5194L19.1961 34.5672L18.4864 37.022L17.7755 34.5716L14.3047 34.1564L17.7755 33.7437L18.3675 32.1917C18.3675 32.1917 18.3795 32.4622 18.3373 32.6478C18.2933 32.8346 18.2914 32.934 18.2323 33.0617C18.1882 33.2115 18.1184 33.4404 18.1184 33.4404C18.1184 33.4404 17.8183 33.75 17.7252 33.8016C17.6321 33.8506 17.4012 33.8141 17.4012 33.9381C17.4012 33.9507 17.4075 33.9821 17.4075 33.9821L16.5418 33.9872V34.0324L17.4201 34.018C17.4956 34.1369 17.7925 34.1312 17.7925 34.1312L17.8183 34.1941C17.8183 34.1941 17.7371 34.3319 17.7371 34.3929C17.7371 34.4558 17.7931 34.4873 17.8441 34.4873C17.8938 34.4873 18.0309 34.4552 18.0309 34.4552C18.3178 34.6729 18.8595 34.6068 19.0715 34.4005ZM19.1445 31.3197C19.8648 31.365 20.5449 31.504 21.1501 31.7066C21.1501 31.7066 21.2187 31.9167 21.2287 32.0017C21.2948 32.1432 21.3099 32.3716 21.3099 32.3716L19.0784 33.2819L18.8104 32.5138C18.8104 32.5138 18.9117 32.0803 19.0048 31.8343C19.0967 31.5915 19.1445 31.3197 19.1445 31.3197Z" fill="#E3AA39"/>
<path fill-rule="evenodd" clip-rule="evenodd" d="M21.1212 31.6442C20.4833 31.4386 19.8222 31.3135 19.1533 31.2717C19.1533 31.2717 19.232 30.9987 19.1628 30.547C19.5748 30.5678 19.9749 30.6074 20.3625 30.6684C20.4436 30.7729 20.9595 31.2088 21.1212 31.6442ZM21.8 31.9669C23.0834 32.5602 23.9107 33.4906 23.9107 34.5029C23.9107 34.6501 23.8918 34.7992 23.8528 34.9451C23.705 34.9068 23.3439 34.7155 23.2973 34.5249C23.2501 34.3305 23.2721 34.3236 23.2671 34.2877C23.231 34.1219 23.1816 33.9593 23.1193 33.8014C23.0035 33.5114 22.5625 33.2277 22.5342 33.1094C22.5065 32.9905 22.531 32.8672 22.531 32.7848C22.531 32.7036 22.4411 32.6262 22.2913 32.6262C22.1416 32.6262 22.0693 32.6948 21.9416 32.6948C21.8132 32.6948 21.7201 32.6495 21.7201 32.6495C21.7837 32.5035 21.7295 32.4809 21.7295 32.2563C21.7295 32.0657 21.8 31.9669 21.8 31.9669Z" fill="#E3AA39"/>
<path fill-rule="evenodd" clip-rule="evenodd" d="M25.8497 34.6803C25.8729 34.9172 25.8642 35.1561 25.8239 35.3906L24.8733 35.1635L23.9687 34.9804C24.0033 34.8409 24.021 34.6977 24.0215 34.5539C24.0215 33.497 23.1533 32.525 21.8165 31.9135C21.841 31.8437 22.0128 31.692 22.0128 31.5266C22.0128 31.4184 21.7636 31.3435 21.6183 31.202C21.5208 31.1101 21.4088 30.8849 21.4088 30.8849C23.6717 31.4756 25.3508 32.7452 25.7635 34.228C25.7635 34.228 25.3062 34.0783 25.1162 34.0795C25.0413 33.938 25.0004 33.8153 25.0004 33.8153L24.9721 33.8902C24.6896 33.9028 24.2889 33.8952 24.2889 33.8952L24.2222 33.8323L24.2908 34.0166L24.3191 33.9575L24.9948 33.9587L25.0665 34.0129L25.0533 34.0695C24.9942 34.0662 24.935 34.0732 24.8784 34.0902H24.3682L24.3027 34.0437L24.343 34.2123L24.3757 34.1531L24.7261 34.1607C24.6701 34.206 24.7261 34.2846 24.7261 34.2846L24.4028 34.2884L24.3506 34.2368L24.3776 34.4086L24.4154 34.3519L24.7777 34.362C25.0369 34.6457 25.8497 34.6803 25.8497 34.6803ZM21.188 34.3475L22.1065 34.2123C22.1128 34.3501 22.1531 34.4664 22.1096 34.6621C21.5875 34.5954 21.188 34.3475 21.188 34.3475Z" fill="#E3AA39"/>
<path fill-rule="evenodd" clip-rule="evenodd" d="M18.7427 33.4851C18.7427 33.4851 18.71 33.2957 18.71 33.0906C18.71 32.8868 18.7861 32.6301 18.7861 32.6301L19.1862 33.7443L22.1053 34.0393L22.1072 34.1633L21.117 34.3036C21.117 34.3036 20.8634 34.14 20.3821 34.0922L21.8335 34.1104L21.8555 34.0526L19.3649 34.0475L19.2214 34.018C19.2214 34.018 19.1673 33.7305 18.7647 33.6348L18.7427 33.4851Z" fill="#E3AA39" stroke="#3067AD" stroke-width="0.259395" stroke-miterlimit="2.613"/>
<path fill-rule="evenodd" clip-rule="evenodd" d="M19.1011 33.3309L21.2784 32.4401L19.8831 33.7612L19.5962 33.7304L20.3505 33.2453L20.3316 33.2158L19.4974 33.7241L19.2659 33.7008L20.9324 32.6665L20.9129 32.6345L19.2093 33.6568L19.1011 33.3309Z" fill="#E3AA39" stroke="#3067AD" stroke-width="0.259395" stroke-miterlimit="2.613"/>
<path fill-rule="evenodd" clip-rule="evenodd" d="M18.7759 33.7133C19.0219 33.802 19.0653 33.958 19.0653 33.958L18.7822 33.8108L18.7759 33.7133ZM19.9624 33.7699L21.3125 32.4758C21.3282 32.5211 21.3402 32.5557 21.3251 32.5985C21.2974 32.6784 21.0904 32.7558 21.0904 32.8747C21.0904 32.9351 21.1401 32.9407 21.1879 32.9407C21.2351 32.9407 21.3062 32.8892 21.3597 32.9024C21.466 32.9294 21.6799 32.9923 21.7724 33.132C21.9303 33.3692 22.0605 33.7265 22.0976 33.9895C21.7296 33.9637 19.9624 33.7699 19.9624 33.7699ZM22.287 36.9054C22.6707 36.6808 23.0042 36.4273 23.2747 36.1511C23.4414 36.226 23.6289 36.4242 24.0951 36.6488C24.431 36.8111 24.889 36.935 25.0167 36.9967C24.923 37.1061 24.8217 37.2106 24.7128 37.3112C24.3134 37.1854 22.9111 37.3219 22.287 36.9054Z" fill="#E3AA39"/>
<path fill-rule="evenodd" clip-rule="evenodd" d="M18.3682 32.0444L17.9071 33.2642L15.6146 32.3746L15.5775 32.4067L17.0169 33.7832L14.1179 34.1368V34.1934L16.9647 34.535L15.1019 36.2173L15.1402 36.2563L17.8637 35.0962L18.4557 37.1767L18.5242 37.1729L19.1093 35.0729L21.8384 36.245L21.8818 36.1934L20.2059 34.6917C20.2059 34.6917 21.0527 34.8905 21.254 34.9974C21.4521 35.1019 21.8881 35.4019 22.1366 35.5076C22.3876 35.6146 22.438 35.5775 22.5128 35.607C22.5864 35.6379 23.1684 36.0631 23.1684 36.0631C22.8591 36.3666 22.5091 36.6256 22.1284 36.8326C22.1284 36.8326 21.8441 36.6608 21.5836 36.8093C21.3647 36.9345 21.5138 37.1314 21.5138 37.1314C20.6551 37.4887 19.6334 37.7051 18.5614 37.7051C15.607 37.7051 13.2095 36.4224 13.2095 34.5029C13.2095 32.7691 15.5095 31.3586 18.3795 31.302C18.338 31.6455 18.3682 32.0444 18.3682 32.0444Z" fill="#E3AA39" stroke="#3067AD" stroke-width="0.259395" stroke-miterlimit="2.613"/>
<path fill-rule="evenodd" clip-rule="evenodd" d="M18.1802 34.393C18.4488 34.2552 18.9037 34.3685 18.9037 34.3685C18.7987 34.4441 18.6719 34.4834 18.5425 34.4805C18.3972 34.4824 18.3079 34.4666 18.1802 34.393Z" fill="#E3AA39"/>
<path fill-rule="evenodd" clip-rule="evenodd" d="M15.1083 34.1431L17.5889 34.1934V34.2368L15.1021 34.1997L15.1083 34.1431Z" fill="#3067AD"/>
<path fill-rule="evenodd" clip-rule="evenodd" d="M17.0523 34.5439L17.3512 34.5798L16.4798 35.1422L16.5428 35.1611L17.4449 34.5942L17.6513 34.6068L15.5708 35.9204L15.5953 35.9449L17.7374 34.642L17.8381 35.034L15.2524 36.1513L17.0523 34.5439ZM17.097 33.7757L15.6947 32.4502L17.8815 33.3089L17.8136 33.4908L17.041 33.0265L16.997 33.0397L17.7934 33.5461L17.7444 33.6644L15.9935 32.6232L15.9564 32.6345L17.689 33.7009L17.097 33.7757Z" fill="#E3AA39" stroke="#3067AD" stroke-width="0.259395" stroke-miterlimit="2.613"/>
<path fill-rule="evenodd" clip-rule="evenodd" d="M18.2134 34.6622L18.2631 34.6679L18.2317 35.7468L18.187 35.7386L18.2134 34.6622ZM18.4689 34.6924L18.5248 34.6987L18.5186 36.6968L18.4563 36.6735L18.4689 34.6924Z" fill="#3067AD" stroke="#3067AD" stroke-width="0.259395" stroke-miterlimit="2.613"/>
<path fill-rule="evenodd" clip-rule="evenodd" d="M19.1289 35.0295L19.1862 34.8414L20.1078 35.3723L20.1254 35.3277L19.2025 34.791L19.2459 34.6419L21.3226 35.9077L21.3786 35.9002L19.2969 34.6067L19.6221 34.5488L20.0569 34.647L21.7089 36.1059L19.1289 35.0295Z" fill="#E3AA39" stroke="#3067AD" stroke-width="0.259395" stroke-miterlimit="2.613"/>
<path fill-rule="evenodd" clip-rule="evenodd" d="M18.3879 31.2511C15.4524 31.3077 13.1033 32.7635 13.1033 34.5539C13.1033 36.53 15.5468 37.8543 18.5628 37.8543C19.6807 37.8543 20.7452 37.6196 21.6335 37.2378C21.8141 37.3963 22.2645 37.4712 22.401 37.4982C22.5382 37.5227 22.9616 37.6788 22.9616 37.6788L23.1673 37.702C23.3239 37.7473 23.6284 37.9134 23.8612 37.9688C22.5363 38.8131 20.6609 39.3403 18.5842 39.3403C14.5641 39.3403 11.3047 37.5718 11.3047 34.9377C11.3047 32.537 14.4817 30.583 18.4332 30.5352V30.761L18.2759 30.9107L18.1388 30.773L17.9708 30.7805L18.0702 30.8233L18.2212 30.9472L18.0765 31.0837L17.9966 31.1221H18.1709L18.1212 31.09L18.252 30.9718L18.4074 31.1095L18.3879 31.2511Z" fill="#E3AA39"/>
<path fill-rule="evenodd" clip-rule="evenodd" d="M21.8447 37.5102L22.6185 37.9267L22.7551 37.9135L22.4254 38.0645L22.4569 37.9689L21.9705 37.6902C21.9894 37.8632 22.1064 38.1324 22.1064 38.1324L22.2128 38.1519L21.9699 38.2501L22.0322 38.1582L21.8447 37.5102ZM23.0294 32.3572L23.1357 32.3804L23.5792 32.2244L23.5899 32.1615L23.7516 32.2747L23.6522 32.2672L23.1734 32.4308L23.1665 32.4861L23.0294 32.3572ZM23.2162 32.5188L23.3231 32.5421L23.7642 32.3886L23.7837 32.3056L23.9397 32.4377L23.8271 32.4245L23.3596 32.5918L23.354 32.6478L23.2162 32.5188Z" fill="#3067AD"/>
<path fill-rule="evenodd" clip-rule="evenodd" d="M18.3125 30.9278L18.432 30.8158L18.4125 31.0297L18.3125 30.9278Z" fill="#E3AA39"/>
<path fill-rule="evenodd" clip-rule="evenodd" d="M15.9367 31.1223L16.0877 31.0657L16.0814 31.1097L16.3129 31.3469L16.3803 31.3595L16.1947 31.4155L16.2249 31.3777L16.0066 31.1405L15.9367 31.1223ZM16.1123 31.4343L15.9128 31.5016L15.9323 31.4526L15.7511 31.4035L15.6952 31.5463H15.7574L15.5958 31.6149L15.658 31.5463L15.7065 31.3947L15.4341 31.3079H15.334L15.5146 31.245V31.272L15.7178 31.3337L15.7625 31.1972L15.6826 31.1909L15.8191 31.1405L15.7625 31.3337L16.0066 31.428L16.1123 31.4343ZM13.3951 32.3057L13.5272 32.2132L13.5083 32.288L13.614 32.4415L13.9682 32.4309L14.0985 32.4L13.9431 32.5498V32.4919L13.6581 32.4994L13.7373 32.6347L13.8311 32.6234L13.7128 32.7353V32.6529L13.6197 32.4919L13.2705 32.4994L13.1158 32.5422L13.2775 32.3937L13.3083 32.4554L13.5694 32.4415L13.4763 32.3057H13.3951ZM12.0501 34.0515L12.0998 33.8816L12.1557 33.9747L12.3998 34.0741L12.766 33.9571L12.8415 33.8684L12.8044 34.0426L12.761 34.0118L12.4992 34.1125L12.7169 34.2106L12.7855 34.1616L12.7282 34.5176L12.6785 34.4598L12.006 34.466L11.9312 34.5422L12.018 34.149L12.0815 34.1873C12.169 34.1785 12.3369 34.0905 12.3369 34.0905L12.1312 33.9986L12.0501 34.0515Z" fill="#3067AD"/>
<path fill-rule="evenodd" clip-rule="evenodd" d="M11.9937 34.3389L12.0874 34.2502L12.4114 34.1376L12.7039 34.2502L12.7341 34.3313L12.6737 34.3867H12.0176L11.9937 34.3389Z" fill="#E3AA39"/>
<path fill-rule="evenodd" clip-rule="evenodd" d="M12.0811 35.8206L12.2182 35.8451L12.8146 35.6262L12.8725 35.5217L12.9593 35.7136L12.8781 35.684L12.2182 35.9005L12.1685 36.0061C12.1342 35.9469 12.1049 35.8848 12.0811 35.8206ZM12.183 36.0521L12.3226 36.0716L12.9121 35.8331L12.9637 35.7249L13.0574 35.9156L12.9757 35.8872L12.3239 36.1282L12.2817 36.2263C12.2352 36.159 12.183 36.0521 12.183 36.0521ZM12.2994 36.2647L12.4176 36.2697L13.053 36.0068L13.0656 35.9206L13.1669 36.0949L13.0845 36.0678L12.4415 36.3358L12.4057 36.4132L12.2994 36.2647ZM12.4176 36.4377L12.5372 36.4497L13.3827 36.3503L12.7787 36.7988L12.785 36.8787L12.6416 36.724L12.7341 36.7315L13.1587 36.4132L12.5177 36.4943V36.5472L12.4176 36.4377ZM14.6296 37.2977L14.8404 37.4034L14.7466 37.4097L14.3056 37.896L14.3616 37.9822L14.4748 37.9897L14.9341 37.5141L14.9033 37.433L15.1467 37.5286L15.0473 37.5412L14.6057 38.0256L14.6975 38.1143L14.7982 38.1219L15.5783 37.6846L15.3713 38.3074L15.4349 38.3899L15.1291 38.2829L15.2411 38.2697L15.4355 37.7966L14.8347 38.1395L14.9039 38.2068C14.6183 38.1194 14.344 37.9986 14.0867 37.8469L14.2012 37.8287L14.6692 37.3738L14.6296 37.2977ZM17.901 38.1319L18.2313 38.1382L18.1376 38.1753L18.1319 38.7466L18.2502 38.7919L18.3559 38.7749L18.7056 38.1263H18.7428L19.085 38.7466L19.1724 38.7856L18.8044 38.7982L18.917 38.7352L18.6742 38.3024L18.432 38.768L18.5301 38.7975C18.2313 38.8233 17.8576 38.8038 17.8576 38.8038L17.9885 38.761V38.1703L17.901 38.1319Z" fill="#3067AD"/>
<path fill-rule="evenodd" clip-rule="evenodd" d="M17.9666 30.4659L18.1805 30.4546L18.1944 30.5112L17.9886 30.52L17.9666 30.4659ZM17.6804 30.4792L17.8949 30.4672L17.9188 30.52L17.7156 30.537L17.6804 30.4792ZM17.3954 30.5087L17.6099 30.488L17.6508 30.537L17.4205 30.5628L17.3954 30.5087ZM17.1104 30.537L17.3243 30.515L17.3513 30.5666L17.1481 30.5924L17.1104 30.537ZM16.8134 30.576L17.05 30.5458L17.0777 30.5999L16.848 30.6289L16.8134 30.576ZM18.2478 30.4521L18.429 30.4496L18.4322 30.5062L18.2598 30.5087L18.2478 30.4521ZM16.5335 30.6245L16.7612 30.5861L16.7851 30.6339L16.5719 30.6685L16.5335 30.6245ZM16.2592 30.6748L16.4737 30.6339L16.5083 30.683L16.29 30.7264L16.2592 30.6748ZM15.9755 30.7346L16.1988 30.6855L16.2252 30.7396L16.0132 30.7818L15.9755 30.7346ZM15.7005 30.805L15.9132 30.7472L15.9509 30.795L15.7389 30.8466L15.7005 30.805ZM15.43 30.8711L15.6364 30.8157L15.6785 30.8629L15.4671 30.9227L15.43 30.8711ZM15.1199 30.9673L15.3407 30.8931L15.3872 30.9416L15.1715 31.0164L15.1199 30.9673ZM14.8248 31.0655L15.0532 30.9894L15.106 31.0384L14.877 31.1171L14.8248 31.0655ZM14.5241 31.1794L14.7537 31.0875L14.7984 31.1366L14.5706 31.2228L14.5241 31.1794ZM14.2649 31.2901L14.4587 31.2007L14.4989 31.2536L14.314 31.3335L14.2649 31.2901ZM13.9786 31.4178L14.19 31.3184L14.2404 31.3675L14.0353 31.4612L13.9786 31.4178ZM13.7201 31.548L13.9164 31.4423L13.9724 31.4895L13.7805 31.5927L13.7201 31.548ZM13.4684 31.6858L13.6509 31.5826L13.7163 31.6235L13.5364 31.7254L13.4684 31.6858ZM13.1998 31.838L13.3892 31.7242L13.4703 31.7632L13.2709 31.884L13.1998 31.838ZM12.9689 32.0016L13.1476 31.8714L13.218 31.9167L13.0406 32.0337L12.9689 32.0016ZM12.7405 32.1602L12.9129 32.0444L12.9846 32.0777L12.8192 32.2029L12.7405 32.1602ZM12.5147 32.3407L12.6871 32.2029L12.7632 32.2438L12.5921 32.3847L12.5147 32.3407ZM12.3083 32.5187L12.4675 32.3847L12.5487 32.4193L12.4084 32.5521L12.3083 32.5187ZM12.1158 32.7144L12.2681 32.5609L12.3524 32.5917L12.2121 32.7452L12.1158 32.7144ZM11.9309 32.9119L12.0812 32.7534L12.1737 32.7855L12.0303 32.9377L11.9309 32.9119ZM11.7585 33.1151L11.8963 32.9604L12.0026 32.9837L11.8843 33.1384L11.7585 33.1151ZM11.6258 33.3152L11.7321 33.163L11.8497 33.1837L11.7472 33.3335L11.6258 33.3152ZM11.4767 33.5398L11.5861 33.3693L11.7069 33.3825L11.6113 33.5486L11.4767 33.5398ZM11.3578 33.7575L11.4546 33.5939L11.5861 33.6015L11.5075 33.7663L11.3578 33.7575ZM11.2584 33.9972L11.3395 33.8154L11.4767 33.8229L11.4119 33.9972H11.2584ZM11.1866 34.2123L11.2458 34.0513L11.3986 34.0525L11.3458 34.2186L11.1866 34.2123ZM11.1244 34.4602L11.1715 34.2759L11.3269 34.2784L11.2829 34.4615L11.1244 34.4602ZM11.0904 34.6923L11.1218 34.5156L11.2697 34.513L11.2489 34.6923H11.0904ZM11.0715 34.932L11.0841 34.7515L11.2451 34.7477L11.2382 34.9113L11.0715 34.932ZM11.0753 35.1818L11.0684 34.9962L11.2382 34.9666L11.2451 35.1422L11.0753 35.1818ZM11.0778 35.2346L11.2508 35.1963L11.2678 35.3944L11.0935 35.4347L11.0778 35.2346ZM11.1055 35.4913L11.2728 35.446L11.3162 35.6266L11.1382 35.6756L11.1055 35.4913ZM11.1545 35.7417L11.3269 35.6889L11.3842 35.877L11.2118 35.9311L11.1545 35.7417ZM11.2244 35.9789L11.3898 35.9311L11.4609 36.1129L11.293 36.1821L11.2244 35.9789ZM11.3118 36.2299L11.4704 36.167L11.5679 36.3526L11.4049 36.4224L11.3118 36.2299ZM11.4295 36.4721L11.5773 36.4105L11.6912 36.5822L11.5308 36.6571L11.4295 36.4721ZM11.5616 36.7137L11.7157 36.6363L11.8434 36.8099L11.6849 36.9031L11.5616 36.7137ZM11.7182 36.9389L11.8654 36.8603L12.0177 37.0345L11.856 37.1314L11.7182 36.9389ZM11.9019 37.1761L12.0598 37.0874L12.2278 37.273L12.0655 37.3724L11.9019 37.1761ZM12.1177 37.4158L12.2681 37.322L12.4461 37.4844L12.2932 37.59L12.1177 37.4158ZM12.3555 37.6353L12.4958 37.5347L12.6934 37.6957L12.5613 37.8134L12.3555 37.6353ZM12.6078 37.8492L12.728 37.7423L12.9658 37.8996L12.8349 38.0128L12.6078 37.8492ZM12.906 38.0644L13.0123 37.9549L13.2476 38.0977L13.1369 38.2179L12.906 38.0644ZM13.2055 38.2607L13.3124 38.1456L13.5584 38.2745L13.4452 38.4035L13.2055 38.2607ZM13.5295 38.4412L13.6175 38.3261L13.9006 38.4601L13.817 38.5878L13.5295 38.4412ZM13.8874 38.6136L13.9661 38.4928L14.2529 38.6136L14.1655 38.7426L13.8874 38.6136ZM14.2435 38.7722L14.3247 38.6457L14.6147 38.7722L14.5298 38.8961L14.2435 38.7722ZM14.6367 38.9231L14.704 38.7854L15.0154 38.8974L14.9387 39.0389L14.6367 38.9231ZM15.0249 39.0597L15.0853 38.9206L15.4174 39.0163L15.347 39.1679L15.0249 39.0597ZM15.4407 39.1823L15.491 39.0389L15.8295 39.1125L15.7691 39.266L15.4407 39.1823ZM15.8666 39.288L15.9094 39.1308L16.2686 39.2L16.2063 39.3704L15.8666 39.288ZM16.3133 39.3912L16.3498 39.2276L16.6977 39.2805L16.6486 39.4491L16.3133 39.3912ZM16.7543 39.4541L16.7832 39.2968L17.1374 39.3384L17.1104 39.507L16.7543 39.4541ZM17.2318 39.512L17.2444 39.3547L17.5866 39.3837L17.574 39.5422L17.2318 39.512ZM17.7018 39.3988L18.0497 39.4101L18.0446 39.5692L17.6867 39.5573L17.7018 39.3988ZM18.1535 39.573V39.4132L18.5221 39.4195V39.5793L18.1535 39.573ZM19.3765 30.5345L19.1638 30.5226L19.1544 30.4672L19.4016 30.4741L19.3765 30.5345ZM19.6772 30.5591L19.44 30.537L19.4658 30.4792L19.7023 30.5024L19.6772 30.5591ZM19.959 30.5886L19.7313 30.5628L19.7596 30.5112L19.9987 30.5358L19.959 30.5886ZM20.3101 30.6289L20.0301 30.5924L20.0584 30.5395L20.2604 30.5628L20.3101 30.6289ZM21.3928 30.8453L21.345 30.7755L21.4374 30.8038L21.3928 30.8453ZM21.6734 30.9189L21.4595 30.8617L21.5041 30.8145L21.7099 30.8711L21.6734 30.9189ZM21.9709 31.0114L21.7545 30.9378L21.8004 30.8931L22.0238 30.9661L21.9709 31.0114ZM22.2691 31.112L22.0364 31.0372L22.0898 30.9856L22.3182 31.063L22.2691 31.112ZM22.5761 31.2228L22.3478 31.1328L22.3912 31.0863L22.6221 31.1762L22.5761 31.2228ZM22.8322 31.3297L22.6466 31.2498L22.6875 31.1957L22.8819 31.2876L22.8322 31.3297ZM23.114 31.4562L22.9071 31.3637L22.9568 31.3134L23.1713 31.4134L23.114 31.4562ZM23.3688 31.5877L23.1776 31.4832L23.2336 31.4404L23.4311 31.5449L23.3688 31.5877ZM23.6161 31.7204L23.433 31.6185L23.5009 31.5788L23.684 31.6795L23.6161 31.7204ZM23.8809 31.8789L23.6815 31.7569L23.7633 31.7166L23.9539 31.8324L23.8809 31.8789ZM24.1143 32.0274L23.9344 31.9098L24.0074 31.8664L24.1861 31.9941L24.1143 32.0274ZM24.337 32.1948L24.1703 32.0714L24.2433 32.0375L24.4157 32.1513L24.337 32.1948ZM24.5648 32.3753L24.393 32.235L24.4692 32.1948L24.6434 32.3325L24.5648 32.3753ZM24.7485 32.5433L24.6094 32.4131L24.6887 32.3753L24.8504 32.5081L24.7485 32.5433ZM24.9473 32.7352L24.8064 32.5817L24.8907 32.5521L25.0435 32.7018L24.9473 32.7352ZM25.1291 32.9283L24.9857 32.7773L25.0794 32.744L25.2291 32.9025L25.1291 32.9283ZM25.2769 33.1271L25.1574 32.9749L25.2631 32.9503L25.4015 33.1063L25.2769 33.1271ZM25.4147 33.3228L25.3103 33.1724L25.4298 33.1504L25.5368 33.3026L25.4147 33.3228ZM25.5525 33.5367L25.455 33.3731L25.5764 33.3555L25.6865 33.5278L25.5525 33.5367ZM25.6563 33.7537L25.5764 33.5895L25.7085 33.582L25.806 33.7443L25.6563 33.7537ZM25.7519 33.9827L25.6865 33.8078L25.8249 33.8015L25.9067 33.9827H25.7519ZM25.8394 34.2243L25.7708 34.0387L25.9243 34.0362L25.9966 34.2627L25.8394 34.2243ZM25.9306 34.932L25.9337 34.7307L26.0816 34.7697L26.0954 34.9509L25.9306 34.932ZM25.9306 35.1654L25.9369 34.9937L26.0973 35.0119L26.0923 35.1975L25.9306 35.1654ZM26.0721 35.4511L25.8966 35.4114L25.9243 35.2258L26.0891 35.2516L26.0721 35.4511ZM23.706 38.3702L23.5934 38.2412L23.8407 38.1122L23.9464 38.228L23.706 38.3702ZM23.3336 38.5532L23.2493 38.4255L23.5343 38.2915L23.6236 38.4073L23.3336 38.5532ZM22.9819 38.7067L22.8951 38.5803L23.1839 38.4601L23.2619 38.5803L22.9819 38.7067ZM22.617 38.8602L22.5321 38.735L22.8228 38.6136L22.9039 38.735L22.617 38.8602ZM22.237 39.0156L22.1578 38.8753L22.4723 38.7646L22.5409 38.8999L22.237 39.0156ZM21.8074 39.1471L21.735 38.9993L22.071 38.9049L22.1301 39.0427L21.8074 39.1471ZM21.3733 39.2723L21.3292 39.1163L21.6627 39.0276L21.713 39.1704L21.3733 39.2723ZM20.931 39.3837L20.8662 39.2132L21.2286 39.1458L21.272 39.3006L20.931 39.3837ZM20.4925 39.4604L20.4428 39.2943L20.7926 39.2415L20.8291 39.3988L20.4925 39.4604ZM20.0226 39.5177L19.993 39.3522L20.351 39.31L20.3793 39.4636L20.0226 39.5177ZM19.5558 39.556L19.5425 39.3988L19.8873 39.3654L19.8986 39.5227L19.5558 39.556ZM19.4419 39.568L19.082 39.5793L19.0751 39.422L19.4268 39.4101L19.4419 39.568ZM18.6033 39.5919V39.4321L18.9707 39.4245V39.5831L18.6033 39.5919ZM24.0193 38.1833L23.8998 38.0707L23.9866 38.0065L24.1238 38.0952L24.0193 38.1833ZM25.109 37.2705L25.2631 37.0666L25.1215 37.0125L25.0064 37.1415L25.109 37.2705ZM25.0725 37.3088L24.9624 37.1855L24.8145 37.3296L25.0127 37.3787L25.0725 37.3088Z" fill="#E3AA39"/>
</svg>
