<svg width="60" height="60" viewBox="0 0 60 60" fill="none" xmlns="http://www.w3.org/2000/svg">
<rect width="60" height="60" fill="white"/>
<path fill-rule="evenodd" clip-rule="evenodd" d="M13.1636 40.6593C13.1636 35.1882 20.3308 30.7374 29.2405 30.6257C29.2405 30.6257 29.2133 30.1938 29.186 29.9513C29.1601 29.7061 28.9708 29.4118 28.9708 28.9255C28.9708 28.4405 29.3754 26.2839 29.3754 26.2839C29.3754 26.2839 29.0525 25.9583 28.8632 25.2867C28.6738 24.611 28.6193 24.096 28.6193 24.096C28.6193 24.096 28.2964 22.5552 28.2964 22.0198C28.2964 21.7637 28.3945 20.8809 28.3768 20.0417C28.355 18.975 28.2283 18.1807 28.2283 18.1807C27.7229 19.4055 27.2651 19.9804 26.9109 20.4095C26.7161 20.7733 26.5962 21.2283 26.4872 21.6029C26.3769 21.9803 25.7257 23.0674 25.7257 23.5565C25.7257 24.1669 26.0799 24.6587 26.0799 24.8494C26.0799 25.0387 25.9205 25.2267 25.9205 25.2267C26.0145 25.5374 26.0894 25.7403 25.6153 25.7403C25.2748 25.7403 25.0827 25.393 25.0827 24.799C25.0827 24.4761 25.1372 24.1832 25.1658 23.9148C25.1876 23.6873 25.1794 23.4816 25.2475 23.2391C25.5608 22.1261 25.6712 21.3345 25.8646 20.1275C25.9723 19.4613 26.3565 19.1861 26.539 18.5363C26.8292 17.505 27.3128 14.9806 27.5104 14.655C27.7351 14.2981 28.2501 14.1291 28.7828 13.8431C29.2882 13.5665 29.6506 13.3744 29.6506 12.8254C29.6506 12.4235 29.3291 12.4467 29.1588 12.2464C29.0157 12.0775 29.0512 10.9522 29.0512 10.4386C29.0512 9.92633 28.9408 9.86639 28.9408 9.4141C28.9408 8.95635 29.1411 8.05176 30.1029 8.05176C30.517 8.05176 30.6533 8.44002 30.8304 8.83237C31.0184 9.25742 31.1805 9.46722 31.1805 10.2519C31.1805 10.7383 30.4748 11.2206 30.4748 12.1796C30.4748 12.4494 30.7227 13.0297 32.1232 13.0297C32.7049 13.0297 33.0292 13.7327 33.0837 13.9997C33.1368 14.2722 33.0973 14.5705 33.1504 14.9329C33.2063 15.3021 33.4501 15.5855 33.5469 15.907C33.6381 16.2285 33.8411 17.456 33.897 17.6862C33.9501 17.9164 34.352 18.9259 34.4324 19.4014C34.5155 19.8728 34.6626 21.5621 34.7975 22.3032C34.9337 23.0416 35.0032 23.0116 35.0536 23.3385C35.1204 23.7759 35.2961 23.7636 35.2961 24.0701C35.2961 24.3794 34.7839 25.3098 34.4324 25.3098C34.149 25.3098 34.0441 24.4584 34.0441 24.1914C34.0441 23.517 34.2771 23.3263 34.2771 22.3972C34.2771 21.6969 34.0809 21.5076 33.7063 20.682C33.3289 19.8605 33.1382 19.5363 33.0864 19.2801C33.0305 19.0227 32.6382 18.4968 32.5456 18.1467C32.4011 17.6113 32.1818 16.9574 32.1818 16.9574C32.1818 16.9574 31.6968 18.2271 31.6151 19.0377C31.6042 19.1725 31.329 19.6739 31.3617 20.1016C31.3862 20.4627 31.7254 20.4967 31.9652 21.0989C32.2091 21.7078 32.1409 21.9367 32.1409 22.8699C32.1409 23.799 31.5483 25.051 31.5483 25.051C31.8208 25.3752 32.2091 26.9188 32.5592 27.5087C32.7622 27.8492 33.4038 28.1653 34.0142 28.6912C34.8929 29.4527 34.9637 30.4786 35.5045 31.3014C41.6487 32.7482 46 36.3884 46 40.6539C46 47.5963 38.5848 52.4517 29.5675 52.4517C20.5543 52.449 13.1636 48.2761 13.1636 40.6593ZM30.8086 30.6488C31.6192 30.6884 32.4161 30.7633 33.1913 30.8668C33.1913 30.8668 32.8289 30.3273 32.5183 30.0426C32.2091 29.7661 31.6968 29.5018 31.393 29.2361C31.0879 28.9636 31.0075 28.5359 30.7432 28.401C30.6538 28.6295 30.6023 28.8711 30.5906 29.1162C30.5906 29.3369 30.8086 30.6488 30.8086 30.6488Z" fill="#3067AD"/>
<path fill-rule="evenodd" clip-rule="evenodd" d="M30.6423 39.2359C31.0074 39.3313 31.6136 39.4934 31.6136 39.4934L30.912 39.597L29.3753 44.9128L27.8358 39.6065L20.3198 38.7073L27.8358 37.8137L29.1178 34.4528C29.1178 34.4528 29.1437 35.0386 29.0524 35.4405C28.957 35.8451 28.953 36.0603 28.8249 36.3369C28.7295 36.6611 28.5783 37.157 28.5783 37.157C28.5783 37.157 27.9285 37.8273 27.7269 37.939C27.5252 38.0453 27.0253 37.9662 27.0253 38.2346C27.0253 38.2619 27.0389 38.33 27.0389 38.33L25.1643 38.3409V38.439L27.0661 38.4076C27.2296 38.6651 27.8726 38.6529 27.8726 38.6529L27.9285 38.7891C27.9285 38.7891 27.7527 39.0874 27.7527 39.2196C27.7527 39.3558 27.874 39.4239 27.9843 39.4239C28.092 39.4239 28.389 39.3545 28.389 39.3545C29.0102 39.8258 30.1831 39.6828 30.6423 39.2359ZM30.8003 32.5646C32.3602 32.6627 33.8329 32.9637 35.1434 33.4024C35.1434 33.4024 35.2919 33.8574 35.3137 34.0413C35.4568 34.3479 35.4895 34.8424 35.4895 34.8424L30.6572 36.8137L30.0769 35.1503C30.0769 35.1503 30.2962 34.2116 30.4978 33.679C30.6968 33.1531 30.8003 32.5646 30.8003 32.5646Z" fill="#E3AA39"/>
<path fill-rule="evenodd" clip-rule="evenodd" d="M35.0807 33.2667C33.6994 32.8214 32.2678 32.5505 30.8193 32.4602C30.8193 32.4602 30.9896 31.8689 30.8398 30.8907C31.7321 30.9357 32.5985 31.0215 33.4377 31.1537C33.6135 31.3798 34.7306 32.3239 35.0807 33.2667ZM36.5507 33.9655C39.3299 35.2502 41.1213 37.2651 41.1213 39.4571C41.1213 39.7759 41.0805 40.0988 40.996 40.4149C40.6758 40.3318 39.8939 39.9176 39.7931 39.5048C39.6909 39.0838 39.7386 39.0689 39.7277 38.9912C39.6496 38.6321 39.5425 38.2799 39.4075 37.9381C39.1568 37.3101 38.2018 36.6957 38.1405 36.4395C38.0806 36.1821 38.1337 35.915 38.1337 35.7366C38.1337 35.5608 37.9389 35.3933 37.6147 35.3933C37.2904 35.3933 37.1338 35.5418 36.8572 35.5418C36.5793 35.5418 36.3777 35.4437 36.3777 35.4437C36.5153 35.1276 36.3981 35.0786 36.3981 34.5922C36.3981 34.1794 36.5507 33.9655 36.5507 33.9655Z" fill="#E3AA39"/>
<path fill-rule="evenodd" clip-rule="evenodd" d="M45.3205 39.8415C45.3706 40.3544 45.3519 40.8717 45.2647 41.3796L43.2062 40.8878L41.2471 40.4914C41.322 40.1892 41.3605 39.8791 41.3616 39.5677C41.3616 37.279 39.4815 35.1742 36.5866 33.85C36.6397 33.6988 37.0116 33.3704 37.0116 33.0121C37.0116 32.7778 36.4721 32.6157 36.1574 32.3092C35.9463 32.1103 35.7038 31.6226 35.7038 31.6226C40.6041 32.9018 44.2402 35.651 45.1339 38.862C45.1339 38.862 44.1434 38.5378 43.732 38.5405C43.5699 38.234 43.4814 37.9683 43.4814 37.9683L43.42 38.1304C42.8084 38.1577 41.9405 38.1413 41.9405 38.1413L41.7961 38.0051L41.9446 38.4043L42.0059 38.2762L43.4691 38.2789L43.6244 38.3961L43.5958 38.5187C43.4679 38.5116 43.3397 38.5268 43.2171 38.5637H42.1122L41.9705 38.4629L42.0577 38.828L42.1285 38.6999L42.8874 38.7163C42.7661 38.8143 42.8874 38.9846 42.8874 38.9846L42.1871 38.9928L42.0741 38.8811L42.1326 39.253L42.2144 39.1304L42.9991 39.1522C43.5604 39.7666 45.3205 39.8415 45.3205 39.8415ZM35.2256 39.1209L37.2146 38.828C37.2282 39.1263 37.3154 39.3783 37.2214 39.802C36.0907 39.6576 35.2256 39.1209 35.2256 39.1209Z" fill="#E3AA39"/>
<path fill-rule="evenodd" clip-rule="evenodd" d="M29.9302 37.2529C29.9302 37.2529 29.8594 36.8428 29.8594 36.3987C29.8594 35.9573 30.0242 35.4015 30.0242 35.4015L30.8907 37.8142L37.2119 38.4531L37.216 38.7215L35.0717 39.0253C35.0717 39.0253 34.5227 38.6711 33.4805 38.5676L36.6234 38.6071L36.6711 38.4817L31.2776 38.4708L30.967 38.4068C30.967 38.4068 30.8498 37.7842 29.9779 37.5771L29.9302 37.2529Z" fill="#E3AA39" stroke="#3067AD" stroke-width="0.259395" stroke-miterlimit="2.613"/>
<path fill-rule="evenodd" clip-rule="evenodd" d="M30.7061 36.9193L35.4211 34.9902L32.3994 37.8511L31.7782 37.7844L33.4117 36.734L33.3708 36.67L31.5643 37.7708L31.063 37.7204L34.6718 35.4807L34.6296 35.4112L30.9404 37.625L30.7061 36.9193Z" fill="#E3AA39" stroke="#3067AD" stroke-width="0.259395" stroke-miterlimit="2.613"/>
<path fill-rule="evenodd" clip-rule="evenodd" d="M30.002 37.7482C30.5346 37.9403 30.6286 38.2782 30.6286 38.2782L30.0156 37.9594L30.002 37.7482ZM32.5713 37.8708L35.4949 35.0685C35.529 35.1666 35.5548 35.2415 35.5221 35.3341C35.4622 35.5072 35.014 35.6747 35.014 35.9322C35.014 36.063 35.1216 36.0752 35.2252 36.0752C35.3273 36.0752 35.4813 35.9635 35.5971 35.9921C35.8273 36.0507 36.2905 36.187 36.4908 36.4894C36.8327 37.003 37.1147 37.7768 37.1951 38.3463C36.3981 38.2904 32.5713 37.8708 32.5713 37.8708ZM37.6052 44.6607C38.4362 44.1743 39.1582 43.6253 39.744 43.0273C40.105 43.1894 40.511 43.6185 41.5205 44.1049C42.248 44.4564 43.2398 44.7247 43.5163 44.8582C43.3134 45.0953 43.094 45.3214 42.8583 45.5394C41.9932 45.2669 38.9566 45.5626 37.6052 44.6607Z" fill="#E3AA39"/>
<path fill-rule="evenodd" clip-rule="evenodd" d="M29.1194 34.134L28.1208 36.7756L23.1565 34.8493L23.0761 34.9187L26.1931 37.8995L19.9155 38.6652V38.7878L26.08 39.5275L22.0462 43.1704L22.1293 43.2549L28.0268 40.7427L29.3088 45.248L29.4573 45.2398L30.7242 40.6923L36.6341 43.2304L36.7281 43.1187L33.0988 39.8668C33.0988 39.8668 34.9325 40.2973 35.3685 40.5289C35.7976 40.755 36.7417 41.4048 37.2798 41.6337C37.8234 41.8653 37.9324 41.7849 38.0945 41.849C38.2539 41.9157 39.514 42.8366 39.514 42.8366C38.8443 43.4938 38.0864 44.0546 37.2621 44.5028C37.2621 44.5028 36.6463 44.1309 36.0823 44.4524C35.6082 44.7235 35.9311 45.1499 35.9311 45.1499C34.0715 45.9237 31.8591 46.3924 29.5376 46.3924C23.1401 46.3924 17.9482 43.6146 17.9482 39.4581C17.9482 35.7035 22.9289 32.6491 29.1439 32.5265C29.054 33.2703 29.1194 34.134 29.1194 34.134Z" fill="#E3AA39" stroke="#3067AD" stroke-width="0.259395" stroke-miterlimit="2.613"/>
<path fill-rule="evenodd" clip-rule="evenodd" d="M28.7119 39.2196C29.2936 38.9212 30.2786 39.1665 30.2786 39.1665C30.0512 39.3301 29.7767 39.4153 29.4966 39.4089C29.1819 39.413 28.9885 39.379 28.7119 39.2196Z" fill="#E3AA39"/>
<path fill-rule="evenodd" clip-rule="evenodd" d="M22.06 38.6783L27.4317 38.7873V38.8813L22.0464 38.801L22.06 38.6783Z" fill="#3067AD"/>
<path fill-rule="evenodd" clip-rule="evenodd" d="M26.2697 39.5463L26.9168 39.624L25.03 40.8419L25.1662 40.8828L27.1198 39.6553L27.5667 39.6825L23.0614 42.5271L23.1145 42.5802L27.7533 39.7588L27.9713 40.6076L22.3721 43.0271L26.2697 39.5463ZM26.3664 37.8829L23.3298 35.0125L28.0653 36.872L27.9181 37.2658L26.2452 36.2604L26.1498 36.289L27.8746 37.3856L27.7683 37.6418L23.9769 35.3871L23.8965 35.4116L27.6484 37.7208L26.3664 37.8829Z" fill="#E3AA39" stroke="#3067AD" stroke-width="0.259395" stroke-miterlimit="2.613"/>
<path fill-rule="evenodd" clip-rule="evenodd" d="M28.7843 39.8022L28.8919 39.8145L28.8238 42.1509L28.7271 42.1332L28.7843 39.8022ZM29.3374 39.8676L29.4586 39.8813L29.445 44.208L29.3101 44.1576L29.3374 39.8676Z" fill="#3067AD" stroke="#3067AD" stroke-width="0.259395" stroke-miterlimit="2.613"/>
<path fill-rule="evenodd" clip-rule="evenodd" d="M30.7666 40.5978L30.8906 40.1905L32.8864 41.3403L32.9245 41.2436L30.926 40.0815L31.02 39.7586L35.5171 42.4997L35.6383 42.4833L31.1303 39.6823L31.8347 39.557L32.776 39.7695L36.3535 42.9288L30.7666 40.5978Z" fill="#E3AA39" stroke="#3067AD" stroke-width="0.259395" stroke-miterlimit="2.613"/>
<path fill-rule="evenodd" clip-rule="evenodd" d="M29.1618 32.4158C22.8051 32.5384 17.7182 35.6909 17.7182 39.5681C17.7182 43.8472 23.0095 46.7149 29.5405 46.7149C31.9614 46.7149 34.2665 46.2068 36.1901 45.3798C36.5811 45.7231 37.5565 45.8852 37.8522 45.9438C38.1491 45.997 39.066 46.3348 39.066 46.3348L39.5115 46.3852C39.8507 46.4833 40.5101 46.843 41.0141 46.9629C38.1451 48.7911 34.0839 49.9328 29.5868 49.9328C20.8815 49.9328 13.8232 46.1032 13.8232 40.3991C13.8232 35.2004 20.703 30.969 29.2599 30.8655V31.3546L28.9193 31.6788L28.6223 31.3804L28.2586 31.3968L28.4738 31.4894L28.8008 31.7578L28.4874 32.0534L28.3144 32.1365H28.6918L28.5842 32.0671L28.8675 31.8109L29.204 32.1093L29.1618 32.4158Z" fill="#E3AA39"/>
<path fill-rule="evenodd" clip-rule="evenodd" d="M36.6475 45.97L38.3231 46.8719L38.6188 46.8433L37.9049 47.1703L37.973 46.9632L36.9199 46.3597C36.9608 46.7343 37.2142 47.3174 37.2142 47.3174L37.4444 47.3596L36.9186 47.5722L37.0534 47.3733L36.6475 45.97ZM39.2127 34.8111L39.443 34.8615L40.4034 34.5237L40.4266 34.3875L40.7767 34.6327L40.5615 34.6163L39.5247 34.9705L39.5097 35.0904L39.2127 34.8111ZM39.6174 35.1613L39.849 35.2117L40.804 34.8793L40.8462 34.6994L41.184 34.9855L40.9402 34.9569L39.928 35.3193L39.9157 35.4405L39.6174 35.1613Z" fill="#3067AD"/>
<path fill-rule="evenodd" clip-rule="evenodd" d="M28.9985 31.7159L29.2574 31.4734L29.2151 31.9366L28.9985 31.7159Z" fill="#E3AA39"/>
<path fill-rule="evenodd" clip-rule="evenodd" d="M23.8542 32.1363L24.1811 32.0137L24.1675 32.109L24.6689 32.6226L24.8146 32.6499L24.4127 32.7711L24.4781 32.6894L24.0054 32.1758L23.8542 32.1363ZM24.2343 32.812L23.8024 32.9578L23.8446 32.8515L23.4523 32.7452L23.331 33.0545H23.4659L23.1158 33.203L23.2507 33.0545L23.3556 32.7262L22.7657 32.5382H22.5491L22.94 32.4019V32.4605L23.3801 32.594L23.4768 32.2984L23.3038 32.2848L23.5994 32.1758L23.4768 32.594L24.0054 32.7984L24.2343 32.812ZM18.3503 34.6988L18.6364 34.4986L18.5956 34.6607L18.8244 34.9931L19.5914 34.9699L19.8734 34.9032L19.5369 35.2274V35.1021L18.9198 35.1184L19.0914 35.4113L19.2944 35.3868L19.0383 35.6293V35.4508L18.8367 35.1021L18.0806 35.1184L17.7455 35.2111L18.0956 34.8896L18.1623 35.0231L18.7277 34.9931L18.5261 34.6988H18.3503ZM15.4377 38.4793L15.5453 38.1115L15.6665 38.3131L16.1951 38.5284L16.988 38.275L17.1515 38.0829L17.0711 38.4602L16.9771 38.3935L16.4104 38.6115L16.8817 38.824L17.0302 38.7177L16.9063 39.4888L16.7986 39.3635L15.3423 39.3771L15.1802 39.5419L15.3682 38.6905L15.5058 38.7736C15.6951 38.7545 16.0589 38.5638 16.0589 38.5638L15.6134 38.3649L15.4377 38.4793Z" fill="#3067AD"/>
<path fill-rule="evenodd" clip-rule="evenodd" d="M15.3154 39.1026L15.5184 38.9105L16.22 38.6666L16.8535 38.9105L16.9189 39.0862L16.7881 39.2061H15.3672L15.3154 39.1026Z" fill="#E3AA39"/>
<path fill-rule="evenodd" clip-rule="evenodd" d="M15.5044 42.3103L15.8014 42.3634L17.0929 41.8893L17.2182 41.6632L17.4062 42.0787L17.2305 42.0147L15.8014 42.4833L15.6938 42.7122C15.6194 42.5838 15.5561 42.4494 15.5044 42.3103ZM15.7251 42.8117L16.0275 42.8539L17.304 42.3376L17.4158 42.1032L17.6187 42.516L17.4416 42.4547L16.0303 42.9765L15.939 43.189C15.8382 43.0432 15.7251 42.8117 15.7251 42.8117ZM15.9771 43.2721L16.2332 43.283L17.6092 42.7136L17.6365 42.5269L17.8558 42.9043L17.6773 42.8457L16.285 43.4261L16.2074 43.5936L15.9771 43.2721ZM16.2332 43.6468L16.4921 43.6727L18.3231 43.4574L17.0152 44.4288L17.0289 44.6018L16.7182 44.2666L16.9185 44.283L17.8381 43.5936L16.4499 43.7694V43.8838L16.2332 43.6468ZM21.0232 45.5091L21.4796 45.738L21.2766 45.7516L20.3216 46.8047L20.4429 46.9913L20.6881 47.0077L21.6826 45.9777L21.6158 45.802L22.1431 46.0091L21.9278 46.0363L20.9715 47.0853L21.1704 47.2774L21.3883 47.2937L23.0776 46.3469L22.6294 47.6956L22.767 47.8741L22.1049 47.6425L22.3474 47.6139L22.7684 46.5894L21.4673 47.3319L21.6172 47.4777C20.9987 47.2884 20.4047 47.0268 19.8475 46.6984L20.0955 46.6589L21.1091 45.6739L21.0232 45.5091ZM28.1074 47.3155L28.8226 47.3292L28.6196 47.4095L28.6074 48.6465L28.8635 48.7446L29.0924 48.7079L29.8498 47.3033H29.9302L30.6713 48.6465L30.8607 48.731L30.0637 48.7583L30.3076 48.622L29.7817 47.6847L29.2572 48.6929L29.4697 48.7569C28.8226 48.8127 28.0134 48.7705 28.0134 48.7705L28.2967 48.6779V47.3986L28.1074 47.3155Z" fill="#3067AD"/>
<path fill-rule="evenodd" clip-rule="evenodd" d="M28.2496 30.7158L28.7127 30.6913L28.7427 30.8139L28.2972 30.833L28.2496 30.7158ZM27.6297 30.7444L28.0942 30.7186L28.146 30.833L27.706 30.8698L27.6297 30.7444ZM27.0126 30.8085L27.4771 30.7635L27.5657 30.8698L27.067 30.9256L27.0126 30.8085ZM26.3954 30.8698L26.8586 30.8221L26.9172 30.9338L26.4772 30.9897L26.3954 30.8698ZM25.7524 30.9543L26.2646 30.8889L26.3246 31.006L25.8273 31.0687L25.7524 30.9543ZM28.8585 30.6859L29.2509 30.6804L29.2577 30.803L28.8844 30.8085L28.8585 30.6859ZM25.1461 31.0591L25.6393 30.9761L25.6911 31.0796L25.2293 31.1545L25.1461 31.0591ZM24.5522 31.1681L25.0167 31.0796L25.0917 31.1859L24.6189 31.2799L24.5522 31.1681ZM23.9378 31.2976L24.4214 31.1913L24.4786 31.3085L24.0195 31.3997L23.9378 31.2976ZM23.3424 31.4501L23.8029 31.3248L23.8846 31.4283L23.4255 31.5401L23.3424 31.4501ZM22.7566 31.5932L23.2035 31.4733L23.2947 31.5755L22.837 31.7049L22.7566 31.5932ZM22.085 31.8016L22.5632 31.6409L22.664 31.7458L22.1967 31.9079L22.085 31.8016ZM21.446 32.0142L21.9406 31.8493L22.055 31.9556L21.5591 32.1259L21.446 32.0142ZM20.7948 32.2607L21.2921 32.0618L21.3888 32.1681L20.8957 32.3547L20.7948 32.2607ZM20.2336 32.5005L20.6532 32.3071L20.7403 32.4215L20.3398 32.5945L20.2336 32.5005ZM19.6137 32.7771L20.0714 32.5618L20.1804 32.6681L19.7363 32.8711L19.6137 32.7771ZM19.0538 33.0591L19.4788 32.8302L19.6001 32.9324L19.1846 33.1558L19.0538 33.0591ZM18.5088 33.3574L18.9039 33.134L19.0456 33.2225L18.656 33.4432L18.5088 33.3574ZM17.9271 33.6871L18.3372 33.4405L18.5129 33.525L18.0811 33.7865L17.9271 33.6871ZM17.4271 34.0413L17.814 33.7593L17.9666 33.8574L17.5825 34.1108L17.4271 34.0413ZM16.9326 34.3846L17.3059 34.134L17.4612 34.2061L17.1029 34.4773L16.9326 34.3846ZM16.4435 34.7756L16.8168 34.4773L16.9817 34.5658L16.6111 34.871L16.4435 34.7756ZM15.9967 35.1611L16.3414 34.871L16.5171 34.9459L16.2133 35.2334L15.9967 35.1611ZM15.5798 35.5848L15.9095 35.2524L16.0921 35.3192L15.7883 35.6516L15.5798 35.5848ZM15.1793 36.0126L15.5049 35.6693L15.7052 35.7388L15.3945 36.0685L15.1793 36.0126ZM14.806 36.4526L15.1044 36.1175L15.3346 36.1679L15.0785 36.5031L14.806 36.4526ZM14.5186 36.8859L14.7488 36.5562L15.0035 36.6011L14.7815 36.9254L14.5186 36.8859ZM14.1957 37.3722L14.4327 37.003L14.6943 37.0316L14.4872 37.3913L14.1957 37.3722ZM13.9382 37.8436L14.148 37.4894L14.4327 37.5057L14.2624 37.8627L13.9382 37.8436ZM13.7229 38.3626L13.8987 37.9689L14.1957 37.9853L14.0554 38.3626H13.7229ZM13.5676 38.8286L13.6957 38.4798L14.0268 38.4825L13.9123 38.8422L13.5676 38.8286ZM13.4328 39.3653L13.5349 38.9662L13.8714 38.9716L13.7761 39.368L13.4328 39.3653ZM13.3592 39.868L13.4273 39.4852L13.7475 39.4798L13.7025 39.868H13.3592ZM13.3183 40.3871L13.3456 39.9961L13.6943 39.9879L13.6794 40.3421L13.3183 40.3871ZM13.3265 40.9279L13.3115 40.526L13.6794 40.462L13.6943 40.8421L13.3265 40.9279ZM13.332 41.0424L13.7066 40.9593L13.7434 41.3884L13.366 41.4756L13.332 41.0424ZM13.3919 41.5982L13.7543 41.5001L13.8483 41.8911L13.4627 41.9974L13.3919 41.5982ZM13.4982 42.1404L13.8714 42.026L13.9954 42.4333L13.6221 42.5505L13.4982 42.1404ZM13.6494 42.654L14.0077 42.5505L14.1616 42.9442L13.7979 43.094L13.6494 42.654ZM13.8387 43.1976L14.1821 43.0613L14.3932 43.4632L14.0404 43.6145L13.8387 43.1976ZM14.0935 43.7221L14.4137 43.5886L14.6602 43.9605L14.3128 44.1226L14.0935 43.7221ZM14.3796 44.2452L14.7134 44.0776L14.9899 44.4537L14.6466 44.6553L14.3796 44.2452ZM14.7188 44.7329L15.0376 44.5626L15.3673 44.94L15.0172 45.1498L14.7188 44.7329ZM15.1166 45.2465L15.4586 45.0544L15.8223 45.4563L15.4708 45.6716L15.1166 45.2465ZM15.5839 45.7656L15.9095 45.5626L16.295 45.9141L15.964 46.1429L15.5839 45.7656ZM16.0989 46.241L16.4027 46.0231L16.8304 46.3718L16.5444 46.6266L16.0989 46.241ZM16.6452 46.7042L16.9054 46.4726L17.4203 46.8132L17.137 47.0584L16.6452 46.7042ZM17.2909 47.1702L17.5211 46.9331L18.0307 47.2424L17.7909 47.5026L17.2909 47.1702ZM17.9394 47.5952L18.171 47.3459L18.7037 47.6252L18.4584 47.9044L17.9394 47.5952ZM18.641 47.9862L18.8317 47.7369L19.4448 48.0271L19.2636 48.3036L18.641 47.9862ZM19.4162 48.3595L19.5864 48.0979L20.2077 48.3595L20.0183 48.6388L19.4162 48.3595ZM20.1872 48.7028L20.363 48.429L20.991 48.7028L20.8071 48.9712L20.1872 48.7028ZM21.0387 49.0297L21.1845 48.7314L21.8588 48.9739L21.6926 49.2804L21.0387 49.0297ZM21.8793 49.3254L22.01 49.0243L22.7294 49.2314L22.5768 49.5597L21.8793 49.3254ZM22.7798 49.591L22.8888 49.2804L23.6217 49.4398L23.4909 49.7722L22.7798 49.591ZM23.7021 49.8199L23.7947 49.4793L24.5726 49.6292L24.4377 49.9984L23.7021 49.8199ZM24.6693 50.0433L24.7483 49.6891L25.5017 49.8036L25.3955 50.1687L24.6693 50.0433ZM25.6243 50.1796L25.687 49.839L26.454 49.9289L26.3954 50.294L25.6243 50.1796ZM26.6583 50.3049L26.6856 49.9643L27.4267 50.027L27.3995 50.3703L26.6583 50.3049ZM27.676 50.0597L28.4294 50.0842L28.4185 50.4289L27.6433 50.403L27.676 50.0597ZM28.6542 50.437V50.091L29.4525 50.1046V50.4507L28.6542 50.437ZM31.3026 30.8643L30.8421 30.8384L30.8216 30.7186L31.357 30.7336L31.3026 30.8643ZM31.9537 30.9175L31.4401 30.8698L31.496 30.7444L32.0082 30.7949L31.9537 30.9175ZM32.5641 30.9815L32.0709 30.9256L32.1322 30.8139L32.6499 30.8671L32.5641 30.9815ZM33.3243 31.0687L32.718 30.9897L32.7793 30.8752L33.2166 30.9256L33.3243 31.0687ZM35.6688 31.5373L35.5653 31.3861L35.7656 31.4474L35.6688 31.5373ZM36.2764 31.6967L35.8132 31.5727L35.91 31.4706L36.3555 31.5932L36.2764 31.6967ZM36.9208 31.897L36.4522 31.7376L36.5516 31.6409L37.0353 31.7989L36.9208 31.897ZM37.5666 32.115L37.0625 31.9528L37.1783 31.8411L37.6728 32.0087L37.5666 32.115ZM38.2314 32.3547L37.7369 32.1599L37.8309 32.0591L38.3309 32.2539L38.2314 32.3547ZM38.7859 32.5863L38.384 32.4133L38.4725 32.2961L38.8935 32.4951L38.7859 32.5863ZM39.3962 32.8602L38.948 32.6599L39.0556 32.5509L39.5202 32.7675L39.3962 32.8602ZM39.9479 33.1449L39.5338 32.9187L39.655 32.8261L40.0828 33.0522L39.9479 33.1449ZM40.4833 33.4323L40.0869 33.2116L40.234 33.1258L40.6305 33.3438L40.4833 33.4323ZM41.0569 33.7757L40.625 33.5114L40.8021 33.4242L41.2149 33.6748L41.0569 33.7757ZM41.5623 34.0972L41.1727 33.8424L41.3307 33.7484L41.7176 34.025L41.5623 34.0972ZM42.0446 34.4595L41.6836 34.1925L41.8416 34.119L42.2149 34.3655L42.0446 34.4595ZM42.5377 34.8505L42.1658 34.5467L42.3307 34.4595L42.708 34.7579L42.5377 34.8505ZM42.9356 35.2143L42.6345 34.9323L42.8061 34.8505L43.1563 35.138L42.9356 35.2143ZM43.3661 35.6298L43.0609 35.2974L43.2434 35.2334L43.5745 35.5576L43.3661 35.6298ZM43.7598 36.048L43.4492 35.7211L43.6521 35.6489L43.9764 35.9922L43.7598 36.048ZM44.0799 36.4785L43.8211 36.1488L44.0499 36.0957L44.3497 36.4336L44.0799 36.4785ZM44.3783 36.9022L44.1521 36.5766L44.411 36.5289L44.6426 36.8586L44.3783 36.9022ZM44.6766 37.3654L44.4655 37.0112L44.7284 36.9731L44.9668 37.3463L44.6766 37.3654ZM44.9014 37.8354L44.7284 37.4798L45.0145 37.4635L45.2256 37.815L44.9014 37.8354ZM45.1085 38.3313L44.9668 37.9526L45.2665 37.939L45.4436 38.3313H45.1085ZM45.2978 38.8544L45.1494 38.4526L45.4818 38.4471L45.6384 38.9375L45.2978 38.8544ZM45.4954 40.3871L45.5022 39.9511L45.8223 40.0356L45.8523 40.4279L45.4954 40.3871ZM45.4954 40.8925L45.509 40.5206L45.8564 40.5601L45.8455 40.962L45.4954 40.8925ZM45.8019 41.511L45.4218 41.4252L45.4818 41.0233L45.8387 41.0791L45.8019 41.511ZM40.6782 47.8323L40.4343 47.553L40.9697 47.2737L41.1986 47.5244L40.6782 47.8323ZM39.8717 48.2287L39.6891 47.9521L40.3062 47.662L40.4997 47.9126L39.8717 48.2287ZM39.1101 48.5611L38.9221 48.2873L39.5474 48.0271L39.7163 48.2873L39.1101 48.5611ZM38.32 48.8935L38.136 48.6224L38.7654 48.3595L38.9412 48.6224L38.32 48.8935ZM37.4971 49.23L37.3254 48.9262L38.0066 48.6864L38.1551 48.9793L37.4971 49.23ZM36.5666 49.5147L36.41 49.1946L37.1374 48.9902L37.2655 49.2886L36.5666 49.5147ZM35.6266 49.7858L35.5312 49.448L36.2533 49.2559L36.3623 49.5651L35.6266 49.7858ZM34.6689 50.027L34.5286 49.6578L35.3133 49.512L35.4073 49.8471L34.6689 50.027ZM33.7193 50.1932L33.6117 49.8335L34.3692 49.7191L34.4482 50.0597L33.7193 50.1932ZM32.7017 50.3172L32.6376 49.9589L33.4128 49.8676L33.4741 50.2L32.7017 50.3172ZM31.6908 50.4003L31.6622 50.0597L32.4088 49.9875L32.4333 50.328L31.6908 50.4003ZM31.4442 50.4261L30.665 50.4507L30.65 50.1101L31.4115 50.0842L31.4442 50.4261ZM29.6282 50.4779V50.1319L30.4238 50.1155V50.4588L29.6282 50.4779ZM41.3566 47.4276L41.0978 47.1838L41.2858 47.0448L41.5828 47.2369L41.3566 47.4276ZM43.7162 45.4509L44.0499 45.0095L43.7434 44.8923L43.4941 45.1716L43.7162 45.4509ZM43.6372 45.534L43.3987 45.267L43.0786 45.5789L43.5077 45.6852L43.6372 45.534Z" fill="#E3AA39"/>
</svg>
