<svg width="60" height="60" viewBox="0 0 60 60" fill="none" xmlns="http://www.w3.org/2000/svg">
<rect width="60" height="60" fill="white"/>
<path fill-rule="evenodd" clip-rule="evenodd" d="M42.0275 24H45.6317L44.8308 25.3688H41.2266L42.0275 24Z" fill="#030314"/>
<path fill-rule="evenodd" clip-rule="evenodd" d="M44.5009 25.9585L40.8542 32.3076H37.25L40.886 25.9585H44.5009Z" fill="#030314"/>
<path fill-rule="evenodd" clip-rule="evenodd" d="M36.8771 30.59L35.9604 32.1799H27.8242L34.1792 27.3575H30.6487L31.4918 25.8308H39.6278L33.3255 30.59H36.8771Z" fill="#030314"/>
<path fill-rule="evenodd" clip-rule="evenodd" d="M10.2616 25.5899C10.525 25.453 12.0426 24.6633 14.1293 24.3369C14.3401 24.3053 15.4045 24.1263 17.6283 24H40.5819L39.7916 25.3793H16.8168C16.8168 25.3793 16.195 25.3793 15.8683 25.432C15.5416 25.4846 14.4033 25.5794 13.3284 26.2217C13.0438 26.3901 12.0005 27.0429 11.4103 28.0327C11.4103 28.0327 10.9782 28.6855 11.1468 29.4646C11.2417 29.8963 11.5157 30.4228 12.5485 30.686C12.6961 30.7281 13.3916 30.7913 13.4654 30.7808C13.5497 30.7702 14.6247 30.7913 14.6247 30.7913L16.1212 28.2538L14.7828 28.2643L15.5837 26.8955H20.0311L16.9011 32.3075H11.1152C11.1152 32.3075 10.9571 32.3286 10.6936 32.2338C9.81894 31.9179 7.89031 30.9808 7.86923 28.9487C7.86923 28.6644 7.81654 26.9271 10.2616 25.5899Z" fill="#030314"/>
<path fill-rule="evenodd" clip-rule="evenodd" d="M4 34.7295L4.8115 33.3186H18.5648C18.8072 33.9925 19.2814 34.3505 19.8821 34.7295H4Z" fill="#030314"/>
<path fill-rule="evenodd" clip-rule="evenodd" d="M21.0612 34.4134C19.512 33.3289 19.1537 32.3918 19.1115 32.276C18.6689 31.2336 19.0061 30.4018 19.101 30.2017C19.6596 29.1067 20.3235 28.6013 20.4605 28.4855C22.3575 26.843 24.9606 26.1586 27.4057 25.9901C28.0907 25.9374 29.7137 25.9585 29.7137 25.9585H30.4514L29.5451 27.5168H27.4584C26.7628 27.5168 25.9724 27.6116 25.7721 27.6432C23.559 28.0538 22.9793 29.1067 22.9793 29.1067H25.6668L26.2569 28.0854H29.2183L26.7839 32.297H23.8224L24.7393 30.7072H21.9571C21.8938 30.8019 21.8411 30.9072 21.7884 31.002C21.546 31.4652 21.6093 31.918 21.6409 32.0338C21.7989 32.5919 22.3681 33.0025 22.3681 33.0025L21.0612 34.4134Z" fill="#030314"/>
<path fill-rule="evenodd" clip-rule="evenodd" d="M55.2 25.3793H46.3262L47.1271 24H56.001L55.2 25.3793Z" fill="#030314"/>
<path d="M54.8723 25.9585H51.4892L50.2668 28.0748L49.5712 25.9585H45.9878L42.3203 32.3076H45.4608L47.9061 28.0748L48.8228 30.5703L47.79 32.3076H51.1624L54.8723 25.9585Z" fill="#030314"/>
<path d="M23.2451 33.3286L22.4336 34.729H32.9619L33.7735 33.3286H23.2451Z" fill="#030314"/>
<path d="M39.6296 34.6765C39.851 34.5396 39.9986 34.308 39.9986 33.9605C39.9986 33.1919 39.2291 33.0234 38.5968 33.0234H37.1953V36.4559H38.6286C39.3556 36.4559 40.104 36.2769 40.104 35.4557C40.0933 35.0555 39.9036 34.8134 39.6296 34.6765ZM37.8487 33.6657H38.5864C39.0605 33.6657 39.3241 33.7183 39.3241 34.0237C39.3241 34.3291 39.0605 34.4028 38.5864 34.4028H37.8487V33.6657ZM38.6179 35.8137H37.8487V35.0029H38.6179C39.1766 35.0029 39.4295 35.0871 39.4295 35.3925C39.4295 35.6978 39.187 35.8137 38.6179 35.8137Z" fill="#1897EE"/>
<path d="M42.4686 34.0869C42.2475 33.9922 41.9524 33.908 41.6888 33.908C40.8457 33.908 40.3398 34.4239 40.3398 35.1925C40.3398 35.9612 40.8668 36.4771 41.6995 36.4771C41.9735 36.4771 42.2475 36.4034 42.4686 36.3191L42.4897 36.456H43.0695V33.9817L42.4897 33.9501L42.4686 34.0869ZM42.4161 35.7085C42.2475 35.7716 42.0156 35.8348 41.752 35.8348C41.0354 35.8348 41.0036 35.3715 41.0036 35.1925C41.0036 35.0135 41.0354 34.5503 41.752 34.5503C41.9628 34.5503 42.2264 34.6134 42.4161 34.6871V35.7085Z" fill="#1897EE"/>
<path d="M45.0632 33.9185C44.7999 33.9185 44.4837 34.0027 44.2519 34.0974L44.2308 33.9606L43.6406 33.9922V36.4665H44.3044V34.7082C44.4941 34.6345 44.7999 34.5713 45.0106 34.5713C45.664 34.5713 45.6533 34.9293 45.6533 35.0767V36.477H46.3174V35.0556C46.3174 34.3186 45.843 33.9185 45.0632 33.9185Z" fill="#1897EE"/>
<path d="M46.8105 36.456H47.4639V36.0875V35.0872V32.9919L46.8105 33.0235V36.456Z" fill="#1897EE"/>
<path d="M48.271 34.7187L49.6621 33.3078L49.2405 32.8972L47.6387 34.5082V34.9188L49.2405 36.5719L49.6621 36.1613L48.271 34.7187Z" fill="#030314"/>
<path d="M35.4059 32.8972L34.9949 33.3078L36.386 34.7187L34.9844 36.1613L35.4165 36.5719L37.008 34.9188V34.5082L35.4059 32.8972Z" fill="#030314"/>
</svg>
