<svg width="130" height="60" viewBox="0 0 130 60" fill="none" xmlns="http://www.w3.org/2000/svg">
<rect width="130" height="60" fill="white"/>
<path d="M37.6225 26.8655C37.6225 22.1301 33.8792 18.2413 29.1476 18.0618H28.9057H28.8018C26.4455 18.0618 24.3026 18.8856 22.7683 20.386C22.3828 20.762 22.037 21.1777 21.7384 21.6256C18.8398 25.5352 19.6599 31.0528 23.5695 33.9515C25.0868 35.0777 26.9273 35.6843 28.8169 35.6843C30.1019 35.6843 34.0304 35.3234 34.0304 39.6241C34.0304 43.3183 29.843 43.6055 28.6166 43.6055C26.1186 43.6055 23.4504 42.5606 23.4504 39.6241V39.3142C23.4561 39.1404 23.32 38.9968 23.1462 38.9911C23.1424 38.9911 23.1368 38.9911 23.133 38.9911H20.3156C20.1417 38.9911 20 39.1328 20 39.3067V39.6184C20 41.869 20.89 43.7756 22.5774 45.1153C24.1099 46.3379 26.2527 47.0049 28.611 47.0049C33.8603 47.0049 37.4373 44.1025 37.4373 39.6109C37.4373 37.1166 36.3149 35.1098 34.225 33.806C36.3716 32.1413 37.6263 29.5771 37.6263 26.8598M34.2552 26.8598C34.2533 29.8643 31.8157 32.2981 28.8113 32.2962C25.8068 32.2943 23.373 29.8567 23.3748 26.8522C23.3748 25.3972 23.9587 24.0027 24.9961 22.9804C25.4629 22.4721 26.0468 22.0829 26.6968 21.8467C29.4688 20.6845 32.6585 21.9884 33.8206 24.7604C34.1003 25.4275 34.2439 26.1417 34.2439 26.8636" fill="#00219E"/>
<path d="M56.7681 31.9222C56.8871 31.7615 56.8607 31.5348 56.7057 31.4063L54.8445 29.9173C54.6801 29.7888 54.442 29.819 54.3135 29.9834L54.0074 30.3897C53.1249 31.5575 51.1351 32.3738 49.17 32.3738C46.944 32.3738 44.5933 31.1436 43.9395 28.4245H57.5428L57.6203 27.6422C57.9018 24.7775 57.2424 22.3626 55.691 20.6506C54.1396 18.9386 51.8551 18.0543 49.1775 18.0543C46.8835 18.0335 44.6783 18.9292 43.0476 20.5429C41.3961 22.219 40.4853 24.4884 40.5174 26.841C40.5174 29.4184 41.3961 31.6312 43.0608 33.2392C44.6349 34.7604 46.8079 35.5993 49.1813 35.5993C52.1404 35.5993 54.9389 34.3371 56.4865 32.3076L56.7681 31.9222ZM49.17 21.1854C52.2217 21.1854 54.1075 22.6971 54.4609 25.3539H43.949C44.5442 22.8237 46.551 21.1854 49.1775 21.1854" fill="#00219E"/>
<path d="M68.9258 18.0221C67.1402 18.0485 65.5567 18.589 64.3379 19.564V18.3509C64.3379 18.1865 64.2056 18.0542 64.0412 18.0542H64.0393H61.409C61.2446 18.0542 61.1123 18.1865 61.1123 18.3509V35.0834C61.1123 35.2478 61.2446 35.3801 61.409 35.3801H64.0714C64.2358 35.3801 64.3681 35.2478 64.3681 35.0834V25.9717C64.3681 23.2166 66.2237 21.2722 68.8843 21.2477H68.9561C70.3903 21.2477 71.5524 21.6483 72.3215 22.4098C73.0906 23.1713 73.476 24.2729 73.476 25.692V35.0834C73.476 35.2478 73.6083 35.3801 73.7727 35.3801H76.4352C76.5996 35.3801 76.7318 35.2478 76.7318 35.0834V25.6618C76.7318 21.0209 73.6726 18.0221 68.9258 18.0221Z" fill="#00219E"/>
<path d="M104.02 35.3821C104.184 35.3821 104.316 35.2498 104.316 35.0854V18.3491C104.316 18.1866 104.184 18.0543 104.022 18.0543H104.02H101.363C101.198 18.0525 101.066 18.1847 101.064 18.3491V19.5887C99.5715 18.4247 97.6914 18.077 95.6506 18.077C94.0142 18.0751 92.408 18.5286 91.0154 19.3903C90.679 19.5944 90.3578 19.823 90.0536 20.0743C86.3008 23.1431 85.7471 28.674 88.8178 32.4248C91.8544 36.136 97.3078 36.7237 101.064 33.7457V35.0835C101.064 35.2479 101.197 35.3802 101.361 35.3802H101.363L104.02 35.3821ZM90.2444 26.8051C90.2444 23.6136 92.5119 21.295 95.6525 21.295C99.46 21.295 101.193 24.1597 101.193 26.8202C101.215 28.2204 100.724 29.5791 99.8096 30.6391C98.8157 31.7559 97.3777 32.3398 95.6525 32.3398C92.5195 32.3398 90.2444 30.0099 90.2444 26.7995" fill="#00219E"/>
<path d="M110.705 12H108.045C107.88 11.9981 107.748 12.1304 107.746 12.2948V12.2967V35.0835C107.746 35.2479 107.878 35.3802 108.043 35.3802H108.045H110.705C110.868 35.3783 111 35.246 111 35.0835V12.2967C111 12.1342 110.868 12 110.705 12C110.703 12 110.701 12 110.701 12H110.705Z" fill="#00219E"/>
<path d="M80.4545 35.382H83.1245C83.2851 35.3801 83.4136 35.2478 83.4118 35.0872C83.4118 35.0853 83.4118 35.0853 83.4118 35.0834V18.3415C83.4136 18.1809 83.2833 18.0505 83.1226 18.0486C83.1208 18.0486 83.1208 18.0486 83.1189 18.0486H80.4545C80.292 18.0486 80.1616 18.179 80.1616 18.3415V35.0834C80.1616 35.2459 80.292 35.3763 80.4545 35.3763" fill="#00219E"/>
<path d="M33.4976 13.4474C33.4976 14.2467 34.1457 14.8949 34.945 14.8949H37.0009C37.3429 14.8949 37.6207 15.1727 37.6207 15.5147V17.5706C37.6207 18.3699 38.2688 19.018 39.0681 19.018C39.8674 19.018 40.5156 18.3699 40.5156 17.5706V12.7218C40.5156 12.3231 40.1925 12 39.7937 12H39.7919H34.945C34.1457 12 33.4976 12.6481 33.4976 13.4474Z" fill="#00DDFF"/>
</svg>
