<svg width="60" height="60" viewBox="0 0 60 60" fill="none" xmlns="http://www.w3.org/2000/svg">
<rect width="60" height="60" fill="#00219E"/>
<path d="M40.1243 25.9697C40.1243 19.6258 35.1094 14.416 28.7705 14.1755H28.4465H28.3073C25.1505 14.1755 22.2798 15.2793 20.2243 17.2893C19.7078 17.793 19.2446 18.35 18.8446 18.9499C14.9613 24.1876 16.06 31.5795 21.2976 35.4628C23.3304 36.9716 25.7961 37.7842 28.3275 37.7842C30.0489 37.7842 35.3119 37.3007 35.3119 43.0623C35.3119 48.0114 29.7021 48.3962 28.0592 48.3962C24.7126 48.3962 21.1381 46.9962 21.1381 43.0623V42.6471C21.1457 42.4143 20.9634 42.2219 20.7305 42.2143C20.7255 42.2143 20.7179 42.2143 20.7128 42.2143H16.9384C16.7055 42.2143 16.5156 42.4041 16.5156 42.637V43.0547C16.5156 46.0697 17.708 48.624 19.9686 50.4188C22.0216 52.0567 24.8923 52.9503 28.0516 52.9503C35.0841 52.9503 39.8762 49.0619 39.8762 43.0446C39.8762 39.703 38.3725 37.0146 35.5726 35.2679C38.4484 33.0376 40.1293 29.6024 40.1293 25.9621M35.6131 25.9621C35.6106 29.9872 32.345 33.2477 28.3199 33.2452C24.2949 33.2427 21.0343 29.9771 21.0369 25.952C21.0369 24.0028 21.8191 22.1345 23.2089 20.765C23.8341 20.084 24.6164 19.5625 25.4872 19.2461C29.2009 17.6892 33.474 19.436 35.0309 23.1497C35.4056 24.0433 35.598 25.0002 35.598 25.9672" fill="white"/>
<path d="M34.5981 7.9938C34.5981 9.06462 35.4664 9.93292 36.5373 9.93292H39.2915C39.7497 9.93292 40.1218 10.305 40.1218 10.7632V13.5175C40.1218 14.5883 40.9901 15.4566 42.061 15.4566C43.1318 15.4566 44.0001 14.5883 44.0001 13.5175V7.02171C44.0001 6.48757 43.5672 6.05469 43.0331 6.05469H43.0305H36.5373C35.4664 6.05469 34.5981 6.92298 34.5981 7.9938Z" fill="#00DDFF"/>
</svg>
