<svg width="130" height="60" viewBox="0 0 130 60" fill="none" xmlns="http://www.w3.org/2000/svg">
<rect width="130" height="60" fill="white"/>
<path d="M28.4837 24.6954C28.4775 25.7439 28.205 26.2728 27.867 26.3122C27.6454 26.3382 27.3896 26.1556 27.1587 25.775C26.3995 24.5316 25.5685 23.3462 24.6856 22.1826C24.6856 22.1805 24.6866 22.1774 24.6877 22.1753C25.0298 20.3397 25.5779 18.4678 26.516 16.8395C27.6891 19.1958 28.4983 22.0737 28.4837 24.6954ZM24.0813 24.6342C24.9102 25.3747 25.1369 25.9659 24.9518 26.2884C24.8312 26.5 24.5285 26.5995 24.0844 26.5477C22.5983 26.3734 21.1163 26.305 19.6166 26.2946C19.6155 26.2925 19.6134 26.2905 19.6114 26.2884C18.1959 24.6083 16.9146 22.7156 16.092 20.6716C18.8979 21.3343 21.9347 22.7188 24.0813 24.6353M21.2515 28.4673C22.3591 28.234 22.9644 28.4258 23.1006 28.7909C23.19 29.0304 23.0788 29.3499 22.7657 29.6921C21.7288 30.8204 20.7783 32.0058 19.8662 33.2399H19.8578C17.6249 33.4048 15.3026 33.3125 13.1238 32.7712C15.3442 30.8101 18.353 29.0781 21.2525 28.4683M22.5182 33.1943C23.0028 32.1666 23.5197 31.7797 23.8754 31.8876C24.1094 31.9581 24.281 32.2402 24.3434 32.6934C24.5431 34.1235 24.8312 35.5267 25.1827 36.9309C25.1817 36.933 25.1796 36.9351 25.1775 36.9371C23.9628 38.6566 22.6596 40.3118 21.0247 41.6579C20.8313 38.8796 21.3367 35.7009 22.5182 33.1943ZM26.7126 34.8806C26.282 33.94 26.3142 33.3022 26.6054 33.0823C26.7968 32.9382 27.1026 32.9651 27.4582 33.1746C28.544 33.8135 29.6631 34.4108 30.8362 34.8848C30.8362 34.8868 30.8362 34.8899 30.8372 34.892C31.2595 36.6499 31.5049 38.4948 31.3968 40.3035C29.4436 39.0279 27.6714 36.9745 26.7126 34.8806ZM30.4067 32.5638C29.5133 32.3667 29.0859 31.9674 29.1139 31.6045C29.1316 31.3659 29.3396 31.1367 29.7057 30.975C30.8289 30.4782 31.9376 29.9317 32.9817 29.2773C32.9838 29.2783 32.9859 29.2793 32.9869 29.2804C34.3702 29.9845 35.6993 30.8785 36.7684 32.01C34.8246 32.765 32.4191 33.0076 30.4067 32.5638ZM31.1388 28.1935C30.4316 28.8106 29.8867 28.9143 29.6485 28.6643C29.4925 28.5005 29.4613 28.1831 29.5788 27.7725C29.9543 26.4709 30.2455 25.1559 30.4878 23.8201C30.4899 23.8201 30.492 23.8191 30.494 23.8181C31.9199 23.1523 33.3509 22.5425 34.9338 22.3776C34.1861 24.5077 32.8309 26.7188 31.1388 28.1945" fill="#006E43"/>
<path d="M26.516 16.8406C25.5789 18.4677 25.0308 20.3397 24.6887 22.1753C24.6887 22.1774 24.6876 22.1805 24.6866 22.1826C24.4516 21.8777 24.1396 21.5105 23.8692 21.1756C22.8458 19.9041 21.7142 18.7156 20.5692 17.5479C22.4485 16.796 24.5119 16.5491 26.516 16.8406ZM13 26.7997C14.7514 26.586 16.5111 26.391 18.2541 26.3319C18.7045 26.3164 19.2151 26.2936 19.6186 26.2936C19.6165 26.2915 19.6155 26.2884 19.6134 26.2873C18.198 24.6073 16.9167 22.7146 16.094 20.6715C14.5319 22.3921 13.4659 24.5284 13 26.8007M16.4508 38.7427C17.2744 37.2451 18.1429 35.7631 19.0924 34.3652C19.3441 33.9939 19.628 33.5676 19.8661 33.2389C19.863 33.2389 19.8609 33.2389 19.8578 33.2389C17.626 33.4038 15.3036 33.3125 13.1248 32.7701C13.6822 35.0102 14.8242 37.0958 16.4508 38.7427ZM26.9632 42.1215C26.4328 40.7888 25.9242 39.4479 25.5196 38.0945C25.4073 37.7191 25.2752 37.2825 25.1827 36.9288C25.1816 36.9309 25.1796 36.933 25.1785 36.935C23.9638 38.6535 22.6607 40.3087 21.0258 41.6558C22.9997 42.2325 24.9164 42.5031 26.9632 42.1215ZM35.1574 36.2993C34.0186 36.012 32.884 35.6854 31.7951 35.257C31.4851 35.1347 31.1243 35.0061 30.8372 34.8837C30.8372 34.8858 30.8372 34.8889 30.8383 34.891C31.2605 36.6488 31.5059 38.4927 31.3978 40.3025C32.9318 39.2695 34.2183 37.8902 35.1574 36.3004M36.6842 26.6161C35.77 27.3659 34.8298 28.0919 33.8366 28.7266C33.5589 28.9039 33.2438 29.1186 32.9807 29.2772C32.9828 29.2772 32.9838 29.2793 32.9859 29.2804C34.3691 29.9845 35.6982 30.8775 36.7674 32.0089C37.0211 30.1391 37.0003 28.4766 36.6842 26.6161ZM31.0317 18.4978C30.9485 19.8989 30.8466 21.3031 30.6563 22.6731C30.6043 23.0444 30.546 23.4779 30.4878 23.8201C30.4899 23.8201 30.4919 23.818 30.494 23.818C31.9199 23.1522 33.3509 22.5424 34.9338 22.3775C33.9396 20.8167 32.6073 19.4768 31.0327 18.4989" fill="#3DAE2B"/>
<path d="M110.807 20.7566L108.378 37.8549H105.29V35.9436C103.759 37.4028 102.168 38.1412 100.557 38.1412C99.426 38.1412 98.5898 37.8155 98.0012 37.1456C97.0922 36.1116 96.8249 34.2843 97.1858 31.5609C97.8971 26.4553 99.8076 25.4297 102.66 25.4297C103.789 25.4297 105.079 25.5313 106.229 25.7003L106.931 20.7566H110.807ZM104.143 28.2464C101.992 28.2464 101.532 28.5191 101.107 31.6532C100.888 33.2596 100.825 34.2615 101.144 34.6255C101.276 34.7769 101.5 34.8391 101.841 34.8246C103.016 34.8018 103.951 34.1826 105.156 33.1196L105.838 28.2464H104.142H104.143ZM69.2397 25.4297C67.0473 25.4297 65.5466 25.8839 64.517 26.8588C63.4998 27.8222 62.8998 29.2938 62.569 31.6304C62.2383 33.9524 62.5212 35.591 63.4333 36.6395C64.3131 37.6496 65.8055 38.1412 67.9958 38.1412C69.0722 38.1412 70.6551 38.0437 72.0789 37.577L72.1787 37.5448L72.5802 34.6887L72.3233 34.7312C71.3332 34.8723 70.0852 34.9439 68.6167 34.9439C67.6006 34.9439 67.0952 34.8194 66.8123 34.5C66.4628 34.1049 66.3963 33.3343 66.5845 31.8419C66.9225 29.075 67.7847 28.6291 69.717 28.6291C70.5002 28.6291 73.4236 28.6788 73.4236 28.6788L73.8032 25.9689C73.8032 25.9689 72.1652 25.4307 69.2386 25.4307M95.5291 26.7737C96.1177 27.4509 96.3153 28.3999 96.1333 29.6765C95.7568 32.2506 93.9462 32.8894 91.1475 33.0875L87.8205 33.3374C87.9099 34.7323 88.639 34.9926 90.0118 34.9926C91.1953 34.9926 94.047 34.8536 94.513 34.7354L94.7002 34.6877L94.722 34.8796C94.8374 35.8897 95.1744 37.0056 95.1775 37.017L95.2212 37.1622L95.0808 37.2213C93.5676 37.8549 91.1818 38.1432 89.6052 38.1432C87.3702 38.1432 85.833 37.6382 84.9064 36.598C83.9621 35.5381 83.6365 33.884 83.9132 31.5412C84.4685 26.9728 86.2366 25.4317 90.9197 25.4317C93.2348 25.4317 94.7418 25.8715 95.528 26.7748M90.5932 30.6783C91.7226 30.5881 92.2468 30.3682 92.3789 29.3001C92.4111 28.9277 92.3726 28.7006 92.253 28.571C92.0773 28.3791 91.6602 28.3408 91.0466 28.3408C90.9332 28.3408 90.8116 28.3418 90.6836 28.3439C88.8688 28.3439 88.4206 28.9609 88.0649 30.9189L90.5942 30.6783H90.5932ZM84.3417 25.7667H83.5939C82.1743 25.7667 80.7848 26.4678 78.9939 28.0991V25.7667H75.928L74.2307 37.8581H78.112L79.0522 30.9034C79.541 30.2822 80.9003 29.551 81.9111 29.551H82.739L82.7681 29.4183C82.7712 29.4027 83.1217 27.8481 84.1919 26.0198L84.3406 25.7667H84.3417ZM43.6065 25.2191C43.282 27.7144 44.1567 29.1891 46.5321 30.1525L49.6687 31.397C50.6651 31.76 50.8845 31.9457 50.7566 32.9278C50.5632 34.1951 50.0681 34.5342 47.8758 34.5342H42.5468L42.0725 37.8549H48.0307C52.6723 37.8549 54.2313 36.7639 54.7024 33.185C54.9926 30.9262 54.6005 29.3052 51.7498 28.2028L48.7847 27.0776C47.6355 26.6493 47.4244 26.4782 47.5762 25.4753C47.752 24.3573 48.1649 24.1157 49.025 24.0555H55.3836L55.8578 20.7348H50.1825C46.3199 20.7348 44.1276 21.4493 43.6076 25.2181M55.887 37.857H59.7423L61.4396 25.7657H57.5843L55.887 37.857ZM61.6798 24.0555L62.1458 20.7348H58.2904L57.8245 24.0555H61.6798ZM110.741 37.857H114.597L116.294 25.7657H112.439L110.741 37.857ZM116.534 24.0555L117 20.7348H113.145L112.679 24.0555H116.534Z" fill="#3DAE2B"/>
</svg>
