<svg width="60" height="60" viewBox="0 0 60 60" fill="none" xmlns="http://www.w3.org/2000/svg">
<rect width="60" height="60" fill="white"/>
<path d="M5 21.9678C5.73388 21.9678 6.46775 21.9678 7.22386 21.9678C7.22386 23.3282 7.22386 24.6887 7.22386 26.0904C8.0736 26.0886 8.0736 26.0886 8.94019 26.0865C9.29923 26.0861 9.65828 26.0854 10.0173 26.085C10.5869 26.0847 11.1565 26.0836 11.7261 26.0822C12.1411 26.0811 12.5561 26.0804 12.9711 26.0804C13.1906 26.08 13.4102 26.0797 13.6297 26.079C13.8366 26.0782 14.0436 26.0782 14.2506 26.0782C14.3262 26.0782 14.4019 26.0779 14.4776 26.0775C15.2908 26.0732 15.9457 26.1887 16.5587 26.7647C16.9615 27.1888 17.1696 27.7316 17.1595 28.3131C17.1972 28.3109 17.2348 28.3088 17.2739 28.3063C17.8572 28.3095 18.3658 28.5913 18.7722 28.9921C19.1779 29.4319 19.3525 29.9499 19.3533 30.5397C19.3536 30.5759 19.3536 30.6124 19.354 30.6497C19.3543 30.7702 19.3547 30.8906 19.3547 31.0107C19.355 31.0946 19.355 31.1789 19.3554 31.2627C19.3558 31.4388 19.3561 31.6148 19.3561 31.7908C19.3565 32.0152 19.3572 32.24 19.3583 32.4648C19.359 32.6383 19.359 32.8118 19.359 32.9849C19.3594 33.0677 19.3594 33.1506 19.3601 33.2334C19.3644 34.0403 19.2607 34.6659 18.6682 35.2664C18.2377 35.6629 17.7241 35.8471 17.1452 35.8464C17.1107 35.8464 17.0767 35.8468 17.0415 35.8468C16.9271 35.8471 16.8127 35.8471 16.6982 35.8471C16.6165 35.8475 16.5343 35.8475 16.4522 35.8478C16.2294 35.8482 16.0063 35.8486 15.7836 35.8486C15.6441 35.8486 15.5049 35.8489 15.3654 35.8489C14.9794 35.8493 14.5931 35.8496 14.2068 35.85C14.182 35.85 14.1573 35.85 14.1318 35.85C14.0949 35.85 14.0949 35.85 14.0569 35.85C14.0067 35.85 13.9568 35.85 13.9066 35.85C13.8815 35.85 13.8567 35.85 13.8309 35.85C13.4281 35.85 13.0253 35.8507 12.6225 35.8518C12.2085 35.8525 11.7943 35.8529 11.3803 35.8529C11.1479 35.8529 10.9158 35.8532 10.6834 35.8539C10.465 35.8543 10.2462 35.8547 10.0274 35.8543C9.94738 35.8543 9.86739 35.8543 9.78741 35.8547C9.05532 35.8579 8.42583 35.7758 7.8756 35.2402C7.85013 35.214 7.82431 35.1875 7.79777 35.1603C7.76369 35.1273 7.76369 35.1273 7.7289 35.0936C7.3573 34.7093 7.188 34.1801 7.188 33.6546C6.46596 33.6546 5.74392 33.6546 5 33.6546C5 29.7979 5 25.9413 5 21.9678ZM7.22386 28.3489C7.22386 30.088 7.22386 31.827 7.22386 33.6187C10.4908 33.6187 13.7577 33.6187 17.1236 33.6187C17.1236 31.8797 17.1236 30.1407 17.1236 28.3489C13.8567 28.3489 10.5898 28.3489 7.22386 28.3489Z" fill="#006DC6"/>
<path d="M40.4416 26.1083C40.5241 26.1083 40.6066 26.1079 40.6887 26.1076C40.9111 26.1072 41.1335 26.1076 41.3559 26.1083C41.5894 26.1086 41.8229 26.1083 42.0564 26.1083C42.4481 26.1083 42.8401 26.1086 43.2318 26.1097C43.6339 26.1104 44.0363 26.1108 44.4384 26.1104C44.9248 26.1097 45.4108 26.1101 45.8972 26.1104C46.0823 26.1108 46.2674 26.1108 46.4525 26.1104C46.6709 26.1104 46.889 26.1108 47.1071 26.1115C47.1867 26.1115 47.2667 26.1119 47.3463 26.1115C47.8438 26.1104 48.304 26.1158 48.7488 26.366C48.7829 26.385 48.7829 26.385 48.8176 26.404C49.313 26.6869 49.672 27.1565 49.8363 27.7036C49.8923 27.9581 49.9185 28.2026 49.9185 28.4629C49.9185 28.4969 49.9188 28.531 49.9192 28.5661C49.9195 28.6776 49.9199 28.7891 49.9199 28.9006C49.9203 28.9791 49.9203 29.0572 49.9206 29.1357C49.921 29.2999 49.9213 29.4638 49.9213 29.6279C49.9213 29.8366 49.922 30.0452 49.9235 30.2539C49.9242 30.4159 49.9242 30.578 49.9242 30.7396C49.9246 30.8167 49.9246 30.8934 49.9253 30.9705C49.9303 31.7158 49.85 32.402 49.3076 32.9648C49.2811 32.9913 49.2542 33.0178 49.2266 33.0451C49.2043 33.068 49.1824 33.091 49.1595 33.1143C48.8133 33.4477 48.3105 33.6488 47.832 33.657C47.7764 33.656 47.7764 33.656 47.7201 33.6545C47.7154 33.7087 47.7154 33.7087 47.7104 33.7635C47.6465 34.4178 47.3983 34.982 46.8825 35.4093C46.2606 35.8643 45.5952 35.8937 44.8534 35.8894C44.776 35.8894 44.6985 35.8894 44.621 35.8894C44.4122 35.8894 44.2038 35.889 43.9951 35.8883C43.7767 35.8876 43.5579 35.8876 43.3394 35.8872C42.9258 35.8869 42.5126 35.8861 42.0994 35.8851C41.5406 35.8836 40.9818 35.8829 40.4229 35.8822C39.5434 35.8815 38.6639 35.8793 37.7844 35.8772C37.7844 37.2376 37.7844 38.5981 37.7844 39.9998C37.0505 39.9998 36.3167 39.9998 35.5605 39.9998C35.5605 36.1432 35.5605 32.2865 35.5605 28.313C36.2826 28.313 37.0046 28.313 37.7485 28.313C37.7485 28.2065 37.7485 28.1001 37.7485 27.9904C37.8289 27.4347 38.1331 26.935 38.5649 26.5801C39.1585 26.1409 39.7296 26.1051 40.4416 26.1083ZM37.7844 28.3489C37.7844 30.0879 37.7844 31.8269 37.7844 33.6187C41.0513 33.6187 44.3183 33.6187 47.6842 33.6187C47.6842 31.8796 47.6842 30.1406 47.6842 28.3489C44.4173 28.3489 41.1503 28.3489 37.7844 28.3489Z" fill="#006DC6"/>
<path d="M25.6061 26.122C25.6405 26.122 25.675 26.122 25.7105 26.122C25.826 26.122 25.9415 26.122 26.0566 26.1224C26.1395 26.1224 26.2223 26.1224 26.3048 26.1224C26.5297 26.1224 26.7543 26.1224 26.9788 26.1228C27.2137 26.1231 27.4483 26.1231 27.6833 26.1231C28.0775 26.1231 28.4713 26.1235 28.8655 26.1235C29.2712 26.1238 29.6772 26.1242 30.0829 26.1245C30.108 26.1245 30.1331 26.1245 30.1589 26.1245C30.2845 26.1245 30.41 26.1245 30.5355 26.1245C31.5768 26.1249 32.6181 26.1256 33.6594 26.1263C33.6594 26.8598 33.6594 27.5933 33.6594 28.349C30.2859 28.349 26.9124 28.349 23.4368 28.349C23.4368 30.8215 23.4368 33.294 23.4368 35.8415C22.7029 35.8415 21.969 35.8415 21.2129 35.8415C21.2129 33.3571 21.2129 30.8728 21.2129 28.3131C21.9349 28.3131 22.657 28.3131 23.4009 28.3131C23.4009 28.2185 23.4009 28.1239 23.4009 28.0263C23.5042 27.4341 23.7822 26.8992 24.2736 26.5372C24.5275 26.3608 24.7847 26.2378 25.0867 26.1622C25.1111 26.1557 25.1355 26.1496 25.161 26.1432C25.3095 26.1195 25.4558 26.1217 25.6061 26.122Z" fill="#006DC6"/>
<path d="M50.4458 34.6943C51.9017 34.6943 53.3576 34.6943 54.8577 34.6943C54.8577 35.0729 54.8577 35.4515 54.8577 35.8415C53.4017 35.8415 51.9458 35.8415 50.4458 35.8415C50.4458 35.4629 50.4458 35.0844 50.4458 34.6943Z" fill="#006DC6"/>
<path d="M37.4968 21.6093C37.7303 21.6003 37.9638 21.5939 38.1973 21.5896C38.2766 21.5878 38.3558 21.5853 38.4355 21.5824C39.1776 21.5537 39.1776 21.5537 39.4147 21.7437C39.6274 22.0208 39.579 22.3768 39.5635 22.707C39.5618 22.7747 39.5603 22.8421 39.5589 22.9095C39.5549 23.0737 39.5488 23.2376 39.5413 23.4018C39.3993 23.4018 39.2572 23.4018 39.1109 23.4018C39.0929 23.2598 39.0929 23.2598 39.075 23.115C39.0617 23.135 39.0485 23.1555 39.0348 23.1763C38.9201 23.3207 38.8325 23.3924 38.6492 23.4311C38.5108 23.4441 38.3731 23.4451 38.2342 23.443C38.1471 23.4423 38.0606 23.4444 37.9735 23.4473C37.6887 23.4501 37.4954 23.438 37.2798 23.2322C37.1707 23.1081 37.1112 23.0114 37.0933 22.8461C37.1177 22.6349 37.2156 22.5091 37.3666 22.365C37.6288 22.1843 38.0248 22.2557 38.3261 22.2682C38.4025 22.27 38.4785 22.2714 38.5546 22.2729C38.74 22.2768 38.9254 22.2829 39.1109 22.2904C39.1109 22.1958 39.1109 22.1011 39.1109 22.0036C38.5782 22.0036 38.0456 22.0036 37.4968 22.0036C37.4968 21.8735 37.4968 21.7434 37.4968 21.6093ZM37.5327 22.7206C37.5327 22.8034 37.5327 22.8862 37.5327 22.9716C38.0535 22.9716 38.5743 22.9716 39.1109 22.9716C39.1109 22.8888 39.1109 22.8059 39.1109 22.7206C38.5901 22.7206 38.0693 22.7206 37.5327 22.7206Z" fill="#006DC6"/>
<path d="M33.6592 21C33.8012 21 33.9433 21 34.0896 21C34.0896 21.2011 34.0896 21.4022 34.0896 21.6094C34.138 21.6076 34.1861 21.6062 34.2359 21.6044C34.4164 21.5983 34.5964 21.5947 34.7769 21.5919C34.8547 21.5901 34.9325 21.5879 35.0104 21.5851C35.7396 21.5596 35.7396 21.5596 35.9512 21.7374C36.1015 21.94 36.1126 22.1676 36.1065 22.4114C36.1051 22.4856 36.1072 22.5587 36.1097 22.6326C36.1122 22.876 36.0792 23.0635 35.9211 23.2549C35.6854 23.456 35.4365 23.4539 35.1406 23.4446C35.0534 23.442 34.9666 23.4431 34.8791 23.4446C34.4174 23.4435 34.4174 23.4435 34.2288 23.256C34.1656 23.1764 34.1656 23.1764 34.1255 23.1151C34.1136 23.2097 34.1018 23.3044 34.0896 23.4019C33.9476 23.4019 33.8055 23.4019 33.6592 23.4019C33.6592 22.6093 33.6592 21.8166 33.6592 21ZM34.0896 22.0038C34.0896 22.3232 34.0896 22.6426 34.0896 22.9717C34.6104 22.9717 35.1312 22.9717 35.6678 22.9717C35.6678 22.6523 35.6678 22.3329 35.6678 22.0038C35.147 22.0038 34.6262 22.0038 34.0896 22.0038Z" fill="#006DC5"/>
<path d="M48.5908 21.5626C48.706 21.5644 48.8207 21.5626 48.9359 21.5605C49.5453 21.558 49.5453 21.558 49.7781 21.7577C49.9567 21.9878 49.961 22.2237 49.9524 22.5055C49.9538 22.5524 49.9553 22.599 49.9567 22.6471C49.9545 22.883 49.9251 23.064 49.7781 23.2533C49.508 23.4852 49.1604 23.4555 48.8214 23.4487C48.7063 23.4465 48.5915 23.4487 48.4764 23.4508C47.867 23.4533 47.867 23.4533 47.6338 23.2533C47.4556 23.0231 47.4513 22.7872 47.4595 22.5055C47.4584 22.4589 47.457 22.4123 47.4556 22.3642C47.4577 22.1283 47.4871 21.9473 47.6338 21.7577C47.9039 21.5257 48.2515 21.5558 48.5908 21.5626ZM47.8989 22.0036C47.8989 22.323 47.8989 22.6424 47.8989 22.9715C48.4197 22.9715 48.9405 22.9715 49.4771 22.9715C49.4771 22.6521 49.4771 22.3327 49.4771 22.0036C48.9563 22.0036 48.4355 22.0036 47.8989 22.0036Z" fill="#006DC6"/>
<path d="M45.2491 21.5869C45.3287 21.5887 45.4083 21.5905 45.4879 21.5919C45.682 21.5959 45.8757 21.602 46.0697 21.6091C46.0697 21.7393 46.0697 21.8698 46.0697 22.0035C45.5371 22.0035 45.0041 22.0035 44.4556 22.0035C44.4556 22.3229 44.4556 22.6427 44.4556 22.9714C45.1067 22.9714 45.7573 22.9714 46.4284 22.9714C46.3377 23.1528 46.2347 23.2826 46.0697 23.4016C45.9406 23.4421 45.8197 23.4439 45.6852 23.4425C45.6311 23.4432 45.6311 23.4432 45.5758 23.4439C45.4998 23.4443 45.4234 23.4439 45.3473 23.4432C45.2315 23.4421 45.1163 23.4446 45.0005 23.4471C44.3853 23.4525 44.3853 23.4525 44.1543 23.2535C43.9764 23.0234 43.9718 22.7871 43.98 22.5054C43.9789 22.4588 43.9775 22.4122 43.9761 22.3641C43.9782 22.1286 44.008 21.9461 44.1533 21.7565C44.4524 21.4984 44.8785 21.5722 45.2491 21.5869Z" fill="#006DC6"/>
<path d="M41.6681 21.5626C41.7833 21.5644 41.898 21.5626 42.0132 21.5604C42.6219 21.5576 42.6219 21.5576 42.8568 21.745C43.0717 22.0211 43.0229 22.3767 43.0075 22.7072C43.0057 22.7746 43.0039 22.842 43.0024 22.9094C42.9985 23.0736 42.9924 23.2378 42.9849 23.4016C42.8547 23.4016 42.7245 23.4016 42.5903 23.4016C42.5903 22.9403 42.5903 22.4789 42.5903 22.0035C42.0577 22.0035 41.525 22.0035 40.9762 22.0035C40.9762 22.4649 40.9762 22.9263 40.9762 23.4016C40.846 23.4016 40.7158 23.4016 40.5817 23.4016C40.573 23.2041 40.5662 23.0066 40.5623 22.8087C40.5605 22.7417 40.558 22.6746 40.5548 22.6076C40.5264 21.9809 40.5264 21.9809 40.7097 21.745C40.982 21.5282 41.3356 21.5561 41.6681 21.5626Z" fill="#006DC6"/>
</svg>
