<svg width="60" height="60" viewBox="0 0 60 60" fill="none" xmlns="http://www.w3.org/2000/svg">
<rect width="60" height="60" fill="white"/>
<path fill-rule="evenodd" clip-rule="evenodd" d="M12.3672 42.0014H45.5383V39.0555H12.3672V42.0014Z" fill="#5E6A71"/>
<path fill-rule="evenodd" clip-rule="evenodd" d="M47.9997 20.4105C47.9926 20.4094 42.7804 23.3814 41.5593 23.8331C40.437 24.2734 40.0157 23.6917 39.8809 23.4881C39.5796 23.0309 39.085 21.5236 39.0151 21.2966C39.0452 21.3031 39.3334 21.3595 40.0004 21.1916C40.794 20.9917 47.9926 16.9977 47.9997 16.9999V20.4105Z" fill="#007859"/>
<path fill-rule="evenodd" clip-rule="evenodd" d="M39.6508 26.5301L36.2257 18.9976H31.2427L24.2429 31.9566C24.2489 31.9583 27.6871 31.851 29.8907 30.2034C30.448 29.8784 32.0184 25.7848 33.4572 23.0317L35.6963 28.5942C32.3121 30.3134 29.0982 31.8218 27.3673 32.3071C22.8008 33.6124 17.2387 34.3951 15.241 32.6397C13.3616 30.9844 17.7011 24.0532 25.9082 22.5112C27.239 22.2165 28.0157 22.2923 28.0157 22.3005C28.0157 22.2923 27.453 19.9303 27.0153 19.4325C26.4033 18.6894 25.8034 18.5367 24.9099 18.6493C23.1333 18.7544 15.5756 20.7536 12.5937 27.0018C10.9305 30.5517 13.1422 34.1373 14.5734 35.175C15.2382 35.6576 19.5302 39.4756 29.454 35.6154C39.2333 31.851 47.9929 25.9224 48 25.9224V21.956C47.9962 21.9511 44.1344 24.1474 39.6508 26.5301Z" fill="#5E6A71"/>
</svg>
