<svg width="60" height="60" viewBox="0 0 60 60" fill="none" xmlns="http://www.w3.org/2000/svg">
<rect width="60" height="60" fill="#5E6A71"/>
<path fill-rule="evenodd" clip-rule="evenodd" d="M12.3672 42.0016H45.5383V39.0557H12.3672V42.0016Z" fill="white"/>
<path fill-rule="evenodd" clip-rule="evenodd" d="M47.9997 20.4107C47.9926 20.4096 42.7804 23.3815 41.5593 23.8332C40.437 24.2736 40.0157 23.6919 39.8809 23.4882C39.5796 23.0311 39.085 21.5237 39.0151 21.2968C39.0452 21.3033 39.3334 21.3596 40.0004 21.1917C40.794 20.9918 47.9926 16.9978 47.9997 17V20.4107Z" fill="#007859"/>
<path fill-rule="evenodd" clip-rule="evenodd" d="M39.6508 26.5302L36.2257 18.9977H31.2427L24.2429 31.9568C24.2489 31.9584 27.6871 31.8512 29.8907 30.2035C30.448 29.8785 32.0184 25.7849 33.4572 23.0318L35.6963 28.5943C32.3121 30.3135 29.0982 31.8219 27.3673 32.3072C22.8008 33.6125 17.2387 34.3952 15.241 32.6398C13.3616 30.9845 17.7011 24.0533 25.9082 22.5113C27.239 22.2166 28.0157 22.2925 28.0157 22.3006C28.0157 22.2925 27.453 19.9304 27.0153 19.4327C26.4033 18.6895 25.8034 18.5368 24.9099 18.6495C23.1333 18.7545 15.5756 20.7537 12.5937 27.0019C10.9305 30.5518 13.1422 34.1374 14.5734 35.1751C15.2382 35.6578 19.5302 39.4757 29.454 35.6155C39.2333 31.8512 47.9929 25.9225 48 25.9225V21.9561C47.9962 21.9512 44.1344 24.1476 39.6508 26.5302Z" fill="white"/>
</svg>
