<svg width="130" height="60" viewBox="0 0 130 60" fill="none" xmlns="http://www.w3.org/2000/svg">
<rect width="130" height="60" fill="white"/>
<g clip-path="url(#clip0_307_88)">
<path fill-rule="evenodd" clip-rule="evenodd" d="M34.8926 24.6993C35.7258 24.6993 36.5902 24.9521 37.3 25.4572L36.7597 26.154C36.1812 25.756 35.6951 25.5339 34.962 25.5339C33.6888 25.5339 32.6932 26.3225 32.6932 27.4712C32.6932 28.6196 33.6888 29.4082 34.962 29.4082C35.7337 29.4082 36.2428 29.1708 36.8601 28.7574L37.4003 29.4542C36.6751 29.9672 35.7646 30.2431 34.8926 30.2431C33.141 30.2431 31.4897 29.2169 31.4897 27.4634C31.4897 25.71 33.141 24.6993 34.8926 24.6993Z" fill="#007859"/>
<path fill-rule="evenodd" clip-rule="evenodd" d="M41.4816 27.4481C42.2996 27.4481 42.8242 27.1111 42.8242 26.5292C42.8242 25.9627 42.3227 25.6486 41.474 25.6486H39.7994V27.4481H41.4816ZM38.6421 24.7911H41.5665C42.9245 24.7911 44.0279 25.3348 44.0279 26.5139C44.0279 27.4327 43.3487 27.915 42.4306 28.1217L44.1977 30.151H42.8473L41.2423 28.2827H39.7994V30.151H38.6421V24.7911Z" fill="#007859"/>
<mask id="mask0_307_88" style="mask-type:alpha" maskUnits="userSpaceOnUse" x="45" y="23" width="6" height="8">
<path fill-rule="evenodd" clip-rule="evenodd" d="M45.4004 23.26H50.4005V30.1512H45.4004V23.26Z" fill="white"/>
</mask>
<g mask="url(#mask0_307_88)">
<path fill-rule="evenodd" clip-rule="evenodd" d="M49.1274 23.2596L48.2323 24.2014H47.2444L47.9236 23.2596H49.1274ZM45.4004 28.6042V24.791H50.2925V25.6485H46.5577V26.9425H49.9839V27.7772H46.5577V28.6042C46.5577 29.0712 46.7815 29.2932 47.2369 29.2932H50.4005V30.151H46.9591C45.9713 30.151 45.4004 29.5766 45.4004 28.6042Z" fill="#007859"/>
</g>
<path fill-rule="evenodd" clip-rule="evenodd" d="M54.3892 29.2936C55.7009 29.2936 56.5805 28.5661 56.5805 27.479C56.5805 26.3839 55.7009 25.6489 54.3892 25.6489H53.0312V29.2936H54.3892ZM51.8735 24.7914H54.3122C56.3955 24.7914 57.7842 25.8634 57.7842 27.4712C57.7842 29.0791 56.3955 30.1513 54.3122 30.1513H51.8735V24.7914Z" fill="#007859"/>
<mask id="mask1_307_88" style="mask-type:alpha" maskUnits="userSpaceOnUse" x="10" y="23" width="109" height="13">
<path fill-rule="evenodd" clip-rule="evenodd" d="M10 35.8396H118.804V23.26H10V35.8396Z" fill="white"/>
</mask>
<g mask="url(#mask1_307_88)">
<path fill-rule="evenodd" clip-rule="evenodd" d="M59.103 30.151H60.2601V24.7911H59.103V30.151Z" fill="#007859"/>
<path fill-rule="evenodd" clip-rule="evenodd" d="M61.5024 25.6489V24.7914H66.8113V25.6489H64.7356V30.1513H63.5781V25.6489H61.5024Z" fill="#007859"/>
<path fill-rule="evenodd" clip-rule="evenodd" d="M73.6777 28.0224L72.6129 25.8938L71.5476 28.0224H73.6777ZM74.1021 28.857H71.1237L70.4753 30.1513H69.2944L72.0958 24.7911H73.2762L76.0771 30.1513H74.75L74.1021 28.857Z" fill="#007859"/>
<path fill-rule="evenodd" clip-rule="evenodd" d="M79.912 24.6993C80.7454 24.6993 81.6094 24.9521 82.3193 25.4572L81.7795 26.154C81.2005 25.756 80.7146 25.5339 79.9819 25.5339C78.7084 25.5339 77.7129 26.3072 77.7129 27.4559C77.7129 28.589 78.6003 29.4082 79.9428 29.4082C80.5371 29.4082 81.0849 29.2475 81.4706 28.9948V27.9689H79.8426V27.1496H82.6282V29.4007C81.9802 29.8601 81.0621 30.2431 79.8967 30.2431C77.8597 30.2431 76.5093 29.0484 76.5093 27.4634C76.5093 25.71 78.1606 24.6993 79.912 24.6993Z" fill="#007859"/>
<path fill-rule="evenodd" clip-rule="evenodd" d="M87.0178 27.4481C87.8358 27.4481 88.3603 27.1111 88.3603 26.5292C88.3603 25.9627 87.8591 25.6486 87.0104 25.6486H85.3358V27.4481H87.0178ZM84.1782 24.7911H87.1026C88.4609 24.7911 89.5639 25.3348 89.5639 26.5139C89.5639 27.4327 88.8853 27.915 87.9667 28.1217L89.734 30.151H88.3836L86.7784 28.2827H85.3358V30.151H84.1782V24.7911Z" fill="#007859"/>
<path fill-rule="evenodd" clip-rule="evenodd" d="M91.1294 30.151H92.2874V24.7911H91.1294V30.151Z" fill="#007859"/>
<path fill-rule="evenodd" clip-rule="evenodd" d="M97.0863 24.6993C97.9197 24.6993 98.7842 24.9521 99.4937 25.4572L98.9538 26.154C98.3748 25.756 97.8889 25.5339 97.1562 25.5339C95.8827 25.5339 94.8873 26.3225 94.8873 27.4712C94.8873 28.6196 95.8827 29.4082 97.1562 29.4082C97.9276 29.4082 98.4367 29.1708 99.0539 28.7574L99.5943 29.4542C98.869 29.9672 97.9583 30.2431 97.0863 30.2431C95.3349 30.2431 93.6836 29.2169 93.6836 27.4634C93.6836 25.71 95.3349 24.6993 97.0863 24.6993Z" fill="#007859"/>
<path fill-rule="evenodd" clip-rule="evenodd" d="M101.307 27.4712C101.307 28.5507 102.209 29.4085 103.521 29.4085C104.833 29.4085 105.736 28.5507 105.736 27.4712C105.736 26.3917 104.833 25.5339 103.521 25.5339C102.209 25.5339 101.307 26.3917 101.307 27.4712ZM100.103 27.4712C100.103 25.9551 101.522 24.6993 103.521 24.6993C105.519 24.6993 106.939 25.9551 106.939 27.4712C106.939 28.9873 105.519 30.2431 103.521 30.2431C101.522 30.2431 100.103 28.9873 100.103 27.4712Z" fill="#007859"/>
<path fill-rule="evenodd" clip-rule="evenodd" d="M108.104 24.7911H109.261V29.2933H112.695V30.151H108.104V24.7911Z" fill="#007859"/>
<path fill-rule="evenodd" clip-rule="evenodd" d="M113.512 28.6043V24.7911H118.404V25.6486H114.669V26.9426H118.096V27.7772H114.669V28.6043C114.669 29.0712 114.893 29.2933 115.348 29.2933H118.512V30.151H115.071C114.083 30.151 113.512 29.5767 113.512 28.6043Z" fill="#007859"/>
<path fill-rule="evenodd" clip-rule="evenodd" d="M33.5445 32.7429C34.0041 32.7429 34.4804 32.8836 34.8719 33.1651L34.574 33.5531C34.2548 33.3315 33.9868 33.2078 33.5828 33.2078C32.8808 33.2078 32.3321 33.6472 32.3321 34.2868C32.3321 34.9266 32.8808 35.366 33.5828 35.366C34.0083 35.366 34.2892 35.2337 34.6295 35.0033L34.9272 35.3918C34.5271 35.6775 34.0253 35.8309 33.5445 35.8309C32.5787 35.8309 31.6685 35.2594 31.6685 34.2826C31.6685 33.3058 32.5787 32.7429 33.5445 32.7429Z" fill="#5E6A71"/>
<path fill-rule="evenodd" clip-rule="evenodd" d="M35.8043 34.287C35.8043 34.8884 36.3019 35.366 37.0253 35.366C37.7485 35.366 38.2461 34.8884 38.2461 34.287C38.2461 33.6857 37.7485 33.208 37.0253 33.208C36.3019 33.208 35.8043 33.6857 35.8043 34.287ZM35.1406 34.287C35.1406 33.4426 35.9235 32.7432 37.0253 32.7432C38.1271 32.7432 38.91 33.4426 38.91 34.287C38.91 35.1315 38.1271 35.8309 37.0253 35.8309C35.9235 35.8309 35.1406 35.1315 35.1406 34.287Z" fill="#5E6A71"/>
<path fill-rule="evenodd" clip-rule="evenodd" d="M41.0079 34.2744C41.4588 34.2744 41.7482 34.0864 41.7482 33.7625C41.7482 33.4466 41.4717 33.2721 41.0037 33.2721H40.0804V34.2744H41.0079ZM39.4424 32.7942H41.0546C41.8034 32.7942 42.4118 33.0971 42.4118 33.7539C42.4118 34.2658 42.0374 34.5344 41.5312 34.6496L42.5054 35.7801H41.761L40.8762 34.7393H40.0804V35.7801H39.4424V32.7942Z" fill="#5E6A71"/>
<path fill-rule="evenodd" clip-rule="evenodd" d="M44.7306 34.4023C45.1857 34.4023 45.4794 34.1888 45.4794 33.8261C45.4794 33.4725 45.1985 33.2718 44.7264 33.2718H43.7606V34.4023H44.7306ZM43.1226 32.7939H44.7518C45.5174 32.7939 46.1429 33.1223 46.1429 33.8261C46.1429 34.5258 45.5261 34.8799 44.7518 34.8799H43.7606V35.78H43.1226V32.7939Z" fill="#5E6A71"/>
<path fill-rule="evenodd" clip-rule="evenodd" d="M47.0201 34.287C47.0201 34.8884 47.5177 35.366 48.2412 35.366C48.9643 35.366 49.4619 34.8884 49.4619 34.287C49.4619 33.6857 48.9643 33.208 48.2412 33.208C47.5177 33.208 47.0201 33.6857 47.0201 34.287ZM46.3564 34.287C46.3564 33.4426 47.1394 32.7432 48.2412 32.7432C49.343 32.7432 50.1256 33.4426 50.1256 34.287C50.1256 35.1315 49.343 35.8309 48.2412 35.8309C47.1394 35.8309 46.3564 35.1315 46.3564 34.287Z" fill="#5E6A71"/>
<path fill-rule="evenodd" clip-rule="evenodd" d="M52.2662 34.2744C52.7172 34.2744 53.0065 34.0864 53.0065 33.7625C53.0065 33.4466 52.73 33.2721 52.262 33.2721H51.3387V34.2744H52.2662ZM50.7007 32.7942H52.3131C53.0617 32.7942 53.6701 33.0971 53.6701 33.7539C53.6701 34.2658 53.2957 34.5344 52.7895 34.6496L53.7637 35.7801H53.0193L52.1345 34.7393H51.3387V35.7801H50.7007V32.7942Z" fill="#5E6A71"/>
<path fill-rule="evenodd" clip-rule="evenodd" d="M56.3509 34.5939L55.764 33.4081L55.1768 34.5939H56.3509ZM56.5851 35.0588H54.9428L54.5857 35.78H53.9346L55.4789 32.7939H56.1298L57.6742 35.78H56.9424L56.5851 35.0588Z" fill="#5E6A71"/>
<path fill-rule="evenodd" clip-rule="evenodd" d="M57.4189 33.2718V32.7939H60.3456V33.2718H59.2016V35.7798H58.5634V33.2718H57.4189Z" fill="#5E6A71"/>
<path fill-rule="evenodd" clip-rule="evenodd" d="M60.8569 34.9181V32.7939H63.5545V33.2718H61.4951V33.9923H63.3844V34.4577H61.4951V34.9181C61.4951 35.1784 61.6185 35.3022 61.8696 35.3022H63.6136V35.7798H61.7164C61.1718 35.7798 60.8569 35.46 60.8569 34.9181Z" fill="#5E6A71"/>
<path fill-rule="evenodd" clip-rule="evenodd" d="M66.7114 33.5021V33.4935C66.7114 33.2928 66.5712 33.1566 66.3713 33.1566C66.1585 33.1566 66.0183 33.3058 66.0183 33.5148V33.5234C66.0183 33.6727 66.0774 33.7837 66.2432 33.967C66.5498 33.856 66.7114 33.7153 66.7114 33.5021ZM66.7282 35.1271L66.0648 34.449C65.7886 34.5686 65.6689 34.7519 65.6689 34.9438V34.9524C65.6689 35.2041 65.8776 35.3874 66.1669 35.3874C66.3713 35.3874 66.5581 35.2893 66.7282 35.1271ZM67.0263 35.4344C66.771 35.6734 66.4734 35.8226 66.1114 35.8226C65.5585 35.8226 65.1416 35.4856 65.1416 34.9695V34.9607C65.1416 34.5772 65.3671 34.2998 65.7756 34.1248C65.6056 33.9074 65.5287 33.7195 65.5287 33.5021V33.4935C65.5287 33.0926 65.852 32.7429 66.3839 32.7429C66.8558 32.7429 67.1753 33.063 67.1753 33.4639V33.4725C67.1753 33.8648 66.9159 34.0993 66.5199 34.2486L67.0305 34.7691C67.1451 34.5983 67.2517 34.4022 67.3495 34.1929L67.7455 34.4022C67.6262 34.6412 67.4944 34.8757 67.3412 35.0845L67.8088 35.5623L67.4218 35.8395L67.0263 35.4344Z" fill="#5E6A71"/>
<path fill-rule="evenodd" clip-rule="evenodd" d="M69.4897 35.7798H70.1284V32.7939H69.4897V35.7798Z" fill="#5E6A71"/>
<path fill-rule="evenodd" clip-rule="evenodd" d="M71.6601 33.6514V35.78H71.0215V32.7939H71.6601L73.4852 34.9181V32.7939H74.1229V35.78H73.4852L71.6601 33.6514Z" fill="#5E6A71"/>
<path fill-rule="evenodd" clip-rule="evenodd" d="M78.1822 32.7942L76.7019 35.7801H76.0507L74.5703 32.7942H75.3021L76.4168 35.1529L77.5315 32.7942H78.1822Z" fill="#5E6A71"/>
<path fill-rule="evenodd" clip-rule="evenodd" d="M78.5229 34.9181V32.7939H81.2205V33.2718H79.1611V33.9923H81.05V34.4577H79.1611V34.9181C79.1611 35.1784 79.2845 35.3022 79.5356 35.3022H81.2796V35.7798H79.3824C78.8378 35.7798 78.5229 35.46 78.5229 34.9181Z" fill="#5E6A71"/>
<path fill-rule="evenodd" clip-rule="evenodd" d="M81.7485 35.3575L82.0462 34.9269C82.4333 35.2126 82.961 35.3447 83.4161 35.3447C83.8885 35.3447 84.2756 35.2041 84.2756 34.9823C84.2756 34.7519 83.8461 34.6622 83.3523 34.5556C82.6713 34.4105 81.8631 34.24 81.8631 33.6428C81.8631 33.0882 82.5525 32.7429 83.3393 32.7429C83.8796 32.7429 84.4456 32.8963 84.8541 33.1737L84.5564 33.6045C84.2201 33.3484 83.7692 33.2205 83.3523 33.2205C82.9266 33.2205 82.5181 33.3529 82.5181 33.5661C82.5181 33.7668 82.9098 33.8476 83.3775 33.9415C84.0711 34.0824 84.9305 34.2571 84.9305 34.9056C84.9305 35.494 84.2243 35.8309 83.4245 35.8309C82.8078 35.8309 82.1864 35.6476 81.7485 35.3575Z" fill="#5E6A71"/>
<path fill-rule="evenodd" clip-rule="evenodd" d="M85.2075 33.2718V32.7939H88.1342V33.2718H86.9902V35.7798H86.352V33.2718H85.2075Z" fill="#5E6A71"/>
<path fill-rule="evenodd" clip-rule="evenodd" d="M91.4659 32.7942H92.1465V35.7801H91.5088V33.5534L90.3256 35.2213L89.1774 33.6046V35.7801H88.624V32.7942H89.3046L90.3853 34.3129L91.4659 32.7942Z" fill="#5E6A71"/>
<path fill-rule="evenodd" clip-rule="evenodd" d="M92.8916 34.9181V32.7939H95.5891V33.2718H93.5298V33.9923H95.4186V34.4577H93.5298V34.9181C93.5298 35.1784 93.6532 35.3022 93.9043 35.3022H95.6483V35.7798H93.751C93.2065 35.7798 92.8916 35.46 92.8916 34.9181Z" fill="#5E6A71"/>
<path fill-rule="evenodd" clip-rule="evenodd" d="M96.9892 33.6514V35.78H96.3506V32.7939H96.9892L98.8138 34.9181V32.7939H99.452V35.78H98.8138L96.9892 33.6514Z" fill="#5E6A71"/>
<path fill-rule="evenodd" clip-rule="evenodd" d="M99.9424 33.2718V32.7939H102.87V33.2718H101.725V35.7798H101.087V33.2718H99.9424Z" fill="#5E6A71"/>
<path fill-rule="evenodd" clip-rule="evenodd" d="M106.975 34.8968C106.975 34.6451 106.746 34.5045 106.371 34.5045H105.188V35.3022H106.367C106.746 35.3022 106.975 35.1527 106.975 34.8968ZM105.188 33.2718V34.0396H106.243C106.618 34.0396 106.856 33.8987 106.856 33.6514C106.856 33.4125 106.626 33.2718 106.239 33.2718H105.188ZM107.652 34.9439C107.652 35.4896 107.107 35.7798 106.418 35.7798H104.55V32.7939H106.291C106.971 32.7939 107.516 33.0714 107.516 33.6088C107.516 33.9117 107.337 34.1246 107.056 34.2486C107.413 34.3552 107.652 34.5812 107.652 34.9439Z" fill="#5E6A71"/>
<path fill-rule="evenodd" clip-rule="evenodd" d="M110.154 34.5939L109.567 33.4081L108.98 34.5939H110.154ZM110.388 35.0588H108.746L108.389 35.78H107.738L109.282 32.7939H109.933L111.477 35.78H110.746L110.388 35.0588Z" fill="#5E6A71"/>
<path fill-rule="evenodd" clip-rule="evenodd" d="M112.392 33.6514V35.78H111.754V32.7939H112.392L114.217 34.9181V32.7939H114.855V35.78H114.217L112.392 33.6514Z" fill="#5E6A71"/>
<path fill-rule="evenodd" clip-rule="evenodd" d="M116.817 34.3893L116.303 34.8375V35.78H115.665V32.7939H116.303V34.2317L117.898 32.7939H118.642L117.259 34.0014L118.804 35.78H118.021L116.817 34.3893Z" fill="#5E6A71"/>
<path fill-rule="evenodd" clip-rule="evenodd" d="M22.1782 31.4671L24.158 30.4149L25.6298 33.4496H23.4403C23.4403 33.4512 23.019 33.4512 22.8505 33.0744C22.6936 32.6577 22.1819 31.4676 22.1782 31.4671Z" fill="#5E6A71"/>
<path fill-rule="evenodd" clip-rule="evenodd" d="M10.1763 35.8327H26.0994V34.4186H10.1763V35.8327Z" fill="#5E6A71"/>
<path fill-rule="evenodd" clip-rule="evenodd" d="M27.2811 25.4685C27.2777 25.468 24.7757 26.8946 24.1895 27.1115C23.6508 27.3228 23.4486 27.0436 23.3839 26.9458C23.2392 26.7264 23.0018 26.0028 22.9683 25.8939C22.9827 25.897 23.121 25.924 23.4412 25.8434C23.8222 25.7475 27.2777 23.8303 27.2811 23.8313V25.4685Z" fill="#007859"/>
<path fill-rule="evenodd" clip-rule="evenodd" d="M23.2733 28.4063L21.6291 24.7904H19.2371L15.877 31.0112C15.8799 31.012 17.5303 30.9605 18.5881 30.1696C18.8556 30.0136 19.6095 28.0485 20.3001 26.7269L21.3749 29.3971C19.7504 30.2224 18.2077 30.9465 17.3768 31.1794C15.1847 31.806 12.5148 32.1817 11.5558 31.3391C10.6536 30.5445 12.7367 27.2173 16.6764 26.4771C17.3152 26.3356 17.688 26.372 17.688 26.3759C17.688 26.372 17.4179 25.2382 17.2078 24.9992C16.914 24.6425 16.6261 24.5692 16.1972 24.6233C15.3443 24.6737 11.7164 25.6334 10.285 28.6327C9.4866 30.3368 10.5483 32.058 11.2353 32.5561C11.5545 32.7878 13.6147 34.6205 18.3785 32.7675C23.0728 30.9605 27.2777 28.1146 27.2811 28.1146V26.2106C27.2793 26.2082 25.4255 27.2625 23.2733 28.4063Z" fill="#5E6A71"/>
</g>
</g>
<defs>
<clipPath id="clip0_307_88">
<rect width="109" height="13" fill="white" transform="translate(10 23)"/>
</clipPath>
</defs>
</svg>
