<svg width="130" height="60" viewBox="0 0 130 60" fill="none" xmlns="http://www.w3.org/2000/svg">
<rect width="130" height="60" fill="white"/>
<g clip-path="url(#clip0_68_225)">
<path d="M70.0884 19.6769H75.8508L72.951 40.3587H67.1886L70.0884 19.6769ZM62.8229 19.6769L58.9343 31.5909L57.2379 19.6769H53.2074L48.1155 31.5555L47.4796 19.6778H41.8937L43.8385 40.3595H48.4702L54.1971 27.2794L56.2119 40.3595H60.7727L68.3033 19.6769H62.8229ZM111.205 31.6973H97.5222C97.5932 34.3843 99.2018 36.1517 101.57 36.1517C103.356 36.1517 104.77 35.1966 105.866 33.376L110.484 35.476C108.897 38.6037 105.552 40.6415 101.429 40.6415C95.8081 40.6415 92.0782 36.8585 92.0782 30.7777C92.0782 24.0958 96.4616 19.3585 102.649 19.3585C108.094 19.3585 111.523 23.0352 111.523 28.763C111.523 29.7171 111.416 30.6713 111.205 31.6973ZM106.079 27.7369C106.079 25.3337 104.735 23.8129 102.579 23.8129C100.351 23.8129 98.5128 25.4038 98.0171 27.7369H106.079ZM23.8812 25.9093L18 32.7837H28.5032L29.6826 29.5424H25.183L27.9321 26.3624L27.9409 26.2782L26.1532 23.2001H34.1982L27.9622 40.3595H32.2295L39.7601 19.676H20.3057L23.8821 25.9084L23.8812 25.9093ZM85.2189 23.8129C87.2514 23.8129 89.0321 24.9063 90.5884 26.7801L91.4051 20.9494C89.957 19.9686 87.9945 19.3585 85.3962 19.3585C80.2351 19.3585 77.3353 22.3816 77.3353 26.217C77.3353 28.8774 78.8207 30.5037 81.2602 31.5555L82.4264 32.0858C84.6008 33.0142 85.1843 33.4736 85.1843 34.4544C85.1843 35.4707 84.2035 36.1162 82.7101 36.1162C80.2431 36.1251 78.246 34.8614 76.7438 32.7047L75.9102 38.6454C77.6226 39.9498 79.8165 40.6415 82.7092 40.6415C87.615 40.6415 90.6283 37.8127 90.6283 33.8886C90.6283 31.2194 89.4444 29.5052 86.4568 28.1617L85.1843 27.5605C83.416 26.7739 82.8157 26.3411 82.8157 25.4747C82.8157 24.5383 83.6377 23.8129 85.2189 23.8129Z" fill="#163300"/>
</g>
<defs>
<clipPath id="clip0_68_225">
<rect width="94" height="21.283" fill="white" transform="translate(18 19.3585)"/>
</clipPath>
</defs>
</svg>
