<svg width="60" height="60" viewBox="0 0 60 60" fill="none" xmlns="http://www.w3.org/2000/svg">
<rect width="60" height="60" fill="#67BD50"/>
<path fill-rule="evenodd" clip-rule="evenodd" d="M33.6072 46.9999H39.0674L39.0776 38.9239L33.6072 38.7126V46.9999Z" fill="white"/>
<path fill-rule="evenodd" clip-rule="evenodd" d="M31.918 24.2218L36.4477 15.8056L32.329 13.6987L29.1912 19.3385L31.918 24.2218Z" fill="white"/>
<path fill-rule="evenodd" clip-rule="evenodd" d="M32.4858 13.4194L30.29 17.3574C30.7823 16.4744 32.098 15.7826 33.3942 17.8027L42.779 34.0788L48.142 34.0719L37.1795 14.4405C35.8889 11.8568 33.5043 11.5927 32.4858 13.4194Z" fill="white"/>
<path fill-rule="evenodd" clip-rule="evenodd" d="M48.8154 35.2595L46.6196 31.3214C47.1118 32.2042 47.0325 33.7301 44.6949 33.8826L12.855 34.2592L13.461 38.9807L45.6145 38.958C48.4206 39.0923 49.8341 37.0862 48.8154 35.2595Z" fill="white"/>
<path fill-rule="evenodd" clip-rule="evenodd" d="M13.0915 38.9808H17.4831C16.4983 38.9808 15.2619 38.1467 16.3034 35.9744L27.1585 15.8056L23.0398 13.6987L11.5987 34.2612C10.0832 36.7105 11.0544 38.9808 13.0915 38.9808Z" fill="white"/>
<path fill-rule="evenodd" clip-rule="evenodd" d="M23.196 13.4194L21.0005 17.3574C21.4925 16.4744 22.8085 15.7826 24.1047 17.8027L33.4892 34.0788L38.8522 34.0719L27.89 14.4405C26.5991 11.8568 24.2147 11.5927 23.1963 13.4194H23.196Z" fill="white"/>
<path fill-rule="evenodd" clip-rule="evenodd" d="M18.5652 47H24.0257L24.0359 38.9241L29.9895 28.0059L27.1727 23.121L18.5652 38.7128V47Z" fill="white"/>
</svg>
