<svg width="130" height="60" viewBox="0 0 130 60" fill="none" xmlns="http://www.w3.org/2000/svg">
<rect width="130" height="60" fill="white"/>
<path d="M22.9846 38.6227L24.4482 36.734C23.0058 35.2625 20.9059 34.3619 18.8059 34.3619C14.4151 34.3619 11 37.7222 11 42.0929C11 46.5078 14.3727 49.9122 18.721 49.9122C20.8209 49.9122 22.9633 48.9238 24.4694 47.3863L22.9845 45.6732C21.8603 46.7933 20.333 47.4962 18.8483 47.4962C15.8786 47.4962 13.5454 45.1022 13.5454 42.0712C13.5454 39.0401 15.8786 36.6681 18.8483 36.6681C20.3543 36.6681 21.9028 37.4147 22.9846 38.6227Z" fill="#67BD50"/>
<path d="M27.879 40.4461V38.1177H25.4397V49.8024H27.879V43.6967C28.0699 41.6978 29.5123 40.3142 31.7819 40.4461V38.03C30.0002 38.03 28.6426 38.8646 27.879 40.4461Z" fill="#67BD50"/>
<path d="M37.0157 38.03C33.6642 38.052 31.3098 40.4461 31.3098 43.9822C31.3098 47.4963 33.6006 49.8904 37.0793 49.8904C39.0309 49.8904 40.6429 49.1655 41.746 47.9135L40.452 46.4859C39.6247 47.3646 38.5007 47.8478 37.2702 47.8478C35.4885 47.8478 34.1521 46.7277 33.7703 44.9266H42.2974C42.5944 40.7096 40.9822 38.03 37.0157 38.03ZM33.7281 43.0817C33.9824 41.2147 35.2551 40.0504 37.0368 40.0504C38.8825 40.0504 40.0915 41.1927 40.1763 43.0817H33.7281Z" fill="#67BD50"/>
<path d="M52.3608 33.5055V40.1386C51.5335 38.7767 50.1761 38.0079 48.3518 38.0079C45.1701 38.0079 42.9854 40.4021 42.9854 43.9162C42.9854 47.4743 45.1489 49.9123 48.3943 49.9123C50.1972 49.9123 51.5549 49.1655 52.3608 47.8038V49.8024H54.8003V33.5055H52.3608ZM48.9034 47.8038C46.8457 47.8038 45.446 46.2224 45.4246 44.0042C45.446 41.7638 46.8671 40.1603 48.9034 40.1603C50.9397 40.1603 52.3608 41.7418 52.3608 44.0042C52.3608 46.2224 50.9397 47.8038 48.9034 47.8038Z" fill="#67BD50"/>
<path d="M57.2868 33.2637C56.4809 33.2637 55.8657 33.9006 55.8657 34.7792C55.8657 35.6357 56.4809 36.2727 57.2868 36.2727C58.0929 36.2727 58.7081 35.6357 58.7081 34.7792C58.7081 33.9006 58.0929 33.2637 57.2868 33.2637ZM56.0778 38.1177V49.8024H58.4959V38.1177H56.0778Z" fill="#67BD50"/>
<path d="M66.6106 34.2083C62.8987 34.2083 60.4594 36.097 60.4594 39.0623C60.4594 44.4873 68.2228 43.0158 68.2228 45.3439C68.2228 46.0468 67.6288 46.3763 66.6956 46.3763C65.1684 46.3763 62.6866 45.3659 61.1594 44.026L59.5049 47.4964C61.3714 49.0119 64.1291 49.9344 66.6531 49.9344C69.9835 49.9344 72.7834 48.3749 72.7834 45.1023C72.7834 39.5454 65.02 40.8853 65.02 38.6229C65.02 38.0519 65.5077 37.7883 66.2502 37.7883C67.5015 37.7883 69.6651 38.6011 71.1925 39.5016L72.8257 35.9873C71.2137 34.9112 68.8803 34.2083 66.6106 34.2083Z" fill="#007141"/>
<path d="M79.4931 37.7003C75.8445 37.7003 73.4053 40.1383 73.4053 43.8723C73.4053 47.54 75.7598 49.9561 79.6203 49.9561C81.805 49.9561 83.5445 49.1874 84.7536 47.8038L82.5262 45.5414C81.7628 46.2663 80.893 46.6835 79.9808 46.6835C78.8779 46.6835 78.072 46.0465 77.7324 44.9044H85.4959C85.7504 40.5118 83.5445 37.7003 79.4931 37.7003ZM77.6477 42.73C77.8597 41.522 78.5385 40.7094 79.5355 40.7094C80.5748 40.7094 81.296 41.5439 81.2748 42.73H77.6477Z" fill="#007141"/>
<path d="M92.1248 37.6782C90.3217 37.6782 88.4551 38.1176 86.5672 38.9082L87.6279 41.8513C88.9006 41.2803 90.1944 40.9948 91.1066 40.9948C92.4216 40.9948 93.1004 41.5878 93.1004 42.5762V42.6202H90.2794C87.3733 42.6641 85.825 43.9379 85.825 46.2442C85.825 48.4844 87.2672 49.9999 89.7278 49.9999C91.255 49.9999 92.4005 49.4508 93.1004 48.4844V49.8023H97.3003V42.0491C97.3003 39.2816 95.3701 37.6782 92.1248 37.6782ZM91.1489 47.1008C90.3217 47.1008 89.8551 46.6614 89.8551 45.9147C89.8551 45.1679 90.3005 44.7944 91.1489 44.7944H93.1004V45.8708C92.7823 46.6174 92.0187 47.1008 91.1489 47.1008Z" fill="#007141"/>
<path d="M102.831 37.8577H98.5459V49.8024H102.831V44.0919C102.831 42.3603 104.252 41.3939 106.458 41.6796V37.6821C104.888 37.6821 103.637 38.4288 102.831 39.7467V37.8577Z" fill="#007141"/>
<path d="M112.998 37.6782C111.195 37.6782 109.329 38.1176 107.441 38.9082L108.502 41.8513C109.774 41.2803 111.068 40.9948 111.98 40.9948C113.295 40.9948 113.974 41.5878 113.974 42.5762V42.6202H111.153C108.247 42.6641 106.699 43.9379 106.699 46.2442C106.699 48.4844 108.141 49.9999 110.602 49.9999C112.129 49.9999 113.274 49.4508 113.974 48.4844V49.8023H118.174V42.0491C118.174 39.2816 116.244 37.6782 112.999 37.6782H112.998ZM112.023 47.1008C111.195 47.1008 110.729 46.6614 110.729 45.9147C110.729 45.1679 111.174 44.7944 112.023 44.7944H113.974V45.8708C113.656 46.6174 112.892 47.1008 112.023 47.1008Z" fill="#007141"/>
<path fill-rule="evenodd" clip-rule="evenodd" d="M98.395 36.2407H102.674L102.682 29.9116L98.395 29.746V36.2407Z" fill="#007141"/>
<path fill-rule="evenodd" clip-rule="evenodd" d="M97.0713 18.3895L100.621 11.7937L97.3935 10.1426L94.9343 14.5625L97.0713 18.3895Z" fill="#67BD50"/>
<path fill-rule="evenodd" clip-rule="evenodd" d="M97.5163 9.9236L95.7954 13.0099C96.1812 12.3179 97.2123 11.7757 98.2282 13.3588L105.583 26.1144L109.786 26.109L101.195 10.7239C100.183 8.69905 98.3144 8.49203 97.5163 9.9236Z" fill="#007141"/>
<path fill-rule="evenodd" clip-rule="evenodd" d="M110.314 27.0398L108.593 23.9535C108.979 24.6453 108.917 25.8412 107.085 25.9607L82.1318 26.2558L82.6068 29.9561L107.805 29.9383C110.005 30.0436 111.112 28.4713 110.314 27.0398Z" fill="#F58634"/>
<path fill-rule="evenodd" clip-rule="evenodd" d="M82.317 29.9562H85.7587C84.9869 29.9562 84.0179 29.3025 84.8341 27.6L93.3412 11.7937L90.1135 10.1426L81.147 26.2574C79.9593 28.1769 80.7204 29.9562 82.317 29.9562Z" fill="#67BD50"/>
<path fill-rule="evenodd" clip-rule="evenodd" d="M90.2358 9.9236L88.5151 13.0099C88.9007 12.3179 89.9321 11.7757 90.9479 13.3588L98.3025 26.1144L102.506 26.109L93.9145 10.7239C92.9028 8.69905 91.0341 8.49203 90.236 9.9236H90.2358Z" fill="#007141"/>
<path fill-rule="evenodd" clip-rule="evenodd" d="M86.6067 36.2408H90.8861L90.8941 29.9116L95.5599 21.3551L93.3524 17.5267L86.6067 29.746V36.2408Z" fill="#67BD50"/>
</svg>
