<svg width="130" height="60" viewBox="0 0 130 60" fill="none" xmlns="http://www.w3.org/2000/svg">
<rect width="130" height="60" fill="white"/>
<g clip-path="url(#clip0_43_12)">
<path d="M37.0622 24.1012V33.441L29.3714 24.1012H27.3518V36.8492H29.4428V27.5094L37.1336 36.8492H39.2654V24.1012H37.0622ZM41.6624 24.1012H44.3654V36.8492H41.6624V24.1012Z" fill="#004A35"/>
<path d="M115.939 31.3398L110.645 22.372L110.614 22.3016C110.461 22.1106 110.267 22 110.043 22H103.117C102.964 22.0402 102.852 22.1508 102.699 22.3016L94.2127 31.2694C94.2127 31.2694 94.1719 31.2694 94.1719 31.3097L94.1311 31.3499C94.0903 31.3901 94.0903 31.4605 94.0903 31.5409C94.0903 31.7319 94.2433 31.8425 94.3963 31.8827H98.4253C98.4967 31.8827 98.5375 31.9229 98.5375 31.9933C98.5375 32.0335 98.5375 32.0335 98.4967 32.0637L94.4269 36.3365L94.3861 36.3767C94.3453 36.4169 94.3453 36.4471 94.3147 36.4873V36.5576C94.3147 36.628 94.3555 36.7084 94.4269 36.7788C94.4677 36.819 94.5391 36.819 94.6207 36.8492H97.3951C97.5481 36.8492 97.7419 36.7788 97.8541 36.6582L102.158 32.124C102.199 32.0838 102.199 32.0838 102.199 32.0536C102.199 31.9832 102.158 31.943 102.087 31.943H99.7615C99.6901 31.943 99.6493 31.8727 99.6493 31.8324C99.6493 31.7922 99.6493 31.7922 99.6901 31.7621L104.219 26.9966L104.26 26.9564C104.331 26.8861 104.413 26.8458 104.484 26.8458C104.596 26.8458 104.678 26.8861 104.749 26.9966L107.299 31.3499L107.564 31.8023V31.8727C107.564 31.943 107.524 31.9832 107.452 31.9832H105.096C105.025 31.9832 104.943 32.0536 104.943 32.134C104.943 32.1743 104.943 32.2044 104.984 32.2446L107.534 36.5979V36.6381C107.646 36.8291 107.84 36.9397 108.023 36.9397H113.389C113.46 36.9397 113.501 36.9397 113.582 36.8995C113.735 36.8291 113.807 36.7084 113.807 36.5576C113.807 36.5174 113.807 36.4471 113.766 36.4068L113.725 36.3365L111.257 32.134V32.0938C111.257 32.0235 111.298 31.9832 111.369 31.9832H115.786C115.786 31.9832 115.826 31.9832 115.826 31.943L115.867 31.9028C115.867 31.9028 115.867 31.8626 115.908 31.8626C115.908 31.8626 115.908 31.8224 115.949 31.8224C115.949 31.8224 115.949 31.7822 115.99 31.7822V31.752C116.01 31.6012 116.01 31.4906 115.939 31.3398ZM107.758 26.5744H101.332C101.261 26.5744 101.22 26.504 101.22 26.4638C101.22 26.4236 101.22 26.3934 101.261 26.3934L105.065 22.382C105.106 22.3418 105.137 22.3418 105.178 22.3117C105.218 22.2714 105.29 22.2413 105.371 22.2413H105.412C105.484 22.2413 105.606 22.3117 105.637 22.3921L107.942 26.3532C107.942 26.3934 107.983 26.3934 107.983 26.4236C107.911 26.504 107.83 26.5744 107.758 26.5744ZM79.2187 24.1012H72.0991L69.7021 36.8492H77.5051L77.8825 34.6776H73.6189L74.2615 31.2694H77.7193L78.1375 29.0979H74.6899L75.2203 26.2828H78.8005L79.2187 24.1012ZM85.9507 24.1012H81.4219L78.9841 36.8492H83.4007C87.6643 36.8492 91.3159 34.0342 91.3159 29.4598C91.3159 26.2728 89.4493 24.1012 85.9507 24.1012ZM83.8597 34.6776H82.9417L84.5431 26.2728H85.4917C86.8993 26.2728 87.7357 27.8512 87.7357 29.5C87.7051 32.878 85.4917 34.6776 83.8597 34.6776ZM52.5865 34.6776C51.1789 34.6776 50.3425 33.0992 50.3425 31.4504C50.3425 28.0724 52.5865 26.2728 54.1879 26.2728H58.5637L58.9819 24.1012H54.6469C50.3833 24.1012 46.7317 26.9162 46.7317 31.4906C46.7317 34.6374 48.5983 36.8492 52.0969 36.8492H56.6257L57.0439 34.6776H52.5865ZM66.6217 31.189C67.8355 30.5858 69.3655 29.5804 69.3655 27.3586C69.3655 26.0114 68.4475 24.1314 65.7139 24.1314H60.5017L58.0639 36.8894H61.5625L62.4805 32.0536H63.4699L64.8061 36.8894H68.6515L66.6217 31.189ZM63.9595 29.8418H62.8987L63.6229 26.2426H64.5409C65.3059 26.2426 65.9077 26.9966 65.9077 27.7406C65.8975 28.937 64.9081 29.8418 63.9595 29.8418Z" fill="#B9A557"/>
<path d="M22.2926 24.1012V31.0784C22.2212 33.9336 21.6806 35.5824 19.5182 35.5824H19.4774C17.3048 35.5824 16.7336 33.9336 16.703 31.0784V24.1012H14V31.9028C14 34.6776 15.0302 36.3264 17.4272 36.8492C17.4272 36.8492 18.1106 37 19.2938 37H19.6712C20.8544 37 21.4256 36.8492 21.4256 36.8492C23.9348 36.3666 24.965 34.6374 24.965 31.9028V24.1012H22.2926Z" fill="#004A35"/>
</g>
<defs>
<clipPath id="clip0_43_12">
<rect width="102" height="15" fill="white" transform="translate(14 22)"/>
</clipPath>
</defs>
</svg>
