<svg width="60" height="60" viewBox="0 0 60 60" fill="none" xmlns="http://www.w3.org/2000/svg">
<rect width="60" height="60" fill="#3366FF"/>
<path d="M34.8761 8H24.1256C15.2193 8.00102 8 15.2208 8 24.1267V34.8767C8.00102 43.781 15.2193 50.999 24.1239 51H34.8744C43.7803 51 51 43.7806 51 34.875C51 34.8745 51 34.8738 51 34.8733V24.1233C50.9981 15.2194 43.7803 8.00188 34.8761 8ZM42.1266 34.1071C39.5825 41.0808 31.8666 44.6718 24.8927 42.1278C21.1665 40.7687 18.231 37.8331 16.8717 34.1071C16.6643 33.5488 16.9488 32.9281 17.5071 32.7207C17.5377 32.7093 17.5687 32.6994 17.6003 32.6909L22.037 31.4964C22.5527 31.3575 23.0919 31.6195 23.3014 32.1107C24.7437 35.5302 28.6848 37.1332 32.1045 35.691C33.7191 35.01 35.0039 33.7253 35.6849 32.1107C35.8939 31.6189 36.4337 31.3567 36.9494 31.4964L41.386 32.6909C41.9625 32.8409 42.3082 33.4296 42.1584 34.006C42.1495 34.0403 42.1389 34.074 42.1266 34.1071Z" fill="white"/>
</svg>
