<svg width="130" height="60" viewBox="0 0 130 60" fill="none" xmlns="http://www.w3.org/2000/svg">
<rect width="130" height="60" fill="white"/>
<path d="M20.6807 21H16.4084C12.869 21.0004 10 23.8691 10 27.4077V31.6791C10.0004 35.2171 12.869 38.085 16.4077 38.0855H20.68C24.2193 38.0855 27.0884 35.2169 27.0884 31.6784C27.0884 31.6782 27.0884 31.6779 27.0884 31.6777V27.4064C27.0877 23.8685 24.2193 21.0007 20.6807 21ZM23.5621 31.3733C22.551 34.1442 19.4847 35.571 16.7132 34.5602C15.2324 34.0202 14.0658 32.8538 13.5256 31.3733C13.4432 31.1515 13.5563 30.9048 13.7782 30.8224C13.7903 30.8179 13.8027 30.814 13.8152 30.8106L15.5784 30.336C15.7833 30.2808 15.9976 30.3849 16.0809 30.5801C16.654 31.9388 18.2203 32.5757 19.5792 32.0026C20.2209 31.732 20.7315 31.2216 21.0021 30.5801C21.0852 30.3847 21.2997 30.2805 21.5046 30.336L23.2678 30.8106C23.4968 30.8702 23.6342 31.1041 23.5747 31.3331C23.5712 31.3467 23.567 31.3602 23.5621 31.3733Z" fill="#3366FF"/>
<mask id="mask0_48_25" style="mask-type:luminance" maskUnits="userSpaceOnUse" x="13" y="30" width="11" height="5">
<path fill-rule="evenodd" clip-rule="evenodd" d="M18.5398 32.2201C17.4681 32.2205 16.5001 31.5796 16.0822 30.5929C15.9994 30.3976 15.7852 30.2934 15.5804 30.3488L13.8172 30.8234C13.5891 30.8851 13.4542 31.12 13.5159 31.3481C13.5193 31.3605 13.5232 31.3727 13.5277 31.3848C14.5369 34.152 17.5988 35.5772 20.3666 34.5681C21.8458 34.0288 23.0112 32.8637 23.5505 31.3848C23.6325 31.1632 23.5193 30.9171 23.2977 30.8351C23.2856 30.8307 23.2734 30.8267 23.261 30.8234L21.4978 30.3488C21.2929 30.2936 21.0786 30.3977 20.9953 30.5929C20.5777 31.5795 19.61 32.2203 18.5384 32.2201" fill="white"/>
</mask>
<g mask="url(#mask0_48_25)">
<mask id="mask1_48_25" style="mask-type:luminance" maskUnits="userSpaceOnUse" x="-163" y="-77" width="304" height="184">
<path d="M140.09 -76.3376H-162.069V106.47H140.09V-76.3376Z" fill="white"/>
</mask>
<g mask="url(#mask1_48_25)">
<path d="M23.9201 29.9888H13.1587V35.229H23.9201V29.9888Z" fill="white"/>
</g>
</g>
<path d="M35.0341 25.226C35.7918 25.226 36.4494 25.3521 37.0068 25.6043C37.5317 25.8295 37.9795 26.203 38.2953 26.6789C38.5964 27.1435 38.7469 27.693 38.7469 28.3271C38.7469 28.9544 38.5964 29.5021 38.2953 29.9699C37.9816 30.4477 37.5332 30.8217 37.0068 31.0445C36.4485 31.2926 35.7909 31.4167 35.0341 31.4167H33.3123V33.7734H31.3335V25.226H35.0341ZM34.792 26.8409H33.3076V29.8051H34.6862C34.7208 29.8051 34.754 29.8051 34.7913 29.8051H35.266C36.0857 29.7876 36.7359 29.1091 36.7184 28.2896C36.7014 27.4948 36.061 26.8546 35.266 26.8375L34.792 26.8409Z" fill="black"/>
<path d="M46.7562 27.2043V33.7734H44.9361V33.0161C44.4641 33.5861 43.7803 33.871 42.8847 33.871C42.2985 33.8792 41.7199 33.7363 41.205 33.4561C40.7073 33.1816 40.2983 32.7707 40.0263 32.2717C39.7415 31.7582 39.5991 31.1638 39.5991 30.4885C39.5991 29.8133 39.7415 29.2191 40.0263 28.7061C40.2979 28.2068 40.707 27.7957 41.205 27.5216C41.7199 27.2412 42.2984 27.0981 42.8847 27.106C43.7229 27.106 44.3784 27.3706 44.8513 27.9V27.2043H46.7562ZM43.1207 28.6661C42.1125 28.6661 41.2951 29.4832 41.2951 30.4912C41.2951 31.4993 42.1125 32.3164 43.1207 32.3164C44.1289 32.3164 44.9462 31.4993 44.9462 30.4912C44.9462 29.4832 44.1289 28.6661 43.1207 28.6661Z" fill="black"/>
<path d="M50.1689 28.0709C50.4024 27.7491 50.7218 27.4996 51.0905 27.3508C51.5157 27.1807 51.9706 27.0975 52.4285 27.1061V28.8648C52.216 28.8485 52.0734 28.8404 52.0006 28.8404C51.4554 28.8404 51.0279 28.9929 50.7182 29.298C50.4085 29.6031 50.2537 30.061 50.2537 30.6716V33.7735H48.3481V27.2044H50.1683L50.1689 28.0709Z" fill="black"/>
<path d="M66.8253 30.9245C66.8253 30.9041 66.8253 30.8831 66.8253 30.8621V30.1204C66.8079 29.317 66.1424 28.6798 65.3389 28.6971C64.5598 28.714 63.9322 29.3414 63.9154 30.1204V30.8621C63.9154 30.8845 63.9154 30.9069 63.9154 30.9299V33.7734H62.0132V27.2043H63.8326V27.9732C64.0934 27.6909 64.415 27.4718 64.7732 27.3325C65.166 27.1784 65.5848 27.1015 66.0067 27.106C66.8205 27.106 67.4778 27.3503 67.9788 27.8389C68.4797 28.3276 68.7301 29.0521 68.7301 30.0126V33.7734H66.8253V30.9245Z" fill="black"/>
<path d="M73.5774 24.6639H76.8948L74.8781 25.8979H72.3818L73.5774 24.6639Z" fill="black"/>
<path d="M85.7663 29.3285C86.2207 29.4601 86.6228 29.7314 86.9144 30.1041C87.1911 30.4657 87.3294 30.9114 87.3294 31.4411C87.3294 32.1905 87.0385 32.7664 86.4566 33.1687C85.8748 33.5709 85.0258 33.7725 83.9102 33.7734H79.4888V25.226H83.6661C84.7057 25.226 85.5059 25.4253 86.0654 25.8239C86.6248 26.2226 86.9042 26.765 86.9022 27.4511C86.9191 28.2447 86.477 28.977 85.7663 29.3312V29.3285ZM82.579 30.1672H81.5042V32.3164H84.2622C84.8556 32.3164 85.337 31.8353 85.337 31.2418C85.337 30.6483 84.8556 30.1672 84.2622 30.1672H82.579ZM82.4502 26.8409H81.5008V28.7325H83.9679C84.49 28.6883 84.8779 28.2289 84.8339 27.7066C84.7945 27.2456 84.429 26.88 83.9679 26.8409H82.4502Z" fill="black"/>
<path d="M108.904 28.6722C108.858 28.6682 108.812 28.6661 108.763 28.6661C108.574 28.6659 108.386 28.6978 108.207 28.7604C107.965 28.8406 107.747 28.9767 107.569 29.1577C107.484 29.2417 107.41 29.3352 107.347 29.4363C107.17 29.7093 107.075 30.028 107.076 30.3537V30.6276C107.076 31.5592 107.832 32.3144 108.763 32.3144C108.858 32.3144 108.954 32.3065 109.048 32.2907C109.578 32.2224 109.988 31.9264 110.278 31.4025L111.756 32.2086C111.522 32.7272 111.125 33.1555 110.626 33.429C110.109 33.7219 109.505 33.8684 108.813 33.8684C108.158 33.879 107.51 33.7303 106.926 33.4351C105.297 32.6028 104.65 30.6077 105.483 28.9788C105.8 28.3583 106.305 27.8536 106.926 27.5366C107.51 27.2413 108.158 27.0924 108.813 27.1027C109.505 27.1027 110.109 27.2473 110.626 27.5366C111.131 27.8116 111.529 28.248 111.756 28.776L110.278 29.5692C109.956 29.0019 109.497 28.7029 108.904 28.6722Z" fill="black"/>
<path d="M116.397 33.8711C115.75 33.8817 115.111 33.7329 114.535 33.4378C114.002 33.1643 113.556 32.7479 113.247 32.2351C112.627 31.1533 112.627 29.8245 113.247 28.7427C113.556 28.2296 114.002 27.8131 114.535 27.54C115.707 26.9614 117.082 26.9614 118.254 27.54C118.784 27.8148 119.228 28.2311 119.536 28.7427C120.155 29.8247 120.155 31.1531 119.536 32.2351C119.228 32.7464 118.784 33.1626 118.254 33.4378C117.68 33.7334 117.042 33.8822 116.397 33.8711ZM116.391 32.3117C117.398 32.312 118.215 31.4961 118.215 30.4893C118.216 29.4824 117.399 28.6659 116.392 28.6654C115.385 28.6651 114.569 29.481 114.568 30.4879C114.568 30.4893 114.568 30.4906 114.568 30.492C114.569 31.498 115.385 32.3133 116.391 32.3137V32.3117Z" fill="black"/>
<path d="M60.4201 27.2043V33.7734H58.6006V33.0161C58.1278 33.5861 57.4437 33.871 56.5486 33.871C55.9625 33.8792 55.3843 33.7363 54.8695 33.4561C54.3715 33.182 53.9625 32.7709 53.6909 32.2717C53.4061 31.7582 53.2637 31.1638 53.2637 30.4885C53.2637 29.8133 53.4061 29.2191 53.6909 28.7061C53.9621 28.2065 54.3712 27.7953 54.8695 27.5216C55.3842 27.2412 55.9625 27.0981 56.5486 27.106C57.3872 27.106 58.0427 27.3706 58.5152 27.9V27.2043H60.4201ZM56.7846 28.6661C55.7764 28.6661 54.959 29.4832 54.959 30.4912C54.959 31.4993 55.7764 32.3164 56.7846 32.3164C57.7928 32.3164 58.6101 31.4993 58.6101 30.4912C58.6101 29.4832 57.7928 28.6661 56.7846 28.6661Z" fill="black"/>
<path d="M77.0278 27.2043V33.7734H75.209V33.0161C74.737 33.5861 74.0535 33.871 73.1576 33.871C72.5711 33.8792 71.9926 33.7363 71.4779 33.4561C70.9801 33.1816 70.5712 32.7707 70.2993 32.2717C70.0145 31.7582 69.8721 31.1638 69.8721 30.4885C69.8721 29.8133 70.0145 29.2191 70.2993 28.7061C70.5712 28.2066 70.9808 27.7955 71.4793 27.5216C71.994 27.2412 72.5724 27.0981 73.159 27.106C73.9972 27.106 74.6529 27.3706 75.1256 27.9V27.2043H77.0278ZM73.3923 28.6661C72.3839 28.6661 71.5667 29.4832 71.5667 30.4912C71.5667 31.4993 72.3839 32.3164 73.3923 32.3164C74.4007 32.3164 75.2178 31.4993 75.2178 30.4912C75.2178 29.4832 74.4007 28.6661 73.3923 28.6661Z" fill="black"/>
<path d="M95.6149 27.2043V33.7734H93.7954V33.0161C93.3235 33.5861 92.6392 33.871 91.7434 33.871C91.1575 33.8792 90.579 33.7363 90.0643 33.4561C89.5666 33.1818 89.1577 32.7708 88.8857 32.2717C88.6009 31.7582 88.4585 31.1638 88.4585 30.4885C88.4585 29.8133 88.6009 29.2191 88.8857 28.7061C89.157 28.2067 89.5659 27.7955 90.0643 27.5216C90.579 27.2412 91.1575 27.0981 91.7434 27.106C92.5822 27.106 93.238 27.3706 93.71 27.9V27.2043H95.6149ZM91.9794 28.6661C90.971 28.6661 90.1538 29.4832 90.1538 30.4912C90.1538 31.4993 90.971 32.3164 91.9794 32.3164C92.9878 32.3164 93.8049 31.4993 93.8049 30.4912C93.8049 29.4832 92.9878 28.6661 91.9794 28.6661Z" fill="black"/>
<path d="M102.02 30.9245C102.02 30.9041 102.02 30.8831 102.02 30.8621V30.1204C102.002 29.317 101.337 28.6798 100.534 28.6971C99.7544 28.714 99.1271 29.3414 99.1102 30.1204V30.8621C99.1102 30.8845 99.1102 30.9069 99.1102 30.9299V33.7734H97.208V27.2043H99.0274V27.9732C99.2885 27.6911 99.61 27.4719 99.968 27.3325C100.361 27.1784 100.78 27.1015 101.202 27.106C102.015 27.106 102.673 27.3503 103.174 27.8389C103.675 28.3276 103.926 29.0521 103.925 30.0126V33.7734H102.02V30.9245Z" fill="black"/>
</svg>
