<svg width="130" height="60" viewBox="0 0 130 60" fill="none" xmlns="http://www.w3.org/2000/svg">
<rect width="130" height="60" fill="white"/>
<g clip-path="url(#clip0_68_132)">
<path d="M14 39.9814H116" stroke="#0F2659" stroke-width="0.5" stroke-miterlimit="2.613"/>
<path fill-rule="evenodd" clip-rule="evenodd" d="M72.5935 24.0334H69.1875L70.8822 20.895L72.5935 24.0334Z" fill="#C79F2A"/>
<path fill-rule="evenodd" clip-rule="evenodd" d="M79.411 36.7641L70.8819 20.8951L62.353 36.7641L70.8819 19.9727L79.411 36.7641Z" fill="#0F2659"/>
<path d="M74.3499 27.2386H70.8857L72.6471 24.0703M67.426 27.2386H70.8898L69.1286 24.0703M65.7114 30.418H69.1756L67.4144 27.2498M76.0556 30.418H72.5918L74.353 27.2498M64.0042 33.5901H67.4684L65.707 30.4221M77.761 33.5901H74.2969L76.058 30.4221M69.1717 36.7641H65.7661L67.4691 33.5958L69.1717 36.7641ZM72.5852 36.7641H69.1792L70.8821 33.5958L72.5852 36.7641ZM75.998 36.7641H72.5924L74.2952 33.5958L75.998 36.7641ZM70.8786 33.589H67.4726L69.1756 30.4206L70.8786 33.589ZM74.2917 33.589H70.8859L72.5887 30.4206L74.2917 33.589ZM72.5852 30.4138H69.1792L70.8821 27.2454L72.5852 30.4138ZM62.3145 36.7652H65.7623L64.0125 33.5969L62.3145 36.7652ZM79.4629 36.7652H76.0039L77.765 33.5969L79.4629 36.7652Z" stroke="#0F2659" stroke-width="0.1" stroke-miterlimit="2.613"/>
<path fill-rule="evenodd" clip-rule="evenodd" d="M83.3988 32.9309C83.3482 32.9309 83.3353 32.8928 83.3482 32.8422L84.5157 29.7199C84.5284 29.6693 84.5539 29.6057 84.5918 29.6057C84.63 29.6057 84.6426 29.6693 84.6555 29.7199L85.7979 32.855C85.8104 32.893 85.7979 32.9311 85.7342 32.9311L83.3988 32.9309ZM85.9753 33.5654C86.0389 33.5654 86.0769 33.5909 86.1022 33.6544L87.1175 36.345C87.1812 36.4974 87.092 36.6117 87.0032 36.6372C86.8765 36.6497 86.8257 36.6752 86.8257 36.7513C86.8257 36.8401 86.9779 36.8401 87.2063 36.8529C88.2218 36.8784 89.1483 36.8784 89.6052 36.8784C90.075 36.8784 90.1891 36.8529 90.1891 36.7515C90.1891 36.6627 90.1255 36.6499 90.0242 36.6499C89.8718 36.6499 89.6814 36.6374 89.4911 36.599C89.2246 36.5356 88.8566 36.358 88.374 35.2158C87.5618 33.2864 85.531 28.1081 85.2265 27.41C85.0998 27.1179 85.0234 27.0037 84.9093 27.0037C84.7824 27.0037 84.7063 27.1434 84.5539 27.5114L81.3682 35.4823C81.1141 36.1168 80.8731 36.5484 80.2892 36.6245C80.1876 36.6374 80.01 36.65 79.8956 36.65C79.7941 36.65 79.7433 36.6755 79.7433 36.7517C79.7433 36.8533 79.8194 36.8786 79.9844 36.8786C80.6445 36.8786 81.3425 36.8404 81.4821 36.8404C81.8755 36.8404 82.4213 36.8786 82.8276 36.8786C82.9672 36.8786 83.0433 36.8531 83.0433 36.7517C83.0433 36.6755 83.0053 36.65 82.8529 36.65H82.6627C82.269 36.65 82.1547 36.4851 82.1547 36.2566C82.1547 36.1043 82.2182 35.7996 82.3451 35.4823L83.0306 33.6672C83.0559 33.5909 83.0813 33.5654 83.1447 33.5654H85.9753ZM93.6162 33.1975C93.6162 34.8221 93.6162 35.6978 93.8825 35.9262C94.0984 36.1166 94.4284 36.2054 95.4182 36.2054C96.0911 36.2054 96.586 36.1929 96.9033 35.8501C97.0557 35.6852 97.208 35.3297 97.2333 35.0885C97.2461 34.9742 97.2715 34.8981 97.3731 34.8981C97.4619 34.8981 97.4747 34.9617 97.4747 35.114C97.4747 35.2536 97.3859 36.2054 97.2843 36.5736C97.2082 36.8527 97.1447 36.9162 96.4847 36.9162C94.657 36.9162 93.8194 36.8401 92.7913 36.8401C92.4993 36.8401 91.6999 36.8782 91.1921 36.8782C91.027 36.8782 90.9381 36.8401 90.9381 36.7513C90.9381 36.6878 90.9887 36.6497 91.1411 36.6497C91.3315 36.6497 91.4838 36.6242 91.5979 36.5989C91.8517 36.5484 91.9152 36.2691 91.966 35.9009C92.0295 35.3678 92.0295 34.365 92.0295 33.1975V30.9634C92.0295 29.0343 92.0295 28.679 92.0042 28.2728C91.9787 27.8412 91.8772 27.6382 91.4583 27.5494C91.3567 27.5241 91.2044 27.5112 91.0395 27.5112C90.8997 27.5112 90.8236 27.4859 90.8236 27.3969C90.8236 27.308 90.9126 27.2827 91.1028 27.2827C91.6995 27.2827 92.4989 27.3208 92.8415 27.3208C93.1462 27.3208 94.0727 27.2827 94.5678 27.2827C94.7454 27.2827 94.8342 27.308 94.8342 27.3969C94.8342 27.4859 94.7581 27.5112 94.6058 27.5112C94.466 27.5112 94.2632 27.5239 94.1109 27.5494C93.7682 27.6128 93.6664 27.8286 93.6413 28.2728C93.6158 28.679 93.6158 29.0343 93.6158 30.9634V33.1975H93.6162ZM101.308 33.1975C101.308 34.416 101.308 35.3678 101.371 35.9009C101.409 36.2691 101.485 36.5482 101.866 36.5989C102.044 36.6244 102.323 36.6497 102.501 36.6497C102.666 36.6497 102.716 36.6878 102.716 36.7513C102.716 36.8401 102.628 36.8782 102.437 36.8782C101.638 36.8782 100.838 36.8401 100.508 36.8401C100.178 36.8401 99.3786 36.8782 98.8961 36.8782C98.7184 36.8782 98.6296 36.8527 98.6296 36.7513C98.6296 36.6878 98.6804 36.6497 98.82 36.6497C99.0104 36.6497 99.1627 36.6242 99.2769 36.5989C99.5308 36.5484 99.5941 36.2691 99.6451 35.9009C99.7085 35.3678 99.7085 34.4158 99.7085 33.1975V30.9634C99.7085 29.0343 99.7085 28.679 99.6831 28.2728C99.6577 27.8412 99.5563 27.6382 99.1373 27.5494C99.0357 27.5241 98.82 27.5112 98.6423 27.5112C98.5153 27.5112 98.4265 27.4859 98.4265 27.4098C98.4265 27.3082 98.5282 27.2828 98.7184 27.2828C99.3786 27.2828 100.178 27.321 100.546 27.321C101.029 27.321 103.605 27.321 103.897 27.3083C104.138 27.2957 104.291 27.2957 104.417 27.2575C104.494 27.232 104.557 27.1814 104.621 27.1814C104.671 27.1814 104.709 27.232 104.709 27.2955C104.709 27.3843 104.646 27.5367 104.607 27.8665C104.595 27.9935 104.57 28.7424 104.544 28.8947C104.532 28.9961 104.506 29.0724 104.417 29.0724C104.328 29.0724 104.303 29.009 104.29 28.8694C104.29 28.7677 104.29 28.5647 104.214 28.3871C104.125 28.2094 103.859 28.019 103.377 28.0063L101.422 27.9682C101.346 27.9682 101.308 28.0063 101.308 28.1457V31.3189C101.308 31.3949 101.32 31.433 101.397 31.433L103.021 31.4204C103.237 31.4204 103.415 31.4204 103.592 31.4077C103.833 31.3951 104.011 31.3442 104.138 31.1793C104.202 31.1032 104.227 31.0526 104.303 31.0526C104.354 31.0526 104.379 31.0906 104.379 31.1667C104.379 31.2428 104.316 31.5603 104.278 31.9536C104.252 32.2077 104.227 32.7913 104.227 32.8801C104.227 32.9944 104.227 33.1212 104.1 33.1212C104.024 33.1212 103.998 33.0324 103.998 32.9436C103.998 32.8548 103.973 32.7024 103.922 32.5499C103.859 32.3724 103.669 32.1438 103.275 32.0932C102.958 32.055 101.612 32.055 101.397 32.055C101.333 32.055 101.308 32.0805 101.308 32.1691V33.1975H101.308ZM107.984 32.9309C107.933 32.9309 107.92 32.8928 107.933 32.8422L109.101 29.7199C109.113 29.6693 109.139 29.6057 109.177 29.6057C109.215 29.6057 109.227 29.6693 109.24 29.7199L110.383 32.855C110.395 32.893 110.383 32.9311 110.319 32.9311L107.984 32.9309ZM110.56 33.5654C110.624 33.5654 110.662 33.5909 110.687 33.6544L111.702 36.345C111.766 36.4974 111.677 36.6117 111.588 36.6372C111.461 36.6497 111.41 36.6752 111.41 36.7513C111.41 36.8401 111.563 36.8401 111.791 36.8529C112.807 36.8784 113.733 36.8784 114.19 36.8784C114.66 36.8784 114.774 36.8529 114.774 36.7515C114.774 36.6627 114.71 36.6499 114.609 36.6499C114.457 36.6499 114.266 36.6374 114.076 36.599C113.81 36.5356 113.441 36.358 112.959 35.2158C112.147 33.2864 110.116 28.1081 109.811 27.41C109.685 27.1179 109.608 27.0037 109.494 27.0037C109.367 27.0037 109.291 27.1434 109.139 27.5114L105.953 35.4821C105.699 36.1166 105.458 36.5482 104.874 36.6244C104.772 36.6372 104.595 36.6499 104.481 36.6499C104.379 36.6499 104.328 36.6754 104.328 36.7515C104.328 36.8531 104.404 36.8784 104.569 36.8784C105.229 36.8784 105.927 36.8403 106.067 36.8403C106.461 36.8403 107.006 36.8784 107.412 36.8784C107.552 36.8784 107.628 36.8529 107.628 36.7515C107.628 36.6754 107.59 36.6499 107.438 36.6499H107.247C106.854 36.6499 106.74 36.485 106.74 36.2564C106.74 36.1041 106.803 35.7995 106.93 35.4821L107.615 33.6671C107.641 33.5907 107.666 33.5652 107.73 33.5652L110.56 33.5654ZM17.6716 28.0443C17.6716 27.9047 17.6971 27.8539 17.7859 27.8286C17.9126 27.8032 18.0269 27.8032 18.2046 27.8032C19.2962 27.8032 19.7911 28.92 19.7911 29.7706C19.7911 30.3924 19.6007 30.8493 19.2707 31.1159C19.0548 31.3061 18.7758 31.3569 18.3569 31.3569C18.065 31.3569 17.8746 31.3442 17.7604 31.3189C17.7097 31.3061 17.6716 31.2808 17.6716 31.1792V28.0443ZM16.1485 33.1975C16.1485 34.365 16.1485 35.3678 16.0851 35.9009C16.0343 36.2691 15.9708 36.5482 15.7171 36.5989C15.6028 36.6244 15.4506 36.6497 15.2602 36.6497C15.1079 36.6497 15.0571 36.6878 15.0571 36.7513C15.0571 36.8401 15.1459 36.8782 15.311 36.8782C15.8187 36.8782 16.6183 36.8401 16.9101 36.8401C17.291 36.8401 18.446 36.9162 18.7505 36.9162C21.0858 36.9162 22.1393 35.5073 22.1393 34.1493C22.1393 32.6642 20.8703 31.7632 19.8293 31.4077C20.5274 30.8493 21.124 30.2273 21.124 29.1867C21.124 28.514 20.7177 27.283 18.4203 27.283C17.9887 27.283 17.4938 27.3212 16.872 27.3212C16.6181 27.3212 15.8185 27.283 15.1459 27.283C14.9553 27.283 14.8667 27.3083 14.8667 27.3973C14.8667 27.4863 14.943 27.5116 15.0824 27.5116C15.2602 27.5116 15.4759 27.5242 15.5775 27.5497C15.9963 27.6385 16.0979 27.8416 16.1232 28.2732C16.1487 28.6793 16.1487 29.0346 16.1487 30.9638V33.1975H16.1485ZM20.5781 34.7203C20.5781 36.0403 19.6136 36.3448 19.0422 36.3448C18.7503 36.3448 18.4583 36.3322 18.1157 36.1927C17.7095 36.0277 17.6714 35.8119 17.6714 34.974V31.9663C17.6714 31.9028 17.6969 31.8775 17.7475 31.8775C17.9379 31.8775 18.0649 31.8775 18.2934 31.8901C18.7885 31.9156 19.0803 32.0044 19.3469 32.1946C20.3115 32.8673 20.5781 33.9336 20.5781 34.7203ZM25.1599 32.9309C25.1092 32.9309 25.0964 32.8928 25.1092 32.8422L26.2768 29.7199C26.2894 29.6693 26.3149 29.6057 26.3531 29.6057C26.3913 29.6057 26.4037 29.6693 26.4166 29.7199L27.5588 32.855C27.5715 32.893 27.5588 32.9311 27.4953 32.9311L25.1599 32.9309ZM27.7364 33.5654C27.7998 33.5654 27.838 33.5909 27.8633 33.6544L28.8786 36.345C28.9421 36.4974 28.8533 36.6117 28.7645 36.6372C28.6376 36.6497 28.5868 36.6752 28.5868 36.7513C28.5868 36.8401 28.739 36.8401 28.9676 36.8529C29.9829 36.8784 30.9094 36.8784 31.3663 36.8784C31.8361 36.8784 31.9502 36.8529 31.9502 36.7515C31.9502 36.6627 31.8867 36.6499 31.7853 36.6499C31.633 36.6499 31.4426 36.6374 31.2522 36.599C30.9857 36.5356 30.6175 36.358 30.1353 35.2158C29.3229 33.2864 27.2921 28.1081 26.9876 27.41C26.8608 27.1179 26.7845 27.0037 26.6703 27.0037C26.5433 27.0037 26.4672 27.1434 26.3149 27.5114L23.1293 35.4821C22.8754 36.1166 22.6342 36.5482 22.0503 36.6244C21.9487 36.6372 21.7711 36.6499 21.6567 36.6499C21.5552 36.6499 21.5044 36.6754 21.5044 36.7515C21.5044 36.8531 21.5805 36.8784 21.7454 36.8784C22.4056 36.8784 23.1036 36.8403 23.2432 36.8403C23.6366 36.8403 24.1825 36.8784 24.5885 36.8784C24.7282 36.8784 24.8044 36.8529 24.8044 36.7515C24.8044 36.6754 24.7662 36.6499 24.614 36.6499H24.4236C24.0301 36.6499 23.9158 36.485 23.9158 36.2564C23.9158 36.1041 23.9791 35.7995 24.1062 35.4821L24.7917 33.6671C24.817 33.5907 24.8423 33.5652 24.906 33.5652L27.7364 33.5654ZM34.3744 35.1521C34.3999 36.1419 34.5648 36.4719 34.8187 36.5609C35.0346 36.6372 35.2758 36.6497 35.4789 36.6497C35.6185 36.6497 35.6946 36.6752 35.6946 36.7513C35.6946 36.8529 35.5803 36.8782 35.4026 36.8782C34.5777 36.8782 34.0698 36.8401 33.8287 36.8401C33.7145 36.8401 33.1179 36.8782 32.4579 36.8782C32.293 36.8782 32.1787 36.8656 32.1787 36.7513C32.1787 36.6752 32.2551 36.6497 32.3818 36.6497C32.5467 36.6497 32.7753 36.6372 32.9528 36.5862C33.2828 36.4846 33.3336 36.1164 33.3463 35.0124L33.4606 27.4986C33.4606 27.2447 33.4987 27.0671 33.6255 27.0671C33.7651 27.0671 33.8794 27.232 34.0951 27.4606C34.2473 27.6257 36.1767 29.6944 38.0297 31.5348C38.8928 32.3979 40.6062 34.2256 40.8221 34.4287H40.8856L40.7587 28.7298C40.746 27.9557 40.6319 27.7145 40.327 27.5875C40.1366 27.5112 39.8321 27.5112 39.6544 27.5112C39.5021 27.5112 39.4513 27.4731 39.4513 27.3969C39.4513 27.2953 39.5909 27.2827 39.7813 27.2827C40.4413 27.2827 41.0505 27.3208 41.317 27.3208C41.4568 27.3208 41.939 27.2827 42.5609 27.2827C42.726 27.2827 42.8529 27.2953 42.8529 27.3969C42.8529 27.4731 42.7766 27.5112 42.6243 27.5112C42.4974 27.5112 42.396 27.5112 42.2437 27.5494C41.8882 27.651 41.7868 27.9175 41.7741 28.6283L41.6344 36.6372C41.6344 36.9162 41.5837 37.0307 41.4695 37.0307C41.3299 37.0307 41.1776 36.8911 41.038 36.7515C40.2384 35.9901 38.6138 34.3272 37.2936 33.0199C35.9101 31.6491 34.5012 30.0626 34.2728 29.8214H34.2347L34.3744 35.1521ZM44.6678 35.6723C43.4239 34.5809 43.0939 33.1593 43.0939 31.9281C43.0939 31.0652 43.3605 29.5675 44.579 28.4506C45.4929 27.6128 46.6986 27.1051 48.5898 27.1051C49.3767 27.1051 49.8463 27.1559 50.4302 27.232C50.9124 27.2955 51.3185 27.4098 51.6993 27.4478C51.8389 27.4604 51.8897 27.5241 51.8897 27.6002C51.8897 27.7016 51.8516 27.8541 51.8263 28.2981C51.801 28.7171 51.8136 29.4151 51.7881 29.6689C51.7755 29.8593 51.75 29.9608 51.6357 29.9608C51.5342 29.9608 51.5087 29.8592 51.5087 29.6816C51.4961 29.2881 51.331 28.844 51.0138 28.5139C50.5951 28.0698 49.6049 27.7269 48.4373 27.7269C47.3331 27.7269 46.6098 28.0061 46.0512 28.5139C45.1247 29.3643 44.8835 30.57 44.8835 31.8012C44.8835 34.8221 47.1808 36.3197 48.8816 36.3197C50.0112 36.3197 50.6967 36.1929 51.2044 35.6089C51.4202 35.3678 51.5852 34.9997 51.6359 34.7713C51.674 34.5683 51.6993 34.5174 51.801 34.5174C51.8897 34.5174 51.9152 34.606 51.9152 34.7077C51.9152 34.8601 51.7628 35.9646 51.6361 36.3958C51.5726 36.6117 51.5218 36.675 51.3061 36.764C50.7983 36.967 49.8338 37.056 49.0214 37.056C47.2825 37.056 45.8229 36.6752 44.6678 35.6723ZM58.1344 36.4213C55.6974 36.4213 54.2379 34.327 54.2379 31.6869C54.2379 28.5265 55.9005 27.7143 57.3601 27.7143C59.4417 27.7143 61.0788 29.4785 61.0788 32.3216C61.0788 35.9897 59.0227 36.4213 58.1344 36.4213ZM57.6011 37.056C60.825 37.056 62.8557 34.7587 62.8557 31.852C62.8557 28.9455 60.8884 27.1051 57.728 27.1051C53.9203 27.1051 52.4861 29.9102 52.4861 32.0805C52.4863 34.327 53.9585 37.056 57.6011 37.056Z" fill="#C79F2A"/>
</g>
<defs>
<clipPath id="clip0_68_132">
<rect width="102" height="20.0736" fill="white" transform="translate(14 19.9631)"/>
</clipPath>
</defs>
</svg>
