<svg width="60" height="60" viewBox="0 0 60 60" fill="none" xmlns="http://www.w3.org/2000/svg">
<rect width="60" height="60" fill="#0F2659"/>
<path fill-rule="evenodd" clip-rule="evenodd" d="M33 23H27L29.9855 17L33 23Z" fill="#C79F2A"/>
<path fill-rule="evenodd" clip-rule="evenodd" d="M45 45L29.9998 17.5932L15 45L29.9998 16L45 45Z" fill="white"/>
<path d="M36.0551 28.4905H29.9949L33.0762 23M23.9423 28.4905H30.0019L26.9209 23M20.9428 34.0005H27.0031L23.9221 28.5099M39.0392 34.0005H32.9796L36.0606 28.5099M17.9562 39.4977H24.0164L20.9351 34.0075M42.0227 39.4977H35.9624L39.0434 34.0075M26.9963 44.9981H21.0384L24.0177 39.5075L26.9963 44.9981ZM32.968 44.9981H27.0095L29.9884 39.5075L32.968 44.9981ZM38.9384 44.9981H32.9805L35.9595 39.5075L38.9384 44.9981ZM29.9823 39.4958H24.0238L27.0031 34.0049L29.9823 39.4958ZM35.9534 39.4958H29.9952L32.9741 34.0049L35.9534 39.4958ZM32.968 33.9932H27.0095L29.9884 28.5023L32.968 33.9932ZM15 45H21.0317L17.9706 39.5095L15 45ZM45 45H38.9487L42.0297 39.5095L45 45Z" stroke="white" stroke-width="0.1" stroke-miterlimit="2.613"/>
</svg>
