<svg width="60" height="60" viewBox="0 0 60 60" fill="none" xmlns="http://www.w3.org/2000/svg">
<rect width="60" height="60" fill="white"/>
<path d="M35.5352 27.7035H31.9795C31.4916 27.711 31.0262 27.9096 30.6839 28.2563C30.3415 28.6029 30.1497 29.0699 30.1497 29.5564C30.1497 30.0428 30.3415 30.5098 30.6839 30.8565C31.0262 31.2031 31.4916 31.4017 31.9795 31.4093H35.5352C36.0232 31.4017 36.4885 31.2031 36.8309 30.8565C37.1732 30.5098 37.3651 30.0428 37.3651 29.5564C37.3651 29.0699 37.1732 28.6029 36.8309 28.2563C36.4885 27.9096 36.0232 27.711 35.5352 27.7035ZM35.5352 20.7219H30.6864C29.251 20.7235 27.8748 21.2927 26.8598 22.3046C25.8448 23.3165 25.2739 24.6884 25.2723 26.1195V36.539C25.2799 37.0254 25.4791 37.4894 25.8268 37.8307C26.1745 38.172 26.6429 38.3632 27.1309 38.3632C27.6189 38.3632 28.0873 38.172 28.435 37.8307C28.7828 37.4894 28.9819 37.0254 28.9895 36.539V26.1195C28.9895 25.6708 29.1683 25.2405 29.4865 24.9233C29.8048 24.606 30.2364 24.4278 30.6864 24.4278H35.5352C36.0232 24.4202 36.4885 24.2216 36.8309 23.875C37.1732 23.5283 37.3651 23.0613 37.3651 22.5749C37.3651 22.0884 37.1732 21.6214 36.8309 21.2747C36.4885 20.9281 36.0232 20.7295 35.5352 20.7219ZM14.4436 24.4278H21.2317C21.7196 24.4202 22.185 24.2216 22.5273 23.875C22.8697 23.5283 23.0616 23.0613 23.0616 22.5749C23.0616 22.0884 22.8697 21.6214 22.5273 21.2747C22.185 20.9281 21.7196 20.7295 21.2317 20.7219H14.4436C13.7373 20.7155 13.0367 20.8486 12.3822 21.1135C11.7278 21.3785 11.1325 21.7701 10.6308 22.2658C10.129 22.7614 9.73076 23.3512 9.45896 24.0012C9.18715 24.6512 9.04721 25.3484 9.04721 26.0525C9.04721 26.7567 9.18715 27.4539 9.45896 28.1039C9.73076 28.7538 10.129 29.3437 10.6308 29.8393C11.1325 30.3349 11.7278 30.7265 12.3822 30.9915C13.0367 31.2565 13.7373 31.3896 14.4436 31.3831H17.676C17.8981 31.3758 18.1195 31.4131 18.3269 31.4928C18.5343 31.5725 18.7235 31.693 18.8833 31.8471C19.043 32.0012 19.1701 32.1857 19.2568 32.3898C19.3436 32.5938 19.3883 32.8131 19.3883 33.0347C19.3883 33.2563 19.3436 33.4757 19.2568 33.6797C19.1701 33.8837 19.043 34.0683 18.8833 34.2224C18.7235 34.3764 18.5343 34.4969 18.3269 34.5766C18.1195 34.6563 17.8981 34.6936 17.676 34.6863H10.8878C10.6413 34.6825 10.3965 34.7276 10.1676 34.819C9.93876 34.9104 9.73042 35.0462 9.55473 35.2187C9.37904 35.3911 9.23952 35.5967 9.14428 35.8234C9.04905 36.0501 9 36.2934 9 36.5392C9 36.785 9.04905 37.0284 9.14428 37.2551C9.23952 37.4818 9.37904 37.6873 9.55473 37.8598C9.73042 38.0322 9.93876 38.1681 10.1676 38.2595C10.3965 38.3509 10.6413 38.396 10.8878 38.3922H17.676C18.3875 38.4014 19.0939 38.2696 19.7539 38.0045C20.414 37.7394 21.0147 37.3462 21.5212 36.8478C22.0276 36.3494 22.4298 35.7557 22.7042 35.1011C22.9787 34.4466 23.12 33.7442 23.12 33.0347C23.12 32.3253 22.9787 31.6229 22.7042 30.9683C22.4298 30.3137 22.0276 29.72 21.5212 29.2216C21.0147 28.7232 20.414 28.3301 19.7539 28.065C19.0939 27.7999 18.3875 27.6681 17.676 27.6773H14.4436C14.224 27.6862 14.0049 27.6508 13.7993 27.5732C13.5938 27.4956 13.4062 27.3774 13.2476 27.2256C13.0891 27.0739 12.9629 26.8918 12.8768 26.6902C12.7906 26.4887 12.7462 26.2719 12.7462 26.0528C12.7462 25.8337 12.7906 25.6168 12.8768 25.4153C12.9629 25.2137 13.0891 25.0316 13.2476 24.8799C13.4062 24.7281 13.5938 24.6099 13.7993 24.5323C14.0049 24.4547 14.224 24.4188 14.4436 24.4278ZM50.9952 25.8837C50.9952 22.4195 48.4037 20.0023 44.6919 20.0023C43.1587 19.963 41.6547 20.4244 40.4089 21.3162C40.2133 21.4618 40.0483 21.6443 39.9234 21.8535C39.7986 22.0626 39.7162 22.2942 39.6812 22.535C39.6461 22.7759 39.6589 23.0213 39.7189 23.2572C39.779 23.4931 39.885 23.7149 40.031 23.9099C40.3259 24.3038 40.7657 24.5648 41.2536 24.6355C41.4952 24.6704 41.7414 24.6576 41.978 24.5978C42.2146 24.5379 42.4371 24.4322 42.6327 24.2866C43.2382 23.8756 43.9616 23.6725 44.6933 23.7082C45.6629 23.7082 47.2794 23.9909 47.2794 25.8832C47.2794 26.4694 47.2794 27.5326 45.1537 27.6453C45.0275 27.6403 44.9009 27.6381 44.7715 27.6381H43.3369C42.8439 27.6381 42.3711 27.8333 42.0225 28.1808C41.6739 28.5284 41.4781 28.9997 41.4781 29.4912V29.5088C41.4781 30.0003 41.6739 30.4716 42.0225 30.8192C42.3711 31.1667 42.8439 31.3619 43.3369 31.3619H44.772C44.9013 31.3619 45.028 31.3619 45.1541 31.3547C47.2798 31.4674 47.2798 32.5302 47.2798 33.1168C47.2798 35.0105 45.6634 35.2919 44.6937 35.2919C43.9621 35.3275 43.2387 35.1244 42.6332 34.7134C42.4375 34.5679 42.2151 34.4623 41.9785 34.4025C41.7419 34.3427 41.4958 34.33 41.2543 34.365C41.0128 34.4001 40.7805 34.4822 40.5708 34.6067C40.3611 34.7312 40.1781 34.8957 40.0322 35.0908C39.8862 35.2858 39.7803 35.5076 39.7203 35.7435C39.6604 35.9793 39.6476 36.2247 39.6828 36.4654C39.7179 36.7062 39.8003 36.9378 39.9252 37.1468C40.0501 37.3559 40.2151 37.5383 40.4107 37.6838C41.6565 38.5755 43.1606 39.0369 44.6937 38.9977C48.4055 38.9977 50.997 36.5809 50.997 33.1163C51.0415 31.7935 50.585 30.5025 49.7185 29.4998C50.5843 28.4969 51.04 27.2061 50.9952 25.8837Z" fill="url(#paint0_linear_476_765)"/>
<defs>
<linearGradient id="paint0_linear_476_765" x1="16.266" y1="16.637" x2="22.6307" y2="47.6555" gradientUnits="userSpaceOnUse">
<stop stop-color="#307FE2"/>
<stop offset="0.09" stop-color="#2C76D6"/>
<stop offset="0.71" stop-color="#0C3781"/>
<stop offset="1" stop-color="#001E60"/>
</linearGradient>
</defs>
</svg>
