<svg width="130" height="60" viewBox="0 0 130 60" fill="none" xmlns="http://www.w3.org/2000/svg">
<rect width="130" height="60" fill="white"/>
<g clip-path="url(#clip0_308_173)">
<mask id="mask0_308_173" style="mask-type:luminance" maskUnits="userSpaceOnUse" x="14" y="22" width="103" height="15">
<path d="M116.84 22H14V37H116.84V22Z" fill="white"/>
</mask>
<g mask="url(#mask0_308_173)">
<path d="M48.1176 33.5669C47.5832 35.0004 46.003 37.0073 43.1105 37.0073C39.8838 37.0073 37.5474 34.6822 37.5474 31.2489C37.5474 27.8157 39.8838 25.4863 43.1105 25.4863C46.1153 25.4863 48.4518 27.8114 48.4518 30.9121C48.4463 31.1789 48.4242 31.445 48.3855 31.7091L48.3409 32.0202H39.7786C40.0235 33.9023 41.3358 35.1208 43.1162 35.1208C44.4516 35.1208 45.4311 34.3453 45.7869 33.5698L48.1176 33.5669ZM46.3372 30.3602C46.0923 28.5884 44.8967 27.3699 43.1105 27.3699C41.2191 27.3699 40.1057 28.5884 39.7729 30.3602H46.3372Z" fill="black"/>
<path d="M59.3432 33.4566C59.3432 34.1203 60.1225 35.118 61.903 35.118C63.5711 35.118 64.2394 34.364 64.2394 33.6773C64.2394 32.9033 63.8159 32.4374 62.5699 32.2438L60.5676 31.9113C58.4314 31.5572 57.341 30.5839 57.341 28.7003C57.341 26.9285 58.7815 25.4893 61.792 25.4893C65.0186 25.4893 66.3541 27.704 66.3541 28.9225H64.1227C64.1227 28.2573 63.4543 27.3714 61.7863 27.3714C60.2017 27.3714 59.5607 28.0136 59.5607 28.7003C59.5607 29.3869 60.2277 29.8299 61.2288 30.0291L63.2383 30.3602C65.3989 30.7143 66.4651 31.8224 66.4651 33.6816C66.4651 35.4534 65.0246 37.0045 61.903 37.0045C58.3421 37.0045 57.1177 34.6793 57.1177 33.4609L59.3432 33.4566Z" fill="black"/>
<path d="M89.5443 35.5607H89.4338C89.2117 35.8918 88.0983 36.9942 85.9851 36.9942C83.0694 36.9942 80.8657 34.7794 80.8657 31.2359C80.8657 27.6923 83.0694 25.4775 85.9851 25.4775C88.1461 25.4775 89.0565 26.6071 89.4338 27.0286H89.5443V25.6997H91.7702V36.772H89.5443V35.5607ZM89.5443 31.2416C89.5443 28.938 88.1044 27.4773 86.3177 27.4773C84.5315 27.4773 83.0915 28.938 83.0915 31.2416C83.0915 33.5452 84.5315 35.0059 86.3177 35.0059C88.1044 35.0059 89.5443 33.5452 89.5443 31.2416Z" fill="black"/>
<path d="M94.3472 25.7059H96.573V26.8125H96.685C96.9342 26.5623 97.2101 26.3398 97.5075 26.1488C98.2295 25.705 99.0631 25.4743 99.9117 25.4837C102.582 25.4837 104.363 27.2339 104.363 30.1339V36.7781H102.137V30.1339C102.14 29.7842 102.073 29.4375 101.94 29.1139C101.806 28.7903 101.609 28.4964 101.361 28.2492C101.113 28.0019 100.817 27.8064 100.491 27.674C100.166 27.5415 99.8182 27.4748 99.4665 27.4776C97.7969 27.4776 96.573 28.6947 96.573 30.1339V36.7781H94.3472V25.7059Z" fill="black"/>
<path d="M106.869 22H109.096V30.2339H110.68L113.969 26.0109H116.514L112.59 30.9722L116.833 36.7778H114.076L110.794 32.2394H109.097V36.7778H106.87L106.869 22Z" fill="black"/>
<path d="M74.2627 25.4863C72.1017 25.4863 71.1913 26.6159 70.8139 27.0374H70.7019V22.0259H66.4653V24.0199H68.4821V36.7779H70.7074V35.449H70.82C71.1526 35.892 72.1323 37.0001 74.2682 37.0001C77.1839 37.0001 79.3876 34.7853 79.3876 31.2418C79.3876 27.6982 77.1783 25.4863 74.2627 25.4863ZM73.9301 35.009C72.1494 35.009 70.7019 33.5482 70.7019 31.2446C70.7019 28.941 72.1494 27.4803 73.9301 27.4803C75.7102 27.4803 77.1567 28.941 77.1567 31.2446C77.1567 33.5482 75.7087 35.0061 73.9301 35.0061V35.009Z" fill="black"/>
<path d="M34.534 34.7854V22.0273H30.3062V24.0213H32.3084V34.4542C32.3084 35.8877 33.1986 36.7794 34.6449 36.7794H36.8704V34.7868L34.534 34.7854Z" fill="black"/>
<path d="M53.3307 34.7853V27.8086H55.889V25.7056H53.3307V22.0259H51.1051V25.7056H49.3247V27.8086H51.1051V34.4528C51.1051 35.8863 51.9694 36.7779 53.5539 36.7779H55.8904V34.7853H53.3307Z" fill="black"/>
<path d="M22.8933 30.8774V33.8276H16.9644V36.7777H25.8593V30.8774H22.8933Z" fill="#FF7140"/>
<path d="M22.8937 24.9761H19.9292V30.8763H22.8937V24.9761Z" fill="#B2F44A"/>
<path d="M14 22.0264V30.8781H16.9645V24.9765H19.929V22.0264H14Z" fill="#FF85E8"/>
</g>
</g>
<defs>
<clipPath id="clip0_308_173">
<rect width="103" height="15" fill="white" transform="translate(14 22)"/>
</clipPath>
</defs>
</svg>
