<svg width="60" height="60" viewBox="0 0 60 60" fill="none" xmlns="http://www.w3.org/2000/svg">
<rect width="60" height="60" fill="white"/>
<path fill-rule="evenodd" clip-rule="evenodd" d="M23.3672 43.4652C25.5005 44.4511 27.8879 45.0001 30.4087 45.0001L30.9253 44.9936L33.2137 34.2473C31.7929 34.1397 30.4883 33.6273 29.412 32.8244" fill="#FDB913"/>
<path fill-rule="evenodd" clip-rule="evenodd" d="M36.209 33.8583L39.24 42.4992C41.4422 41.1344 43.2871 39.2723 44.6024 37.0744L40.1161 30.6292C39.2443 32.121 37.8623 33.277 36.209 33.8583Z" fill="#FDB913"/>
<path fill-rule="evenodd" clip-rule="evenodd" d="M41.1126 26.9386L41.1062 27.2185L46.6881 27.0958C46.3954 24.8419 45.6161 22.7301 44.4536 20.8702L39.5605 22.4287C40.5336 23.673 41.1126 25.2359 41.1126 26.9386Z" fill="#FDB913"/>
<path fill-rule="evenodd" clip-rule="evenodd" d="M39.6413 15.9475C37.9622 14.8389 36.0635 14.023 34.0185 13.5795L33.9668 19.6114C35.2541 19.6437 36.4596 20.0075 37.4994 20.621" fill="#FDB913"/>
<path fill-rule="evenodd" clip-rule="evenodd" d="M31.0243 20.1452L26.7425 13.5902C24.2971 14.1305 22.0604 15.2026 20.166 16.6707L27.8339 22.6552C28.6326 21.5444 29.7369 20.6683 31.0243 20.1452Z" fill="#FDB913"/>
<path fill-rule="evenodd" clip-rule="evenodd" d="M26.4512 26.9389C26.4512 26.446 26.4986 25.9638 26.5933 25.4988L14.4305 25.46C14.1485 26.6289 14 27.8452 14 29.0959C14 30.4715 14.1808 31.8062 14.5188 33.0784L26.899 29.4705C26.6105 28.6805 26.4512 27.828 26.4512 26.9389Z" fill="#FDB913"/>
</svg>
