<svg width="130" height="60" viewBox="0 0 130 60" fill="none" xmlns="http://www.w3.org/2000/svg">
<rect width="130" height="60" fill="white"/>
<path fill-rule="evenodd" clip-rule="evenodd" d="M101.396 30.4864C102.787 31.1293 104.344 31.4872 105.988 31.4872L106.325 31.483L107.817 24.4762C106.89 24.406 106.04 24.0719 105.338 23.5484" fill="#FDB913"/>
<path fill-rule="evenodd" clip-rule="evenodd" d="M109.77 24.2224L111.746 29.8565C113.182 28.9666 114.385 27.7525 115.242 26.3194L112.317 22.117C111.749 23.0897 110.848 23.8434 109.77 24.2224Z" fill="#FDB913"/>
<path fill-rule="evenodd" clip-rule="evenodd" d="M112.967 19.7108L112.963 19.8933L116.602 19.8133C116.412 18.3437 115.903 16.9667 115.145 15.754L111.955 16.7702C112.59 17.5815 112.967 18.6005 112.967 19.7108Z" fill="#FDB913"/>
<path fill-rule="evenodd" clip-rule="evenodd" d="M112.009 12.5441C110.914 11.8212 109.676 11.2893 108.342 11.0001L108.309 14.933C109.148 14.9541 109.934 15.1913 110.612 15.5913" fill="#FDB913"/>
<path fill-rule="evenodd" clip-rule="evenodd" d="M106.388 15.2812L103.597 11.0072C102.002 11.3595 100.544 12.0585 99.3086 13.0157L104.308 16.9178C104.829 16.1935 105.549 15.6223 106.388 15.2812Z" fill="#FDB913"/>
<path fill-rule="evenodd" clip-rule="evenodd" d="M103.408 19.7109C103.408 19.3895 103.438 19.0751 103.5 18.7719L95.5698 18.7467C95.3859 19.5088 95.2891 20.3019 95.2891 21.1174C95.2891 22.0143 95.407 22.8845 95.6273 23.7141L103.7 21.3616C103.511 20.8465 103.408 20.2906 103.408 19.7109Z" fill="#FDB913"/>
<path fill-rule="evenodd" clip-rule="evenodd" d="M23.6822 41.763L24.2395 37.0075C17.5892 39.0652 20.1634 29.4168 25.0199 31.4745L26.4305 26.6447C13.1776 23.5216 8.9008 45.8896 23.6822 41.763Z" fill="#005480"/>
<path fill-rule="evenodd" clip-rule="evenodd" d="M39.5806 26.7011C37.5369 25.6203 35.8175 27.0253 34.2693 29.709L35.0848 26.7011C32.4657 26.6744 29.8929 26.7404 27.4702 27.1095L26.7656 30.6761C27.6204 30.6677 28.4233 30.7898 29.1798 31.0284L27.1011 41.7268L32.5976 41.745C33.5254 35.4049 35.0596 31.02 38.1686 31.7162" fill="#005480"/>
<path fill-rule="evenodd" clip-rule="evenodd" d="M45.7268 30.5273C46.8483 29.9504 47.6764 30.975 46.9535 31.9028C46.197 32.7478 45.2074 33.0103 44.0551 32.8671C44.3344 31.8579 44.8523 31.0438 45.7268 30.5273ZM49.9615 36.8421C45.4025 38.2177 43.3406 37.9805 43.5357 36.2849C54.206 36.8421 55.2138 26.1298 46.7304 26.3305C36.7408 26.7923 32.1595 47.0436 49.9615 41.0389" fill="#005480"/>
<path fill-rule="evenodd" clip-rule="evenodd" d="M71.1727 25.9416C72.9974 25.9416 74.4782 24.4622 74.4782 22.6361C74.4782 20.81 72.9974 19.3292 71.1727 19.3292C69.3466 19.3292 67.8672 20.81 67.8672 22.6361C67.8672 24.4622 69.3466 25.9416 71.1727 25.9416Z" fill="#005480"/>
<path fill-rule="evenodd" clip-rule="evenodd" d="M65.174 27.2076L64.4609 30.7209C65.2863 30.6886 66.113 30.7995 66.9397 31.0156L64.7276 41.8052H70.227L72.9738 26.9466C70.161 26.6448 67.5334 26.6841 65.174 27.2076Z" fill="#005480"/>
<path fill-rule="evenodd" clip-rule="evenodd" d="M82.9159 30.2985L84.0303 26.3614C81.101 25.7746 78.5885 26.1789 76.4536 27.4758C74.3033 28.9215 73.2773 32.585 76.0705 35.1648C78.0987 36.7832 77.6229 38.2626 73.7419 37.0036L72.7383 41.4235C77.2425 42.3906 80.6897 41.5892 82.6183 38.2472C83.4366 36.1179 82.9299 34.3353 81.4688 32.7997C80.7655 32.0993 79.7872 31.6937 80.0188 30.8192C80.4329 29.8578 81.5235 29.8662 82.9159 30.2985Z" fill="#005480"/>
<path fill-rule="evenodd" clip-rule="evenodd" d="M90.2893 36.6736C89.7237 36.0419 89.7489 34.6566 90.4283 33.0607C91.3196 30.9468 92.559 30.0555 94.1436 30.3685C93.6706 33.6586 91.2396 37.5564 90.2893 36.6736ZM98.3194 37.1185L100.282 26.5886C98.7727 26.2489 97.2611 26.0384 95.7494 25.9949C86.2469 25.1681 83.2979 33.3189 84.3099 38.1979C85.1086 42.0606 89.2324 43.752 93.2622 38.494L92.406 41.2985L100.115 40.9546L100.788 37.4905" fill="#005480"/>
<path fill-rule="evenodd" clip-rule="evenodd" d="M61.34 26.7488C61.4916 25.9094 61.7189 25.2357 62.0249 24.757C62.2888 24.3542 62.6032 24.1001 62.9668 23.9808C63.4482 23.8349 64.0321 23.9471 64.7213 24.357L65.948 19.8247C64.8588 19.5777 63.7528 19.5005 62.6411 19.5272C58.8991 19.6535 56.5593 21.8866 55.988 26.7698L55.9599 26.9186H54.2236L53.2804 31.0045H55.1823L53.1302 41.7772C52.5828 44.2939 51.8684 44.7852 49.864 44.1171L48.6387 48.5749C50.0381 48.9679 51.5343 48.9988 53.1302 48.6493C55.8111 48.1061 57.6569 46.0344 58.5552 42.2236L60.5736 31.0045H62.9387L63.8805 26.9186H61.3091" fill="#005480"/>
</svg>
