<svg width="60" height="60" viewBox="0 0 60 60" fill="none" xmlns="http://www.w3.org/2000/svg">
<rect width="60" height="60" fill="#005480"/>
<path fill-rule="evenodd" clip-rule="evenodd" d="M22.6797 44.419C24.813 45.4049 27.2004 45.9539 29.7212 45.9539L30.2378 45.9474L32.5262 35.2011C31.1054 35.0935 29.8008 34.5811 28.7245 33.7782" fill="#FDB913"/>
<path fill-rule="evenodd" clip-rule="evenodd" d="M35.5215 34.812L38.5525 43.453C40.7547 42.0882 42.5996 40.2261 43.9149 38.0282L39.4286 31.583C38.5568 33.0748 37.1748 34.2308 35.5215 34.812Z" fill="#FDB913"/>
<path fill-rule="evenodd" clip-rule="evenodd" d="M40.4251 27.8924L40.4187 28.1723L46.0006 28.0496C45.7079 25.7957 44.9286 23.6839 43.7661 21.824L38.873 23.3825C39.8461 24.6268 40.4251 26.1896 40.4251 27.8924Z" fill="#FDB913"/>
<path fill-rule="evenodd" clip-rule="evenodd" d="M38.9538 16.9013C37.2747 15.7927 35.376 14.9768 33.331 14.5333L33.2793 20.5652C34.5666 20.5975 35.7721 20.9613 36.8119 21.5748" fill="#FDB913"/>
<path fill-rule="evenodd" clip-rule="evenodd" d="M30.3368 21.099L26.055 14.544C23.6096 15.0843 21.3729 16.1563 19.4785 17.6245L27.1464 23.609C27.9451 22.4982 29.0494 21.6221 30.3368 21.099Z" fill="#FDB913"/>
<path fill-rule="evenodd" clip-rule="evenodd" d="M25.7637 27.8927C25.7637 27.3998 25.8111 26.9176 25.9058 26.4526L13.743 26.4138C13.461 27.5827 13.3125 28.799 13.3125 30.0497C13.3125 31.4253 13.4933 32.76 13.8313 34.0322L26.2115 30.4243C25.923 29.6343 25.7637 28.7818 25.7637 27.8927Z" fill="#FDB913"/>
</svg>
