<svg width="130" height="60" viewBox="0 0 130 60" fill="none" xmlns="http://www.w3.org/2000/svg">
<rect width="130" height="60" fill="white"/>
<path fill-rule="evenodd" clip-rule="evenodd" d="M107.902 23.0305C107.885 23.0475 107.872 26.2305 107.872 30.1042V37.1474H108.124H108.375V30.0737V23H108.154C108.032 23 107.919 23.0137 107.902 23.0305ZM115.107 24.4961C114.691 24.584 114.282 25.1059 114.282 25.5496C114.282 26.8258 116.083 27.2027 116.6 26.0341C117.001 25.1282 116.17 24.2724 115.107 24.4961ZM50.3206 24.8793C50.283 24.9026 49.9712 25.0556 49.6278 25.2191C49.2845 25.3828 48.9908 25.5496 48.9754 25.5899C48.9389 25.6847 48.9397 33.3834 48.9759 33.5191C49.0031 33.6204 49.0155 33.6221 49.7308 33.6221H50.458L50.4585 31.7793C50.4594 29.5328 50.4877 29.3847 50.9997 28.9463C51.5153 28.5051 52.4191 28.5243 52.7183 28.9828C52.907 29.2726 52.9303 29.5674 52.9303 31.6618V33.6221H53.663H54.3956L54.394 31.3673C54.3921 28.9713 54.3808 28.8235 54.1671 28.4027C53.605 27.2953 52.0483 27.0626 50.6412 27.8758L50.5267 27.942L50.5017 26.3981C50.4879 25.549 50.4726 24.8493 50.4673 24.843C50.45 24.8216 50.3899 24.8367 50.3206 24.8793ZM65.7028 25.0751C65.4375 25.2056 65.1284 25.3529 65.0161 25.4026C64.9034 25.4523 64.7963 25.5141 64.7779 25.5399C64.7378 25.596 64.7306 33.4452 64.7705 33.5496C64.8081 33.6471 69.2045 33.6611 69.3369 33.5644C69.4056 33.5141 69.4141 33.4339 69.4028 32.9576L69.3899 32.4087L67.8332 32.3859L66.2767 32.3631L66.2649 28.6337C66.2586 26.5824 66.238 24.8894 66.219 24.8713C66.2003 24.8532 65.9679 24.9449 65.7028 25.0751ZM89.2298 25.0158C88.5466 25.3768 88.6831 26.3888 89.4394 26.5704C90.5055 26.8261 91.0464 25.4877 90.0753 24.9971C89.8712 24.8938 89.4424 24.9034 89.2298 25.0158ZM11.0129 25.3007C11.0011 25.3323 10.9964 27.2123 11.003 29.4787L11.0148 33.5993L12.4112 33.6136C15.1585 33.6413 16.0233 33.3463 16.9482 32.0653C17.6218 31.1327 17.8111 29.0221 17.3446 27.6472C17.0229 26.6989 16.1617 25.8086 15.3186 25.5523C14.8566 25.4116 14.6442 25.3688 14.1281 25.3114C13.3465 25.2246 11.045 25.2166 11.0129 25.3007ZM33.93 25.9113C32.8174 26.4366 32.9227 26.3322 32.9227 26.9126C32.9227 27.4912 32.9265 27.4871 32.387 27.4871H31.9612V28.0593V28.6315L32.3848 28.6323C32.6177 28.6326 32.8326 28.6485 32.8622 28.6675C32.9021 28.6925 32.9202 29.2111 32.9314 30.6239L32.9468 32.546L33.0674 32.8048C33.4251 33.571 34.2962 33.8946 35.4972 33.7075C36.2667 33.5877 36.3235 33.5482 36.2241 33.2023C36.1961 33.1059 36.1535 32.9496 36.1293 32.8551C36.0197 32.4296 36.0516 32.4636 35.7909 32.4963C34.3682 32.6749 34.3709 32.6785 34.35 30.4676C34.3421 29.6015 34.3476 28.8441 34.3624 28.785L34.3896 28.6774H35.1684H35.9472L35.9343 28.0936L35.9216 27.5099L35.1431 27.4871L34.3649 27.464L34.3525 26.6055C34.3456 26.1336 34.325 25.7476 34.3066 25.7482C34.2882 25.7487 34.1187 25.8223 33.93 25.9113ZM14.1429 26.5923C15.3802 26.8528 15.9818 27.7969 15.9818 29.4787C15.9815 31.5508 15.1316 32.4175 13.1397 32.3757L12.5257 32.3631L12.5139 29.4704C12.5029 26.744 12.5068 26.577 12.5826 26.5572C12.7795 26.5058 13.8451 26.5297 14.1429 26.5923ZM21.0188 27.3698C20.0752 27.5049 19.3917 27.9804 18.9827 28.7861C18.4943 29.7487 18.4852 31.2456 18.9621 32.2266C19.5381 33.4122 20.8996 33.9421 22.7357 33.6949C23.7087 33.5638 23.7579 33.5281 23.6266 33.0455C23.5722 32.8466 23.5134 32.6216 23.4958 32.546C23.4585 32.3864 23.4164 32.3834 22.5753 32.4768C21.0831 32.6425 20.4287 32.2782 20.212 31.1613L20.1831 31.0124L22.0775 31.0115C23.1195 31.0113 23.9999 30.9931 24.0345 30.9712C24.1189 30.9179 24.1271 29.8122 24.0458 29.4328C23.8178 28.37 23.2544 27.6934 22.3923 27.4475C22.2443 27.4055 21.4968 27.2972 21.435 27.309C21.4201 27.3118 21.2328 27.3393 21.0188 27.3698ZM58.0294 27.3483C56.0705 27.5719 55.0731 29.429 55.6678 31.745C55.8741 32.5488 56.6172 33.3059 57.4861 33.5974C58.4209 33.9111 60.6958 33.7116 60.5966 33.3246C60.5697 33.2185 60.5164 33.0221 60.4123 32.6449L60.3386 32.3774L60.1485 32.3999C58.0597 32.6469 57.4907 32.4661 57.1845 31.4582C57.0336 30.9626 56.8328 31.0124 58.9854 31.0115C60.0241 31.0113 60.9023 30.9931 60.9367 30.9712C61.0298 30.9121 60.9817 29.5386 60.8727 29.1353C60.5883 28.0867 59.8782 27.4912 58.7462 27.3516C58.533 27.3253 58.3476 27.3066 58.3341 27.3101C58.3209 27.3134 58.1838 27.3307 58.0294 27.3483ZM72.4117 27.3544C70.9102 27.5362 70.0226 28.593 69.9306 30.3083C69.799 32.7688 71.384 34.0731 74.0404 33.6908C75.0409 33.5468 75.0706 33.5237 74.9277 33.0026C74.8865 32.8523 74.8313 32.6502 74.8047 32.5537L74.7563 32.3779L74.5456 32.401C74.4294 32.4139 74.1286 32.4483 73.8767 32.4776C72.6361 32.6219 72.0304 32.4062 71.6958 31.7005C71.6203 31.5412 71.4777 31.1063 71.4736 31.0239C71.4733 31.0176 72.3265 31.0124 73.3693 31.0124C74.4124 31.0124 75.2983 30.9997 75.3382 30.9846C75.3994 30.961 75.4107 30.8596 75.4107 30.3322C75.4104 28.4823 74.7113 27.5593 73.1523 27.3516C72.9553 27.3253 72.7804 27.3063 72.7633 27.3096C72.746 27.3129 72.5881 27.3329 72.4117 27.3544ZM39.2409 27.3959C38.0349 27.5203 37.3421 28.1804 37.3435 29.204C37.3446 30.0921 37.7561 30.5489 38.8747 30.9039C39.0887 30.9717 39.3049 31.0423 39.3555 31.0604C39.4057 31.0786 39.5395 31.12 39.653 31.1525C40.4716 31.3871 40.7793 31.7598 40.5029 32.1818C40.2516 32.5656 38.9802 32.6051 37.9517 32.2612C37.5111 32.1139 37.5048 32.1172 37.3501 32.5521C37.2798 32.7502 37.2023 32.9482 37.1784 32.9919C36.9644 33.3823 37.9479 33.6899 39.4011 33.6875C41.2089 33.6844 42.0572 33.0869 42.0564 31.8173C42.0555 30.722 41.6962 30.4022 39.7675 29.7784C38.9176 29.5034 38.8044 29.4218 38.8093 29.0878C38.8181 28.493 39.8747 28.3546 41.3908 28.7496C41.5284 28.7853 41.6578 28.8147 41.6784 28.8147C41.699 28.8147 41.7102 28.5433 41.7031 28.2112L41.6905 27.6079L41.5531 27.5692C41.0144 27.4176 39.865 27.3313 39.2409 27.3959ZM78.3407 27.378C77.7611 27.4066 76.8224 27.5917 76.7375 27.6942C76.7084 27.7291 76.6946 27.9645 76.7026 28.2941C76.7166 28.8812 76.7468 28.9381 76.9847 28.8224C77.2853 28.6763 78.0575 28.54 78.5833 28.54C79.4843 28.54 79.8975 28.8254 79.8975 29.4479C79.8975 29.6498 79.8296 29.6693 79.0275 29.6987C78.6371 29.7133 78.2355 29.7484 78.1347 29.7773C78.0341 29.8061 77.8693 29.8526 77.7685 29.8803C75.7884 30.4275 75.698 33.243 77.6465 33.6734C78.2781 33.813 78.9398 33.7427 79.5464 33.4715C79.8744 33.3251 79.9409 33.3369 79.9425 33.5419C79.9436 33.6578 81.2905 33.6652 81.3347 33.5496C81.3842 33.421 81.3652 29.3899 81.3136 29.0183C81.1413 27.7793 80.2428 27.2835 78.3407 27.378ZM84.7048 27.3791C83.4445 27.4714 82.6731 28.1645 82.6742 29.204C82.6753 30.1284 83.0692 30.5388 84.3469 30.9473C85.5215 31.3225 85.713 31.4049 85.8322 31.5868C86.3641 32.3985 84.8026 32.787 83.1805 32.2463C82.814 32.1244 82.8418 32.1032 82.6283 32.6628C82.4168 33.2169 82.4176 33.2364 82.6561 33.3399C83.7475 33.8152 85.4762 33.8339 86.4346 33.3809C87.0992 33.0666 87.3791 32.6032 87.381 31.8137C87.3832 30.8725 86.9937 30.4253 85.8264 30.0286C85.6251 29.9602 85.4191 29.8885 85.3688 29.8693C85.3182 29.8501 85.102 29.7767 84.888 29.7064C84.1384 29.4597 83.9557 29.2281 84.1972 28.8317C84.4167 28.4719 85.5185 28.4326 86.6945 28.7427C86.8448 28.7823 86.9838 28.8147 87.0036 28.8147C87.0236 28.8147 87.0398 28.5408 87.0398 28.206V27.5975L86.7536 27.539C86.5962 27.5068 86.3748 27.4626 86.2616 27.4409C86.0295 27.3961 85.0194 27.356 84.7048 27.3791ZM95.2351 27.3796C94.7654 27.4244 94.3514 27.5722 93.9468 27.8401C93.7341 27.9807 93.6787 27.9497 93.6787 27.6903V27.4871H92.9688H92.2592V30.4995C92.2592 32.7817 92.2724 33.5254 92.3142 33.5671C92.3837 33.6366 93.5537 33.6432 93.6817 33.5745C93.7668 33.5289 93.7701 33.4589 93.7701 31.6173V29.7075L93.9012 29.4309C94.3467 28.4889 95.7129 28.3197 96.0919 29.1597C96.1661 29.3243 96.1752 29.5424 96.1878 31.4829L96.2018 33.6243L96.9202 33.6119L97.6388 33.5993L97.6509 31.4472C97.6575 30.2638 97.644 29.157 97.6207 28.9878C97.4724 27.9128 96.5018 27.2588 95.2351 27.3796ZM101.004 27.3972C100.176 27.5093 99.495 28.0035 99.1113 28.7699C98.5978 29.7954 98.5863 31.3585 99.0849 32.3799C99.3816 32.9881 99.9653 33.4328 100.684 33.5982C101.361 33.7537 102.424 33.563 102.695 33.2372C102.852 33.0479 102.894 33.143 102.872 33.6336C102.84 34.3643 102.603 34.6698 101.925 34.8561C101.551 34.9591 100.158 34.8931 99.8972 34.7605C99.7777 34.6995 99.6846 34.7605 99.6544 34.9192C99.6178 35.1132 99.5442 35.4362 99.4873 35.6524C99.4329 35.8596 99.4343 35.8615 99.6612 35.9145C100.388 36.0845 101.834 36.1554 102.32 36.0447C103.45 35.7868 103.988 35.3423 104.282 34.4234C104.365 34.163 104.369 33.9759 104.369 30.8291V27.5099L103.673 27.4972L102.976 27.4846L102.94 27.6236L102.904 27.7623L102.736 27.6722C102.298 27.4373 101.565 27.3211 101.004 27.3972ZM45.2616 27.4651C43.7461 27.7898 42.9926 28.8147 42.997 30.5454C43.0011 32.2496 43.7082 33.26 45.1345 33.5987C45.869 33.7732 47.7601 33.5979 47.8966 33.343C47.9268 33.2861 47.8997 33.1405 47.8024 32.843C47.7269 32.6123 47.6653 32.3966 47.6653 32.3636C47.6653 32.2615 47.5266 32.2444 47.2588 32.3136C45.4408 32.7831 44.5908 32.2175 44.5815 30.5316L44.5774 29.799L44.7488 29.4454C45.1248 28.6705 46.0273 28.4062 47.2497 28.7136C47.4615 28.7669 47.6521 28.7999 47.673 28.787C47.7373 28.7474 47.7194 27.6876 47.6538 27.6381C47.3766 27.4294 45.9207 27.3239 45.2616 27.4651ZM25.3864 27.5513C25.3207 27.7228 25.399 32.1782 25.4715 32.3914C25.938 33.7627 27.7541 34.1657 29.1295 33.2034C29.2974 33.0861 29.3056 33.0916 29.3056 33.3188C29.3056 33.613 29.3408 33.6265 30.0674 33.6119L30.7022 33.5993L30.714 30.5432L30.7256 27.4871H29.9899H29.2542L29.2636 29.3985C29.2737 31.5008 29.2773 31.4703 28.9814 31.9076C28.5084 32.607 27.3307 32.6861 26.9775 32.0425C26.9113 31.9222 26.8992 31.634 26.8791 29.7075L26.8563 27.5099L26.1341 27.4972C25.5355 27.4868 25.4078 27.4961 25.3864 27.5513ZM88.2606 27.5175C88.2043 27.5741 88.2271 28.3812 88.2875 28.4584C88.3279 28.5103 88.4422 28.5367 88.6793 28.5491C88.9084 28.5609 89.0273 28.5873 89.0564 28.6331C89.0809 28.6721 89.099 29.732 89.0993 31.1613L89.1001 33.6221H89.8328H90.5651V30.5544V27.4871H89.4281C88.8029 27.4871 88.2777 27.5008 88.2606 27.5175ZM112.555 27.5835C111.897 27.8362 111.809 28.1057 111.809 29.8616V31.2412H114.593C117.732 31.2412 117.486 31.2077 117.486 31.6392V31.9274L114.659 31.9392L111.832 31.951L111.818 32.2645C111.794 32.8252 112.036 33.2603 112.493 33.4762C112.741 33.5938 118.248 33.5941 118.494 33.4768C119.102 33.185 119.186 32.9029 119.17 31.1956L119.158 29.8449L116.319 29.8221L113.48 29.799L113.467 29.532C113.444 29.1004 113.193 29.1353 116.342 29.1353C118.837 29.1353 119.128 29.1276 119.153 29.0628C119.37 28.4974 118.976 27.7881 118.31 27.5467C118.005 27.4354 112.854 27.4684 112.555 27.5835ZM21.9487 28.5573C22.3179 28.7205 22.5154 29.0738 22.5399 29.616L22.5525 29.8907L21.388 29.9028C20.07 29.9168 20.1255 29.9328 20.2183 29.568C20.4546 28.6389 21.1779 28.2164 21.9487 28.5573ZM58.7604 28.5216C59.1785 28.6642 59.4318 29.0812 59.4318 29.6273V29.9135H58.2393H57.0468L57.0765 29.7418C57.2493 28.7436 57.941 28.2425 58.7604 28.5216ZM73.1685 28.5219C73.5701 28.6532 73.7792 28.9576 73.8468 29.5086C73.8696 29.6935 73.8792 29.8602 73.8682 29.8792C73.8201 29.963 71.473 29.9179 71.4736 29.8333C71.4799 28.9051 72.3298 28.2474 73.1685 28.5219ZM102.401 28.7488C102.526 28.81 102.681 28.9004 102.744 28.9493L102.858 29.0386L102.858 30.2201L102.857 31.4016L102.737 31.6533C102.206 32.76 100.82 32.7304 100.442 31.6044C99.8175 29.7468 100.978 28.0554 102.401 28.7488ZM79.8414 31.4195C79.8563 32.1746 79.8516 32.1859 79.4626 32.3653C78.483 32.8166 77.6531 32.5013 77.7105 31.6991C77.7602 31.0027 78.2242 30.7426 79.3939 30.7558L79.8288 30.7605L79.8414 31.4195Z" fill="#EC0606"/>
</svg>
