<svg width="60" height="60" viewBox="0 0 60 60" fill="none" xmlns="http://www.w3.org/2000/svg">
<rect width="60" height="60" fill="#EC0606"/>
<path fill-rule="evenodd" clip-rule="evenodd" d="M27.9193 12.1383C26.2869 12.4763 24.6846 14.4827 24.6846 16.1883C24.6846 21.0946 31.7425 22.5435 33.7666 18.0511C35.3366 14.5683 32.0826 11.2787 27.9193 12.1383ZM17.9215 24.0072C15.3454 24.9787 15 26.0147 15 32.7649V38.0684H25.9038C38.199 38.0684 37.238 37.9396 37.238 39.5986V40.7064L26.1642 40.7518L15.0893 40.7972L15.0355 42.0021C14.9408 44.1575 15.8888 45.8303 17.6783 46.6603C18.6511 47.1123 40.223 47.1134 41.184 46.6625C43.5675 45.5409 43.8957 44.4564 43.8333 37.8931L43.7848 32.7005L32.6647 32.6129L21.5457 32.5242L21.4919 31.4977C21.4037 29.8387 20.4191 29.9728 32.7573 29.9728C42.5302 29.9728 43.6675 29.9432 43.7655 29.694C44.6156 27.5206 43.0725 24.7939 40.4662 23.8657C39.2686 23.438 19.0934 23.5647 17.9215 24.0072Z" fill="white"/>
</svg>
