<svg width="60" height="60" viewBox="0 0 60 60" fill="none" xmlns="http://www.w3.org/2000/svg">
<rect width="60" height="60" fill="#23292E"/>
<path d="M40.2996 24.4558C40.2996 24.7422 40.1856 25.0169 39.9827 25.2194C39.7798 25.4218 39.5046 25.5355 39.2177 25.5353C38.6206 25.535 38.1368 25.0515 38.137 24.4554C38.1372 23.8593 38.6214 23.3762 39.2185 23.3763C39.8156 23.3764 40.2996 23.8597 40.2996 24.4558ZM24.1778 23.3678C24.1778 24.0009 23.6638 24.5142 23.0296 24.5142C22.3954 24.5142 21.8813 24.0009 21.8813 23.3678C21.8813 22.7347 22.3954 22.2214 23.0296 22.2214C23.6638 22.2214 24.1778 22.7347 24.1778 23.3678Z" fill="#00A0E6"/>
<path d="M18.0476 19C17.8418 18.9981 17.6438 19.0788 17.4983 19.2241C17.3527 19.3695 17.2718 19.5671 17.2738 19.7726V24.149C15.7295 22.5879 13.3936 22.1127 11.3605 22.946C9.32749 23.7794 8 25.7562 8 27.9503C8 30.1444 9.32749 32.1213 11.3605 32.9546C13.3936 33.788 15.7295 33.3128 17.2738 31.7517V32.5844C17.2738 33.0112 17.6204 33.3573 18.0479 33.3573C18.4755 33.3573 18.8221 33.0112 18.8221 32.5844V19.7726C18.824 19.567 18.743 19.3693 18.5974 19.2239C18.4517 19.0786 18.2536 18.9979 18.0476 19ZM13.4041 31.8118C11.2669 31.8118 9.5344 30.0822 9.5344 27.9485C9.5344 25.8148 11.2669 24.0851 13.4041 24.0851C15.5413 24.0851 17.2738 25.8148 17.2738 27.9485C17.2738 30.1738 15.4784 31.8118 13.4041 31.8118ZM23.0813 25.6862C23.2872 25.684 23.4852 25.7647 23.6308 25.9101C23.7764 26.0554 23.8572 26.2532 23.8551 26.4587V32.6178C23.8551 33.0445 23.5087 33.3904 23.0813 33.3904C22.6539 33.3904 22.3075 33.0445 22.3075 32.6178V26.4587C22.3055 26.2532 22.3864 26.0556 22.5319 25.9103C22.6775 25.7649 22.8755 25.6842 23.0813 25.6862ZM39.1738 26.6605L39.1701 26.6587C39.3646 26.6562 39.5519 26.7323 39.6895 26.8696C39.827 27.0069 39.9032 27.1939 39.9007 27.3881V33.1916C39.92 33.4639 39.7855 33.7241 39.552 33.8661C39.3186 34.0081 39.0253 34.0081 38.7918 33.8661C38.5584 33.7241 38.4239 33.4639 38.4432 33.1916V27.3899C38.4407 27.1957 38.5169 27.0088 38.6544 26.8714C38.792 26.7341 38.9792 26.658 39.1738 26.6605ZM47.6224 23.7411C44.8044 23.7414 42.5203 26.0223 42.5205 28.8357C42.5207 31.6491 44.8053 33.9296 47.6233 33.9295C50.4413 33.9294 52.7256 31.6487 52.7256 28.8353C52.729 27.4831 52.1925 26.1853 51.2347 25.2292C50.2769 24.2731 48.9769 23.7375 47.6224 23.7411ZM47.6224 32.4744C45.6093 32.4744 43.9774 30.8451 43.9774 28.8353C43.9774 26.8255 45.6093 25.1962 47.6224 25.1962C49.6355 25.1962 51.2675 26.8255 51.2675 28.8353C51.2668 30.8448 49.6353 32.4737 47.6224 32.4744ZM35.6097 24.4705C35.6122 24.2763 35.536 24.0894 35.3985 23.952C35.2609 23.8147 35.0737 23.7386 34.8791 23.7411H30.6058H30.5857H30.5066C28.3001 23.7449 26.346 25.1642 25.6632 27.2589C24.9805 29.3537 25.7236 31.6492 27.5053 32.9487C29.2869 34.2482 31.7034 34.2572 33.4947 32.971C34.3505 34.1955 34.3701 35.8178 33.5441 37.0626C32.7181 38.3074 31.2141 38.9219 29.7509 38.6126C28.2877 38.3033 27.1624 37.1328 26.9126 35.6606C26.8305 35.2832 26.4678 35.0351 26.0856 35.0949C25.7033 35.1547 25.4341 35.5017 25.4716 35.8861C25.8833 38.4021 28.0986 40.224 30.6508 40.1458C33.3096 40.0735 35.4971 37.9224 35.6055 35.2698C35.6588 34.0727 35.2866 32.8953 34.5546 31.9456C36.1227 29.8995 35.9213 27.0084 34.0846 25.1987H34.8804C35.0749 25.2012 35.2621 25.1251 35.3997 24.9878C35.5373 24.8505 35.6134 24.6635 35.611 24.4693L35.6097 24.4705ZM34.1498 28.8359C34.1498 30.8457 32.5178 32.475 30.5047 32.475C28.4916 32.475 26.8597 30.8457 26.8597 28.8359C26.8597 26.8261 28.4916 25.1969 30.5047 25.1969C32.5175 25.1975 34.1491 26.8264 34.1498 28.8359Z" fill="white"/>
</svg>
