<svg width="60" height="60" viewBox="0 0 60 60" fill="none" xmlns="http://www.w3.org/2000/svg">
<rect width="60" height="60" fill="white"/>
<path d="M42.9565 19.4375L37.8151 10.4397C37.3129 9.55187 36.3563 9 35.352 9H25.0691C24.0408 9 23.1082 9.55187 22.606 10.4397L17.4645 19.4375C16.9623 20.3253 16.9623 21.429 17.4645 22.3168L22.606 31.3147C23.1082 32.2024 24.0647 32.7543 25.0691 32.7543H28.7996L30.2105 30.2829H25.0691C24.9256 30.2829 24.7821 30.2109 24.7104 30.067L19.5689 21.0691C19.4972 20.9491 19.4972 20.7812 19.5689 20.6612L24.7104 11.6634C24.7821 11.5434 24.9256 11.4474 25.0691 11.4474H35.352C35.4955 11.4474 35.6389 11.5194 35.7107 11.6634L40.8521 20.6612C40.9239 20.7812 40.9239 20.9491 40.8521 21.0691L37.8629 26.2999H40.6847L42.9804 22.3168C43.4826 21.429 43.4826 20.3253 42.9565 19.4375Z" fill="#0788FE"/>
<path d="M33.8925 36.7373L31.5968 32.7543H28.775L31.7642 37.985C31.836 38.105 31.836 38.273 31.7642 38.3929L26.6228 47.3908C26.551 47.5107 26.4076 47.6067 26.2641 47.6067H15.9812C15.8377 47.6067 15.6942 47.5347 15.6225 47.3908L10.481 38.3929C10.4093 38.273 10.4093 38.105 10.481 37.985L15.6225 28.9872C15.6942 28.8672 15.8377 28.7712 15.9812 28.7712H21.1226L19.7117 26.2998H16.0051C14.9768 26.2998 14.0442 26.8517 13.542 27.7395L8.37664 36.7373C7.87445 37.6251 7.87445 38.7288 8.37664 39.6166L13.5181 48.6145C14.0203 49.5023 14.9768 50.0541 15.9812 50.0541H26.2641C27.2924 50.0541 28.225 49.5023 28.7272 48.6145L33.8686 39.6166C34.4186 38.7288 34.4186 37.6251 33.8925 36.7373Z" fill="#A06FFE"/>
<path d="M52.019 36.7374L46.8776 27.7635C46.3754 26.8757 45.4188 26.3239 44.4145 26.3239H34.1316C33.1033 26.3239 32.1707 26.8757 31.6685 27.7635L28.7988 32.7543H31.6206L33.7729 28.9872C33.8446 28.8673 33.9881 28.7713 34.1316 28.7713H44.4145C44.558 28.7713 44.7014 28.8433 44.7732 28.9872L49.9146 37.9851C49.9864 38.105 49.9864 38.273 49.9146 38.393L44.7732 47.3908C44.7014 47.5108 44.558 47.6068 44.4145 47.6068H34.1316C33.9881 47.6068 33.8446 47.5348 33.7729 47.3908L31.6206 43.6477L30.2097 46.1191L31.6685 48.6385C32.1707 49.5263 33.1272 50.0782 34.1316 50.0782H44.4145C45.4428 50.0782 46.3754 49.5263 46.8776 48.6385L52.019 39.6407C52.5451 38.7289 52.5451 37.6252 52.019 36.7374Z" fill="#00D9CB"/>
</svg>
