<svg width="60" height="60" viewBox="0 0 60 60" fill="none" xmlns="http://www.w3.org/2000/svg">
<rect width="60" height="60" fill="white"/>
<path d="M28.8118 10C28.0328 10 27.098 10.1169 26.6307 10.1948C23.7874 10.6625 21.061 11.7926 18.724 13.3903C15.1018 15.8454 12.3364 19.5475 10.9732 23.7172C9.3763 28.6274 9.76579 34.1221 11.9859 38.7205C14.1281 43.0851 17.9061 46.6702 22.3852 48.5018C26.1633 50.0606 30.4087 50.4113 34.3815 49.515C39.2112 48.4239 43.5345 45.5012 46.3778 41.4873C48.481 38.4867 49.7663 34.8625 50 31.1994C50 30.8876 49.9221 30.5759 49.6884 30.3421C49.4547 30.1082 49.1821 29.9913 48.8705 29.9913H48.6757C47.2736 29.9913 45.1314 29.9913 43.8461 29.9913C43.2618 29.9913 42.7555 30.459 42.7166 31.0435C42.6776 31.745 42.5608 32.4074 42.366 33.0699C41.587 36.1485 39.6006 38.9153 36.9521 40.669C34.2257 42.4226 30.8371 43.0851 27.6823 42.5005C24.5274 41.916 21.6452 40.0454 19.7367 37.4735C18.1788 35.3301 17.3219 32.6412 17.3219 29.9913C17.3219 26.523 18.8019 23.1327 21.2947 20.7556C23.3979 18.7681 26.1243 17.5601 29.0065 17.3263C29.5908 17.2873 30.0582 16.7807 30.0582 16.1961V15.8454C30.0582 14.4815 30.0582 12.494 30.0582 11.2081C30.0582 10.8963 29.9413 10.5845 29.7076 10.3507C29.435 10.1169 29.1234 10 28.8118 10ZM50 16.4689C50 12.9227 47.1178 10.039 43.5734 10.039C40.0291 10.039 37.1469 12.9227 37.1469 16.4689C37.1469 20.0151 40.0291 22.8989 43.5734 22.8989C47.1178 22.8989 50 20.0151 50 16.4689Z" fill="#FE3E6D"/>
</svg>
