<svg width="130" height="60" viewBox="0 0 130 60" fill="none" xmlns="http://www.w3.org/2000/svg">
<rect width="130" height="60" fill="white"/>
<path d="M115.977 30.3126V38.6825C115.977 39.0551 115.679 39.3531 115.306 39.3531H112.825C112.452 39.3531 112.155 39.0551 112.155 38.6825V37.3662C110.591 38.5087 108.68 39.2041 106.62 39.2041C101.433 39.2041 97.2393 34.957 97.2393 29.7165C97.2393 24.4759 101.433 20.2289 106.62 20.2289C108.705 20.2289 110.616 20.8995 112.155 22.0668V20.8995C112.155 20.5269 112.452 20.2289 112.825 20.2289H115.306C115.679 20.2289 115.977 20.5269 115.977 20.8995V29.0956C116.001 29.2943 116.001 29.4929 116.001 29.7165C116.001 29.8903 116.001 30.089 115.977 30.3126ZM90.5138 38.4838C90.5138 38.757 90.2904 38.9557 90.0422 38.9557H87.1138C86.8408 38.9557 86.6422 38.7322 86.6422 38.4838V20.9988C86.6422 20.7256 86.8656 20.5269 87.1138 20.5269H90.0422C90.3152 20.5269 90.5138 20.7504 90.5138 20.9988V21.9923C91.9532 20.9243 93.7152 20.2785 95.6013 20.204C95.6013 20.204 95.6013 20.204 95.6262 20.204C95.8495 20.204 95.9984 20.3779 95.9984 20.5766V23.8054C95.9984 23.9792 95.8743 24.1034 95.7006 24.1034C92.797 24.2524 90.4889 26.6864 90.4889 29.6668V38.4838H90.5138ZM63.4627 22.4642C63.6116 22.5884 63.6116 22.8119 63.4875 22.9361L61.4276 25.1962C61.2539 25.3949 60.9313 25.4197 60.7079 25.2459C60.7079 25.2459 60.7079 25.2459 60.6831 25.2459C59.7401 24.5256 58.5736 24.1034 57.3576 24.1034C54.3298 24.1034 51.8729 26.5871 51.8729 29.6668C51.8729 32.7465 54.3298 35.2302 57.3576 35.2302C58.4495 35.2302 59.4919 34.9073 60.3605 34.3113C60.5839 34.1622 60.8817 34.2119 61.0554 34.4106L62.8919 36.7701C62.8919 36.7701 62.8919 36.7701 62.8919 36.7949C63.0408 36.9936 62.9911 37.2668 62.7926 37.391C61.2291 38.5335 59.343 39.1544 57.3576 39.1544C52.1707 39.1544 47.9766 34.9073 47.9766 29.6668C47.9766 24.4263 52.1707 20.1792 57.3576 20.1792C59.6408 20.204 61.7751 20.9988 63.4627 22.4642ZM74.432 39.1792C69.2452 39.1792 65.051 34.9322 65.051 29.6916C65.051 24.4511 69.2452 20.204 74.432 20.204C79.6189 20.204 83.813 24.4511 83.813 29.6916C83.7882 34.9322 79.5941 39.1792 74.432 39.1792ZM74.432 35.2551C77.4598 35.2551 79.9167 32.7714 79.9167 29.6916C79.9167 26.6119 77.4598 24.1282 74.432 24.1282C71.4043 24.1282 68.9474 26.6119 68.9474 29.6916C68.9225 32.7714 71.3795 35.2551 74.432 35.2551ZM106.62 35.2551C109.648 35.2551 112.105 32.7714 112.105 29.6916C112.105 26.6119 109.648 24.1282 106.62 24.1282C103.593 24.1282 101.136 26.6119 101.136 29.6916C101.136 32.7714 103.593 35.2551 106.62 35.2551Z" fill="#202020"/>
<path d="M25.9865 17C25.4902 17 24.8946 17.0745 24.5967 17.1242C22.7851 17.4222 21.0478 18.1425 19.5588 19.1608C17.2508 20.7255 15.4887 23.085 14.6201 25.7425C13.6026 28.8719 13.8508 32.3739 15.2654 35.3046C16.6303 38.0863 19.0376 40.3713 21.8916 41.5386C24.2989 42.5321 27.004 42.7556 29.5354 42.1844C32.6128 41.4889 35.3675 39.6262 37.1792 37.068C38.5194 35.1556 39.3383 32.8458 39.4872 30.5111C39.4872 30.3125 39.4376 30.1138 39.2887 29.9647C39.1398 29.8157 38.9661 29.7412 38.7675 29.7412H38.6435C37.75 29.7412 36.3851 29.7412 35.5661 29.7412C35.1938 29.7412 34.8712 30.0392 34.8464 30.4118C34.8216 30.8589 34.7471 31.2811 34.623 31.7033C34.1267 33.6654 32.861 35.4288 31.1734 36.5465C29.4362 37.6641 27.277 38.0863 25.2668 37.7138C23.2566 37.3412 21.4201 36.1491 20.204 34.5098C19.2113 33.1438 18.6654 31.4301 18.6654 29.7412C18.6654 27.5307 19.6084 25.37 21.1967 23.8549C22.5369 22.5883 24.2741 21.8183 26.1106 21.6693C26.4829 21.6445 26.7807 21.3216 26.7807 20.949V20.7255C26.7807 19.8562 26.7807 18.5895 26.7807 17.7699C26.7807 17.5712 26.7062 17.3725 26.5573 17.2235C26.3836 17.0745 26.1851 17 25.9865 17ZM39.4872 21.1229C39.4872 18.8627 37.6508 17.0248 35.3924 17.0248C33.134 17.0248 31.2975 18.8627 31.2975 21.1229C31.2975 23.383 33.134 25.2209 35.3924 25.2209C37.6508 25.2209 39.4872 23.383 39.4872 21.1229Z" fill="#FE3E6D"/>
</svg>
