<svg width="130" height="60" viewBox="0 0 130 60" fill="none" xmlns="http://www.w3.org/2000/svg">
<rect width="130" height="60" fill="white"/>
<path d="M63.9248 33.1746L60.6768 39.5293C60.2357 40.3805 59.7561 41.334 59.3981 42.1787C59.0848 41.4876 58.65 40.6109 58.0874 39.5293L54.7882 33.1746H53.2793L52.1987 45.7497H54.3087L54.801 40.0733C54.8394 39.6573 54.9033 38.9726 54.9544 38.2494C55.2741 38.9278 55.5938 39.6445 55.9199 40.2205L58.829 45.8456H59.8073L62.6781 40.2205C62.9913 39.5805 63.3558 38.8765 63.6691 38.2174C63.6691 38.7677 63.7522 39.3821 63.8033 40.0669L64.3276 45.7497H66.5527L65.4337 33.1746H63.9248Z" fill="#1D1D1B"/>
<path d="M79.3589 39.4461C79.3785 40.0247 79.2822 40.6013 79.0755 41.1419C78.8688 41.6825 78.5559 42.1762 78.1554 42.5938C77.7549 43.0114 77.2748 43.3445 76.7435 43.5732C76.2123 43.802 75.6406 43.9219 75.0623 43.9259C74.4816 43.929 73.9063 43.814 73.3714 43.5878C72.8365 43.3616 72.3532 43.0288 71.9507 42.6098C71.5483 42.1909 71.2351 41.6944 71.0303 41.1505C70.8255 40.6067 70.7333 40.0268 70.7593 39.4461C70.7377 38.8684 70.8332 38.2924 71.0401 37.7526C71.247 37.2129 71.5609 36.7206 71.963 36.3056C72.3651 35.8906 72.847 35.5614 73.3797 35.3378C73.9123 35.1143 74.4847 35.0011 75.0623 35.0049C75.6373 35.009 76.2057 35.1277 76.7344 35.3541C77.263 35.5805 77.7413 35.91 78.1413 36.3235C78.5413 36.7369 78.855 37.226 79.064 37.7622C79.2731 38.2983 79.3733 38.8708 79.3589 39.4461ZM75.0623 32.9187C73.7776 32.9414 72.5282 33.3434 71.471 34.0743C70.4137 34.8052 69.5958 35.8324 69.1198 37.027C68.6438 38.2215 68.5309 39.5303 68.7954 40.7888C69.0599 42.0473 69.6899 43.1995 70.6064 44.1009C71.5229 45.0023 72.685 45.6127 73.9468 45.8554C75.2086 46.0981 76.514 45.9623 77.6989 45.465C78.8839 44.9677 79.8957 44.1312 80.6074 43.0604C81.319 41.9896 81.6988 40.7322 81.699 39.4461C81.7 38.5789 81.5281 37.7202 81.1935 36.9202C80.8589 36.1203 80.3683 35.3952 79.7502 34.7873C79.1322 34.1795 78.3993 33.7012 77.5944 33.3803C76.7894 33.0594 75.9286 32.9025 75.0623 32.9187Z" fill="#1D1D1B"/>
<path d="M108.112 45.7497H115.752V43.6954H110.433V33.1746H108.112V45.7497Z" fill="#1D1D1B"/>
<path d="M85.8999 35.2161H87.249C89.5379 35.2161 91.9803 36.3296 91.9803 39.4654C91.9803 42.6011 89.5379 43.7146 87.249 43.7146H85.9191L85.8999 35.2161ZM87.5431 33.1746H83.5981V45.7497H87.5431C90.9126 45.7497 94.3268 43.5866 94.3268 39.4654C94.3268 35.3441 90.9126 33.1746 87.5431 33.1746Z" fill="#1D1D1B"/>
<path d="M102.39 42.0059H98.5533C98.5533 42.0059 100.376 37.5775 100.471 37.2511C100.574 37.5519 102.39 42.0059 102.39 42.0059ZM100.037 33.0018L94.6787 45.7497H96.9996L97.7669 43.9322H103.227L103.988 45.7497H106.379L101.021 33.0018H100.037Z" fill="#1D1D1B"/>
<mask id="mask0_48_21" style="mask-type:luminance" maskUnits="userSpaceOnUse" x="15" y="24" width="11" height="22">
<path d="M15 35.248L25.5624 24.7272V35.2416L15 45.7624V35.248Z" fill="white"/>
</mask>
<g mask="url(#mask0_48_21)">
<path d="M25.5624 24.7272H15V45.7624H25.5624V24.7272Z" fill="url(#paint0_linear_48_21)"/>
</g>
<mask id="mask1_48_21" style="mask-type:luminance" maskUnits="userSpaceOnUse" x="25" y="20" width="16" height="26">
<path d="M25.5688 35.248L40.7795 20.0812V30.5956L25.5688 45.7624V35.248Z" fill="white"/>
</mask>
<g mask="url(#mask1_48_21)">
<path d="M40.7795 20.0812H25.5688V45.7688H40.7795V20.0812Z" fill="url(#paint1_linear_48_21)"/>
</g>
<mask id="mask2_48_21" style="mask-type:luminance" maskUnits="userSpaceOnUse" x="36" y="15" width="21" height="31">
<path d="M36.1118 35.248L56.3416 15V25.5144L36.1118 45.7624V35.248Z" fill="white"/>
</mask>
<g mask="url(#mask2_48_21)">
<path d="M56.3416 15H36.1118V45.7624H56.3416V15Z" fill="url(#paint2_linear_48_21)"/>
</g>
<defs>
<linearGradient id="paint0_linear_48_21" x1="15.5598" y1="35.7857" x2="26.1223" y2="35.7857" gradientUnits="userSpaceOnUse">
<stop stop-color="#547524"/>
<stop offset="1" stop-color="#8CAD34"/>
</linearGradient>
<linearGradient id="paint1_linear_48_21" x1="24.4782" y1="31.748" x2="39.6889" y2="31.748" gradientUnits="userSpaceOnUse">
<stop stop-color="#006E69"/>
<stop offset="1" stop-color="#2B9E8F"/>
</linearGradient>
<linearGradient id="paint2_linear_48_21" x1="35.709" y1="30.0079" x2="55.9387" y2="30.0079" gradientUnits="userSpaceOnUse">
<stop stop-color="#156E55"/>
<stop offset="1" stop-color="#3F9E71"/>
</linearGradient>
</defs>
</svg>
