<svg width="60" height="60" viewBox="0 0 60 60" fill="none" xmlns="http://www.w3.org/2000/svg">
<rect width="60" height="60" fill="white"/>
<mask id="mask0_48_20" style="mask-type:luminance" maskUnits="userSpaceOnUse" x="9" y="24" width="11" height="22">
<path d="M9 35.248L19.5624 24.7272V35.2416L9 45.7624V35.248Z" fill="white"/>
</mask>
<g mask="url(#mask0_48_20)">
<path d="M19.5624 24.7272H9V45.7624H19.5624V24.7272Z" fill="url(#paint0_linear_48_20)"/>
</g>
<mask id="mask1_48_20" style="mask-type:luminance" maskUnits="userSpaceOnUse" x="19" y="20" width="16" height="26">
<path d="M19.5688 35.248L34.7795 20.0812V30.5956L19.5688 45.7624V35.248Z" fill="white"/>
</mask>
<g mask="url(#mask1_48_20)">
<path d="M34.7795 20.0812H19.5688V45.7688H34.7795V20.0812Z" fill="url(#paint1_linear_48_20)"/>
</g>
<mask id="mask2_48_20" style="mask-type:luminance" maskUnits="userSpaceOnUse" x="30" y="15" width="21" height="31">
<path d="M30.1118 35.248L50.3416 15V25.5144L30.1118 45.7624V35.248Z" fill="white"/>
</mask>
<g mask="url(#mask2_48_20)">
<path d="M50.3416 15H30.1118V45.7624H50.3416V15Z" fill="url(#paint2_linear_48_20)"/>
</g>
<defs>
<linearGradient id="paint0_linear_48_20" x1="9.55984" y1="35.7857" x2="20.1223" y2="35.7857" gradientUnits="userSpaceOnUse">
<stop stop-color="#547524"/>
<stop offset="1" stop-color="#8CAD34"/>
</linearGradient>
<linearGradient id="paint1_linear_48_20" x1="18.4782" y1="31.748" x2="33.6889" y2="31.748" gradientUnits="userSpaceOnUse">
<stop stop-color="#006E69"/>
<stop offset="1" stop-color="#2B9E8F"/>
</linearGradient>
<linearGradient id="paint2_linear_48_20" x1="29.709" y1="30.0079" x2="49.9387" y2="30.0079" gradientUnits="userSpaceOnUse">
<stop stop-color="#156E55"/>
<stop offset="1" stop-color="#3F9E71"/>
</linearGradient>
</defs>
</svg>
