<svg width="60" height="60" viewBox="0 0 60 60" fill="none" xmlns="http://www.w3.org/2000/svg">
<rect width="60" height="60" fill="#004831"/>
<path d="M34.7514 32.5098V12.8058C34.7514 12.611 34.8396 12.4762 35.016 12.4015L42.8999 9.01663C42.9909 8.97728 43.0365 9.00777 43.0365 9.10811V29.4113C43.0365 29.5391 42.9793 29.6277 42.865 29.6768L34.8968 33.0883C34.8781 33.0964 34.858 33.1006 34.8377 33.1007C34.8174 33.1008 34.7973 33.0967 34.7786 33.0887C34.7599 33.0807 34.7429 33.069 34.7288 33.0542C34.7146 33.0394 34.7035 33.0219 34.6962 33.0027C34.6632 32.9082 34.6652 32.8207 34.702 32.74C34.7349 32.6672 34.7514 32.5905 34.7514 32.5098Z" fill="#C4D700"/>
<path d="M33.7914 13.0958L33.8088 33.4727C33.8083 33.4918 33.8022 33.5102 33.7914 33.5258L25.6168 45.8464C25.6052 45.8632 25.5887 45.8758 25.5697 45.8825C25.5507 45.8892 25.53 45.8896 25.5107 45.8838C25.4914 45.8779 25.4744 45.866 25.4621 45.8497C25.4499 45.8335 25.443 45.8138 25.4424 45.7933L25.4511 25.4016C25.4517 25.3826 25.4577 25.3641 25.4685 25.3485L33.617 13.0427C33.6286 13.0259 33.645 13.0133 33.6641 13.0066C33.6831 12.9999 33.7038 12.9994 33.7231 13.0053C33.7424 13.0112 33.7594 13.0231 33.7716 13.0393C33.7839 13.0556 33.7908 13.0753 33.7914 13.0958Z" fill="#C4D700"/>
<path d="M16.1221 29.465L24.2182 25.9532C24.249 25.9402 24.2825 25.935 24.3157 25.9382C24.3489 25.9413 24.3809 25.9527 24.4088 25.9714C24.4366 25.9901 24.4595 26.0154 24.4755 26.0452C24.4914 26.0749 24.4999 26.1082 24.5002 26.1421L24.506 46.3272C24.5057 46.3677 24.4936 46.4071 24.4714 46.4407C24.4492 46.4743 24.4178 46.5005 24.381 46.5161L16.282 49.9954C16.251 50.0085 16.2172 50.0137 16.1837 50.0104C16.1503 50.0071 16.1181 49.9954 16.0902 49.9764C16.0623 49.9574 16.0394 49.9316 16.0237 49.9015C16.0079 49.8713 15.9998 49.8377 16 49.8035V29.6538C16.0001 29.6137 16.0117 29.5745 16.0334 29.541C16.055 29.5074 16.0859 29.481 16.1221 29.465Z" fill="#C4D700"/>
</svg>
