<svg width="130" height="60" viewBox="0 0 130 60" fill="none" xmlns="http://www.w3.org/2000/svg">
<rect width="130" height="60" fill="white"/>
<g clip-path="url(#clip0_308_155)">
<path d="M41.7201 30.803C41.7042 30.8379 41.7034 30.8757 41.7176 30.9164C41.7208 30.9247 41.7256 30.9323 41.7317 30.9387C41.7378 30.9451 41.7451 30.9502 41.7532 30.9536C41.7613 30.9571 41.77 30.9588 41.7787 30.9588C41.7875 30.9587 41.7962 30.9569 41.8042 30.9534L45.2456 29.4801C45.295 29.4588 45.3196 29.4206 45.3196 29.3654V20.5967C45.3196 20.5534 45.3 20.5402 45.2606 20.5572L41.8557 22.0191C41.7795 22.0514 41.7415 22.1096 41.7415 22.1937V30.7036C41.7415 30.7384 41.7343 30.7716 41.7201 30.803Z" stroke="#629019" stroke-width="2"/>
<path d="M41.3275 22.3187C41.3272 22.3098 41.3243 22.3013 41.319 22.2943C41.3137 22.2873 41.3063 22.2821 41.298 22.2796C41.2896 22.2771 41.2807 22.2773 41.2725 22.2802C41.2643 22.283 41.2572 22.2885 41.2522 22.2957L37.733 27.6104C37.7283 27.6172 37.7257 27.6251 37.7254 27.6334L37.7217 36.4402C37.7219 36.4491 37.7249 36.4576 37.7302 36.4646C37.7355 36.4716 37.7429 36.4768 37.7512 36.4793C37.7595 36.4819 37.7684 36.4817 37.7767 36.4788C37.7849 36.4759 37.792 36.4704 37.797 36.4632L41.3275 31.1421C41.3322 31.1354 41.3348 31.1274 41.335 31.1192L41.3275 22.3187Z" stroke="#629019" stroke-width="2"/>
<path d="M52.5941 25.1492C51.3386 26.713 52.0492 28.7497 53.4353 29.9515C54.2907 30.6933 54.9523 31.2804 55.4202 31.7129C57.085 33.2525 56.4309 35.8512 53.9375 35.5938C52.7347 35.4701 52.1697 34.5767 52.1509 33.394C52.1492 33.3345 52.1191 33.3052 52.0605 33.306L51.7843 33.3099C51.7215 33.3099 51.6876 33.3417 51.6826 33.4054C51.6386 33.8949 51.3612 35.7824 51.8558 36.0118C53.5495 36.7995 56.1057 36.6147 57.1892 34.8699C58.0292 33.5176 57.8371 31.8493 56.8075 30.6372C56.0342 29.7298 54.849 28.895 54.1484 28.2399C52.5464 26.7423 53.0486 24.6547 55.4014 24.8968C56.307 24.9894 56.8121 25.4593 56.9168 26.3064C56.931 26.4186 56.9494 26.4976 56.972 26.5435C57.0423 26.6828 57.1495 26.6985 57.2934 26.5906C57.3297 26.5637 57.3593 26.5285 57.38 26.4878C57.4007 26.4471 57.4119 26.4021 57.4127 26.3561L57.4592 24.424C57.46 24.3772 57.4378 24.3488 57.3926 24.3386C55.7127 23.9435 53.8044 23.6401 52.5941 25.1492Z" stroke="#80A498" stroke-width="2"/>
<path d="M86.9009 25.8822C85.4697 27.4676 85.0742 30.1823 85.7082 32.2318C86.9398 36.2146 91.0366 37.0494 94.5658 35.989C94.8634 35.8998 95.0215 35.7762 95.0856 35.4473C95.2212 34.743 95.3053 34.0314 95.3379 33.3125C95.3446 33.1579 95.276 33.0644 95.132 33.0322C95.0863 33.022 95.0385 33.0301 94.9986 33.0549C94.9588 33.0796 94.9301 33.119 94.9186 33.1647C94.7591 33.8032 94.6348 34.4991 94.0548 34.8968C93.53 35.2579 92.9466 35.438 92.3046 35.4372C89.6065 35.4321 87.7986 33.8542 87.1332 31.323C86.9156 30.4938 86.8574 29.6666 86.9587 28.8416C87.3077 26.0062 88.9298 24.6858 91.825 24.8804C93.1973 24.9722 94.5193 25.6336 94.562 27.2242C94.5654 27.3508 94.5867 27.4337 94.6261 27.4727C94.6922 27.5382 94.7985 27.542 94.945 27.4842C94.9691 27.4744 94.9899 27.4575 95.0046 27.4358C95.0194 27.414 95.0275 27.3883 95.0278 27.3619L95.0718 24.4827C95.0718 24.4309 95.0467 24.4012 94.9964 24.3935C92.1213 23.9666 89.1433 23.3956 86.9009 25.8822Z" stroke="#80A498" stroke-width="2"/>
<path d="M70.1698 27.8869C70.3481 30.2346 70.5528 32.6272 70.7838 35.065C70.8131 35.3793 70.7712 35.6521 70.6582 35.8832C70.645 35.91 70.6384 35.9398 70.6391 35.9698C70.6398 35.9998 70.6478 36.0292 70.6623 36.0554C70.6768 36.0815 70.6974 36.1037 70.7223 36.1199C70.7472 36.1361 70.7756 36.1458 70.8051 36.1483C71.8078 36.2384 72.8127 36.2447 73.8196 36.1674C73.8418 36.1656 73.8627 36.1557 73.8784 36.1396C73.8941 36.1234 73.9035 36.1021 73.905 36.0795L73.9175 35.8717C73.9209 35.8097 73.892 35.7761 73.8309 35.771C73.5538 35.7455 73.2789 35.7082 73.006 35.6589C72.2138 35.5149 72.1736 34.4341 72.1108 33.7955C71.8028 30.628 71.4856 27.4617 71.1592 24.2966C71.1441 24.1573 71.0391 24.074 70.844 24.0468C70.8256 24.0441 70.8067 24.0462 70.7894 24.0529C70.772 24.0596 70.7567 24.0706 70.7448 24.0851C70.6511 24.1972 70.5695 24.334 70.5 24.4954C69.2152 27.4838 67.9112 30.5303 66.5879 33.635C66.5427 33.7395 66.497 33.7399 66.451 33.6362C65.0783 30.5383 63.6889 27.4098 62.2827 24.2507C62.1145 23.8709 61.7404 24.0851 61.7065 24.4241C61.3415 28.0037 60.9783 31.5834 60.6167 35.1631C60.5376 35.9444 59.842 35.5136 59.5922 35.9367C59.5768 35.963 59.5685 35.993 59.5684 36.0236C59.5682 36.0542 59.576 36.0843 59.5911 36.1108C59.6062 36.1373 59.628 36.1593 59.6542 36.1744C59.6805 36.1894 59.7102 36.1972 59.7403 36.1967C60.6761 36.1823 61.6253 36.1793 62.5878 36.1878C62.6657 36.1887 62.7213 36.1751 62.7548 36.147C62.8184 36.096 62.828 36.0183 62.7837 35.9138C62.7704 35.8817 62.7501 35.8531 62.7241 35.8304C62.6982 35.8076 62.6675 35.7912 62.6343 35.7825L61.9098 35.5913C61.8912 35.5865 61.8746 35.5757 61.8624 35.5606C61.8502 35.5454 61.843 35.5267 61.842 35.5072C61.8153 35.0127 61.8144 34.6134 61.8395 34.3092C62.012 32.1918 62.1743 30.0629 62.3267 27.9226C62.3269 27.9151 62.3298 27.9078 62.3346 27.9021C62.3395 27.8964 62.3462 27.8926 62.3535 27.8912C62.3608 27.8899 62.3684 27.8911 62.3749 27.8947C62.3815 27.8984 62.3866 27.9042 62.3894 27.9111L65.9576 35.9456C66.0564 36.1666 66.2154 36.2299 66.4347 36.1355C66.4732 36.1194 66.5247 36.0357 66.5891 35.8845C67.7517 33.1919 68.9064 30.5196 70.0531 27.8678C70.1183 27.7174 70.1573 27.7238 70.1698 27.8869Z" stroke="#80A498" stroke-width="2"/>
<path d="M80.8042 29.3843C81.9091 28.4093 82.4602 26.6823 81.5713 25.404C80.5745 23.9702 78.6774 24.3194 77.1972 24.2926C76.5502 24.2807 75.9094 24.2786 75.275 24.2863C75.2481 24.2865 75.2215 24.2926 75.1971 24.3042C75.1727 24.3157 75.151 24.3324 75.1335 24.3532C75.1161 24.374 75.1032 24.3983 75.0957 24.4246C75.0883 24.4509 75.0865 24.4784 75.0904 24.5055C75.1557 24.9643 76.1488 24.545 76.3183 25.2281C76.3677 25.4286 76.3907 25.7341 76.3874 26.1445C76.3681 28.668 76.3706 31.1915 76.3949 33.7151C76.3999 34.2363 76.3522 34.8532 76.2656 35.2878C76.1714 35.7594 75.8174 35.6332 75.5085 35.7619C75.3486 35.8282 75.2909 35.9391 75.3352 36.0946C75.3412 36.1152 75.3528 36.1337 75.3688 36.1479C75.3848 36.1621 75.4045 36.1715 75.4256 36.1749C75.6566 36.2157 75.9479 36.2186 76.2995 36.1838C77.5198 36.064 79.3315 36.4948 80.7553 36.0245C84.066 34.9297 83.9279 30.72 80.818 29.4684C80.7678 29.448 80.7632 29.42 80.8042 29.3843Z" stroke="#80A498" stroke-width="2"/>
<path d="M33.6963 29.3883C33.6806 29.3952 33.6673 29.4067 33.658 29.4211C33.6486 29.4356 33.6436 29.4526 33.6436 29.4699V38.1722C33.6435 38.187 33.647 38.2015 33.6538 38.2145C33.6606 38.2276 33.6705 38.2387 33.6825 38.2469C33.6946 38.2551 33.7085 38.2601 33.7229 38.2616C33.7374 38.263 33.7519 38.2608 33.7653 38.2551L37.2632 36.7524C37.2791 36.7457 37.2926 36.7344 37.3022 36.7199C37.3118 36.7054 37.317 36.6883 37.3172 36.6709L37.3147 27.9532C37.3145 27.9386 37.3109 27.9242 37.304 27.9114C37.2971 27.8985 37.2872 27.8876 37.2752 27.8795C37.2631 27.8714 37.2493 27.8665 37.235 27.8651C37.2206 27.8638 37.2062 27.866 37.1929 27.8717L33.6963 29.3883Z" stroke="#629019" stroke-width="2"/>
<path d="M79.584 29.2571C80.6336 28.9512 80.7014 27.1962 80.4302 26.3856C80.062 25.2836 79.2693 24.8247 78.0523 25.0091C78.01 25.0155 77.9713 25.0371 77.9434 25.0699C77.9155 25.1026 77.9003 25.1444 77.9004 25.1876V29.1691C77.9004 29.2091 77.9196 29.2328 77.9581 29.2405C78.6428 29.3679 79.1848 29.3735 79.584 29.2571Z" stroke="#80A498" stroke-width="2"/>
<path d="M81.2697 34.6623C82.2603 33.2858 81.1919 30.9534 79.8661 30.2665C79.2496 29.9466 78.5905 30.0613 77.959 30.009C77.9518 30.0083 77.9446 30.0091 77.9377 30.0115C77.9309 30.0138 77.9246 30.0175 77.9193 30.0224C77.914 30.0273 77.9097 30.0333 77.9068 30.04C77.9039 30.0467 77.9024 30.054 77.9025 30.0613C77.8974 31.5499 77.8966 33.0271 77.9 34.4928C77.9008 34.9117 78.0807 35.184 78.4398 35.3097C79.4179 35.65 80.5993 35.5927 81.2697 34.6623Z" stroke="#80A498" stroke-width="2"/>
<path d="M121.833 42.898C121.833 42.9251 121.823 42.951 121.804 42.9701C121.785 42.9893 121.759 43 121.733 43H8.19468C8.16804 43 8.14249 42.9893 8.12366 42.9701C8.10482 42.951 8.09424 42.9251 8.09424 42.898V17.2294C8.09424 17.2024 8.10482 17.1764 8.12366 17.1573C8.14249 17.1382 8.16804 17.1274 8.19468 17.1274H121.733C121.759 17.1274 121.785 17.1382 121.804 17.1573C121.823 17.1764 121.833 17.2024 121.833 17.2294V42.898ZM41.7205 30.8029C41.7046 30.8378 41.7037 30.8756 41.718 30.9164C41.7211 30.9247 41.7259 30.9322 41.732 30.9386C41.7381 30.945 41.7455 30.9501 41.7535 30.9535C41.7616 30.957 41.7703 30.9587 41.7791 30.9587C41.7879 30.9587 41.7965 30.9568 41.8046 30.9533L45.2459 29.48C45.2953 29.4587 45.32 29.4205 45.32 29.3653V20.5967C45.32 20.5533 45.3003 20.5402 45.261 20.5571L41.8561 22.019C41.7799 22.0513 41.7418 22.1095 41.7418 22.1936V30.7035C41.7418 30.7384 41.7347 30.7715 41.7205 30.8029ZM41.3275 22.3185C41.3272 22.3097 41.3243 22.3012 41.319 22.2941C41.3137 22.2871 41.3063 22.282 41.298 22.2795C41.2896 22.2769 41.2807 22.2771 41.2725 22.28C41.2643 22.2829 41.2572 22.2883 41.2522 22.2956L37.733 27.6103C37.7283 27.617 37.7257 27.625 37.7254 27.6332L37.7217 36.4401C37.7219 36.4489 37.7249 36.4575 37.7302 36.4645C37.7355 36.4715 37.7429 36.4766 37.7512 36.4792C37.7595 36.4817 37.7684 36.4815 37.7767 36.4786C37.7849 36.4757 37.792 36.4703 37.797 36.463L41.3275 31.142C41.3322 31.1352 41.3348 31.1272 41.335 31.119L41.3275 22.3185ZM52.5944 25.1492C51.3389 26.713 52.0495 28.7497 53.4356 29.9516C54.291 30.6933 54.9527 31.2804 55.4206 31.7129C57.0854 33.2525 56.4312 35.8513 53.9378 35.5938C52.735 35.4702 52.1701 34.5768 52.1512 33.394C52.1495 33.3345 52.1194 33.3052 52.0608 33.3061L51.7846 33.3099C51.7218 33.3099 51.6879 33.3418 51.6829 33.4055C51.639 33.8949 51.3615 35.7824 51.8562 36.0119C53.5499 36.7995 56.1061 36.6147 57.1896 34.8699C58.0295 33.5176 57.8374 31.8493 56.8079 30.6372C56.0345 29.7298 54.8493 28.895 54.1487 28.2399C52.5467 26.7423 53.0489 24.6547 55.4017 24.8969C56.3074 24.9895 56.8125 25.4593 56.9171 26.3065C56.9314 26.4186 56.9498 26.4976 56.9724 26.5435C57.0427 26.6829 57.1498 26.6986 57.2938 26.5907C57.33 26.5637 57.3597 26.5285 57.3804 26.4878C57.4011 26.4472 57.4122 26.4021 57.413 26.3562L57.4595 24.424C57.4603 24.3773 57.4382 24.3488 57.393 24.3386C55.7131 23.9435 53.8047 23.6402 52.5944 25.1492ZM86.9011 25.8821C85.4699 27.4675 85.0744 30.1822 85.7084 32.2317C86.94 36.2145 91.0368 37.0493 94.566 35.9889C94.8635 35.8997 95.0218 35.7761 95.0858 35.4472C95.2214 34.7429 95.3055 34.0313 95.3381 33.3124C95.3448 33.1578 95.2762 33.0643 95.1322 33.0321C95.0865 33.0219 95.0387 33.03 94.9988 33.0548C94.959 33.0795 94.9303 33.1189 94.9188 33.1646C94.7593 33.8031 94.635 34.499 94.055 34.8967C93.5302 35.2578 92.9468 35.4379 92.3048 35.437C89.6067 35.432 87.7988 33.8541 87.1334 31.3229C86.9158 30.4937 86.8576 29.6665 86.9589 28.8415C87.3079 26.0061 88.93 24.6857 91.8252 24.8803C93.1975 24.972 94.5195 25.6335 94.5622 27.2241C94.5656 27.3507 94.5869 27.4336 94.6263 27.4726C94.6924 27.5381 94.7987 27.5419 94.9452 27.4841C94.9693 27.4743 94.9901 27.4574 95.0048 27.4357C95.0196 27.4139 95.0276 27.3882 95.028 27.3618L95.072 24.4826C95.072 24.4308 95.0469 24.4011 94.9966 24.3934C92.1215 23.9665 89.1435 23.3955 86.9011 25.8821ZM70.1702 27.8869C70.3485 30.2345 70.5532 32.6272 70.7842 35.0649C70.8135 35.3793 70.7716 35.652 70.6586 35.8831C70.6454 35.91 70.6388 35.9397 70.6396 35.9697C70.6403 35.9997 70.6482 36.0291 70.6627 36.0553C70.6772 36.0815 70.6978 36.1036 70.7227 36.1198C70.7476 36.136 70.7761 36.1458 70.8055 36.1482C71.8083 36.2383 72.8131 36.2447 73.82 36.1673C73.8423 36.1656 73.8632 36.1557 73.8788 36.1395C73.8945 36.1234 73.9039 36.102 73.9054 36.0794L73.9179 35.8717C73.9213 35.8096 73.8924 35.7761 73.8313 35.771C73.5543 35.7455 73.2793 35.7081 73.0064 35.6588C72.2142 35.5148 72.174 34.434 72.1113 33.7955C71.8032 30.6279 71.486 27.4616 71.1596 24.2966C71.1445 24.1572 71.0395 24.0739 70.8445 24.0468C70.826 24.044 70.8072 24.0461 70.7898 24.0528C70.7724 24.0595 70.7571 24.0706 70.7453 24.085C70.6515 24.1971 70.5699 24.3339 70.5004 24.4954C69.2156 27.4837 67.9116 30.5302 66.5883 33.6349C66.5431 33.7394 66.4975 33.7398 66.4514 33.6362C65.0788 30.5383 63.6893 27.4098 62.2832 24.2507C62.1149 23.8709 61.7408 24.085 61.7069 24.424C61.3419 28.0037 60.9787 31.5834 60.6171 35.163C60.538 35.9443 59.8425 35.5135 59.5926 35.9367C59.5772 35.963 59.569 35.993 59.5688 36.0236C59.5686 36.0542 59.5765 36.0843 59.5916 36.1108C59.6067 36.1373 59.6284 36.1592 59.6547 36.1743C59.6809 36.1894 59.7106 36.1971 59.7408 36.1967C60.6765 36.1822 61.6257 36.1792 62.5882 36.1877C62.6661 36.1886 62.7217 36.175 62.7552 36.147C62.8188 36.096 62.8285 36.0182 62.7841 35.9137C62.7709 35.8816 62.7505 35.8531 62.7246 35.8303C62.6987 35.8075 62.6679 35.7911 62.6347 35.7824L61.9103 35.5913C61.8916 35.5864 61.875 35.5756 61.8628 35.5605C61.8506 35.5454 61.8435 35.5267 61.8425 35.5071C61.8157 35.0126 61.8149 34.6133 61.84 34.3091C62.0124 32.1917 62.1748 30.0629 62.3271 27.9225C62.3274 27.915 62.3302 27.9078 62.3351 27.902C62.34 27.8963 62.3466 27.8925 62.3539 27.8911C62.3613 27.8898 62.3688 27.8911 62.3754 27.8947C62.3819 27.8983 62.387 27.9041 62.3899 27.9111L65.958 35.9456C66.0568 36.1665 66.2158 36.2298 66.4351 36.1355C66.4736 36.1193 66.5251 36.0356 66.5895 35.8844C67.7521 33.1918 68.9068 30.5196 70.0535 27.8677C70.1188 27.7173 70.1577 27.7237 70.1702 27.8869ZM80.8044 29.3844C81.9092 28.4094 82.4604 26.6824 81.5715 25.4041C80.5746 23.9703 78.6776 24.3195 77.1973 24.2927C76.5503 24.2808 75.9096 24.2787 75.2751 24.2864C75.2482 24.2866 75.2217 24.2927 75.1973 24.3043C75.1729 24.3158 75.1512 24.3326 75.1337 24.3533C75.1162 24.3741 75.1033 24.3984 75.0959 24.4247C75.0884 24.451 75.0866 24.4785 75.0906 24.5056C75.1559 24.9644 76.149 24.5451 76.3185 25.2282C76.3679 25.4287 76.3909 25.7342 76.3875 26.1446C76.3683 28.6681 76.3708 31.1917 76.3951 33.7152C76.4001 34.2365 76.3524 34.8533 76.2657 35.2879C76.1716 35.7595 75.8175 35.6333 75.5087 35.7621C75.3488 35.8283 75.291 35.9392 75.3354 36.0947C75.3413 36.1153 75.353 36.1338 75.369 36.148C75.385 36.1622 75.4047 36.1716 75.4258 36.175C75.6568 36.2158 75.9481 36.2188 76.2996 36.1839C77.52 36.0641 79.3317 36.4949 80.7554 36.0246C84.0662 34.9298 83.9281 30.7201 80.8182 29.4685C80.768 29.4481 80.7634 29.4201 80.8044 29.3844ZM33.6965 29.3882C33.6809 29.3952 33.6676 29.4066 33.6582 29.421C33.6488 29.4355 33.6438 29.4525 33.6438 29.4698V38.1721C33.6437 38.1869 33.6472 38.2014 33.654 38.2145C33.6608 38.2275 33.6707 38.2386 33.6828 38.2468C33.6948 38.255 33.7087 38.26 33.7232 38.2615C33.7376 38.2629 33.7522 38.2607 33.7656 38.255L37.2634 36.7523C37.2793 36.7456 37.2929 36.7343 37.3025 36.7198C37.3121 36.7053 37.3173 36.6882 37.3174 36.6708L37.3149 27.9531C37.3148 27.9385 37.3111 27.9241 37.3042 27.9113C37.2973 27.8984 37.2875 27.8875 37.2754 27.8794C37.2634 27.8713 37.2496 27.8664 37.2352 27.865C37.2209 27.8637 37.2064 27.8659 37.1931 27.8716L33.6965 29.3882Z" fill="#004831"/>
<path d="M41.7419 30.7036V22.1937C41.7419 22.1096 41.78 22.0514 41.8562 22.0191L45.2611 20.5572C45.3005 20.5402 45.3201 20.5534 45.3201 20.5967V29.3654C45.3201 29.4206 45.2954 29.4588 45.2461 29.4801L41.8047 30.9534C41.7967 30.9569 41.788 30.9587 41.7792 30.9588C41.7704 30.9588 41.7618 30.9571 41.7537 30.9536C41.7456 30.9502 41.7383 30.9451 41.7322 30.9387C41.726 30.9323 41.7213 30.9247 41.7181 30.9164C41.7039 30.8757 41.7047 30.8379 41.7206 30.803C41.7348 30.7716 41.7419 30.7384 41.7419 30.7036Z" fill="#C4D700"/>
<path d="M41.3275 22.3187L41.335 31.1192C41.3348 31.1274 41.3322 31.1354 41.3275 31.1421L37.797 36.4632C37.792 36.4704 37.7849 36.4759 37.7767 36.4788C37.7684 36.4817 37.7595 36.4819 37.7512 36.4793C37.7429 36.4768 37.7355 36.4716 37.7302 36.4646C37.7249 36.4576 37.7219 36.4491 37.7217 36.4402L37.7254 27.6334C37.7257 27.6251 37.7283 27.6172 37.733 27.6104L41.2522 22.2957C41.2572 22.2885 41.2643 22.283 41.2725 22.2802C41.2807 22.2773 41.2896 22.2771 41.298 22.2796C41.3063 22.2821 41.3137 22.2873 41.319 22.2943C41.3243 22.3013 41.3272 22.3098 41.3275 22.3187Z" fill="#C4D700"/>
<path d="M52.5946 25.1492C53.8049 23.6401 55.7132 23.9435 57.3931 24.3386C57.4383 24.3488 57.4605 24.3772 57.4596 24.424L57.4132 26.3561C57.4124 26.4021 57.4012 26.4471 57.3805 26.4878C57.3598 26.5285 57.3302 26.5637 57.2939 26.5906C57.15 26.6985 57.0428 26.6828 56.9725 26.5435C56.9499 26.4976 56.9315 26.4186 56.9173 26.3064C56.8126 25.4593 56.3075 24.9894 55.4019 24.8968C53.049 24.6547 52.5468 26.7423 54.1489 28.2399C54.8494 28.895 56.0346 29.7298 56.808 30.6372C57.8376 31.8493 58.0296 33.5176 57.1897 34.8699C56.1062 36.6147 53.55 36.7995 51.8563 36.0118C51.3616 35.7824 51.6391 33.8949 51.6831 33.4054C51.6881 33.3417 51.722 33.3099 51.7848 33.3099L52.061 33.306C52.1196 33.3052 52.1497 33.3345 52.1514 33.394C52.1702 34.5767 52.7352 35.4701 53.9379 35.5938C56.4314 35.8512 57.0855 33.2525 55.4207 31.7129C54.9528 31.2804 54.2912 30.6933 53.4357 29.9515C52.0497 28.7497 51.339 26.713 52.5946 25.1492Z" fill="white"/>
<path d="M86.9009 25.8822C89.1433 23.3956 92.1213 23.9666 94.9964 24.3935C95.0467 24.4012 95.0718 24.4309 95.0718 24.4827L95.0278 27.3619C95.0275 27.3883 95.0194 27.414 95.0046 27.4358C94.9899 27.4575 94.9691 27.4744 94.945 27.4842C94.7985 27.542 94.6922 27.5382 94.6261 27.4727C94.5867 27.4337 94.5654 27.3508 94.562 27.2242C94.5193 25.6336 93.1973 24.9722 91.825 24.8804C88.9298 24.6858 87.3077 26.0062 86.9587 28.8416C86.8574 29.6666 86.9156 30.4938 87.1332 31.323C87.7986 33.8542 89.6065 35.4321 92.3046 35.4372C92.9466 35.438 93.53 35.2579 94.0548 34.8968C94.6348 34.4991 94.7591 33.8032 94.9186 33.1647C94.9301 33.119 94.9588 33.0796 94.9986 33.0549C95.0385 33.0301 95.0863 33.022 95.132 33.0322C95.276 33.0644 95.3446 33.1579 95.3379 33.3125C95.3053 34.0314 95.2212 34.743 95.0856 35.4473C95.0215 35.7762 94.8633 35.8998 94.5658 35.989C91.0366 37.0494 86.9398 36.2146 85.7082 32.2318C85.0742 30.1823 85.4697 27.4676 86.9009 25.8822Z" fill="white"/>
<path d="M70.1703 27.8869C70.1578 27.7238 70.1188 27.7174 70.0535 27.8678C68.9069 30.5196 67.7522 33.1919 66.5896 35.8845C66.5252 36.0357 66.4737 36.1194 66.4352 36.1355C66.2159 36.2299 66.0569 36.1666 65.9581 35.9456L62.3899 27.9111C62.3871 27.9042 62.382 27.8984 62.3754 27.8947C62.3689 27.8911 62.3613 27.8899 62.354 27.8912C62.3467 27.8926 62.34 27.8964 62.3351 27.9021C62.3302 27.9078 62.3274 27.9151 62.3272 27.9226C62.1748 30.0629 62.0124 32.1918 61.84 34.3092C61.8149 34.6134 61.8158 35.0127 61.8425 35.5072C61.8435 35.5267 61.8507 35.5454 61.8628 35.5606C61.875 35.5757 61.8917 35.5865 61.9103 35.5913L62.6348 35.7825C62.668 35.7912 62.6987 35.8076 62.7246 35.8304C62.7505 35.8531 62.7709 35.8817 62.7842 35.9138C62.8285 36.0183 62.8189 36.096 62.7553 36.147C62.7218 36.1751 62.6661 36.1887 62.5883 36.1878C61.6258 36.1793 60.6766 36.1823 59.7408 36.1967C59.7107 36.1972 59.681 36.1894 59.6547 36.1744C59.6285 36.1593 59.6067 36.1373 59.5916 36.1108C59.5765 36.0843 59.5687 36.0542 59.5689 36.0236C59.569 35.993 59.5773 35.963 59.5927 35.9367C59.8425 35.5136 60.5381 35.9444 60.6172 35.1631C60.9787 31.5834 61.342 28.0037 61.7069 24.4241C61.7408 24.0851 62.115 23.8709 62.2832 24.2507C63.6894 27.4098 65.0788 30.5383 66.4515 33.6362C66.4975 33.7399 66.5432 33.7395 66.5884 33.635C67.9117 30.5303 69.2157 27.4838 70.5005 24.4954C70.57 24.334 70.6516 24.1972 70.7453 24.0851C70.7572 24.0706 70.7725 24.0596 70.7899 24.0529C70.8072 24.0462 70.826 24.0441 70.8445 24.0468C71.0395 24.074 71.1446 24.1573 71.1596 24.2966C71.4861 27.4617 71.8033 30.628 72.1113 33.7955C72.1741 34.4341 72.2143 35.5149 73.0065 35.6589C73.2794 35.7082 73.5543 35.7455 73.8314 35.771C73.8925 35.7761 73.9213 35.8097 73.918 35.8717L73.9054 36.0795C73.904 36.1021 73.8946 36.1234 73.8789 36.1396C73.8632 36.1557 73.8423 36.1656 73.8201 36.1674C72.8132 36.2447 71.8083 36.2384 70.8056 36.1483C70.7761 36.1458 70.7477 36.1361 70.7228 36.1199C70.6979 36.1037 70.6773 36.0815 70.6628 36.0554C70.6483 36.0292 70.6403 35.9998 70.6396 35.9698C70.6389 35.9398 70.6455 35.91 70.6587 35.8832C70.7717 35.6521 70.8135 35.3793 70.7843 35.065C70.5532 32.6272 70.3486 30.2346 70.1703 27.8869Z" fill="white"/>
<path d="M80.818 29.4687C83.9279 30.7202 84.066 34.9299 80.7553 36.0247C79.3315 36.495 77.5198 36.0642 76.2995 36.184C75.9479 36.2189 75.6566 36.2159 75.4256 36.1751C75.4045 36.1717 75.3848 36.1623 75.3688 36.1481C75.3528 36.1339 75.3412 36.1154 75.3352 36.0948C75.2909 35.9393 75.3486 35.8285 75.5085 35.7622C75.8174 35.6335 76.1714 35.7596 76.2656 35.2881C76.3522 34.8535 76.3999 34.2366 76.3949 33.7153C76.3706 31.1918 76.3681 28.6683 76.3874 26.1447C76.3907 25.7343 76.3677 25.4289 76.3183 25.2284C76.1488 24.5452 75.1557 24.9645 75.0904 24.5057C75.0865 24.4787 75.0883 24.4511 75.0957 24.4248C75.1032 24.3986 75.1161 24.3742 75.1335 24.3535C75.151 24.3327 75.1727 24.316 75.1971 24.3044C75.2215 24.2929 75.2481 24.2867 75.275 24.2865C75.9094 24.2788 76.5502 24.281 77.1972 24.2929C78.6774 24.3196 80.5745 23.9704 81.5713 25.4042C82.4602 26.6826 81.9091 28.4095 80.8042 29.3845C80.7632 29.4202 80.7678 29.4483 80.818 29.4687ZM79.5839 29.2571C80.6335 28.9512 80.7013 27.1962 80.4301 26.3856C80.0618 25.2836 79.2692 24.8248 78.0522 25.0091C78.0098 25.0156 77.9712 25.0371 77.9433 25.0699C77.9154 25.1027 77.9001 25.1444 77.9002 25.1876V29.1691C77.9002 29.2091 77.9195 29.2329 77.958 29.2405C78.6427 29.368 79.1846 29.3735 79.5839 29.2571ZM81.27 34.6623C82.2606 33.2858 81.1922 30.9535 79.8664 30.2665C79.2499 29.9466 78.5908 30.0613 77.9592 30.009C77.9521 30.0083 77.9448 30.0092 77.938 30.0115C77.9312 30.0138 77.9249 30.0175 77.9196 30.0224C77.9142 30.0273 77.91 30.0334 77.9071 30.0401C77.9042 30.0467 77.9027 30.054 77.9028 30.0613C77.8977 31.5499 77.8969 33.0271 77.9002 34.4928C77.9011 34.9117 78.081 35.184 78.4401 35.3097C79.4181 35.65 80.5996 35.5927 81.27 34.6623Z" fill="white"/>
<path d="M80.4302 26.3856C80.7014 27.1962 80.6336 28.9512 79.584 29.2571C79.1848 29.3735 78.6428 29.3679 77.9581 29.2405C77.9196 29.2328 77.9004 29.2091 77.9004 29.1691V25.1876C77.9003 25.1444 77.9155 25.1026 77.9434 25.0699C77.9713 25.0371 78.01 25.0155 78.0523 25.0091C79.2693 24.8247 80.062 25.2836 80.4302 26.3856Z" fill="#004831"/>
<path d="M33.6963 29.3883L37.1929 27.8717C37.2062 27.866 37.2206 27.8638 37.235 27.8651C37.2493 27.8665 37.2631 27.8714 37.2752 27.8795C37.2872 27.8876 37.2971 27.8985 37.304 27.9114C37.3109 27.9242 37.3145 27.9386 37.3147 27.9532L37.3172 36.6709C37.317 36.6883 37.3118 36.7054 37.3022 36.7199C37.2926 36.7344 37.2791 36.7457 37.2632 36.7524L33.7653 38.2551C33.7519 38.2608 33.7374 38.263 33.7229 38.2616C33.7085 38.2601 33.6946 38.2551 33.6825 38.2469C33.6705 38.2387 33.6606 38.2276 33.6538 38.2145C33.647 38.2015 33.6435 38.187 33.6436 38.1722V29.4699C33.6436 29.4526 33.6486 29.4356 33.658 29.4211C33.6673 29.4067 33.6806 29.3952 33.6963 29.3883Z" fill="#C4D700"/>
<path d="M81.2702 34.6623C80.5998 35.5927 79.4184 35.65 78.4403 35.3097C78.0812 35.184 77.9013 34.9117 77.9004 34.4928C77.8971 33.0271 77.8979 31.5499 77.903 30.0613C77.9029 30.054 77.9044 30.0467 77.9073 30.04C77.9102 30.0333 77.9144 30.0273 77.9198 30.0224C77.9251 30.0175 77.9314 30.0138 77.9382 30.0115C77.945 30.0091 77.9523 30.0083 77.9595 30.009C78.591 30.0613 79.2501 29.9466 79.8666 30.2665C81.1924 30.9534 82.2608 33.2858 81.2702 34.6623Z" fill="#004831"/>
</g>
<defs>
<clipPath id="clip0_308_155">
<rect width="114" height="26" fill="white" transform="translate(8 17)"/>
</clipPath>
</defs>
</svg>
