<svg width="60" height="60" viewBox="0 0 60 60" fill="none" xmlns="http://www.w3.org/2000/svg">
<rect width="60" height="60" fill="white"/>
<path d="M34.7514 32.5096V12.8055C34.7514 12.6107 34.8396 12.476 35.016 12.4012L42.8999 9.01638C42.9909 8.97703 43.0365 9.00753 43.0365 9.10786V29.411C43.0365 29.5389 42.9793 29.6274 42.865 29.6766L34.8968 33.088C34.8781 33.0961 34.858 33.1004 34.8377 33.1004C34.8174 33.1005 34.7973 33.0964 34.7786 33.0885C34.7599 33.0805 34.7429 33.0687 34.7288 33.054C34.7146 33.0392 34.7035 33.0216 34.6962 33.0024C34.6632 32.908 34.6652 32.8204 34.702 32.7398C34.7349 32.667 34.7514 32.5903 34.7514 32.5096Z" fill="#C4D700"/>
<path d="M33.7914 13.0955L33.8088 33.4725C33.8083 33.4915 33.8022 33.51 33.7914 33.5256L25.6168 45.8462C25.6052 45.8629 25.5887 45.8755 25.5697 45.8822C25.5507 45.889 25.53 45.8894 25.5107 45.8835C25.4914 45.8776 25.4744 45.8657 25.4621 45.8495C25.4499 45.8333 25.443 45.8135 25.4424 45.7931L25.4511 25.4014C25.4517 25.3823 25.4577 25.3638 25.4685 25.3483L33.617 13.0424C33.6286 13.0257 33.645 13.0131 33.6641 13.0064C33.6831 12.9996 33.7038 12.9992 33.7231 13.0051C33.7424 13.011 33.7594 13.0229 33.7716 13.0391C33.7839 13.0553 33.7908 13.0751 33.7914 13.0955Z" fill="#C4D700"/>
<path d="M16.1221 29.4647L24.2182 25.953C24.249 25.9399 24.2825 25.9347 24.3157 25.9379C24.3489 25.9411 24.3809 25.9525 24.4088 25.9712C24.4366 25.9898 24.4595 26.0152 24.4755 26.0449C24.4914 26.0747 24.4999 26.108 24.5002 26.1419L24.506 46.327C24.5057 46.3674 24.4936 46.4069 24.4714 46.4404C24.4492 46.474 24.4178 46.5002 24.381 46.5158L16.282 49.9951C16.251 50.0083 16.2172 50.0134 16.1837 50.0101C16.1503 50.0068 16.1181 49.9951 16.0902 49.9761C16.0623 49.9571 16.0394 49.9314 16.0237 49.9012C16.0079 49.8711 15.9998 49.8374 16 49.8033V29.6536C16.0001 29.6135 16.0117 29.5743 16.0334 29.5407C16.055 29.5072 16.0859 29.4808 16.1221 29.4647Z" fill="#C4D700"/>
</svg>
