<svg width="60" height="60" viewBox="0 0 60 60" fill="none" xmlns="http://www.w3.org/2000/svg">
<rect width="60" height="60" fill="white"/>
<g clip-path="url(#clip0_48_6)">
<path fill-rule="evenodd" clip-rule="evenodd" d="M54.9998 20.7444C54.9998 20.7444 52.4453 20.7356 49.7456 20.7444C47.0459 20.7533 46.3622 22.8135 46.3622 22.8135L39.6108 40.2204L42.2392 46.994C44.9359 46.9834 45.6196 44.925 45.6196 44.925L54.9998 20.7444Z" fill="#31C7ED"/>
<path fill-rule="evenodd" clip-rule="evenodd" d="M35.0953 28.5802L35.0888 28.5637C35.0886 28.5617 35.0886 28.5598 35.0888 28.5578L35.0842 28.5467C34.4938 27.0659 33.2676 25.8451 31.8548 24.8984C33.2717 23.6605 34.1526 21.8155 34.1526 19.7559C34.1526 16.7838 31.591 13 24.2345 13H11.328V22.9255H6V28.6333H11.3268V38.89H24.8916C26.0605 38.8977 27.2263 38.7649 28.3635 38.4945L28.3782 38.491C29.2052 38.292 30.0046 37.9927 30.7586 37.5997L33.6012 44.9268C33.6012 44.9268 34.2854 46.9864 36.9839 46.9958C39.6825 47.0053 42.2382 46.9958 42.2382 46.9958L35.0953 28.5802ZM18.9844 18.7084H23.7533C25.8538 18.7084 26.5103 19.7995 26.5103 20.8175C26.5103 21.8355 25.8568 22.9196 23.7699 22.9255H18.9844V18.7084ZM18.9844 28.6327H24.0408C26.2671 28.6327 26.9632 29.7893 26.9632 30.8685C26.9632 31.9479 26.2707 33.0973 24.0586 33.1038H18.9844V28.6327Z" fill="#223AD2"/>
<path opacity="0.8" d="M28.0035 30.4922C28.0035 30.4922 27.4344 28.6242 24.3432 28.6242H24.1242V28.633C26.2844 28.6619 26.9627 29.8031 26.9627 30.8683C26.9627 31.9452 26.2702 33.097 24.0581 33.1035H18.9845V28.6271L11.3281 28.633V38.8897H24.8917C26.0607 38.8974 27.2264 38.7647 28.3636 38.4942L28.3784 38.4907C29.2053 38.2918 30.0047 37.9924 30.7587 37.5994L28.0035 30.4922Z" fill="url(#paint0_linear_48_6)"/>
<path d="M11.3268 28.6335H6L11.3268 31.0821V28.6335Z" fill="#31C7ED"/>
</g>
<defs>
<linearGradient id="paint0_linear_48_6" x1="17.3421" y1="35.3698" x2="20.6579" y2="29.6179" gradientUnits="userSpaceOnUse">
<stop stop-color="#223AD2"/>
<stop offset="1" stop-color="#17278C"/>
</linearGradient>
<clipPath id="clip0_48_6">
<rect width="49" height="34" fill="white" transform="translate(6 13)"/>
</clipPath>
</defs>
</svg>
