<svg width="60" height="60" viewBox="0 0 60 60" fill="none" xmlns="http://www.w3.org/2000/svg">
<rect width="60" height="60" fill="#223AD2"/>
<g clip-path="url(#clip0_48_8)">
<path fill-rule="evenodd" clip-rule="evenodd" d="M54.6529 20.7387C54.6529 20.7387 52.1165 20.7299 49.4359 20.7387C46.7553 20.7475 46.0765 22.8063 46.0765 22.8063L39.373 40.2013L41.9827 46.9702C44.6604 46.9597 45.3391 44.9027 45.3391 44.9027L54.6529 20.7387Z" fill="#31C7ED"/>
<path fill-rule="evenodd" clip-rule="evenodd" d="M34.889 28.5695L34.8826 28.553C34.8823 28.5511 34.8823 28.5491 34.8826 28.5471L34.8779 28.5359C34.2917 27.0562 33.0742 25.8363 31.6715 24.8902C33.0783 23.6532 33.9529 21.8094 33.9529 19.7512C33.9529 16.7812 31.4095 13 24.1052 13H11.2902V22.9186H6V28.6225H11.289V38.8722H24.7576C25.9183 38.8799 27.0757 38.7472 28.2049 38.4769L28.2195 38.4734C29.0406 38.2746 29.8343 37.9755 30.583 37.5827L33.4054 44.9048C33.4054 44.9048 34.0848 46.963 36.7642 46.9724C39.4436 46.9818 41.9811 46.9724 41.9811 46.9724L34.889 28.5695ZM18.8923 18.7045H23.6274C25.7131 18.7045 26.3649 19.7948 26.3649 20.8122C26.3649 21.8294 25.716 22.9127 23.6439 22.9186H18.8923V18.7045ZM18.8923 28.6219H23.9129C26.1234 28.6219 26.8145 29.7777 26.8145 30.8562C26.8145 31.9348 26.1269 33.0835 23.9305 33.09H18.8923V28.6219Z" fill="white"/>
<path opacity="0.8" d="M27.8471 30.4804C27.8471 30.4804 27.2821 28.6136 24.2129 28.6136H23.9954V28.6225C26.1402 28.6514 26.8137 29.7918 26.8137 30.8562C26.8137 31.9324 26.1261 33.0834 23.9297 33.0899H18.8921V28.6166L11.29 28.6225V38.8722H24.7574C25.9182 38.8799 27.0755 38.7472 28.2047 38.4769L28.2194 38.4734C29.0404 38.2746 29.8341 37.9755 30.5828 37.5827L27.8471 30.4804Z" fill="url(#paint0_linear_48_8)"/>
<path d="M11.289 28.6228H6L11.289 31.0698V28.6228Z" fill="#31C7ED"/>
</g>
<defs>
<linearGradient id="paint0_linear_48_8" x1="17.2614" y1="35.3546" x2="20.5856" y2="29.6252" gradientUnits="userSpaceOnUse">
<stop stop-color="white"/>
<stop offset="1" stop-color="#D7D7D7"/>
</linearGradient>
<clipPath id="clip0_48_8">
<rect width="49" height="34" fill="white" transform="translate(6 13)"/>
</clipPath>
</defs>
</svg>
