<svg width="60" height="60" viewBox="0 0 60 60" fill="none" xmlns="http://www.w3.org/2000/svg">
<rect width="60" height="60" fill="white"/>
<mask id="mask0_307_42" style="mask-type:luminance" maskUnits="userSpaceOnUse" x="6" y="21" width="48" height="18">
<path d="M6 21H53.7436V39H6V21Z" fill="white"/>
</mask>
<g mask="url(#mask0_307_42)">
<path d="M29.6256 22.014C29.8007 22.014 29.9688 22.085 30.0931 22.211C30.2174 22.3375 30.2871 22.5085 30.2871 22.687V24.592C30.2871 24.771 30.2174 24.943 30.0926 25.0695C29.9683 25.1965 29.7992 25.2675 29.6226 25.2675H27.049V21H27.5055V22.014H29.6256ZM29.83 24.585V22.697C29.8305 22.6685 29.8252 22.6401 29.8145 22.6137C29.8038 22.5872 29.788 22.5632 29.7679 22.543C29.7486 22.5225 29.7253 22.5062 29.6994 22.4952C29.6736 22.4842 29.6457 22.4787 29.6177 22.479H27.7233C27.6949 22.4788 27.6667 22.4844 27.6405 22.4954C27.6143 22.5064 27.5905 22.5226 27.5707 22.543C27.5497 22.5627 27.5331 22.5866 27.5219 22.6131C27.5107 22.6396 27.5051 22.6682 27.5055 22.697V24.585C27.5052 24.6137 27.5108 24.6421 27.5219 24.6685C27.533 24.6949 27.5495 24.7188 27.5702 24.7385C27.5901 24.759 27.614 24.7752 27.6403 24.7863C27.6666 24.7974 27.6948 24.8031 27.7233 24.803H29.6182C29.6461 24.8032 29.6738 24.7976 29.6995 24.7865C29.7252 24.7754 29.7483 24.7591 29.7674 24.7385C29.7876 24.7185 29.8037 24.6946 29.8146 24.6682C29.8254 24.6419 29.8303 24.6135 29.83 24.585ZM34.1851 22.014C34.2732 22.0134 34.3605 22.0305 34.4418 22.0645C34.5231 22.0984 34.5968 22.1484 34.6586 22.2115C34.721 22.2748 34.7703 22.3499 34.8038 22.4325C34.8372 22.515 34.8541 22.6034 34.8535 22.6925V25.2675H32.2799C32.1922 25.2689 32.1053 25.252 32.0245 25.2177C31.9438 25.1834 31.871 25.1326 31.8109 25.0685C31.7479 25.0059 31.6983 24.9312 31.665 24.8488C31.6316 24.7663 31.6153 24.678 31.6169 24.589V23.4085H34.3985V22.696C34.398 22.6387 34.3753 22.5838 34.3353 22.543C34.2956 22.5026 34.2416 22.4795 34.1851 22.479H31.6154V22.014H34.1851ZM34.397 24.803V23.873H32.072V24.5855C32.072 24.643 32.0949 24.698 32.1346 24.739C32.1744 24.779 32.2291 24.8025 32.2853 24.803H34.397ZM38.8391 22.014C38.9268 22.0126 39.0137 22.0295 39.0945 22.0638C39.1752 22.0981 39.248 22.1489 39.3081 22.213C39.3711 22.2756 39.4207 22.3505 39.4541 22.433C39.4874 22.5155 39.5037 22.604 39.5021 22.693V25.2675H39.0455V22.6975C39.046 22.6688 39.0406 22.6404 39.0299 22.6138C39.0191 22.5873 39.0031 22.5632 38.9829 22.543C38.9636 22.5226 38.9404 22.5064 38.9146 22.4954C38.8889 22.4844 38.8611 22.4788 38.8332 22.479H36.9383C36.91 22.4789 36.8819 22.4845 36.8558 22.4955C36.8297 22.5065 36.806 22.5226 36.7862 22.543C36.7652 22.5627 36.7485 22.5865 36.7372 22.613C36.7259 22.6396 36.7202 22.6682 36.7205 22.697V25.2675H36.264V22.014H38.8391ZM41.5476 24.803H44.1536V25.268H41.5789C41.4913 25.2675 41.4047 25.2496 41.324 25.2153C41.2434 25.181 41.1703 25.1309 41.1089 25.068C40.9843 24.9401 40.9147 24.7681 40.915 24.589V22.6925C40.915 22.513 40.9846 22.341 41.1089 22.2135C41.2333 22.0865 41.4024 22.0145 41.5789 22.014H44.1526V22.479H41.5466C41.5182 22.4787 41.49 22.4842 41.4637 22.4952C41.4375 22.5062 41.4137 22.5225 41.3939 22.543C41.3732 22.5628 41.3569 22.5868 41.3458 22.6133C41.3348 22.6398 41.3293 22.6683 41.3298 22.697V24.5845C41.3294 24.6132 41.335 24.6417 41.346 24.6682C41.357 24.6947 41.3733 24.7186 41.3939 24.7385C41.4138 24.7591 41.4376 24.7755 41.4639 24.7865C41.4902 24.7976 41.519 24.8032 41.5476 24.803ZM46.312 22.014H48.2193C48.3072 22.0134 48.3944 22.0306 48.4757 22.0645C48.5569 22.0984 48.6306 22.1484 48.6922 22.2115C48.7547 22.2748 48.8041 22.3499 48.8377 22.4324C48.8712 22.5149 48.8882 22.6033 48.8877 22.6925V24.589C48.888 24.7692 48.8176 24.9422 48.6917 25.0705C48.6297 25.1333 48.5558 25.1831 48.4744 25.2169C48.3931 25.2507 48.3058 25.2679 48.2178 25.2675H46.312C46.2245 25.2688 46.1376 25.2518 46.057 25.2175C45.9763 25.1832 45.9036 25.1325 45.8435 25.0685C45.7805 25.0059 45.7309 24.931 45.6975 24.8485C45.6642 24.766 45.6479 24.6775 45.6496 24.5885V22.693C45.6484 22.6041 45.6649 22.5159 45.6982 22.4335C45.7315 22.3511 45.7809 22.2763 45.8435 22.2135C45.9038 22.1498 45.9766 22.0992 46.0572 22.065C46.1378 22.0308 46.2245 22.0131 46.312 22.014ZM48.2178 22.479H46.319C46.2909 22.4786 46.263 22.4841 46.2372 22.4951C46.2113 22.5061 46.188 22.5224 46.1688 22.543C46.1484 22.563 46.1323 22.587 46.1214 22.6135C46.1106 22.6399 46.1052 22.6684 46.1056 22.697V24.5845C46.1056 24.6421 46.1281 24.6974 46.1683 24.7385C46.2081 24.7791 46.2623 24.8021 46.319 24.8025H48.2178C48.2458 24.8027 48.2736 24.7971 48.2994 24.7861C48.3253 24.7751 48.3486 24.7589 48.368 24.7385C48.3882 24.7184 48.4042 24.6944 48.415 24.668C48.4258 24.6415 48.4311 24.6131 48.4306 24.5845V22.697C48.4309 22.6684 48.4255 22.6401 48.4148 22.6136C48.404 22.5872 48.3881 22.5632 48.368 22.543C48.3484 22.5226 48.3249 22.5063 48.2989 22.4953C48.2729 22.4843 48.245 22.4788 48.2168 22.479H48.2178ZM15.5069 27C15.8291 26.9951 16.1488 27.0573 16.4459 27.1825C16.7433 27.3075 17.0129 27.494 17.2367 27.729C17.7166 28.2155 17.9568 28.8005 17.9568 29.4845V36.5025C17.9617 36.8308 17.9004 37.1566 17.7768 37.4605C17.6537 37.7634 17.4707 38.038 17.2386 38.2675C16.7592 38.756 16.1823 39 15.5069 39H6V21H7.66108V27H15.5069ZM16.2962 36.51V29.575C16.2947 29.3633 16.211 29.1605 16.063 29.01C15.9902 28.936 15.9036 28.8772 15.8082 28.8369C15.7128 28.7966 15.6104 28.7755 15.5069 28.775H8.46974C8.36441 28.7741 8.25999 28.7945 8.16261 28.8348C8.06524 28.8752 7.97689 28.9348 7.90278 29.01C7.82525 29.0818 7.76361 29.1692 7.72188 29.2666C7.68016 29.3639 7.65927 29.469 7.66058 29.575V36.51C7.6599 36.6158 7.68113 36.7206 7.72291 36.8177C7.7647 36.9148 7.82612 37.0021 7.90328 37.074C7.97741 37.149 8.0656 37.2085 8.16274 37.249C8.25989 37.2895 8.36407 37.3102 8.46924 37.31H15.5069C15.7158 37.309 15.9152 37.2245 16.063 37.0745C16.2107 36.9245 16.2942 36.7215 16.2962 36.5095V36.51ZM29.9364 27C30.6243 27 31.2076 27.245 31.686 27.7345C31.9178 27.964 32.1008 28.2395 32.2242 28.5435C32.348 28.8475 32.4092 29.1745 32.4042 29.5035V39H22.8973C22.2229 39 21.6465 38.755 21.1675 38.2655C20.935 38.0356 20.7514 37.7605 20.6279 37.457C20.504 37.1523 20.4426 36.8256 20.4474 36.4965V32.155H30.7436V29.4995C30.7433 29.2866 30.6603 29.0823 30.5124 28.93C30.4397 28.8551 30.353 28.7954 30.2573 28.7542C30.1617 28.7131 30.0589 28.6912 29.9548 28.69H20.4474V27H29.9364ZM30.7436 37.31V33.845H22.1085V36.5005C22.1071 36.6065 22.1271 36.7116 22.1672 36.8097C22.2073 36.9077 22.2666 36.9966 22.3417 37.071C22.413 37.1471 22.4991 37.2076 22.5947 37.2487C22.6903 37.2899 22.7933 37.3107 22.8973 37.31H30.7436ZM37.3447 27H43.9462V28.69H37.3447C37.1354 28.6919 36.9355 28.7772 36.7886 28.927C36.6408 29.0781 36.5573 29.2811 36.5559 29.493V39H34.8948V29.5035C34.8901 29.1745 34.9515 28.848 35.0753 28.5435C35.1986 28.2399 35.382 27.9646 35.6145 27.7345C36.0934 27.2445 36.6698 27 37.3447 27ZM48.0974 27H46.4363V39H48.0974V27Z" fill="black"/>
<path d="M53.2451 35.7886H51.0867C50.8112 35.7886 50.5884 36.0156 50.5884 36.2956V38.4931C50.5884 38.7731 50.8112 39.0001 51.0862 39.0001H53.2451C53.5201 39.0001 53.7434 38.7731 53.7434 38.4931V36.2961C53.7434 36.0161 53.5206 35.7886 53.2451 35.7886Z" fill="#0090FF"/>
</g>
</svg>
