<svg width="60" height="60" viewBox="0 0 60 60" fill="none" xmlns="http://www.w3.org/2000/svg">
<rect width="60" height="60" fill="white"/>
<path d="M14.2081 21C9.13201 21 5 25.1301 5 30.2081C5 35.2862 9.13201 39.4136 14.2081 39.4136C19.2839 39.4136 23.4138 35.2835 23.4138 30.2081C23.4138 25.132 19.2839 21 14.2081 21ZM19.3948 35.5552C19.3948 35.5711 19.3834 35.5823 19.3677 35.5823H9.0486C9.03277 35.5823 9.02158 35.5711 9.02158 35.5552V34.5187C9.02158 34.5029 9.03277 34.4919 9.0486 34.4919H19.368C19.3836 34.4919 19.395 34.5029 19.395 34.5187L19.3948 35.5552ZM12.4452 32.8396V27.6101H13.6308V32.8396H14.7875V27.6101H15.971V32.8396H17.1545V27.6101H18.3359V32.8396H18.8608V33.9032C18.8608 33.9188 18.8496 33.9304 18.8337 33.9304H9.58746C9.57141 33.9304 9.56022 33.9188 9.56022 33.9032V32.8396H10.0832V27.6101H11.2644V32.8371H12.4481L12.4452 32.8396ZM19.7411 26.5079L19.4129 27.0828C19.4015 27.1008 19.3768 27.1168 19.3563 27.1168H9.06444C9.04417 27.1168 9.01925 27.101 9.00785 27.0828L8.67993 26.5079C8.66853 26.4899 8.67529 26.4671 8.69324 26.4557L14.1766 23.5412C14.1946 23.5323 14.2264 23.5323 14.2421 23.5412L19.7231 26.4557C19.7411 26.465 19.748 26.4897 19.7389 26.5079H19.7411Z" fill="#0E7391"/>
<path d="M16.8621 26.114L14.2799 24.8558C14.2618 24.8469 14.2369 24.8355 14.2278 24.8309C14.2189 24.8264 14.1961 24.8309 14.1758 24.8378L11.5578 26.114C11.5396 26.1231 11.5417 26.1301 11.5622 26.1301H16.8575C16.8779 26.1301 16.8803 26.1233 16.8621 26.114Z" fill="#0E7391"/>
<path d="M28.1704 34.6023C28.2747 34.573 28.4375 34.546 28.6615 34.5164C28.8835 34.4866 29.0936 34.4733 29.2929 34.4733V27.2345C29.0938 27.2345 28.8835 27.2209 28.6615 27.1916C28.4398 27.162 28.2747 27.135 28.1704 27.1054V26.1255H32.2167C32.6512 26.1255 33.063 26.1662 33.4523 26.2454C33.8415 26.3246 34.1808 26.4583 34.4752 26.6413C34.767 26.8248 34.9978 27.0668 35.1631 27.3633C35.3284 27.662 35.412 28.0265 35.412 28.4608C35.412 29.0558 35.2537 29.529 34.9391 29.8772C34.6225 30.2258 34.2083 30.468 33.6899 30.5994V30.6289C33.9754 30.6766 34.2469 30.7598 34.5068 30.8779C34.7695 30.9957 34.9956 31.1513 35.1905 31.3394C35.3852 31.5295 35.5387 31.7535 35.6521 32.0141C35.7655 32.2742 35.8219 32.5751 35.8219 32.9165C35.8219 33.3916 35.7313 33.7966 35.5524 34.1317C35.3713 34.4693 35.1225 34.7428 34.8058 34.9556C34.4889 35.1682 34.1063 35.3241 33.6607 35.4239C33.2148 35.5236 32.7216 35.5734 32.1808 35.5734H28.1708V34.5937V34.6023H28.1704ZM30.8676 30.131H32.0174C32.6419 30.131 33.0968 30.0085 33.3797 29.7645C33.665 29.5202 33.805 29.158 33.805 28.6758C33.805 27.7528 33.2237 27.291 32.0581 27.291H30.8657V30.131H30.8676ZM30.8676 34.4032H32.1212C32.825 34.4032 33.3434 34.281 33.6762 34.0344C34.0089 33.7877 34.1764 33.3965 34.1764 32.8557C34.1764 32.3441 34.0225 31.948 33.7125 31.6629C33.4046 31.3802 32.8979 31.2374 32.1939 31.2374H30.8679V34.4032H30.8676Z" fill="#0E7391"/>
<path d="M36.4461 34.5955C36.5499 34.5657 36.7132 34.5389 36.9349 34.5098C37.1566 34.48 37.3669 34.4665 37.5662 34.4665V27.2276C37.3669 27.2276 37.1566 27.2141 36.9349 27.1843C36.7132 27.1575 36.5499 27.1279 36.4461 27.1007V26.1205H39.0711L43.0878 31.7553C43.3141 32.0676 43.5221 32.3664 43.7124 32.6491C43.9024 32.9318 44.0204 33.1269 44.0677 33.2306H44.0948C44.0857 33.1356 44.0766 32.9684 44.0677 32.7262C44.0589 32.4838 44.054 32.185 44.054 31.8254V27.2272C43.8551 27.2272 43.6469 27.2137 43.4294 27.1839C43.2124 27.1571 43.0513 27.1275 42.9476 27.1003V26.1201H46.523V27.1003C46.4189 27.1275 46.2584 27.1569 46.0412 27.1839C45.8241 27.2137 45.6203 27.2272 45.4301 27.2272V35.5729H44.0382L39.7932 29.6256C39.6889 29.4831 39.5871 29.3406 39.4873 29.1936C39.3878 29.0467 39.2995 28.9107 39.2248 28.7817C39.1479 28.655 39.0823 28.5418 39.0259 28.4491C38.9693 28.3539 38.9309 28.2884 38.9125 28.25H38.8829C38.9036 28.3359 38.9171 28.4989 38.9262 28.7388C38.9351 28.9808 38.9395 29.2139 38.9395 29.4426V34.4686C39.1298 34.4775 39.3335 34.4935 39.5574 34.518C39.7793 34.541 39.9421 34.568 40.0462 34.5951V35.5748H36.4414V34.5949H36.4461V34.5955Z" fill="#0E7391"/>
<path d="M46.3058 34.5909C46.3806 34.5702 46.5026 34.5504 46.6679 34.5257C46.8331 34.5004 46.9959 34.4845 47.1565 34.4759L50.4492 26.1301H51.911L55.1199 34.4759C55.2896 34.4845 55.4615 34.5027 55.6313 34.5257C55.8008 34.5502 55.9252 34.5702 56 34.5909V35.5821H52.5517V34.5909C52.6374 34.5702 52.7596 34.5504 52.9203 34.5257C53.0812 34.5004 53.2461 34.4845 53.4161 34.4759L52.8777 32.9412H49.2001L48.6321 34.4759C48.8018 34.4845 48.9672 34.5027 49.1279 34.5257C49.2883 34.5502 49.4131 34.5702 49.4965 34.5909V35.5821H46.3037V34.5909H46.3058ZM52.4518 31.8348L51.6281 29.5064C51.4856 29.1082 51.3701 28.7754 51.2795 28.5062C51.1914 28.237 51.1167 28.0062 51.0601 27.8185H51.0307C50.9649 28.0174 50.8838 28.2575 50.7886 28.5358C50.6935 28.8141 50.5806 29.1401 50.4469 29.509L49.5803 31.8375H52.4474L52.4518 31.8348Z" fill="#0E7391"/>
</svg>
