<svg width="130" height="60" viewBox="0 0 130 60" fill="none" xmlns="http://www.w3.org/2000/svg">
<rect width="130" height="60" fill="white"/>
<path d="M18.4305 23.6056C18.4073 23.5937 18.3805 23.5803 18.3687 23.5739C18.3588 23.5694 18.3301 23.5734 18.3058 23.5843L15.18 25.1083C15.1582 25.1192 15.1582 25.1277 15.1835 25.1277L21.5078 25.1301C21.5331 25.1301 21.5371 25.1212 21.5148 25.1108L18.4305 23.6056Z" fill="#0E7391"/>
<path d="M18.3467 19C12.2847 18.9975 7.34574 23.931 7.34326 29.996C7.34227 36.0601 12.2758 40.9975 18.3393 41C24.4043 41.0025 29.3408 36.067 29.3433 30.004C29.3442 23.9384 24.4137 19.0025 18.3467 19ZM24.539 36.3912C24.5399 36.409 24.5256 36.4239 24.5073 36.4244L12.1787 36.4204C12.1594 36.4204 12.1451 36.4051 12.1466 36.3863L12.1451 35.1458C12.1451 35.128 12.1594 35.1137 12.1768 35.1137L24.5098 35.1181C24.5241 35.1181 24.5399 35.1335 24.5399 35.1503L24.539 36.3912ZM16.2366 33.1436L16.2391 26.896H17.6557L17.6547 33.1456L19.0352 33.1461L19.0387 26.8974L20.4534 26.8984L20.4509 33.1476L21.8626 33.1481L21.8651 26.8984L23.2782 26.8989L23.2733 33.1486H23.8989L23.8999 34.4212C23.8989 34.4395 23.8866 34.4529 23.8673 34.4529L12.8202 34.4489C12.8044 34.4489 12.7876 34.435 12.7861 34.4162L12.7876 33.1446H13.4137L13.4162 26.8955L14.8249 26.896V33.1431L16.2366 33.1436ZM24.9582 25.5808L24.5657 26.2668C24.5558 26.2881 24.5231 26.3064 24.4989 26.3064L12.202 26.302C12.1768 26.302 12.1466 26.2847 12.1342 26.2634L11.7427 25.5773C11.7318 25.5546 11.7392 25.5278 11.762 25.5174L18.3116 22.0347C18.3334 22.0229 18.3685 22.0229 18.3918 22.0347L24.9399 25.5204C24.9632 25.5318 24.9701 25.56 24.9582 25.5808Z" fill="#0E7391"/>
<path d="M34.8721 34.0672C34.9825 34.0376 35.1542 34.0074 35.3898 33.9772C35.6235 33.9475 35.8492 33.9321 36.0585 33.9331L36.0625 26.2772C35.8502 26.2767 35.6269 26.2619 35.3943 26.2312C35.1557 26.2015 34.9849 26.1718 34.8755 26.1401L34.8745 25.1061L39.1527 25.1076C39.6135 25.1086 40.0496 25.1506 40.4604 25.2358C40.8688 25.3194 41.2276 25.46 41.539 25.656C41.8518 25.8505 42.0904 26.104 42.2676 26.4198C42.4418 26.7341 42.5304 27.1226 42.5295 27.5805C42.5295 28.2106 42.3621 28.7096 42.0275 29.0783C41.6969 29.4486 41.2554 29.7035 40.7079 29.8421V29.8728C41.0069 29.9223 41.2969 30.0114 41.5731 30.1361C41.8493 30.2618 42.0894 30.4252 42.2953 30.6232C42.5012 30.8256 42.6626 31.0632 42.7839 31.3409C42.9051 31.6146 42.9631 31.9329 42.9631 32.2947C42.9631 32.7971 42.8675 33.2238 42.677 33.5792C42.4869 33.9351 42.224 34.2266 41.887 34.4514C41.5499 34.6771 41.1455 34.8424 40.6762 34.9463C40.2025 35.0528 39.6838 35.1052 39.1116 35.1047L34.8721 35.1037V34.0672ZM37.7252 29.3412L38.9418 29.3417C39.6026 29.3412 40.0823 29.2125 40.3817 28.9521C40.6822 28.6937 40.8336 28.3116 40.8336 27.8018C40.8351 26.8276 40.2194 26.3386 38.9879 26.3386L37.7276 26.3366L37.7252 29.3412ZM37.7237 33.8584L39.0512 33.8589C39.7962 33.8589 40.3431 33.7292 40.6955 33.4678C41.046 33.2099 41.2227 32.7932 41.2227 32.2234C41.2242 31.6824 41.0594 31.2622 40.7322 30.9622C40.405 30.6628 39.8704 30.5118 39.1284 30.5118H37.7252L37.7237 33.8584Z" fill="#0E7391"/>
<path d="M45.8211 35.2871C45.5107 35.2876 45.2261 35.2426 44.9667 35.152C44.7049 35.0624 44.4817 34.9287 44.2901 34.753C44.099 34.5788 43.951 34.3684 43.8407 34.1229C43.7303 33.8769 43.6758 33.5953 43.6783 33.275C43.6773 32.8043 43.7887 32.4088 44.0139 32.0895C44.2396 31.7688 44.5366 31.5104 44.8999 31.3168C45.2672 31.1218 45.6805 30.9822 46.1473 30.8981C46.6126 30.8125 47.0838 30.7694 47.5654 30.7689L47.8342 30.7694L47.8357 30.1601C47.8376 29.723 47.7347 29.4067 47.5362 29.2147C47.3347 29.0191 47.0016 28.9231 46.5289 28.9226C46.1582 28.9231 45.8151 28.9929 45.5013 29.1325C45.185 29.2726 44.894 29.4577 44.6222 29.6889L43.9194 28.6934C44.2371 28.4009 44.6272 28.1559 45.0905 27.9579C45.5483 27.7594 46.0854 27.6614 46.6962 27.6624C47.604 27.6629 48.2886 27.8639 48.7445 28.2638C49.2003 28.6637 49.428 29.3191 49.4265 30.2294L49.4255 33.2775C49.4255 33.4166 49.428 33.5443 49.433 33.6601C49.4354 33.7754 49.4449 33.8873 49.4557 33.9982C49.6641 34.0175 49.8606 34.0328 50.0403 34.0432C50.2205 34.0526 50.3759 34.0576 50.5056 34.0581V35.1084C50.2848 35.1277 49.9542 35.1475 49.5077 35.1678C49.0632 35.1891 48.5737 35.1985 48.044 35.1975C48.0148 35.098 47.9871 34.9659 47.9688 34.8005C47.948 34.6357 47.9396 34.4526 47.9396 34.2526L47.9094 34.2521C47.7094 34.5219 47.4318 34.7619 47.0744 34.9733C46.7215 35.1841 46.3022 35.2876 45.8211 35.2871ZM46.227 34.0853C46.5967 34.0858 46.9155 34.011 47.1808 33.8621C47.4476 33.7116 47.6644 33.5215 47.8342 33.2908V31.7752H47.5654C46.8853 31.7752 46.3314 31.8767 45.9062 32.0816C45.4815 32.2875 45.2672 32.6498 45.2662 33.1711C45.2672 33.4997 45.3702 33.7368 45.5825 33.8759C45.7919 34.016 46.0077 34.0853 46.227 34.0853Z" fill="#0E7391"/>
<path d="M51.231 34.0723C51.3423 34.0441 51.5072 34.0129 51.7264 33.9837C51.9462 33.954 52.1581 33.9392 52.3595 33.9377V28.9706C52.1279 28.9512 51.9135 28.9349 51.7121 28.925C51.5146 28.9141 51.3547 28.9092 51.2334 28.9092V27.8752C51.4636 27.844 51.8299 27.8163 52.3303 27.792C52.8307 27.7677 53.3797 27.7539 53.9811 27.7539L53.9227 28.8953L53.9519 28.8948C54.2221 28.5355 54.5419 28.2405 54.9131 28.0108C55.2824 27.7811 55.7323 27.6653 56.262 27.6658C56.652 27.6653 56.9866 27.7247 57.2603 27.846C57.5356 27.9657 57.7588 28.1311 57.9296 28.3419C58.0993 28.5518 58.2241 28.7963 58.3028 29.077C58.3815 29.3576 58.4216 29.6571 58.4216 29.9778V33.9412C58.6225 33.9407 58.8289 33.959 59.0448 33.9936C59.2581 34.0298 59.418 34.057 59.516 34.0758V35.1128L55.765 35.1103V34.0743C55.863 34.054 56.0145 34.0313 56.2159 34.0001C56.4159 33.9699 56.6208 33.9506 56.8302 33.9407L56.8317 30.2486C56.8317 29.8388 56.748 29.522 56.5792 29.3027C56.406 29.0809 56.115 28.9715 55.7056 28.971C55.3289 28.9715 54.9918 29.0854 54.7008 29.3161C54.4087 29.5467 54.1652 29.7957 53.9652 30.0659L53.9638 33.9397C54.1642 33.9501 54.3677 33.9689 54.5711 33.9996C54.777 34.0298 54.93 34.054 55.0295 34.0743V35.1103L51.2324 35.1098L51.231 34.0723Z" fill="#0E7391"/>
<path d="M64.4161 29.8006C64.4053 29.6764 64.3944 29.5378 64.3884 29.4012C64.3761 29.2675 64.3701 29.1393 64.3716 29.0191C64.1291 28.9201 63.8355 28.8711 63.4841 28.8701C63.1544 28.8706 62.8639 28.9369 62.6154 29.071C62.3654 29.2067 62.157 29.3908 61.9912 29.6259C61.8289 29.861 61.7002 30.1367 61.6165 30.4515C61.5294 30.7678 61.4868 31.1104 61.4859 31.4796C61.4868 31.84 61.5319 32.1785 61.6215 32.4943C61.7111 32.8086 61.8442 33.0824 62.0199 33.3111C62.1947 33.5422 62.4095 33.7244 62.6649 33.859C62.9218 33.9941 63.2188 34.0624 63.5593 34.0634C63.7786 34.0624 63.982 34.0426 64.1692 34.003C64.3533 33.9639 64.5166 33.913 64.6622 33.8531C64.8067 33.7942 64.9299 33.7323 65.0378 33.6729C65.1448 33.6125 65.2245 33.5635 65.2863 33.5224L65.8085 34.6044C65.7274 34.6633 65.6199 34.7317 65.4813 34.8069C65.3383 34.8811 65.1641 34.9569 64.9616 35.0311C64.7557 35.1068 64.5216 35.1687 64.2563 35.2202C63.991 35.2687 63.6925 35.2935 63.3618 35.2935C62.7931 35.293 62.2852 35.2014 61.8442 35.0153C61.4047 34.8306 61.0334 34.5728 60.7295 34.2421C60.4241 33.911 60.1935 33.5214 60.0326 33.0705C59.8687 32.621 59.79 32.1295 59.7915 31.5999C59.7915 30.9792 59.8846 30.4238 60.0712 29.9333C60.2593 29.4423 60.5172 29.0304 60.8528 28.6958C61.1864 28.3597 61.5754 28.1043 62.0224 27.9306C62.4674 27.7564 62.9569 27.6682 63.4841 27.6687C64.0053 27.6692 64.4513 27.7276 64.821 27.8489C65.1918 27.9687 65.4635 28.0949 65.6318 28.2251V29.8011L64.4161 29.8006Z" fill="#0E7391"/>
<path d="M69.806 35.2969C69.1843 35.2949 68.6522 35.188 68.2097 34.9727C67.7652 34.7578 67.4029 34.4727 67.1237 34.1233C66.8441 33.7733 66.6401 33.3749 66.5085 32.9234C66.3808 32.4725 66.3154 32.0122 66.3154 31.5419C66.3169 31.0925 66.3832 30.6366 66.5179 30.1763C66.651 29.7164 66.8599 29.3002 67.1421 28.9309C67.4222 28.5602 67.7786 28.2577 68.2196 28.0231C68.6582 27.7875 69.1868 27.6707 69.8075 27.6712C70.4277 27.6697 70.9613 27.7771 71.4108 27.9929C71.8592 28.2087 72.2275 28.4928 72.5171 28.8438C72.8071 29.1932 73.0224 29.5932 73.162 30.0456C73.3026 30.4936 73.3719 30.9544 73.3704 31.4251C73.3704 31.8642 73.3016 32.3146 73.161 32.7749C73.0224 33.2358 72.8056 33.6535 72.5136 34.0292C72.225 34.4034 71.8577 34.7083 71.4073 34.944C70.9589 35.1781 70.4218 35.2969 69.806 35.2969ZM69.8338 34.0941C70.1634 34.0941 70.4411 34.0292 70.6703 33.8916C70.9005 33.7585 71.091 33.5748 71.24 33.3452C71.39 33.1145 71.5004 32.8408 71.5707 32.5195C71.64 32.1993 71.6761 31.8592 71.6761 31.4994C71.6761 31.1385 71.6385 30.7985 71.5632 30.4772C71.4885 30.159 71.3766 29.8808 71.2266 29.6432C71.0786 29.4091 70.8836 29.2224 70.651 29.0819C70.4169 28.9413 70.1357 28.872 69.806 28.872C69.4888 28.872 69.2145 28.9393 68.9829 29.0744C68.7552 29.2091 68.5651 29.3922 68.4221 29.6219C68.279 29.8506 68.1736 30.1248 68.1092 30.4401C68.0449 30.7549 68.0098 31.0925 68.0122 31.4523C68.0112 31.8132 68.0474 32.1542 68.1167 32.474C68.187 32.7942 68.2924 33.0729 68.4364 33.3135C68.581 33.5545 68.77 33.7451 68.9968 33.8847C69.2254 34.0243 69.5056 34.0926 69.8338 34.0941Z" fill="#0E7391"/>
<path d="M77.169 34.0826C77.2779 34.0529 77.4516 34.0227 77.6867 33.9935C77.9203 33.9628 78.1456 33.9485 78.3544 33.9485L78.3579 26.2931C78.1495 26.2931 77.9228 26.2762 77.6892 26.2465C77.4551 26.2173 77.2818 26.1871 77.1714 26.1569L77.1704 25.1204L79.9493 25.1219L84.1962 31.0825C84.4363 31.4132 84.6541 31.728 84.8555 32.0289C85.054 32.3294 85.1803 32.5343 85.2288 32.6452H85.2604C85.2505 32.5452 85.2406 32.3665 85.2288 32.1106C85.2203 31.8567 85.2164 31.5389 85.2179 31.1582V26.296C85.008 26.295 84.7862 26.2787 84.5571 26.249C84.3259 26.2198 84.1561 26.1886 84.0467 26.1599V25.1239L87.8294 25.1249L87.8334 26.1599C87.7195 26.1901 87.5497 26.2218 87.3191 26.2495C87.0864 26.2797 86.8721 26.296 86.6746 26.296L86.6711 35.123L85.2005 35.1226L80.713 28.8298C80.6012 28.6804 80.4957 28.5279 80.3903 28.373C80.2839 28.218 80.1928 28.0725 80.1156 27.9369C80.0329 27.8027 79.9636 27.684 79.9032 27.5835C79.8438 27.4845 79.8052 27.4142 79.7835 27.3751H79.7518C79.7736 27.4632 79.7869 27.6369 79.7978 27.8909C79.8087 28.1478 79.8137 28.3947 79.8122 28.6353L79.8112 33.9485C80.0111 33.9574 80.227 33.9767 80.4621 34.0009C80.6982 34.0267 80.8704 34.0549 80.9818 34.0841L80.9808 35.1201L77.168 35.1191L77.169 34.0826Z" fill="#0E7391"/>
<path d="M90.1878 35.303C89.8764 35.3035 89.5903 35.2594 89.332 35.1678C89.0691 35.0783 88.8449 34.9456 88.6558 34.7704C88.4667 34.5951 88.3153 34.3848 88.2064 34.1388C88.0945 33.8947 88.04 33.6121 88.0415 33.2919C88.0415 32.8206 88.1554 32.4256 88.3781 32.1054C88.6063 31.7851 88.9008 31.5272 89.2656 31.3332C89.6304 31.1377 90.0457 30.9981 90.51 30.912C90.9768 30.8283 91.448 30.7853 91.9291 30.7853L92.2009 30.7858L92.1999 30.1759C92.1999 29.7389 92.1004 29.4231 91.9004 29.2285C91.699 29.036 91.3668 28.9395 90.8931 28.9395C90.5234 28.9395 90.1843 29.0083 89.8655 29.1493C89.5488 29.2884 89.2572 29.4726 88.9889 29.7042L88.2851 28.7093C88.6023 28.4158 88.9939 28.1713 89.4557 27.9748C89.9141 27.7768 90.4486 27.6788 91.0614 27.6783C91.9692 27.6788 92.6528 27.8782 93.1111 28.2787C93.5645 28.6796 93.7908 29.336 93.7898 30.2462L93.7888 33.2948C93.7898 33.4329 93.7922 33.5606 93.7972 33.676C93.8016 33.7928 93.8091 33.9032 93.8214 34.014C94.0323 34.0343 94.2258 34.0492 94.4065 34.0596C94.5862 34.07 94.7401 34.0734 94.8708 34.0734V35.1253C94.6491 35.1451 94.3184 35.1649 93.8734 35.1847C93.4284 35.205 92.9389 35.2149 92.4083 35.2144C92.3791 35.1139 92.3548 34.9817 92.334 34.8164C92.3162 34.6511 92.3038 34.4689 92.3038 34.269L92.2746 34.2685C92.0722 34.5382 91.795 34.7783 91.4396 34.9887C91.0857 35.1985 90.6689 35.3035 90.1878 35.303ZM90.5927 34.1012C90.9624 34.1017 91.2807 34.0289 91.545 33.8784C91.8108 33.7279 92.0286 33.5384 92.1999 33.3077L92.1984 31.7911H91.9281C91.248 31.7906 90.6966 31.8925 90.2714 32.0975C89.8433 32.3039 89.6339 32.6657 89.6324 33.1849C89.6324 33.5166 89.7368 33.7527 89.9477 33.8923C90.161 34.0324 90.3719 34.1017 90.5927 34.1012Z" fill="#0E7391"/>
<path d="M99.7848 29.8066C99.7763 29.6804 99.7655 29.5502 99.757 29.4156C99.7462 29.28 99.7422 29.1528 99.7422 29.031C99.5001 28.934 99.2041 28.8815 98.8552 28.8815C98.5245 28.8815 98.2345 28.9493 97.9835 29.085C97.7331 29.2191 97.5267 29.4037 97.3608 29.6388C97.1985 29.8735 97.0713 30.1497 96.9851 30.465C96.9025 30.7813 96.8564 31.1218 96.8555 31.4926C96.8564 31.8529 96.904 32.1915 96.9911 32.5063C97.0846 32.8216 97.2128 33.0943 97.3925 33.3245C97.5658 33.5547 97.7811 33.7363 98.036 33.8734C98.2904 34.0076 98.5884 34.0754 98.9289 34.0759C99.1487 34.0759 99.3531 34.0566 99.5363 34.0155C99.7219 33.9764 99.8867 33.9254 100.033 33.866C100.176 33.8056 100.303 33.7457 100.407 33.6863C100.511 33.6259 100.596 33.5745 100.656 33.5363L101.18 34.6179C101.101 34.6768 100.991 34.7441 100.851 34.8193C100.709 34.8946 100.536 34.9698 100.33 35.0441C100.127 35.1188 99.8912 35.1817 99.6274 35.2302C99.3596 35.2816 99.0626 35.3064 98.7314 35.3064C98.1632 35.3064 97.6563 35.2123 97.2143 35.0272C96.7743 34.8436 96.4035 34.5847 96.0991 34.2551C95.7972 33.9239 95.5645 33.5334 95.4047 33.0839C95.2423 32.6335 95.1611 32.1435 95.1621 31.6123C95.1636 30.9921 95.2557 30.4368 95.4433 29.9462C95.6279 29.4557 95.8883 29.0434 96.2229 28.7093C96.555 28.3737 96.9465 28.1183 97.391 27.943C97.8395 27.7688 98.3265 27.6797 98.8562 27.6807C99.3749 27.6807 99.8224 27.7416 100.191 27.8609C100.56 27.9821 100.83 28.1074 101 28.2366L101.003 29.8071L99.7848 29.8066Z" fill="#0E7391"/>
<path d="M102.006 34.0914C102.112 34.0612 102.277 34.0325 102.492 34.0018C102.71 33.9721 102.917 33.9568 103.117 33.9563L103.119 28.9891C102.891 28.9684 102.677 28.954 102.48 28.9431C102.285 28.9347 102.125 28.9283 102.007 28.9278L102.006 27.8918C102.237 27.8611 102.607 27.8339 103.11 27.8106C103.618 27.7853 104.183 27.772 104.799 27.773L104.741 28.9599L104.738 33.9583C104.937 33.9583 105.142 33.9746 105.352 34.0093C105.561 34.0449 105.722 34.0726 105.833 34.0929L105.831 35.1289L102.006 35.1279V34.0914ZM103.922 26.879C103.661 26.879 103.439 26.7875 103.26 26.6073C103.081 26.4281 102.989 26.2123 102.989 25.9584C102.99 25.7059 103.081 25.4901 103.261 25.3104C103.44 25.1308 103.661 25.0407 103.921 25.0417C104.192 25.0407 104.417 25.1308 104.59 25.3114C104.766 25.4916 104.853 25.7069 104.853 25.9598C104.853 26.2123 104.765 26.4281 104.59 26.6073C104.416 26.788 104.192 26.879 103.922 26.879Z" fill="#0E7391"/>
<path d="M109.845 35.311C109.226 35.3105 108.696 35.2026 108.248 34.9873C107.807 34.7725 107.442 34.4894 107.165 34.1384C106.887 33.789 106.68 33.388 106.551 32.9376C106.422 32.4877 106.355 32.0273 106.355 31.5571C106.355 31.1067 106.426 30.6503 106.559 30.1909C106.696 29.7316 106.902 29.3148 107.183 28.9451C107.461 28.5743 107.822 28.2729 108.261 28.0368C108.698 27.8017 109.228 27.6853 109.847 27.6853C110.469 27.6858 111.001 27.7937 111.452 28.0071C111.901 28.2244 112.268 28.505 112.56 28.8579C112.847 29.2069 113.066 29.6078 113.204 30.0583C113.342 30.5097 113.414 30.969 113.414 31.4403C113.412 31.8788 113.342 32.3293 113.203 32.7896C113.065 33.2499 112.845 33.6682 112.558 34.0439C112.268 34.4176 111.898 34.724 111.448 34.9596C110.999 35.1927 110.465 35.3105 109.845 35.311ZM109.875 34.1092C110.204 34.1092 110.485 34.0439 110.714 33.9068C110.942 33.7716 111.133 33.5895 111.282 33.3583C111.43 33.1301 111.54 32.8549 111.613 32.5347C111.68 32.2144 111.716 31.8734 111.717 31.514C111.716 31.1527 111.679 30.8131 111.603 30.4934C111.528 30.1726 111.417 29.8935 111.267 29.6578C111.12 29.4242 110.927 29.2361 110.694 29.0965C110.458 28.9564 110.177 28.8857 109.846 28.8852C109.529 28.8862 109.255 28.953 109.025 29.0886C108.796 29.2237 108.609 29.4069 108.467 29.6366C108.319 29.8657 108.217 30.139 108.151 30.4533C108.087 30.7691 108.053 31.1071 108.053 31.466C108.053 31.8278 108.087 32.1684 108.159 32.4877C108.227 32.8094 108.333 33.0886 108.48 33.3286C108.621 33.5702 108.81 33.7603 109.04 33.8998C109.266 34.0404 109.547 34.1092 109.875 34.1092ZM110.382 25.0976L112.544 25.0981L110.634 26.7949L109.24 26.7944L110.382 25.0976Z" fill="#0E7391"/>
<path d="M113.937 34.0958C114.045 34.0666 114.212 34.0364 114.43 34.0062C114.651 33.9745 114.861 33.9611 115.061 33.9611L115.062 28.9935C114.831 28.9727 114.62 28.9584 114.417 28.948C114.217 28.9386 114.057 28.9321 113.938 28.9321L113.939 27.8951C114.166 27.8659 114.531 27.8377 115.034 27.8154C115.534 27.7887 116.082 27.7778 116.686 27.7778L116.624 28.9183H116.654C116.925 28.5589 117.245 28.2624 117.614 28.0318C117.985 27.8011 118.436 27.6872 118.966 27.6872C119.355 27.6872 119.689 27.7491 119.964 27.8679C120.241 27.9882 120.46 28.155 120.632 28.3644C120.801 28.5738 120.927 28.8198 121.006 29.0999C121.087 29.3816 121.125 29.681 121.128 29.9998L121.124 33.9631C121.324 33.9636 121.535 33.9805 121.749 34.0151C121.964 34.0512 122.12 34.0794 122.221 34.0988L122.219 35.1357L118.47 35.1343V34.0978C118.569 34.078 118.718 34.0522 118.92 34.0225C119.122 33.9928 119.324 33.9715 119.534 33.9621L119.536 30.2696C119.535 29.8592 119.45 29.5454 119.282 29.3246C119.109 29.1049 118.819 28.9945 118.412 28.994C118.031 28.9935 117.695 29.1088 117.402 29.3385C117.114 29.5692 116.867 29.8196 116.67 30.0909L116.666 33.9616C116.867 33.9715 117.071 33.9923 117.274 34.0225C117.481 34.0527 117.634 34.078 117.732 34.0978L117.733 35.1338L113.937 35.1328V34.0958Z" fill="#0E7391"/>
</svg>
