<svg width="130" height="60" viewBox="0 0 130 60" fill="none" xmlns="http://www.w3.org/2000/svg">
<rect width="130" height="60" fill="white"/>
<path d="M107.411 26.9343C107.577 23.3398 108.849 21.1282 111.641 21.1282C114.212 21.1282 114.875 23.1189 114.875 25.6898C114.875 26.7127 114.654 26.9337 113.658 26.9337L107.411 26.9343ZM52.3651 26.9343C52.5309 23.3398 53.8029 21.1282 56.5948 21.1282C59.1658 21.1282 59.8294 23.1189 59.8294 25.6898C59.8294 26.7127 59.6084 26.9337 58.613 26.9337L52.3651 26.9343ZM19.7967 28.9806L23.2528 22.3727C23.4738 21.9583 23.6672 21.654 24.1648 21.654C24.6625 21.654 24.8835 21.9583 24.8835 22.511V28.9806H19.7967ZM111.751 39.0991C116.258 39.0991 119.05 36.694 119.797 32.7128H118.193C117.447 35.0903 115.566 36.3347 112.746 36.3347C109.152 36.3347 107.548 33.7357 107.383 28.7315H119.548C119.658 28.2338 119.658 27.7637 119.658 27.266C119.658 22.732 117.004 19.3592 111.585 19.3592C106.167 19.3592 102.545 23.0087 102.545 29.2567C102.545 35.9197 106.582 39.0991 111.751 39.0991ZM92.9235 39.0991C98.3145 39.0991 100.748 36.5557 100.748 32.0217V19.4699H96.1305V33.7638C96.1305 36.2245 94.8309 37.3025 92.9235 37.3025C91.0161 37.3025 89.689 36.2245 89.689 33.7638V19.4699H85.0717V32.0217C85.0717 36.5557 87.5325 39.0991 92.9235 39.0991ZM66.4373 38.823H71.0546V26.9624C71.0546 24.0315 72.2985 22.4559 74.649 22.4559C76.9996 22.4559 78.2434 24.0315 78.2434 26.9624V38.7955H82.8607V26.4091C82.8607 21.2666 80.3448 19.1933 76.9163 19.1933C73.2117 19.1933 71.7187 21.5708 71.221 22.3727C71.0276 22.6769 70.9726 22.6769 70.8342 22.6769C70.6959 22.6769 70.6407 22.5943 70.6407 22.4284V19.4699H66.4385V38.823H66.4373ZM56.7057 39.0991C61.2121 39.0991 64.0047 36.694 64.7509 32.7128H63.1471C62.4009 35.0903 60.5204 36.3347 57.7004 36.3347C54.106 36.3347 52.5028 33.7357 52.3369 28.7315H64.5017C64.6126 28.2338 64.6126 27.7637 64.6126 27.266C64.6126 22.732 61.9583 19.3592 56.5398 19.3592C51.1212 19.3592 47.4992 23.0087 47.4992 29.2567C47.4992 35.9197 51.5356 39.0991 56.7057 39.0991ZM20.5704 22.511L12 38.823H14.6542L17.6402 33.1554C18.5804 31.3857 19.5476 30.7502 21.7598 30.7502H24.8841V38.823H29.5014V23.9208C29.5008 20.7138 28.0078 19.1933 25.2709 19.1933C22.8935 19.1933 21.7041 20.3545 20.5704 22.511ZM36.2189 39.0991C38.5964 39.0991 39.7852 37.9379 40.9189 35.7814L49.4899 19.4699H46.8356L38.2371 35.9203C38.0161 36.3347 37.8227 36.639 37.325 36.639C36.8274 36.639 36.6064 36.3347 36.6064 35.782V19.4699H31.9891V34.3717C31.9891 37.5786 33.4821 39.0991 36.2189 39.0991Z" fill="#002820"/>
</svg>
