<svg width="60" height="60" viewBox="0 0 60 60" fill="none" xmlns="http://www.w3.org/2000/svg">
<rect width="60" height="60" fill="#002820"/>
<path d="M16.3586 29.8003L20.507 21.8333C20.7723 21.3337 21.0044 20.9669 21.6018 20.9669C22.1991 20.9669 22.4644 21.3337 22.4644 22.0001V29.8003H16.3586ZM17.2873 22.0001L7 41.6672H10.1859L13.77 34.8338C14.8986 32.7001 16.0595 31.934 18.7149 31.934H22.4651V41.6672H28.0074V23.6998C28.0066 19.8333 26.2145 18 22.9294 18C20.0757 18 18.648 19.4 17.2873 22.0001ZM36.0706 42C38.9243 42 40.3513 40.6 41.712 37.9999L52 18.3336H48.8141L38.493 38.1675C38.2277 38.6671 37.9956 39.0339 37.3982 39.0339C36.8009 39.0339 36.5356 38.6671 36.5356 38.0007V18.3336H30.9934V36.3003C30.9934 40.1668 32.7854 42 36.0706 42Z" fill="white"/>
</svg>
