<svg width="60" height="60" viewBox="0 0 60 60" fill="none" xmlns="http://www.w3.org/2000/svg">
<rect width="60" height="60" fill="white"/>
<path d="M28.6369 32.2496C28.4004 31.81 24.8528 25.848 24.8528 25.848C24.3333 24.9282 24.2953 24.2225 24.8528 23.2731C25.0958 22.7967 26.4616 20.4918 26.4616 20.4918C26.9444 19.6391 27.4993 19.0461 28.8516 19.0461L31.8023 19.0397C32.9367 19.0397 33.366 19.3098 33.8822 20.2753C33.9841 20.4519 34.6067 21.594 34.9631 22.2038C35.5162 23.1699 36.0524 23.4561 37.2062 23.4561H42.1659L38.0627 16.3384C37.1449 14.7561 36.1659 14 34.0157 14H27.2215C24.5338 14 23.3311 14.8527 22.0852 16.9481L19.0681 22.1709C18.272 23.5496 18.127 25.3652 19.0681 27.1203L26.0755 38.9445L28.6537 34.6679C29.1403 33.7985 29.11 33.132 28.6369 32.2496Z" fill="#003E7E"/>
<path d="M31.4635 33.1645C31.2024 33.5841 27.6065 39.6396 27.6065 39.6396C27.0651 40.5452 26.4741 40.9352 25.3751 40.9255C24.8402 40.9519 22.146 40.9223 22.146 40.9223C21.1682 40.9255 20.3722 40.7689 19.6941 39.5965L18.2188 37.0421C17.649 36.0592 17.6657 35.5565 18.2452 34.6277C18.3502 34.4511 18.9999 33.4282 19.3532 32.8126C19.9107 31.8529 19.8894 31.247 19.3132 30.2441L16.8098 25.9805L12.7434 32.9783C11.8339 34.5606 11.6721 35.7827 12.7479 37.648L16.1453 43.5333C17.4891 45.8614 18.8233 46.4744 21.2629 46.5008L27.1167 46.5079C28.7087 46.5079 30.3542 45.7216 31.4048 44.0264C31.8947 43.1601 38.6514 31.9386 38.6514 31.9386H33.5473C32.5515 31.9522 31.9933 32.3086 31.4635 33.1645Z" fill="#003E7E"/>
<path d="M30.7653 30.4942C31.2616 30.511 38.3097 30.491 38.3097 30.491C39.3655 30.5045 40.0016 30.821 40.5424 31.7801C40.8305 32.23 42.0732 34.3582 42.0732 34.3582C42.5675 35.2039 42.8092 35.9806 42.1312 37.1523L40.6571 39.7105C40.0893 40.6896 39.6445 40.9261 38.552 40.8894C38.3458 40.8894 37.2746 40.8662 36.5656 40.8694C35.4531 40.8662 34.9355 41.1923 34.3625 42.1882C34.1646 42.5278 31.7515 46.4782 31.7515 46.4782H39.8734C41.7019 46.475 42.8408 46.0019 43.9185 44.1431L47.3159 38.2577C48.6578 35.9296 48.5251 34.4639 47.3256 32.3389C46.9672 31.7059 45.6053 29.3882 44.4496 27.3862C43.6555 26.0075 42.155 24.975 40.1615 24.915C39.1624 24.9221 26.0356 24.9415 26.0356 24.9415L28.6274 29.2883C29.1385 30.1474 29.763 30.4639 30.7653 30.4942Z" fill="#003E7E"/>
</svg>
