<svg width="130" height="60" viewBox="0 0 130 60" fill="none" xmlns="http://www.w3.org/2000/svg">
<rect width="130" height="60" fill="white"/>
<path d="M11.7617 36.9219H122.038V37.9969H13.3344C13.3344 37.9969 12.9317 38.0204 12.6948 37.9406C12.5448 37.8907 12.4622 37.8461 12.3332 37.7546C12.0098 37.527 11.7617 36.9219 11.7617 36.9219Z" fill="#41AD49"/>
<path d="M66.3999 33.5539C65.7739 33.7069 65.0765 33.8838 63.9549 33.8838C61.7568 33.8838 59.2168 32.7731 59.2168 29.654C59.2168 26.7821 61.2251 25.3521 63.943 25.3521C64.7798 25.3521 65.5955 25.5419 66.388 25.7775L66.2098 27.5626C65.502 27.1723 64.817 26.9838 64.0609 26.9838C62.5006 26.9838 61.4836 28.1178 61.4836 29.654C61.4836 31.2726 62.6301 32.2533 64.2375 32.2533C64.9577 32.2533 65.6903 32.0635 66.2934 31.8278L66.3999 33.5539Z" fill="#003E7E"/>
<path d="M69.5375 32.4666C70.3416 32.4666 70.8497 31.7332 70.8497 31.0117C70.5773 30.9998 70.2709 30.9762 69.9513 30.9762C69.2311 30.9762 68.6642 31.2015 68.6642 31.792C68.664 32.2165 69.0411 32.4666 69.5375 32.4666ZM71.0043 33.742C70.9924 33.4106 70.9571 33.091 70.9571 32.773H70.9336C70.449 33.5418 69.8571 33.8837 68.9823 33.8837C67.7656 33.8837 66.6787 33.2811 66.6787 31.9455C66.6787 30.0662 68.723 29.8437 69.8571 29.8437C70.2002 29.8437 70.5773 29.8777 70.8497 29.9248C70.8378 29.0868 70.2106 28.8615 69.4445 28.8615C68.7582 28.8615 68.0733 28.9925 67.4815 29.3224L67.4476 27.882C68.2045 27.5729 68.9954 27.4434 69.9044 27.4434C71.4759 27.4434 72.8352 28.118 72.8352 29.997V32.2887C72.8352 32.7732 72.8588 33.2577 72.953 33.7423L71.0043 33.742Z" fill="#003E7E"/>
<path d="M75.7607 25.3521H73.6338V26.9103H75.7607V25.3521Z" fill="#003E7E"/>
<path d="M75.7607 27.5859H73.6338V33.7422H75.7607V27.5859Z" fill="#003E7E"/>
<path d="M78.3719 30.6107L76.4467 27.5859H78.9636L79.8726 29.4298L80.8311 27.5859H83.1595L81.232 30.5874L83.2879 33.7419H80.7239L79.697 31.8276L78.6808 33.7419H76.2817L78.3719 30.6107Z" fill="#003E7E"/>
<path d="M85.9749 32.4666C86.779 32.4666 87.2871 31.7332 87.2871 31.0117C87.0147 30.9998 86.7083 30.9762 86.3888 30.9762C85.6686 30.9762 85.1029 31.2015 85.1029 31.792C85.1027 32.2165 85.4798 32.4666 85.9749 32.4666ZM87.4417 33.742C87.4285 33.4106 87.392 33.091 87.392 32.773H87.3685C86.8865 33.5418 86.2945 33.8837 85.42 33.8837C84.202 33.8837 83.1177 33.2811 83.1177 31.9455C83.1177 30.0662 85.1605 29.8437 86.2945 29.8437C86.6376 29.8437 87.0147 29.8777 87.2871 29.9248C87.2739 29.0868 86.648 28.8615 85.8807 28.8615C85.1944 28.8615 84.511 28.9925 83.919 29.3224L83.8825 27.882C84.6394 27.5729 85.4331 27.4434 86.3419 27.4434C87.9133 27.4434 89.2726 28.118 89.2726 29.997V32.2887C89.2726 32.7732 89.2962 33.2577 89.3905 33.7423L87.4417 33.742Z" fill="#003E7E"/>
<path d="M100.44 33.5482C99.044 33.9043 98.0017 33.9281 97.2422 33.9281C95.0395 33.9281 92.4937 32.8148 92.4937 29.6864C92.4937 26.5709 94.6832 25.374 97.7161 25.374C98.2609 25.374 99.4106 25.4343 100.217 25.742L100.037 27.5425C99.3503 27.1406 98.5462 27.0096 98.0252 27.0096C96.2364 27.0096 94.7671 27.7559 94.7671 29.6864C94.7671 31.3103 95.9168 32.2936 97.5275 32.2936C97.8235 32.2936 98.1063 32.2452 98.308 32.1509V30.5151H97.0194V28.9515H100.44V33.5482Z" fill="#003E7E"/>
<path d="M105.666 30.1121C105.666 29.4022 105.333 28.8219 104.479 28.8219C103.712 28.8219 103.342 29.4022 103.296 30.1121H105.666ZM103.319 31.3221C103.436 32.1746 104.089 32.5058 105.131 32.5058C105.712 32.5058 106.375 32.3761 107.014 32.0332V33.538C106.328 33.8104 105.545 33.9283 104.751 33.9283C102.716 33.9283 101.163 32.7314 101.163 30.6949C101.163 28.6572 102.549 27.4707 104.468 27.4707C106.755 27.4707 107.582 29.0946 107.582 30.9319V31.3221H103.319Z" fill="#003E7E"/>
<path d="M112.724 29.3196C112.488 29.2489 112.25 29.2489 112.001 29.2489C111.006 29.2489 110.448 29.9719 110.448 31.1792V33.7864H108.316V27.6131H110.259V28.751H110.283C110.65 27.9692 111.184 27.4702 112.106 27.4702C112.357 27.4702 112.616 27.507 112.831 27.5422L112.724 29.3196Z" fill="#003E7E"/>
<path d="M115.626 32.5071C116.433 32.5071 116.941 31.7712 116.941 31.0482C116.669 31.0363 116.362 31.0127 116.04 31.0127C115.317 31.0127 114.749 31.238 114.749 31.8312C114.749 32.257 115.129 32.5071 115.626 32.5071ZM117.096 33.7866C117.082 33.4541 117.048 33.1346 117.048 32.815H117.025C116.538 33.5836 115.946 33.9283 115.068 33.9283C113.848 33.9283 112.758 33.3246 112.758 31.9848C112.758 30.1019 114.809 29.8766 115.946 29.8766C116.291 29.8766 116.669 29.9131 116.941 29.959C116.931 29.1184 116.299 28.8931 115.532 28.8931C114.843 28.8931 114.157 29.0229 113.565 29.3554L113.528 27.9109C114.288 27.6017 115.081 27.4707 115.993 27.4707C117.569 27.4707 118.931 28.1463 118.931 30.031V32.3292C118.931 32.815 118.955 33.3008 119.049 33.7866H117.096Z" fill="#003E7E"/>
<path d="M122.037 25.3989H119.905V33.7867H122.037V25.3989Z" fill="#003E7E"/>
<path d="M26.7922 29.0162H27.7179C28.594 29.0162 29.7602 28.7884 29.7602 27.4539C29.7602 26.2413 28.6432 26.0725 27.9341 26.0725H26.7922V29.0162ZM26.7679 33.0194H27.6328C28.7506 33.0194 30.0121 32.7168 30.0121 31.3839C30.0121 29.895 28.726 29.7379 27.501 29.7379H26.7679V33.0194ZM25.939 25.3521H27.9341C29.3038 25.3521 30.5899 25.8077 30.5899 27.4184C30.5899 28.4883 30.0963 29.1247 29.0628 29.3292V29.3527C30.1211 29.5451 30.8413 30.2417 30.8413 31.3484C30.8413 33.1753 29.3522 33.7396 27.6092 33.7396H25.939V25.3521Z" fill="#003E7E"/>
<path d="M36.0572 30.6503H35.8398C34.5304 30.6503 32.9678 30.7838 32.9678 32.129C32.9678 32.9343 33.5454 33.2356 34.242 33.2356C36.0197 33.2356 36.057 31.6837 36.057 31.0238V30.6503H36.0572ZM36.1287 32.7534H36.1044C35.7678 33.4868 34.9153 33.8836 34.1584 33.8836C32.4154 33.8836 32.1392 32.705 32.1392 32.1523C32.1392 30.0976 34.3261 30.002 35.9118 30.002H36.0572V29.6903C36.0572 28.644 35.6847 28.1148 34.6627 28.1148C34.0256 28.1148 33.4252 28.2588 32.8609 28.6191V27.887C33.3297 27.6592 34.1226 27.4653 34.6627 27.4653C36.1766 27.4653 36.8137 28.1516 36.8137 29.7494V32.4536C36.8137 32.9447 36.8137 33.3193 36.874 33.7394H36.1289L36.1287 32.7534Z" fill="#003E7E"/>
<path d="M38.6158 29.0522C38.6158 28.5834 38.6158 28.1029 38.5674 27.6103H39.3008V28.7038H39.3243C39.577 28.1511 40.0342 27.4648 41.3076 27.4648C42.8207 27.4648 43.3983 28.4747 43.3983 29.8209V33.7377H42.6405V30.0132C42.6405 28.8596 42.232 28.1144 41.1862 28.1144C39.8048 28.1144 39.3732 29.3285 39.3732 30.3497V33.7377H38.6155V29.0522H38.6158Z" fill="#003E7E"/>
<path d="M49.2863 28.4276C48.8777 28.2482 48.3846 28.1146 47.9766 28.1146C46.4989 28.1146 45.6697 29.1845 45.6697 30.6733C45.6697 32.0679 46.5106 33.2349 47.8927 33.2349C48.3734 33.2349 48.8174 33.1262 49.2743 32.9571L49.3471 33.667C48.8298 33.8464 48.3491 33.8831 47.7731 33.8831C45.802 33.8831 44.8408 32.3809 44.8408 30.6733C44.8408 28.7877 46.0542 27.4648 47.8691 27.4648C48.6018 27.4648 49.1304 27.6339 49.3471 27.7058L49.2863 28.4276Z" fill="#003E7E"/>
<path d="M53.0227 33.2354C54.344 33.2354 55.0538 32.092 55.0538 30.6738C55.0538 29.257 54.344 28.1151 53.0227 28.1151C51.7008 28.1151 50.9915 29.257 50.9915 30.6738C50.9918 32.092 51.7008 33.2354 53.0227 33.2354ZM53.0227 27.4653C55.0066 27.4653 55.8819 29.0041 55.8819 30.6738C55.8819 32.3461 55.0066 33.8836 53.0227 33.8836C51.0399 33.8836 50.1626 32.3461 50.1626 30.6738C50.1626 29.0041 51.0402 27.4653 53.0227 27.4653Z" fill="#003E7E"/>
<path d="M14.5412 28.1752C14.4482 28.0024 13.0534 25.6583 13.0534 25.6583C12.8492 25.2967 12.8342 25.0192 13.0534 24.6459C13.149 24.4586 13.686 23.5524 13.686 23.5524C13.8758 23.2171 14.094 22.984 14.6256 22.984L15.7858 22.9815C16.2318 22.9815 16.4005 23.0876 16.6035 23.4673C16.6436 23.5367 16.8884 23.9858 17.0285 24.2255C17.2459 24.6054 17.4568 24.7179 17.9104 24.7179H19.8604L18.2472 21.9194C17.8863 21.2973 17.5014 21 16.656 21H13.9847C12.928 21 12.4551 21.3353 11.9653 22.1591L10.779 24.2126C10.466 24.7546 10.409 25.4685 10.779 26.1585L13.5342 30.8075L14.5478 29.126C14.7392 28.7842 14.7272 28.5222 14.5412 28.1752Z" fill="#003E7E"/>
<path d="M15.6525 28.535C15.5499 28.7 14.136 31.0809 14.136 31.0809C13.9232 31.4369 13.6908 31.5902 13.2587 31.5864C13.0484 31.5968 11.9891 31.5851 11.9891 31.5851C11.6047 31.5864 11.2917 31.5248 11.0251 31.0639L10.445 30.0596C10.221 29.6731 10.2276 29.4755 10.4554 29.1103C10.4967 29.0408 10.7522 28.6387 10.8911 28.3967C11.1103 28.0193 11.1019 27.7811 10.8753 27.3868L9.89107 25.7104L8.29227 28.4618C7.9347 29.0839 7.87109 29.5644 8.29404 30.2978L9.6298 32.6117C10.1582 33.5271 10.6827 33.7681 11.6419 33.7785L13.9434 33.7812C14.5694 33.7812 15.2164 33.4721 15.6294 32.8056C15.822 32.465 18.4786 28.053 18.4786 28.053H16.4718C16.0803 28.0584 15.8608 28.1985 15.6525 28.535Z" fill="#003E7E"/>
<path d="M15.3781 27.4851C15.5733 27.4917 18.3444 27.4838 18.3444 27.4838C18.7595 27.4891 19.0096 27.6136 19.2222 27.9906C19.3355 28.1675 19.8241 29.0043 19.8241 29.0043C20.0184 29.3368 20.1135 29.6422 19.8469 30.1029L19.2673 31.1087C19.044 31.4936 18.8692 31.5866 18.4396 31.5722C18.3586 31.5722 17.9374 31.563 17.6586 31.5643C17.2212 31.563 17.0177 31.6913 16.7924 32.0828C16.7146 32.2164 15.7658 33.7695 15.7658 33.7695H18.9591C19.6781 33.7683 20.1259 33.5823 20.5496 32.8514L21.8853 30.5375C22.413 29.6221 22.3608 29.0459 21.8891 28.2104C21.7482 27.9615 21.2128 27.0502 20.7584 26.2631C20.4462 25.721 19.8562 25.3151 19.0724 25.2915C18.6796 25.2943 13.5186 25.3019 13.5186 25.3019L14.5375 27.0109C14.7385 27.3487 14.9841 27.4732 15.3781 27.4851Z" fill="#003E7E"/>
</svg>
