<svg width="130" height="60" viewBox="0 0 130 60" fill="none" xmlns="http://www.w3.org/2000/svg">
<rect width="130" height="60" fill="white"/>
<path fill-rule="evenodd" clip-rule="evenodd" d="M25.6969 26.8022H21.7285C21.4714 26.8022 21.2249 26.7017 21.0431 26.5228C20.8613 26.3439 20.7592 26.1012 20.7592 25.8482V21.9539C20.7599 21.7012 20.8623 21.459 21.044 21.2802C21.2255 21.1015 21.4716 21.0007 21.7285 21H25.6769C25.9393 21 26.1909 21.1026 26.3764 21.2852C26.562 21.4677 26.6662 21.7154 26.6662 21.9736V25.8482C26.6662 26.1012 26.564 26.3439 26.3823 26.5228C26.2005 26.7017 25.9539 26.8022 25.6969 26.8022ZM19.0061 27.0405L26.3841 33.8836H26.3727C26.4614 33.9617 26.5326 34.0572 26.5817 34.164C26.6308 34.2708 26.6567 34.3865 26.6578 34.5037V37.4216C26.6578 37.68 26.5536 37.928 26.3682 38.111C26.1828 38.294 25.9311 38.3972 25.6685 38.398H22.2475C22.0261 38.3976 21.8131 38.3143 21.6517 38.1651L14.2851 31.3248C14.1963 31.2467 14.1251 31.1512 14.076 31.0444C14.0269 30.9376 14.001 30.8219 14 30.7047V27.7812C14 27.6534 14.0256 27.5268 14.0753 27.4086C14.125 27.2905 14.1979 27.1832 14.2897 27.0928C14.3816 27.0024 14.4907 26.9307 14.6107 26.8817C14.7307 26.8328 14.8593 26.8076 14.9893 26.8076H18.4103C18.6321 26.8063 18.8457 26.8898 19.0061 27.0405Z" fill="black"/>
<path d="M39.0828 33.7754V36.0871H36.7988V23.7614H39.0828L39.1139 30.4933L43.1941 25.9495H46.1212L42.3027 30.1845L45.9483 36.0871H43.3715L40.7327 31.9579L39.0828 33.7754Z" fill="black"/>
<path d="M49.1187 33.3608C49.7409 33.9524 50.5685 34.2825 51.4293 34.2825C52.2902 34.2825 53.1178 33.9524 53.74 33.3608C54.3299 32.7271 54.658 31.8952 54.658 31.0315C54.658 30.1678 54.3299 29.3359 53.74 28.7022C53.1195 28.1076 52.291 27.7753 51.4293 27.7753C50.5676 27.7753 49.7391 28.1076 49.1187 28.7022C48.5257 29.3344 48.196 30.1669 48.196 31.0315C48.196 31.8961 48.5257 32.7286 49.1187 33.3608ZM54.658 25.9451H56.8756V36.1136H54.658V34.6489C54.2553 35.2128 53.7165 35.6668 53.0911 35.969C52.4653 36.2712 51.7735 36.412 51.0789 36.3782C50.403 36.3856 49.7329 36.2507 49.1129 35.9822C48.4933 35.7139 47.9374 35.3181 47.4821 34.821C46.5241 33.7865 45.9922 32.4314 45.9922 31.0249C45.9922 29.6184 46.5241 28.2632 47.4821 27.2288C47.9388 26.7342 48.4951 26.3411 49.1151 26.0751C49.7347 25.809 50.4039 25.676 51.0789 25.6848C51.7713 25.6498 52.4614 25.7877 53.0867 26.0858C53.7116 26.384 54.2518 26.8331 54.658 27.392V25.9451Z" fill="black"/>
<path d="M64.2215 25.6805C64.7473 25.6591 65.2716 25.7479 65.7608 25.9409C66.2495 26.134 66.6924 26.427 67.06 26.801C67.4378 27.2185 67.7286 27.7065 67.9145 28.2366C68.1013 28.7667 68.1803 29.3284 68.1466 29.8891V36.1313H65.9291V30.0964C65.9522 29.7764 65.9101 29.455 65.8052 29.1517C65.6997 28.8484 65.5337 28.5695 65.3169 28.3318C65.0936 28.1228 64.8296 27.961 64.542 27.8564C64.2534 27.7517 63.9469 27.7063 63.6408 27.723C63.294 27.7075 62.9477 27.7638 62.6241 27.8883C62.3004 28.0129 62.0063 28.2029 61.7604 28.4465C61.5 28.7487 61.3026 29.0993 61.1792 29.4779C61.0557 29.8565 61.009 30.2556 61.0418 30.6523V36.1004H58.8242V25.9452H61.0418V27.2686C61.7113 26.2275 62.7669 25.7025 64.2128 25.7025" fill="black"/>
<path d="M72.6578 33.3608C73.2797 33.9524 74.1073 34.2826 74.9682 34.2826C75.8292 34.2826 76.6568 33.9524 77.2787 33.3608C77.8691 32.7271 78.197 31.8953 78.197 31.0315C78.197 30.1678 77.8691 29.3359 77.2787 28.7023C76.6587 28.1076 75.8301 27.7754 74.9682 27.7754C74.1064 27.7754 73.2783 28.1076 72.6578 28.7023C72.0678 29.3359 71.7395 30.1678 71.7395 31.0315C71.7395 31.8953 72.0678 32.7271 72.6578 33.3608ZM78.197 25.9451H80.4145V36.1136H78.197V34.649C77.7952 35.2128 77.257 35.6668 76.6323 35.9691C76.0072 36.2713 75.3164 36.4121 74.6224 36.3783C73.9455 36.3857 73.2751 36.2508 72.6546 35.9824C72.0336 35.7141 71.4769 35.3183 71.021 34.821C70.063 33.7865 69.5312 32.4314 69.5312 31.0249C69.5312 29.6183 70.063 28.2633 71.021 27.2288C71.4787 26.7342 72.0359 26.341 72.6564 26.0749C73.2769 25.8089 73.9469 25.676 74.6224 25.6848C75.3141 25.6497 76.0039 25.7876 76.6281 26.0859C77.2528 26.3841 77.7919 26.8331 78.197 27.3921V25.9451Z" fill="black"/>
<path d="M84.6622 28.7375C84.6682 28.9107 84.725 29.0783 84.8258 29.2195C84.9271 29.3607 85.0672 29.4693 85.23 29.5316C85.666 29.7483 86.12 29.9269 86.587 30.0654L88.215 30.5639C88.7629 30.7314 89.2475 31.0606 89.603 31.5079C90.0506 32.1242 90.2406 32.8891 90.1329 33.6419C90.0256 34.3946 89.6285 35.0766 89.0265 35.5445C88.1924 36.1236 87.1913 36.4163 86.1746 36.3782C85.2688 36.4026 84.3727 36.1848 83.5802 35.7474C82.8746 35.3476 82.3212 34.7273 82.0059 33.9828L83.9039 32.8843C84.259 33.8578 85.0159 34.346 86.1746 34.3489C87.3337 34.3519 87.9131 33.971 87.9131 33.2063C87.9071 33.0344 87.8502 32.8681 87.7499 32.7278C87.65 32.5875 87.5108 32.4794 87.3499 32.4167C86.9181 32.188 86.4631 32.0047 85.9929 31.8697L84.3695 31.3668C83.8248 31.206 83.3403 30.8882 82.9768 30.4536C82.5903 29.9816 82.3901 29.3855 82.4137 28.7772C82.4007 28.3432 82.4913 27.9123 82.6781 27.5198C82.8645 27.1272 83.1414 26.7841 83.4868 26.5185C84.2474 25.9343 85.1879 25.6318 86.1482 25.6627C86.9384 25.6499 87.718 25.8431 88.4101 26.223C89.0579 26.5843 89.5864 27.1254 89.9313 27.7802L88.0731 28.8169C87.938 28.5613 87.7531 28.3351 87.5289 28.1517C87.3046 27.9684 87.0457 27.8316 86.7678 27.7493C86.4894 27.6671 86.1972 27.6411 85.9092 27.6729C85.6207 27.7047 85.3414 27.7937 85.088 27.9346C84.9493 28.0142 84.8346 28.1296 84.757 28.2686C84.6788 28.4076 84.64 28.5651 84.6446 28.7243" fill="black"/>
<path d="M97.3992 28.0629H94.8626V32.9419C94.8464 33.1039 94.8636 33.2675 94.9121 33.4228C94.9611 33.5782 95.0402 33.7222 95.1465 33.8463C95.3837 34.047 95.6861 34.1551 95.9977 34.1507C96.4647 34.1746 96.9322 34.1746 97.3992 34.1507V36.1226C95.7051 36.3256 94.4941 36.18 93.758 35.6815C93.0219 35.183 92.6539 34.2742 92.6539 32.9464V28.0629H90.7734V25.9453H92.6539V23.7396L94.8714 23.0867V25.9321H97.408L97.3992 28.0629Z" fill="black"/>
<path d="M101.551 27.6567C102.11 26.395 103.156 25.7642 104.7 25.7642V28.142C103.912 28.0692 103.124 28.2822 102.482 28.7419C101.852 29.1831 101.542 29.9463 101.542 30.9874V36.1135H99.3242V25.945H101.542L101.551 27.6567Z" fill="black"/>
<path d="M108.242 33.3608C108.864 33.9524 109.692 34.2826 110.552 34.2826C111.413 34.2826 112.241 33.9524 112.863 33.3608C113.453 32.7271 113.781 31.8953 113.781 31.0315C113.781 30.1678 113.453 29.3359 112.863 28.7023C112.243 28.1076 111.414 27.7754 110.552 27.7754C109.691 27.7754 108.862 28.1076 108.242 28.7023C107.652 29.3359 107.324 30.1678 107.324 31.0315C107.324 31.8953 107.652 32.7271 108.242 33.3608ZM113.781 25.9451H115.998V36.1136H113.781V34.649C113.379 35.2128 112.841 35.6668 112.216 35.9691C111.592 36.2713 110.9 36.4121 110.206 36.3783C109.529 36.3857 108.859 36.2508 108.239 35.9824C107.618 35.7141 107.061 35.3183 106.605 34.821C105.647 33.7865 105.115 32.4314 105.115 31.0249C105.115 29.6183 105.647 28.2633 106.605 27.2288C107.063 26.7342 107.62 26.341 108.24 26.0749C108.861 25.8089 109.531 25.676 110.206 25.6848C110.899 25.6497 111.588 25.7876 112.213 26.0859C112.837 26.3841 113.376 26.8331 113.781 27.3921V25.9451Z" fill="black"/>
</svg>
