<svg width="60" height="60" viewBox="0 0 60 60" fill="none" xmlns="http://www.w3.org/2000/svg">
<rect width="60" height="60" fill="white"/>
<path fill-rule="evenodd" clip-rule="evenodd" d="M38.4632 25.6547H31.8599C31.4322 25.6547 31.0219 25.4874 30.7194 25.1897C30.417 24.892 30.247 24.4883 30.247 24.0673V17.5873C30.2483 17.1667 30.4187 16.7637 30.7209 16.4663C31.023 16.1689 31.4325 16.0012 31.8599 16H38.43C38.8665 16 39.2852 16.1707 39.5939 16.4745C39.9026 16.7783 40.0761 17.1903 40.0761 17.62V24.0673C40.0761 24.4883 39.9061 24.892 39.6037 25.1897C39.3012 25.4874 38.8909 25.6547 38.4632 25.6547ZM27.33 26.0512L39.6067 37.4378H39.5877C39.7354 37.5678 39.8539 37.7268 39.9356 37.9044C40.0173 38.0821 40.0604 38.2746 40.0621 38.4696V43.3249C40.0621 43.755 39.8888 44.1676 39.5802 44.4721C39.2717 44.7766 38.853 44.9484 38.416 44.9496H32.7235C32.3551 44.949 32.0006 44.8104 31.7321 44.5621L19.4744 33.1801C19.3267 33.0501 19.2082 32.8912 19.1265 32.7135C19.0448 32.5358 19.0017 32.3434 19 32.1483V27.2837C19 27.071 19.0426 26.8603 19.1253 26.6637C19.208 26.4672 19.3293 26.2886 19.4821 26.1382C19.635 25.9877 19.8164 25.8684 20.0161 25.787C20.2159 25.7055 20.4299 25.6637 20.6461 25.6637H26.3385C26.7076 25.6615 27.063 25.8004 27.33 26.0512Z" fill="black"/>
</svg>
