<svg width="130" height="60" viewBox="0 0 130 60" fill="none" xmlns="http://www.w3.org/2000/svg">
<rect width="130" height="60" fill="white"/>
<g clip-path="url(#clip0_307_50)">
<path d="M10 24V35.313L16.655 42.0714L20.0307 35.313H23.3582V24H10Z" fill="#009286"/>
<path d="M16.6548 42.0714L23.358 35.313L16.6548 28.5056V42.0714Z" fill="#F3C000"/>
<path d="M29.5793 32.9134L30.0133 31.1993H32.2317L32.6657 32.9134H34.3535L32.2799 25.0775H30.158L28.0361 32.9134H29.5793ZM31.8459 29.9749H30.3027L31.026 26.5957L31.8459 29.9749Z" fill="#939393"/>
<path d="M37.3432 29.4852H38.3077C39.1276 29.4852 39.3687 29.9259 39.3687 30.6116C39.3687 31.689 38.5971 31.738 38.2595 31.738H37.3432V29.4852ZM37.3432 26.3018H38.356C38.8864 26.3018 39.2722 26.7426 39.2722 27.2813C39.2722 28.0649 38.79 28.2608 38.4042 28.2608H37.3432V26.3018ZM38.5971 32.9133C39.2722 32.9133 40.9601 32.8154 40.9601 30.8564C40.9601 29.779 40.6707 29.0444 39.5133 28.8485C40.3814 28.6526 40.8154 28.0159 40.8154 27.1344C40.8154 25.4693 39.8027 25.1265 38.5489 25.1265H35.7036V32.9623H38.5971V32.9133Z" fill="#939393"/>
<path d="M44.3358 32.9134V27.1834H44.384L46.4577 32.9134H48.6278V25.0775H47.0846V30.5136L45.0109 25.0775H42.8408V32.9134H44.3358Z" fill="#939393"/>
<path d="M51.1358 29.4852L52.1967 28.4077L51.1358 27.3793L50.123 28.4077L51.1358 29.4852Z" fill="#939393"/>
<path d="M54.2702 32.9134L54.7043 31.1993H56.9226L57.3566 32.9134H59.0445L56.9708 25.0775H54.8489L52.7271 32.9134H54.2702ZM56.585 29.9749H55.0418L55.7652 26.5957L56.585 29.9749Z" fill="#939393"/>
<path d="M61.9377 32.9134V26.8896H61.9859L63.3844 32.9134H64.9276L66.4226 26.8896V32.9134H68.014V25.0775H65.5063L64.2043 30.4157L62.9987 25.0775H60.3945V32.9134H61.9377Z" fill="#939393"/>
<path d="M71.7273 26.3018H72.4506C72.9811 26.3018 73.2704 26.5957 73.2704 27.3303C73.2704 27.82 73.0775 28.5057 72.4506 28.5057H71.7273V26.3018ZM71.7273 29.6811H72.1613C73.4151 29.6811 73.3187 30.4646 73.3187 31.3951C73.3187 31.8849 73.2704 32.4236 73.5116 32.9133H75.103C74.9583 32.5705 74.9101 31.1013 74.9101 30.6116C74.9101 29.1913 73.8491 29.0934 73.5116 29.0934C74.5725 28.8975 74.9583 28.1629 74.9583 27.1834C74.9583 25.8611 74.2349 25.1265 73.174 25.1265H70.1841V32.9623H71.7755L71.7273 29.6811Z" fill="#939393"/>
<path d="M79.2988 31.8849C78.3826 31.8849 78.2861 31.0033 78.2861 28.9954C78.2861 26.9875 78.3826 26.1059 79.2988 26.1059C80.2151 26.1059 80.3115 26.9875 80.3115 28.9954C80.3115 31.0033 80.2151 31.8849 79.2988 31.8849ZM79.2988 33.0602C81.9512 33.0602 81.9512 31.0523 81.9512 28.9954C81.9512 26.9385 81.9512 24.9305 79.2988 24.9305C76.6465 24.9305 76.6465 26.8895 76.6465 28.9954C76.6465 31.0523 76.6465 33.0602 79.2988 33.0602Z" fill="#939393"/>
<path d="M89.7152 27.2813C89.7152 26.8405 89.7152 26.3997 89.4741 26.1549C89.2812 25.91 88.7989 25.8121 88.606 25.8121C87.7862 25.8121 87.4969 26.3018 87.4487 26.3997C87.4004 26.4977 87.2075 26.6936 87.2075 28.0159V30.0728C87.2075 31.9828 87.8345 32.2277 88.5578 32.2277C88.8472 32.2277 89.7634 32.1297 89.7634 30.6115H90.7761C90.8244 33.0602 89.0883 33.0602 88.606 33.0602C87.6416 33.0602 86.1948 33.0112 86.1948 29.9748V27.82C86.1948 25.6162 87.1593 24.9795 88.6543 24.9795C90.1492 24.9795 90.7761 25.7631 90.6797 27.2813H89.7152Z" fill="#939393"/>
<path d="M92.9945 32.9133H92.1265V25.1754H92.9945V32.9133Z" fill="#939393"/>
<path d="M95.5504 30.5136C95.5504 32.0318 95.9362 32.3256 96.6114 32.3256C97.1901 32.3256 97.5276 31.8359 97.5276 31.2972H98.4921C98.4921 32.5215 97.7688 33.0602 96.6114 33.0602C95.454 33.0602 94.5859 32.7174 94.5859 30.3177C94.5859 28.7015 94.7788 27.4282 96.6114 27.4282C98.1546 27.4282 98.5403 28.2608 98.5403 30.0728V30.5136C98.5886 30.5136 95.5504 30.5136 95.5504 30.5136ZM97.6723 29.828C97.6723 28.2608 97.2383 28.0649 96.6114 28.0649C96.0809 28.0649 95.5987 28.3587 95.5987 29.828H97.6723Z" fill="#939393"/>
<path d="M102.543 32.1297C102.254 32.7664 101.868 33.0113 101.193 33.0113C100.035 33.0113 99.7461 32.2767 99.7461 31.2482C99.7461 29.5831 101.337 29.5341 102.543 29.5831C102.543 28.8485 102.591 28.0649 101.627 28.0649C101.048 28.0649 100.759 28.4567 100.807 29.0444H99.8425C99.8908 27.82 100.518 27.4282 101.675 27.4282C103.074 27.4282 103.411 28.1628 103.411 29.0444V31.64C103.411 32.0808 103.459 32.5215 103.508 32.9133H102.543V32.1297ZM100.614 31.2972C100.614 31.8359 100.855 32.2767 101.434 32.2767C101.964 32.2767 102.64 31.9338 102.543 30.1708C101.723 30.2197 100.614 30.1708 100.614 31.2972Z" fill="#939393"/>
<path d="M106.015 28.3098C106.401 27.4772 106.835 27.3793 107.703 27.3793V28.3098C107.606 28.3098 107.558 28.3098 107.462 28.2608C107.365 28.2608 107.317 28.2608 107.221 28.2608C106.256 28.2608 106.015 28.9954 106.015 29.73V32.9133H105.147V27.4772H106.015V28.3098Z" fill="#939393"/>
<path d="M108.571 25.1754H109.535V26.1059H108.571V25.1754ZM109.487 32.9133H108.619V27.4772H109.487V32.9133Z" fill="#939393"/>
<path d="M113.876 32.9133V29.1423C113.876 28.5546 113.683 28.0649 112.911 28.0649C111.947 28.0649 111.802 28.9464 111.802 29.6811V32.9133H110.934V28.6036C110.934 28.2118 110.934 27.869 110.886 27.4772H111.802V28.1629H111.85C112.188 27.5262 112.574 27.3793 113.297 27.3793C114.454 27.3793 114.744 28.0649 114.744 29.1423V32.9133H113.876Z" fill="#939393"/>
<path d="M119.132 27.4772H120V33.4521C120 34.6764 119.228 34.9703 118.023 34.9703C117.155 34.9703 116.335 34.5295 116.383 33.501H117.348C117.348 33.9908 117.685 34.2846 118.168 34.2846C118.794 34.2846 119.084 33.8928 119.084 33.3541V32.2277H119.036C118.794 32.6685 118.312 32.9133 117.878 32.9133C116.431 32.9133 116.142 31.64 116.142 30.0239C116.142 27.5262 117.396 27.3793 117.83 27.3793C118.409 27.3793 118.843 27.6241 119.084 28.1629L119.132 27.4772ZM118.071 28.1139C117.107 28.1139 117.058 29.3382 117.058 30.0239C117.058 31.7869 117.444 32.1787 118.119 32.1787C119.18 32.1787 119.132 30.9054 119.132 30.1708C119.132 29.3872 119.18 28.1139 118.071 28.1139Z" fill="#939393"/>
</g>
<defs>
<clipPath id="clip0_307_50">
<rect width="110" height="18.0714" fill="white" transform="translate(10 24)"/>
</clipPath>
</defs>
</svg>
