<svg width="130" height="60" viewBox="0 0 130 60" fill="none" xmlns="http://www.w3.org/2000/svg">
<rect width="130" height="60" fill="white"/>
<path d="M15.8185 34.4737C16.9961 36.5088 18.9227 36.5088 20.0952 34.4737L20.7511 33.3374L14.863 23.1365H9.27441L15.8185 34.4737Z" fill="#FFDD00"/>
<path d="M28.2249 30.1145C27.7962 30.8531 26.7839 30.8531 26.3552 30.1145L22.3213 23.1365H16.7275L23.282 34.4738C24.4596 36.5088 26.381 36.5088 27.5586 34.4738L31.9437 26.876L29.7847 23.1313H24.1962L28.2249 30.1145Z" fill="#FFDD00"/>
<path d="M37.9249 34.5202H39.8308L39.8463 34.4583C41.024 30.0938 41.5043 28.2292 41.7006 27.0722C41.8917 28.2241 42.3514 30.1145 43.4774 34.4583L43.4929 34.5202H45.4401L48.1517 24.5414H46.3749L46.3594 24.6034C45.1818 29.1331 44.7325 30.9667 44.5259 32.1391C44.2883 30.884 43.7769 28.8129 42.6768 24.6034L42.6613 24.5414H40.807L40.7915 24.6034C39.6449 29.0918 39.1646 31.0132 38.958 32.2579C38.7307 31.0442 38.2297 29.0298 37.083 24.6034L37.0676 24.5414H35.2236L37.9043 34.4634L37.9249 34.5202Z" fill="black"/>
<path d="M51.1682 34.6597C52.6093 34.6597 53.9729 33.8746 54.5204 32.7021L53.2033 32.0307H53.1774L53.1516 32.0772C52.9915 32.4077 52.4078 33.1773 51.1837 33.1773C50.0733 33.1773 49.2262 32.4697 49.0971 31.4419H54.7631V31.3644C54.7993 29.9647 54.417 28.818 53.663 28.0484C53.0122 27.377 52.1083 27.0258 51.0598 27.0258C50.0113 27.0258 49.0764 27.4183 48.3998 28.1259C47.7283 28.8284 47.3564 29.7994 47.3564 30.853C47.3564 33.0947 48.9266 34.6597 51.1682 34.6597ZM51.0598 28.4771C52.1083 28.4771 52.9089 29.1486 52.9915 30.0835H49.0971C49.2159 29.1486 50.0268 28.4771 51.0598 28.4771Z" fill="black"/>
<path d="M58.3475 34.6596C60.2017 34.6596 61.3536 33.797 61.3536 32.4076C61.3536 30.76 59.8557 30.3726 58.6522 30.0576C57.8207 29.8406 57.1027 29.6547 57.1027 29.1279C57.1027 28.7043 57.5521 28.4047 58.1926 28.4047C58.895 28.4047 59.3805 28.7766 59.4632 29.3706L59.5148 29.6702H59.5458L61.023 29.3913C61.023 28.007 59.7989 27.036 58.208 27.036C56.6172 27.036 55.4293 27.9399 55.4293 29.2312C55.4293 30.7962 56.8806 31.1835 58.0479 31.4934C58.895 31.7207 59.6233 31.917 59.6233 32.4645C59.6233 32.9448 59.1532 33.2392 58.3992 33.2392C57.4901 33.2392 56.8806 32.8157 56.8032 32.1339L56.7877 32.0203L55.2227 32.3147C55.233 33.8487 56.9271 34.6596 58.3475 34.6596Z" fill="black"/>
<path d="M62.6762 33.1618C62.6762 33.9882 63.1978 34.6596 64.0656 34.6596C65.1399 34.6596 65.455 34.5202 65.455 34.5202V33.1308C65.455 33.1308 65.1347 33.1824 64.7422 33.1824C64.4891 33.1824 64.3083 33.0275 64.3083 32.8002V28.5856H65.4446L65.4291 27.1807H64.3135V25.094L62.6813 25.502V27.1807H61.8291V28.5856H62.6813V33.1618H62.6762Z" fill="black"/>
<path d="M75.4749 28.1104V27.1807H74.0391V34.5202H75.7642L75.7487 30.0318C75.7693 29.5824 75.9243 29.2364 76.1981 29.004C76.5596 28.6992 77.1278 28.5959 77.8767 28.6992L77.9645 28.7096L77.98 27.1807L77.9077 27.1704C76.8798 27.0258 75.945 27.3408 75.4749 28.1104Z" fill="black"/>
<path d="M82.6749 27.0309C81.6367 27.0309 80.6657 27.4441 80.1802 28.2292V27.1807H78.6875V34.5202H80.4281V30.5793C80.4281 29.3138 81.0892 28.5597 82.1997 28.5597C82.959 28.5597 83.8629 28.8903 83.8629 30.4708V34.5202H85.6035V30.2332C85.6035 27.8728 84.085 27.0309 82.6749 27.0309Z" fill="black"/>
<path d="M94.9566 30.3882C94.9566 32.0823 94.1508 33.0172 92.6943 33.0172C91.2378 33.0172 90.4475 32.0823 90.4475 30.3882V24.5414H88.6914V30.3469C88.6914 33.0482 90.1893 34.6597 92.6943 34.6597C95.1994 34.6597 96.6972 33.0482 96.6972 30.3469V24.5414H94.9566V30.3882Z" fill="black"/>
<path d="M101.724 27.0309C100.686 27.0309 99.7097 27.4441 99.2293 28.2292V27.1807H97.7314V34.5202H99.4721V30.5793C99.4721 29.3138 100.133 28.5597 101.244 28.5597C102.003 28.5597 102.907 28.8903 102.907 30.4708V34.5202H104.647V30.2332C104.653 27.8728 103.139 27.0309 101.724 27.0309Z" fill="black"/>
<path d="M107.457 27.1807H105.731V34.5202H107.457V27.1807Z" fill="black"/>
<path d="M106.599 24.4742C106.036 24.4742 105.592 24.9081 105.592 25.4659C105.592 26.0238 106.041 26.4421 106.599 26.4421C107.157 26.4421 107.591 26.0031 107.591 25.4659C107.591 24.9184 107.146 24.4742 106.599 24.4742Z" fill="black"/>
<path d="M112.13 27.0309C111.056 27.0309 110.075 27.4183 109.362 28.1155C108.654 28.818 108.262 29.7838 108.262 30.8427C108.262 33.0533 109.889 34.6596 112.13 34.6596C114.372 34.6596 116.009 33.0533 116.009 30.8427C116.009 29.7838 115.617 28.8128 114.909 28.1155C114.196 27.4131 113.21 27.0309 112.13 27.0309ZM112.13 33.074C110.886 33.074 109.951 32.1133 109.951 30.8427C109.951 29.5721 110.886 28.6114 112.13 28.6114C113.375 28.6114 114.336 29.5721 114.336 30.8427C114.336 32.1133 113.385 33.074 112.13 33.074Z" fill="black"/>
<path d="M120.803 27.0309C119.765 27.0309 118.794 27.4441 118.308 28.2292V27.1807H116.811V34.5202H118.551V30.5793C118.551 29.3138 119.212 28.5597 120.323 28.5597C121.082 28.5597 121.986 28.8903 121.986 30.4708V34.5202H123.727V30.2332C123.732 27.8728 122.218 27.0309 120.803 27.0309Z" fill="black"/>
<path d="M69.592 27.0309C68.5538 27.0309 67.6086 27.4234 66.932 28.131C66.2606 28.8335 65.8887 29.8045 65.8887 30.8582C65.8887 33.0946 67.4537 34.6596 69.7005 34.6596C71.1415 34.6596 72.5051 33.8746 73.0526 32.7021L71.7355 32.0306H71.7097L71.6838 32.0771C71.5237 32.4077 70.9401 33.1773 69.716 33.1773C68.6055 33.1773 67.7584 32.4697 67.6293 31.4418H73.2953V31.3643C73.3315 29.9646 72.9493 28.818 72.1952 28.0484C71.5444 27.3821 70.6405 27.0309 69.592 27.0309ZM67.6241 30.0834C67.7429 29.1485 68.5538 28.4771 69.592 28.4771C70.6302 28.4771 71.4411 29.1485 71.5237 30.0834H67.6241Z" fill="black"/>
</svg>
