<svg width="130" height="60" viewBox="0 0 130 60" fill="none" xmlns="http://www.w3.org/2000/svg">
<rect width="130" height="60" fill="white"/>
<path d="M23.0317 33.7079C23.7579 33.0837 24.2311 32.2633 24.4541 31.2476H31.6221C31.2936 34.1507 30.1036 36.501 28.0531 38.3004C26.0016 40.0998 23.476 41 20.4781 41C18.2913 41 16.3229 40.5279 14.572 39.5847C12.8211 38.6414 11.4547 37.3306 10.4728 35.6522C9.49093 33.9738 9 32.09 9 30C9 27.91 9.49093 26.0263 10.4728 24.3478C11.4547 22.6694 12.8211 21.3586 14.572 20.4153C16.3229 19.4712 18.2913 19 20.4781 19C23.4284 19 25.9195 19.8681 27.9513 21.6052C29.9823 23.3413 31.1825 25.6174 31.5493 28.4325H24.484C24.1844 27.5039 23.672 26.7568 22.9459 26.1903C22.2207 25.6248 21.4077 25.3415 20.508 25.3415C19.2695 25.3415 18.2708 25.7696 17.512 26.6258C16.7513 27.4819 16.3724 28.6067 16.3724 29.9991C16.3724 31.3833 16.7551 32.5034 17.5185 33.3596C18.2839 34.2158 19.2788 34.6429 20.508 34.6429C21.4656 34.6429 22.3065 34.3313 23.0317 33.7079ZM48.4744 27.9879C49.866 29.2988 50.5623 30.9946 50.5623 33.0727C50.5623 35.4487 49.7615 37.3645 48.1589 38.8183C46.5555 40.2731 44.4443 41 41.8216 41C39.2307 41 37.1241 40.2703 35.5011 38.811C33.8771 37.3507 33.066 35.4597 33.066 33.1341C33.066 31.8645 33.2891 30.5867 33.7343 29.3015C34.1795 28.0163 34.8683 26.6102 35.8007 25.0848L39.0953 19.704L46.058 19.7031L42.1595 26.0519C42.5487 26.0318 42.8557 26.0217 43.0816 26.0217C45.2833 26.0217 47.0809 26.6771 48.4744 27.9879ZM43.7732 35.0233C44.2744 34.5219 44.5255 33.872 44.5255 33.0727C44.5255 32.2743 44.2744 31.6188 43.7732 31.1064C43.2711 30.594 42.6205 30.3383 41.8225 30.3383C41.0236 30.3383 40.3721 30.5949 39.8719 31.1064C39.3688 31.6188 39.1187 32.2743 39.1187 33.0727C39.1187 33.872 39.3688 34.5219 39.8709 35.0233C40.3721 35.5257 41.0236 35.7768 41.8216 35.7768C42.6205 35.7768 43.272 35.5257 43.7732 35.0233ZM63.6149 29.0467C66.0883 29.7653 67.6507 31.9149 67.6507 34.6933C67.6507 36.2288 67.1112 37.5625 66.0472 38.6579C64.9897 39.7451 63.6635 40.2969 62.1048 40.2969H55.3605C55.3481 40.2968 55.3359 40.2943 55.3245 40.2895C55.3131 40.2848 55.3028 40.2778 55.2941 40.2692C55.2855 40.2605 55.2786 40.2502 55.274 40.2389C55.2694 40.2276 55.2671 40.2156 55.2672 40.2034V19.7966C55.2672 19.7453 55.3083 19.7031 55.3605 19.7031H61.3012C62.7451 19.7031 63.9369 20.177 64.8413 21.1129C65.7709 22.0113 66.2451 23.2121 66.2451 24.676C66.2451 26.6395 65.2529 28.2583 63.6149 29.0467ZM65.4816 38.1327C66.4299 37.1839 66.8909 36.0592 66.8909 34.6924C66.8909 33.1744 66.4177 31.9305 65.4844 30.9973C64.5184 30.0321 63.3284 29.5618 61.8463 29.5618H56.0279V39.5361H62.1039C63.4404 39.5361 64.5772 39.0631 65.4816 38.1327ZM56.0269 20.4639V28.8019H61.3012C62.5351 28.8019 63.5459 28.4151 64.3075 27.6533C65.0887 26.8723 65.4844 25.8704 65.4844 24.676C65.4844 22.1955 63.7643 20.4639 61.3012 20.4639H56.0269ZM120.982 40.1493C120.992 40.1631 120.998 40.1793 121 40.1962C121.001 40.2132 120.998 40.2301 120.99 40.2452C120.982 40.2604 120.97 40.2731 120.955 40.2821C120.941 40.291 120.924 40.2958 120.907 40.296H120.199C120.184 40.2961 120.169 40.2926 120.155 40.2857C120.142 40.2789 120.13 40.2689 120.122 40.2566L112.563 29.6553L109.224 33.5108V40.2025C109.224 40.2147 109.222 40.2269 109.218 40.2383C109.213 40.2497 109.206 40.26 109.197 40.2688C109.189 40.2776 109.178 40.2846 109.167 40.2894C109.156 40.2943 109.143 40.2968 109.131 40.2969H108.569C108.557 40.2968 108.544 40.2943 108.533 40.2895C108.522 40.2848 108.511 40.2778 108.503 40.2692C108.494 40.2605 108.487 40.2502 108.482 40.2389C108.478 40.2276 108.475 40.2156 108.476 40.2034V19.7966C108.476 19.7453 108.518 19.7031 108.569 19.7031H109.131C109.182 19.7031 109.224 19.7453 109.224 19.7966V32.3769L120.067 19.7361C120.075 19.7258 120.086 19.7175 120.099 19.7118C120.111 19.7061 120.125 19.7031 120.139 19.7031H120.881C120.934 19.7031 120.976 19.7453 120.976 19.7966C120.976 19.8195 120.966 19.8406 120.953 19.8571L113.066 29.0531L120.982 40.1493ZM103.73 19.7031C103.781 19.7031 103.823 19.7453 103.823 19.7966V40.2034C103.823 40.2156 103.821 40.2276 103.816 40.2389C103.811 40.2502 103.805 40.2605 103.796 40.2692C103.787 40.2778 103.777 40.2848 103.766 40.2895C103.754 40.2943 103.742 40.2968 103.73 40.2969H103.471C103.456 40.297 103.442 40.2935 103.428 40.2868C103.415 40.2801 103.404 40.2704 103.395 40.2584L89.7874 21.3751V40.2034C89.7876 40.2156 89.7853 40.2276 89.7806 40.2389C89.776 40.2502 89.7692 40.2605 89.7605 40.2692C89.7518 40.2778 89.7415 40.2848 89.7301 40.2895C89.7187 40.2943 89.7065 40.2968 89.6941 40.2969H89.121C89.1087 40.2968 89.0964 40.2943 89.085 40.2895C89.0737 40.2848 89.0633 40.2778 89.0547 40.2692C89.046 40.2605 89.0392 40.2502 89.0345 40.2389C89.0299 40.2276 89.0276 40.2156 89.0277 40.2034V19.7966C89.0277 19.7453 89.0697 19.7031 89.121 19.7031H89.485C89.4997 19.7033 89.5141 19.7069 89.5271 19.7136C89.54 19.7203 89.5512 19.7299 89.5597 19.7416L103.062 38.4783V19.7975C103.062 19.7462 103.104 19.704 103.156 19.704L103.73 19.7031ZM85.6434 40.1704C85.6491 40.1845 85.6511 40.1996 85.6494 40.2146C85.6477 40.2296 85.6423 40.244 85.6336 40.2565C85.625 40.2689 85.6134 40.2791 85.5998 40.2862C85.5862 40.2932 85.5711 40.2969 85.5557 40.2969H84.9603C84.9408 40.2968 84.922 40.2907 84.9062 40.2795C84.8905 40.2684 84.8787 40.2526 84.8725 40.2346L82.4906 33.9252H72.7812L70.4003 40.2364C70.3937 40.2541 70.3818 40.2694 70.3661 40.2803C70.3504 40.2911 70.3317 40.2969 70.3125 40.2969H69.7161C69.7007 40.2968 69.6856 40.293 69.672 40.2859C69.6584 40.2787 69.6469 40.2684 69.6383 40.2558C69.6297 40.2432 69.6244 40.2288 69.6229 40.2138C69.6213 40.1987 69.6235 40.1835 69.6293 40.1695L77.3666 19.7636C77.3732 19.7459 77.3851 19.7306 77.4008 19.7197C77.4165 19.7089 77.4352 19.7031 77.4544 19.7031H77.8165C77.836 19.703 77.855 19.7088 77.8709 19.7198C77.8868 19.7308 77.8988 19.7465 77.9052 19.7645L85.6434 40.1704ZM73.0602 33.1643H82.2125L77.6373 21.1716L73.0602 33.1643Z" fill="black"/>
</svg>
