<svg width="130" height="60" viewBox="0 0 130 60" fill="none" xmlns="http://www.w3.org/2000/svg">
<rect width="130" height="60" fill="white"/>
<g clip-path="url(#clip0_313_347)">
<path d="M116.673 45H12.4468C11.0986 45 10 43.9222 10 42.5994V16.3884C10 15.0778 11.0986 14 12.4468 14H116.673C118.021 14 119.12 15.0778 119.12 16.4006V42.6116C119.108 43.9222 118.021 45 116.673 45Z" fill="white"/>
<path d="M86.4999 43.5547H12.4716C11.9223 43.5547 11.4854 43.1138 11.4854 42.5871V16.4251C11.4854 15.8862 11.9348 15.4575 12.4716 15.4575H86.4999C87.0492 15.4575 87.4861 15.8985 87.4861 16.4251V42.5749C87.4861 43.1138 87.0367 43.5547 86.4999 43.5547Z" fill="#222745"/>
<path d="M116.649 43.5547H89.996C89.4467 43.5547 89.0098 43.1138 89.0098 42.5871V16.4251C89.0098 15.8862 89.4592 15.4575 89.996 15.4575H116.649C117.198 15.4575 117.635 15.8985 117.635 16.4251V42.5749C117.635 43.1138 117.198 43.5547 116.649 43.5547Z" fill="#DA292F"/>
<path d="M44.3674 32.0659V39.6108H42.8319V32.0659H40.1729V30.7186H47.0264V32.0659H44.3674ZM59.0607 39.6108H57.5751L55.0659 33.352H56.6513L58.3366 37.945L60.0219 33.352H61.5574L59.0607 39.6108ZM68.411 30.6819H69.8841V39.623H68.411V30.6819ZM81.7685 39.6108L80.1831 37.3571L78.5727 39.6108H76.8999L79.3342 36.4385L76.9873 33.352H78.7225L80.233 35.4831L81.756 33.352H83.4413L81.0819 36.4263L83.5163 39.6108H81.7685Z" fill="white"/>
<path d="M48.9114 33.3275C48.3122 33.3765 47.7754 33.5235 47.3884 33.9277V33.3643H46.1025V39.6231H47.5756V36.904C47.5756 36.4141 47.5507 35.7282 47.7254 35.275C47.8752 34.8708 48.0999 34.5524 49.2734 34.4544L49.4232 33.2908C49.4107 33.2908 49.2609 33.2908 48.9114 33.3275ZM51.7077 38.5207C50.6965 38.5207 50.4718 38.2268 50.4718 37.6879C50.4718 37.0265 50.759 36.8673 51.6578 36.8673H53.3681C53.3681 37.9573 53.2183 38.5207 51.7077 38.5207ZM52.0697 33.2541C51.3582 33.2296 50.6591 33.2908 50.3345 33.3398L50.1972 34.4421C51.0711 34.3931 51.9324 34.4299 51.9948 34.4299C53.2682 34.4789 53.2932 34.9198 53.3431 35.6914H51.7077C50.347 35.6914 48.9863 35.8997 48.9863 37.7124C48.9863 39.2434 49.9475 39.7088 51.4705 39.7088C52.3818 39.7088 53.056 39.4394 53.4554 39.0964V39.6108H54.7787V35.5322C54.7787 33.9155 53.7675 33.3153 52.0697 33.2541ZM64.5784 34.4421C65.9516 34.4421 66.0265 34.9566 66.0265 35.8507H63.1553C63.1553 35.0301 63.2926 34.4421 64.5784 34.4421ZM64.5659 38.5453C63.5672 38.5085 63.2427 38.1656 63.1553 37.5409C63.1553 37.5164 63.1428 37.4797 63.1428 37.4552V37.4062C63.1304 37.296 63.1304 37.1735 63.1304 37.0387H67.4996C67.4996 34.8586 67.3748 33.2541 64.591 33.2541C62.0318 33.2541 61.6573 34.6871 61.6573 36.5611C61.6573 37.3327 61.7322 38.0186 62.0068 38.5453C62.3938 39.3536 63.2552 39.7088 64.4911 39.7088H64.6284C65.5272 39.7088 66.5259 39.6476 67.0378 39.5864L67.2 38.4228C66.3262 38.484 65.5646 38.582 64.5659 38.5453ZM73.704 34.4421C75.0773 34.4421 75.1522 34.9566 75.1522 35.8507H72.2809C72.2809 35.0301 72.4182 34.4421 73.704 34.4421ZM73.704 38.5453C72.7053 38.5085 72.3807 38.1656 72.2933 37.5409C72.2933 37.5164 72.2809 37.4797 72.2809 37.4552V37.4062C72.2684 37.296 72.2684 37.1735 72.2684 37.0387H76.6377C76.6377 34.8586 76.5128 33.2541 73.729 33.2541C71.1698 33.2541 70.7953 34.6871 70.7953 36.5611C70.7953 37.3327 70.8702 38.0186 71.1448 38.5453C71.5318 39.3536 72.3932 39.7088 73.6291 39.7088H73.7664C74.6652 39.7088 75.6639 39.6476 76.1758 39.5864L76.3381 38.4228C75.4517 38.484 74.6902 38.582 73.704 38.5453ZM99.8324 33.3766C99.6077 33.401 99.4204 33.45 99.2831 33.597V33.3888H98.8212V35.667H99.358V34.6749C99.358 34.5034 99.3455 34.2462 99.4079 34.0869C99.4579 33.94 99.5453 33.8175 99.9697 33.793L100.02 33.3643C100.007 33.3643 99.9572 33.3643 99.8324 33.3766ZM112.566 33.793C113.065 33.793 113.09 33.9767 113.09 34.3074H112.054C112.054 34.0012 112.091 33.793 112.566 33.793ZM112.566 35.275C112.204 35.2628 112.079 35.1403 112.054 34.9076V34.7238H113.639C113.639 33.9277 113.589 33.352 112.578 33.352C111.654 33.352 111.517 33.8665 111.517 34.5524C111.517 34.8341 111.542 35.079 111.642 35.275C111.779 35.569 112.091 35.6914 112.541 35.7037H112.578C112.903 35.7037 113.265 35.6792 113.452 35.6547L113.515 35.2383C113.202 35.2505 112.915 35.2872 112.566 35.275ZM102.941 37.7369C103.44 37.7369 103.465 37.9206 103.465 38.2513H102.429C102.429 37.9451 102.466 37.7369 102.941 37.7369ZM102.941 39.2189C102.579 39.2067 102.454 39.0842 102.429 38.8514V38.6677H104.014C104.014 37.8716 103.964 37.2959 102.953 37.2959C102.03 37.2959 101.892 37.8104 101.892 38.4963C101.892 38.778 101.917 39.0229 102.017 39.2189C102.154 39.5128 102.466 39.6353 102.916 39.6476H102.953C103.278 39.6476 103.64 39.6231 103.827 39.5986L103.89 39.1821C103.577 39.2066 103.29 39.2311 102.941 39.2189ZM95.2758 35.6669H94.739L94.2647 33.891L93.7778 35.6669H93.216L92.5918 33.3888H93.1161L93.5281 35.0913L93.99 33.3888H94.5143L94.9887 35.0913L95.3882 33.3888H95.9125L95.2758 35.6669ZM97.2607 33.8175C96.7364 33.8175 96.699 34.0134 96.699 34.5279C96.699 35.0423 96.7489 35.2383 97.2607 35.2383C97.785 35.2383 97.8225 35.0423 97.8225 34.5279C97.8225 34.0134 97.7726 33.8175 97.2607 33.8175ZM98.1096 35.4465C97.9099 35.6424 97.6228 35.7037 97.2483 35.7037C96.8737 35.7037 96.5866 35.6424 96.3869 35.4465C96.1871 35.2505 96.1372 34.9565 96.1372 34.5279C96.1372 34.0992 96.1747 33.8052 96.3869 33.6093C96.5866 33.4133 96.8613 33.352 97.2483 33.352C97.6228 33.352 97.9099 33.4133 98.1096 33.6093C98.3094 33.8052 98.3593 34.0992 98.3593 34.5279C98.3593 34.9565 98.3218 35.2505 98.1096 35.4465ZM100.469 32.4089H101.006V35.6547H100.469V32.4089ZM102.504 33.842C102.104 33.842 102.017 34.0012 102.017 34.5401C102.017 35.0668 102.104 35.2383 102.504 35.2383C102.966 35.2383 103.103 35.1158 103.103 34.5401C103.091 33.9644 102.953 33.842 102.504 33.842ZM103.141 35.6669V35.4832C103.003 35.6057 102.741 35.7037 102.441 35.7037C101.518 35.7037 101.48 35.0913 101.48 34.5279C101.48 33.842 101.618 33.352 102.379 33.352C102.629 33.352 102.903 33.3765 103.078 33.5603V32.4212H103.615V35.6669H103.141ZM106.736 35.6669H106.199L105.725 33.891L105.238 35.6669H104.676L104.052 33.3888H104.576L104.976 35.0913L105.45 33.3888H105.974L106.436 35.0913L106.848 33.3888H107.36L106.736 35.6669ZM107.834 33.3888H108.371V35.6669H107.834V33.3888ZM109.932 33.842C109.532 33.842 109.445 34.0012 109.445 34.5401C109.445 35.0668 109.532 35.2383 109.932 35.2383C110.394 35.2383 110.531 35.1158 110.531 34.5401C110.518 33.9644 110.381 33.842 109.932 33.842ZM110.568 35.6669V35.4832C110.431 35.6057 110.169 35.7037 109.869 35.7037C108.945 35.7037 108.908 35.0913 108.908 34.5279C108.908 33.842 109.045 33.352 109.807 33.352C110.057 33.352 110.331 33.3765 110.506 33.5603V32.4212H111.043V35.6669H110.568ZM95.7003 39.6108V38.239C95.7003 37.9573 95.7252 37.7614 95.3382 37.7614C94.8139 37.7614 94.8763 38.2268 94.8763 38.5575V39.6108H94.3395V38.239C94.3395 37.9573 94.352 37.7614 93.9775 37.7614C93.4532 37.7614 93.5156 38.2268 93.5156 38.5697V39.6108H92.9788V37.3327H93.4407V37.5287C93.578 37.3939 93.7778 37.2959 94.0774 37.2959C94.3396 37.2959 94.5518 37.3817 94.6891 37.5287C94.8639 37.3694 95.0636 37.2959 95.3882 37.2959C95.7502 37.2959 96.0498 37.4184 96.1622 37.6879C96.2371 37.8593 96.2246 38.0553 96.2246 38.239V39.5986H95.7003V39.6108ZM97.7975 37.7614C97.2732 37.7614 97.2358 37.9573 97.2358 38.4718C97.2358 38.9862 97.2857 39.1821 97.7975 39.1821C98.3218 39.1821 98.3593 38.9862 98.3593 38.4718C98.3593 37.9573 98.3094 37.7614 97.7975 37.7614ZM98.6464 39.3904C98.4467 39.5863 98.1596 39.6476 97.7851 39.6476C97.4105 39.6476 97.1234 39.5863 96.9237 39.3904C96.7239 39.1944 96.674 38.9004 96.674 38.4718C96.674 38.0431 96.7115 37.7491 96.9237 37.5531C97.1234 37.3572 97.3981 37.2959 97.7851 37.2959C98.1596 37.2959 98.4467 37.3572 98.6464 37.5531C98.8462 37.7491 98.8961 38.0431 98.8961 38.4718C98.8961 38.9127 98.8462 39.2066 98.6464 39.3904ZM100.881 39.6108V38.4105C100.881 37.9696 100.918 37.7614 100.457 37.7614C99.8823 37.7614 99.9198 38.1533 99.9198 38.5452V39.5986H99.383V37.3204H99.8449V37.5042C99.9822 37.3939 100.182 37.2837 100.519 37.2837C101.455 37.2837 101.418 37.8594 101.418 38.3615V39.5986H100.881V39.6108ZM105.263 40.5049H104.701L105.1 39.5618L104.214 37.3327H104.788L105.375 38.9739L105.949 37.3327H106.524L105.263 40.5049ZM107.834 32.5437H108.371V33.0703H107.834V32.5437Z" fill="white"/>
</g>
<defs>
<clipPath id="clip0_313_347">
<rect width="109.12" height="31" fill="white" transform="translate(10 14)"/>
</clipPath>
</defs>
</svg>
