<svg width="60" height="60" viewBox="0 0 60 60" fill="none" xmlns="http://www.w3.org/2000/svg">
<rect width="60" height="60" fill="#222745"/>
<path d="M12.278 26.4116V34.1067H10.712V26.4116H8V25.0375H14.99V26.4116H12.278ZM27.2639 34.1067H25.7488L23.1896 27.7233H24.8066L26.5254 32.4078L28.2443 27.7233H29.8104L27.2639 34.1067ZM36.8004 25H38.3028V34.1192H36.8004V25ZM50.4239 34.1067L48.8069 31.8081L47.1644 34.1067H45.4583L47.9411 30.8712L45.5474 27.7233H47.3172L48.8578 29.8969L50.4112 27.7233H52.13L49.7236 30.8587L52.2064 34.1067H50.4239Z" fill="white"/>
<path d="M16.9116 27.6983C16.3005 27.7482 15.753 27.8981 15.3583 28.3104V27.7357H14.0469V34.1191H15.5493V31.3459C15.5493 30.8462 15.5238 30.1467 15.7021 29.6845C15.8549 29.2722 16.084 28.9475 17.2809 28.8475L17.4337 27.6608C17.4209 27.6608 17.2681 27.6608 16.9116 27.6983ZM19.7637 32.9949C18.7324 32.9949 18.5032 32.6951 18.5032 32.1454C18.5032 31.4708 18.796 31.3084 19.7127 31.3084H21.4571C21.4571 32.4202 21.3043 32.9949 19.7637 32.9949ZM20.1329 27.6233C19.4072 27.5983 18.6942 27.6608 18.3631 27.7107L18.2231 28.835C19.1143 28.7851 19.9928 28.8225 20.0565 28.8225C21.3552 28.8725 21.3807 29.3222 21.4316 30.1092H19.7637C18.3758 30.1092 16.988 30.3216 16.988 32.1704C16.988 33.7319 17.9684 34.2066 19.5218 34.2066C20.4512 34.2066 21.1387 33.9318 21.5462 33.582V34.1067H22.8958V29.9468C22.8958 28.2979 21.8645 27.6858 20.1329 27.6233ZM32.8906 28.835C34.2912 28.835 34.3676 29.3597 34.3676 30.2716H31.4391C31.4391 29.4347 31.5792 28.835 32.8906 28.835ZM32.8779 33.0199C31.8593 32.9824 31.5283 32.6326 31.4392 31.9955C31.4392 31.9705 31.4265 31.9331 31.4265 31.9081V31.8581C31.4137 31.7457 31.4137 31.6208 31.4137 31.4833H35.87C35.87 29.2598 35.7427 27.6233 32.9034 27.6233C30.2933 27.6233 29.9113 29.0849 29.9113 30.9962C29.9113 31.7832 29.9877 32.4827 30.2678 33.0199C30.6625 33.8443 31.5411 34.2066 32.8016 34.2066H32.9416C33.8583 34.2066 34.8769 34.1441 35.3989 34.0817L35.5645 32.8949C34.6732 32.9574 33.8965 33.0573 32.8779 33.0199ZM42.198 28.835C43.5985 28.835 43.6749 29.3597 43.6749 30.2716H40.7464C40.7464 29.4347 40.8865 28.835 42.198 28.835ZM42.1979 33.0199C41.1793 32.9824 40.8483 32.6326 40.7592 31.9955C40.7592 31.9705 40.7465 31.9331 40.7465 31.9081V31.8581C40.7337 31.7457 40.7337 31.6208 40.7337 31.4833H45.19C45.19 29.2598 45.0627 27.6233 42.2234 27.6233C39.6133 27.6233 39.2313 29.0849 39.2313 30.9962C39.2313 31.7832 39.3077 32.4827 39.5878 33.0199C39.9825 33.8443 40.861 34.2066 42.1215 34.2066H42.2616C43.1783 34.2066 44.1969 34.1441 44.7189 34.0817L44.8844 32.8949C43.9804 32.9574 43.2038 33.0573 42.1979 33.0199Z" fill="white"/>
</svg>
