<svg width="60" height="60" viewBox="0 0 60 60" fill="none" xmlns="http://www.w3.org/2000/svg">
<rect width="60" height="60" fill="black"/>
<path d="M11.5908 46.1872V39.2492H15.1932V40.3166H13.0458V42.0892H15.0979V43.1566H13.0458V46.1872H11.5908Z" fill="white"/>
<path d="M16.9402 46.1872H15.5806V41.3332H16.9402V46.1872ZM16.9402 40.3166H15.5806V39.2492H16.9402V40.3166Z" fill="white"/>
<path d="M18.9036 41.8229H18.9226C19.1958 41.3909 19.558 41.2384 20.0663 41.2384C20.7143 41.2384 21.2798 41.6196 21.2798 42.293V46.1877H19.9201V42.8394C19.9201 42.4074 19.8439 42.0707 19.4118 42.0707C18.9798 42.0707 18.9036 42.4074 18.9036 42.8394V46.1877H17.5503V41.3337H18.9036V41.8229Z" fill="white"/>
<path d="M25.4542 45.2855C25.4542 45.5841 25.4923 45.8891 25.524 46.1941H24.2597L24.2025 45.546H24.1835C23.8976 46.0479 23.4973 46.2894 22.9128 46.2894C21.9725 46.2894 21.6294 45.5841 21.6294 44.7391C21.6294 43.138 22.8683 43.0682 24.1263 43.0872V42.7124C24.1263 42.2994 24.0691 42.0008 23.5799 42.0008C23.1097 42.0008 23.0716 42.3566 23.0716 42.7378H21.7438C21.7438 42.1533 21.928 41.7784 22.2457 41.556C22.5506 41.321 22.9954 41.2384 23.5164 41.2384C25.2381 41.2384 25.4605 41.9754 25.4605 42.8585V45.2855H25.4542ZM22.9509 44.6819C22.9509 45.025 23.0081 45.4507 23.4465 45.4507C24.247 45.4507 24.1199 44.377 24.1199 43.8496C23.4528 43.8687 22.9509 43.8115 22.9509 44.6819Z" fill="white"/>
<path d="M27.3469 41.8229H27.366C27.6392 41.3909 28.0013 41.2384 28.5096 41.2384C29.1513 41.2384 29.7231 41.6196 29.7231 42.293V46.1877H28.3698V42.8394C28.3698 42.4074 28.2936 42.0707 27.8616 42.0707C27.4295 42.0707 27.3533 42.4074 27.3533 42.8394V46.1877H25.9937V41.3337H27.3533V41.8229H27.3469Z" fill="white"/>
<path d="M32.684 43.0618C32.684 42.3438 32.4997 42.1024 32.0804 42.1024C31.5023 42.1024 31.4578 42.6107 31.4578 43.6145C31.4578 45.0949 31.5849 45.4125 32.0804 45.4125C32.4997 45.4125 32.7031 45.025 32.7031 44.3896H34.0563C34.0563 45.7048 33.3448 46.2766 32.0741 46.2766C30.3269 46.2766 30.0918 45.2092 30.0918 43.6907C30.0918 42.3692 30.2824 41.2256 32.0741 41.2256C33.3193 41.2256 34.0309 41.7847 34.0309 43.0554H32.684V43.0618Z" fill="white"/>
<path d="M35.8098 46.1872H34.4565V41.3332H35.8098V46.1872ZM35.8098 40.3166H34.4565V39.2492H35.8098V40.3166Z" fill="white"/>
<path d="M40.105 45.2855C40.105 45.5841 40.1432 45.8891 40.1686 46.1941H38.9106L38.8534 45.546H38.8344C38.5485 46.0479 38.1545 46.2894 37.5637 46.2894C36.6234 46.2894 36.2803 45.5841 36.2803 44.7391C36.2803 43.138 37.5192 43.0682 38.7772 43.0872V42.7124C38.7772 42.2994 38.72 42.0008 38.2308 42.0008C37.7606 42.0008 37.7225 42.3566 37.7225 42.7378H36.401C36.401 42.1533 36.5852 41.7784 36.9029 41.556C37.2079 41.321 37.6526 41.2384 38.1672 41.2384C39.889 41.2384 40.1114 41.9754 40.1114 42.8585V45.2855H40.105ZM37.6018 44.6819C37.6018 45.025 37.659 45.4507 38.1037 45.4507C38.8979 45.4507 38.7708 44.377 38.7708 43.8496C38.1037 43.8687 37.6018 43.8115 37.6018 44.6819Z" fill="white"/>
<path d="M42.0432 39.2492H40.6899V46.1872H42.0432V39.2492Z" fill="white"/>
<path d="M20.4921 32.2608C21.2926 31.5937 21.4324 30.7614 21.4324 30.018V26.8985H17.0739V31.1362C17.0739 31.7398 16.5783 32.229 15.9748 32.229C15.3712 32.229 14.9201 31.7398 14.9201 31.1362V19.1346C14.9201 18.531 15.3712 18.0418 15.9748 18.0418C16.5783 18.0418 17.0739 18.531 17.0739 19.1346V23.3977H21.426V18.9757C21.426 16.5297 19.8313 14.522 15.9366 14.5156C11.9467 14.5156 10.4346 16.536 10.4346 18.9821V31.5111C10.4346 33.9317 12.3533 35.7615 14.8184 35.7615H16.1654L20.4921 32.2608Z" fill="white"/>
<path d="M37.678 32.7563V18.9884H34.6665V14.9285H45.5563V18.9884H42.5321V35.736H41.2423L37.678 32.7563Z" fill="white"/>
<path d="M39.629 35.7677L29.0251 26.8856L18.0464 35.7677H39.629Z" fill="#FDB927"/>
<path d="M32.0493 14.954H25.9754L22.4429 30.8249L29.0314 25.5071L35.8994 31.2633L32.0493 14.954ZM27.856 24.4905L29.0314 18.4929L30.2004 24.4905H27.856Z" fill="white"/>
<path d="M46.4077 16.0977C46.4077 15.3861 46.9859 14.8079 47.7102 14.8079C48.4218 14.8079 48.9999 15.3861 48.9999 16.0977C48.9999 16.8156 48.4218 17.4001 47.7102 17.4001C46.9859 17.3938 46.4077 16.8156 46.4077 16.0977ZM48.7712 16.0977C48.7712 15.5132 48.2947 15.0303 47.7102 15.0303C47.1193 15.0303 46.6364 15.5132 46.6364 16.0977C46.6364 16.6885 47.1193 17.1714 47.7102 17.1714C48.2947 17.165 48.7712 16.6885 48.7712 16.0977ZM47.4306 16.1803V16.8347H47.1955V15.3162H47.6911C47.9707 15.3162 48.2629 15.3924 48.2629 15.7355C48.2629 15.9071 48.1549 16.0468 47.9516 16.0913V16.0977C48.1613 16.1421 48.1867 16.2311 48.2121 16.3963C48.2312 16.5424 48.2502 16.7012 48.301 16.8347H47.9961C47.977 16.7521 47.9516 16.6504 47.9452 16.5615C47.9262 16.428 47.9262 16.3073 47.8563 16.2374C47.7928 16.1739 47.7165 16.1803 47.6339 16.1739H47.4306V16.1803ZM47.6848 15.9452C47.9071 15.9388 47.958 15.8435 47.958 15.7292C47.958 15.6148 47.9071 15.5576 47.7165 15.5576H47.4306V15.9452H47.6848Z" fill="white"/>
</svg>
