<svg width="60" height="60" viewBox="0 0 60 60" fill="none" xmlns="http://www.w3.org/2000/svg">
<rect width="60" height="60" fill="white"/>
<path d="M11.5908 46.1874V39.2495H15.1932V40.3169H13.0458V42.0895H15.0979V43.1568H13.0458V46.1874H11.5908Z" fill="black"/>
<path d="M16.9402 46.1874H15.5806V41.3334H16.9402V46.1874ZM16.9402 40.3169H15.5806V39.2495H16.9402V40.3169Z" fill="black"/>
<path d="M18.9036 41.8231H18.9226C19.1958 41.3911 19.558 41.2386 20.0663 41.2386C20.7143 41.2386 21.2798 41.6198 21.2798 42.2933V46.1879H19.9201V42.8397C19.9201 42.4076 19.8439 42.0709 19.4118 42.0709C18.9798 42.0709 18.9036 42.4076 18.9036 42.8397V46.1879H17.5503V41.3339H18.9036V41.8231Z" fill="black"/>
<path d="M25.4542 45.2858C25.4542 45.5844 25.4923 45.8893 25.524 46.1943H24.2597L24.2025 45.5462H24.1835C23.8976 46.0482 23.4973 46.2896 22.9128 46.2896C21.9725 46.2896 21.6294 45.5844 21.6294 44.7394C21.6294 43.1383 22.8683 43.0684 24.1263 43.0875V42.7126C24.1263 42.2996 24.0691 42.001 23.5799 42.001C23.1097 42.001 23.0716 42.3568 23.0716 42.738H21.7438C21.7438 42.1535 21.928 41.7787 22.2457 41.5563C22.5506 41.3212 22.9954 41.2386 23.5164 41.2386C25.2381 41.2386 25.4605 41.9756 25.4605 42.8587V45.2858H25.4542ZM22.9509 44.6822C22.9509 45.0253 23.0081 45.4509 23.4465 45.4509C24.247 45.4509 24.1199 44.3772 24.1199 43.8499C23.4528 43.8689 22.9509 43.8118 22.9509 44.6822Z" fill="black"/>
<path d="M27.3469 41.8231H27.366C27.6392 41.3911 28.0013 41.2386 28.5096 41.2386C29.1513 41.2386 29.7231 41.6198 29.7231 42.2933V46.1879H28.3698V42.8397C28.3698 42.4076 28.2936 42.0709 27.8616 42.0709C27.4295 42.0709 27.3533 42.4076 27.3533 42.8397V46.1879H25.9937V41.3339H27.3533V41.8231H27.3469Z" fill="black"/>
<path d="M32.684 43.062C32.684 42.3441 32.4997 42.1026 32.0804 42.1026C31.5023 42.1026 31.4578 42.6109 31.4578 43.6147C31.4578 45.0951 31.5849 45.4128 32.0804 45.4128C32.4997 45.4128 32.7031 45.0252 32.7031 44.3899H34.0563C34.0563 45.705 33.3448 46.2768 32.0741 46.2768C30.3269 46.2768 30.0918 45.2095 30.0918 43.691C30.0918 42.3695 30.2824 41.2259 32.0741 41.2259C33.3193 41.2259 34.0309 41.785 34.0309 43.0556H32.684V43.062Z" fill="black"/>
<path d="M35.8098 46.1874H34.4565V41.3334H35.8098V46.1874ZM35.8098 40.3169H34.4565V39.2495H35.8098V40.3169Z" fill="black"/>
<path d="M40.105 45.2858C40.105 45.5844 40.1432 45.8893 40.1686 46.1943H38.9106L38.8534 45.5462H38.8344C38.5485 46.0482 38.1545 46.2896 37.5637 46.2896C36.6234 46.2896 36.2803 45.5844 36.2803 44.7394C36.2803 43.1383 37.5192 43.0684 38.7772 43.0875V42.7126C38.7772 42.2996 38.72 42.001 38.2308 42.001C37.7606 42.001 37.7225 42.3568 37.7225 42.738H36.401C36.401 42.1535 36.5852 41.7787 36.9029 41.5563C37.2079 41.3212 37.6526 41.2386 38.1672 41.2386C39.889 41.2386 40.1114 41.9756 40.1114 42.8587V45.2858H40.105ZM37.6018 44.6822C37.6018 45.0253 37.659 45.4509 38.1037 45.4509C38.8979 45.4509 38.7708 44.3772 38.7708 43.8499C38.1037 43.8689 37.6018 43.8118 37.6018 44.6822Z" fill="black"/>
<path d="M42.0432 39.2495H40.6899V46.1874H42.0432V39.2495Z" fill="black"/>
<path d="M20.4921 32.261C21.2926 31.5939 21.4324 30.7616 21.4324 30.0182V26.8987H17.0739V31.1365C17.0739 31.74 16.5783 32.2292 15.9748 32.2292C15.3712 32.2292 14.9201 31.74 14.9201 31.1365V19.1348C14.9201 18.5312 15.3712 18.042 15.9748 18.042C16.5783 18.042 17.0739 18.5312 17.0739 19.1348V23.398H21.426V18.976C21.426 16.5299 19.8313 14.5222 15.9366 14.5159C11.9467 14.5159 10.4346 16.5363 10.4346 18.9823V31.5113C10.4346 33.932 12.3533 35.7618 14.8184 35.7618H16.1654L20.4921 32.261Z" fill="black"/>
<path d="M37.678 32.7565V18.9886H34.6665V14.9288H45.5563V18.9886H42.5321V35.7363H41.2423L37.678 32.7565Z" fill="black"/>
<path d="M39.629 35.768L29.0251 26.8859L18.0464 35.768H39.629Z" fill="#FDB927"/>
<path d="M32.0493 14.9543H25.9754L22.4429 30.8252L29.0314 25.5073L35.8994 31.2635L32.0493 14.9543ZM27.856 24.4908L29.0314 18.4931L30.2004 24.4908H27.856Z" fill="black"/>
<path d="M46.4077 16.0979C46.4077 15.3863 46.9859 14.8082 47.7102 14.8082C48.4218 14.8082 48.9999 15.3863 48.9999 16.0979C48.9999 16.8159 48.4218 17.4004 47.7102 17.4004C46.9859 17.394 46.4077 16.8159 46.4077 16.0979ZM48.7712 16.0979C48.7712 15.5134 48.2947 15.0305 47.7102 15.0305C47.1193 15.0305 46.6364 15.5134 46.6364 16.0979C46.6364 16.6888 47.1193 17.1716 47.7102 17.1716C48.2947 17.1653 48.7712 16.6888 48.7712 16.0979ZM47.4306 16.1805V16.8349H47.1955V15.3164H47.6911C47.9707 15.3164 48.2629 15.3927 48.2629 15.7358C48.2629 15.9073 48.1549 16.0471 47.9516 16.0916V16.0979C48.1613 16.1424 48.1867 16.2313 48.2121 16.3965C48.2312 16.5427 48.2502 16.7015 48.301 16.8349H47.9961C47.977 16.7523 47.9516 16.6507 47.9452 16.5617C47.9262 16.4283 47.9262 16.3076 47.8563 16.2377C47.7928 16.1742 47.7165 16.1805 47.6339 16.1742H47.4306V16.1805ZM47.6848 15.9454C47.9071 15.9391 47.958 15.8438 47.958 15.7294C47.958 15.6151 47.9071 15.5579 47.7165 15.5579H47.4306V15.9454H47.6848Z" fill="black"/>
</svg>
