<svg width="60" height="60" viewBox="0 0 60 60" fill="none" xmlns="http://www.w3.org/2000/svg">
<rect width="60" height="60" fill="#034D2E"/>
<mask id="mask0_307_34" style="mask-type:luminance" maskUnits="userSpaceOnUse" x="7" y="26" width="45" height="8">
<path d="M51.9998 26.6455H7.2998V33.3547H51.9998V26.6455Z" fill="white"/>
</mask>
<g mask="url(#mask0_307_34)">
<path d="M45.8024 33.3304H43.166C42.6874 33.3304 42.4107 33.1249 42.236 32.6786L40.5806 28.3979H42.3516C42.8299 28.3979 43.123 28.6088 43.2734 29.0631L44.0072 31.24H44.2973L45.9475 26.6807H49.1296C50.6992 26.6807 51.5701 27.427 51.5701 28.7629C51.5701 29.4877 51.2153 30.0853 50.5595 30.4504C50.6535 30.6397 50.7691 30.9182 50.9438 31.386C51.4169 32.6435 51.6991 33.0302 51.9974 33.3304H50.3204C49.5651 33.3304 49.1082 32.995 48.8313 32.2703L47.8073 29.558C47.9311 29.5877 48.0842 29.5931 48.2294 29.5931C48.8608 29.5931 49.2104 29.3741 49.2104 28.9712C49.2104 28.5682 48.9282 28.3951 48.345 28.3951H47.6783L45.8051 33.3277L45.8024 33.3304Z" fill="white"/>
<path d="M13.3442 31.4672C13.3442 32.6137 12.4411 33.2763 10.7077 33.2763H7.2998V26.6455H10.5195C12.167 26.6455 13.0163 27.3378 13.0163 28.3708C13.0163 29.0333 12.6777 29.5445 12.1401 29.8311C12.8739 30.0691 13.3442 30.637 13.3442 31.4699V31.4672ZM8.8156 27.8002V29.3633H10.3314C11.0759 29.3633 11.479 29.0982 11.479 28.5763C11.479 28.0544 11.0732 27.8002 10.3314 27.8002H8.8156ZM11.8096 31.3049C11.8096 30.7451 11.3849 30.4801 10.5948 30.4801H8.8156V32.1189H10.5948C11.3849 32.1189 11.8096 31.8728 11.8096 31.3049Z" fill="white"/>
<path d="M18.8835 30.3692V33.2789H17.5102V32.6434C17.236 33.1086 16.7093 33.3546 15.9648 33.3546C14.7796 33.3546 14.0728 32.6921 14.0728 31.8105C14.0728 30.9289 14.7043 30.2853 16.247 30.2853H17.4161C17.4161 29.6498 17.0398 29.282 16.247 29.282C15.7095 29.282 15.1558 29.4632 14.7876 29.7553L14.2609 28.7223C14.8172 28.3248 15.6369 28.1057 16.4459 28.1057C17.9912 28.1057 18.8835 28.825 18.8835 30.3692ZM17.4134 31.6672V31.1453H16.4056C15.7175 31.1453 15.5025 31.4022 15.5025 31.7429C15.5025 32.1134 15.8143 32.3595 16.3303 32.3595C16.8195 32.3595 17.2441 32.1323 17.4134 31.6672Z" fill="white"/>
<path d="M25.3902 30.3584V33.2762H23.9201V30.5855C23.9201 29.7607 23.5438 29.3821 22.8934 29.3821C22.1866 29.3821 21.6786 29.8175 21.6786 30.7559V33.2762H20.2085V28.1814H21.6114V28.7791C22.0065 28.3437 22.6004 28.1057 23.2885 28.1057C24.4844 28.1057 25.3875 28.8061 25.3875 30.361L25.3902 30.3584Z" fill="white"/>
<path d="M26.3418 30.7291C26.3418 29.1931 27.519 28.1033 29.1665 28.1033C30.2307 28.1033 31.0693 28.5684 31.4348 29.4013L30.2952 30.0179C30.0211 29.5338 29.618 29.3175 29.1557 29.3175C28.4112 29.3175 27.828 29.8394 27.828 30.7291C27.828 31.6188 28.4112 32.1407 29.1557 32.1407C29.618 32.1407 30.0211 31.9325 30.2952 31.4403L31.4348 32.065C31.0666 32.879 30.2307 33.3549 29.1665 33.3549C27.519 33.3549 26.3418 32.2651 26.3418 30.7291Z" fill="white"/>
<path d="M31.9077 30.7291C31.9077 29.1931 33.085 28.1033 34.6946 28.1033C36.3046 28.1033 37.4737 29.1931 37.4737 30.7291C37.4737 32.2651 36.3073 33.3549 34.6946 33.3549C33.0822 33.3549 31.9077 32.2651 31.9077 30.7291ZM35.9849 30.7291C35.9849 29.8475 35.4285 29.3175 34.6946 29.3175C33.961 29.3175 33.394 29.8475 33.394 30.7291C33.394 31.6107 33.9583 32.1407 34.6946 32.1407C35.4312 32.1407 35.9849 31.6107 35.9849 30.7291Z" fill="white"/>
</g>
</svg>
