<svg width="130" height="60" viewBox="0 0 130 60" fill="none" xmlns="http://www.w3.org/2000/svg">
<rect width="130" height="60" fill="white"/>
<g clip-path="url(#clip0_43_193)">
<path fill-rule="evenodd" clip-rule="evenodd" d="M67.0996 35.0487C69.3956 33.8286 70.8474 31.5368 70.8474 28.9332C70.8474 27.4152 70.3556 26.1229 69.4253 25.1949C68.3527 24.0871 67.0525 23.6735 64.6329 23.6735L56.6983 23.6729L56.6206 24.1655L53.5267 43.7387C53.2985 45.1701 53.4887 47.6882 56.646 47.702L56.6454 47.7038H62.0973C66.7382 47.7038 69.9792 44.4861 69.9792 39.88C69.9792 37.6425 68.8904 35.8885 67.0996 35.0487ZM64.2676 43.3828C63.4069 43.9746 62.841 44.1465 60.7426 44.1465H57.498L58.5685 37.2415H61.9935C65.304 37.2415 65.7505 38.6976 65.7505 40.1223C65.7505 41.5487 65.2098 42.7373 64.2676 43.3828ZM62.2014 33.4769H59.1689L60.1639 27.2296H63.5918C65.5672 27.2296 65.9079 27.4107 66.2124 27.8236C66.4756 28.1914 66.5848 28.5952 66.5848 29.2099C66.5848 31.7625 64.8231 33.4769 62.2014 33.4769ZM82.5484 37.3737C85.9917 36.7149 88.6686 33.4039 88.6686 29.5917C88.6686 25.775 86.2773 23.6732 81.9342 23.6732H74.4138L74.3361 24.1653L71.1611 44.4998C71.0187 45.5399 70.2304 47.7041 74.019 47.7019L74.3868 47.7035H74.6511L74.7286 47.2098L76.1811 37.899H78.3713L83.0063 47.3753L83.1666 47.7035H87.7465L87.3212 46.8585L82.5484 37.3737ZM76.7464 34.3428L77.8806 27.2301H81.0993C84.0715 27.2301 84.6157 28.0256 84.6157 29.5917C84.6157 32.4336 82.6719 34.3428 79.7789 34.3428H76.7464ZM102.252 35.0487C104.548 33.8286 106 31.5368 106 28.9332C106 27.4152 105.509 26.1235 104.578 25.1949C103.506 24.0871 102.205 23.6735 99.7862 23.6735L91.8503 23.6729L91.7733 24.1655L88.6856 43.6968C88.4822 45.1151 88.6126 47.6882 91.8003 47.702L91.7998 47.7038H97.2495C101.891 47.7038 105.132 44.4861 105.132 39.88C105.132 37.6425 104.043 35.8885 102.252 35.0487ZM99.4203 43.3834C98.5607 43.9746 97.9935 44.1465 95.8946 44.1465H92.6513L93.7205 37.2415H97.1455C100.458 37.2415 100.904 38.6976 100.904 40.1223C100.904 41.5487 100.362 42.7373 99.4203 43.3834ZM97.354 33.4769H94.3215L95.3166 27.2296H98.7438C100.72 27.2296 101.06 27.4107 101.366 27.8236C101.629 28.1914 101.738 28.5952 101.738 29.2099C101.738 31.7625 99.9764 33.4769 97.354 33.4769Z" fill="#173E7D"/>
<path fill-rule="evenodd" clip-rule="evenodd" d="M27.3758 23.6687L27.0276 25.8901C31.9716 26.8915 36.3819 29.3758 39.764 32.8615L44.8505 29.5323C44.8505 29.5323 45.4372 29.1376 45.71 29.467C45.71 29.467 45.9761 29.7235 45.4647 30.2724L41.2882 34.5914C44.23 38.2518 46.138 42.7692 46.5731 47.703H48.9524L52.7237 23.6676L27.3758 23.6687Z" fill="#00ADEF"/>
<path fill-rule="evenodd" clip-rule="evenodd" d="M32.2463 40.789L32.013 40.5082L37.4518 34.4162C34.5233 31.5291 30.7822 29.4624 26.6035 28.5912L24.3874 42.7171C24.0001 45.3659 24.4839 47.7025 28.912 47.7025L43.822 47.703C43.4083 43.534 41.8109 39.7069 39.3667 36.5649L32.2463 40.789Z" fill="#173E7D"/>
<path d="M27.3086 19.8204L28.814 12.2959H30.0855L29.4142 15.6626L29.0175 17.0723L28.814 18.3499L28.5191 19.8204H27.3086ZM30.594 19.8915C30.1466 19.8915 29.76 19.8137 29.4345 19.6582C29.109 19.496 28.8581 19.2592 28.6818 18.9483C28.5055 18.6373 28.4173 18.2519 28.4173 17.7922C28.4173 17.2852 28.4784 16.8221 28.6005 16.4029C28.7293 15.977 28.9158 15.612 29.16 15.3077C29.4108 14.9968 29.7091 14.7602 30.0549 14.5978C30.4077 14.4288 30.8077 14.3443 31.2552 14.3443C31.7028 14.3443 32.1062 14.4389 32.4657 14.6282C32.825 14.811 33.1099 15.0812 33.3201 15.4395C33.5371 15.791 33.6455 16.2169 33.6455 16.7172C33.6455 17.177 33.5675 17.5995 33.4116 17.9849C33.2624 18.3702 33.0488 18.7049 32.7709 18.9888C32.4922 19.2733 32.1604 19.5006 31.7943 19.6582C31.4282 19.8137 31.0281 19.8915 30.594 19.8915ZM30.4924 18.8062C30.8585 18.8062 31.1806 18.7218 31.4587 18.553C31.7367 18.3771 31.9571 18.137 32.1198 17.8328C32.2826 17.5287 32.3639 17.1771 32.3639 16.7782C32.3639 16.359 32.2385 16.0278 31.9877 15.7843C31.7367 15.541 31.3841 15.4193 30.9297 15.4193C30.5704 15.4193 30.2483 15.5071 29.9634 15.683C29.6853 15.8519 29.465 16.0885 29.3023 16.3928C29.1396 16.697 29.0582 17.0486 29.0582 17.4476C29.0582 17.8666 29.1836 18.1977 29.4345 18.4414C29.6853 18.6846 30.038 18.8062 30.4924 18.8062ZM36.7229 19.8915C36.2822 19.8915 35.8788 19.7969 35.5125 19.6076C35.1532 19.4183 34.8649 19.1478 34.648 18.7961C34.4377 18.4379 34.3327 18.0086 34.3327 17.5083C34.3327 17.0486 34.4073 16.626 34.5563 16.2407C34.7123 15.8553 34.9294 15.5206 35.2075 15.2367C35.4823 14.955 35.8109 14.7309 36.1738 14.5776C36.5467 14.4221 36.9536 14.3443 37.3942 14.3443C37.8487 14.3443 38.2386 14.4255 38.564 14.5877C38.8963 14.7499 39.1472 14.9968 39.3166 15.3279C39.4863 15.6525 39.5642 16.0581 39.5506 16.5449C39.5371 17.2142 39.415 17.8025 39.1845 18.3095C38.9539 18.8096 38.6319 19.1985 38.2182 19.4756C37.8045 19.753 37.306 19.8915 36.7229 19.8915ZM37.0485 18.8062C37.4146 18.8062 37.7366 18.7218 38.0148 18.553C38.2928 18.3771 38.5132 18.137 38.6759 17.8328C38.8386 17.5287 38.92 17.1771 38.92 16.7782C38.92 16.359 38.7946 16.0278 38.5437 15.7843C38.2928 15.541 37.9402 15.4193 37.4858 15.4193C37.1265 15.4193 36.8042 15.5071 36.5195 15.683C36.2413 15.8519 36.0211 16.0885 35.8584 16.3928C35.6956 16.697 35.6143 17.0486 35.6143 17.4476C35.6143 17.8666 35.7397 18.1977 35.9905 18.4414C36.2413 18.6851 36.5941 18.8062 37.0485 18.8062ZM38.3809 19.8204L38.6251 18.5833L38.9708 17.1433L39.1438 15.6931L39.398 14.4053H40.6695L39.5914 19.8204H38.3809ZM45.2929 14.3443C45.7609 14.3443 46.1576 14.4389 46.483 14.6282C46.8086 14.8175 47.0356 15.0981 47.1646 15.47C47.3001 15.8351 47.3138 16.2846 47.2053 16.8187L46.6051 19.8204H45.3336L45.9237 16.8492C46.0118 16.4098 45.9711 16.0684 45.8016 15.8249C45.632 15.5748 45.3235 15.4498 44.876 15.4498C44.4081 15.4498 44.0216 15.5782 43.7164 15.8351C43.4113 16.0919 43.2043 16.484 43.096 17.0114L42.5263 19.8204H41.2549L42.3331 14.4053H43.5434L43.2383 15.9467L43.0349 15.4599C43.2926 15.0745 43.6147 14.794 44.0012 14.6183C44.3945 14.4356 44.825 14.3443 45.2929 14.3443ZM50.9438 19.8915C50.408 19.8915 49.9368 19.7934 49.5298 19.5973C49.1298 19.3945 48.8213 19.1174 48.6042 18.7658C48.3873 18.4074 48.2788 17.9884 48.2788 17.5083C48.2788 16.8998 48.4179 16.359 48.6959 15.8858C48.9739 15.4057 49.357 15.0306 49.8453 14.7602C50.3334 14.4828 50.8963 14.3443 51.5337 14.3443C52.0829 14.3443 52.5543 14.4525 52.9476 14.6688C53.3476 14.8785 53.6562 15.1928 53.8732 15.612L52.7849 16.1698C52.6627 15.9129 52.4865 15.7236 52.2559 15.6019C52.0321 15.4801 51.7575 15.4191 51.4321 15.4191C51.0793 15.4191 50.7606 15.5073 50.4759 15.683C50.1911 15.8519 49.9673 16.0885 49.8046 16.3928C49.6418 16.697 49.5604 17.0486 49.5604 17.4476C49.5604 17.8666 49.6858 18.1977 49.9368 18.4414C50.1876 18.6846 50.5437 18.8064 51.0049 18.8064C51.3031 18.8064 51.5811 18.7455 51.8388 18.6238C52.0966 18.502 52.3135 18.3128 52.4899 18.0559L53.4256 18.6846C53.1748 19.0632 52.8289 19.3607 52.3881 19.5771C51.9474 19.7866 51.4658 19.8915 50.9438 19.8915ZM56.744 19.8915C56.2152 19.8915 55.7507 19.7934 55.3505 19.5973C54.9572 19.3945 54.6521 19.1174 54.4352 18.7658C54.2181 18.4074 54.1096 17.9884 54.1096 17.5083C54.1096 16.8998 54.2487 16.359 54.5266 15.8858C54.8046 15.4057 55.1844 15.0306 55.6658 14.7602C56.1541 14.4828 56.7101 14.3443 57.3339 14.3443C57.8696 14.3443 58.3341 14.4423 58.7276 14.6385C59.1276 14.8276 59.4361 15.1016 59.653 15.4599C59.8701 15.8114 59.9786 16.2306 59.9786 16.7172C59.9786 17.319 59.8395 17.8598 59.5615 18.3399C59.2836 18.8199 58.9004 19.1985 58.4121 19.4756C57.9307 19.753 57.3747 19.8915 56.744 19.8915ZM56.8253 18.8062C57.1916 18.8062 57.5137 18.7218 57.7917 18.553C58.0698 18.3771 58.2901 18.137 58.4528 17.8328C58.6157 17.5287 58.697 17.1771 58.697 16.7782C58.697 16.359 58.5714 16.0278 58.3206 15.7843C58.0698 15.5408 57.717 15.4193 57.2628 15.4193C56.9033 15.4193 56.5813 15.5071 56.2965 15.683C56.0184 15.8519 55.7981 16.0885 55.6354 16.3928C55.4725 16.697 55.3912 17.0486 55.3912 17.4476C55.3912 17.8733 55.5166 18.208 55.7676 18.4513C56.0184 18.6881 56.3711 18.8062 56.8253 18.8062Z" fill="#173E7D"/>
</g>
<defs>
<clipPath id="clip0_43_193">
<rect width="82" height="35.4808" fill="white" transform="translate(24 12.2596)"/>
</clipPath>
</defs>
</svg>
