<svg width="60" height="60" viewBox="0 0 60 60" fill="none" xmlns="http://www.w3.org/2000/svg">
<rect width="60" height="60" fill="white"/>
<path fill-rule="evenodd" clip-rule="evenodd" d="M13.5733 12.0371L13.0522 15.361C20.4501 16.8594 27.0493 20.5767 32.1099 25.7924L39.721 20.8108C39.721 20.8108 40.5988 20.2203 41.0071 20.7132C41.0071 20.7132 41.4053 21.0969 40.64 21.9182L34.3906 28.3809C38.7926 33.858 41.6475 40.6174 42.2986 48H45.8587L51.5018 12.0354L13.5733 12.0371Z" fill="#00ADEF"/>
<path fill-rule="evenodd" clip-rule="evenodd" d="M20.861 37.6545L20.5119 37.2342L28.6501 28.1187C24.2681 23.7987 18.6703 20.7062 12.4176 19.4026L9.10163 40.5395C8.52207 44.5028 9.24598 47.9992 15.8718 47.9992L38.1819 48C37.5629 41.7618 35.1727 36.0352 31.5154 31.3338L20.861 37.6545Z" fill="#173E7D"/>
</svg>
