<svg width="60" height="60" viewBox="0 0 60 60" fill="none" xmlns="http://www.w3.org/2000/svg">
<rect width="60" height="60" fill="#01FF5F"/>
<g clip-path="url(#clip0_42_230)">
<path d="M50.9778 43.7598C50.9849 43.7952 50.9637 43.8305 50.9285 43.8375C50.5193 43.9435 50.1948 44 49.8773 44C48.8262 44 48.3394 43.4278 48.3394 42.3117V38.5042C48.3394 38.4688 48.3606 38.4406 48.3958 38.4335L49.3835 38.2499C49.4258 38.2428 49.4611 38.271 49.4611 38.3205V39.3095C49.4611 39.3448 49.4893 39.3801 49.5316 39.3801H50.7803C50.8156 39.3801 50.8509 39.4084 50.8509 39.4507V40.1925C50.8509 40.2278 50.8226 40.2631 50.7803 40.2631H49.5316C49.4964 40.2631 49.4611 40.2914 49.4611 40.3338V42.3965C49.4611 42.8062 49.6092 43.0958 50.0748 43.0958C50.2724 43.0958 50.5122 43.0464 50.7733 42.9828C50.8156 42.9757 50.8509 42.9969 50.8579 43.0393L50.9778 43.7598ZM46.6463 43.9152L45.7856 42.5236C45.7574 42.4812 45.6939 42.4812 45.6727 42.5236L44.805 43.9152C44.7909 43.9364 44.7697 43.9506 44.7486 43.9506H43.5916C43.5352 43.9506 43.507 43.887 43.5352 43.8446L44.9673 41.6971C44.9814 41.6759 44.9814 41.6477 44.9673 41.6194L43.5634 39.4861C43.5352 39.4437 43.5634 39.3801 43.6198 39.3801H44.7838C44.805 39.3801 44.8262 39.3942 44.8403 39.4154L45.6727 40.7435C45.701 40.7859 45.7644 40.7859 45.7927 40.7435L46.5828 39.4154C46.5969 39.3942 46.6181 39.3801 46.6392 39.3801H47.7962C47.8526 39.3801 47.8808 39.4437 47.8526 39.4861L46.4981 41.577C46.484 41.5982 46.484 41.6265 46.4981 41.6547L47.9302 43.8517C47.9584 43.894 47.9302 43.9576 47.8738 43.9576H46.6957C46.6816 43.9506 46.6533 43.9364 46.6463 43.9152ZM41.5316 40.1501C40.9532 40.1501 40.5934 40.5457 40.5299 41.1814C40.5228 41.2238 40.5581 41.2591 40.6004 41.2591H42.4699C42.5122 41.2591 42.5405 41.2238 42.5405 41.1885C42.5122 40.6093 42.2089 40.1501 41.5316 40.1501ZM42.6604 43.9223C42.6463 43.9435 42.6251 43.9506 42.604 43.9506H41.6939C40.3324 43.9506 39.4082 43.223 39.4082 41.6759C39.4082 40.0441 40.4029 39.3165 41.5599 39.3165C42.8227 39.3165 43.648 40.03 43.648 41.5558C43.648 41.8808 43.4999 42.0362 43.1683 42.0362H40.6075C40.5652 42.0362 40.5369 42.0715 40.5369 42.1139C40.6216 42.7638 41.1154 43.0181 41.7786 43.0181H43.1331C43.1895 43.0181 43.2177 43.0817 43.1895 43.1241L42.6604 43.9223ZM36.0008 43.9506H34.9849C34.9496 43.9506 34.9144 43.9223 34.9144 43.8799V40.2702C34.9144 39.8675 35.1119 39.6627 35.4999 39.5567C36.1348 39.3801 36.5793 39.3377 36.9814 39.3377C38.3147 39.3377 38.8368 40.0229 38.8368 40.9766V43.8799C38.8368 43.9152 38.8085 43.9506 38.7662 43.9506H37.7645C37.7292 43.9506 37.6939 43.9223 37.6939 43.8799V41.0755C37.6939 40.6516 37.5105 40.3196 36.9179 40.3196C36.7274 40.3196 36.5299 40.3338 36.1207 40.4397C36.0925 40.4468 36.0713 40.475 36.0713 40.5033V43.8799C36.0713 43.9223 36.0431 43.9506 36.0008 43.9506Z" fill="#1E3C3C"/>
<path d="M42.7873 36.8582C42.5686 36.8582 42.3429 36.8088 42.1383 36.7099C41.3905 36.3496 41.0731 35.4454 41.4399 34.6966L47.7397 21.6139C48.0995 20.8651 49.0025 20.5473 49.7503 20.9146C50.4981 21.2749 50.8155 22.1791 50.4487 22.9279L44.1489 36.0105C43.8808 36.5474 43.3447 36.8582 42.7873 36.8582Z" fill="#1E3C3C"/>
<path d="M42.7874 36.8582C42.4417 36.8582 42.096 36.7382 41.8138 36.498L20.7909 18.6541C20.156 18.1173 20.0784 17.1636 20.6145 16.5349C21.1507 15.8991 22.1031 15.8214 22.7309 16.3583L43.7539 34.2022C44.3888 34.739 44.4664 35.6927 43.9302 36.3214C43.6339 36.6816 43.2106 36.8582 42.7874 36.8582Z" fill="#1E3C3C"/>
<path d="M10.5264 41.4711C9.95494 41.4711 9.41173 41.1461 9.15776 40.5951C8.81208 39.8393 9.14365 38.9421 9.8985 38.596L48.4593 20.9005C49.2142 20.5544 50.1101 20.8864 50.4558 21.6422C50.8015 22.3981 50.4699 23.2952 49.7151 23.6414L11.1542 41.3298C10.9496 41.4287 10.738 41.4711 10.5264 41.4711Z" fill="#1E3C3C"/>
<path d="M10.5264 41.4711C10.3006 41.4711 10.0678 41.4216 9.85616 41.3086C9.11542 40.9342 8.81207 40.03 9.18597 39.2883L20.4241 16.8316C20.798 16.0898 21.701 15.7861 22.4417 16.1605C23.1824 16.5349 23.4858 17.4391 23.1119 18.1808L11.8738 40.6375C11.6057 41.1673 11.0766 41.4711 10.5264 41.4711Z" fill="#1E3C3C"/>
</g>
<defs>
<clipPath id="clip0_42_230">
<rect width="42" height="28" fill="white" transform="translate(9 16)"/>
</clipPath>
</defs>
</svg>
