<svg width="130" height="60" viewBox="0 0 130 60" fill="none" xmlns="http://www.w3.org/2000/svg">
<rect width="130" height="60" fill="white"/>
<path d="M15.0472 25.9893V32.7897C15.0472 33.8557 15.6242 34.4193 16.7166 34.4193C17.2842 34.4193 18.0062 34.3069 18.7616 34.1009L19.219 37.1337C18.2691 37.5066 16.6014 37.7552 15.5909 37.7552C12.5013 37.7552 11 36.3146 11 33.3508V25.9893H15.0472Z" fill="#054375"/>
<path d="M30.7097 20.2456C29.2076 20.7011 27.236 21.8659 26.3817 22.4346L26.2212 22.5411L25.9268 20.5606H22.5308V37.4046H26.578V26.4415L26.6343 26.4057C28.1031 25.4734 29.4286 24.6961 31.1057 23.9425L30.7097 20.2456Z" fill="#054375"/>
<path d="M33.7812 14.5854V19.1695H37.8276V14.02L33.7812 14.5854Z" fill="#054375"/>
<path d="M37.8276 20.561H33.7812V37.4049H37.8276V20.561Z" fill="#054375"/>
<path d="M55.1431 25.9478C55.1431 22.0865 53.4916 20.2099 50.0948 20.2099C48.1838 20.2099 46.2498 20.7302 45.0772 21.218L44.9082 21.2887V13L40.8618 13.5619V37.1799C42.9383 37.5775 45.6234 37.7554 47.3867 37.7554C53.8458 37.7554 55.1431 35.1569 55.1431 30.9644V25.9478ZM51.0959 31.1057C51.0959 33.1092 50.5104 34.3506 47.5975 34.3506C46.5588 34.3506 45.7139 34.3046 45.0132 34.2092L44.9082 34.1939V24.6417L44.979 24.6093C46.0109 24.1291 47.5557 23.6148 48.7941 23.6148C50.3645 23.6148 51.0968 24.3224 51.0968 25.8422L51.0959 31.1057Z" fill="#054375"/>
<path d="M84.7901 25.5961V37.4047H88.8365V25.1406C88.8365 21.8226 87.6109 20.21 85.0897 20.21C83.1566 20.21 80.4852 20.9073 78.2849 21.9869L78.1543 22.0508L77.7173 20.5608H74.6602V37.4047H78.7074V25.5927L78.7731 25.5587C80.4126 24.7038 82.2732 24.107 83.2965 24.107C84.3156 24.107 84.7901 24.5804 84.7901 25.5961Z" fill="#054375"/>
<path d="M99.2652 34.3153C96.7807 34.3153 95.9426 33.5669 95.9426 31.3515V26.6149C95.9426 24.3978 96.7807 23.6511 99.2652 23.6511C99.9992 23.6511 101.498 23.7652 102.717 24.076L103.209 20.8039C101.923 20.3944 100.26 20.2104 99.1594 20.2104C93.9318 20.2104 91.8945 22.0155 91.8945 26.6498V31.3165C91.8945 35.9501 93.9318 37.7559 99.1594 37.7559C100.531 37.7559 102.106 37.5252 103.209 37.1633L102.717 33.8879C101.582 34.1671 100.392 34.3153 99.2652 34.3153Z" fill="#054375"/>
<path d="M112.666 37.7563C117.533 37.7563 120 35.5307 120 31.1407V26.8256C120 22.4365 117.533 20.21 112.666 20.21C107.799 20.21 105.332 22.4356 105.332 26.8256V31.1407C105.331 35.5298 107.799 37.7563 112.666 37.7563ZM109.378 26.6851C109.378 24.5914 110.423 23.6157 112.666 23.6157C114.909 23.6157 115.954 24.5914 115.954 26.6851V31.2812C115.954 33.3748 114.909 34.3497 112.666 34.3497C110.424 34.3497 109.378 33.374 109.378 31.2812V26.6851Z" fill="#054375"/>
<path d="M64.4408 20.21C62.5691 20.21 60.2818 20.5182 58.7046 20.9814L59.1944 24.0133C60.7905 23.6889 62.436 23.5101 63.8425 23.5101C66.5071 23.5101 67.236 23.9478 67.236 26.0542V26.9107C65.3079 26.9405 62.5529 27.2641 60.4525 28.2671C58.7839 29.064 57.8477 30.3556 57.8477 32.7907C57.8477 34.6452 58.4118 37.7563 62.1927 37.7563C63.9782 37.7563 66.0445 37.2276 67.5048 36.2672L67.6456 36.1752L67.9819 37.4055H71.284V26.2637C71.2823 21.7945 69.4926 20.21 64.4408 20.21ZM67.236 33.6677L67.1737 33.7035C66.5822 34.0372 65.0877 34.5958 63.5993 34.5958C62.2713 34.5958 61.7532 34.0798 61.7532 32.755C61.7532 31.8056 62.0041 31.1305 62.5708 30.8214C63.7281 30.1939 65.0502 29.6915 65.7415 29.6915C66.7614 29.6915 67.2351 30.7218 67.2351 31.7375L67.236 33.6677Z" fill="#054375"/>
<mask id="mask0_308_151" style="mask-type:luminance" maskUnits="userSpaceOnUse" x="11" y="15" width="9" height="10">
<path d="M11 16.2991V24.5972H19.883L19.3189 20.5606H15.0472V15.7363L11 16.2991Z" fill="white"/>
</mask>
<g mask="url(#mask0_308_151)">
<path d="M6.55908 20.1675L15.4413 11.3066L24.3235 20.1675L15.4413 29.0292L6.55908 20.1675Z" fill="url(#paint0_linear_308_151)"/>
</g>
<path d="M119.316 45.5815C119.398 45.4997 119.439 45.4027 119.439 45.2886C119.439 45.1745 119.398 45.0766 119.316 44.9948C119.234 44.9131 119.137 44.8722 119.023 44.8722C118.908 44.8722 118.81 44.9131 118.729 44.9948C118.648 45.0766 118.607 45.1745 118.607 45.2886C118.607 45.4027 118.647 45.4997 118.729 45.5815C118.811 45.6632 118.908 45.7041 119.023 45.7041C119.137 45.7041 119.234 45.6632 119.316 45.5815ZM114.79 43.9084C114.983 43.7645 115.243 43.6921 115.569 43.6921C115.808 43.6921 116.023 43.7177 116.214 43.7696C116.404 43.8224 116.584 43.9041 116.752 44.0182V44.7837C116.589 44.9454 116.407 45.0655 116.205 45.1413C116.004 45.2179 115.781 45.2562 115.536 45.2562C115.231 45.2562 114.982 45.1838 114.789 45.04C114.596 44.8961 114.499 44.7104 114.499 44.4823C114.5 44.2439 114.597 44.0523 114.79 43.9084ZM116.145 45.6104C116.366 45.5312 116.569 45.4137 116.753 45.2562V45.6547H117.34V42.9105C117.34 42.455 117.2 42.1051 116.92 41.8607C116.64 41.6172 116.241 41.4937 115.724 41.4937C115.474 41.4937 115.224 41.5269 114.973 41.5916C114.722 41.6564 114.45 41.7602 114.157 41.9007L114.386 42.3647C114.631 42.2404 114.855 42.1493 115.059 42.0923C115.263 42.0361 115.466 42.0063 115.667 42.0063C116.021 42.0063 116.29 42.0897 116.475 42.2549C116.66 42.4201 116.752 42.6662 116.752 42.9914V43.5295C116.393 43.3447 115.993 43.2528 115.552 43.2528C115.051 43.2528 114.654 43.3635 114.361 43.5866C114.066 43.8096 113.92 44.1127 113.92 44.4984C113.92 44.7428 113.984 44.9574 114.112 45.1413C114.24 45.3269 114.416 45.4708 114.643 45.5738C114.869 45.6768 115.131 45.7279 115.43 45.7279C115.687 45.7279 115.924 45.6887 116.145 45.6104ZM112.978 45.7117C113.106 45.6947 113.221 45.6683 113.325 45.63V45.1013C113.221 45.1387 113.125 45.166 113.035 45.183C112.946 45.1992 112.843 45.2068 112.73 45.2068C112.506 45.2068 112.346 45.1592 112.248 45.0646C112.15 44.9693 112.102 44.8126 112.102 44.5955V42.088H113.334V41.5746H112.102V40.386L111.506 40.541V41.5746H110.624V42.088H111.506V44.7505C111.506 45.0715 111.601 45.315 111.791 45.4836C111.981 45.6513 112.254 45.7356 112.608 45.7356C112.726 45.7364 112.85 45.7279 112.978 45.7117ZM109.429 45.5738C109.676 45.4648 109.873 45.315 110.02 45.1259C110.167 44.9361 110.24 44.7241 110.24 44.4908C110.24 44.1706 110.139 43.9178 109.935 43.733C109.731 43.5491 109.424 43.4299 109.016 43.3754L108.306 43.2775C108.039 43.2392 107.846 43.1728 107.727 43.0783C107.607 42.9837 107.548 42.8441 107.548 42.6593C107.548 42.4584 107.635 42.2958 107.809 42.1706C107.983 42.0463 108.212 41.9833 108.494 41.9833C108.717 41.9833 108.936 42.0199 109.151 42.0931C109.365 42.1664 109.587 42.2822 109.816 42.4388L110.134 42.0318C109.884 41.8471 109.628 41.7117 109.367 41.624C109.106 41.5372 108.825 41.4937 108.526 41.4937C108.228 41.4937 107.962 41.5465 107.731 41.6495C107.5 41.7526 107.319 41.8931 107.188 42.0727C107.058 42.2515 106.993 42.455 106.993 42.6832C106.993 42.9982 107.092 43.2477 107.291 43.4324C107.489 43.6172 107.792 43.739 108.2 43.7994L108.911 43.8965C109.172 43.9348 109.364 44.0038 109.486 44.1042C109.609 44.2047 109.669 44.3443 109.669 44.5231C109.669 44.7411 109.566 44.9173 109.359 45.0527C109.153 45.1881 108.886 45.2562 108.56 45.2562C108.32 45.2562 108.086 45.2085 107.858 45.1132C107.629 45.0187 107.42 44.8841 107.23 44.7104L106.862 45.1013C107.08 45.3013 107.337 45.458 107.634 45.5695C107.931 45.6802 108.247 45.7356 108.585 45.7356C108.899 45.7364 109.181 45.6819 109.429 45.5738ZM106.074 40.6721C106.152 40.5904 106.192 40.495 106.192 40.3869C106.192 40.2728 106.152 40.1766 106.074 40.0974C105.995 40.019 105.898 39.979 105.784 39.979C105.676 39.979 105.58 40.019 105.499 40.0974C105.417 40.1766 105.376 40.2694 105.376 40.3784C105.376 40.4924 105.417 40.5904 105.499 40.6721C105.581 40.753 105.676 40.7939 105.784 40.7939C105.898 40.7939 105.995 40.753 106.074 40.6721ZM106.086 41.5755H105.482V45.6547H106.086V41.5755ZM104.017 47.1328C104.198 46.9557 104.29 46.702 104.29 46.3707V41.5746H103.686V46.3214C103.686 46.5163 103.646 46.6585 103.567 46.7454C103.488 46.8322 103.354 46.8748 103.163 46.8748C103.049 46.8748 102.948 46.8637 102.861 46.8424V47.3473C102.905 47.3584 102.959 47.3686 103.024 47.3797C103.089 47.3908 103.16 47.3967 103.237 47.3967C103.575 47.3976 103.835 47.309 104.017 47.1328ZM104.278 40.6721C104.356 40.5904 104.396 40.495 104.396 40.3869C104.396 40.2728 104.357 40.1766 104.278 40.0974C104.198 40.019 104.102 39.979 103.988 39.979C103.879 39.979 103.785 40.019 103.703 40.0974C103.621 40.1766 103.58 40.2728 103.58 40.3869C103.58 40.495 103.621 40.5904 103.703 40.6721C103.785 40.753 103.879 40.7939 103.988 40.7939C104.103 40.7939 104.199 40.753 104.278 40.6721ZM99.5973 42.6542C99.7279 42.461 99.8909 42.3111 100.087 42.203C100.283 42.094 100.498 42.0404 100.732 42.0404C100.961 42.0404 101.17 42.0957 101.361 42.2064C101.551 42.3179 101.711 42.4703 101.839 42.6627C101.967 42.8552 102.047 43.0731 102.079 43.3184H99.3447C99.3823 43.0689 99.4667 42.8475 99.5973 42.6542ZM101.65 45.6019C101.897 45.5176 102.136 45.3916 102.363 45.223L101.989 44.8245C101.852 44.9437 101.684 45.0357 101.483 45.1013C101.281 45.166 101.075 45.1983 100.862 45.1983C100.595 45.1983 100.35 45.1379 100.127 45.0153C99.9046 44.8927 99.7236 44.7258 99.5845 44.5146C99.4454 44.3026 99.3601 44.0642 99.3276 43.7977H102.682V43.6112C102.682 43.2204 102.596 42.8671 102.425 42.5495C102.253 42.2319 102.022 41.979 101.731 41.7917C101.44 41.6044 101.111 41.5108 100.748 41.5108C100.372 41.5108 100.033 41.6044 99.7279 41.7917C99.4232 41.979 99.1808 42.2319 99.0016 42.5495C98.8215 42.8671 98.7319 43.2204 98.7319 43.6112C98.7319 44.008 98.8258 44.3665 99.0136 44.6866C99.2013 45.0067 99.4539 45.2605 99.7723 45.4486C100.091 45.636 100.446 45.7288 100.837 45.7288C101.132 45.7279 101.402 45.6862 101.65 45.6019ZM96.8227 45.6547V42.8628C96.9319 42.5912 97.0796 42.3835 97.2673 42.2404C97.4551 42.0965 97.6736 42.0242 97.9245 42.0242C97.9953 42.0242 98.0662 42.0301 98.137 42.0412C98.2079 42.0523 98.2787 42.071 98.3495 42.0974V41.544C98.2352 41.5065 98.1072 41.4878 97.9655 41.4878C97.7154 41.4878 97.4935 41.5457 97.3006 41.6623C97.1069 41.7798 96.9481 41.9433 96.8227 42.1553V41.5763H96.2184V45.6555H96.8227V45.6547ZM92.493 43.9084C92.6858 43.7645 92.9462 43.6921 93.2722 43.6921C93.512 43.6921 93.7262 43.7177 93.9166 43.7696C94.1069 43.8224 94.287 43.9041 94.4551 44.0182V44.7837C94.2921 44.9454 94.1094 45.0655 93.908 45.1413C93.7066 45.2179 93.483 45.2562 93.2389 45.2562C92.9342 45.2562 92.685 45.1838 92.4921 45.04C92.2984 44.8961 92.2028 44.7104 92.2028 44.4823C92.2028 44.2439 92.2992 44.0523 92.493 43.9084ZM93.8474 45.6104C94.0676 45.5312 94.2708 45.4137 94.4551 45.2562V45.6547H95.0423V42.9105C95.0423 42.455 94.9023 42.1051 94.6224 41.8607C94.3416 41.6172 93.9439 41.4937 93.4267 41.4937C93.1766 41.4937 92.9265 41.5269 92.6756 41.5916C92.4255 41.6564 92.1533 41.7602 91.8597 41.9007L92.0884 42.3647C92.3333 42.2404 92.5578 42.1493 92.7618 42.0923C92.9658 42.0361 93.1689 42.0063 93.3695 42.0063C93.7237 42.0063 93.9925 42.0897 94.1777 42.2549C94.3629 42.4201 94.4551 42.6662 94.4551 42.9914V43.5295C94.0958 43.3447 93.6964 43.2528 93.2551 43.2528C92.755 43.2528 92.3572 43.3635 92.0636 43.5866C91.7701 43.8096 91.6224 44.1127 91.6224 44.4984C91.6224 44.7428 91.6864 44.9574 91.8144 45.1413C91.9425 45.3269 92.1191 45.4708 92.3453 45.5738C92.5715 45.6768 92.8335 45.7279 93.1331 45.7279C93.3891 45.7279 93.6272 45.6887 93.8474 45.6104ZM89.5672 45.6547L91.3297 41.5755H90.6853L89.2898 44.8731L87.8944 41.5755H87.2253L88.9962 45.6547H89.5672ZM81.932 44.9872C81.7058 44.8467 81.5266 44.656 81.3934 44.4176C81.2603 44.1792 81.1937 43.9127 81.1937 43.6189C81.1937 43.3201 81.2603 43.0536 81.3934 42.8177C81.5266 42.5819 81.7066 42.3928 81.932 42.2515C82.1573 42.1102 82.4091 42.0404 82.6864 42.0404C82.9638 42.0404 83.2156 42.1102 83.4418 42.2515C83.6671 42.3928 83.8472 42.5819 83.9803 42.8177C84.1135 43.0536 84.18 43.3209 84.18 43.6189C84.18 43.9127 84.1135 44.1783 83.9803 44.4176C83.8472 44.6568 83.6671 44.8467 83.4418 44.9872C83.2156 45.1285 82.9638 45.1992 82.6864 45.1992C82.4091 45.1992 82.1573 45.1285 81.932 44.9872ZM83.7473 45.4555C84.0631 45.2681 84.3132 45.0144 84.4984 44.6943C84.6836 44.3741 84.7758 44.0157 84.7758 43.6189C84.7758 43.223 84.6836 42.8645 84.4984 42.5444C84.3132 42.2243 84.0631 41.9697 83.7473 41.7824C83.4315 41.5951 83.0782 41.5014 82.6864 41.5014C82.2998 41.5014 81.9482 41.5951 81.6298 41.7824C81.3115 41.9697 81.0597 42.2243 80.8745 42.5444C80.6902 42.8645 80.5971 43.223 80.5971 43.6189C80.5971 44.0157 80.6893 44.3741 80.8745 44.6943C81.0597 45.0144 81.3115 45.2681 81.6298 45.4555C81.9482 45.6436 82.3007 45.7364 82.6864 45.7364C83.0782 45.7364 83.4324 45.6428 83.7473 45.4555ZM76.9613 44.9795C76.73 44.8382 76.5474 44.6474 76.4142 44.409C76.2811 44.1706 76.2145 43.9016 76.2145 43.6036C76.2145 43.3056 76.2811 43.0374 76.4142 42.8015C76.5474 42.5657 76.73 42.3801 76.9613 42.2438C77.1926 42.1085 77.4495 42.0412 77.732 42.0412C77.988 42.0412 78.2261 42.0914 78.4463 42.1919C78.6665 42.2924 78.8475 42.4286 78.9892 42.6023V44.6219C78.8475 44.8007 78.6674 44.9403 78.4463 45.0408C78.2253 45.1413 77.988 45.1915 77.732 45.1915C77.4495 45.1907 77.1926 45.12 76.9613 44.9795ZM78.9977 45.223V45.6547H79.5934V39.8173L78.9892 39.956V41.9748C78.804 41.8232 78.6 41.7083 78.3772 41.6291C78.1536 41.5508 77.9223 41.5108 77.6833 41.5108C77.2967 41.5108 76.9476 41.6044 76.6344 41.7917C76.3212 41.979 76.0737 42.2302 75.891 42.5453C75.7092 42.8594 75.6179 43.2153 75.6179 43.6112C75.6179 44.008 75.7092 44.3648 75.891 44.6824C76.0728 44.9999 76.3203 45.2528 76.6344 45.4401C76.9468 45.6274 77.2933 45.7211 77.6748 45.7211C78.198 45.7202 78.6384 45.5551 78.9977 45.223ZM70.0404 44.9872C69.8142 44.8467 69.635 44.656 69.5019 44.4176C69.3687 44.1792 69.3021 43.9127 69.3021 43.6189C69.3021 43.3201 69.3687 43.0536 69.5019 42.8177C69.635 42.5819 69.8142 42.3928 70.0404 42.2515C70.2666 42.1102 70.5184 42.0404 70.7957 42.0404C71.0731 42.0404 71.3249 42.1102 71.5502 42.2515C71.7755 42.3928 71.9556 42.5819 72.0888 42.8177C72.2219 43.0536 72.2885 43.3209 72.2885 43.6189C72.2885 43.9127 72.2219 44.1783 72.0888 44.4176C71.9556 44.6568 71.7755 44.8467 71.5502 44.9872C71.324 45.1285 71.0731 45.1992 70.7957 45.1992C70.5184 45.1992 70.2657 45.1285 70.0404 44.9872ZM71.8566 45.4555C72.1724 45.2681 72.4225 45.0144 72.6077 44.6943C72.792 44.3741 72.8851 44.0157 72.8851 43.6189C72.8851 43.223 72.7929 42.8645 72.6077 42.5444C72.4225 42.2243 72.1724 41.9697 71.8566 41.7824C71.5408 41.5951 71.1875 41.5014 70.7957 41.5014C70.4091 41.5014 70.0566 41.5951 69.7383 41.7824C69.4199 41.9697 69.169 42.2243 68.9838 42.5444C68.7986 42.8645 68.7064 43.223 68.7064 43.6189C68.7064 44.0157 68.7986 44.3741 68.9838 44.6943C69.169 45.0144 69.4208 45.2681 69.7383 45.4555C70.0566 45.6436 70.4091 45.7364 70.7957 45.7364C71.1866 45.7364 71.5408 45.6428 71.8566 45.4555ZM67.4083 45.5576C67.6797 45.4435 67.9246 45.2835 68.1423 45.0774L67.7667 44.6696C67.5926 44.8382 67.4066 44.9659 67.2077 45.0527C67.0088 45.1396 66.798 45.183 66.5753 45.183C66.2979 45.183 66.0444 45.1132 65.8165 44.9752C65.5878 44.8365 65.4069 44.6474 65.2737 44.409C65.1406 44.1706 65.074 43.9041 65.074 43.6104C65.074 43.3175 65.1406 43.0536 65.2737 42.8169C65.4069 42.5802 65.5869 42.3937 65.8123 42.2549C66.0384 42.117 66.2902 42.0472 66.5676 42.0472C66.7912 42.0472 67.0071 42.0923 67.2162 42.1817C67.4253 42.2711 67.6122 42.4031 67.7753 42.5768L68.1585 42.1366C67.946 41.9305 67.701 41.7713 67.4236 41.6598C67.1462 41.5491 66.8578 41.4929 66.5591 41.4929C66.1724 41.4929 65.8216 41.5882 65.5059 41.7781C65.1901 41.9688 64.94 42.2217 64.7548 42.5401C64.5696 42.8586 64.4774 43.2145 64.4774 43.6104C64.4774 44.0072 64.5696 44.3656 64.7548 44.6858C64.94 45.0059 65.1901 45.2596 65.5059 45.4478C65.8216 45.6351 66.1724 45.7279 66.5591 45.7279C66.8535 45.7279 67.136 45.6709 67.4083 45.5576ZM60.6256 45.6547V42.6508C60.7503 42.4507 60.9082 42.2958 61.0993 42.1868C61.2897 42.0778 61.5073 42.0242 61.7522 42.0242C62.1064 42.0242 62.3847 42.1289 62.5887 42.3375C62.7926 42.5461 62.8942 42.833 62.8942 43.1966V45.6555H63.4899V43.0748C63.4899 42.7607 63.4234 42.4848 63.2902 42.2481C63.1571 42.0114 62.9719 41.8275 62.7355 41.6947C62.499 41.5627 62.2251 41.4954 61.9153 41.4954C61.3767 41.4954 60.9466 41.6836 60.6256 42.0574V41.5772H60.0214V45.6564H60.6256V45.6547ZM56.2959 43.9084C56.4888 43.7645 56.7491 43.6921 57.0752 43.6921C57.315 43.6921 57.5301 43.7177 57.7204 43.7696C57.9107 43.8224 58.0908 43.9041 58.2589 44.0182V44.7837C58.0959 44.9454 57.9133 45.0655 57.7119 45.1413C57.5104 45.2179 57.2877 45.2562 57.0427 45.2562C56.738 45.2562 56.4888 45.1838 56.2959 45.04C56.103 44.8961 56.0066 44.7104 56.0066 44.4823C56.0066 44.2439 56.103 44.0523 56.2959 43.9084ZM57.6513 45.6104C57.8715 45.5312 58.0746 45.4137 58.2589 45.2562V45.6547H58.847V42.9105C58.847 42.455 58.7062 42.1051 58.4262 41.8607C58.1454 41.6172 57.7477 41.4937 57.2305 41.4937C56.9804 41.4937 56.7295 41.5269 56.4794 41.5916C56.2294 41.6564 55.9571 41.7602 55.6635 41.9007L55.8922 42.3647C56.1372 42.2404 56.3617 42.1493 56.5656 42.0923C56.7696 42.0361 56.9727 42.0063 57.1742 42.0063C57.5275 42.0063 57.7964 42.0897 57.9824 42.2549C58.1668 42.4201 58.2598 42.6662 58.2598 42.9914V43.5295C57.9013 43.3447 57.5011 43.2528 57.0598 43.2528C56.5597 43.2528 56.1619 43.3635 55.8683 43.5866C55.5747 43.8096 55.4271 44.1127 55.4271 44.4984C55.4271 44.7428 55.4911 44.9574 55.6191 45.1413C55.7463 45.3269 55.9238 45.4708 56.15 45.5738C56.3753 45.6768 56.6382 45.7279 56.9369 45.7279C57.1921 45.7279 57.4302 45.6887 57.6513 45.6104ZM51.7793 45.04C51.5557 44.9395 51.3739 44.8033 51.2322 44.6296V42.61C51.3739 42.4312 51.5548 42.2915 51.775 42.1911C51.9952 42.0906 52.2342 42.0404 52.4894 42.0404C52.7779 42.0404 53.0365 42.1093 53.2652 42.2472C53.494 42.386 53.674 42.5751 53.808 42.8135C53.942 43.0519 54.0078 43.3209 54.0078 43.6189C54.0078 43.9169 53.9412 44.1851 53.808 44.421C53.6749 44.6568 53.494 44.8441 53.2652 44.9829C53.0365 45.1208 52.7779 45.1898 52.4894 45.1898C52.2385 45.1907 52.0021 45.1404 51.7793 45.04ZM51.2237 45.6547V45.2477C51.408 45.4001 51.6137 45.5159 51.8399 45.5976C52.0661 45.6794 52.2982 45.7202 52.5381 45.7202C52.9298 45.7202 53.2806 45.6266 53.5904 45.4393C53.9002 45.252 54.1469 44.9991 54.3295 44.6815C54.5113 44.3639 54.6026 44.0072 54.6026 43.6104C54.6026 43.2145 54.5113 42.8586 54.3295 42.5444C54.1469 42.2294 53.9011 41.9782 53.5904 41.7909C53.2797 41.6036 52.9324 41.5099 52.5457 41.5099C52.0183 41.5099 51.5796 41.6751 51.2314 42.0063V39.8164L50.6271 39.9552V45.6538L51.2237 45.6547ZM43.8249 44.9872C43.5449 44.868 43.3 44.7011 43.0909 44.4865C42.8809 44.272 42.7179 44.0216 42.601 43.733C42.484 43.4452 42.4251 43.1336 42.4251 42.7964C42.4251 42.4652 42.4832 42.1578 42.601 41.8726C42.7187 41.5874 42.8809 41.3379 43.0909 41.1234C43.3 40.9088 43.5449 40.7419 43.8249 40.6227C44.1057 40.5027 44.4086 40.4431 44.7347 40.4431C45.0616 40.4431 45.3628 40.5027 45.6411 40.6227C45.9184 40.7419 46.1617 40.9088 46.3717 41.1234C46.5808 41.3379 46.7446 41.5874 46.8615 41.8726C46.9785 42.1578 47.0374 42.4678 47.0374 42.8049C47.0374 43.1361 46.9785 43.4452 46.8615 43.733C46.7446 44.0216 46.5808 44.272 46.3717 44.4865C46.1617 44.7011 45.9184 44.868 45.6411 44.9872C45.3637 45.1072 45.0616 45.1668 44.7347 45.1668C44.4086 45.1668 44.1057 45.1064 43.8249 44.9872ZM45.8818 45.521C46.2377 45.3712 46.5509 45.1626 46.8206 44.8944C47.0903 44.6262 47.2994 44.3128 47.4487 43.9578C47.5981 43.6019 47.6732 43.2179 47.6732 42.8049C47.6732 42.392 47.599 42.008 47.4487 41.6521C47.2994 41.2971 47.0894 40.9854 46.8206 40.7155C46.5517 40.4473 46.2385 40.2379 45.8818 40.0889C45.525 39.9399 45.1435 39.8649 44.7347 39.8649C44.3216 39.8649 43.9358 39.9399 43.5799 40.0889C43.224 40.2387 42.9108 40.4473 42.6411 40.7155C42.3714 40.9846 42.1623 41.2971 42.0121 41.6521C41.8627 42.008 41.7876 42.392 41.7876 42.8049C41.7876 43.2179 41.8619 43.6019 42.0121 43.9578C42.1623 44.3128 42.3714 44.6253 42.6411 44.8944C42.9099 45.1626 43.2232 45.372 43.5799 45.521C43.9358 45.67 44.3216 45.7449 44.7347 45.7449C45.1435 45.7441 45.5258 45.67 45.8818 45.521Z" fill="#054375"/>
<defs>
<linearGradient id="paint0_linear_308_151" x1="10.9963" y1="24.4837" x2="17.4303" y2="18.0342" gradientUnits="userSpaceOnUse">
<stop stop-color="#8CD133"/>
<stop offset="1" stop-color="#05BDFB"/>
</linearGradient>
</defs>
</svg>
