<svg width="130" height="60" viewBox="0 0 130 60" fill="none" xmlns="http://www.w3.org/2000/svg">
<rect width="130" height="60" fill="white"/>
<path d="M10.895 18.0184C10.6746 18.0368 10.4541 18.092 10.252 18.2207C9.77435 18.4965 9.49878 19.0114 9.49878 19.5262C9.49878 19.7469 9.55389 19.9859 9.66412 20.2066L17.0678 33.0964L19.4745 28.9408L23.3876 22.1741L20.981 18.0184H10.895Z" fill="#6EBB49"/>
<path d="M10.895 18.0184C10.6746 18.0368 10.4541 18.092 10.252 18.2207C9.77435 18.4965 9.49878 19.0114 9.49878 19.5262C9.49878 19.7469 9.55389 19.9859 9.66412 20.2066L17.0678 33.0964L19.4745 28.9408L23.3876 22.1741L20.981 18.0184H10.895Z" fill="#6EBB49"/>
<path d="M20.9995 18.0184L27.3009 28.9224H31.7285H32.0775L37.1297 20.1698C37.2215 19.9675 37.2766 19.7653 37.2766 19.5262C37.2766 18.7172 36.652 18.0736 35.862 18.0184H20.9995Z" fill="#00AE9C"/>
<path d="M31.7466 28.9223H19.4928L17.0862 33.078L22.1567 41.8306C22.2669 42.0145 22.4507 42.1616 22.6344 42.2903C22.8732 42.419 23.1304 42.4925 23.3876 42.4925C23.8836 42.4925 24.3613 42.2351 24.6552 41.8122L32.0957 28.9223H31.7466Z" fill="#B8D335"/>
<path d="M80.1005 21.935H80.0086C75.0483 21.9902 71.9803 25.7597 71.9803 30.4853C71.9803 35.0271 74.7727 38.8334 79.8433 38.8334H80.027C84.9689 38.7782 88.0553 35.4316 88.0553 30.2095C88.037 25.8516 85.3731 21.935 80.1005 21.935ZM80.0637 35.3765L80.0086 35.3581C77.8959 35.3581 76.5732 33.317 76.6099 30.3934C76.6099 27.5433 77.8959 25.4103 80.0086 25.4103C82.1397 25.4103 83.4073 27.5433 83.4073 30.375C83.4073 33.3354 82.1765 35.3765 80.0637 35.3765ZM116.549 29.7314V29.6946C118.479 28.9591 119.213 27.6352 119.213 26.2745C119.213 24.6748 118.295 23.498 117.009 22.8912C115.925 22.3579 114.749 22.1557 113.004 22.1005C112.691 22.0821 112.361 22.0821 111.993 22.0821C109.991 22.0821 107.823 22.2476 106.831 22.4499V38.484C107.713 38.6495 109.164 38.7782 111.148 38.7782C111.81 38.7782 112.416 38.7598 113.004 38.7231C115.392 38.5576 116.917 38.0611 117.909 37.3256C119.011 36.4981 119.746 35.2845 119.746 33.74C119.746 31.7725 118.534 30.2831 116.549 29.7314ZM111.167 25.3367C111.461 25.2816 111.883 25.2448 112.6 25.2448C112.728 25.2448 112.875 25.2632 112.985 25.2632C114.198 25.3551 114.804 25.9435 114.804 26.7894C114.804 27.6352 114.216 28.242 112.985 28.4259C112.691 28.4627 112.379 28.4994 112.03 28.4994H111.167V25.3367ZM113.004 35.5236C112.82 35.542 112.636 35.5604 112.453 35.5604C111.902 35.5604 111.497 35.5604 111.185 35.5052V31.607H112.232C112.508 31.607 112.765 31.607 113.004 31.6438C114.253 31.8092 115.135 32.3609 115.135 33.5193C115.135 34.7881 114.198 35.3949 113.004 35.5236ZM105.508 30.2279C105.508 25.8516 102.844 21.935 97.5718 21.935H97.4799C92.5196 21.9902 89.4516 25.7597 89.4516 30.4853C89.4516 35.0271 92.244 38.8334 97.3146 38.8334H97.4799C102.422 38.7782 105.508 35.4316 105.508 30.2279ZM97.535 35.3765L97.4799 35.3581C95.3672 35.3581 94.0628 33.317 94.0812 30.3934C94.0812 27.5433 95.3672 25.4103 97.4799 25.4103C99.611 25.4103 100.879 27.5433 100.879 30.375C100.879 33.3354 99.6477 35.3765 97.535 35.3765ZM70.7127 34.7145C70.0329 34.9903 68.8388 35.1742 67.7916 35.1742C64.7787 35.1742 63.015 33.317 63.015 30.375C63.015 27.0468 65.1828 25.5574 67.6997 25.5574C69.0041 25.5574 70.3636 25.9435 70.731 26.1458C71.5026 24.3806 71.3189 21.9718 67.4976 21.9718C62.6108 21.9718 58.3854 24.9138 58.3854 30.6508C58.3854 35.0087 61.086 38.815 67.2037 38.815C69.1511 38.815 70.6943 38.4472 71.3005 38.1346L70.7127 34.7145ZM51.937 22.2108V38.576H56.3278V24.8954C56.3094 22.8176 55.2071 22.2108 51.937 22.2108ZM45.5437 28.6649C43.4677 27.8926 42.6043 27.5801 42.6043 26.7526C42.6043 26.0171 43.3391 25.539 44.6803 25.539C46.3153 25.539 47.9136 26.1458 48.226 26.3113C48.8506 24.638 49.1996 21.9534 44.7354 21.9534C40.6018 21.9534 38.1584 24.1967 38.1584 27.0836C38.1584 29.5108 40.0139 31.0186 42.7696 32.0115C44.6251 32.6367 45.3416 33.078 45.3416 33.8871C45.3416 34.7145 44.6068 35.211 43.1003 35.211C41.4653 35.211 39.8669 34.7145 38.8565 34.1813L38.0298 37.8037C38.9484 38.3001 40.859 38.7966 42.8247 38.7966C47.6013 38.7966 49.7875 36.3878 49.7875 33.5745C49.7875 31.3128 48.4832 29.7498 45.5437 28.6649Z" fill="#003B43"/>
<path d="M37.1111 20.1514C37.203 19.9491 37.2581 19.7285 37.2581 19.4894C37.2581 18.9378 36.9458 18.4413 36.5049 18.1839C36.3028 18.0736 36.0823 18 35.8435 18L20.981 18.0368L23.3876 22.1924L27.3007 28.9407L32.0957 28.904L37.1111 20.1514Z" fill="#00AE9C"/>
<path d="M22.1383 41.8306C22.2669 42.0145 22.4323 42.1616 22.6344 42.2903C23.112 42.5661 23.6815 42.5477 24.1408 42.2903C24.3429 42.1799 24.5083 42.0145 24.6369 41.8122L32.0773 28.9407H27.2824L19.4745 28.9223L17.0862 33.078L22.1383 41.8306Z" fill="#B8D335"/>
</svg>
