<svg width="60" height="60" viewBox="0 0 60 60" fill="none" xmlns="http://www.w3.org/2000/svg">
<rect width="60" height="60" fill="#36264D"/>
<g clip-path="url(#clip0_307_44)">
<path d="M51.2319 26.9087C49.969 26.9087 49.1045 27.4974 48.5754 28.6748H48.4673C48.4673 28.1899 48.4673 27.6359 48.4673 26.9087H46.1636V35.5659H48.4673V28.9345H51.9998V26.9087H51.2319Z" fill="white"/>
<path d="M11.8464 35.3408H11.744L9.38908 26.9434H7L9.49147 35.6005H14.099L16.6246 26.9434H14.2355L11.8464 35.3408Z" fill="white"/>
<path d="M21.2831 26.8047C18.5698 26.8047 16.8804 28.5188 16.8804 31.2718C16.8804 34.0248 18.5698 35.7389 21.2831 35.7389C23.9964 35.7389 25.6858 34.0248 25.6858 31.2718C25.6858 28.5188 23.9964 26.8047 21.2831 26.8047ZM21.2831 33.8343C20.0032 33.8343 19.2694 32.8993 19.2694 31.2718C19.2694 29.6442 20.0032 28.7093 21.2831 28.7093C22.563 28.7093 23.2968 29.6442 23.2968 31.2718C23.2968 32.8993 22.563 33.8343 21.2831 33.8343Z" fill="white"/>
<path d="M31.4879 26.8338C32.7507 26.6433 33.5357 25.8007 33.5357 24.5194V24H31.2319V33.2113C31.2319 34.7349 32.0681 35.6006 33.5357 35.6006H35.7541V33.696H33.5357V28.7961H35.7541V26.9434C34.4913 26.9434 33.2456 26.9434 31.4879 26.9434V26.8338Z" fill="white"/>
<path d="M29.355 26.9434H27.0513V35.6005H29.355V26.9434Z" fill="white"/>
<path d="M40.7541 26.8047C38.1431 26.8047 36.522 28.5188 36.522 31.2718C36.522 34.0248 38.1431 35.7389 40.7541 35.7389C42.9555 35.7389 44.4913 34.5096 44.7472 32.5184H42.4094C42.2558 33.3495 41.6414 33.8343 40.7541 33.8343C39.6932 33.8343 39.0481 33.0609 38.931 31.7047H44.7472C44.7813 31.5835 44.7983 31.2545 44.7983 30.9255C44.7983 28.3803 43.2456 26.8047 40.7541 26.8047ZM38.9258 30.8389C39.0294 29.4769 39.6773 28.7093 40.7541 28.7093C41.8121 28.7093 42.4094 29.4884 42.4094 30.8389H38.9258Z" fill="white"/>
<path d="M29.355 24H27.0513V26.1297H29.355V24Z" fill="white"/>
</g>
<defs>
<clipPath id="clip0_307_44">
<rect width="45" height="11.7391" fill="white" transform="translate(7 24)"/>
</clipPath>
</defs>
</svg>
