<svg width="60" height="60" viewBox="0 0 60 60" fill="none" xmlns="http://www.w3.org/2000/svg">
<rect width="60" height="60" fill="white"/>
<path d="M26.6893 38.2964H31.908L33.1546 37.0415H26.6893C24.6076 37.0415 22.9206 35.3433 22.9164 33.2435V21.9541H25.9081L27.1546 20.6992H22.9164V17.8591C22.9164 17.8591 22.9164 17.8256 22.9164 17.8089H21.6699C21.6699 17.8089 21.6699 17.8424 21.6699 17.8591V33.2477C21.6741 36.0376 23.9178 38.2922 26.6893 38.2964Z" fill="#FFB71B"/>
<path d="M41.9763 12.8063H26.6898C24.417 12.8063 22.4308 14.3456 21.8408 16.55H23.1455C23.694 15.0525 25.1067 14.0612 26.6898 14.057H41.9763C44.058 14.057 45.745 15.7552 45.7491 17.855V33.2478C45.7491 35.3434 44.058 37.0416 41.9763 37.0458H39.155V30.9974V25.748C39.155 25.4343 39.1259 25.1206 39.0678 24.811C38.9847 24.3509 38.8351 23.9034 38.6232 23.4851C38.137 22.5105 37.3517 21.7241 36.3877 21.2347C35.9722 21.0214 35.5276 20.8708 35.0706 20.783C34.7631 20.7244 34.4515 20.6951 34.1398 20.6951H28.9294L27.6829 21.95L24.2425 25.4134V27.1869L29.4446 21.95H33.9155L24.2383 31.6918V33.2478C24.2383 33.3189 24.2425 33.3858 24.2508 33.4569L35.4487 22.1842C36.4833 22.5732 37.2977 23.3931 37.6841 24.4346L26.4903 35.7073C26.5568 35.7073 26.6275 35.7198 26.6981 35.7198H28.2438L37.921 25.978V30.4788L32.7188 35.7198H34.4764L37.921 32.2523V37.0458H34.9293L33.6828 38.3006H37.921V41.1408C37.921 43.2364 36.2298 44.9346 34.1482 44.9388H18.8533C16.7716 44.9388 15.0847 43.2364 15.0805 41.1408V25.748C15.0805 23.6524 16.7716 21.9542 18.8533 21.95H20.4281V20.6951H18.8533C16.0819 20.6951 13.8381 22.958 13.834 25.748V41.1408C13.834 43.9307 16.0819 46.1894 18.8533 46.1936H34.1398C36.9113 46.1936 39.155 43.9307 39.1592 41.1408V38.3006H41.9805C44.7519 38.3006 46.9957 36.0377 46.9998 33.252V17.8592C46.9998 15.0692 44.7478 12.8063 41.9763 12.8063Z" fill="#FFB71B"/>
</svg>
