<svg width="130" height="60" viewBox="0 0 130 60" fill="none" xmlns="http://www.w3.org/2000/svg">
<rect width="130" height="60" fill="white"/>
<g clip-path="url(#clip0_476_758)">
<path d="M48.5312 35.6639C48.024 36.0272 47.4111 36.212 46.7888 36.1901C45.0901 36.1901 44.1194 35.2849 44.1194 33.5591V29.8038H42.8438V28.3412H44.1194V26.559H45.9332V28.3412H48.0085V29.8038H45.9332V33.5153C45.9332 34.2733 46.3097 34.6836 47.0066 34.6836C47.3707 34.6929 47.7284 34.5802 48.024 34.3609L48.5312 35.6608V35.6639Z" fill="black"/>
<path d="M56.9902 32.773H50.9107C51.1285 33.913 52.0712 34.6428 53.4215 34.6428C54.2118 34.6741 54.9772 34.3672 55.5248 33.794L56.4955 34.9184C55.7985 35.7516 54.7096 36.19 53.3749 36.19C50.7769 36.19 49.0938 34.5081 49.0938 32.1873C49.0938 29.8664 50.7925 28.2002 53.098 28.2002C55.4034 28.2002 57.015 29.7913 57.015 32.2311C57.015 32.3783 56.9995 32.5976 56.987 32.773H56.9902ZM50.8952 31.5609H55.2914C55.1732 30.4459 54.2149 29.6127 53.1011 29.6629C51.9872 29.6221 51.029 30.4459 50.8952 31.5609Z" fill="black"/>
<path d="M66.1027 31.6173V36.0867H64.2888V31.8491C64.2888 30.4616 63.6074 29.7882 62.4469 29.7882C61.1557 29.7882 60.2846 30.5775 60.2846 32.1403V36.0836H58.4707V28.2817H60.1975V29.2902C60.7917 28.5729 61.7344 28.194 62.8669 28.194C64.7244 28.194 66.1027 29.262 66.1027 31.611V31.6173Z" fill="black"/>
<path d="M72.7812 35.6639C72.274 36.0272 71.6611 36.212 71.0388 36.1901C69.3401 36.1901 68.3694 35.2849 68.3694 33.5591V29.8038H67.0938V28.3412H68.3694V26.559H70.1832V28.3412H72.2585V29.8038H70.1832V33.5153C70.1832 34.2733 70.5597 34.6836 71.2566 34.6836C71.6207 34.6929 71.9785 34.5802 72.274 34.3609L72.7812 35.6608V35.6639Z" fill="black"/>
<path d="M73.3457 32.1873C73.3457 29.8508 75.088 28.2002 77.4681 28.2002C79.8483 28.2002 81.603 29.8508 81.603 32.1873C81.603 34.5238 79.8763 36.19 77.4681 36.19C75.088 36.19 73.3457 34.5238 73.3457 32.1873ZM79.7736 32.1873C79.7736 30.6964 78.7873 29.7474 77.465 29.7474C76.1427 29.7474 75.172 30.6964 75.172 32.1873C75.172 33.6781 76.1583 34.6272 77.465 34.6272C78.7718 34.6272 79.7736 33.6781 79.7736 32.1873Z" fill="black"/>
<path d="M82.1711 35.3131L82.868 33.9256C83.68 34.4267 84.6134 34.6961 85.5686 34.6992C86.7166 34.6992 87.1927 34.3797 87.1927 33.8379C87.1927 32.347 82.4044 33.7502 82.4044 30.6401C82.4044 29.1649 83.7267 28.2002 85.8144 28.2002C86.8224 28.1814 87.818 28.4132 88.7172 28.8736L88.0203 30.2611C87.3482 29.8633 86.5798 29.6629 85.7988 29.6754C84.6974 29.6754 84.1716 30.0419 84.1716 30.5524C84.1716 32.1309 88.9599 30.7278 88.9599 33.7815C88.9599 35.2442 87.6251 36.1932 85.4472 36.1932C84.1561 36.1932 82.8649 35.8111 82.168 35.3162L82.1711 35.3131Z" fill="black"/>
<path d="M90.6293 32.275C90.6293 29.998 92.2409 28.4038 94.4593 28.4038C95.6633 28.4038 96.7087 28.8705 97.3341 29.807L96.7958 30.2016C96.2545 29.453 95.3771 29.0271 94.4593 29.0615C92.6734 29.0615 91.3698 30.3457 91.3698 32.275C91.3698 34.2044 92.6765 35.4885 94.4593 35.4885C95.3771 35.523 96.2545 35.097 96.7958 34.3484L97.3341 34.7431C96.6714 35.6702 95.5918 36.1963 94.4593 36.1462C92.4183 36.2214 90.7008 34.6147 90.6293 32.5569C90.6262 32.4629 90.6262 32.369 90.6293 32.2719V32.275Z" fill="black"/>
<path d="M104.404 31.254V36.0898H103.707V34.7305C103.228 35.6075 102.301 36.1462 100.979 36.1462C99.2798 36.1462 98.25 35.2692 98.25 33.9694C98.25 32.8137 98.9749 31.8365 101.081 31.8365H103.679V31.2226C103.679 29.807 102.911 29.0459 101.43 29.0459C100.471 29.0365 99.5412 29.3779 98.8163 30.0105L98.4522 29.4844C99.3016 28.7702 100.378 28.385 101.486 28.4038C103.359 28.4038 104.404 29.3685 104.404 31.254ZM103.679 33.841V32.4097H101.097C99.5287 32.4097 98.978 33.0674 98.978 33.9444C98.978 34.9372 99.7465 35.5511 101.081 35.5511C102.357 35.5511 103.244 34.9372 103.679 33.841Z" fill="black"/>
<path d="M113.778 32.275C113.778 34.5677 112.167 36.1462 110.032 36.1462C108.754 36.1807 107.562 35.4853 106.955 34.3484V38.9212H106.23V28.4633H106.927V30.2611C107.522 29.0928 108.729 28.3693 110.032 28.4069C112.167 28.4069 113.778 30.0011 113.778 32.2781V32.275ZM113.053 32.275C113.053 30.3613 111.734 29.0615 109.992 29.0615C108.25 29.0615 106.946 30.3613 106.946 32.275C106.946 34.1887 108.253 35.4885 109.992 35.4885C111.731 35.4885 113.053 34.1887 113.053 32.275Z" fill="black"/>
<path d="M20.6256 36.0867H24.5334L25.4667 35.1471H20.6256C19.0669 35.1471 17.8037 33.8755 17.8006 32.3032V23.8498H20.0407L20.9741 22.9102H17.8006V20.7835C17.8006 20.7835 17.8006 20.7584 17.8006 20.7459H16.8672C16.8672 20.7459 16.8672 20.771 16.8672 20.7835V32.3063C16.8703 34.3954 18.5504 36.0835 20.6256 36.0867Z" fill="#FFB71B"/>
<path d="M32.0726 17H20.6263C18.9244 17 17.4372 18.1526 16.9954 19.8032H17.9724C18.383 18.6819 19.4409 17.9396 20.6263 17.9365H32.0726C33.6314 17.9365 34.8946 19.2081 34.8977 20.7804V32.3063C34.8977 33.8755 33.6314 35.1471 32.0726 35.1502H29.9601V30.6213V26.6906C29.9601 26.4557 29.9383 26.2207 29.8948 25.989C29.8325 25.6445 29.7205 25.3093 29.5619 24.9961C29.1978 24.2663 28.6098 23.6775 27.888 23.3111C27.5769 23.1513 27.244 23.0386 26.9017 22.9728C26.6715 22.929 26.4381 22.907 26.2048 22.907H22.3033L21.3699 23.8467L18.7937 26.44V27.768L22.6891 23.8467H26.0368L18.7906 31.1412V32.3063C18.7906 32.3596 18.7937 32.4097 18.8 32.4629L27.1848 24.022C27.9595 24.3133 28.5694 24.9272 28.8587 25.7071L20.4769 34.148C20.5267 34.148 20.5796 34.1574 20.6325 34.1574H21.7899L29.036 26.8628V30.2329L25.1407 34.1574H26.4568L29.036 31.5609V35.1502H26.7959L25.8625 36.0898H29.036V38.2165C29.036 39.7856 27.7698 41.0573 26.211 41.0604H14.7584C13.1997 41.0604 11.9365 39.7856 11.9334 38.2165V26.6906C11.9334 25.1214 13.1997 23.8498 14.7584 23.8467H15.9376V22.907H14.7584C12.6832 22.907 11.0031 24.6015 11 26.6906V38.2165C11 40.3056 12.6832 41.9969 14.7584 42H26.2048C28.28 42 29.9601 40.3056 29.9632 38.2165V36.0898H32.0758C34.151 36.0898 35.8311 34.3954 35.8342 32.3094V20.7835C35.8342 18.6944 34.1479 17 32.0726 17Z" fill="#FFB71B"/>
</g>
<defs>
<clipPath id="clip0_476_758">
<rect width="102.778" height="25" fill="white" transform="translate(11 17)"/>
</clipPath>
</defs>
</svg>
