<svg width="60" height="60" viewBox="0 0 60 60" fill="none" xmlns="http://www.w3.org/2000/svg">
<rect width="60" height="60" fill="black"/>
<path d="M26.6912 38.2964H31.91L33.1565 37.0416H26.6912C24.6095 37.0416 22.9226 35.3433 22.9184 33.2436V21.9541H25.9101L27.1566 20.6993H22.9184V17.8592C22.9184 17.8592 22.9184 17.8257 22.9184 17.809H21.6719C21.6719 17.809 21.6719 17.8424 21.6719 17.8592V33.2478C21.676 36.0377 23.9198 38.2922 26.6912 38.2964Z" fill="#FFB71B"/>
<path d="M41.9783 12.8064H26.6917C24.4189 12.8064 22.4328 14.3457 21.8428 16.55H23.1475C23.6959 15.0526 25.1087 14.0612 26.6917 14.0571H41.9783C44.06 14.0571 45.7469 15.7553 45.7511 17.8551V33.2478C45.7511 35.3434 44.06 37.0417 41.9783 37.0458H39.157V30.9975V25.748C39.157 25.4343 39.1279 25.1206 39.0697 24.8111C38.9866 24.351 38.837 23.9034 38.6251 23.4851C38.139 22.5105 37.3537 21.7242 36.3897 21.2348C35.9742 21.0215 35.5296 20.8709 35.0725 20.783C34.7651 20.7245 34.4534 20.6952 34.1418 20.6952H28.9313L27.6848 21.95L24.2444 25.4134V27.1869L29.4466 21.95H33.9174L24.2403 31.6918V33.2478C24.2403 33.319 24.2444 33.3859 24.2527 33.457L35.4506 22.1843C36.4853 22.5733 37.2997 23.3931 37.6861 24.4346L26.4923 35.7073C26.5588 35.7073 26.6294 35.7199 26.7001 35.7199H28.2457L37.9229 25.9781V30.4788L32.7208 35.7199H34.4784L37.9229 32.2523V37.0458H34.9313L33.6847 38.3007H37.9229V41.1408C37.9229 43.2364 36.2318 44.9346 34.1501 44.9388H18.8553C16.7736 44.9388 15.0866 43.2364 15.0825 41.1408V25.748C15.0825 23.6525 16.7736 21.9542 18.8553 21.95H20.43V20.6952H18.8553C16.0838 20.6952 13.8401 22.9581 13.8359 25.748V41.1408C13.8359 43.9308 16.0838 46.1895 18.8553 46.1937H34.1418C36.9132 46.1937 39.157 43.9308 39.1611 41.1408V38.3007H41.9824C44.7539 38.3007 46.9976 36.0378 47.0018 33.252V17.8592C47.0018 15.0693 44.7497 12.8064 41.9783 12.8064Z" fill="#FFB71B"/>
</svg>
