<svg width="60" height="60" viewBox="0 0 60 60" fill="none" xmlns="http://www.w3.org/2000/svg">
<rect width="60" height="60" fill="white"/>
<path d="M44.9078 27V31.8613C44.9078 32.1015 45.0334 32.2418 45.163 32.3302C45.3019 32.4234 45.5057 32.47 45.7804 32.47C45.9542 32.47 46.1838 32.4125 46.1838 32.4125C46.1838 32.4125 46.1838 31.9765 46.1838 31.9765C46.1149 31.9808 46.0539 31.9847 45.9863 31.9847C45.5773 31.9847 45.517 31.8251 45.517 31.6475C45.517 31.6475 45.517 27 45.517 27L44.9078 27ZM32.0401 27.0494C31.5809 27.0494 31.1657 27.1933 30.871 27.4524C30.5848 27.7052 30.4264 28.0541 30.4264 28.4313C30.4265 28.8466 30.5947 29.1712 30.9451 29.4266C31.2542 29.652 31.6629 29.7976 32.0565 29.9365C32.7407 30.1797 33.382 30.4016 33.382 31.0223C33.382 31.2984 33.288 31.535 33.1103 31.6968C32.9149 31.8748 32.6338 31.96 32.2623 31.96C31.6112 31.96 31.1372 31.5998 30.871 30.8989C30.871 30.8989 30.2865 31.0552 30.2865 31.0552C30.4124 31.3395 30.6265 31.7497 30.9369 32.0259C31.2771 32.3309 31.6995 32.4783 32.2294 32.4783C32.8569 32.4783 33.3332 32.3165 33.6454 31.9929C33.9691 31.6561 34.0406 31.225 34.0406 30.9236C34.0406 30.4918 33.8579 30.1583 33.489 29.8954C33.167 29.6646 32.7502 29.5158 32.3447 29.3772C31.6839 29.1514 31.0533 28.9366 31.0604 28.3819C31.0627 28.1233 31.1525 27.9219 31.3156 27.7814C31.4818 27.6387 31.7187 27.5676 32.0236 27.5676C32.3438 27.5676 32.6294 27.657 32.8469 27.8308C33.0469 27.9891 33.1924 28.224 33.2585 28.4888C33.2585 28.4888 33.8266 28.4148 33.8266 28.4148C33.5773 27.5659 32.9682 27.0494 32.0401 27.0494ZM6 27.1234V32.4042H6.60922V27.5758L6.62569 27.5922L8.07464 32.4042H8.54391L10.0011 27.5922L10.0093 27.5758V32.4042H10.6185V27.1234H9.60593L8.31339 31.3678V31.3843L8.30516 31.3678L7.01262 27.1234H6ZM35.0038 27.2303V28.4971H34.4193V28.9824C34.4193 28.9824 35.0038 28.9824 35.0038 28.9824C35.0038 28.9824 35.0038 31.6967 35.0038 31.8613C35.0038 32.1015 35.1133 32.2418 35.2426 32.3302C35.3817 32.4234 35.585 32.47 35.86 32.47C36.034 32.47 36.2717 32.4125 36.2717 32.4125C36.2717 32.4125 36.2717 31.9765 36.2717 31.9765C36.204 31.9808 36.1332 31.9847 36.0658 31.9847C35.6564 31.9847 35.613 31.8251 35.6131 31.6475C35.6131 31.6475 35.613 28.9824 35.6131 28.9824H36.2717V28.4971H35.6131V27.2303H35.0038ZM13.0884 28.423C12.5754 28.423 12.1406 28.6295 11.837 29.0153C11.5552 29.3753 11.4007 29.8838 11.4007 30.4465C11.4007 31.0098 11.5552 31.5174 11.837 31.8778C12.1406 32.2645 12.5754 32.47 13.0884 32.47C13.6035 32.47 14.0369 32.2645 14.3397 31.8778C14.6215 31.5174 14.7761 31.0098 14.7761 30.4465C14.7761 29.8838 14.6215 29.3753 14.3397 29.0153C14.0369 28.6295 13.6035 28.423 13.0884 28.423ZM48.2338 28.4313C47.9734 28.4313 47.7313 28.4791 47.5258 28.5711C47.3247 28.6617 47.146 28.798 47.0071 28.9741C46.7308 29.3198 46.5708 29.833 46.5708 30.4548C46.5708 31.1467 46.7698 31.6747 47.1306 32.0259C47.5112 32.397 47.9962 32.47 48.3326 32.47C49.2067 32.47 49.6355 31.9975 49.8145 31.5652C49.8145 31.5652 49.3287 31.3267 49.3287 31.3267C49.2106 31.5899 48.9393 31.9929 48.3326 31.9929C47.9858 31.9929 47.7022 31.8511 47.5011 31.5899C47.3068 31.3371 47.1975 30.9872 47.1965 30.5699C47.1965 30.5699 49.8639 30.5699 49.8639 30.5699C49.8639 30.5699 49.8639 30.1998 49.8639 30.1998C49.8639 29.5604 49.6934 29.0836 49.3781 28.7932C49.1097 28.5465 48.7331 28.4313 48.2338 28.4313ZM19.3288 28.4395C18.6414 28.4395 17.6657 28.9016 17.6657 30.4548C17.6657 31.9628 18.6384 32.47 19.2958 32.47C19.6795 32.47 20.0282 32.2576 20.2673 31.9518C20.2673 31.9518 20.3002 31.9354 20.3002 31.9354C20.3002 31.9354 20.3002 32.6757 20.3002 32.6757C20.3002 33.1949 19.8504 33.5147 19.3699 33.5147C18.9027 33.5147 18.4891 33.4256 18.1515 33.2679C18.1515 33.2679 18.1515 33.7944 18.1515 33.7944C18.4358 33.9161 18.8986 33.9918 19.2958 33.9918C20.3773 33.9918 20.893 33.3971 20.893 32.5358C20.893 32.5358 20.893 28.5135 20.893 28.5135H20.4402L20.3084 28.9248C20.0849 28.6338 19.7923 28.4395 19.3288 28.4395ZM23.264 28.4395C22.3987 28.4395 21.9891 28.9573 21.815 29.2785L22.3008 29.5335C22.3689 29.35 22.6143 28.9248 23.2722 28.9248C23.791 28.9248 24.0543 29.1535 24.0543 29.6075V29.7474C24.0543 29.7474 24.0586 29.7899 24.0461 29.8049C24.0268 29.8292 23.9722 29.8491 23.8403 29.8625C23.114 29.9435 22.6312 30.0627 22.2761 30.2902C21.8905 30.5378 21.6504 30.8845 21.6504 31.3596C21.6504 31.6971 21.8139 31.9852 22.0291 32.1904C22.2291 32.3793 22.5017 32.4777 22.803 32.4865C23.4442 32.507 23.8663 32.2404 24.0708 31.9271C24.0867 32.1424 24.1639 32.2653 24.3342 32.3549C24.4943 32.4403 24.7567 32.4233 24.8694 32.396C24.8694 32.396 24.8694 31.9847 24.8694 31.9847C24.7336 31.9779 24.6471 31.9134 24.6471 31.7462C24.6471 31.7462 24.6471 29.8625 24.6471 29.8625C24.6471 29.8625 24.6471 29.6157 24.6471 29.6157C24.6471 29.227 24.4944 28.9082 24.2025 28.7027C23.9619 28.5321 23.6256 28.4395 23.264 28.4395ZM27.4544 28.4395C27.0579 28.4395 26.6522 28.6447 26.3101 29.0317V28.5135H25.7009V32.4125H26.3101C26.3101 32.4125 26.3101 29.517 26.3101 29.517C26.5174 29.2957 26.982 28.9248 27.405 28.9248C27.8291 28.9248 28.0143 29.1326 28.0143 29.5993C28.0143 29.5993 28.0143 32.4125 28.0143 32.4125H28.6235V29.5828C28.6235 28.7404 28.0239 28.4395 27.4544 28.4395ZM38.478 28.4395C37.6133 28.4395 37.2037 28.9573 37.0291 29.2785C37.0291 29.2785 37.5148 29.5335 37.5148 29.5335C37.5832 29.35 37.8283 28.9248 38.4863 28.9248C39.005 28.9248 39.2684 29.1535 39.2684 29.6075C39.2684 29.6075 39.2684 29.7474 39.2684 29.7474C39.2684 29.7474 39.2641 29.7899 39.2519 29.8049C39.2329 29.8292 39.1867 29.8491 39.0543 29.8625C38.328 29.9433 37.8452 30.0627 37.4901 30.2902C37.1048 30.5378 36.8644 30.8845 36.8644 31.3596C36.8644 31.6971 37.0277 31.985 37.2431 32.1904C37.4432 32.3793 37.716 32.4777 38.017 32.4865C38.6577 32.507 39.0804 32.2404 39.2848 31.9271C39.301 32.1423 39.3776 32.2653 39.5483 32.3549C39.708 32.4403 39.9705 32.4233 40.0834 32.396C40.0834 32.396 40.0834 31.9847 40.0834 31.9847C39.9479 31.9779 39.8611 31.9134 39.8611 31.7462V29.8625V29.6157C39.8611 29.227 39.7005 28.9082 39.4083 28.7027C39.1674 28.5321 38.8394 28.4395 38.478 28.4395ZM42.6685 28.4395C42.2709 28.4395 41.8662 28.6447 41.5241 29.0317V28.5135H40.9149V32.4125H41.5241C41.5241 32.4125 41.5241 29.517 41.5241 29.517C41.7317 29.2956 42.1956 28.9248 42.6191 28.9248C43.0423 28.9248 43.2283 29.1326 43.2283 29.5993V32.4125H43.8375V29.5828C43.8375 28.7404 43.2379 28.4395 42.6685 28.4395ZM17.4352 28.4559C16.8171 28.4559 16.4508 28.6954 16.1345 29.262V29.2209V28.5135H15.5252V32.4042H16.1345C16.1345 32.4042 16.1345 30.1998 16.1345 30.1998C16.2849 29.3989 16.7092 29.0235 17.4352 29.0235V28.4559ZM50.2755 28.5053L51.6339 32.3713C51.6339 32.3713 51.6339 32.4042 51.6339 32.4042C51.5527 32.7748 51.318 33.2321 51.107 33.3749C50.9207 33.5012 50.7189 33.5147 50.5636 33.5147C50.4887 33.5147 50.3339 33.4894 50.2673 33.4736C50.2673 33.4736 50.2673 33.9424 50.2673 33.9424C50.3515 33.9631 50.5461 34 50.6707 34C50.961 34 51.2058 33.9274 51.4116 33.7779C51.658 33.599 51.9309 33.1326 52.062 32.7333C52.062 32.7333 53.4204 28.5053 53.4204 28.5053H52.8276L51.9385 31.4994L51.9303 31.5652L51.9138 31.4994L50.8683 28.5053H50.2755ZM13.0884 28.9083C13.7442 28.9083 14.1339 29.4835 14.1339 30.4465C14.1339 31.4098 13.7442 31.9847 13.0884 31.9847C12.4336 31.9847 12.0428 31.4098 12.0428 30.4465C12.0428 29.4835 12.4336 28.9083 13.0884 28.9083ZM19.3699 28.9166C19.7136 28.9166 20.0154 29.065 20.3002 29.4183C20.3002 29.4183 20.3002 31.2773 20.3002 31.2773C20.1425 31.7257 19.691 31.9847 19.3699 31.9847C18.7417 31.9847 18.3079 31.5939 18.3079 30.4219C18.3079 29.4364 18.6972 28.9166 19.3699 28.9166ZM48.2503 28.9166C48.9482 28.9166 49.2603 29.2853 49.2629 30.0846C49.2629 30.0846 47.2129 30.0846 47.2129 30.0846C47.266 29.286 47.6009 28.9166 48.2503 28.9166ZM24.0708 30.2902C24.0708 30.2902 24.0708 31.2773 24.0708 31.2773C24.0427 31.6181 23.4053 32.0305 22.8853 32.0012C22.5984 31.9855 22.3219 31.7546 22.2925 31.376C22.2449 30.7434 22.7207 30.4807 23.7826 30.3643C23.8565 30.3575 23.9995 30.3313 24.0708 30.2902ZM39.2848 30.2902V31.2773C39.2567 31.618 38.6194 32.0305 38.0993 32.0012C37.8129 31.9853 37.5352 31.7545 37.5066 31.376C37.4582 30.7434 37.9345 30.4807 38.9967 30.3643C39.0701 30.3575 39.2141 30.3313 39.2848 30.2902Z" fill="black"/>
</svg>
