<svg width="130" height="60" viewBox="0 0 130 60" fill="none" xmlns="http://www.w3.org/2000/svg">
<rect width="130" height="60" fill="white"/>
<path fill-rule="evenodd" clip-rule="evenodd" d="M38.2747 26.0335C38.8206 26.0335 39.263 26.4711 39.263 27.0108V37.5178C39.263 37.8668 39.0746 38.1893 38.7689 38.3642L25.6238 45.8693C25.4711 45.9566 25.3002 46 25.1297 46C24.9592 46 24.7889 45.9566 24.6364 45.8696L11.495 38.3815C11.1889 38.2069 11 37.8842 11 37.5347V27.0327C11 26.493 11.4427 26.0554 11.9887 26.0554C12.5344 26.0554 12.9766 26.493 12.9766 27.0327V36.97L25.1292 43.8942L37.2864 36.9533V27.0108C37.2864 26.4711 37.7288 26.0335 38.2747 26.0335ZM61.3766 22.988C63.254 22.988 64.7814 24.4984 64.7814 26.355V28.486C64.7814 30.0642 63.6758 31.8032 62.1906 32.1656L64.639 36.8092C64.9469 37.3661 64.7381 38.0653 64.176 38.3718C63.5038 38.7384 62.8292 38.3703 62.596 37.9139L59.5932 32.2669H57.22V37.3036C57.22 37.9386 56.6976 38.4547 56.0558 38.4547C55.4137 38.4547 54.8916 37.9386 54.8916 37.3036V26.355C54.8916 24.4984 56.4189 22.988 58.2964 22.988H61.3766ZM84.0217 22.9993C84.6634 22.9993 85.1859 23.5158 85.1859 24.1508V37.315C85.1859 37.9499 84.6634 38.4663 84.0217 38.4663C83.3798 38.4663 82.8573 37.9499 82.8573 37.315V24.1508C82.8573 23.5158 83.3798 22.9993 84.0217 22.9993ZM88.3052 22.9993C88.7204 22.9993 89.1071 23.2205 89.3147 23.5767L94.7022 33.6719V24.1508C94.7022 23.5158 95.2245 22.9993 95.8666 22.9993C96.5085 22.9993 97.0308 23.5158 97.0308 24.1508V37.315C97.0308 37.8355 96.6771 38.2982 96.1669 38.4275C95.8867 38.4983 95.2264 38.5245 94.8571 37.8887L89.4696 28.2555V37.315C89.4696 37.9499 88.947 38.4663 88.3052 38.4663C87.6635 38.4663 87.141 37.9499 87.141 37.315V24.1508C87.141 23.0032 88.204 22.9993 88.3052 22.9993ZM111.923 22.9993C112.564 22.9993 113.087 23.5156 113.087 24.1505V36.1635H117.836C118.478 36.1635 119 36.6802 119 37.3151C119 37.9499 118.478 38.4662 117.836 38.4662H111.923C111.281 38.4662 110.758 37.9499 110.758 37.3151V24.1505C110.758 23.5156 111.281 22.9993 111.923 22.9993ZM49.5338 22.9879C51.4112 22.9879 52.9386 24.4983 52.9386 26.355V35.0878C52.9386 36.9445 51.4112 38.4549 49.5338 38.4549H46.4536C44.5761 38.4549 43.0488 36.9445 43.0488 35.0878V26.355C43.0488 24.4983 44.5761 22.9879 46.4536 22.9879H49.5338ZM67.8985 22.9879C68.5404 22.9879 69.0627 23.5044 69.0627 24.1392V37.3035C69.0627 37.9383 68.5404 38.4548 67.8985 38.4548C67.2566 38.4548 66.7343 37.9383 66.7343 37.3035V24.1392C66.7343 23.5044 67.2566 22.9879 67.8985 22.9879ZM77.5003 22.988C79.3776 22.988 80.9053 24.4984 80.9053 26.3552C80.9053 26.9897 80.3828 27.5063 79.741 27.5063C79.0989 27.5063 78.5768 26.9897 78.5768 26.3552C78.5768 25.768 78.0939 25.2905 77.5003 25.2905H74.4202C73.8268 25.2905 73.3437 25.768 73.3437 26.3552V35.0879C73.3437 35.6746 73.8268 36.1523 74.4202 36.1523H77.5003C78.0939 36.1523 78.5768 35.6746 78.5768 35.0879V32.2533H75.9602C75.3183 32.2533 74.796 31.7368 74.796 31.1021C74.796 30.4673 75.3183 29.9508 75.9602 29.9508L79.7408 29.9506C80.0519 29.9506 80.3444 30.0705 80.5643 30.2878C80.7841 30.5052 80.9053 30.7944 80.9053 31.1019V35.0879C80.9053 36.9443 79.3776 38.4551 77.5003 38.4551H74.4202C72.5427 38.4551 71.0153 36.9443 71.0153 35.0879V26.3552C71.0153 24.4984 72.5427 22.988 74.4202 22.988H77.5003ZM105.435 22.9993C107.306 22.9977 108.827 24.4512 108.828 26.642V37.2696C108.828 37.9518 108.306 38.4466 107.664 38.4466C107.022 38.4466 106.5 37.9302 106.5 37.2955V32.2643H101.307V37.2955C101.307 37.9302 100.785 38.4466 100.143 38.4466C99.5012 38.4466 98.9788 37.9302 98.9788 37.2955V26.3546C98.9788 24.5042 100.501 22.9993 102.372 22.9993H105.435ZM49.5338 25.2905H46.4536C45.8601 25.2905 45.3772 25.768 45.3772 26.3549V35.0878C45.3772 35.6746 45.8601 36.1523 46.4536 36.1523H49.5338C50.1273 36.1523 50.6102 35.6746 50.6102 35.0878V26.3549C50.6102 25.768 50.1273 25.2905 49.5338 25.2905ZM24.6385 14.1314C24.9444 13.9563 25.3217 13.9563 25.6275 14.1308L38.769 21.6337C39.0747 21.8084 39.263 22.1311 39.263 22.4801C39.263 22.8293 39.0747 23.152 38.769 23.3267L25.624 30.8318C25.4712 30.9189 25.3003 30.9625 25.1296 30.9625C24.9593 30.9625 24.7891 30.9189 24.6365 30.8321L11.495 23.3443C11.189 23.1698 11.0006 22.8473 11 22.4983C11 22.1491 11.188 21.8262 11.4937 21.6513L24.6385 14.1314ZM61.3766 25.2905H58.2964C57.7029 25.2905 57.22 25.768 57.22 26.355V29.9644H61.3766C61.9701 29.9644 62.453 29.0728 62.453 28.486V26.355C62.453 25.768 61.9701 25.2905 61.3766 25.2905ZM105.435 25.302H102.372C101.785 25.302 101.307 25.774 101.307 26.3546V29.9619H106.5V26.3546C106.5 25.774 106.022 25.302 105.435 25.302ZM25.1339 16.106L13.9653 22.4957L25.1292 28.8567L36.2981 22.4801L25.1339 16.106ZM56.7239 16.337C57.6116 16.3366 58.3332 17.0261 58.334 18.066V20.4015C58.334 20.7255 58.0861 20.9601 57.7815 20.9601C57.477 20.9601 57.2291 20.715 57.2291 20.4138V17.9296C57.2291 17.6541 57.0024 17.43 56.7239 17.43H55.2698C54.9912 17.43 54.7646 17.6541 54.7646 17.9296V20.4138C54.7646 20.715 54.5167 20.9601 54.2121 20.9601C53.9076 20.9601 53.6597 20.715 53.6597 20.4138V17.9296C53.6597 17.0515 54.3819 16.337 55.2698 16.337H56.7239ZM51.3942 16.3371C52.2821 16.3371 53.0045 17.0513 53.0045 17.9294V19.3673C53.0049 20.2453 52.3077 20.959 51.2562 20.9595H49.8895C49.8276 20.9595 49.7703 20.9483 49.7159 20.9322C48.9795 20.7979 48.4182 20.1674 48.3997 19.4052C48.42 18.5454 49.1106 17.8531 50.1461 17.8523H51.8914C51.8537 17.6137 51.646 17.4298 51.3942 17.4298H49.1167C48.812 17.4298 48.5643 17.1849 48.5643 16.8835C48.5643 16.5823 48.812 16.3372 49.1167 16.3372L51.3942 16.3371ZM62.8693 16.3375C63.1968 16.3375 63.4342 16.5824 63.4342 16.8838C63.4342 17.185 63.1864 17.4301 62.8818 17.4301H60.6044C60.3258 17.4301 60.0991 17.6542 60.0991 17.9297V19.3676C60.0991 19.6431 60.3258 19.8672 60.6044 19.8672H62.8818C63.1864 19.8672 63.4342 20.1122 63.4342 20.4136C63.4342 20.7148 63.1864 20.9599 62.8818 20.9599H60.6044C59.7163 20.9599 58.9941 20.2457 58.9941 19.3676V17.9297C58.9934 17.0517 59.691 16.338 60.7423 16.3375H62.8693ZM67.1821 16.3373C68.07 16.3373 68.7922 17.0515 68.7922 17.9297V19.3675C68.7929 20.2455 68.0955 20.9591 67.0441 20.9599H65.7241C64.8364 20.9599 64.114 20.2457 64.114 19.3677V17.9297C64.1134 17.0517 64.8108 16.338 65.8621 16.3375L67.1821 16.3373ZM45.6017 14.0396C46.4406 14.0396 47.1231 14.7146 47.1231 15.5443V16.1568C47.1231 17.0707 46.565 17.1279 46.565 17.1279C46.565 17.1279 47.8899 17.266 47.8899 18.4994V19.4516C47.8899 20.2812 47.2075 20.9561 46.3685 20.9561L44.5702 20.9563C43.3238 20.9563 43.0488 20.6141 43.0488 19.4516L43.0493 15.4121C43.0586 14.3419 43.2019 14.0396 44.3362 14.0396H45.6017ZM46.3685 17.8128H45.6721L45.531 17.8208H44.0894V19.4518C44.0894 19.8277 44.1783 19.9275 44.5702 19.9275H46.3685C46.6337 19.9275 46.8495 19.7141 46.8495 19.4518V18.4738C46.8495 18.2116 46.6337 17.8131 46.3685 17.8131V17.8128ZM67.1821 17.4301H65.7241C65.4458 17.4301 65.2191 17.6541 65.2191 17.9297V19.3677C65.2191 19.6431 65.4458 19.8673 65.7241 19.8673H65.9357L65.9372 19.8671H67.1823C67.4609 19.8671 67.6874 19.6431 67.6874 19.3675V17.9297C67.6874 17.6541 67.4609 17.4301 67.1823 17.4301H67.1821ZM51.8994 18.9449H50.008C49.7428 18.9449 49.5269 19.1487 49.5067 19.4059C49.527 19.6632 49.7428 19.8669 50.008 19.8669H51.3942C51.6727 19.8669 51.8994 19.6427 51.8994 19.3673V18.9449ZM45.6017 15.0686H44.3363C43.9521 15.0686 44.0894 15.1624 44.0894 15.5443V16.8098H45.0764L45.282 16.8178H45.6017C45.8668 16.8178 46.0825 16.4193 46.0825 16.1571V15.5446C46.0825 15.2824 45.8668 15.0689 45.6017 15.0689V15.0686Z" fill="#00A857"/>
</svg>
