<svg width="60" height="60" viewBox="0 0 60 60" fill="none" xmlns="http://www.w3.org/2000/svg">
<rect width="60" height="60" fill="#279D2E"/>
<path d="M14.0211 38.8801V40.4101C14.0471 42.4184 14.8578 44.3369 16.2799 45.7553C17.702 47.1737 19.6226 47.9794 21.6311 48.0001H25.5811C25.8869 48.014 26.1923 47.9646 26.4781 47.8548C26.7639 47.7451 27.0239 47.5774 27.2418 47.3624C27.4596 47.1473 27.6307 46.8895 27.7441 46.6052C27.8576 46.3208 27.911 46.0161 27.9011 45.7101V30.8201C27.8939 30.6008 27.8257 30.3879 27.7042 30.2053C27.5828 30.0226 27.4128 29.8774 27.2133 29.786C27.0139 29.6946 26.793 29.6606 26.5753 29.6878C26.3576 29.715 26.1518 29.8024 25.9811 29.9401L14.8311 37.1201C14.5377 37.3011 14.3044 37.5647 14.1603 37.8778C14.0162 38.1909 13.9677 38.5396 14.0211 38.8801Z" fill="white"/>
<path d="M15.591 33.24L26.271 26.35C28.481 24.94 30.741 26.29 30.741 28.53V36.82C30.7316 37.0167 30.762 37.2133 30.8305 37.3979C30.899 37.5825 31.0042 37.7514 31.1396 37.8943C31.2751 38.0373 31.4381 38.1513 31.6187 38.2296C31.7994 38.3079 31.9941 38.3489 32.191 38.35H34.101C40.611 38.35 46.181 33.65 46.181 25.65C46.191 17.18 39.691 12 32.081 12H16.191C15.6197 12.013 15.0758 12.2477 14.6745 12.6546C14.2733 13.0615 14.0461 13.6086 14.041 14.18V32.47C14.0501 32.6482 14.1066 32.8207 14.2048 32.9696C14.303 33.1186 14.4392 33.2385 14.5994 33.3171C14.7595 33.3956 14.9378 33.4299 15.1157 33.4164C15.2936 33.4028 15.4646 33.3419 15.611 33.24" fill="white"/>
</svg>
