<svg width="130" height="60" viewBox="0 0 130 60" fill="none" xmlns="http://www.w3.org/2000/svg">
<rect width="130" height="60" fill="white"/>
<path d="M99.3686 35.144V36.0304C99.3837 37.194 99.8534 38.3054 100.677 39.1272C101.501 39.9489 102.614 40.4157 103.777 40.4277H106.066C106.243 40.4358 106.42 40.4071 106.586 40.3435C106.751 40.2799 106.902 40.1828 107.028 40.0582C107.154 39.9336 107.253 39.7843 107.319 39.6195C107.385 39.4548 107.416 39.2782 107.41 39.101V30.4745C107.406 30.3475 107.366 30.2241 107.296 30.1183C107.226 30.0125 107.127 29.9284 107.012 29.8754C106.896 29.8224 106.768 29.8027 106.642 29.8185C106.516 29.8343 106.397 29.8849 106.298 29.9647L99.8379 34.1244C99.668 34.2292 99.5328 34.3819 99.4493 34.5633C99.3658 34.7447 99.3378 34.9467 99.3686 35.144Z" fill="#25B4BD"/>
<path d="M100.278 31.8764L106.466 27.8847C107.746 27.0678 109.055 27.8499 109.055 29.1477V33.9505C109.05 34.0644 109.068 34.1783 109.107 34.2853C109.147 34.3922 109.208 34.4901 109.286 34.5729C109.365 34.6557 109.459 34.7217 109.564 34.7671C109.669 34.8125 109.781 34.8362 109.896 34.8369H111.002C114.774 34.8369 118.001 32.1139 118.001 27.4791C118.006 22.5721 114.241 19.571 109.832 19.571H100.626C100.295 19.5786 99.9799 19.7146 99.7474 19.9503C99.5149 20.186 99.3833 20.503 99.3804 20.834V31.4303C99.3856 31.5335 99.4184 31.6335 99.4753 31.7197C99.5321 31.806 99.6111 31.8755 99.7039 31.9211C99.7967 31.9666 99.8999 31.9864 100.003 31.9786C100.106 31.9707 100.205 31.9354 100.29 31.8764" fill="#279D2E"/>
<path d="M17.7788 31.0072C17.7788 32.4903 16.9562 33.1392 15.0675 33.1392H11.9854V25.6946H14.8821C16.765 25.6946 17.5876 26.355 17.5876 27.6875C17.6063 28.0674 17.4833 28.4406 17.2425 28.735C17.0016 29.0293 16.6601 29.2238 16.2841 29.2807C16.4983 29.294 16.7078 29.3496 16.9004 29.4443C17.093 29.5391 17.2648 29.6711 17.406 29.8328C17.5472 29.9944 17.6549 30.1825 17.7229 30.3861C17.7908 30.5897 17.8177 30.8047 17.802 31.0188M13.1672 26.8475V28.7767H14.8821C15.7743 28.7767 16.3536 28.5739 16.3536 27.7976C16.3536 27.0213 15.7743 26.8475 14.8821 26.8475H13.1672ZM16.568 30.9029C16.568 30.0455 15.9886 29.8427 15.0907 29.8427H13.144V32.0211H15.0907C15.9655 32.0211 16.568 31.8067 16.568 30.9029Z" fill="#3C3C3B"/>
<path d="M23.5026 29.223V33.1394H22.6799L22.4597 32.0618C22.2796 32.4281 21.9957 32.7332 21.6434 32.9393C21.291 33.1453 20.8859 33.2431 20.4784 33.2205C19.2038 33.2205 18.6187 32.4848 18.6187 31.5115C18.6187 29.7734 20.4899 29.6054 22.3844 29.4142V29.2288C22.3844 28.3251 21.8688 27.9195 20.9129 27.9195C20.2673 27.9355 19.6538 28.2038 19.2038 28.6669L18.6244 27.7689C19.2852 27.2194 20.1172 26.9181 20.9766 26.9172C22.7146 26.9172 23.4794 27.7399 23.5026 29.2346M22.4134 30.8684V30.2601C21.0345 30.3991 19.8063 30.5382 19.8063 31.4651C19.8063 31.946 20.067 32.2646 20.7738 32.2646C21.1743 32.2876 21.5682 32.1553 21.8736 31.8952C22.1789 31.6352 22.3723 31.2674 22.4134 30.8684Z" fill="#3C3C3B"/>
<path d="M29.9972 29.0897V33.1452H28.8385V29.362C28.8385 28.4177 28.4388 27.9774 27.5987 27.9774C26.6196 27.9774 26.0634 28.5567 25.9765 29.7154V33.1278H24.8584V26.9983H25.6753L25.9012 28.0411C26.0911 27.6746 26.3845 27.3721 26.7451 27.1712C27.1057 26.9703 27.5174 26.8799 27.9289 26.9114C29.1919 26.9114 29.9972 27.624 29.9972 29.0897Z" fill="#3C3C3B"/>
<path d="M31.1035 30.0572C31.1035 28.1801 32.0768 26.9114 33.9655 26.9114C34.3615 26.9026 34.7553 26.9724 35.1242 27.1165C35.4931 27.2607 35.8298 27.4765 36.1149 27.7514L35.5355 28.69C35.3549 28.4445 35.1181 28.2459 34.845 28.1108C34.5718 27.9757 34.2702 27.9081 33.9655 27.9136C32.969 27.9136 32.2274 28.661 32.2274 30.0456C32.2274 31.4303 33.0501 32.224 33.9655 32.224C34.2704 32.227 34.5716 32.1576 34.8445 32.0217C35.1174 31.8857 35.3543 31.687 35.5355 31.4419L36.1149 32.3804C35.5382 32.9351 34.7655 33.2392 33.9655 33.2263C32.1637 33.2263 31.1035 31.9575 31.1035 30.0572Z" fill="#3C3C3B"/>
<path d="M36.5845 30.0456C36.5845 28.128 37.4303 26.9114 39.3885 26.9114C41.3467 26.9114 42.1752 28.1396 42.1752 30.0456C42.1752 31.9517 41.3467 33.2147 39.3885 33.2147C37.4303 33.2147 36.5845 31.9865 36.5845 30.0456ZM41.0223 30.0456C41.0223 28.6262 40.524 27.9252 39.3885 27.9252C38.253 27.9252 37.7432 28.6262 37.7432 30.0456C37.7432 31.4651 38.253 32.224 39.3885 32.224C40.524 32.224 41.0223 31.4998 41.0223 30.0456Z" fill="#3C3C3B"/>
<path d="M51.5614 28.2612C51.5614 29.7849 50.7155 30.7872 48.7515 30.7872H47.4422V33.1567H45.623V25.6831H48.7515C50.6981 25.6831 51.5614 26.6738 51.5614 28.2438M49.719 28.2438C49.719 27.5312 49.4004 27.201 48.6357 27.201H47.4422V29.2866H48.6357C48.7781 29.3097 48.924 29.2996 49.0619 29.2572C49.1998 29.2147 49.3261 29.141 49.4309 29.0418C49.5357 28.9426 49.6162 28.8206 49.6662 28.6852C49.7162 28.5498 49.7343 28.4047 49.719 28.2612" fill="#3C3C3B"/>
<path d="M56.1665 26.9346V28.7538C55.951 28.7112 55.7313 28.6937 55.5118 28.7016C54.637 28.7016 54.2604 29.223 54.2083 30.2195V33.1626H52.4702V26.9752H53.7737L54.1329 28.2034C54.2361 27.8347 54.454 27.5085 54.7551 27.2721C55.0561 27.0356 55.4247 26.9012 55.8073 26.8883C55.9365 26.8802 56.0661 26.896 56.1896 26.9346" fill="#3C3C3B"/>
<path d="M56.5952 30.0342C56.5952 28.0644 57.5743 26.8767 59.6078 26.8767C61.6413 26.8767 62.6088 28.0644 62.6088 30.0342C62.6088 32.0039 61.6182 33.2379 59.6078 33.2379C57.5975 33.2379 56.5952 32.0387 56.5952 30.0342ZM60.7839 30.0342C60.7839 28.8755 60.4305 28.2961 59.6252 28.2961C58.8199 28.2961 58.426 28.8755 58.426 30.0342C58.426 31.1929 58.7909 31.8243 59.6252 31.8243C60.4595 31.8243 60.7839 31.245 60.7839 30.0342Z" fill="#3C3C3B"/>
<path d="M68.8373 26.9751L66.8385 33.1394H64.8572L62.8584 26.9751H64.5964L65.6624 30.7003C65.7204 30.9726 65.7783 31.2797 65.8189 31.5288C65.8594 31.2623 65.9 30.9494 65.9637 30.7003L67.0413 26.9751H68.8373Z" fill="#3C3C3B"/>
<path d="M69.5615 25.3125H71.2996V26.4712H69.5615V25.3125ZM69.5615 26.9752H71.2996V33.1395H69.5615V26.9752Z" fill="#3C3C3B"/>
<path d="M78.2391 29.0549V33.1393H76.501V29.5125C76.501 28.7362 76.2171 28.3828 75.5798 28.3828C74.9426 28.3828 74.4733 28.7999 74.4211 29.7269V33.1393H72.6831V26.975H73.9751L74.2937 28.0642C74.4486 27.6922 74.718 27.3793 75.0629 27.171C75.4077 26.9626 75.81 26.8696 76.2113 26.9055C77.538 26.9055 78.2738 27.6239 78.2738 29.0722" fill="#3C3C3B"/>
<path d="M79.2422 30.0574C79.2422 28.0934 80.3082 26.8767 82.3417 26.8767C83.1123 26.8607 83.8663 27.1011 84.4853 27.5604L83.9059 29.0203C83.7239 28.8146 83.5 28.6503 83.2492 28.5383C82.9983 28.4264 82.7264 28.3695 82.4518 28.3714C81.6639 28.3714 81.0324 28.8929 81.0324 30.0458C81.0324 31.1987 81.7392 31.7375 82.4749 31.7375C82.7491 31.7365 83.0201 31.6782 83.2705 31.5665C83.5209 31.4548 83.7452 31.292 83.9291 31.0886L84.5085 32.5485C83.8865 33.002 83.1345 33.2418 82.3649 33.2322C80.3835 33.2322 79.2654 32.0155 79.2654 30.0516" fill="#3C3C3B"/>
<path d="M85.3882 25.3125H87.1262V26.4712H85.3882V25.3125ZM85.3882 26.9752H87.1262V33.1395H85.3882V26.9752Z" fill="#3C3C3B"/>
<path d="M93.5803 29.2983V33.1394H92.2884L91.9698 31.9807C91.8227 32.3691 91.5532 32.699 91.202 32.9206C90.8508 33.1422 90.437 33.2434 90.0231 33.2089C88.708 33.2089 88.1924 32.45 88.1924 31.4709C88.1924 29.7329 89.8957 29.559 91.8539 29.3679C91.8539 28.6031 91.3383 28.3019 90.5388 28.3019C89.9 28.3149 89.2922 28.5793 88.8471 29.0376L88.1519 27.7283C88.8975 27.1769 89.8027 26.884 90.73 26.894C92.7113 26.894 93.5745 27.7457 93.5803 29.2925M91.8423 30.7989V30.3585C90.7184 30.4918 89.9362 30.6077 89.9362 31.2971C89.9362 31.6853 90.1274 31.9286 90.6315 31.9286C90.7855 31.9356 90.9395 31.9117 91.0842 31.8584C91.229 31.8051 91.3616 31.7235 91.4744 31.6183C91.5872 31.5131 91.6778 31.3864 91.741 31.2457C91.8042 31.105 91.8386 30.9531 91.8423 30.7989Z" fill="#3C3C3B"/>
</svg>
