<svg width="130" height="60" viewBox="0 0 130 60" fill="none" xmlns="http://www.w3.org/2000/svg">
<rect width="130" height="60" fill="white"/>
<g clip-path="url(#clip0_68_146)">
<path d="M52.1011 15H23.1011V44H52.1011V15Z" fill="white"/>
<path d="M66.6011 29.5341L52.1011 15V44.0341L66.6011 29.5341Z" fill="#DB0011"/>
<path d="M37.6011 29.5341L52.1011 15H23.1011L37.6011 29.5341Z" fill="#DB0011"/>
<path d="M8.56689 29.5341L23.101 44.0341V15L8.56689 29.5341Z" fill="#DB0011"/>
<path d="M37.6011 29.5342L23.1011 44.0342H52.1011L37.6011 29.5342Z" fill="#DB0011"/>
<path d="M79.327 30.387H74.0729V35.5729H71.4458V23.427H74.0729V28.4082H79.327V23.427H81.954V35.5729H79.327V30.387Z" fill="black"/>
<path d="M88.2998 35.8118C85.6728 35.8118 83.5234 34.7542 83.4893 31.8542H86.1163C86.1504 33.1506 86.901 33.9354 88.334 33.9354C89.3916 33.9354 90.6198 33.3895 90.6198 32.1954C90.6198 31.2401 89.801 30.9671 88.4363 30.5577L87.5493 30.3189C85.6387 29.773 83.7281 29.0224 83.7281 26.8389C83.7281 24.1436 86.2528 23.2224 88.5387 23.2224C90.8928 23.2224 92.9398 24.0412 92.974 26.7365H90.3469C90.2445 25.6448 89.5963 24.9965 88.3681 24.9965C87.3787 24.9965 86.4234 25.5083 86.4234 26.6001C86.4234 27.4871 87.2422 27.7601 88.9481 28.3059L89.9716 28.613C92.0528 29.2612 93.3834 29.9777 93.3834 32.0248C93.3493 34.7542 90.6881 35.8118 88.2998 35.8118Z" fill="black"/>
<path d="M94.8506 23.4613H99.0812C99.8659 23.4272 100.685 23.4613 101.469 23.5978C102.936 23.9389 104.062 24.8942 104.062 26.5319C104.062 28.1013 103.073 28.886 101.64 29.2613C103.278 29.5683 104.506 30.3872 104.506 32.1954C104.506 34.9589 101.776 35.573 99.6612 35.573H94.8847L94.8506 23.4613ZM99.0812 28.5107C100.241 28.5107 101.435 28.2719 101.435 26.873C101.435 25.6107 100.344 25.2695 99.2518 25.2695H97.4094V28.5107H99.0812ZM99.32 33.7648C100.548 33.7648 101.742 33.4919 101.742 31.9907C101.742 30.4895 100.719 30.2166 99.4565 30.2166H97.3753V33.7648H99.32Z" fill="black"/>
<path d="M111.329 35.8118C107.406 35.8118 105.666 33.3212 105.666 29.6023C105.666 25.8835 107.61 23.1882 111.466 23.1882C113.888 23.1882 116.242 24.28 116.31 27.0094H113.581C113.444 25.7812 112.626 25.1671 111.466 25.1671C109.077 25.1671 108.361 27.7259 108.361 29.6706C108.361 31.6153 109.077 33.8671 111.363 33.8671C112.557 33.8671 113.444 33.2188 113.615 31.9906H116.344C116.071 34.7882 113.854 35.8118 111.329 35.8118Z" fill="black"/>
</g>
<defs>
<clipPath id="clip0_68_146">
<rect width="107.778" height="29" fill="white" transform="translate(8.56689 15)"/>
</clipPath>
</defs>
</svg>
