<svg width="60" height="60" viewBox="0 0 60 60" fill="none" xmlns="http://www.w3.org/2000/svg">
<rect width="60" height="60" fill="white"/>
<mask id="mask0_42_242" style="mask-type:luminance" maskUnits="userSpaceOnUse" x="14" y="10" width="32" height="43">
<path d="M45.119 10H14.0001V52.3312H45.119V10Z" fill="white"/>
</mask>
<g mask="url(#mask0_42_242)">
<path d="M32.6649 47.119H33.6343V52.2344H32.6649V47.119ZM36.1428 52.3089C35.7188 52.3089 35.3977 52.1967 35.1802 51.9723C34.9635 51.747 34.8538 51.4131 34.8538 50.9686V49.0297H34.2321V48.3017H34.8538V47.2551H35.7934V48.3009H36.672V49.0288H35.7934V50.8847C35.7934 51.1117 35.8396 51.2795 35.9296 51.3882C36.0203 51.497 36.1616 51.5509 36.3535 51.5509C36.4991 51.5509 36.6412 51.521 36.7774 51.4602V52.195C36.571 52.2704 36.3594 52.3089 36.1428 52.3089ZM38.4534 52.332C38.0697 52.332 37.7614 52.2284 37.5285 52.0211C37.2964 51.8148 37.1799 51.5364 37.1799 51.1878C37.1799 50.7433 37.3572 50.3982 37.7109 50.1533C38.0646 49.9084 38.5664 49.7859 39.2182 49.7859H39.3852C39.4408 49.7859 39.494 49.7893 39.5445 49.7936C39.529 49.5109 39.4486 49.3012 39.3013 49.165C39.1539 49.0288 38.9356 48.9603 38.6427 48.9603C38.2685 48.9603 37.895 49.0665 37.5208 49.278V48.5201C37.9293 48.3085 38.3515 48.2024 38.7865 48.2024C39.3176 48.2024 39.7261 48.3471 40.0138 48.6383C40.3016 48.9295 40.4455 49.344 40.4455 49.8844V52.2335H39.6644L39.6113 51.7788C39.4905 51.9509 39.3278 52.0854 39.1223 52.1847C38.9193 52.2815 38.6966 52.332 38.4534 52.332ZM38.7112 51.6649C38.9433 51.6649 39.1419 51.5818 39.3064 51.4148C39.47 51.2478 39.5522 51.0457 39.5522 50.8093V50.4222C39.5025 50.4222 39.4503 50.4214 39.3972 50.4179C39.3441 50.4162 39.2901 50.4136 39.2345 50.4136C38.8602 50.4136 38.5733 50.471 38.3746 50.5849C38.1742 50.6989 38.0757 50.8641 38.0757 51.0808C38.0757 51.2581 38.1339 51.3986 38.2496 51.5047C38.3644 51.6118 38.5194 51.6649 38.7112 51.6649ZM42.4837 52.332C42.0795 52.332 41.7566 52.1924 41.5168 51.9115C41.277 51.6315 41.1571 51.2555 41.1571 50.7862V48.3009H42.0966V50.6346C42.0966 50.9327 42.1583 51.1613 42.2825 51.3206C42.4067 51.4799 42.5814 51.5595 42.8091 51.5595C43.0361 51.5595 43.2202 51.4764 43.359 51.3094C43.4978 51.1424 43.5671 50.9207 43.5671 50.6423V48.3009H44.5066V52.2335H43.6878L43.6348 51.7719C43.5088 51.9535 43.3461 52.0931 43.1457 52.189C42.9462 52.284 42.727 52.332 42.4837 52.332ZM43.1663 47.7707H42.3407L43.1508 46.588H44.1734L43.1663 47.7707Z" fill="#2C384A"/>
</g>
<mask id="mask1_42_242" style="mask-type:luminance" maskUnits="userSpaceOnUse" x="14" y="10" width="32" height="33">
<path d="M39.8802 20.6779V41.8323H44.4758V25.2281C44.4758 22.7153 42.4384 20.6779 39.9256 20.6779H39.8802ZM19.2679 20.6779C16.7783 20.6779 14.7597 22.6965 14.7597 25.1861V41.8332H19.3141V20.6779H19.2679ZM27.5187 12.9392C25.4033 12.9392 23.6888 14.6546 23.6888 16.7692V16.8077V20.7258L23.699 33.4711C23.7093 34.3746 23.7702 35.2918 23.9311 36.18C24.3662 38.5651 25.5035 40.5211 27.7756 41.5745C30.6566 42.9115 33.2652 42.7384 36.1968 41.7818V37.4372C36.1968 37.4372 34.6304 38.0992 32.3215 38.0992C32.0012 38.0992 31.6791 38.0907 31.364 38.0324C29.8327 37.7498 28.8504 36.7614 28.5378 35.1248C28.4479 34.6538 28.3948 34.1657 28.3931 33.6852V24.6328H36.1985V20.6779H28.3931V12.9392H27.5187ZM39.1677 12.851C39.1549 14.4928 40.4378 15.7569 42.1301 15.7706C43.8036 15.7834 45.119 14.5099 45.1182 12.8776C45.1182 11.2607 43.8481 10.0154 42.1832 10.0009C42.1729 10.0009 42.1635 10.0009 42.1541 10.0009C40.4601 10 39.1797 11.2196 39.1677 12.851ZM16.9642 10C15.265 10.0043 13.9889 11.2556 14.0001 12.9032C14.0112 14.5176 15.2856 15.7526 16.9573 15.7706C18.6299 15.7868 19.9488 14.5151 19.9513 12.8827C19.9548 11.2487 18.6701 10.0043 16.9821 10H16.9642Z" fill="white"/>
</mask>
<g mask="url(#mask1_42_242)">
<path d="M28.6851 58.452L-2.44154 25.5363L30.4229 -5.54152L61.5495 27.3733L28.6851 58.452Z" fill="url(#paint0_linear_42_242)"/>
</g>
<defs>
<linearGradient id="paint0_linear_42_242" x1="45.1801" y1="42.9768" x2="13.7384" y2="9.72806" gradientUnits="userSpaceOnUse">
<stop stop-color="#EB7224"/>
<stop offset="0.2287" stop-color="#EB7224"/>
<stop offset="0.3349" stop-color="#EC6D43"/>
<stop offset="0.4604" stop-color="#EC675F"/>
<stop offset="0.5836" stop-color="#ED6272"/>
<stop offset="0.7016" stop-color="#EE5E80"/>
<stop offset="0.8131" stop-color="#EF5A89"/>
<stop offset="0.9154" stop-color="#EF588F"/>
<stop offset="1" stop-color="#EF5791"/>
</linearGradient>
</defs>
</svg>
