<svg width="130" height="60" viewBox="0 0 130 60" fill="none" xmlns="http://www.w3.org/2000/svg">
<rect width="130" height="60" fill="white"/>
<path d="M42.6631 38.5511L44.0045 36.9533C45.2078 37.9988 46.4309 38.5906 47.9893 38.5906C49.3701 38.5906 50.2381 37.9593 50.2381 36.9927V36.9533C50.2381 36.0458 49.7252 35.5527 47.3777 35.0201C44.6949 34.3691 43.1562 33.58 43.1562 31.2523V31.2128C43.1562 29.0429 44.9711 27.5437 47.4764 27.5437C49.3307 27.5437 50.7904 28.096 52.0727 29.1416L50.8693 30.8183C49.7252 29.9701 48.6008 29.5164 47.4369 29.5164C46.135 29.5164 45.3854 30.1871 45.3854 31.0156V31.055C45.3854 32.0216 45.9574 32.4556 48.3838 33.0474C51.0666 33.6984 52.4475 34.665 52.4475 36.756V36.7955C52.4475 39.1626 50.5932 40.5632 47.9301 40.5632C45.9969 40.5632 44.182 39.9123 42.6631 38.5511Z" fill="#183B68"/>
<path d="M54.3408 27.741H63.7307V29.7333H56.5699V33.0277H62.9219V35.0003H56.5699V38.413H63.8096V40.3857H54.3408V27.741Z" fill="#183B68"/>
<path d="M65.3086 27.741H67.6758L71.5422 33.7181L75.3889 27.741H77.7561V40.3857H75.527V31.3115L71.5422 37.2886H71.4633L67.4982 31.3509V40.3857H65.3086V27.741Z" fill="#183B68"/>
<path d="M80.2812 27.741H89.6711V29.7333H82.5103V33.0277H88.8426V35.0003H82.5103V38.413H89.75V40.3857H80.2812V27.741Z" fill="#183B68"/>
<path d="M99.0611 35.3751L96.8715 30.3054L94.7016 35.3554L99.0611 35.3751ZM95.8852 27.6423H97.9367L103.5 40.3857H101.152L99.8699 37.3281H93.8928L92.5908 40.3857H90.3223L95.8852 27.6423Z" fill="#183B68"/>
<path d="M109.733 34.014C111.331 34.014 112.337 33.1855 112.337 31.9033V31.8638C112.337 30.5027 111.35 29.7728 109.713 29.7728H106.478V34.014H109.733ZM104.269 27.741H109.91C111.508 27.741 112.751 28.2144 113.56 29.0035C114.23 29.6939 114.605 30.621 114.605 31.7257V31.7652C114.605 33.8365 113.363 35.099 111.587 35.5921L115 40.3857H112.376L109.279 35.9867H106.498V40.4054H104.269V27.741Z" fill="#183B68"/>
<path d="M46.4898 23.9733C47.2197 23.9733 47.6734 23.6774 47.6734 23.1448V23.1251C47.6734 22.6122 47.2592 22.2965 46.4109 22.2965H44.7145V23.9733H46.4898ZM46.1742 21.3891C46.8647 21.3891 47.3184 21.1129 47.3184 20.5606V20.5409C47.3184 20.0674 46.9436 19.7715 46.2531 19.7715H44.7145V21.3891H46.1742ZM43.6689 18.8049H46.4109C47.1014 18.8049 47.6537 19.0022 48.0088 19.3376C48.285 19.6137 48.423 19.9491 48.423 20.3436V20.3633C48.423 21.0932 48.0088 21.4877 47.5551 21.7245C48.2652 21.9612 48.7584 22.3754 48.7584 23.204V23.2237C48.7584 24.3086 47.851 24.9004 46.4898 24.9004H43.6689V18.8049Z" fill="#183B68"/>
<path d="M56.2539 22.4937L55.1887 20.0476L54.1432 22.4937H56.2539ZM54.7152 18.7654H55.7016L58.3844 24.9201H57.2402L56.6287 23.4406H53.7486L53.1174 24.9201H52.0127L54.7152 18.7654Z" fill="#183B68"/>
<path d="M62.0342 18.8049H63.0205L66.2951 23.0264V18.8049H67.3604V24.9202H66.4529L63.0994 20.5803V24.9202H62.0342V18.8049Z" fill="#183B68"/>
<path d="M71.2461 21.8823C71.2461 20.1266 72.548 18.7063 74.4023 18.7063C75.5268 18.7063 76.2172 19.1008 76.7893 19.6532L76.0988 20.4422C75.6057 19.9885 75.0928 19.6729 74.3826 19.6729C73.2187 19.6729 72.3705 20.6395 72.3705 21.8231V21.8428C72.3705 23.0461 73.2187 24.0127 74.3826 24.0127C75.1322 24.0127 75.6057 23.7168 76.1383 23.2237L76.8287 23.9141C76.1975 24.5848 75.4873 24.9991 74.3432 24.9991C72.5678 25.0188 71.2461 23.6379 71.2461 21.8823Z" fill="#183B68"/>
<path d="M85.5482 21.8823C85.5482 20.679 84.6803 19.6926 83.477 19.6926C82.2736 19.6926 81.4254 20.6592 81.4254 21.8428V21.8625C81.4254 23.0461 82.2934 24.0325 83.4967 24.0325C84.7 24.0325 85.5482 23.0659 85.5482 21.8823ZM80.2812 21.8823C80.2812 20.1463 81.6029 18.7063 83.477 18.7063C85.351 18.7063 86.6529 20.1266 86.6529 21.8428V21.8625C86.6529 23.5788 85.3313 25.0188 83.4572 25.0188C81.5832 25.0188 80.2812 23.5985 80.2812 21.8823Z" fill="#183B68"/>
<path d="M27.3942 40.7408H36.4487V20.6394C33.7856 21.8033 32.0102 22.7699 30.3334 24.2296C26.7037 27.5634 24.7903 30.4632 25.1256 36.3417C25.2637 38.5314 25.8358 40.6027 27.3942 40.7408Z" fill="#193A67"/>
<path d="M24.1197 36.3023C24.2578 29.0626 19.3262 26.1037 14 24.8806V40.7013H21.8512C23.1334 40.4251 23.9816 38.8273 24.1197 36.3023Z" fill="#0976A5"/>
<path d="M14.0197 23.0854C14.0197 23.0854 17.2943 24.0125 20.3717 26.4784C23.4688 28.9442 24.1789 30.6209 24.4156 31.9426C24.4156 31.9426 24.8496 28.0959 27.6902 24.9397C31.1621 20.9747 34.3578 19.3571 36.4094 18.3708L36.4291 18.3313H14L14.0197 23.0854Z" fill="#2EBADB"/>
</svg>
