<svg width="60" height="60" viewBox="0 0 60 60" fill="none" xmlns="http://www.w3.org/2000/svg">
<rect width="60" height="60" fill="white"/>
<path d="M34.2405 50.9442H50.9999V13.7375C46.0707 15.8918 42.7845 17.6809 39.6809 20.3829C32.9625 26.5536 29.4208 31.9209 30.0415 42.8018C30.2971 46.8547 31.356 50.6886 34.2405 50.9442Z" fill="#193A67"/>
<path d="M28.1798 42.7288C28.4354 29.3286 19.3072 23.8517 9.44873 21.5879V50.8712H23.9808C26.3542 50.36 27.9242 47.4025 28.1798 42.7288Z" fill="#0976A5"/>
<path d="M9.48524 18.2649C9.48524 18.2649 15.5464 19.981 21.2424 24.5451C26.9749 29.1092 28.2894 32.2128 28.7275 34.6592C28.7275 34.6592 29.5308 27.5392 34.7887 21.6971C41.2149 14.3581 47.13 11.364 50.9273 9.53836L50.9638 9.46533H9.44873L9.48524 18.2649Z" fill="#2EBADB"/>
</svg>
