<svg width="60" height="60" viewBox="0 0 60 60" fill="none" xmlns="http://www.w3.org/2000/svg">
<rect width="60" height="60" fill="white"/>
<path d="M17.5903 34.5569C17.5903 35.0439 17.9279 35.2874 18.4718 35.2874C19.0907 35.2874 19.522 34.8379 19.522 34.2011V33.7328C19.447 33.7141 19.222 33.7141 19.0719 33.7141C18.1155 33.7141 17.5903 33.995 17.5903 34.5569Z" fill="black"/>
<path d="M29.293 20.622C29.0492 19.4233 28.3552 18.6366 27.0049 18.337C24.8294 17.7938 21.5849 17.4941 18.0778 17.4941C14.5707 17.4941 11.3263 17.7938 9.15074 18.337C7.80042 18.6366 7.10651 19.4233 6.84395 20.622C6.35633 22.701 6 26.0349 6 29.5373C6 33.0398 6.35633 36.3737 6.84395 38.4527C7.08775 39.6514 7.78167 40.438 9.13199 40.7377C11.3075 41.2809 14.552 41.5805 18.0591 41.5805C21.5662 41.5805 24.8107 41.2809 26.9862 40.7377C28.3177 40.438 29.0304 39.6514 29.2742 38.4527C29.7618 36.3737 30.1182 33.0398 30.1182 29.5373C30.1182 26.0349 29.7806 22.701 29.293 20.622ZM23.3853 28.5447L26.3298 28.0202V29.5561H23.3853V28.5447ZM10.4448 36.4112H8.68188V30.3615H10.4448V36.4112ZM9.56334 29.7434C8.94444 29.7434 8.51309 29.3313 8.51309 28.732C8.51309 28.1326 8.94444 27.7206 9.56334 27.7206C10.1822 27.7206 10.6136 28.1326 10.6136 28.732C10.6136 29.3313 10.1822 29.7434 9.56334 29.7434ZM13.7831 31.7474V34.2198C13.7831 34.8566 14.0456 35.1375 14.6082 35.1375C14.8708 35.1375 15.1146 35.1001 15.2459 35.0626V36.4112C15.0397 36.4674 14.6458 36.5235 14.1582 36.5235C12.7891 36.5235 12.0202 35.7931 12.0202 34.3321V31.7474H11.1387V30.3615H12.0202V28.863L13.7831 28.5447V30.3615H15.3209V31.7474H13.7831ZM21.2098 36.4112H19.5594L19.5407 35.7743C19.1843 36.2613 18.6592 36.5609 17.9653 36.5609C16.69 36.5609 15.8836 35.8493 15.8836 34.7068C15.8836 33.3956 17.0651 32.6278 18.9217 32.6278C19.1468 32.6278 19.3719 32.6465 19.5219 32.6465C19.5219 31.9909 19.0718 31.6163 18.2466 31.6163C17.5902 31.6163 16.8963 31.7849 16.2024 32.0471V30.6236C16.9151 30.3615 17.6465 30.2116 18.5279 30.2116C20.2533 30.2116 21.2098 31.1293 21.2098 32.8525V36.4112ZM27.4738 36.4112H25.7671L25.7484 35.7556C25.3546 36.2988 24.8482 36.5609 24.1168 36.5609C22.8789 36.5609 22.0725 35.6807 22.0725 34.2947V30.3615H23.8354V33.995C23.8354 34.7255 24.1543 35.1188 24.7357 35.1188C25.3358 35.1188 25.6921 34.6506 25.6921 33.9201V30.3615H27.455V36.4112H27.4738Z" fill="black"/>
<path d="M50.5605 30.4177C50.2979 30.3615 49.9604 30.3428 49.604 30.3428C49.2477 30.3428 48.9477 30.3615 48.6851 30.4177L45.7969 36.4112H47.0347L47.6911 35.0439H51.4982L52.1547 36.4112H53.43L50.5605 30.4177ZM48.1224 34.0325L49.3415 31.3542C49.4165 31.3354 49.5103 31.3167 49.6228 31.3167C49.7353 31.3167 49.8103 31.3354 49.9041 31.3542L51.1232 34.0325H48.1224Z" fill="black"/>
<path d="M44.2404 33.1897C44.9343 32.9274 45.2344 32.4967 45.2344 31.8786C45.2344 30.7735 44.2029 30.2678 42.1587 30.2678C41.2772 30.2678 40.152 30.3615 39.3643 30.4739V36.3924H42.3462C44.5405 36.3924 45.572 35.8493 45.572 34.6693C45.572 33.9201 45.1594 33.3957 44.2404 33.1897ZM40.4895 31.3167C41.0334 31.2417 41.6523 31.223 42.1962 31.223C43.4715 31.223 44.0529 31.4478 44.0529 32.0284C44.0529 32.5716 43.584 32.815 42.5337 32.815H40.4708V31.3167H40.4895ZM42.3087 35.4559H40.5083V33.7702H42.5712C43.8841 33.7702 44.4092 34.0325 44.4092 34.6131C44.3904 35.1937 43.8091 35.4559 42.3087 35.4559Z" fill="black"/>
<path d="M37.0949 33.1897C37.7888 32.9274 38.0889 32.4967 38.0889 31.8786C38.0889 30.7735 37.0574 30.2678 35.0132 30.2678C34.1317 30.2678 33.0065 30.3615 32.2188 30.4739V36.3924H35.2007C37.395 36.3924 38.4265 35.8493 38.4265 34.6693C38.4452 33.9201 38.0327 33.3957 37.0949 33.1897ZM33.3628 31.3167C33.9067 31.2417 34.5256 31.223 35.0694 31.223C36.3448 31.223 36.9261 31.4478 36.9261 32.0284C36.9261 32.5716 36.4572 32.815 35.407 32.815H33.344V31.3167H33.3628ZM35.1632 35.4559H33.3628V33.7702H35.4257C36.7386 33.7702 37.2637 34.0325 37.2637 34.6131C37.2449 35.1937 36.6636 35.4559 35.1632 35.4559Z" fill="black"/>
</svg>
