<svg width="60" height="60" viewBox="0 0 60 60" fill="none" xmlns="http://www.w3.org/2000/svg">
<rect width="60" height="60" fill="#503629"/>
<g clip-path="url(#clip0_308_179)">
<path d="M10.4351 25.3666H7.48076V25.6196H8.42062V30.5366C8.42062 32.0033 8.01262 32.4323 7.09826 32.4323C6.93692 32.4498 6.77529 32.402 6.64891 32.2996C6.52253 32.1971 6.44175 32.0484 6.42433 31.886C6.41888 31.8458 6.41888 31.8051 6.42433 31.765C6.42433 31.2296 6.39519 30.8996 5.90704 30.8996C5.4189 30.8996 5.36426 31.3983 5.36426 31.5486C5.36426 32.227 5.66297 32.744 7.00719 32.744C8.61004 32.744 9.47704 32.2013 9.47704 30.4046V25.616H10.4643L10.4351 25.3666Z" fill="white"/>
<path d="M10.8284 31.6C10.7521 31.5973 10.6762 31.6106 10.6053 31.639C10.5344 31.6674 10.4702 31.7103 10.4167 31.765C10.3622 31.819 10.3192 31.8835 10.2904 31.9548C10.2616 32.026 10.2476 32.1024 10.2491 32.1794C10.248 32.2546 10.2623 32.3292 10.2911 32.3986C10.3199 32.468 10.3627 32.5307 10.4167 32.5827C10.5264 32.6914 10.6744 32.7521 10.8284 32.7514C10.9845 32.7524 11.1349 32.6919 11.2473 32.5827C11.3013 32.5307 11.3441 32.468 11.3729 32.3986C11.4017 32.3292 11.416 32.2546 11.4149 32.1794C11.4158 32.1042 11.4021 32.0297 11.3744 31.9599C11.3467 31.8901 11.3057 31.8265 11.2536 31.7727C11.2015 31.7189 11.1394 31.676 11.0708 31.6464C11.0022 31.6167 10.9285 31.601 10.8539 31.6H10.8284Z" fill="white"/>
<path d="M17.3859 31.6C17.3114 31.598 17.2373 31.6109 17.1678 31.6379C17.0983 31.6649 17.0348 31.7055 16.981 31.7573C16.9272 31.8091 16.884 31.8711 16.8541 31.9398C16.8242 32.0084 16.8081 32.0824 16.8066 32.1573V32.1793C16.8066 32.2557 16.8229 32.3313 16.8543 32.4008C16.8857 32.4704 16.9316 32.5324 16.9888 32.5827C17.0989 32.6907 17.2466 32.7512 17.4004 32.7513C17.4774 32.753 17.5539 32.7389 17.6253 32.7099C17.6967 32.6809 17.7614 32.6376 17.8157 32.5827C17.8716 32.5317 17.9161 32.4694 17.9462 32.3999C17.9764 32.3304 17.9915 32.2552 17.9906 32.1793C17.9926 32.102 17.9784 32.0252 17.9489 31.9538C17.9194 31.8824 17.8752 31.8181 17.8194 31.765C17.7663 31.7117 17.7032 31.6696 17.6338 31.6413C17.5643 31.613 17.4899 31.5989 17.415 31.6" fill="white"/>
<path d="M15.342 25.3666H12.4277V25.6196H13.2765V31.2333C13.2987 31.4623 13.2726 31.6935 13.2 31.9116C13.1667 31.99 13.1169 32.0601 13.054 32.1171C12.9911 32.174 12.9166 32.2166 12.8357 32.2416C12.6584 32.3017 12.4727 32.3326 12.2856 32.3333V32.568H15.3821V32.3333C15.1811 32.3346 14.981 32.3062 14.7883 32.249C14.7077 32.2232 14.6336 32.1805 14.5707 32.1236C14.5079 32.0667 14.4579 31.9969 14.424 31.919C14.364 31.7741 14.3379 31.6173 14.3475 31.4606V29.5393H15.1198C17.3565 29.5393 17.9867 28.652 17.9867 27.4456C17.9867 26.2393 17.6079 25.3666 15.342 25.3666ZM14.9413 29.2533H14.3548V25.6526H14.8866C16.6134 25.6453 17.0214 26.353 17.0214 27.5116C17.0214 28.6703 16.3438 29.279 14.9704 29.279" fill="white"/>
<path d="M27.2216 31.8933C27.174 31.7342 27.1531 31.5681 27.1597 31.402V25.6197H27.9284V25.385H26.0814L23.8811 30.8667C23.8777 30.8758 23.8718 30.8837 23.864 30.8896C23.8563 30.8954 23.8471 30.8989 23.8374 30.8997C23.8261 30.9001 23.8149 30.8972 23.8052 30.8914C23.7955 30.8855 23.7877 30.8769 23.7828 30.8667C23.7828 30.8667 21.4696 25.451 21.4441 25.385H19.4077V25.6123H20.3002V31.6917C20.2921 31.8223 20.2507 31.9485 20.18 32.0583C20.0967 32.168 19.9824 32.2498 19.8521 32.293C19.7125 32.3255 19.5692 32.3391 19.4259 32.3333V32.568H21.4441V32.3333C21.3205 32.3349 21.1975 32.3163 21.0798 32.2783C20.9358 32.2454 20.8072 32.1639 20.7155 32.0473C20.6439 31.9377 20.6012 31.8115 20.5916 31.6807L20.5698 31.1747V26.375H20.69C20.69 26.375 23.3238 32.4947 23.3238 32.5643H23.5788L26.0632 26.4263H26.1288V31.3727C26.132 31.5434 26.1111 31.7138 26.0669 31.8787C26.0397 31.9521 25.9983 32.0194 25.9452 32.0767C25.892 32.1339 25.8281 32.18 25.7572 32.2123C25.5922 32.2709 25.4185 32.3006 25.2436 32.3003V32.535H28.0668V32.3003C27.8877 32.2999 27.7101 32.2677 27.5422 32.205C27.4664 32.1708 27.399 32.1203 27.3449 32.0569C27.2907 31.9935 27.2511 31.9189 27.2289 31.8383" fill="white"/>
<path d="M31.0285 27.2917C29.5203 27.2917 28.5586 28.2927 28.5586 30.0417C28.5586 32.6084 30.5512 32.7734 30.9775 32.7734C31.8299 32.7734 33.4473 32.2417 33.4473 29.994C33.4473 28.2267 32.4127 27.2917 31.0175 27.2917M31.0175 32.4544C29.881 32.4544 29.7061 31.8897 29.7061 30.0674C29.7061 28.6557 29.7935 27.596 31.0175 27.596C32.3326 27.596 32.3399 28.696 32.3399 29.9684C32.3399 31.8017 32.0266 32.4397 31.0175 32.4397" fill="white"/>
<path d="M37.3995 27.3687C36.4961 27.3687 36.2192 27.904 35.9642 28.4467H35.895C35.895 28.4467 35.7639 27.6583 35.7165 27.4237H33.957V27.6913H34.9042V31.259C34.9171 31.509 34.8774 31.7589 34.7876 31.9923C34.6929 32.172 34.4743 32.26 34.1173 32.26H33.9607V32.5753H36.875V32.26H36.7365C36.3504 32.26 36.1865 32.1757 36.0845 32.007C35.9814 31.7721 35.94 31.5146 35.9642 31.259V29.4C35.9642 28.7803 36.4305 28.069 36.9915 28.069C37.5525 28.069 37.5635 28.9747 38.2301 28.6117C38.5944 28.4137 38.5288 27.376 37.4068 27.376" fill="white"/>
<path d="M49.0495 32.0363C48.7362 32.0363 48.6342 31.8603 48.616 31.5707V28.7583C48.6348 28.5657 48.612 28.3713 48.5491 28.1884C48.4862 28.0054 48.3848 27.8384 48.2517 27.6987C47.9785 27.4273 47.4612 27.2843 46.7071 27.2843C46.1435 27.2424 45.5812 27.381 45.1006 27.6803C44.959 27.7665 44.8419 27.8881 44.7608 28.0333C44.6798 28.1785 44.6374 28.3424 44.638 28.509C44.6288 28.5759 44.6356 28.6441 44.6577 28.7078C44.6799 28.7716 44.7168 28.8291 44.7655 28.8757C44.8547 28.9522 44.9689 28.9927 45.0861 28.9893C45.3775 28.9893 45.5378 28.839 45.6034 28.4577C45.6111 28.236 45.6919 28.0232 45.8329 27.8527C45.9274 27.7665 46.0388 27.7012 46.1598 27.6608C46.2809 27.6204 46.409 27.6058 46.5359 27.618C46.6789 27.6014 46.8237 27.6198 46.9581 27.6715C47.0926 27.7232 47.2126 27.8067 47.3082 27.915C47.4543 28.1372 47.5257 28.4006 47.5122 28.6667V29.5283C46.576 29.6127 44.3648 29.7887 44.4631 31.479C44.4971 31.8206 44.6584 32.1365 44.9146 32.3631C45.1709 32.5896 45.5029 32.71 45.8438 32.7C46.1731 32.69 46.4964 32.6088 46.7918 32.4621C47.0872 32.3153 47.3478 32.1063 47.5559 31.8493C47.6009 32.0786 47.7259 32.284 47.9083 32.4286C48.0907 32.5732 48.3185 32.6473 48.5504 32.6377C49.2316 32.6377 49.6433 32.3003 49.687 31.468H49.5085C49.4648 31.8347 49.2426 32.0253 49.0568 32.0253M47.5231 31.4827C47.5267 31.4881 47.5287 31.4945 47.5287 31.501C47.5287 31.5075 47.5267 31.5139 47.5231 31.5193V31.5413C47.2208 31.8817 46.8072 32.1016 46.3574 32.161C46.2522 32.1649 46.1472 32.1479 46.0484 32.111C45.9497 32.074 45.8592 32.0178 45.782 31.9456C45.7049 31.8734 45.6427 31.7866 45.5989 31.6902C45.5551 31.5938 45.5306 31.4896 45.5269 31.3837C45.5232 31.3434 45.5232 31.3029 45.5269 31.2627C45.5269 30.3057 46.8383 29.8253 47.5523 29.8253L47.5231 31.4827Z" fill="white"/>
<path d="M55.0456 31.9996C54.9116 31.7677 54.8482 31.5012 54.8635 31.2333V28.905C54.8785 28.6067 54.8196 28.3094 54.6923 28.0396C54.5738 27.8213 54.3955 27.6419 54.1786 27.5226C53.9384 27.4047 53.6735 27.3469 53.4064 27.354C53.0641 27.3454 52.7264 27.4341 52.432 27.6098C52.1375 27.7856 51.8982 28.0413 51.7416 28.3476H51.6286L51.4465 27.4163H49.8691V27.684H50.6669V31.2333C50.673 31.4354 50.6534 31.6375 50.6086 31.8346C50.59 31.9103 50.5529 31.9801 50.5008 32.0377C50.4486 32.0953 50.383 32.1389 50.3099 32.1646C50.1688 32.2163 50.0193 32.2411 49.8691 32.238V32.5643H52.3973V32.2343C52.3005 32.2395 52.2038 32.2227 52.1142 32.1853C52.0247 32.1478 51.9447 32.0907 51.88 32.018C51.7656 31.7917 51.7164 31.5376 51.7379 31.2846V29.9316C51.6892 29.4343 51.7553 28.9324 51.931 28.465C52.0334 28.2862 52.1819 28.1387 52.3609 28.038C52.5398 27.9373 52.7424 27.8872 52.9474 27.893C53.0878 27.8786 53.2293 27.9056 53.3548 27.9707C53.4802 28.0358 53.5842 28.1362 53.6541 28.2596C53.7781 28.648 53.836 29.0546 53.8253 29.4623V31.1416C53.8441 31.349 53.8441 31.5576 53.8253 31.765C53.818 31.839 53.7942 31.9104 53.7557 31.9738C53.7173 32.0373 53.6651 32.0913 53.6031 32.1316C53.4796 32.2014 53.3403 32.238 53.1987 32.238V32.568H55.6358V32.2416C55.3298 32.2196 55.1294 32.1463 55.0384 32.0033" fill="white"/>
<path d="M43.6142 27.0827C43.5327 27.1167 43.4617 27.172 43.4085 27.2429C43.3553 27.3138 43.322 27.3978 43.3118 27.486C43.2718 27.695 43.1916 27.8197 43.086 27.8527C42.9653 27.8845 42.8377 27.8768 42.7217 27.8307C42.2609 27.4373 41.6673 27.2377 41.0642 27.2733C40.5605 27.2338 40.0618 27.3969 39.6774 27.7268C39.293 28.0567 39.0542 28.5265 39.0133 29.0333C39.0133 29.1103 39.0133 29.1873 39.0133 29.2643C39.0133 30.3643 39.4322 30.874 40.3465 31.0683C40.4048 31.0683 40.4048 31.1417 40.3465 31.149C39.5779 31.292 38.8894 31.5157 38.8894 32.2673C38.8887 32.4427 38.9424 32.614 39.0429 32.7573C39.1435 32.9006 39.2859 33.0087 39.4504 33.0667C39.9376 33.2354 40.4507 33.3161 40.9658 33.305C41.3721 33.3011 41.7783 33.3195 42.1825 33.36C42.4189 33.3815 42.6465 33.4608 42.8455 33.591C42.9317 33.6624 42.9995 33.7537 43.0433 33.8571C43.087 33.9605 43.1054 34.073 43.0969 34.185C43.0932 34.3611 43.0395 34.5324 42.942 34.6786C42.8445 34.8249 42.7073 34.9399 42.5468 35.01C42.117 35.2223 41.6408 35.3219 41.1625 35.2997C40.7205 35.3319 40.2787 35.2338 39.8912 35.0173C39.7772 34.9376 39.6905 34.8243 39.6429 34.693C39.5953 34.5618 39.5892 34.4189 39.6253 34.284C39.6602 34.1789 39.6526 34.0643 39.6042 33.9648C39.5558 33.8653 39.4705 33.789 39.3666 33.7523H39.312C39.2281 33.7416 39.1428 33.7544 39.0657 33.7893C38.9885 33.8243 38.9225 33.88 38.8748 33.9503C38.7908 34.093 38.7515 34.2578 38.7619 34.4233C38.7712 34.6609 38.8596 34.8884 39.0129 35.0693C39.1662 35.2502 39.3754 35.374 39.607 35.4207C40.0626 35.5668 40.5388 35.6374 41.0168 35.6297C41.5682 35.6555 42.118 35.5526 42.6233 35.329C42.9231 35.2023 43.1795 34.9899 43.3607 34.7182C43.542 34.4465 43.6402 34.1273 43.6433 33.8C43.6576 33.4839 43.5735 33.1711 43.4029 32.9053C42.8929 32.2013 42.1716 32.2967 40.5469 32.216C39.7673 32.216 39.6143 32.0767 39.6143 31.8493C39.6143 31.4827 39.9021 31.3543 41.0241 31.182C42.1461 31.0097 43.177 30.599 43.177 29.2387C43.1804 28.906 43.1108 28.5767 42.973 28.2743C43.1828 28.3329 43.4044 28.3329 43.6142 28.2743C43.7111 28.2481 43.8015 28.202 43.8799 28.1389C43.9583 28.0758 44.0228 27.9971 44.0695 27.9077C44.1191 27.8394 44.1528 27.7608 44.1679 27.6776C44.183 27.5944 44.1793 27.5089 44.157 27.4273C44.0623 27.123 43.8801 27.013 43.6033 27.0973M41.0897 30.8483C40.4267 30.8483 40.0296 30.6063 40.0296 29.2497C40.0296 28.2927 40.3611 27.5813 41.0897 27.5813C41.9203 27.5813 42.1461 28.2303 42.1461 29.2277C42.1461 30.643 41.698 30.8483 41.0897 30.8483Z" fill="white"/>
</g>
<defs>
<clipPath id="clip0_308_179">
<rect width="51" height="11" fill="white" transform="translate(5 25)"/>
</clipPath>
</defs>
</svg>
