<svg width="60" height="60" viewBox="0 0 60 60" fill="none" xmlns="http://www.w3.org/2000/svg">
<rect width="60" height="60" fill="white"/>
<path d="M13.5547 24.4533C13.5547 24.4533 15.9712 21.5981 21.3134 20.6481C26.6555 19.6982 27.168 20.6482 30.9703 19.256C34.7726 17.8639 36.2409 13.8412 36.2409 13.8412L46.9991 15.8191C46.9991 15.8191 45.4627 18.6696 38.9489 19.7691C32.4351 20.8686 31.2641 20.5016 28.1169 22.6226C26.2453 23.875 24.7925 25.6602 23.9464 27.7471L13.5547 24.4533Z" fill="#1C4A2E"/>
<path d="M13.5547 42.2389C13.5547 42.2389 15.9712 39.3837 21.3134 38.432C26.6555 37.4802 27.168 38.432 30.9703 37.0428C34.7726 35.6536 36.2409 31.6273 36.2409 31.6273L46.9991 33.6018C46.9991 33.6018 45.4627 36.4564 38.9489 37.5535C32.4351 38.6507 31.2641 38.2859 28.1169 40.4087C26.246 41.6612 24.7934 43.4456 23.9464 45.5315L13.5547 42.2389Z" fill="#1C4A2E"/>
<path d="M13.5547 33.1639C13.5547 33.1639 15.9712 30.3092 21.3134 29.3558C26.6555 28.4023 27.168 29.3558 30.9703 27.9689C34.7726 26.582 36.2409 22.5505 36.2409 22.5505L46.9991 24.5285C46.9991 24.5285 45.4627 27.3854 38.9489 28.4843C32.4351 29.5832 31.2641 29.2138 28.1169 31.3348C26.2451 32.5863 24.7922 34.371 23.9464 36.4577L13.5547 33.1639Z" fill="#C3651C"/>
</svg>
