<svg width="60" height="60" viewBox="0 0 60 60" fill="none" xmlns="http://www.w3.org/2000/svg">
<rect width="60" height="60" fill="#1C4A2E"/>
<path d="M13.5547 24.4532C13.5547 24.4532 15.9712 21.598 21.3134 20.648C26.6555 19.698 27.168 20.648 30.9703 19.2559C34.7726 17.8638 36.2409 13.8411 36.2409 13.8411L46.9991 15.819C46.9991 15.819 45.4627 18.6695 38.9489 19.769C32.4351 20.8685 31.2641 20.5014 28.1169 22.6225C26.2453 23.8749 24.7925 25.66 23.9464 27.747L13.5547 24.4532Z" fill="white"/>
<path d="M13.5547 42.2388C13.5547 42.2388 15.9712 39.3836 21.3134 38.4318C26.6555 37.4801 27.168 38.4318 30.9703 37.0426C34.7726 35.6534 36.2409 31.6272 36.2409 31.6272L46.9991 33.6016C46.9991 33.6016 45.4627 36.4562 38.9489 37.5534C32.4351 38.6506 31.2641 38.2858 28.1169 40.4086C26.246 41.6611 24.7934 43.4454 23.9464 45.5314L13.5547 42.2388Z" fill="white"/>
<path d="M13.5547 33.1637C13.5547 33.1637 15.9712 30.3091 21.3134 29.3556C26.6555 28.4022 27.168 29.3557 30.9703 27.9688C34.7726 26.5819 36.2409 22.5504 36.2409 22.5504L46.9991 24.5284C46.9991 24.5284 45.4627 27.3853 38.9489 28.4842C32.4351 29.5831 31.2641 29.2137 28.1169 31.3347C26.2451 32.5862 24.7922 34.3709 23.9464 36.4575L13.5547 33.1637Z" fill="#C3651C"/>
</svg>
