<svg width="130" height="60" viewBox="0 0 130 60" fill="none" xmlns="http://www.w3.org/2000/svg">
<rect width="130" height="60" fill="white"/>
<path d="M9 26.1571C9 26.1571 10.6298 24.2315 14.2326 23.5908C17.8355 22.9501 18.1812 23.5908 20.7455 22.6519C23.3098 21.713 24.3001 19 24.3001 19L31.5556 20.334C31.5556 20.334 30.5195 22.2564 26.1264 22.9979C21.7334 23.7395 20.9436 23.4919 18.8211 24.9224C17.5588 25.767 16.579 26.971 16.0084 28.3785L9 26.1571Z" fill="#1C4A2E"/>
<path d="M9 38.152C9 38.152 10.6298 36.2264 14.2326 35.5846C17.8355 34.9427 18.1812 35.5846 20.7455 34.6477C23.3098 33.7108 24.3001 30.9954 24.3001 30.9954L31.5556 32.327C31.5556 32.327 30.5195 34.2522 26.1264 34.9921C21.7334 35.7321 20.9436 35.4861 18.8211 36.9177C17.5593 37.7625 16.5796 38.9659 16.0084 40.3727L9 38.152Z" fill="#1C4A2E"/>
<path d="M9 32.0315C9 32.0315 10.6298 30.1063 14.2326 29.4633C17.8355 28.8202 18.1812 29.4633 20.7455 28.5279C23.3098 27.5926 24.3001 24.8737 24.3001 24.8737L31.5556 26.2076C31.5556 26.2076 30.5195 28.1344 26.1264 28.8755C21.7334 29.6167 20.9436 29.3675 18.8211 30.798C17.5587 31.642 16.5788 32.8456 16.0084 34.2529L9 32.0315Z" fill="#C3651C"/>
<path d="M41.6271 32.8959C40.4539 33.0708 39.2683 33.1495 38.0823 33.1313C35.724 33.1313 33.6406 32.5287 33.6406 29.2028V23.1333C33.6406 19.8074 35.7424 19.2248 38.1007 19.2248C39.2806 19.2049 40.46 19.2836 41.6267 19.4602C41.8825 19.4963 41.9928 19.5877 41.9928 19.8247V21.5243C41.9921 21.6211 41.9533 21.7137 41.8848 21.7819C41.8162 21.8502 41.7235 21.8886 41.6267 21.8888H37.9171C37.0575 21.8888 36.7484 22.1835 36.7484 23.1321V24.7964H41.4804C41.5771 24.7968 41.6698 24.8354 41.7382 24.904C41.8065 24.9725 41.8449 25.0653 41.8449 25.1621V26.8982C41.8449 26.995 41.8065 27.0878 41.7382 27.1564C41.6698 27.2249 41.5771 27.2636 41.4804 27.2639H36.7487V29.2012C36.7487 30.1507 37.0579 30.4426 37.9175 30.4426H41.6271C41.7241 30.4428 41.8171 30.4815 41.8857 30.5501C41.9543 30.6187 41.9929 30.7116 41.9932 30.8087V32.5067C41.9935 32.7492 41.8837 32.8594 41.6271 32.8959Z" fill="#002D7E"/>
<path d="M55.8635 32.9685H53.4525C53.3653 32.9582 53.2857 32.9138 53.2309 32.8452C53.1761 32.7765 53.1506 32.689 53.1599 32.6017V24.9812C53.1599 24.8537 53.1049 24.8349 53.0688 24.8349C53.0135 24.8349 52.977 24.8714 52.9225 24.9636L51.277 27.9787C51.2249 28.0778 51.1454 28.1597 51.048 28.2149C50.9507 28.27 50.8395 28.2961 50.7277 28.2899H49.2659C49.1542 28.2955 49.0433 28.2693 48.946 28.2142C48.8487 28.1591 48.7692 28.0774 48.7166 27.9787L47.0715 24.9636C47.0174 24.8714 46.9813 24.8349 46.9275 24.8349C46.8883 24.8349 46.8342 24.8533 46.8342 24.9812V32.6013C46.8435 32.6886 46.818 32.776 46.7633 32.8447C46.7086 32.9133 46.629 32.9577 46.5419 32.9681H44.1294C43.9834 32.9681 43.8186 32.914 43.8186 32.7115V20.0107C43.8161 19.9252 43.8316 19.8402 43.8642 19.7612C43.8968 19.6821 43.9458 19.6109 44.0079 19.5521C44.07 19.4934 44.1438 19.4484 44.2245 19.4202C44.3052 19.392 44.391 19.3811 44.4762 19.3884H46.1954C46.363 19.3829 46.5285 19.4267 46.6713 19.5146C46.8141 19.6024 46.9279 19.7303 46.9985 19.8824L49.7944 25.0923C49.8673 25.2378 49.9227 25.3277 49.996 25.3277C50.0694 25.3277 50.1239 25.2374 50.1969 25.0923L52.9927 19.8824C53.0634 19.7301 53.1774 19.602 53.3204 19.5142C53.4635 19.4263 53.6292 19.3826 53.797 19.3884H55.5155C55.6017 19.383 55.6882 19.3957 55.7692 19.4257C55.8503 19.4557 55.9241 19.5024 55.9861 19.5626C56.048 19.6229 56.0967 19.6955 56.1289 19.7757C56.1611 19.8559 56.1761 19.942 56.173 20.0283V32.7131C56.175 32.914 56.0114 32.9685 55.8635 32.9685Z" fill="#002D7E"/>
<path d="M62.827 28.2177C62.3884 28.2177 61.8034 28.1804 61.3471 28.1608V32.6013C61.347 32.6985 61.3084 32.7916 61.2398 32.8603C61.1712 32.9291 61.0782 32.9679 60.981 32.9682H58.6231C58.5761 32.9698 58.5293 32.962 58.4854 32.9453C58.4415 32.9286 58.4013 32.9033 58.3673 32.8709C58.3333 32.8385 58.3061 32.7996 58.2873 32.7566C58.2685 32.7135 58.2585 32.6671 58.2578 32.6202V20.3399C58.2578 19.7188 58.5136 19.5525 59.0817 19.463C60.3119 19.2991 61.5519 19.2204 62.7929 19.2276C65.5518 19.2276 68.2747 20.1936 68.2747 23.6313V23.7956C68.2731 27.2125 65.5502 28.2177 62.827 28.2177ZM65.1673 23.6301C65.1673 22.3322 64.3618 21.8198 62.827 21.8198C62.5708 21.8198 61.566 21.8591 61.3471 21.8755V25.6028C61.5476 25.6224 62.6257 25.642 62.827 25.642C64.4533 25.642 65.1673 25.037 65.1673 23.796V23.6301Z" fill="#002D7E"/>
<path d="M79.6771 32.9682H76.8809C76.6804 32.9682 76.6082 32.7854 76.516 32.6013L74.0666 27.9792L73.8669 27.9968C73.4836 27.9968 72.9171 27.9611 72.5687 27.9611V32.6013C72.5687 32.6982 72.5304 32.7911 72.4622 32.8598C72.394 32.9285 72.3014 32.9675 72.2046 32.9682H69.8293C69.7322 32.9679 69.6391 32.9291 69.5704 32.8604C69.5018 32.7916 69.4631 32.6985 69.4629 32.6013V20.3403C69.4629 19.7192 69.7199 19.5529 70.2868 19.4634C71.5169 19.3055 72.7558 19.2269 73.996 19.228C77.1018 19.228 79.4958 20.2681 79.4958 23.5045V23.74C79.4958 25.6789 78.4757 26.8646 77.1386 27.3954L79.8987 32.5484C79.931 32.611 79.9491 32.68 79.9517 32.7504C79.9517 32.8772 79.8795 32.9682 79.6771 32.9682ZM76.3877 23.503C76.3877 22.3868 75.5285 21.8756 73.9944 21.8756C73.7378 21.8756 72.7884 21.9116 72.5683 21.9301V25.4384C72.7703 25.4568 73.6668 25.4753 73.8665 25.4753C75.7862 25.4753 76.3877 24.9817 76.3877 23.7392V23.503Z" fill="#002D7E"/>
<path d="M89.1263 32.896C87.953 33.0708 86.7673 33.1496 85.5811 33.1314C83.2236 33.1314 81.1406 32.5288 81.1406 29.2029V23.1334C81.1406 19.8076 83.2408 19.2249 85.5996 19.2249C86.7797 19.205 87.9593 19.2838 89.1263 19.4603C89.3813 19.4964 89.4916 19.5879 89.4916 19.8248V21.5244C89.4912 21.6211 89.4525 21.7137 89.3841 21.782C89.3157 21.8503 89.223 21.8887 89.1263 21.8889H85.4156C84.5583 21.8889 84.246 22.1836 84.246 23.1323V24.7966H88.98C89.0768 24.797 89.1694 24.8357 89.2378 24.9042C89.3062 24.9727 89.3446 25.0654 89.3449 25.1622V26.8983C89.3446 26.9951 89.3062 27.0879 89.2378 27.1564C89.1694 27.2249 89.0768 27.2636 88.98 27.264H84.246V29.2014C84.246 30.1508 84.5599 30.4427 85.4156 30.4427H89.1263C89.2233 30.4429 89.3162 30.4816 89.3847 30.5502C89.4531 30.6189 89.4916 30.7118 89.4916 30.8088V32.5068C89.4916 32.7493 89.3813 32.8596 89.1263 32.896Z" fill="#002D7E"/>
<path d="M95.0298 33.1326C93.8665 33.1471 92.7061 33.0121 91.5772 32.7308C91.3948 32.6755 91.2119 32.5656 91.2119 32.3647V30.5737C91.2051 30.5281 91.2088 30.4815 91.2226 30.4376C91.2365 30.3936 91.2601 30.3533 91.2919 30.3199C91.3236 30.2864 91.3625 30.2606 91.4057 30.2444C91.4489 30.2282 91.4952 30.2221 91.5411 30.2265H91.596C92.3454 30.3006 94.355 30.4458 95.0674 30.4458C96.3296 30.4458 96.6945 30.0441 96.6945 29.1672C96.6945 28.6375 96.4391 28.3433 95.4888 27.7779L92.9645 26.2788C91.2653 25.2736 90.8066 24.1209 90.8066 22.7869C90.8066 20.7766 91.9393 19.2245 95.4849 19.2245C96.7863 19.2328 98.0838 19.3672 99.3593 19.6258C99.4374 19.6372 99.5087 19.677 99.5593 19.7376C99.61 19.7982 99.6366 19.8753 99.6339 19.9542V21.8006C99.6391 21.8426 99.6347 21.8852 99.621 21.9252C99.6072 21.9652 99.5845 22.0016 99.5546 22.0315C99.5246 22.0614 99.4882 22.084 99.4482 22.0977C99.4082 22.1115 99.3655 22.1158 99.3236 22.1105H99.2879C98.7751 22.0748 96.6557 21.9097 95.4123 21.9097C94.3711 21.9097 93.9858 22.2208 93.9858 22.878C93.9858 23.3904 94.2247 23.6285 95.2106 24.1586L97.5494 25.4191C99.4507 26.442 100.017 27.648 100.017 29.1279C100.018 31.0681 98.7394 33.1326 95.0298 33.1326Z" fill="#002D7E"/>
<path d="M109.981 21.967H107.019V32.6013C107.019 32.6984 106.981 32.7915 106.912 32.8603C106.844 32.9291 106.751 32.9679 106.654 32.9682H104.26C104.163 32.968 104.07 32.9293 104.001 32.8605C103.932 32.7918 103.894 32.6986 103.894 32.6013V21.967H100.915C100.868 21.9687 100.821 21.9611 100.777 21.9445C100.733 21.928 100.693 21.9028 100.659 21.8704C100.625 21.8381 100.598 21.7992 100.579 21.7562C100.56 21.7131 100.55 21.6668 100.549 21.6197V19.7365C100.55 19.6895 100.56 19.643 100.579 19.5999C100.597 19.5568 100.625 19.5179 100.659 19.4856C100.693 19.4532 100.733 19.4279 100.777 19.4113C100.821 19.3947 100.868 19.3871 100.915 19.3889H109.978C110.075 19.3847 110.17 19.4188 110.242 19.4839C110.314 19.549 110.357 19.6397 110.362 19.7365V21.6197C110.357 21.716 110.314 21.8063 110.242 21.8712C110.171 21.9361 110.077 21.9705 109.981 21.967Z" fill="#002D7E"/>
<path d="M120.691 32.9682H118.132C118.042 32.964 117.957 32.9289 117.891 32.869C117.824 32.8091 117.78 32.7279 117.767 32.6394L117.107 29.6415H113.363L112.703 32.6394C112.69 32.7279 112.646 32.809 112.58 32.869C112.513 32.9289 112.428 32.9639 112.339 32.9682H109.78C109.74 32.9722 109.699 32.9675 109.661 32.9545C109.622 32.9415 109.587 32.9204 109.558 32.8926C109.528 32.8649 109.505 32.8312 109.49 32.7937C109.475 32.7563 109.467 32.7159 109.469 32.6755C109.477 32.6456 109.483 32.6154 109.487 32.5849L112.211 21.2541C112.631 19.4991 113.983 19.2261 115.244 19.2261C116.505 19.2261 117.838 19.5007 118.259 21.2541L120.983 32.5849C120.987 32.6154 120.993 32.6456 121.001 32.6755C121.002 32.7159 120.995 32.7561 120.98 32.7935C120.965 32.8309 120.942 32.8646 120.912 32.8923C120.883 32.92 120.848 32.9411 120.81 32.9542C120.771 32.9673 120.731 32.9721 120.691 32.9682ZM115.482 22.0953C115.447 21.9113 115.409 21.8206 115.244 21.8206C115.079 21.8206 115.026 21.912 114.989 22.0953L113.873 27.1384H116.597L115.482 22.0953Z" fill="#002D7E"/>
<path d="M36.9203 40.3106C36.5682 40.3991 36.2059 40.4404 35.843 40.4334C34.7444 40.4334 33.7012 39.8559 33.7012 38.1324V37.2209C33.7012 35.5001 34.7432 34.9277 35.843 34.9277C36.206 34.9209 36.5684 34.9627 36.9203 35.0521C37.0227 35.0815 37.0796 35.1086 37.0796 35.209V35.9093C37.0823 35.9283 37.0806 35.9477 37.0748 35.966C37.0689 35.9842 37.0591 36.0009 37.0459 36.0148C37.0327 36.0288 37.0165 36.0395 36.9986 36.0463C36.9806 36.0531 36.9614 36.0558 36.9423 36.0541H36.9203C36.6457 36.0333 36.2479 35.9965 35.8504 35.9965C35.351 35.9965 34.9523 36.2574 34.9523 37.219V38.1304C34.9523 39.0932 35.351 39.3521 35.8504 39.3521C36.2482 39.3521 36.6457 39.3172 36.9203 39.2956H36.9423C36.9614 39.2939 36.9807 39.2965 36.9987 39.3033C37.0166 39.3101 37.0328 39.3208 37.046 39.3348C37.0592 39.3487 37.0691 39.3654 37.0749 39.3837C37.0808 39.402 37.0824 39.4214 37.0796 39.4404V40.1431C37.0773 40.2463 37.0219 40.2796 36.9203 40.3106Z" fill="#1C4A2E"/>
<path d="M42.3164 40.3678H41.3033C41.268 40.3663 41.2343 40.3525 41.208 40.3289C41.1817 40.3053 41.1644 40.2733 41.1589 40.2384L40.8984 39.0515H39.4158L39.1545 40.2384C39.1492 40.2733 39.1318 40.3053 39.1055 40.329C39.0792 40.3526 39.0454 40.3663 39.0101 40.3678H37.9971C37.9814 40.3695 37.9655 40.3677 37.9505 40.3627C37.9355 40.3577 37.9217 40.3495 37.9102 40.3387C37.8986 40.3279 37.8895 40.3148 37.8835 40.3002C37.8774 40.2856 37.8745 40.2698 37.8751 40.254C37.8751 40.2462 37.8813 40.2309 37.8813 40.2148L38.9595 35.7311C39.1255 35.0359 39.6614 34.9272 40.1604 34.9272C40.6595 34.9272 41.1876 35.0363 41.3543 35.7311L42.4325 40.2148C42.434 40.228 42.4363 40.2411 42.4392 40.254C42.4396 40.2699 42.4367 40.2857 42.4306 40.3003C42.4245 40.3149 42.4153 40.3281 42.4036 40.3389C42.392 40.3496 42.3782 40.3578 42.3631 40.3628C42.3481 40.3678 42.3321 40.3695 42.3164 40.3678ZM40.255 36.0639C40.2405 35.9901 40.2256 35.9552 40.1604 35.9552C40.0953 35.9552 40.0741 35.9901 40.0596 36.0639L39.6178 38.0605H40.696L40.255 36.0639Z" fill="#1C4A2E"/>
<path d="M45.2536 38.4878C45.0798 38.4878 44.8487 38.4713 44.6671 38.4651V40.222C44.6673 40.2604 44.6522 40.2973 44.6252 40.3247C44.5983 40.3521 44.5615 40.3676 44.5231 40.3679H43.5881C43.5697 40.3686 43.5512 40.3656 43.534 40.359C43.5167 40.3524 43.5009 40.3424 43.4876 40.3296C43.4743 40.3167 43.4636 40.3014 43.4564 40.2844C43.4491 40.2674 43.4454 40.2491 43.4453 40.2306V35.3695C43.4453 35.1251 43.5454 35.0595 43.7706 35.0203C44.2576 34.9564 44.7483 34.9255 45.2395 34.9277C46.3314 34.9277 47.4099 35.3118 47.4099 36.6729V36.7368C47.4115 38.09 46.3322 38.4878 45.2536 38.4878ZM46.1795 36.6725C46.1795 36.1577 45.8606 35.9553 45.2536 35.9553C45.1528 35.9553 44.7542 35.9682 44.6671 35.9761V37.4524C44.7455 37.4603 45.174 37.4681 45.2536 37.4681C45.897 37.4681 46.1795 37.2296 46.1795 36.7364V36.6725Z" fill="#1C4A2E"/>
<path d="M49.6159 40.3679H48.6468C48.6284 40.3675 48.6104 40.3633 48.5937 40.3556C48.577 40.3479 48.5621 40.3369 48.5498 40.3232C48.5376 40.3095 48.5283 40.2935 48.5225 40.2761C48.5167 40.2586 48.5145 40.2402 48.5161 40.2219V35.1317C48.5147 35.1138 48.517 35.0959 48.523 35.079C48.529 35.0621 48.5384 35.0466 48.5507 35.0336C48.563 35.0205 48.578 35.0103 48.5945 35.0034C48.6111 34.9965 48.6289 34.9932 48.6468 34.9936H49.6159C49.6341 34.993 49.6523 34.9962 49.6693 35.0029C49.6862 35.0096 49.7016 35.0198 49.7145 35.0328C49.7273 35.0457 49.7374 35.0612 49.744 35.0782C49.7506 35.0953 49.7536 35.1135 49.7528 35.1317V40.2219C49.7537 40.2406 49.7508 40.2592 49.7444 40.2767C49.7379 40.2942 49.728 40.3103 49.7153 40.3239C49.7025 40.3375 49.6871 40.3484 49.67 40.356C49.6529 40.3635 49.6345 40.3676 49.6159 40.3679Z" fill="#1C4A2E"/>
<path d="M54.5355 36.0117H53.3639V40.2215C53.364 40.2406 53.3603 40.2596 53.353 40.2773C53.3457 40.2949 53.3351 40.311 53.3216 40.3246C53.3081 40.3381 53.2921 40.3489 53.2744 40.3562C53.2568 40.3636 53.2379 40.3674 53.2188 40.3675H52.2709C52.2324 40.3672 52.1957 40.3516 52.1687 40.3243C52.1417 40.2969 52.1267 40.26 52.1269 40.2215V36.0117H50.9471C50.9285 36.0126 50.91 36.0096 50.8925 36.0031C50.8751 35.9966 50.8591 35.9867 50.8457 35.9738C50.8322 35.961 50.8214 35.9456 50.814 35.9285C50.8067 35.9114 50.8028 35.893 50.8027 35.8744V35.1313C50.8028 35.1127 50.8067 35.0942 50.814 35.0771C50.8214 35.06 50.8321 35.0445 50.8456 35.0316C50.8591 35.0187 50.875 35.0087 50.8925 35.0021C50.9099 34.9955 50.9285 34.9925 50.9471 34.9932H54.5363C54.5748 34.9914 54.6124 35.0049 54.641 35.0308C54.6696 35.0567 54.6868 35.0928 54.6889 35.1313V35.8744C54.6879 35.8935 54.6831 35.9122 54.6748 35.9295C54.6666 35.9467 54.655 35.9622 54.6407 35.975C54.6265 35.9877 54.6098 35.9975 54.5918 36.0038C54.5737 36.0102 54.5546 36.0128 54.5355 36.0117Z" fill="#1C4A2E"/>
<path d="M59.8093 40.3678H58.7963C58.761 40.3662 58.7274 40.3525 58.7011 40.3288C58.6749 40.3052 58.6576 40.2733 58.6523 40.2384L58.3914 39.0515H56.9071L56.6482 40.2384C56.6426 40.2733 56.6251 40.3053 56.5986 40.3289C56.5722 40.3524 56.5384 40.3662 56.503 40.3678H55.4908C55.475 40.3695 55.459 40.3678 55.4439 40.3628C55.4288 40.3578 55.415 40.3497 55.4033 40.3389C55.3916 40.3281 55.3823 40.315 55.3761 40.3004C55.3699 40.2857 55.3668 40.2699 55.3672 40.254C55.3704 40.2411 55.3729 40.228 55.3747 40.2148L56.4532 35.7311C56.6196 35.0359 57.1547 34.9272 57.6542 34.9272C58.1536 34.9272 58.6821 35.0363 58.8477 35.7311L59.9262 40.2148C59.9278 40.228 59.93 40.2411 59.9329 40.254C59.9333 40.27 59.9303 40.2858 59.9241 40.3004C59.9179 40.3151 59.9087 40.3283 59.897 40.339C59.8853 40.3498 59.8714 40.358 59.8562 40.3629C59.8411 40.3679 59.8251 40.3696 59.8093 40.3678ZM57.7475 36.0639C57.7334 35.9901 57.7185 35.9552 57.6534 35.9552C57.5883 35.9552 57.5667 35.9901 57.5522 36.0639L57.11 38.0605H58.1893L57.7475 36.0639Z" fill="#1C4A2E"/>
<path d="M63.882 40.3389C63.4928 40.4013 63.0992 40.4328 62.705 40.4331C61.7716 40.4331 60.9395 40.1942 60.9395 38.8787V35.1389C60.9398 35.1008 60.955 35.0643 60.982 35.0374C61.0089 35.0105 61.0454 34.9952 61.0834 34.9949H62.0309C62.0692 34.9949 62.106 35.01 62.1332 35.037C62.1604 35.0639 62.1758 35.1006 62.1761 35.1389V38.8798C62.1761 39.2549 62.2993 39.3714 62.6391 39.3714H63.8832C63.9216 39.3717 63.9584 39.387 63.9856 39.4141C64.0129 39.4412 64.0285 39.4778 64.0291 39.5162V40.1898C64.0283 40.2785 63.9844 40.3178 63.882 40.3389Z" fill="#1C4A2E"/>
</svg>
