<svg width="60" height="60" viewBox="0 0 60 60" fill="none" xmlns="http://www.w3.org/2000/svg">
<rect width="60" height="60" fill="#3333CC"/>
<path d="M16.6854 24.4449C15.1019 24.4449 13.7103 24.8778 12.5586 25.7435L11.8389 26.2725V18L8 19.1543V41.6152H11.8868V40.2204L12.6066 40.7495C13.8063 41.5671 15.1979 42 16.7334 42C21.1481 42 24.747 38.0561 24.747 33.1984C24.747 28.3407 21.1001 24.4449 16.6854 24.4449ZM16.3975 38.0561C13.8063 38.0561 11.8389 35.988 11.8389 33.2465C11.8389 30.505 13.8063 28.3888 16.3975 28.3888C18.9887 28.3888 20.9561 30.4569 20.9561 33.1984C20.9081 35.9399 18.9887 38.0561 16.3975 38.0561Z" fill="white"/>
<path d="M32.8083 31.4189L32.3765 31.2746C30.553 30.6013 29.7852 30.1684 29.7852 29.2065C29.7852 28.1965 30.7929 27.8117 31.7527 27.8117C32.7124 27.8117 33.864 28.1484 33.864 29.5912V30.4089H37.7029V29.5912C37.7029 26.3688 35.2556 24.0602 31.7527 24.0602C27.9618 24.0602 25.9944 26.6093 25.9944 29.1584C25.9944 32.7656 28.9695 33.8237 31.3688 34.6894L31.6087 34.7856C33.4322 35.459 34.3439 35.9399 34.3439 36.7576C34.3439 37.8638 33.1442 38.2486 32.0886 38.2486C30.8889 38.2486 29.4014 37.9119 29.4014 36.2285V35.3628H25.5625V36.2285C25.5625 39.6914 28.1537 42.0001 32.0886 42.0001C35.5915 42.0001 38.1827 39.8357 38.1827 36.8057C38.1347 33.3908 35.1596 32.2846 32.8083 31.4189Z" fill="white"/>
<path d="M46.7244 39.4029H50.8511V37.9119H44.9489L47.4921 35.4109C49.5555 33.3908 50.5632 31.5632 50.5632 29.6874C50.5632 26.8979 48.5958 24.0602 44.8049 24.0602C41.9738 24.0602 38.9507 25.8397 38.9507 29.6874V30.3608H42.7415V29.7355C42.7415 28.4369 43.4613 27.7636 44.8529 27.7636C45.7646 27.7636 46.7723 28.2926 46.7723 29.6874C46.7723 30.8417 45.6207 32.0922 44.8049 32.9099L41.0621 36.6614C39.7664 37.96 38.9987 39.7395 38.9987 41.5672H50.8991V40.0762H46.7244C46.5324 40.0762 46.3405 39.9319 46.3405 39.6914C46.3405 39.5953 46.4844 39.4029 46.7244 39.4029ZM52.4826 39.7876C52.4826 40.0762 52.2427 40.3167 51.9548 40.3167C51.6669 40.3167 51.427 40.0762 51.427 39.7876C51.427 39.4991 51.6669 39.2586 51.9548 39.2586C52.2427 39.2586 52.4826 39.4991 52.4826 39.7876Z" fill="white"/>
</svg>
