<svg width="60" height="60" viewBox="0 0 60 60" fill="none" xmlns="http://www.w3.org/2000/svg">
<rect width="60" height="60" fill="#231F20"/>
<g clip-path="url(#clip0_307_69)">
<path d="M19.0045 27.8106C20.5208 27.8106 21.4429 28.0819 21.9075 28.6607C22.1604 28.9759 22.2879 29.3942 22.2907 29.9247C22.2921 30.2191 22.2553 30.548 22.1809 30.9144L21.1419 36.0165C20.9982 36.7219 20.911 37.2617 20.9132 37.7095C20.9139 37.8513 20.9273 37.983 20.9472 38.1068C20.53 38.1068 18.4287 38.1068 18.1036 38.1068C18.1029 38.0758 18.0986 38.0456 18.0986 38.0132C18.0972 37.8016 18.1135 37.5784 18.1319 37.3467L18.1609 36.9285H18.0037L17.9421 37.0278C17.4314 37.8621 16.2728 38.3774 15.2798 38.3774C14.4568 38.3774 13.8676 38.1637 13.5276 37.7397C13.153 37.2725 13.0637 36.5405 13.2613 35.5651C13.6494 33.6605 14.5015 32.8543 16.6382 32.367C16.6396 32.367 18.0575 32.0388 18.0575 32.0388C18.8989 31.8494 19.3055 31.4723 19.4556 30.7345C19.5371 30.3299 19.4931 30.0168 19.3225 29.8037C19.1645 29.6072 18.911 29.5079 18.5696 29.5079C17.8104 29.5079 17.4053 29.9074 17.1552 30.9C16.8925 30.9 15.0333 30.9 14.6176 30.9C15.3004 28.2216 17.6425 27.8106 19.0045 27.8106ZM18.9733 33.0638C18.9733 33.0638 18.9159 33.117 18.8061 33.1609C18.6263 33.2315 18.2275 33.297 17.981 33.3596C17.7905 33.4086 17.5745 33.464 17.3422 33.564C16.7225 33.8304 16.4031 34.2673 16.2381 35.0706C16.1425 35.5399 16.1984 35.9243 16.4024 36.1784C16.5547 36.3692 16.7799 36.4692 17.0511 36.4692C18.1595 36.4692 18.5073 35.3917 18.6723 34.5797L18.9811 33.0638H18.9733Z" fill="white"/>
<path d="M29.1655 37.2063C28.5656 36.4577 28.4473 35.2801 28.8616 33.1833C29.7653 28.6168 31.4729 27.8106 32.9588 27.8106C33.6656 27.8106 34.7287 28.0769 34.8541 29.3366L34.8739 29.5324H35.08C35.08 29.5324 35.3215 28.3475 35.3746 28.0834C35.6544 28.0834 37.7231 28.0834 38.1368 28.0834C38.0362 28.575 36.085 38.1068 36.085 38.1068C35.5977 40.5016 34.0856 41.6943 31.31 41.6943C28.7391 41.6943 28.3574 40.1532 28.2993 39.6767C28.2773 39.4953 28.3368 38.9605 28.3368 38.9605C28.6329 38.9605 30.6492 38.9605 31.0253 38.9605C31.0253 38.9626 31.0253 38.9626 31.0253 38.9626C31.0267 39.2067 31.0451 39.5651 31.1259 39.6666C31.2371 39.8055 31.3292 39.9697 31.7562 39.9697C32.3221 39.9697 32.8639 39.8041 33.1281 38.5048L33.5856 36.2554H33.3653L33.3037 36.362C32.7534 37.3301 31.7279 37.8196 30.6471 37.8196C29.9821 37.8196 29.4962 37.6202 29.1655 37.2063ZM31.9078 32.9615C31.6061 34.448 31.6188 35.0188 31.9149 35.388C32.0615 35.5716 32.281 35.6601 32.5849 35.6601C33.4248 35.6601 33.8342 35.1419 34.2613 33.0501C34.5658 31.5522 34.5977 30.6006 34.3059 30.2356C34.1628 30.0585 33.9532 29.9707 33.6642 29.9707C32.7966 29.9707 32.3334 30.8698 31.9078 32.9615Z" fill="white"/>
<path d="M42.5658 28.0835C42.4673 28.5665 40.5919 37.7866 40.5261 38.1069C40.2428 38.1069 37.9566 38.1069 37.5352 38.1069C37.6343 37.6225 39.5119 28.4038 39.5777 28.0835C39.8603 28.0835 42.1458 28.0835 42.5658 28.0835Z" fill="white"/>
<path d="M48.0577 24.7393C47.9578 25.2309 45.4032 37.7816 45.3359 38.1069C45.0526 38.1069 42.7678 38.1069 42.3457 38.1069C42.4456 37.6139 45.0009 25.0639 45.0675 24.7393C45.3522 24.7393 47.6363 24.7393 48.0577 24.7393Z" fill="white"/>
<path d="M52.8525 24.7393C52.7513 25.2309 50.1966 37.7816 50.1286 38.1069C49.8461 38.1069 47.5591 38.1069 47.1392 38.1069C47.2404 37.6139 49.7958 25.0639 49.8616 24.7393C50.1456 24.7393 52.4326 24.7393 52.8525 24.7393Z" fill="white"/>
<path d="M29.5908 27.8107C28.6106 27.8107 27.4448 28.5082 26.8754 29.6282L26.8166 29.7441H26.5978C26.5978 29.7441 26.8605 28.4521 26.9349 28.0835C26.8789 28.0835 26.7897 28.0835 26.6785 28.0835V28.0821C26.3534 28.0821 24.2521 28.0821 23.8342 28.0821C23.8548 28.2073 23.8675 28.3383 23.8682 28.4809C23.8703 28.8026 23.825 29.174 23.7457 29.6203C23.1918 32.3419 22.0919 37.7398 22.0176 38.1069C22.4383 38.1069 24.7245 38.1069 25.0092 38.1069C25.2004 37.1654 26.1332 32.5759 26.1332 32.5759C26.415 31.1953 27.2118 30.5525 28.6382 30.5525C28.8847 30.5525 29.1007 30.5662 29.3139 30.5978C29.3804 30.2725 29.7976 28.2217 29.8805 27.8107C29.7353 27.8107 29.5908 27.8107 29.5908 27.8107Z" fill="white"/>
<path d="M4.8394 37.5847C4.09292 36.6532 4.05963 34.9401 4.72608 31.67C5.78986 26.4427 7.32887 24.6784 10.8219 24.6784C12.2179 24.6784 13.1981 25.0167 13.7335 25.684C14.0798 26.1152 14.2548 26.7047 14.259 27.4425C14.2611 27.8449 14.213 28.2926 14.1131 28.7814C14.1131 28.7814 14.0217 29.2276 13.9708 29.4803C13.6867 29.4803 11.0266 29.4803 11.0266 29.4803C11.0266 29.4803 11.2447 28.0536 11.2426 27.7391C11.2405 27.3849 11.227 27.1934 11.0939 27.0149C10.9558 26.8299 10.7511 26.6817 10.4288 26.6817C9.1278 26.6817 8.70002 27.9413 7.9592 31.5814C7.3834 34.4067 7.17801 35.7038 7.62208 36.2581C7.79064 36.4668 8.04419 36.5683 8.40044 36.5683C9.42526 36.5683 9.82896 35.6757 10.3438 33.1917C10.6264 33.1917 12.8893 33.1917 13.31 33.1917C13.2512 33.4796 13.1542 33.9547 13.1542 33.9547C12.5302 37.0182 10.7638 38.5723 7.90254 38.5723C6.35291 38.5723 5.37979 38.257 4.8394 37.5847Z" fill="white"/>
<path d="M53.4878 24.7317H54.3851L54.3546 24.8771H53.9849L53.7194 26.1836H53.5614L53.827 24.8771H53.458L53.4878 24.7317Z" fill="white"/>
<path d="M55.4709 24.7317H55.7485L55.4532 26.1836H55.2953L55.5382 24.9873C55.5509 24.9254 55.5672 24.8656 55.5757 24.8037H55.5722C55.5375 24.8886 55.5134 24.9426 55.4886 24.9988L54.9482 26.1836H54.7598L54.7053 24.9815C54.7025 24.9311 54.7003 24.8829 54.7003 24.8037H54.6961C54.6833 24.8656 54.6741 24.929 54.6614 24.9916L54.4192 26.1836H54.2612L54.5566 24.7317H54.8363L54.8852 25.8647C54.888 25.9266 54.8838 25.9864 54.8717 26.0799H54.876C54.9008 26.0058 54.9249 25.9345 54.9567 25.8626L55.4709 24.7317Z" fill="white"/>
<path d="M42.8223 26.9007C43.0567 21.3913 36.5203 17.2552 30.4203 18.5415C24.323 19.8271 21.376 25.2221 20.6055 26.8892H21.6027C22.9377 24.6074 24.289 22.836 26.5929 22.1766C28.0562 21.757 29.2056 21.8534 32.0358 23.4579C33.3396 24.1971 36.2895 26.4199 39.4588 26.864C40.835 27.0569 42.8223 26.9007 42.8223 26.9007Z" fill="#008350"/>
</g>
<defs>
<clipPath id="clip0_307_69">
<rect width="52" height="24" fill="white" transform="translate(4 18)"/>
</clipPath>
</defs>
</svg>
