<svg width="60" height="60" viewBox="0 0 60 60" fill="none" xmlns="http://www.w3.org/2000/svg">
<rect width="60" height="60" fill="white"/>
<g clip-path="url(#clip0_307_91)">
<path d="M6.17273 28.5597C5.71929 28.0967 5.42732 27.4223 5.42732 26.5819C5.413 25.8614 5.67411 25.1622 6.15793 24.6256C6.37305 24.3916 6.6344 24.2043 6.92566 24.0754C7.2169 23.9464 7.53178 23.8787 7.85057 23.8763C8.99829 23.8763 9.80828 24.6792 9.81234 25.3656C9.81234 25.7349 9.57687 26.0199 9.25797 26.0199C9.10868 26.0214 8.96441 25.9664 8.85432 25.8661C8.79665 25.8108 8.75129 25.7442 8.72115 25.6704C8.69102 25.5967 8.6768 25.5174 8.6794 25.4379C8.68314 25.2715 8.75277 25.1133 8.87316 24.9976C8.77826 24.843 8.64285 24.717 8.48143 24.6331C8.32002 24.5492 8.13869 24.5105 7.95687 24.5213C7.75892 24.5233 7.56479 24.5757 7.39306 24.6737C7.22133 24.7716 7.07773 24.9117 6.97599 25.0806C6.70634 25.5308 6.57318 26.0489 6.59252 26.5726C6.57217 27.0988 6.70988 27.6192 6.98811 28.0672C7.09216 28.236 7.23708 28.376 7.4096 28.4747C7.58212 28.5733 7.77676 28.6274 7.9757 28.6319C8.44394 28.6319 8.74264 28.4192 8.89334 28.1569C8.83323 28.1003 8.78512 28.0323 8.75184 27.9569C8.71857 27.8815 8.7008 27.8003 8.69959 27.718C8.69695 27.6384 8.71102 27.559 8.7409 27.4851C8.77079 27.4111 8.81583 27.3442 8.87316 27.2885C8.98594 27.1873 9.13303 27.1324 9.2849 27.1346C9.60375 27.1346 9.8379 27.4196 9.8379 27.7876C9.8379 28.4807 9.03058 29.2755 7.87748 29.2782C7.55937 29.2785 7.24446 29.215 6.95156 29.0915C6.65867 28.9681 6.39378 28.7872 6.17273 28.5597ZM6.17273 28.5597C5.71929 28.0967 5.42732 27.4223 5.42732 26.5819C5.413 25.8614 5.67411 25.1622 6.15793 24.6256C6.37305 24.3916 6.6344 24.2043 6.92566 24.0754C7.2169 23.9464 7.53178 23.8787 7.85057 23.8763C8.99829 23.8763 9.80828 24.6792 9.81234 25.3656C9.81234 25.7349 9.57687 26.0199 9.25797 26.0199C9.10868 26.0214 8.96441 25.9664 8.85432 25.8661C8.79665 25.8108 8.75129 25.7442 8.72115 25.6704C8.69102 25.5967 8.6768 25.5174 8.6794 25.4379C8.68314 25.2715 8.75277 25.1133 8.87316 24.9976C8.77826 24.843 8.64285 24.717 8.48143 24.6331C8.32002 24.5492 8.13869 24.5105 7.95687 24.5213C7.75892 24.5233 7.56479 24.5757 7.39306 24.6737C7.22133 24.7716 7.07773 24.9117 6.97599 25.0806C6.70634 25.5308 6.57318 26.0489 6.59252 26.5726C6.57217 27.0988 6.70988 27.6192 6.98811 28.0672C7.09216 28.236 7.23708 28.376 7.4096 28.4747C7.58212 28.5733 7.77676 28.6274 7.9757 28.6319C8.44394 28.6319 8.74264 28.4192 8.89334 28.1569C8.83323 28.1003 8.78512 28.0323 8.75184 27.9569C8.71857 27.8815 8.7008 27.8003 8.69959 27.718C8.69695 27.6384 8.71102 27.559 8.7409 27.4851C8.77079 27.4111 8.81583 27.3442 8.87316 27.2885C8.98594 27.1873 9.13303 27.1324 9.2849 27.1346C9.60375 27.1346 9.8379 27.4196 9.8379 27.7876C9.8379 28.4807 9.03058 29.2755 7.87748 29.2782C7.55937 29.2785 7.24446 29.215 6.95156 29.0915C6.65867 28.9681 6.39378 28.7872 6.17273 28.5597ZM6.17273 28.5597C5.71929 28.0967 5.42732 27.4223 5.42732 26.5819C5.413 25.8614 5.67411 25.1622 6.15793 24.6256C6.37305 24.3916 6.6344 24.2043 6.92566 24.0754C7.2169 23.9464 7.53178 23.8787 7.85057 23.8763C8.99829 23.8763 9.80828 24.6792 9.81234 25.3656C9.81234 25.7349 9.57687 26.0199 9.25797 26.0199C9.10868 26.0214 8.96441 25.9664 8.85432 25.8661C8.79665 25.8108 8.75129 25.7442 8.72115 25.6704C8.69102 25.5967 8.6768 25.5174 8.6794 25.4379C8.68314 25.2715 8.75277 25.1133 8.87316 24.9976C8.77826 24.843 8.64285 24.717 8.48143 24.6331C8.32002 24.5492 8.13869 24.5105 7.95687 24.5213C7.75892 24.5233 7.56479 24.5757 7.39306 24.6737C7.22133 24.7716 7.07773 24.9117 6.97599 25.0806C6.70634 25.5308 6.57318 26.0489 6.59252 26.5726C6.57217 27.0988 6.70988 27.6192 6.98811 28.0672C7.09216 28.236 7.23708 28.376 7.4096 28.4747C7.58212 28.5733 7.77676 28.6274 7.9757 28.6319C8.44394 28.6319 8.74264 28.4192 8.89334 28.1569C8.83323 28.1003 8.78512 28.0323 8.75184 27.9569C8.71857 27.8815 8.7008 27.8003 8.69959 27.718C8.69695 27.6384 8.71102 27.559 8.7409 27.4851C8.77079 27.4111 8.81583 27.3442 8.87316 27.2885C8.98594 27.1873 9.13303 27.1324 9.2849 27.1346C9.60375 27.1346 9.8379 27.4196 9.8379 27.7876C9.8379 28.4807 9.03058 29.2755 7.87748 29.2782C7.55937 29.2785 7.24446 29.215 6.95156 29.0915C6.65867 28.9681 6.39378 28.7872 6.17273 28.5597ZM22.709 26.7706C22.783 26.7706 22.8032 26.7519 22.8167 26.7278C22.8326 26.6851 22.839 26.6394 22.8355 26.594C22.8343 26.5027 22.8149 26.4125 22.7785 26.3287C22.742 26.2449 22.6892 26.1691 22.6232 26.1056C22.5572 26.0422 22.4791 25.9924 22.3936 25.9591C22.3082 25.9257 22.2169 25.9096 22.125 25.9116C21.5869 25.9116 21.3702 26.3397 21.3366 26.7706H22.709ZM12.0445 27.3862C11.6301 27.3942 11.361 27.5869 11.361 27.9669C11.3575 28.0491 11.3716 28.1311 11.4023 28.2074C11.433 28.2839 11.4797 28.3529 11.5392 28.41C11.5987 28.4672 11.6697 28.5111 11.7475 28.539C11.8253 28.5669 11.9082 28.578 11.9907 28.5717C12.119 28.5669 12.2448 28.5346 12.3593 28.4768C12.4738 28.4191 12.5743 28.3373 12.6541 28.2372V27.71C12.6493 27.6648 12.6332 27.6216 12.607 27.5844C12.5809 27.5472 12.5457 27.5172 12.5047 27.4972C12.3662 27.421 12.2094 27.3839 12.0512 27.3902L12.0445 27.3862ZM27.7358 27.1761C27.7358 28.1957 28.1839 28.6332 28.6211 28.6346C29.1203 28.6346 29.4823 28.1957 29.4863 27.3367C29.5014 26.9675 29.4079 26.602 29.2172 26.2849C29.151 26.1732 29.0572 26.0802 28.9446 26.0149C28.832 25.9495 28.7044 25.914 28.574 25.9116C28.0547 25.9116 27.7318 26.3799 27.7291 27.1734L27.7358 27.1761ZM14.7167 29.1163C14.5552 29.0735 14.4476 28.9825 14.4476 28.8487C14.4496 28.7905 14.4643 28.7334 14.4906 28.6814L14.5001 28.6614H14.5202C14.6135 28.644 14.7014 28.6055 14.7773 28.549C14.8714 28.47 14.9118 28.3603 14.9118 28.0525V26.5003C14.9037 26.2327 14.8418 26.1471 14.6238 26.1404C14.5655 26.1415 14.5075 26.1478 14.4503 26.1591H14.4167L14.4045 26.1283C14.3819 26.0745 14.37 26.0168 14.3696 25.9584C14.3696 25.6493 14.7153 25.4914 14.9468 25.4231C15.0289 25.3963 15.1146 25.3818 15.2011 25.3803C15.5146 25.3803 15.6841 25.5998 15.7581 25.8821C15.964 25.5529 16.2963 25.3348 16.6112 25.3335C16.6889 25.3295 16.7667 25.3413 16.8397 25.368C16.9128 25.3947 16.9796 25.4359 17.0362 25.4891C17.0928 25.5422 17.1379 25.6063 17.169 25.6773C17.2 25.7483 17.2162 25.8248 17.2167 25.9022C17.2193 25.9709 17.2084 26.0395 17.1844 26.104C17.1605 26.1685 17.1239 26.2277 17.077 26.2782C17.0299 26.3286 16.9734 26.3694 16.9106 26.398C16.8478 26.4268 16.7798 26.4429 16.7107 26.4455C16.5994 26.4476 16.4908 26.411 16.4037 26.3422C16.3165 26.2733 16.2562 26.1764 16.2331 26.0681C16.0555 26.127 15.8025 26.3478 15.7998 27.1118V28.0485C15.7998 28.355 15.8442 28.4646 15.9344 28.5436C16.0386 28.6037 16.1539 28.6423 16.2735 28.6573H16.2936L16.3031 28.6774C16.3315 28.7332 16.3476 28.7943 16.3501 28.8567C16.3501 28.9825 16.256 29.0695 16.1026 29.111C15.8785 29.1621 15.6487 29.1833 15.4191 29.1738C15.1808 29.1828 14.9425 29.1608 14.7099 29.1083L14.7167 29.1163ZM17.8302 29.1083C17.6688 29.0655 17.5611 28.9745 17.5611 28.8407C17.5631 28.7825 17.5778 28.7254 17.6041 28.6734L17.6136 28.6533H17.6338C17.7266 28.6362 17.8141 28.5977 17.8894 28.5409C17.9836 28.462 18.024 28.3523 18.024 28.0445V26.5003C18.024 26.2327 17.9553 26.1471 17.7373 26.1404C17.679 26.1415 17.621 26.1478 17.5638 26.1591H17.5302L17.518 26.1283C17.4949 26.0746 17.4826 26.0168 17.4817 25.9584C17.4885 25.6493 17.8288 25.4914 18.0603 25.4231C18.1424 25.3962 18.2281 25.3817 18.3146 25.3803C18.6294 25.3803 18.7976 25.5998 18.8716 25.8835C19.0775 25.5529 19.4098 25.3348 19.7233 25.3348C19.801 25.3307 19.8787 25.3422 19.9517 25.3688C20.0248 25.3954 20.0917 25.4365 20.1483 25.4895C20.2049 25.5426 20.2501 25.6065 20.2811 25.6774C20.3121 25.7484 20.3284 25.8248 20.3288 25.9022C20.3358 26.0393 20.2882 26.1737 20.1962 26.2761C20.1043 26.3786 19.9755 26.4408 19.8377 26.4495C19.7263 26.4518 19.6176 26.4154 19.5304 26.3465C19.4432 26.2776 19.3829 26.1805 19.36 26.0721C19.1824 26.131 18.9281 26.3518 18.9254 27.1159V28.0525C18.9254 28.359 18.9712 28.4687 19.06 28.5476C19.1643 28.6075 19.2796 28.6462 19.399 28.6614H19.4192L19.4287 28.6814C19.4567 28.7372 19.4723 28.7984 19.4744 28.8607C19.4744 28.9865 19.3816 29.0735 19.2282 29.115C19.0046 29.1661 18.7752 29.1872 18.546 29.1779C18.3073 29.1869 18.0685 29.1648 17.8356 29.1123L17.8302 29.1083ZM24.438 29.1123C24.2765 29.0681 24.1689 28.9785 24.1689 28.8447C24.1708 28.7865 24.1855 28.7294 24.2119 28.6774L24.22 28.6587H24.2415C24.3347 28.6413 24.4227 28.6029 24.4985 28.5463C24.5914 28.4673 24.6331 28.3576 24.6331 28.0498V26.0173L24.0814 25.9985L24.072 25.9745C24.0455 25.9136 24.0314 25.8481 24.0303 25.7818C24.0299 25.737 24.0387 25.6926 24.0561 25.6513C24.0736 25.6101 24.0994 25.5728 24.132 25.5418C24.1645 25.5108 24.2031 25.4868 24.2452 25.4713C24.2875 25.4557 24.3325 25.4489 24.3774 25.4513H24.6183V25.2144C24.6183 24.6685 24.7205 24.358 24.8605 24.1439C25.0744 23.8121 25.4485 23.5846 26.0163 23.5846C26.7307 23.5846 27.3281 23.9164 27.3322 24.4463C27.3358 24.5138 27.3257 24.5813 27.3023 24.6448C27.279 24.7083 27.243 24.7664 27.1965 24.8157C27.15 24.865 27.0939 24.9044 27.0317 24.9315C26.9694 24.9586 26.9023 24.9729 26.8343 24.9735C26.7076 24.9719 26.5863 24.9215 26.4961 24.8329C26.4058 24.7444 26.3534 24.6246 26.3499 24.4985C26.3513 24.4036 26.3792 24.3109 26.4307 24.2309C26.3272 24.158 26.2021 24.1217 26.0755 24.1279C25.9934 24.1192 25.9104 24.1336 25.8362 24.1696C25.762 24.2056 25.6994 24.2616 25.6557 24.3313C25.5758 24.4937 25.5402 24.6741 25.552 24.8545V25.4405H26.4939L26.5047 25.466C26.5316 25.5281 26.5453 25.595 26.545 25.6627C26.5482 25.7551 26.5159 25.8452 26.4547 25.9148C26.3935 25.9844 26.3079 26.0282 26.2154 26.0373C26.1454 26.0373 26.0701 26.0373 26.0028 26.0373C25.8454 26.0373 25.6893 26.0266 25.5736 26.024V28.0525C25.5736 28.3576 25.6261 28.4673 25.7189 28.5476C25.8399 28.6079 25.9706 28.6464 26.1051 28.6614H26.1252L26.1346 28.6814C26.1589 28.7293 26.1723 28.7818 26.1737 28.8353C26.1737 28.9691 26.058 29.0628 25.8858 29.103C25.6421 29.1572 25.3925 29.1802 25.143 29.1712C24.9035 29.18 24.6638 29.158 24.4299 29.1056L24.438 29.1123ZM35.6864 29.1056C35.5249 29.0628 35.4173 28.9718 35.4173 28.838C35.4191 28.7794 35.4338 28.7218 35.4604 28.6694L35.4684 28.6507H35.4886C35.5812 28.6331 35.6683 28.5941 35.7429 28.5369C35.8398 28.4593 35.8775 28.3496 35.8775 28.0418V26.5003C35.8708 26.2327 35.8102 26.1471 35.5922 26.1404C35.5339 26.1415 35.4758 26.1478 35.4187 26.1591H35.385L35.3716 26.1283C35.3501 26.0751 35.3387 26.0184 35.3379 25.9611C35.3379 25.6506 35.6851 25.4914 35.9152 25.4258C35.9986 25.3987 36.0857 25.3843 36.1735 25.383C36.4856 25.383 36.6552 25.6051 36.7265 25.8928C36.931 25.5583 37.2566 25.3375 37.5769 25.3362C37.6547 25.3318 37.7326 25.3433 37.8058 25.3699C37.8791 25.3965 37.946 25.4376 38.0027 25.4909C38.0594 25.5441 38.1045 25.6083 38.1354 25.6795C38.1663 25.7506 38.1823 25.8273 38.1823 25.9049C38.1854 25.9732 38.1749 26.0415 38.1514 26.1059C38.1278 26.1702 38.0918 26.2293 38.0454 26.2797C37.9989 26.3302 37.9428 26.3711 37.8805 26.4C37.8181 26.4289 37.7505 26.4452 37.6818 26.4482C37.5699 26.4507 37.4607 26.4144 37.3728 26.3456C37.2849 26.2767 37.2238 26.1795 37.2001 26.0708C37.0238 26.1283 36.7736 26.3491 36.7709 27.1145V28.0512C36.7709 28.3576 36.8153 28.4687 36.9055 28.5463C37.0101 28.6054 37.1252 28.644 37.2445 28.66H37.2647L37.2741 28.6801C37.3034 28.7361 37.3199 28.7977 37.3226 28.8607C37.3226 28.9865 37.2284 29.0722 37.0763 29.1137C36.8532 29.1648 36.6243 29.1859 36.3955 29.1765C36.1573 29.1855 35.9189 29.1634 35.6864 29.111V29.1056ZM28.574 29.2287C28.072 29.2344 27.5882 29.0419 27.2286 28.6935C27.0453 28.5069 26.9014 28.2858 26.8053 28.0431C26.7092 27.8005 26.6628 27.5412 26.6688 27.2804C26.6661 27.0263 26.7144 26.7742 26.8108 26.5388C26.9073 26.3034 27.0499 26.0895 27.2305 25.9096C27.411 25.7297 27.6258 25.5874 27.8623 25.491C28.0987 25.3946 28.3521 25.3461 28.6077 25.3482C28.861 25.3419 29.113 25.386 29.3489 25.4779C29.5848 25.5698 29.7999 25.7077 29.9815 25.8835C30.1594 26.0701 30.2985 26.2898 30.3909 26.5299C30.4832 26.7701 30.527 27.0261 30.5197 27.2831C30.5298 27.5404 30.4865 27.797 30.3924 28.0369C30.2984 28.2768 30.1556 28.4949 29.9731 28.6774C29.7905 28.86 29.572 29.0032 29.3313 29.098C29.0906 29.1929 28.8328 29.2374 28.574 29.2287ZM20.3382 27.3554C20.3226 26.8247 20.5123 26.3084 20.8684 25.9129C21.0478 25.7275 21.2643 25.5815 21.5039 25.4842C21.7435 25.387 22.0009 25.3406 22.2596 25.3482C22.4747 25.3395 22.6892 25.3765 22.8888 25.4568C23.0883 25.5371 23.2683 25.6588 23.4167 25.8139C23.6562 26.0763 23.7895 26.4176 23.7908 26.772C23.794 26.955 23.7505 27.136 23.6643 27.2979L23.6522 27.3179H21.3285C21.3675 27.9869 21.7981 28.4607 22.5476 28.4633C22.7227 28.4645 22.8961 28.4294 23.0569 28.3603C23.2177 28.2912 23.3622 28.1896 23.4813 28.0619L23.5069 28.0298L23.5392 28.0539C23.5855 28.0889 23.622 28.135 23.6456 28.1878C23.6691 28.2407 23.6788 28.2987 23.6737 28.3563C23.6737 28.7443 23.2149 29.2408 22.2017 29.2408C21.9544 29.2404 21.7096 29.1912 21.4815 29.0959C21.2535 29.0007 21.0467 28.8613 20.8733 28.6859C20.6999 28.5104 20.5633 28.3025 20.4714 28.074C20.3796 27.8456 20.3343 27.6013 20.3382 27.3554ZM33.7422 29.0681C33.675 28.96 33.6293 28.8401 33.6076 28.7149C33.5699 28.7577 33.5255 28.8032 33.4582 28.8674C33.2044 29.1079 32.867 29.2417 32.5164 29.2408C32.337 29.2472 32.1583 29.2146 31.9928 29.1453C31.8273 29.076 31.6791 28.9715 31.5584 28.8393C31.2247 28.4379 31.2274 27.9415 31.2274 27.2336V26.5338C31.2193 26.2568 31.1319 26.1618 30.8722 26.1538C30.8385 26.1538 30.8022 26.1538 30.7619 26.1538H30.7309L30.7202 26.1243C30.7 26.0778 30.6895 26.0278 30.6892 25.9771C30.6973 25.6439 31.1211 25.4673 31.3687 25.4151C31.451 25.4007 31.5341 25.3917 31.6176 25.3884C31.7008 25.3821 31.7844 25.3951 31.8617 25.4265C31.939 25.4578 32.0079 25.5066 32.063 25.569C32.1596 25.7031 32.207 25.866 32.1975 26.0307V27.2042C32.1975 27.6377 32.2285 27.9615 32.3253 28.1703C32.3667 28.27 32.4393 28.3538 32.5324 28.4092C32.6255 28.4647 32.734 28.4888 32.842 28.478C32.96 28.4848 33.0775 28.4587 33.1814 28.4027C33.2852 28.3467 33.3714 28.2629 33.43 28.1609C33.5347 27.9529 33.5843 27.7216 33.574 27.4892V26.5391C33.5659 26.2621 33.4785 26.1658 33.2188 26.1591C33.182 26.1573 33.1452 26.1573 33.1084 26.1591H33.0775L33.0654 26.1297C33.0463 26.0829 33.0362 26.033 33.0358 25.9825C33.0438 25.6493 33.4663 25.4727 33.7166 25.4205C33.7984 25.406 33.8811 25.397 33.9642 25.3937C34.0476 25.3872 34.1314 25.4001 34.209 25.4315C34.2865 25.4629 34.3557 25.5118 34.4109 25.5744C34.5081 25.7081 34.5556 25.8713 34.5454 26.036C34.5454 26.1698 34.532 26.4093 34.532 27.4089C34.532 27.8317 34.532 28.0566 34.532 28.1248C34.532 28.4125 34.6356 28.5409 34.9033 28.5463H34.9948H35.0258L35.0365 28.5757C35.0558 28.6216 35.0662 28.6706 35.0675 28.7202C35.0567 29.0441 34.6329 29.1738 34.3867 29.2234C34.3102 29.2369 34.2329 29.2454 34.1552 29.2488C34.0783 29.2553 34.001 29.2424 33.9305 29.2113C33.8599 29.1802 33.7984 29.1319 33.7516 29.0708L33.7422 29.0681ZM10.3384 28.0311C10.335 27.8616 10.3732 27.6938 10.4496 27.5423C10.526 27.3908 10.6384 27.26 10.777 27.1613C11.1037 26.945 11.4909 26.8373 11.8831 26.8536C12.144 26.8499 12.4033 26.8954 12.6473 26.9874V26.5753C12.6473 26.1578 12.4818 25.9196 12.0109 25.9142C11.859 25.9191 11.7087 25.9452 11.5642 25.9918C11.5795 26.0513 11.5876 26.1124 11.5884 26.1738C11.5905 26.3071 11.5426 26.4365 11.4538 26.5365C11.4085 26.5847 11.3534 26.6231 11.2922 26.6489C11.2311 26.6747 11.1651 26.6875 11.0986 26.6863C11.0344 26.6855 10.9709 26.6719 10.912 26.6465C10.853 26.6211 10.7997 26.5843 10.7552 26.5383C10.7106 26.4922 10.6757 26.4378 10.6524 26.3782C10.6292 26.3187 10.618 26.2551 10.6196 26.1912C10.6196 25.6841 11.2453 25.3429 12.0714 25.3429C12.728 25.3429 13.1398 25.4967 13.3591 25.7777C13.5582 26.0307 13.5676 26.3986 13.569 26.9191V28.2774C13.569 28.5449 13.7224 28.6105 14.0507 28.6614H14.0883V28.6988C14.0695 29.0561 13.8044 29.2047 13.5205 29.2341C13.4959 29.2354 13.4712 29.2354 13.4465 29.2341C13.3061 29.238 13.1675 29.2009 13.0479 29.1274C12.9284 29.054 12.8331 28.9473 12.7738 28.8206C12.4711 29.0809 12.0879 29.2302 11.6879 29.2435C10.9251 29.2435 10.3425 28.731 10.3425 28.0298" fill="#1D5BC6"/>
<path d="M19.4971 33.0971C19.7186 33.2407 19.9733 33.3255 20.2371 33.3434C20.4537 33.3434 20.63 33.2457 20.63 33.0142C20.63 32.7827 20.4335 32.7118 20.19 32.6396C19.8133 32.5311 19.3827 32.4081 19.3827 31.8741C19.3827 31.3402 19.8267 31.0566 20.3246 31.0566C20.6746 31.0502 21.0131 31.1815 21.2664 31.4218L20.9717 31.7818C20.8027 31.6177 20.5804 31.519 20.3447 31.5035C20.159 31.5035 19.9841 31.5958 19.9841 31.8019C19.9841 32.0387 20.2008 32.1056 20.443 32.1766C20.8211 32.2956 21.2395 32.4442 21.2395 32.9794C21.2395 33.5147 20.8358 33.801 20.2627 33.801C19.9293 33.8045 19.602 33.7115 19.3208 33.5334L19.4971 33.0971Z" fill="#1CAFE7"/>
<path d="M22.6806 31.0566C23.0626 31.0566 23.8067 31.1757 23.8067 32.3572C23.8067 33.3434 23.2806 33.7957 22.5958 33.7957C21.9109 33.7957 21.4736 33.3541 21.4736 32.4241C21.4763 31.355 22.1491 31.0566 22.6806 31.0566ZM23.177 32.4402C23.177 31.8648 23.0425 31.5102 22.6496 31.5102C22.2567 31.5102 22.102 31.8594 22.102 32.3532C22.102 32.847 22.18 33.3447 22.6402 33.3447C23.0169 33.3434 23.177 32.9755 23.177 32.4402Z" fill="#1CAFE7"/>
<path d="M24.8561 30.152V32.8765C24.8561 33.1949 24.9234 33.3127 25.1346 33.3127C25.2474 33.3065 25.358 33.2788 25.4602 33.231L25.5948 33.6418C25.4059 33.7432 25.1945 33.796 24.9799 33.7957C24.2816 33.7957 24.2412 33.3943 24.2412 33.0049V30.152H24.8561Z" fill="#1CAFE7"/>
<path d="M27.9107 31.1342V33.2872L27.9525 33.7194H27.425L27.3887 33.4156H27.3725C27.289 33.5353 27.1766 33.6322 27.0457 33.6977C26.9148 33.7631 26.7695 33.795 26.6231 33.7903C26.0553 33.7903 25.77 33.4932 25.77 32.8857V31.1342H26.3849V32.7733C26.3849 33.0865 26.4428 33.318 26.7886 33.318C26.9207 33.3151 27.0469 33.2626 27.1418 33.171C27.2366 33.0794 27.2931 32.9555 27.2999 32.8242V31.1342H27.9107Z" fill="#1CAFE7"/>
<path d="M29.6358 33.3019C29.1756 33.3019 28.9792 32.9487 28.9792 32.4134C28.9792 31.8274 29.2214 31.545 29.5685 31.545C29.6787 31.5539 29.7855 31.5871 29.8811 31.6422C29.9768 31.6973 30.0589 31.7729 30.1215 31.8635L30.509 31.545C30.4036 31.3916 30.2614 31.2666 30.0954 31.1814C29.9293 31.0961 29.7446 31.0532 29.5577 31.0566C29.0101 31.0566 28.3643 31.4058 28.3643 32.4388C28.3643 33.1414 28.6495 33.5856 29.1541 33.7328L28.8056 34.5183H29.2725L29.5941 33.7903C29.9081 33.7878 30.2128 33.6835 30.4619 33.4933L30.2291 33.0812C30.0622 33.2195 29.853 33.2974 29.6358 33.3019Z" fill="#1CAFE7"/>
<path d="M31.8515 31.0566C32.2336 31.0566 32.9777 31.1757 32.9777 32.3572C32.9777 33.3434 32.4516 33.7957 31.7667 33.7957C31.0818 33.7957 30.6445 33.3541 30.6445 32.4241C30.6472 31.355 31.3186 31.0566 31.8515 31.0566ZM31.0818 30.1199C31.2065 30.0255 31.3584 29.9734 31.5151 29.9714C31.7842 29.9714 31.9753 30.1052 32.2134 30.1052C32.3265 30.1024 32.437 30.0701 32.5336 30.0115L32.5753 30.4277C32.4702 30.4932 32.3482 30.5272 32.2242 30.5254C31.9914 30.5254 31.7169 30.4076 31.5111 30.4076C31.3757 30.4082 31.2431 30.4457 31.1276 30.516L31.0818 30.1199ZM32.3506 32.4402C32.3506 31.8648 32.2161 31.5102 31.8232 31.5102C31.4303 31.5102 31.2756 31.8594 31.2756 32.3532C31.2756 32.847 31.3536 33.3448 31.8138 33.3448C32.1879 33.3434 32.3506 32.9754 32.3506 32.4402Z" fill="#1CAFE7"/>
<path d="M35.3606 31.7712C35.3606 32.562 34.373 32.665 33.898 32.6704C33.9182 33.0049 34.1092 33.3287 34.5492 33.3287C34.7844 33.3235 35.0119 33.2443 35.1991 33.1026L35.3915 33.504C35.1278 33.6956 34.8085 33.7967 34.4819 33.7917C33.6289 33.7917 33.271 33.2471 33.271 32.4764C33.271 31.7056 33.7096 31.0526 34.5317 31.0526C35.0417 31.0566 35.3606 31.3135 35.3606 31.7712ZM34.5035 31.4942C34.0904 31.4942 33.894 31.8956 33.8778 32.2743C34.1577 32.2743 34.813 32.1927 34.813 31.7966C34.8158 31.7557 34.8098 31.7146 34.7951 31.6763C34.7805 31.6379 34.7577 31.6032 34.7283 31.5744C34.6989 31.5457 34.6636 31.5236 34.6248 31.5098C34.586 31.4959 34.5445 31.4906 34.5035 31.4942Z" fill="#1CAFE7"/>
<path d="M35.8304 33.0972C36.0515 33.2407 36.3058 33.3255 36.5691 33.3434C36.7858 33.3434 36.962 33.2458 36.962 33.0143C36.962 32.7828 36.7656 32.7119 36.5234 32.6396C36.1453 32.5312 35.7161 32.4081 35.7161 31.8742C35.7161 31.3403 36.1615 31.0566 36.6579 31.0566C37.0076 31.0504 37.3456 31.1816 37.5984 31.4219L37.3038 31.7819C37.1351 31.6181 36.9133 31.5194 36.6781 31.5035C36.4924 31.5035 36.3162 31.5959 36.3162 31.802C36.3162 32.0388 36.5328 32.1057 36.7763 32.1766C37.1531 32.2957 37.5715 32.4442 37.5715 32.9795C37.5715 33.5147 37.1679 33.8011 36.5947 33.8011C36.2612 33.8051 35.9339 33.7121 35.6528 33.5335L35.8304 33.0972Z" fill="#1CAFE7"/>
<path d="M16.7244 34.3978C16.7709 34.396 16.8173 34.4036 16.8608 34.4202C16.9042 34.4368 16.9439 34.462 16.9772 34.4943C17.0106 34.5266 17.037 34.5653 17.0548 34.6081C17.0726 34.6509 17.0815 34.6968 17.081 34.7431C17.0814 34.789 17.0723 34.8346 17.0544 34.8769C17.0364 34.9192 17.0099 34.9574 16.9765 34.9892C16.943 35.0209 16.9034 35.0455 16.8601 35.0614C16.8167 35.0773 16.7705 35.0842 16.7244 35.0816C16.678 35.0852 16.6314 35.079 16.5876 35.0635C16.5438 35.048 16.5037 35.0234 16.4701 34.9915C16.4365 34.9596 16.41 34.9209 16.3923 34.8781C16.3747 34.8353 16.3664 34.7893 16.3678 34.7431C16.3672 34.6968 16.3761 34.6509 16.394 34.6081C16.4118 34.5653 16.4382 34.5266 16.4716 34.4943C16.5049 34.462 16.5445 34.4368 16.588 34.4202C16.6315 34.4036 16.6779 34.396 16.7244 34.3978ZM16.4189 38.0683V35.483H17.0339V38.0683H16.4189Z" fill="#1CAFE7"/>
<path d="M17.612 38.0682V35.9273L17.5703 35.4803H18.0883L18.1408 35.8041C18.2291 35.6765 18.3481 35.5729 18.487 35.5028C18.6259 35.4326 18.7803 35.3983 18.936 35.4027C19.4527 35.4027 19.7581 35.6904 19.7581 36.2966V38.0656H19.1432V36.4331C19.1432 36.12 19.0867 35.8778 18.7557 35.8778C18.6868 35.8774 18.6185 35.8905 18.5547 35.9165C18.4909 35.9424 18.4328 35.9805 18.3839 36.0287C18.3349 36.0769 18.296 36.1342 18.2692 36.1974C18.2425 36.2606 18.2286 36.3284 18.2283 36.3969V38.0682H17.612Z" fill="#1CAFE7"/>
<path d="M22.4536 37.5745L22.5007 38.0683H21.9625L21.9261 37.8006H21.906C21.8257 37.9117 21.719 38.0012 21.5956 38.0615C21.4721 38.1217 21.3356 38.1507 21.1982 38.1459C20.4689 38.1459 20.1851 37.6307 20.1851 36.8961C20.1851 35.9915 20.6398 35.4161 21.5305 35.4161C21.8447 35.4264 22.1551 35.4874 22.4495 35.5968L22.4536 37.5745ZM21.844 35.9193C21.7205 35.8721 21.5889 35.8494 21.4566 35.8524C20.9654 35.8524 20.7999 36.31 20.7999 36.8653C20.7999 37.2922 20.9035 37.6976 21.3381 37.6976C21.4011 37.7023 21.4643 37.6944 21.5242 37.6743C21.584 37.6543 21.6391 37.6224 21.6863 37.5807C21.7335 37.5391 21.7718 37.4884 21.7989 37.4316C21.826 37.3749 21.8413 37.3134 21.844 37.2507V35.9193Z" fill="#1CAFE7"/>
<path d="M23.0427 38.0682V35.9273L23.001 35.4803H23.5176L23.5701 35.8041C23.6584 35.6765 23.7774 35.5729 23.9164 35.5028C24.0552 35.4326 24.2096 35.3983 24.3653 35.4027C24.882 35.4027 25.1874 35.6904 25.1874 36.2966V38.0656H24.5726V36.4331C24.5726 36.12 24.5147 35.8778 24.185 35.8778C24.1161 35.8774 24.0478 35.8905 23.984 35.9165C23.9202 35.9424 23.8622 35.9805 23.8132 36.0287C23.7642 36.0769 23.7253 36.1342 23.6986 36.1974C23.6719 36.2606 23.6579 36.3284 23.6576 36.3969V38.0682H23.0427Z" fill="#1CAFE7"/>
<path d="M27.4855 37.43L27.7183 37.8422C27.4615 38.0403 27.1444 38.1451 26.8195 38.1392C26.0592 38.1392 25.6206 37.6615 25.6206 36.7877C25.6206 35.7547 26.2665 35.4055 26.8141 35.4055C27.0009 35.4021 27.1856 35.445 27.3517 35.5302C27.5177 35.6155 27.6599 35.7404 27.7653 35.8939L27.3724 36.2124C27.3098 36.1218 27.2277 36.0461 27.1321 35.9911C27.0364 35.936 26.9296 35.9028 26.8195 35.8939C26.4736 35.8939 26.2301 36.1762 26.2301 36.7623C26.2301 37.2976 26.4265 37.6508 26.8867 37.6508C27.1058 37.6475 27.3171 37.5696 27.4855 37.43Z" fill="#1CAFE7"/>
<path d="M29.8885 36.12C29.8885 36.9108 28.9022 37.0138 28.4259 37.0192C28.4475 37.3537 28.6385 37.6775 29.0772 37.6775C29.3128 37.6726 29.5408 37.5934 29.7284 37.4514L29.9194 37.8528C29.6559 38.0447 29.3365 38.1457 29.0099 38.1405C28.1568 38.1405 27.8057 37.5959 27.8057 36.8252C27.8057 36.0544 28.2456 35.4014 29.0664 35.4014C29.5737 35.4054 29.8885 35.6623 29.8885 36.12ZM29.0314 35.843C28.617 35.843 28.4205 36.2444 28.4058 36.6231C28.6843 36.6231 29.3409 36.5415 29.3409 36.1454C29.3437 36.1045 29.3377 36.0634 29.3231 36.0251C29.3084 35.9867 29.2857 35.952 29.2563 35.9232C29.2268 35.8945 29.1915 35.8725 29.1527 35.8586C29.1139 35.8447 29.0725 35.8394 29.0314 35.843Z" fill="#1CAFE7"/>
<path d="M30.5803 34.3978C30.6269 34.396 30.6734 34.4036 30.7169 34.4202C30.7605 34.4368 30.8002 34.4619 30.8336 34.4942C30.8671 34.5265 30.8936 34.5652 30.9116 34.608C30.9296 34.6508 30.9386 34.6967 30.9382 34.7431C30.9385 34.7891 30.9293 34.8347 30.9111 34.877C30.893 34.9193 30.8664 34.9575 30.8329 34.9892C30.7993 35.021 30.7596 35.0455 30.7162 35.0614C30.6728 35.0773 30.6265 35.0842 30.5803 35.0816C30.534 35.085 30.4875 35.0787 30.4437 35.0631C30.4 35.0475 30.3601 35.0229 30.3265 34.991C30.2929 34.9591 30.2664 34.9206 30.2487 34.8779C30.231 34.8352 30.2225 34.7892 30.2238 34.7431C30.2232 34.6968 30.2321 34.6509 30.2499 34.6081C30.2678 34.5653 30.2941 34.5266 30.3275 34.4943C30.3608 34.462 30.4005 34.4368 30.4439 34.4202C30.4874 34.4036 30.5338 34.396 30.5803 34.3978ZM30.2762 38.0683V35.483H30.8911V38.0683H30.2762Z" fill="#1CAFE7"/>
<path d="M32.0897 38.0683H31.4748V35.8992L31.4277 35.483H31.935L31.9969 35.8577C32.0417 35.7277 32.1256 35.6145 32.2373 35.5336C32.349 35.4527 32.483 35.4079 32.6212 35.4054C32.7661 35.4027 32.9091 35.4383 33.0356 35.5085L32.9266 36.0277C32.815 35.9628 32.6886 35.9273 32.5593 35.9246C32.2808 35.9246 32.0991 36.1454 32.0897 36.4438V38.0683Z" fill="#1CAFE7"/>
<path d="M35.2881 37.5745L35.3352 38.0683H34.797L34.7606 37.8006H34.7404C34.6602 37.9117 34.5536 38.0012 34.4301 38.0615C34.3066 38.1217 34.1701 38.1507 34.0327 38.1459C33.3035 38.1459 33.0195 37.6307 33.0195 36.8961C33.0195 35.9915 33.4743 35.4161 34.365 35.4161C34.6796 35.4265 34.9904 35.4875 35.2854 35.5968L35.2881 37.5745ZM34.6785 35.9193C34.555 35.8722 34.4233 35.8496 34.2911 35.8524C33.8 35.8524 33.6344 36.31 33.6344 36.8653C33.6344 37.2922 33.738 37.6976 34.1727 37.6976C34.235 37.7021 34.2977 37.6943 34.357 37.6746C34.4163 37.6549 34.4711 37.6236 34.5181 37.5827C34.5652 37.5417 34.6036 37.4918 34.6312 37.436C34.6587 37.3801 34.6748 37.3195 34.6785 37.2574V35.9193Z" fill="#1CAFE7"/>
<path d="M35.8301 37.4461C36.0511 37.5896 36.3054 37.6743 36.5687 37.6923C36.7854 37.6923 36.9616 37.5946 36.9616 37.3631C36.9616 37.1316 36.7652 37.0607 36.5216 36.9885C36.1449 36.88 35.7211 36.757 35.7211 36.223C35.7211 35.6892 36.1651 35.4055 36.6629 35.4055C37.0107 35.4006 37.3466 35.5318 37.5981 35.7708L37.3034 36.1307C37.1337 35.9661 36.9103 35.8673 36.6737 35.8524C36.4867 35.8524 36.3118 35.9447 36.3118 36.1508C36.3118 36.3876 36.5284 36.4545 36.7719 36.5255C37.1487 36.6446 37.5671 36.7931 37.5671 37.3283C37.5671 37.8636 37.1635 38.1499 36.5903 38.1499C36.2569 38.1534 35.9296 38.0604 35.6484 37.8823L35.8301 37.4461Z" fill="#1CAFE7"/>
<path d="M14.5415 35.3318V38.0669H15.1551V35.9527H15.9193V35.475H15.1551V35.285C15.1551 35.0027 15.2533 34.8582 15.5116 34.8582C15.6827 34.8671 15.8498 34.9127 16.0014 34.9919L16.1521 34.5811C15.9283 34.4707 15.6833 34.4096 15.4336 34.4018C14.6344 34.3965 14.5415 34.9197 14.5415 35.3318Z" fill="#1CAFE7"/>
<path d="M44.6607 23.1497C44.669 23.1403 44.6791 23.1326 44.6904 23.1271C44.7017 23.1216 44.7141 23.1184 44.7266 23.1176C44.735 23.1181 44.7432 23.1203 44.7507 23.124C44.7582 23.1278 44.7649 23.133 44.7703 23.1394C44.7757 23.1458 44.7797 23.1532 44.7822 23.1612C44.7846 23.1692 44.7854 23.1776 44.7845 23.1859C44.7827 23.2121 44.7706 23.2366 44.7508 23.2541C43.8884 24.3246 43.26 25.5704 43.26 27.3019C43.26 29.0334 43.8884 30.2564 44.7508 31.3229C44.7705 31.341 44.7825 31.3659 44.7845 31.3925C44.7854 31.4008 44.7846 31.4092 44.7822 31.4172C44.7797 31.4252 44.7757 31.4326 44.7703 31.4389C44.7649 31.4453 44.7582 31.4505 44.7507 31.4543C44.7432 31.458 44.735 31.4602 44.7266 31.4607C44.7139 31.46 44.7014 31.4566 44.6901 31.4509C44.6788 31.4451 44.6687 31.4371 44.6607 31.4272L40.9794 27.8906C40.885 27.8208 40.8084 27.73 40.7556 27.6254C40.7028 27.5209 40.6753 27.4055 40.6753 27.2885C40.6753 27.1715 40.7028 27.0561 40.7556 26.9516C40.8084 26.847 40.885 26.7562 40.9794 26.6863L44.6607 23.1497Z" fill="#1CAFE7"/>
<path d="M47.4908 22.85C46.0497 22.85 45.4873 24.8812 45.4873 27.3019C45.4873 29.7225 46.0497 31.727 47.4908 31.727C48.3561 31.727 49.0933 31.2225 49.0946 30.809C49.0946 30.7616 49.0847 30.7147 49.0655 30.6713C49.0467 30.6278 49.0189 30.5886 48.9843 30.5561C48.5741 30.1627 48.4151 29.7693 48.4125 29.4214C48.4142 29.1244 48.5296 28.8393 48.736 28.6244C48.942 28.4094 49.2228 28.281 49.5211 28.2653C50.2544 28.2653 50.6865 28.838 50.6865 29.5793C50.6865 30.2818 50.3847 30.8679 50.0578 31.3376C50.0459 31.3548 50.039 31.3753 50.039 31.3965C50.0377 31.4126 50.0424 31.4286 50.0531 31.4412C50.0634 31.4537 50.0783 31.4617 50.0941 31.4634C50.1074 31.4621 50.1206 31.4583 50.1322 31.4521C50.1441 31.4459 50.1544 31.4375 50.1629 31.4272L53.8373 27.8906C53.9322 27.8211 54.0095 27.7304 54.0625 27.6258C54.1159 27.5212 54.1433 27.4057 54.1433 27.2885C54.1433 27.1713 54.1159 27.0557 54.0625 26.9511C54.0095 26.8465 53.9322 26.7559 53.8373 26.6863L50.1629 23.1497C50.1454 23.1299 50.1206 23.1174 50.0941 23.1149C50.086 23.1156 50.0783 23.1179 50.0711 23.1216C50.0638 23.1254 50.0578 23.1305 50.0527 23.1367C50.0471 23.143 50.0433 23.1502 50.0412 23.1579C50.039 23.1657 50.0382 23.1738 50.039 23.1818C50.0394 23.2033 50.0459 23.2243 50.0578 23.242C50.3847 23.7104 50.6865 24.2965 50.6865 24.9976C50.6865 25.7389 50.2544 26.313 49.5211 26.313C49.2228 26.297 48.942 26.1682 48.7356 25.9531C48.5296 25.7379 48.4142 25.4527 48.4125 25.1555C48.4125 24.809 48.5741 24.4156 48.9843 24.0222C49.0189 23.9897 49.0467 23.9505 49.0655 23.907C49.0847 23.8635 49.0946 23.8166 49.0946 23.7693C49.0946 23.3544 48.3561 22.85 47.4908 22.85Z" fill="#1D5BC6"/>
</g>
<defs>
<clipPath id="clip0_307_91">
<rect width="50" height="17" fill="white" transform="translate(5 22)"/>
</clipPath>
</defs>
</svg>
