<svg width="60" height="60" viewBox="0 0 60 60" fill="none" xmlns="http://www.w3.org/2000/svg">
<rect width="60" height="60" fill="#005D40"/>
<path d="M39.5503 39.9856C39.5286 41.2912 38.9962 42.5364 38.0674 43.4541C37.1385 44.3719 35.887 44.8893 34.5812 44.8953H10.9219V35.6451C10.9467 34.3363 11.4833 33.0894 12.4166 32.1716C13.3499 31.2538 14.6057 30.7382 15.9146 30.7353H39.5503V39.9974V39.9856ZM49.9983 23.1097C49.9859 24.1185 49.5772 25.0819 48.8605 25.792C48.1438 26.502 47.1766 26.9017 46.1678 26.9047H29.0666V18.4372C29.0822 17.4284 29.4939 16.4662 30.2128 15.7584C30.9317 15.0506 31.9002 14.6539 32.909 14.6541H49.9983V23.1097Z" fill="white"/>
</svg>
