<svg width="130" height="60" viewBox="0 0 130 60" fill="none" xmlns="http://www.w3.org/2000/svg">
<rect width="130" height="60" fill="white"/>
<path d="M60.252 35.1494V19.5736H66.5384C67.9093 19.5386 69.2791 19.6786 70.6146 19.9903C71.5768 20.2341 72.4686 20.6994 73.2189 21.349C74.0209 22.0453 74.6504 22.9181 75.0577 23.899C75.4829 24.958 75.6923 26.0913 75.6737 27.2324C75.6797 28.2925 75.5003 29.3455 75.1438 30.3439C74.8157 31.2682 74.3025 32.1158 73.6356 32.835C72.9022 33.6329 71.9848 34.2393 70.9634 34.6013C69.6798 35.0066 68.3366 35.1904 66.9913 35.1448L60.252 35.1494Z" fill="#231F20"/>
<path d="M26.7813 30.6067H29.2225C29.1653 31.3215 28.9479 32.0143 28.5864 32.6337C28.225 33.2531 27.7287 33.7832 27.1345 34.1847C25.9268 35.006 24.2661 35.4151 22.1525 35.4121C19.6131 35.4121 17.6203 34.698 16.174 33.2698C14.7277 31.8416 14.003 29.873 14 27.3638C14 24.8879 14.7549 22.9252 16.2646 21.4759C17.7743 20.0266 19.8049 19.3065 22.3563 19.3155C24.3823 19.3155 25.9751 19.702 27.1345 20.475C27.6906 20.8254 28.1548 21.3039 28.4881 21.8705C28.8214 22.437 29.0142 23.0751 29.0504 23.7314H26.6318C26.5762 23.3257 26.4265 22.9387 26.1945 22.6013C25.9624 22.2639 25.6546 21.9855 25.2957 21.7884C24.364 21.2716 23.3075 21.0224 22.243 21.0683C20.377 21.0683 18.9202 21.6209 17.8724 22.726C16.8247 23.8311 16.2993 25.377 16.2963 27.3638C16.2963 29.3959 16.8322 30.96 17.9041 32.056C18.976 33.1521 20.5054 33.7001 22.4922 33.7001C23.559 33.7527 24.6151 33.4657 25.5086 32.8803C25.8768 32.6215 26.1828 32.2841 26.4045 31.8924C26.6262 31.5007 26.758 31.0646 26.7903 30.6157" fill="#231F20"/>
<path d="M31.2422 35.1495V19.5737H38.1944C39.1908 19.5516 40.1874 19.6091 41.1746 19.7458C41.7459 19.8354 42.2939 20.0371 42.787 20.3391C43.3036 20.6701 43.7152 21.1414 43.9736 21.6979C44.264 22.3326 44.408 23.0245 44.3948 23.7224C44.4428 24.6382 44.1418 25.5381 43.5524 26.2406C42.8539 26.9376 41.9479 27.389 40.9708 27.5269C41.6325 27.4951 42.2811 27.7188 42.7825 28.1519C43.1629 28.5444 43.4769 29.402 43.7245 30.7245L44.114 32.8034C44.2454 33.4646 44.3631 33.9719 44.4673 34.3161C44.5448 34.6058 44.6558 34.8854 44.7979 35.1495H42.4518C42.3344 34.8984 42.2434 34.6358 42.1801 34.3659C42.0662 33.9182 41.977 33.4646 41.9129 33.0072L41.4599 30.4074C41.4304 30.0734 41.3233 29.7508 41.1471 29.4654C40.971 29.18 40.7307 28.9396 40.4454 28.7634C39.8989 28.4614 38.9236 28.3104 37.5196 28.3104H33.3256V35.1495H31.2422ZM33.3347 26.5033H37.4109C39.4082 26.5033 40.6945 26.3131 41.2788 25.9372C41.863 25.5612 42.1574 24.8683 42.1574 23.8628C42.1574 22.9358 41.8555 22.2927 41.2516 21.9334C40.6492 21.5801 39.363 21.399 37.3928 21.399H33.3256L33.3347 26.5033Z" fill="#231F20"/>
<path d="M46.416 35.1492V19.5735H57.9699V21.4214H48.5402V25.9822H57.3041V27.8437H48.5402V33.2062H58.2552V35.1492H46.416Z" fill="#231F20"/>
<path d="M79.6537 19.5735H77.457V35.1492H79.6537V19.5735Z" fill="#231F20"/>
<path d="M81.6211 21.4848V19.5735H96.8707V21.4848H90.3352V35.1492H88.1521V21.4848H81.6211Z" fill="#231F20"/>
<path d="M92.4902 35.1492L99.9633 19.5735H102.454L109.742 35.1492H107.418C105.281 30.4616 103.315 26.0909 101.186 21.3489C98.9941 25.9641 96.8246 30.5567 94.6189 35.1492H92.4902Z" fill="#231F20"/>
<path d="M100.42 18.3552L101.638 16H103.93L102.716 18.3552H100.42Z" fill="#231F20"/>
<path d="M62.5254 33.3104H66.3389C67.4428 33.3456 68.5465 33.2375 69.6226 32.9889C70.3437 32.798 71.0045 32.4271 71.5429 31.9109C72.0996 31.3577 72.5265 30.6879 72.793 29.9498C73.0818 29.1295 73.2244 28.2649 73.2142 27.3954C73.2342 26.4692 73.0806 25.5475 72.7613 24.6779C72.4779 23.9255 72.0108 23.256 71.4025 22.7303C70.8329 22.2443 70.161 21.8929 69.4369 21.7022C68.3371 21.4587 67.2112 21.3537 66.0853 21.3897H62.539L62.5254 33.3104Z" fill="#FDB913"/>
<path d="M111.01 29.239C111.001 29.7376 110.798 30.2131 110.443 30.5636C110.088 30.9141 109.611 31.1117 109.112 31.114H100.076V27.5813C100.086 27.0815 100.291 26.6053 100.647 26.2547C101.003 25.9042 101.483 25.7073 101.983 25.7062H111.01V29.2435V29.239ZM115 22.794C114.995 23.1792 114.839 23.5472 114.565 23.8183C114.291 24.0895 113.922 24.2421 113.537 24.2433H107.006V21.0095C107.012 20.6242 107.169 20.2568 107.443 19.9865C107.718 19.7161 108.088 19.5647 108.473 19.5647H115V22.794Z" fill="#005D40"/>
<path d="M107.663 41.3904C107.663 40.7472 107.985 40.2264 108.569 40.2264C109.153 40.2264 109.475 40.7472 109.475 41.3904C109.475 42.0335 109.153 42.5544 108.569 42.5544C107.985 42.5544 107.663 42.038 107.663 41.3904ZM107.296 41.3904C107.296 42.1513 107.686 42.8488 108.564 42.8488C109.443 42.8488 109.832 42.1513 109.832 41.3904C109.832 40.6295 109.443 39.932 108.564 39.932C107.686 39.932 107.296 40.634 107.296 41.3904ZM106.576 38.7997H106.25V39.2526H106.585L106.576 38.7997ZM106.25 42.7808H106.585V40.0045H106.25V42.7808ZM105.598 40.0407C105.388 39.9662 105.168 39.9294 104.946 39.932C104.758 39.9315 104.573 39.9696 104.401 40.0441C104.23 40.1185 104.075 40.2276 103.948 40.3645C103.82 40.5014 103.722 40.6632 103.66 40.8398C103.598 41.0163 103.573 41.2037 103.587 41.3904C103.587 42.1649 104.012 42.8442 104.887 42.8442C105.123 42.854 105.359 42.8218 105.584 42.7491L105.552 42.4275C105.358 42.5078 105.151 42.5508 104.941 42.5544C104.798 42.5466 104.659 42.5098 104.531 42.4463C104.403 42.3828 104.289 42.2938 104.197 42.1849C104.104 42.0759 104.035 41.9493 103.993 41.8127C103.952 41.6761 103.938 41.5324 103.954 41.3904C103.934 41.2448 103.946 41.0967 103.989 40.9562C104.031 40.8156 104.104 40.6858 104.201 40.5756C104.298 40.4653 104.417 40.377 104.551 40.3168C104.685 40.2566 104.83 40.2257 104.977 40.2264C105.18 40.2358 105.378 40.285 105.561 40.3713L105.598 40.0407ZM100.919 41.3994C100.919 40.7563 101.232 40.2354 101.825 40.2354C102.418 40.2354 102.731 40.7563 102.731 41.3994C102.731 42.0426 102.418 42.5634 101.825 42.5634C101.232 42.5634 100.919 42.0471 100.919 41.3994ZM100.552 41.3994C100.552 42.1603 100.942 42.8578 101.82 42.8578C102.699 42.8578 103.089 42.1603 103.089 41.3994C103.089 40.6385 102.699 39.941 101.82 39.941C100.942 39.941 100.552 40.6431 100.552 41.3994ZM101.517 39.7191H101.757L102.427 38.931H102.006L101.517 39.7191ZM99.8729 40.009H99.5377V40.3306C99.4445 40.1958 99.3166 40.0888 99.1674 40.021C99.0183 39.9532 98.8535 39.9272 98.6908 39.9456C97.8891 39.9456 97.5675 40.557 97.5675 41.404C97.5675 42.0199 97.8438 42.7989 98.7134 42.7989C98.8909 42.8056 99.066 42.7562 99.2139 42.6579C99.3619 42.5595 99.4751 42.4172 99.5377 42.2509C99.5377 43.0345 99.4607 43.6821 98.6002 43.6821C98.3198 43.6779 98.0441 43.6097 97.794 43.4828L97.7668 43.8271C98.0327 43.9173 98.3105 43.9677 98.5911 43.9765C99.5196 43.9765 99.8638 43.3424 99.8638 42.568L99.8729 40.009ZM97.9253 41.3994C97.9253 40.8605 98.0884 40.2354 98.7315 40.2354C99.3746 40.2354 99.5332 40.7291 99.5332 41.3994C99.5332 41.9067 99.3158 42.5 98.7089 42.5C98.102 42.5 97.9253 41.9475 97.9253 41.3994ZM95.1354 41.2047C95.1188 40.9708 95.1935 40.7396 95.3438 40.5597C95.4942 40.3798 95.7085 40.2652 95.9416 40.24C96.4398 40.24 96.6345 40.7246 96.6345 41.2047H95.1354ZM96.793 42.3551C96.5589 42.4824 96.2985 42.5537 96.0321 42.5634C95.4434 42.5634 95.1263 42.0833 95.1263 41.4991H96.9878V41.3179C96.9878 40.5661 96.6662 39.932 95.9053 39.932C95.2169 39.932 94.7594 40.5389 94.7594 41.3904C94.7594 42.2419 95.0946 42.8488 95.9959 42.8488C96.266 42.8442 96.5331 42.7905 96.784 42.6902L96.793 42.3551ZM91.9287 42.808H92.2729V41.2681C92.2729 40.8152 92.4677 40.249 93.0746 40.249C93.5275 40.249 93.7177 40.5887 93.7177 41.1141V42.808H94.0574V41.0009C94.0574 40.3894 93.7993 39.932 93.129 39.932C92.9412 39.9165 92.7536 39.9631 92.5949 40.0645C92.4361 40.166 92.3151 40.3167 92.2503 40.4936V40.0045H91.9016C91.9016 40.2219 91.9016 40.4574 91.9016 40.6612L91.9287 42.808ZM89.0482 41.413C89.0482 40.7699 89.3607 40.249 89.954 40.249C90.5473 40.249 90.8598 40.7699 90.8598 41.413C90.8598 42.0562 90.5428 42.577 89.954 42.577C89.3652 42.577 89.0482 42.0607 89.0482 41.413ZM88.6813 41.413C88.6813 42.1739 89.0708 42.8714 89.9495 42.8714C90.8281 42.8714 91.2177 42.1739 91.2177 41.413C91.2177 40.6521 90.8281 39.9546 89.9495 39.9546C89.0708 39.9546 88.6813 40.6567 88.6813 41.413ZM87.1324 42.8035H87.4675V41.4447C87.4675 40.942 87.6124 40.3306 88.1424 40.3306C88.225 40.3299 88.3072 40.3406 88.3869 40.3623V40.0045C88.3119 39.9826 88.2341 39.9719 88.156 39.9728C87.9929 39.9902 87.8389 40.0566 87.7144 40.1633C87.5898 40.2701 87.5006 40.4121 87.4585 40.5706V40.0045H87.1188C87.1399 40.2121 87.1475 40.4209 87.1414 40.6295L87.1324 42.8035ZM86.2265 40.018H85.8914V40.3396C85.7982 40.2049 85.6702 40.0979 85.5211 40.0301C85.372 39.9623 85.2072 39.9362 85.0444 39.9546C84.2382 39.9546 83.9167 40.5706 83.9167 41.413C83.9167 42.0335 84.1975 42.808 85.0625 42.808C85.2409 42.8163 85.4174 42.7677 85.5664 42.6692C85.7153 42.5707 85.8292 42.4274 85.8914 42.26C85.8914 43.048 85.8189 43.6912 84.9538 43.6912C84.675 43.6906 84.4002 43.6239 84.1522 43.4964L84.125 43.8406C84.3889 43.9319 84.6656 43.9808 84.9448 43.9856C85.8778 43.9856 86.2175 43.356 86.2175 42.577L86.2265 40.018ZM84.279 41.413C84.279 40.8741 84.442 40.249 85.0852 40.249C85.7283 40.249 85.8868 40.7427 85.8868 41.413C85.8868 41.9203 85.6694 42.5136 85.0625 42.5136C84.4556 42.5136 84.279 41.961 84.279 41.413ZM82.5942 41.4583H80.9863L81.7925 39.3568L82.5942 41.4583ZM80.085 42.8171H80.4428L80.8414 41.7935H82.7164L83.115 42.8171H83.5L82.0235 39.0035H81.6113L80.085 42.8171ZM76.0088 41.4221C76.0088 40.7789 76.3213 40.2581 76.9146 40.2581C77.5079 40.2581 77.8204 40.7789 77.8204 41.4221C77.8204 42.0652 77.4989 42.5861 76.9146 42.5861C76.3303 42.5861 76.0088 42.0697 76.0088 41.4221ZM75.6419 41.4221C75.6419 42.183 76.0269 42.8805 76.9101 42.8805C77.7933 42.8805 78.1782 42.183 78.1782 41.4221C78.1782 40.6612 77.7887 39.9637 76.9101 39.9637C76.0314 39.9637 75.6419 40.6657 75.6419 41.4221ZM73.0694 41.5851C73.0694 41.8841 73.0694 42.5906 72.2632 42.5906C71.9552 42.5906 71.7016 42.4502 71.7016 42.0833C71.7016 41.4764 72.3945 41.413 72.9743 41.413H73.0694V41.5851ZM73.1011 42.8171H73.4317C73.4091 42.6232 73.4 42.4279 73.4045 42.2328V40.9737C73.4045 40.2445 73.1237 39.9365 72.4534 39.9365C72.1746 39.9447 71.9003 40.0094 71.6472 40.1267V40.4574C71.8869 40.3022 72.168 40.2232 72.4534 40.2309C72.9063 40.2309 73.0694 40.471 73.0694 40.9465V41.0869H73.006C72.3039 41.0869 71.3302 41.1322 71.3302 42.0652C71.3302 42.3143 71.457 42.8488 72.236 42.8488C72.4136 42.8527 72.5888 42.8069 72.7417 42.7165C72.8945 42.626 73.0191 42.4945 73.1011 42.337V42.8171ZM69.6861 42.8171H70.0212V41.4583C70.0212 40.9556 70.1662 40.3441 70.7006 40.3441C70.7831 40.3458 70.8651 40.3564 70.9452 40.3758V40.018C70.8686 39.9964 70.7893 39.9857 70.7097 39.9863C70.5466 40.0037 70.3926 40.0702 70.2681 40.1769C70.1435 40.2837 70.0543 40.4257 70.0122 40.5842V40.0045H69.6725C69.6936 40.2121 69.7012 40.4209 69.6951 40.6295L69.6861 42.8171ZM68.4723 41.5851C68.4723 41.8841 68.4723 42.5906 67.6706 42.5906C67.3626 42.5906 67.1045 42.4502 67.1045 42.0833C67.1045 41.4764 67.7974 41.413 68.3772 41.413H68.4723V41.5851ZM68.504 42.8171H68.8029C68.7893 42.621 68.7893 42.4243 68.8029 42.2283V40.9646C68.8029 40.24 68.5176 39.9275 67.8473 39.9275C67.5681 39.9372 67.2939 40.0034 67.0411 40.1222V40.4574C67.2813 40.3029 67.5617 40.2225 67.8473 40.2264C68.3002 40.2264 68.4632 40.471 68.4632 40.9465V41.0869H68.3998C67.6978 41.0869 66.7285 41.1277 66.7285 42.0652C66.7285 42.3143 66.8508 42.8488 67.6344 42.8488C67.8113 42.8524 67.9857 42.8064 68.1379 42.716C68.29 42.6255 68.4137 42.4942 68.4949 42.337L68.504 42.8171ZM65.8137 41.4221C65.8137 41.9656 65.6506 42.5861 65.0075 42.5861C64.3643 42.5861 64.2058 41.9293 64.2058 41.4221C64.2058 40.9148 64.4142 40.2581 65.0075 40.2581C65.6008 40.2581 65.8137 40.8831 65.8137 41.4221ZM63.8707 43.9629H64.2058V42.3053C64.2699 42.4745 64.387 42.6185 64.5396 42.7156C64.6923 42.8128 64.8723 42.8579 65.0528 42.8442C65.8001 42.8442 66.1805 42.2147 66.1805 41.3904C66.1805 40.5661 65.859 39.932 65.0528 39.932C64.8679 39.9318 64.6871 39.9858 64.5326 40.0872C64.378 40.1886 64.2566 40.333 64.1832 40.5027V39.9954H63.848L63.8707 43.9629ZM59.9348 42.7219C60.1784 42.8174 60.4388 42.8621 60.7003 42.8533C60.8149 42.8678 60.9312 42.8585 61.0421 42.8261C61.153 42.7937 61.256 42.7388 61.3448 42.6649C61.4336 42.591 61.5062 42.4996 61.5581 42.3965C61.6101 42.2933 61.6403 42.1805 61.6468 42.0652C61.6468 41.1594 60.2881 41.2183 60.2881 40.7065C60.2881 40.3487 60.5281 40.2536 60.8724 40.2536C61.0797 40.2583 61.2842 40.3029 61.4747 40.3849L61.5064 40.086C61.2914 40.0073 61.065 39.9645 60.8361 39.9592C60.3832 39.9592 59.9529 40.1675 59.9529 40.7201C59.9529 41.5217 61.2573 41.4266 61.2573 42.0788C61.2573 42.3958 60.9765 42.5725 60.655 42.5725C60.407 42.5731 60.1627 42.5125 59.9439 42.3958L59.9348 42.7219ZM58.9611 41.558C58.9611 41.8569 58.9611 42.5634 58.1594 42.5634C57.8469 42.5634 57.5933 42.423 57.5933 42.0562C57.5933 41.4493 58.2862 41.3858 58.8659 41.3858H58.9611V41.558ZM58.9928 42.7899H59.3189C59.2963 42.596 59.2872 42.4008 59.2917 42.2056V40.9737C59.2917 40.2445 59.0109 39.9365 58.3406 39.9365C58.0617 39.9447 57.7875 40.0094 57.5344 40.1267V40.4574C57.7741 40.3022 58.0551 40.2232 58.3406 40.2309C58.7935 40.2309 58.9565 40.471 58.9565 40.9465V41.0869H58.8931C58.1911 41.0869 57.2173 41.1322 57.2173 42.0652C57.2173 42.3143 57.3442 42.8488 58.1232 42.8488C58.3008 42.8527 58.4759 42.8069 58.6288 42.7165C58.7817 42.626 58.9062 42.4945 58.9882 42.337L58.9928 42.7899ZM55.5778 42.7899H55.9129V41.4311C55.9129 40.9284 56.0579 40.317 56.5923 40.317C56.6748 40.3186 56.7568 40.3292 56.8369 40.3487V39.9909C56.7603 39.9692 56.681 39.9586 56.6014 39.9592C56.4383 39.9766 56.2843 40.043 56.1598 40.1498C56.0353 40.2565 55.946 40.3985 55.9039 40.557V40.0045H55.5687C55.5823 40.2126 55.5823 40.4214 55.5687 40.6295L55.5778 42.7899ZM54.672 38.7997H54.3096V39.2526H54.6448L54.672 38.7997ZM54.3096 42.7808H54.6448V40.0045H54.3096V42.7808ZM51.728 41.1911C51.7114 40.9572 51.7861 40.726 51.9365 40.5461C52.0868 40.3662 52.3011 40.2516 52.5342 40.2264C53.0324 40.2264 53.2272 40.711 53.2272 41.1911H51.728ZM53.4038 42.346C53.1696 42.4725 52.909 42.5423 52.6429 42.5498C52.0586 42.5498 51.7371 42.0697 51.7371 41.4855H53.5986V41.3134C53.5986 40.5661 53.277 39.9546 52.5161 39.9546C51.8277 39.9546 51.3702 40.557 51.3702 41.413C51.3702 42.269 51.7054 42.8669 52.6067 42.8669C52.8819 42.8608 53.153 42.7992 53.4038 42.6857V42.346ZM50.9354 40.0407C50.7245 39.9665 50.5023 39.9297 50.2787 39.932C50.0915 39.9315 49.9063 39.9696 49.7346 40.0441C49.5629 40.1185 49.4085 40.2276 49.2809 40.3645C49.1533 40.5014 49.0554 40.6632 48.9933 40.8398C48.9312 41.0163 48.9062 41.2037 48.9199 41.3904C48.9199 42.1649 49.3457 42.8442 50.2198 42.8442C50.4576 42.8537 50.6951 42.8215 50.9218 42.7491L50.8856 42.4275C50.6915 42.5078 50.4841 42.5508 50.2742 42.5544C50.1315 42.5466 49.9919 42.5098 49.864 42.4463C49.736 42.3828 49.6224 42.2938 49.53 42.1849C49.4376 42.0759 49.3683 41.9493 49.3265 41.8127C49.2847 41.6761 49.2712 41.5324 49.2868 41.3904C49.2682 41.2449 49.2807 41.0972 49.3236 40.9569C49.3665 40.8167 49.4388 40.6872 49.5356 40.5771C49.6324 40.467 49.7516 40.3788 49.8852 40.3183C50.0188 40.2578 50.1637 40.2265 50.3104 40.2264C50.5128 40.2358 50.7113 40.285 50.8946 40.3713L50.9354 40.0407ZM46.0892 42.7808H46.4244V41.2409C46.4244 40.788 46.6191 40.2264 47.226 40.2264C47.679 40.2264 47.8692 40.5661 47.8692 41.0869V42.7808H48.2043V41.0009C48.2043 40.3894 47.9507 39.932 47.2985 39.932C47.1109 39.9173 46.9236 39.9642 46.765 40.0655C46.6065 40.1669 46.4853 40.3172 46.4199 40.4936V40.0045H46.0666C46.0779 40.2232 46.0779 40.4424 46.0666 40.6612L46.0892 42.7808ZM44.8664 41.5534C44.8664 41.8523 44.8664 42.5589 44.0647 42.5589C43.7567 42.5589 43.4986 42.4185 43.4986 42.0516C43.4986 41.4447 44.1915 41.3813 44.7712 41.3813H44.8709L44.8664 41.5534ZM44.8981 42.7854H45.2513C45.2287 42.5915 45.2197 42.3962 45.2242 42.2011V40.9737C45.2242 40.2445 44.9433 39.9365 44.273 39.9365C43.9942 39.9447 43.7199 40.0094 43.4668 40.1267V40.4574C43.7065 40.3022 43.9876 40.2232 44.273 40.2309C44.7259 40.2309 44.889 40.471 44.889 40.9465V41.0869H44.7984C44.0964 41.0869 43.1272 41.1322 43.1272 42.0652C43.1272 42.3143 43.2494 42.8488 44.033 42.8488C44.2106 42.8527 44.3858 42.8069 44.5387 42.7165C44.6915 42.626 44.816 42.4945 44.8981 42.337V42.7854ZM40.2919 42.7854H40.6271V41.2454C40.6271 40.7925 40.8218 40.2309 41.4333 40.2309C41.8862 40.2309 42.0764 40.5706 42.0764 41.0915V42.7854H42.4116V41.0009C42.4116 40.3894 42.1579 39.932 41.5057 39.932C41.3181 39.9173 41.1308 39.9642 40.9723 40.0655C40.8137 40.1669 40.6925 40.3172 40.6271 40.4936V40.0045H40.2693C40.2879 40.2228 40.2955 40.442 40.2919 40.6612V42.7854ZM39.3861 38.7997H39.0464V39.2526H39.3634L39.3861 38.7997ZM39.0509 42.7854H39.3634V40.0045H39.0283L39.0509 42.7854ZM36.5916 42.7854H36.963V40.9737H38.3217V40.6567H36.963V39.2979H38.3625V38.9763H36.5961L36.5916 42.7854ZM32.6331 42.7219C32.8759 42.8141 33.1345 42.8572 33.394 42.8488C33.5087 42.8639 33.6254 42.8552 33.7365 42.823C33.8477 42.7909 33.951 42.7361 34.0399 42.662C34.1288 42.588 34.2015 42.4963 34.2532 42.3928C34.305 42.2893 34.3347 42.1763 34.3406 42.0607C34.3406 41.1549 33.0045 41.2137 33.0045 40.7019C33.0045 40.3487 33.2446 40.249 33.5888 40.249C33.7966 40.2494 34.002 40.2942 34.1912 40.3804L34.2229 40.0769C34.0076 39.9997 33.7812 39.9584 33.5525 39.9546C33.0996 39.9546 32.6467 40.163 32.6467 40.711C32.6467 41.5172 33.9511 41.4175 33.9511 42.0697C33.9511 42.3913 33.6703 42.568 33.3487 42.568C33.1028 42.5642 32.861 42.5038 32.6422 42.3913L32.6331 42.7219ZM30.3051 41.1956C30.2885 40.9624 30.3626 40.7319 30.512 40.5521C30.6614 40.3723 30.8745 40.2572 31.1068 40.2309C31.6095 40.2309 31.7998 40.7155 31.7998 41.1956H30.3051ZM31.9628 42.3506C31.7279 42.4759 31.4679 42.5471 31.2019 42.5589C30.6131 42.5589 30.2961 42.0743 30.2961 41.49H32.1621V41.3179C32.1621 40.5706 31.8405 39.9592 31.0751 39.9592C30.3912 39.9592 29.9338 40.5661 29.9338 41.4175C29.9338 42.269 30.2689 42.8714 31.1702 42.8714C31.4408 42.8709 31.7086 42.8171 31.9583 42.7129L31.9628 42.3506ZM27.2434 41.3858C27.2434 40.7427 27.565 40.2219 28.1493 40.2219C28.7335 40.2219 29.0551 40.7427 29.0551 41.3858C29.0551 42.029 28.7335 42.5498 28.1493 42.5498C27.565 42.5498 27.2434 42.029 27.2434 41.3858ZM26.8766 41.3858C26.8766 42.1467 27.2661 42.8442 28.1447 42.8442C29.0234 42.8442 29.3993 42.1467 29.3993 41.3858C29.3993 40.6249 29.0098 39.9275 28.1312 39.9275C27.2525 39.9275 26.863 40.6249 26.863 41.3858M27.5877 39.5742C27.6375 39.4428 27.6828 39.3749 27.8232 39.3749C27.9093 39.3842 27.9934 39.4071 28.0723 39.4428C28.1754 39.4824 28.2837 39.5068 28.3938 39.5153C28.5252 39.5153 28.7833 39.4293 28.8468 39.0307H28.6565C28.6395 39.0864 28.6045 39.1348 28.5569 39.1684C28.5094 39.2021 28.452 39.2189 28.3938 39.2164C28.3136 39.1985 28.2348 39.1742 28.1583 39.1439C28.055 39.1064 27.9466 39.085 27.8368 39.0805C27.5877 39.0805 27.4563 39.3387 27.4065 39.5697L27.5877 39.5742ZM26.4191 40.0271C26.2117 39.9589 25.9944 39.9252 25.776 39.9275C25.5889 39.927 25.4036 39.9651 25.2319 40.0395C25.0602 40.114 24.9058 40.2231 24.7782 40.36C24.6506 40.4969 24.5527 40.6587 24.4906 40.8352C24.4285 41.0118 24.4035 41.1992 24.4173 41.3858C24.4173 42.1603 24.843 42.8442 25.7171 42.8442C25.9538 42.8544 26.1903 42.8206 26.4146 42.7446L26.3829 42.423C26.1888 42.5032 25.9814 42.5462 25.7715 42.5498C25.6286 42.5427 25.4887 42.5064 25.3604 42.443C25.2322 42.3797 25.1182 42.2908 25.0257 42.1817C24.9332 42.0726 24.864 41.9457 24.8224 41.8088C24.7809 41.6719 24.7678 41.528 24.7841 41.3858C24.7647 41.2403 24.7767 41.0922 24.8193 40.9517C24.8619 40.8111 24.9342 40.6813 25.0311 40.571C25.1281 40.4607 25.2476 40.3725 25.3816 40.3123C25.5155 40.252 25.6608 40.2212 25.8077 40.2219C26.0087 40.2308 26.2059 40.2801 26.3874 40.3668L26.4191 40.0271ZM25.4318 43.2337C25.507 43.2248 25.583 43.2248 25.6582 43.2337C25.6826 43.2319 25.7072 43.2349 25.7304 43.2425C25.7536 43.2502 25.7751 43.2624 25.7937 43.2784C25.8122 43.2944 25.8274 43.3139 25.8383 43.3357C25.8493 43.3576 25.8558 43.3814 25.8575 43.4058C25.8599 43.4108 25.8612 43.4162 25.8612 43.4217C25.8612 43.4272 25.8599 43.4326 25.8575 43.4375C25.8575 43.5734 25.7443 43.6368 25.5812 43.6368C25.4099 43.6278 25.2441 43.5731 25.1012 43.4783L25.074 43.6867C25.246 43.7552 25.4281 43.795 25.6129 43.8044C25.8575 43.8044 26.1972 43.7501 26.1972 43.4285C26.1978 43.3821 26.1893 43.336 26.1721 43.2929C26.1549 43.2499 26.1293 43.2106 26.0969 43.1774C26.0646 43.1441 26.0259 43.1176 25.9833 43.0993C25.9407 43.081 25.8949 43.0713 25.8485 43.0707H25.8213H25.6492L25.7488 42.7763H25.6039L25.4318 43.2337ZM23.7152 40.0045H23.3801V41.5444C23.3801 41.9973 23.1899 42.5589 22.5784 42.5589C22.1255 42.5589 21.9353 42.2237 21.9353 41.6984V40.0045H21.5956V41.7844C21.5956 42.3958 21.8492 42.8533 22.5241 42.8533C22.7146 42.8673 22.9044 42.8174 23.0634 42.7116C23.2225 42.6058 23.3419 42.4501 23.4027 42.269V42.7627H23.7243C23.7129 42.5439 23.7129 42.3247 23.7243 42.106L23.7152 40.0045ZM20.341 42.7808H20.6762V38.7046H20.341V42.7808ZM17.4469 41.3904C17.4469 40.7472 17.7639 40.2264 18.3527 40.2264C18.9415 40.2264 19.2586 40.7472 19.2586 41.3904C19.2586 42.0335 18.937 42.5544 18.3527 42.5544C17.7685 42.5544 17.4469 42.038 17.4469 41.3904ZM17.08 41.3904C17.08 42.1513 17.4695 42.8488 18.3482 42.8488C19.2268 42.8488 19.6254 42.1467 19.6254 41.3904C19.6254 40.634 19.2359 39.932 18.3573 39.932C17.4786 39.932 17.0891 40.634 17.0891 41.3904M14.4531 42.6767C14.7195 42.7892 15.0064 42.8448 15.2955 42.8397C15.4478 42.8561 15.6017 42.8406 15.7476 42.7941C15.8935 42.7476 16.028 42.6712 16.1427 42.5697C16.2574 42.4683 16.3496 42.344 16.4135 42.2049C16.4774 42.0658 16.5116 41.9148 16.5139 41.7618C16.5139 40.6476 14.8109 40.6385 14.8109 39.8776C14.8109 39.3885 15.2321 39.2254 15.6126 39.2254C15.838 39.2204 16.0614 39.2685 16.2648 39.3658L16.3237 39.0216C16.0895 38.9386 15.8429 38.8957 15.5945 38.8948C15.4537 38.8831 15.3119 38.8998 15.1777 38.9439C15.0434 38.988 14.9194 39.0586 14.8129 39.1515C14.7065 39.2444 14.6198 39.3578 14.558 39.4849C14.4962 39.6119 14.4605 39.7501 14.4531 39.8912C14.4531 40.8876 16.1606 40.9828 16.1606 41.7301C16.1659 41.8391 16.1475 41.948 16.1065 42.0492C16.0655 42.1503 16.0029 42.2414 15.9232 42.316C15.8435 42.3905 15.7484 42.4468 15.6447 42.481C15.541 42.5151 15.4312 42.5262 15.3227 42.5136C15.0341 42.5223 14.7493 42.4468 14.5029 42.2962L14.4531 42.6767Z" fill="#231F20"/>
</svg>
