<svg width="60" height="60" viewBox="0 0 60 60" fill="none" xmlns="http://www.w3.org/2000/svg">
<rect width="60" height="60" fill="white"/>
<path d="M39.5522 39.9856C39.5305 41.2912 38.9982 42.5364 38.0693 43.4541C37.1404 44.3719 35.889 44.8893 34.5832 44.8953H10.9238V35.6451C10.9486 34.3363 11.4852 33.0894 12.4185 32.1716C13.3518 31.2538 14.6076 30.7382 15.9166 30.7353H39.5522V39.9974V39.9856ZM50.0003 23.1097C49.9878 24.1185 49.5791 25.0819 48.8625 25.792C48.1458 26.502 47.1786 26.9017 46.1697 26.9047H29.0686V18.4372C29.0842 17.4284 29.4958 16.4662 30.2147 15.7584C30.9337 15.0506 31.9021 14.6539 32.911 14.6541H50.0003V23.1097Z" fill="#005D40"/>
</svg>
