<svg width="60" height="60" viewBox="0 0 60 60" fill="none" xmlns="http://www.w3.org/2000/svg">
<rect width="60" height="60" fill="white"/>
<path fill-rule="evenodd" clip-rule="evenodd" d="M12.3428 47.0264H46.7698V12.2119H12.3428V47.0264Z" fill="white"/>
<path fill-rule="evenodd" clip-rule="evenodd" d="M10.1128 9.95654H49V49.2811H10.1128V9.95654ZM12.342 47.0269H46.7691V12.2124H12.342V47.0269Z" fill="#EC6D2D"/>
<path fill-rule="evenodd" clip-rule="evenodd" d="M44.8876 21.06L44.8764 21.0503H44.875C44.64 20.908 44.2818 20.8255 44.0419 20.9322C42.5067 20.7834 41.0402 20.7996 39.4874 20.819H39.3787C38.6015 20.8287 37.7955 20.8384 36.9911 20.8239L30.4823 20.6897C28.8709 20.6496 27.2586 20.661 25.6479 20.7236C24.4342 20.7333 23.254 20.7657 22.053 20.8013C20.8024 20.8352 17.8152 20.8433 16.0305 20.8498C15.5262 20.8485 15.0219 20.8512 14.5177 20.8578C14.3066 20.8691 14.0507 21.1667 14.0459 21.4044C14.0445 21.5403 14.1211 21.6923 14.3466 21.7149C14.5145 21.7311 15.5939 21.7375 17.5561 21.7311L19.5599 21.723C20.0924 21.7215 20.3403 21.7294 20.4554 21.7165H20.4698C21.9427 21.5661 23.4219 21.5742 24.8516 21.5839H24.9619C25.8878 21.5888 26.8457 21.5936 27.8084 21.5548C28.0083 21.6017 28.2194 21.5581 28.4225 21.5159L28.4529 21.5111C28.5441 21.4933 28.6384 21.4755 28.728 21.4675C28.9471 21.5321 29.1981 21.5289 29.462 21.5224C29.7179 21.516 29.9769 21.5127 30.2136 21.5677L30.215 21.5742L30.255 21.5728L30.2564 21.5679C30.4643 21.4968 30.653 21.5339 30.8545 21.5728C30.9567 21.5956 31.0604 21.6113 31.1647 21.6197C33.0246 21.5679 35.0811 21.6342 37.6478 21.8331L38.8615 21.9657V21.9671H38.8743C39.9538 21.8604 41.0684 21.9429 42.1462 22.0237C42.1553 22.0241 42.1643 22.0245 42.1734 22.0251C42.9842 22.085 43.7502 22.1416 44.5114 22.1254L44.5162 22.1335L44.561 22.1173L44.5596 22.1076L44.9626 21.7826L44.964 21.784L44.9816 21.763L44.9802 21.7616C45.0457 21.6513 45.0721 21.5218 45.0553 21.3942C45.0384 21.2667 44.9795 21.149 44.8876 21.06Z" fill="#E3B228"/>
<path fill-rule="evenodd" clip-rule="evenodd" d="M34.1209 35.0415L34.1545 35.0205V34.9397L34.1257 32.3782V32.3717L34.1243 32.3653C34.0837 31.9455 34.0624 31.5241 34.0604 31.1023C34.0492 30.5962 34.038 30.0706 33.9708 29.6049C33.958 28.9419 33.8269 28.2287 33.7006 27.5415L33.6174 27.0741L33.6094 27.0289L33.5774 26.9965C33.4767 26.8946 33.4415 26.7637 33.4031 26.6149C33.3695 26.4888 33.3359 26.361 33.2592 26.2381C33.0897 25.9244 32.821 25.6204 32.5827 25.3519L32.57 25.339C32.5108 25.2566 32.442 25.2145 32.3813 25.1741C32.3461 25.1515 32.3125 25.1304 32.2757 25.0981L32.2213 25.0512L32.1877 25.0593L32.1446 25.0237C31.9303 24.8507 31.7304 24.7844 31.4985 24.7068L31.4937 24.7054C31.4266 24.6083 31.2986 24.5938 31.2123 24.5922V24.5291L31.0923 24.5097L30.5278 24.424L30.4447 24.411L30.3935 24.4805C30.3727 24.508 30.3679 24.5145 30.2496 24.4708C30.192 24.4478 30.1318 24.4321 30.0704 24.424L30.0049 24.4175L29.9713 24.4498C29.9513 24.4348 29.9299 24.4218 29.9073 24.411L29.6738 24.3398L29.6546 24.4498C29.5615 24.4463 29.469 24.4669 29.386 24.5096H29.015L28.6696 24.5111L28.7095 24.6437L28.7032 24.6501C28.5512 24.6113 28.4361 24.7051 28.3705 24.7585L28.3386 24.7859C28.2154 24.8069 28.1467 24.8587 28.0971 24.8959C28.0603 24.9234 28.0491 24.9331 28.0155 24.9347L27.9579 24.9412L27.9212 24.9865C27.8306 25.0611 27.7285 25.1201 27.6189 25.1611L27.4286 25.2468L27.4702 25.2872C27.4371 25.3018 27.4068 25.322 27.3807 25.3471H27.1967V25.4926L27.176 25.4893L27.0736 25.4457C27.0656 25.4424 26.9985 25.5346 26.9985 25.5346C26.8865 25.6931 26.741 25.8483 26.5875 26.0133C26.4084 26.2057 26.2213 26.4062 26.0805 26.6229L26.0374 26.6876L26.0645 26.7523C26.0309 26.7733 25.9446 26.8283 25.9286 26.9334C25.8732 27.004 25.8393 27.0894 25.8311 27.1792C25.8278 27.2002 25.8247 27.2293 25.8182 27.2423C25.7599 27.3149 25.7238 27.4031 25.7143 27.4962C25.7047 27.5495 25.6999 27.5802 25.6775 27.6077L25.5864 27.7242L25.6264 27.7549C25.5992 27.8244 25.5992 27.8972 25.5976 27.9409C25.5976 27.9603 25.5976 27.9829 25.5943 27.9991L25.5351 28.0363L25.5479 28.1284C25.5735 28.3095 25.5493 28.4761 25.5271 28.6524C25.4968 28.8296 25.4877 29.0098 25.4999 29.1892C25.4312 29.296 25.4472 29.4237 25.4584 29.5014C25.4632 29.5288 25.468 29.566 25.4664 29.5838L25.3752 29.655L25.4408 29.7633C25.4904 29.8458 25.4504 29.9784 25.4136 30.1029C25.3785 30.2242 25.3369 30.373 25.38 30.5023C25.3597 30.5189 25.3437 30.5402 25.3334 30.5644C25.3231 30.5887 25.3188 30.6151 25.3209 30.6414C25.3209 30.74 25.3128 30.7708 25.3081 30.7772L25.2409 30.9179L25.2313 30.9729L25.3529 31.0586C25.3422 31.1338 25.3438 31.2103 25.3577 31.285C25.3721 31.3788 25.3752 31.4176 25.3481 31.4548L25.2713 31.5923L25.3465 31.6828V31.7087C25.3432 31.7701 25.3353 31.8817 25.4136 31.9642C25.415 31.9803 25.4184 31.9949 25.4232 32.0095L25.2857 32.045L25.3753 32.2375L25.3657 32.286C25.3529 32.3426 25.3273 32.4558 25.3849 32.5544C25.3417 32.6676 25.3689 32.7776 25.3863 32.8504C25.3911 32.8714 25.3991 32.8989 25.4007 32.9183C25.2695 33.0573 25.3335 33.2401 25.3687 33.3387C25.3079 33.4325 25.3223 33.5441 25.3351 33.612L25.1592 33.6718L25.3383 33.8562C25.3325 33.8796 25.3313 33.904 25.3349 33.9278C25.3385 33.9517 25.3467 33.9746 25.3591 33.9953C25.3799 34.0292 25.407 34.0486 25.4342 34.0616L25.3799 34.0794L25.3862 34.0971V34.0986L25.4502 34.2635L25.4469 34.2829C25.4329 34.3758 25.4528 34.4706 25.5029 34.5497C25.4845 34.572 25.4743 34.6 25.4741 34.629L25.4038 34.7001L25.4709 34.7988C25.5237 34.8764 25.5045 34.9766 25.4661 35.1351C25.4309 35.2742 25.3878 35.4505 25.4675 35.6025L25.3684 35.7011L25.4931 35.7933C25.4906 35.8001 25.4873 35.8066 25.4835 35.8127C25.4515 35.8725 25.394 35.9825 25.4659 36.1038L25.4596 36.0892C25.4851 36.1458 25.474 36.2412 25.461 36.3399C25.445 36.4838 25.4242 36.6584 25.4994 36.8315L25.4754 37.0045L25.4802 36.9835C25.464 37.0397 25.4703 37.1001 25.4977 37.1516L25.4434 37.1775L25.4818 37.2972C25.5166 37.4426 25.53 37.5925 25.5217 37.7419C25.5217 38.0491 25.5231 38.4 25.7984 38.6669L25.8576 38.7235L25.9359 38.6992C26.1422 38.6377 26.1518 38.4308 26.1582 38.3192C26.1582 38.2949 26.1596 38.2723 26.163 38.2545L26.1663 38.2238L26.1583 38.193C26.0751 37.91 26.1103 37.5397 26.1423 37.2131L26.1646 36.9641L26.1679 36.9252L26.1503 36.8896C26.0944 36.7764 26.1088 36.6632 26.1232 36.5323C26.1466 36.404 26.1423 36.2722 26.1104 36.1458C26.1568 35.5475 26.1296 34.8359 26.104 34.2117C26.0961 33.9465 26.0848 33.6959 26.08 33.463V33.4501C26.0517 33.1443 26.0458 32.8367 26.0625 32.53C26.0705 32.2534 26.0784 31.9688 26.0544 31.7069C26.12 31.4077 26.1168 31.1344 26.1104 30.845C26.109 30.714 26.1056 30.5781 26.1104 30.4375L26.1118 30.4019L26.1022 30.3841C26.1662 30.3049 26.1806 30.224 26.1486 30.1464C26.1725 30.0457 26.1848 29.9427 26.1853 29.8391C26.1842 29.768 26.1907 29.697 26.2045 29.6273L26.2126 29.5933L26.203 29.5594C26.1854 29.4963 26.203 29.4235 26.2206 29.3459C26.2526 29.2435 26.2543 29.1339 26.2254 29.0306C26.3373 28.8058 26.3597 28.5309 26.3837 28.2624L26.3917 28.1703C26.4013 28.1121 26.3805 28.0571 26.3341 28.0086V28.0005C26.3341 27.8824 26.3949 27.787 26.4701 27.6657C26.5738 27.5215 26.6428 27.3549 26.6716 27.179L26.6748 27.145L26.6734 27.1369L26.7054 27.1078C26.7566 27.0657 26.8349 26.9978 26.8333 26.8911C26.8333 26.8718 26.83 26.8527 26.8237 26.8345C26.9087 26.7518 26.9804 26.6564 27.0364 26.5515C27.1164 26.4173 27.1739 26.3186 27.3307 26.2733L27.4074 26.2507L27.4282 26.1715C27.4506 26.0842 27.5258 26.034 27.6473 25.958C27.7487 25.9016 27.8391 25.827 27.9144 25.7381C28.0151 25.7462 28.0775 25.7187 28.1127 25.6783C28.2225 25.6461 28.3236 25.5892 28.4085 25.5117C28.538 25.4066 28.5796 25.384 28.6692 25.4228L28.7587 25.4648L28.8147 25.4082L28.8259 25.4049C28.8659 25.3936 28.9378 25.3742 28.9794 25.3079C29.0136 25.2997 29.0472 25.2895 29.0801 25.2772C29.1537 25.2497 29.1713 25.248 29.1953 25.261C29.2149 25.2733 29.2368 25.2813 29.2597 25.2847C29.2825 25.288 29.3058 25.2866 29.328 25.2804L29.3328 25.2917L29.4352 25.2788L29.5711 25.261C29.9773 25.2076 30.3291 25.1623 30.6457 25.3338L30.7593 25.3968L30.8265 25.2933L30.8696 25.3402C30.9512 25.4324 31.0935 25.5909 31.2998 25.5553C31.3446 25.5941 31.3957 25.6264 31.4405 25.6523L31.4997 25.6895V25.696L31.5268 25.7331C31.5908 25.8205 31.7267 25.8609 31.8371 25.8657C32.0754 26.1196 32.3168 26.4657 32.3168 26.6177V26.76H32.4208L32.424 26.7681C32.4624 26.9557 32.5168 27.1885 32.6607 27.3406C32.6192 27.436 32.6559 27.5524 32.6703 27.6009L32.6847 27.6526L32.6495 27.7594L32.7423 27.8548L32.7631 27.8661C32.7583 27.9647 32.8015 28.0553 32.8318 28.12C32.8408 28.1379 32.8488 28.1562 32.8558 28.175L32.8335 28.2267C32.7071 28.4709 32.8766 28.6067 32.9582 28.6714C32.9689 28.6793 32.9791 28.6879 32.9886 28.6973C32.9246 28.7458 32.9278 28.7975 32.9166 28.8849L32.9262 28.9916L32.9694 29.0627H32.9727L32.9775 29.0773C32.9823 29.0983 32.9935 29.1274 33.0111 29.1598L32.9631 29.2067L32.9295 29.3344L32.9999 29.4379L33.0543 29.4654C33.0553 29.5156 33.0679 29.5649 33.091 29.6093L33.099 29.6303L33.0863 29.6934C33.0399 29.9279 32.9807 30.2303 33.1247 30.4728L33.1119 30.4858C33.0447 30.5747 33.0623 30.6782 33.0735 30.7542C33.0768 30.7785 33.0847 30.8173 33.0799 30.8302L33.0447 30.9773C33.0447 30.9838 33.0911 30.9968 33.1327 31.0048C33.1279 31.021 33.1215 31.0339 33.1183 31.0501L33.0879 31.2183H33.1439C33.1343 31.2765 33.1327 31.3299 33.131 31.38C33.1296 31.4657 33.1262 31.5207 33.0959 31.566L33.0847 31.5854L33.0783 31.608C33.0367 31.7632 33.0927 31.9088 33.1375 32.0252L33.163 32.0883C33.1475 32.1045 33.1355 32.1238 33.1278 32.1449C33.1201 32.1661 33.1168 32.1887 33.1183 32.2112C33.1183 32.2241 33.1246 32.2338 33.1279 32.2451L33.0959 32.2775L33.1231 32.3599C33.139 32.4085 33.1663 32.4376 33.2014 32.4553L33.1774 32.4618C33.1726 32.4632 33.1726 32.5734 33.1726 32.5734V32.6122L33.0847 32.6381L33.1294 32.7319C33.1137 32.7577 33.1036 32.7867 33.0998 32.8168C33.0959 32.8469 33.0984 32.8775 33.1071 32.9065L33.0463 33.0165C33.0496 33.0132 33.0559 33.0812 33.1103 33.107C33.0543 33.3027 33.195 33.445 33.2766 33.5307C33.3031 33.5557 33.3277 33.5828 33.3502 33.6116H33.2798L33.3326 33.7959L33.334 33.8008L33.2972 33.8396L33.182 33.8978L33.2188 34.0563L33.2076 34.0935C33.1805 34.1776 33.2012 34.2326 33.2252 34.2665C33.23 34.2746 33.2364 34.2778 33.2428 34.2827C33.1869 34.3346 33.1517 34.4053 33.1437 34.4816L33.1309 34.6158L33.238 34.632C33.2287 34.6596 33.2207 34.6877 33.214 34.7161C33.1996 34.7662 33.1884 34.8098 33.1644 34.8438L33.1658 34.8452L33.1562 34.8614L33.3449 34.9681C33.3218 35.0123 33.3036 35.059 33.2906 35.1072L33.2714 35.1654H33.257L33.0986 35.1668L33.1082 35.3512C33.1168 35.3834 33.1222 35.4165 33.1242 35.4498C33.128 35.4879 33.1344 35.5258 33.1434 35.563V35.7474C33.1434 35.7716 33.1434 35.8104 33.1514 35.8508L33.1306 35.8622L33.145 35.964C33.1531 36.0158 33.1483 36.0659 33.145 36.1177C33.1436 36.1484 33.1402 36.1807 33.1402 36.2147L33.0123 36.2826L33.169 36.4556L33.1676 36.4621C33.1433 36.5143 33.1297 36.571 33.1277 36.6286H33.0157L33.206 36.8631C33.222 36.8841 33.2364 36.9359 33.2476 36.9747L33.2508 36.9893C33.1725 37.0637 33.1597 37.1769 33.1549 37.2383C33.1516 37.2658 33.1485 37.3062 33.1421 37.3159L33.1453 37.3126L33.1933 37.3773C33.1628 37.4002 33.1382 37.4302 33.1214 37.4646C33.1039 37.507 33.0984 37.5535 33.1054 37.5988H32.9215L33.0734 37.7525L32.9311 37.7994L33.0494 37.8996V38.2812C33.0494 38.3508 33.083 38.409 33.139 38.4381C33.1424 38.4399 33.1462 38.441 33.1501 38.4414C33.1833 38.462 33.2203 38.4755 33.2588 38.481C33.2973 38.4866 33.3365 38.4841 33.374 38.4737V38.6322L33.5563 38.5772C33.6648 38.5396 33.7811 38.5312 33.8938 38.553L34.0441 38.5853L34.0633 38.4317C34.1368 37.8608 34.1224 37.3094 34.1081 36.7757C34.0953 36.2567 34.0825 35.7618 34.148 35.2799C34.1623 35.2407 34.1672 35.1986 34.1625 35.157C34.1578 35.1155 34.1435 35.0756 34.1209 35.0406L34.1209 35.0415Z" fill="#006A32"/>
<path fill-rule="evenodd" clip-rule="evenodd" d="M23.3203 35.0415L23.3539 35.0205L23.3251 32.3782V32.3717L23.3237 32.3653C23.2831 31.9455 23.2618 31.5241 23.2598 31.1023C23.2486 30.5962 23.2374 30.0706 23.1686 29.6049C23.1574 28.9419 23.0263 28.2287 22.8999 27.5415L22.8168 27.0741L22.8088 27.0289L22.7768 26.9965C22.6745 26.8946 22.6409 26.7637 22.6025 26.6149C22.5689 26.4888 22.5353 26.361 22.457 26.2381C22.2891 25.9244 22.0188 25.6204 21.7805 25.3519L21.7693 25.339C21.7102 25.2566 21.6398 25.2145 21.579 25.1741C21.5438 25.1515 21.5103 25.1304 21.4735 25.0981L21.4191 25.0512L21.3855 25.0593L21.3424 25.0237C21.1281 24.8507 20.9282 24.7844 20.6963 24.7068L20.6915 24.7054C20.6243 24.6083 20.498 24.5938 20.41 24.5922V24.5291L20.2901 24.5097L19.7256 24.424L19.6424 24.411L19.5913 24.4805C19.5705 24.508 19.5657 24.5145 19.4473 24.4708C19.393 24.4514 19.3354 24.4304 19.2698 24.424L19.2027 24.4175L19.1707 24.4498C19.1501 24.4348 19.1282 24.4218 19.1051 24.411L18.8716 24.3398L18.8524 24.4498C18.7593 24.4461 18.6668 24.4667 18.5838 24.5096H18.2128L17.8658 24.5111L17.9073 24.6437L17.9009 24.6501C17.749 24.6113 17.6339 24.7051 17.5699 24.7585C17.5587 24.7682 17.5459 24.7811 17.5363 24.7859C17.4478 24.801 17.3647 24.8389 17.2948 24.8959C17.2581 24.9234 17.2469 24.9331 17.2133 24.9347L17.1557 24.9412L17.1189 24.9865C17.0284 25.0611 16.9263 25.1201 16.8167 25.1611L16.6264 25.2468L16.668 25.2872C16.6346 25.3021 16.6038 25.3223 16.5768 25.3471H16.3945V25.4926C16.3874 25.4927 16.3804 25.4916 16.3737 25.4893L16.2698 25.4457C16.2422 25.4726 16.2175 25.5024 16.1962 25.5346C16.0843 25.6931 15.9387 25.8483 15.7852 26.0133C15.6061 26.2057 15.419 26.4062 15.2783 26.6229L15.2351 26.6876L15.2639 26.7523C15.2303 26.7733 15.1424 26.8283 15.128 26.9334C15.0592 27.0094 15.0432 27.1113 15.032 27.1792C15.0294 27.2005 15.0251 27.2216 15.0193 27.2423C14.9623 27.3157 14.9263 27.4035 14.9153 27.4962C14.9057 27.5495 14.9009 27.5802 14.8786 27.6077L14.7874 27.7242L14.829 27.7549C14.8002 27.8244 14.8002 27.8972 14.8002 27.9409C14.8 27.9603 14.7989 27.9797 14.7969 27.9991L14.7361 28.0363L14.7489 28.1284C14.7745 28.3095 14.7522 28.4761 14.7281 28.6524C14.6986 28.8297 14.6895 29.0098 14.701 29.1892C14.6322 29.296 14.6482 29.4237 14.661 29.5014C14.6658 29.5288 14.6706 29.566 14.669 29.5838L14.5778 29.655L14.6418 29.7633C14.6914 29.8458 14.6514 29.9784 14.6146 30.1029C14.581 30.2242 14.5395 30.373 14.5827 30.5023C14.5619 30.5184 14.5457 30.5398 14.5356 30.5641C14.5255 30.5885 14.5219 30.6152 14.5251 30.6414C14.5251 30.74 14.5155 30.7708 14.5107 30.7772L14.4435 30.9179L14.4323 30.9729L14.5539 31.0586C14.5445 31.134 14.5467 31.2103 14.5603 31.285C14.5747 31.3788 14.5778 31.4176 14.5507 31.4548L14.4739 31.5923L14.5507 31.6828L14.5493 31.7087C14.546 31.7701 14.5413 31.8817 14.6164 31.9642C14.6178 31.9803 14.6212 31.9949 14.626 32.0095L14.4885 32.045L14.5781 32.2375L14.5685 32.286C14.5541 32.3426 14.5285 32.4558 14.586 32.5544C14.5565 32.6509 14.557 32.7542 14.5874 32.8504C14.5922 32.8714 14.6002 32.8989 14.6018 32.9183C14.4723 33.0573 14.5347 33.2401 14.5699 33.3387C14.5091 33.4325 14.5235 33.5441 14.5363 33.612L14.3604 33.6718L14.5411 33.8562C14.5353 33.8796 14.5341 33.904 14.5377 33.9278C14.5413 33.9517 14.5495 33.9746 14.5618 33.9953C14.5794 34.0248 14.6057 34.048 14.637 34.0616L14.581 34.0794L14.589 34.0971V34.0986L14.653 34.2635L14.6516 34.2829C14.6378 34.3756 14.6571 34.4701 14.706 34.5497C14.6882 34.5723 14.6781 34.6001 14.6772 34.629L14.6068 34.7001L14.6756 34.7988C14.7284 34.8764 14.7076 34.9766 14.6692 35.1351C14.634 35.2742 14.5908 35.4505 14.6725 35.6025L14.5733 35.7011L14.6981 35.7933L14.6885 35.8127C14.6565 35.8725 14.5989 35.9825 14.6725 36.1038L14.6645 36.0892C14.69 36.1458 14.6804 36.2412 14.6677 36.3399C14.6344 36.5041 14.6478 36.6745 14.7061 36.8315L14.6805 37.0045L14.6853 36.9835C14.6703 37.0396 14.6759 37.0994 14.7013 37.1516L14.6469 37.1775L14.6854 37.2972C14.7207 37.4425 14.7347 37.5924 14.7269 37.7419C14.7283 38.0491 14.7283 38.4 15.0052 38.6669L15.0643 38.7235L15.1427 38.6992C15.349 38.6377 15.3586 38.4308 15.365 38.3192C15.365 38.2949 15.365 38.2723 15.3683 38.2545L15.3715 38.2238L15.3635 38.193C15.2803 37.91 15.3155 37.5397 15.3459 37.2131C15.3539 37.1241 15.3619 37.0433 15.3667 36.9641L15.37 36.9252L15.3524 36.8896C15.2964 36.7764 15.3108 36.6632 15.3252 36.5323C15.3495 36.4041 15.3451 36.272 15.3124 36.1458C15.3588 35.5475 15.3316 34.8359 15.306 34.2117C15.2964 33.9465 15.2853 33.6959 15.282 33.463V33.4501C15.2469 33.1526 15.2565 32.8372 15.2644 32.53C15.2724 32.2534 15.2804 31.9688 15.2564 31.7069C15.3204 31.4077 15.3172 31.1344 15.3124 30.845C15.311 30.714 15.3076 30.5781 15.3124 30.4375L15.3138 30.4019L15.3042 30.3841C15.3665 30.3049 15.3825 30.224 15.349 30.1464C15.3793 30.038 15.3826 29.9313 15.3857 29.8391C15.389 29.7648 15.3905 29.6936 15.4065 29.6273L15.4145 29.5933L15.4049 29.5594C15.3932 29.4879 15.3987 29.4147 15.4209 29.3459C15.4544 29.2438 15.4566 29.1339 15.4273 29.0306C15.5376 28.8058 15.5616 28.5309 15.584 28.2624L15.592 28.1703C15.5961 28.1408 15.5931 28.1107 15.5834 28.0826C15.5736 28.0545 15.5574 28.0291 15.5361 28.0086V28.0005C15.5361 27.8824 15.5952 27.787 15.672 27.6657C15.7758 27.5218 15.8444 27.3549 15.8719 27.179L15.8767 27.145L15.8734 27.1369L15.9054 27.1078C15.9566 27.0657 16.0349 26.9978 16.0333 26.8911C16.0325 26.8719 16.0292 26.8529 16.0237 26.8345C16.1229 26.7455 16.1821 26.6437 16.2364 26.5515C16.3148 26.4173 16.3724 26.3186 16.5307 26.2733L16.6074 26.2507L16.6282 26.1715C16.6506 26.0842 16.7274 26.034 16.8489 25.958C16.95 25.9019 17.0401 25.8273 17.1144 25.7381C17.2151 25.7462 17.2775 25.7187 17.3143 25.6783C17.4241 25.6461 17.5252 25.5892 17.6101 25.5117C17.7396 25.4066 17.7812 25.384 17.8708 25.4228L17.9603 25.4648L18.0163 25.4082C18.0207 25.4077 18.025 25.4066 18.0291 25.4049C18.0691 25.3936 18.1379 25.3742 18.181 25.3079C18.2194 25.2998 18.2546 25.2869 18.2834 25.2772C18.3554 25.2497 18.3729 25.248 18.3969 25.261C18.4165 25.2733 18.4385 25.2813 18.4613 25.2847C18.4841 25.288 18.5074 25.2866 18.5297 25.2804L18.5329 25.2917L18.6369 25.2788L18.7744 25.261C19.179 25.2076 19.5308 25.1623 19.8474 25.3338L19.961 25.3968L20.0281 25.2933C20.0429 25.3081 20.0568 25.3238 20.0697 25.3402C20.1513 25.4324 20.2936 25.5909 20.5015 25.5553C20.5463 25.5941 20.5974 25.6264 20.6422 25.6523L20.7014 25.6895V25.696L20.7302 25.7331C20.7942 25.8205 20.9301 25.8609 21.0388 25.8657C21.2771 26.1196 21.5186 26.4657 21.5186 26.6177V26.76H21.6241L21.6255 26.7681C21.6655 26.9557 21.7199 27.1885 21.8622 27.3406C21.8222 27.436 21.8574 27.5524 21.8718 27.6009L21.8862 27.6526L21.851 27.7594L21.9438 27.8548L21.9646 27.8661C21.9598 27.9647 22.003 28.0553 22.0333 28.12L22.0589 28.175L22.0349 28.2267C21.9086 28.4709 22.0781 28.6067 22.1596 28.6714L22.19 28.6973C22.1261 28.7458 22.1293 28.7975 22.1165 28.8849L22.1277 28.9916L22.1708 29.0627H22.1741L22.1789 29.0773C22.1853 29.0983 22.1949 29.1274 22.2125 29.1598L22.1645 29.2067L22.1309 29.3344L22.2013 29.4379L22.2604 29.4605C22.259 29.5188 22.2828 29.5689 22.2972 29.6045L22.3052 29.6255L22.2924 29.6885C22.246 29.923 22.1868 30.2254 22.3308 30.468L22.3196 30.4809C22.2524 30.5698 22.27 30.6733 22.2828 30.7493C22.2861 30.7736 22.2924 30.8124 22.2892 30.8253L22.2525 30.9725C22.2525 30.9789 22.2988 30.9919 22.3404 31C22.3356 31.0161 22.3292 31.0291 22.326 31.0453L22.2956 31.2134H22.3532C22.3436 31.2716 22.342 31.325 22.3404 31.3751C22.339 31.4609 22.3356 31.5158 22.3053 31.5611L22.2941 31.5805L22.2877 31.6032C22.2461 31.7584 22.3021 31.904 22.3484 32.0204L22.3724 32.0835C22.3572 32.0998 22.3453 32.1192 22.3376 32.1403C22.3299 32.1614 22.3265 32.1839 22.3277 32.2064C22.3277 32.2193 22.334 32.229 22.3357 32.2403L22.3053 32.2727L22.3325 32.3551C22.3469 32.4037 22.3757 32.4328 22.4108 32.4506L22.3868 32.457C22.382 32.4584 22.382 32.5686 22.382 32.5686V32.6074L22.2925 32.63L22.3373 32.7238C22.3216 32.7497 22.3114 32.7786 22.3076 32.8087C22.3037 32.8388 22.3062 32.8694 22.3149 32.8985L22.2541 33.0084C22.2555 33.0051 22.2653 33.0731 22.3197 33.099C22.2637 33.2947 22.4028 33.437 22.486 33.5227C22.513 33.5472 22.5376 33.5743 22.5596 33.6035H22.4892L22.542 33.7879L22.5434 33.7927C22.5299 33.8045 22.5176 33.8175 22.5066 33.8316L22.3899 33.8898L22.4266 34.0483L22.4154 34.0854C22.3883 34.1695 22.4107 34.2245 22.433 34.2585C22.4378 34.2666 22.4442 34.2698 22.4506 34.2746C22.3941 34.3261 22.3587 34.397 22.3514 34.4735L22.3387 34.6078L22.4474 34.6239C22.4378 34.653 22.4282 34.6805 22.4218 34.708C22.4074 34.7581 22.3962 34.8018 22.3738 34.8358L22.3752 34.8372L22.3656 34.8533L22.5543 34.9601C22.5288 35.0102 22.5128 35.0603 22.5 35.0991C22.4958 35.1192 22.4893 35.1387 22.4808 35.1573H22.4664L22.3081 35.1588L22.3177 35.3431C22.3262 35.3754 22.3316 35.4084 22.3336 35.4418C22.3369 35.4799 22.3427 35.5177 22.3512 35.555V35.7393C22.3512 35.7636 22.3512 35.8024 22.3592 35.8428L22.3368 35.8541L22.3512 35.956C22.3576 36.0077 22.3545 36.0579 22.3512 36.1096C22.3498 36.1403 22.3464 36.1727 22.3464 36.2066L22.2185 36.2745L22.3752 36.4476C22.3489 36.5015 22.3342 36.5605 22.332 36.6206H22.2201L22.4104 36.8551C22.4263 36.8761 22.4407 36.9279 22.4519 36.9667L22.4552 36.9812C22.3784 37.0556 22.3656 37.1688 22.3592 37.2303C22.356 37.2577 22.3529 37.2982 22.3448 37.3079L22.3481 37.3046L22.3961 37.3693C22.3656 37.3922 22.3409 37.4221 22.3241 37.4566C22.3059 37.4988 22.3003 37.5455 22.3081 37.5908H22.1242L22.2761 37.7444L22.1338 37.7913L22.2522 37.8916V38.2732C22.2522 38.3428 22.2858 38.401 22.3401 38.4301L22.3513 38.4334C22.3845 38.4539 22.4214 38.4674 22.4599 38.473C22.4984 38.4785 22.5377 38.4761 22.5752 38.4657V38.6242L22.7559 38.5692C22.8649 38.5315 22.9817 38.5231 23.0949 38.5449L23.2452 38.5773L23.2644 38.4236C23.338 37.8528 23.3236 37.3014 23.3092 36.7677C23.2948 36.2486 23.2821 35.7538 23.3476 35.2719C23.3908 35.1749 23.3476 35.0876 23.3205 35.0407L23.3203 35.0415Z" fill="#295493"/>
<path fill-rule="evenodd" clip-rule="evenodd" d="M44.7339 35.2363L44.7675 35.2136V35.1344L44.7387 32.5729V32.5551C44.6966 32.136 44.6747 31.7151 44.6731 31.2938C44.6619 30.7877 44.6508 30.2621 44.5836 29.7996C44.5708 29.1334 44.4396 28.4218 44.3149 27.733L44.2302 27.264L44.2238 27.222L44.1918 27.188C44.1005 27.0791 44.0402 26.9472 44.0175 26.8064C43.9839 26.6802 43.9503 26.5509 43.8736 26.428C43.704 26.1159 43.4354 25.8102 43.1971 25.5418L43.1843 25.5272C43.1323 25.4611 43.0682 25.4057 42.9956 25.3639C42.9604 25.3396 42.9268 25.3202 42.89 25.2879L42.8357 25.241L42.8021 25.2491L42.7605 25.2135C42.5676 25.0664 42.3481 24.9587 42.1144 24.8965L42.1096 24.8951C42.0425 24.7981 41.9145 24.7835 41.8282 24.7803V24.7189L41.7082 24.6994L41.1437 24.6154L41.0606 24.6024L41.011 24.6704C40.9902 24.6995 40.9854 24.7043 40.8655 24.6623C40.8111 24.6428 40.7519 24.6202 40.688 24.6154L40.6208 24.6089L40.5888 24.6412C40.5686 24.6256 40.5466 24.6126 40.5233 24.6024L40.2898 24.5312L40.2706 24.6412C40.1775 24.6385 40.0852 24.659 40.0019 24.701H39.6309L39.2855 24.7025L39.3271 24.8367L39.3207 24.8431C39.1688 24.8043 39.052 24.8981 38.9881 24.9515L38.9561 24.9774C38.8673 24.9926 38.7841 25.031 38.7146 25.0889C38.6794 25.1164 38.6682 25.1245 38.633 25.1278L38.5755 25.1326L38.5371 25.1795C38.4859 25.2426 38.3228 25.3137 38.2365 25.3541L38.0462 25.4382L38.0877 25.4803C38.0547 25.4942 38.0244 25.5139 37.9982 25.5385H37.8143V25.6856C37.8063 25.6856 37.7983 25.6842 37.7951 25.6808L37.6911 25.6388C37.6631 25.6651 37.6379 25.6944 37.616 25.7261C37.4903 25.8952 37.353 26.0552 37.205 26.2047C37.0259 26.3988 36.8404 26.5977 36.6981 26.8128L36.6549 26.8775L36.6837 26.9437C36.6501 26.9648 36.5637 27.0198 36.5477 27.1249C36.4922 27.1959 36.4589 27.282 36.4518 27.3723C36.4492 27.3938 36.4444 27.4149 36.4374 27.4354C36.3794 27.5075 36.3433 27.5951 36.3334 27.6876C36.3255 27.7426 36.319 27.7717 36.2967 27.8008L36.2055 27.9156L36.2455 27.9464C36.2183 28.0159 36.2183 28.0887 36.2167 28.1323C36.2167 28.1517 36.2167 28.176 36.2134 28.1905L36.1543 28.2277L36.167 28.3215C36.1942 28.4994 36.1703 28.6676 36.1462 28.8438C36.1159 29.021 36.1067 29.2013 36.1191 29.3807C36.0503 29.4874 36.0663 29.6136 36.0775 29.6928C36.0808 29.7203 36.0871 29.7575 36.0855 29.7737L35.9944 29.8464L36.0599 29.9532C36.1095 30.0372 36.0695 30.1682 36.0328 30.296C35.9992 30.4156 35.956 30.5644 35.9992 30.6922C35.9896 30.7019 35.9768 30.7132 35.9672 30.7262C35.9464 30.757 35.9368 30.7941 35.94 30.8313C35.94 30.9315 35.9304 30.9606 35.9256 30.9687L35.8601 31.1094L35.8489 31.1644L35.9704 31.2501C35.9611 31.3254 35.9633 31.4018 35.9768 31.4765C35.9912 31.5703 35.9944 31.6091 35.9672 31.6463L35.892 31.7837L35.9672 31.8743V31.8986C35.9639 31.96 35.9576 32.0732 36.0344 32.1557C36.0358 32.1718 36.0392 32.188 36.044 32.1993L35.9064 32.2349L35.996 32.4289L35.9864 32.4758C35.972 32.534 35.948 32.6456 36.004 32.7459C35.9624 32.8575 35.9896 32.969 36.0072 33.0418C36.0136 33.0628 36.02 33.0903 36.0216 33.1097C35.8921 33.2472 35.9544 33.4315 35.9896 33.5286C35.9289 33.6224 35.9433 33.7339 35.956 33.8018L35.7817 33.8633L35.9608 34.0476C35.9501 34.0945 35.9575 34.1437 35.9816 34.1851C35.9991 34.2147 36.0254 34.238 36.0568 34.2514L36.0024 34.2692L36.0088 34.2886L36.0728 34.4551L36.0714 34.473C36.0576 34.5656 36.0769 34.6602 36.1258 34.7398C36.1077 34.7628 36.0975 34.7912 36.097 34.8206L36.0266 34.8902L36.0938 34.9904C36.1481 35.068 36.1274 35.1683 36.0874 35.3268C36.0538 35.4642 36.0122 35.6421 36.0922 35.7941L35.993 35.8944L36.1162 35.9849L36.1066 36.0044C36.0746 36.0626 36.017 36.1741 36.0906 36.2954L36.0842 36.2809C36.1098 36.3375 36.0986 36.4313 36.0856 36.5299C36.0696 36.6754 36.0488 36.8501 36.124 37.0231L36.1 37.1978L36.1048 37.1735C36.0966 37.2013 36.0939 37.2305 36.0969 37.2594C36.1 37.2882 36.1086 37.3162 36.1224 37.3417L36.0664 37.3659L36.1048 37.4872C36.1402 37.632 36.1542 37.7814 36.1464 37.9303C36.1478 38.2392 36.1478 38.5901 36.423 38.8553L36.4822 38.9119L36.5621 38.8893C36.7668 38.8262 36.778 38.6192 36.7844 38.5076C36.7845 38.4866 36.7856 38.4655 36.7877 38.4446L36.791 38.4122L36.7829 38.3831C36.6998 38.1001 36.735 37.7298 36.7654 37.4015L36.7877 37.1525L36.791 37.1137L36.7734 37.0797C36.7174 36.9649 36.7318 36.8517 36.7462 36.7223C36.7699 36.594 36.765 36.462 36.7318 36.3358C36.7782 35.7359 36.751 35.026 36.727 34.4002C36.7159 34.1512 36.7073 33.9022 36.7014 33.6531V33.6385C36.6731 33.3327 36.6672 33.0251 36.6838 32.7184C36.6918 32.4419 36.6998 32.1589 36.6758 31.8969C36.7414 31.5977 36.7366 31.3245 36.7318 31.0334C36.7294 30.8976 36.7294 30.7617 36.7318 30.6259L36.7332 30.5903L36.7236 30.5725C36.7875 30.4949 36.8035 30.414 36.7699 30.3364C36.7946 30.2354 36.807 30.1316 36.8067 30.0276C36.8063 29.957 36.8127 29.8866 36.8259 29.8173L36.8339 29.7818L36.8243 29.7478C36.814 29.6762 36.82 29.6032 36.8419 29.5343C36.8739 29.4319 36.8756 29.3223 36.8467 29.219C36.957 28.9958 36.981 28.7193 37.005 28.4509L37.0114 28.3587C37.0157 28.3292 37.0129 28.299 37.0031 28.2709C36.9934 28.2427 36.977 28.2173 36.9554 28.197V28.1889C36.9554 28.0692 37.0162 27.9738 37.0914 27.8525C37.1964 27.7091 37.2655 27.5421 37.2928 27.3658L37.2976 27.3318L37.2944 27.3254C37.3046 27.3152 37.3153 27.3055 37.3264 27.2962C37.3791 27.2509 37.4559 27.1846 37.4543 27.0763C37.4544 27.0575 37.4511 27.0389 37.4447 27.0213C37.5438 26.9308 37.603 26.8305 37.659 26.7383C37.7389 26.6025 37.7965 26.5055 37.9532 26.4602L38.03 26.4359L38.0508 26.3583C38.0731 26.271 38.1499 26.2192 38.2714 26.1432C38.3722 26.0872 38.4621 26.0132 38.5369 25.9249C38.6393 25.933 38.7016 25.9055 38.7368 25.8651C38.8469 25.8325 38.9485 25.7756 39.0343 25.6985C39.1622 25.5918 39.2054 25.5692 39.2949 25.6096L39.3829 25.6516L39.4389 25.5934C39.4433 25.5931 39.4476 25.5919 39.4517 25.5901C39.4821 25.585 39.5113 25.5739 39.5374 25.5572C39.5635 25.5405 39.586 25.5187 39.6036 25.4931C39.6385 25.4857 39.6727 25.4754 39.7059 25.4623C39.7779 25.4349 39.7955 25.4332 39.8211 25.4478C39.8467 25.4639 39.8946 25.4818 39.9522 25.4672L39.957 25.4769L40.0594 25.4639L40.1969 25.4462C40.6031 25.3944 40.9549 25.3475 41.2715 25.5206L41.3851 25.582L41.4522 25.4801L41.4954 25.5254C41.577 25.6176 41.7193 25.7761 41.9256 25.7421C41.9704 25.7809 42.0216 25.8133 42.0663 25.8408L42.1255 25.8763V25.8828L42.1543 25.9216C42.2183 26.0073 42.3542 26.0494 42.4629 26.0526C42.7012 26.3049 42.9427 26.6525 42.9427 26.8046V26.9469H43.0482L43.0496 26.955C43.088 27.1425 43.1424 27.3738 43.2847 27.5274C43.2463 27.6228 43.2799 27.7376 43.2959 27.7862L43.3103 27.8379L43.2751 27.9446L43.3679 28.04L43.3887 28.053C43.3905 28.1418 43.4147 28.2286 43.459 28.3053L43.483 28.3586L43.4607 28.412C43.3327 28.6562 43.5039 28.792 43.5838 28.8567L43.6158 28.8826C43.5534 28.9327 43.555 28.9828 43.5438 29.0702L43.5534 29.1785L43.5966 29.248H43.5999L43.6047 29.2642C43.6127 29.2929 43.624 29.3206 43.6383 29.3467L43.5887 29.3936L43.5567 29.5213L43.6271 29.6232L43.683 29.6507C43.6816 29.7089 43.7038 29.759 43.7182 29.7946C43.7215 29.801 43.7246 29.8075 43.7262 29.8172L43.7134 29.8803C43.6655 30.1147 43.6079 30.4171 43.7518 30.6613L43.7391 30.6726C43.6735 30.7616 43.6895 30.8634 43.7023 30.9395C43.7056 30.9637 43.7119 31.0041 43.7087 31.0171L43.6735 31.1626C43.6721 31.1691 43.7199 31.182 43.7598 31.1917C43.755 31.2063 43.7487 31.2192 43.747 31.2354L43.7151 31.4036H43.7726C43.763 31.4602 43.7615 31.5152 43.7598 31.5653C43.7584 31.651 43.755 31.7076 43.7262 31.7513L43.7054 31.7723L43.6991 31.7966C43.6575 31.9502 43.7135 32.0957 43.7598 32.2122L43.7838 32.2768C43.7685 32.2928 43.7566 32.3119 43.7489 32.3327C43.7412 32.3536 43.7378 32.3759 43.739 32.3981C43.7404 32.4111 43.7454 32.4224 43.7486 32.4321L43.7183 32.4628L43.7454 32.5469C43.7581 32.5879 43.7863 32.6222 43.8238 32.6423L43.7998 32.6488C43.795 32.6488 43.795 32.7587 43.795 32.7587V32.7992L43.7054 32.8234L43.7502 32.9156C43.7278 32.9593 43.7038 33.0223 43.7278 33.0919L43.6671 33.2002C43.6685 33.1969 43.6767 33.2649 43.731 33.2924C43.6751 33.4865 43.8142 33.6288 43.8974 33.7145C43.9249 33.7397 43.9495 33.7679 43.9709 33.7986H43.9006L43.9533 33.9797L43.9547 33.9845C43.9419 33.9958 43.9307 34.0104 43.9195 34.0234L43.8044 34.0832L43.8412 34.2417L43.83 34.2788C43.8028 34.3613 43.8252 34.4179 43.8476 34.4503C43.8524 34.4584 43.8587 34.4616 43.8651 34.4664C43.8092 34.5183 43.774 34.589 43.766 34.6653L43.7532 34.7995L43.8619 34.8157C43.8531 34.8437 43.8446 34.8717 43.8363 34.8998C43.8235 34.9499 43.8123 34.9952 43.7883 35.0292H43.7897L43.7786 35.047L43.9673 35.1537C43.9453 35.1982 43.9276 35.2448 43.9145 35.2928L43.8937 35.3494H43.8809L43.721 35.3508L43.7306 35.5351C43.7402 35.5643 43.7434 35.5966 43.7482 35.6338C43.7516 35.6718 43.7569 35.7095 43.7642 35.747V35.9329C43.7642 35.9671 43.7669 36.0011 43.7722 36.0348L43.7514 36.0461L43.7658 36.148C43.7706 36.1996 43.7706 36.2516 43.7658 36.3032C43.7625 36.3349 43.7609 36.3668 43.761 36.3987L43.6315 36.4666L43.7882 36.6396C43.7623 36.6942 43.7481 36.7537 43.7466 36.8142H43.6347L43.825 37.0487C43.841 37.0681 43.8554 37.1215 43.865 37.1587L43.8698 37.1733C43.7914 37.2493 43.7786 37.3625 43.7722 37.4223C43.7689 37.4498 43.7658 37.4902 43.7594 37.5015L43.7608 37.4982L43.8104 37.5613C43.7797 37.5847 43.7551 37.6152 43.7384 37.6502C43.72 37.6924 43.7144 37.7391 43.7224 37.7845H43.5385L43.6904 37.9381L43.5481 37.985L43.6665 38.0852V38.4669C43.6665 38.5364 43.7001 38.593 43.7544 38.6221L43.7656 38.627C43.8391 38.6755 43.9223 38.6738 43.9895 38.6593V38.8161L44.1702 38.7628C44.2792 38.7255 44.3958 38.7166 44.5092 38.7369L44.6595 38.7692L44.6787 38.6156C44.7371 38.0657 44.7521 37.512 44.7235 36.9597C44.6959 36.4603 44.7088 35.9595 44.7619 35.4623C44.8035 35.3685 44.7605 35.2811 44.7331 35.2359L44.7339 35.2363Z" fill="#EC6D2D"/>
</svg>
