<svg width="130" height="60" viewBox="0 0 130 60" fill="none" xmlns="http://www.w3.org/2000/svg">
<rect width="130" height="60" fill="white"/>
<g clip-path="url(#clip0_308_124)">
<path d="M38.6419 36.7318C38.1828 36.6648 37.6344 36.4947 37.5775 36.4017C37.564 36.3794 37.5362 36.405 37.5044 36.4692C37.4083 36.6629 37.4511 36.6589 35.7792 36.6305C34.9438 36.6163 33.7582 36.6047 33.1444 36.6047C32.5306 36.6047 32.011 36.5933 31.9897 36.5794C31.9275 36.5387 31.945 36.4661 32.0207 36.4506C32.0591 36.4428 32.1762 36.4287 32.2809 36.4195C32.6246 36.3891 32.6989 36.3193 32.7788 35.9525C32.8211 35.758 32.8296 35.3117 32.8411 32.7085C32.8553 29.4504 32.8475 29.2291 32.7119 29.0493C32.6341 28.9462 32.4173 28.8464 32.2709 28.8464H32.1989L32.1985 29.4341C32.198 30.1067 32.1897 30.1629 32.0901 30.1629C32.0089 30.1629 31.982 30.1101 31.982 29.9509C31.982 29.7583 31.8718 29.5766 31.692 29.4727C31.414 29.3122 31.1713 29.2755 30.1423 29.2386L29.682 29.222L29.6972 32.3805C29.7125 35.5644 29.7249 35.918 29.8284 36.1204C29.9274 36.3141 30.0269 36.3516 30.5557 36.395C30.779 36.4134 30.8205 36.4255 30.83 36.4756C30.8361 36.508 30.8259 36.544 30.8073 36.5556C30.7598 36.5854 27.3253 36.5771 27.278 36.5472C27.2216 36.5115 27.2306 36.439 27.2935 36.4212C27.3233 36.4127 27.496 36.3964 27.6772 36.3849C28.0706 36.3601 28.1748 36.3103 28.2649 36.1043C28.3822 35.8361 28.3916 35.5903 28.408 32.3655L28.424 29.2235L28.0254 29.2405C27.3036 29.2712 26.7915 29.3133 26.6813 29.3509C26.4919 29.4155 26.3801 29.5254 26.2772 29.7478C26.2233 29.864 26.1687 29.9804 26.1557 30.0062C26.1427 30.0321 26.1057 30.0532 26.0734 30.0532C25.9949 30.0532 25.9735 29.8991 25.9706 29.3117L25.9683 28.8523L25.8366 28.8694C25.5914 28.901 25.4433 29.024 25.3786 29.2497C25.3314 29.4147 25.321 29.7997 25.2684 33.3394C25.2423 35.095 25.2081 36.5656 25.1924 36.6073C25.1569 36.7018 25.0736 36.7045 24.9609 36.6148C24.8828 36.5527 22.6295 34.0786 20.7193 31.9576C20.2962 31.4877 19.9453 31.1034 19.9395 31.1034C19.9338 31.1034 19.9353 31.4031 19.9429 31.7695C19.9505 32.1358 19.9701 33.1338 19.9864 33.9873C20.0028 34.8407 20.0308 35.6306 20.0486 35.7427C20.0663 35.8547 20.1156 36.019 20.158 36.1078C20.2577 36.3164 20.3713 36.3729 20.7326 36.3937C21.0434 36.4117 21.1028 36.4348 21.0517 36.5176C21.0191 36.5705 20.8645 36.573 18.0521 36.5671C16.4212 36.5636 15.0724 36.5517 15.0547 36.5406C15.037 36.5296 15.0269 36.4975 15.0323 36.4694C15.0397 36.4304 15.1058 36.4098 15.3127 36.3821C15.4616 36.3622 15.6196 36.3219 15.6638 36.2926C15.8841 36.1466 15.8993 35.8731 15.8878 32.2632C15.8784 29.3052 15.8783 29.3007 15.8116 29.1547C15.7208 28.956 15.6324 28.9062 15.2958 28.8641C15.076 28.8366 15.0087 28.8169 15.0012 28.7777C14.9959 28.7497 15.0086 28.7162 15.0295 28.7031C15.0874 28.6669 17.9994 28.6747 18.0355 28.7112C18.1093 28.7859 18.0282 28.8387 17.8062 28.8606C17.4977 28.8909 17.3452 28.9641 17.2737 29.1164C17.2276 29.2148 17.2111 29.3644 17.1879 29.8965C17.1522 30.7165 17.1828 35.6313 17.2251 35.8658C17.2614 36.0666 17.3774 36.2268 17.554 36.3201C17.6506 36.3712 17.7485 36.3871 18.0202 36.3961C18.5641 36.414 18.7972 36.3404 18.9973 36.0875C19.1879 35.8466 19.1819 35.9378 19.3642 30.4686C19.4002 29.387 19.4388 28.6019 19.4576 28.5664C19.4968 28.4923 19.5932 28.4582 19.6925 28.4834C19.7664 28.5022 20.5811 29.3954 23.0686 32.1848C23.7144 32.9089 24.3257 33.5931 24.4272 33.7051L24.6117 33.9089L24.5949 31.6676C24.5837 30.1784 24.5665 29.38 24.5435 29.2884C24.4693 28.992 24.3184 28.8873 23.9208 28.8563C23.7463 28.8427 23.6636 28.823 23.652 28.7924C23.6106 28.6833 23.6871 28.6757 24.8393 28.6748L25.9718 28.674L26.0294 28.5968C26.0849 28.5225 26.0924 28.5211 26.2384 28.5589C26.5597 28.6422 27.0205 28.6572 29.2739 28.6577C31.2554 28.6582 31.6412 28.651 31.8578 28.6094C32.0929 28.5643 32.1169 28.5646 32.1694 28.6126C32.2213 28.6601 32.4209 28.6643 34.4775 28.6615C36.3493 28.6588 36.7662 28.6504 36.9514 28.6113C37.0739 28.5854 37.1901 28.5643 37.2096 28.5643C37.2669 28.5643 37.2786 28.6374 37.2473 28.8018C37.2311 28.8867 37.199 29.2081 37.1758 29.5162C37.1326 30.089 37.1047 30.1881 36.998 30.1467C36.9648 30.1339 36.9445 30.0656 36.9313 29.922C36.9098 29.6892 36.818 29.4699 36.713 29.4004C36.5188 29.2717 36.3352 29.2488 35.2678 29.2202C34.3137 29.1946 34.2262 29.1966 34.1906 29.2448C34.1319 29.3242 34.1348 31.9768 34.1936 32.0582C34.2336 32.1136 34.286 32.1147 35.4258 32.0862C36.7137 32.0538 36.7454 32.0492 36.9123 31.8696C36.9514 31.8274 37.0104 31.793 37.0433 31.793C37.0955 31.793 37.1011 31.8099 37.0873 31.9262C37.0786 31.9995 37.0471 32.3768 37.0173 32.7647C36.9613 33.495 36.9352 33.6027 36.8347 33.5184C36.8083 33.4962 36.7867 33.4311 36.7867 33.3737C36.7867 33.1893 36.7212 32.9535 36.6445 32.8613C36.4917 32.6776 36.4063 32.6636 35.2678 32.6352C34.3018 32.611 34.2265 32.613 34.189 32.6635C34.1569 32.7065 34.1505 32.9899 34.158 34.0343C34.1664 35.2224 34.1728 35.3631 34.2231 35.4762C34.3031 35.6558 34.4419 35.7878 34.6503 35.8824C34.968 36.0265 35.2465 36.0655 35.9807 36.0684C36.7635 36.0715 36.9427 36.0362 37.1702 35.8337C37.3753 35.6511 37.4474 35.4335 37.5451 34.703C37.5786 34.4523 37.7432 34.4029 37.7875 34.6302C37.9078 35.2477 38.0116 35.4825 38.2872 35.7613C38.6032 36.0807 38.9726 36.2304 39.5306 36.265C40.6273 36.3329 41.3813 35.6881 41.2227 34.8179C41.1262 34.2886 40.7488 33.8616 39.8245 33.236C39.0623 32.7201 38.8109 32.5261 38.4652 32.187C37.8558 31.5894 37.6141 31.0916 37.6118 30.4294C37.61 29.9201 37.7494 29.5877 38.1205 29.2168C38.3195 29.0178 38.4172 28.9486 38.6822 28.8186C39.2556 28.5375 39.7296 28.4529 40.5839 28.4792C41.1382 28.4963 41.8258 28.5889 41.9944 28.6692L42.0719 28.7061L42.0802 29.4669C42.0855 29.9558 42.0768 30.2497 42.0558 30.2893C42.037 30.3249 41.991 30.351 41.9474 30.351C41.869 30.351 41.8633 30.3392 41.8257 30.1002C41.7942 29.9006 41.6291 29.5999 41.4585 29.4315C41.1334 29.1106 40.738 28.9632 40.1965 28.961C39.6875 28.959 39.3255 29.0779 39.0666 29.3323C38.8624 29.533 38.7863 29.7226 38.79 30.0219C38.7966 30.5707 39.0662 30.8807 40.181 31.6216C41.1577 32.2707 41.7402 32.7612 42.0427 33.1892C42.1764 33.3784 42.3973 33.8104 42.3973 33.8826C42.3973 33.9037 42.4101 33.9288 42.4256 33.9385C42.4515 33.9547 43.9399 31.9427 45.5433 29.7241C46.3073 28.667 46.3414 28.6269 46.479 28.6269C46.6693 28.6269 46.6608 28.5704 46.8299 30.9646C47.1398 35.3528 47.1625 35.5992 47.2983 36.0436C47.4031 36.3868 47.558 36.4937 47.9515 36.4947C48.0435 36.4949 48.1149 36.5136 48.1468 36.5457C48.193 36.5925 48.1929 36.601 48.1454 36.6541C48.117 36.6858 48.0362 36.7198 47.9657 36.7297C47.8952 36.7396 47.2726 36.7367 46.5821 36.7233L45.3266 36.6988L45.3167 36.6281C45.3067 36.5567 45.3202 36.5467 45.4735 36.5128C45.6553 36.4725 45.656 36.4659 45.6067 35.2151C45.5821 34.5907 45.5535 34.0661 45.5432 34.0492C45.5316 34.0302 45.12 34.0186 44.4603 34.0186C43.4909 34.0186 43.3907 34.0235 43.3348 34.0735C43.2073 34.1874 41.7464 36.3671 41.7464 36.4433C41.7464 36.5361 41.7956 36.5577 42.0065 36.5577C42.1873 36.5577 42.3133 36.6224 42.2531 36.6842C42.2281 36.7098 41.9848 36.7234 41.4471 36.7291C41.0235 36.7336 40.2864 36.7458 39.809 36.7563C39.1472 36.7709 38.87 36.7651 38.6419 36.7318ZM45.5124 33.4861C45.5308 33.4561 45.4504 31.5984 45.4163 31.2661C45.4069 31.1746 45.3871 31.1041 45.3722 31.1094C45.3257 31.1259 43.7325 33.464 43.7491 33.4913C43.7722 33.529 45.4892 33.524 45.5124 33.4861ZM67.2734 36.7429C66.7526 36.6712 66.2318 36.5045 66.1542 36.3847C66.1135 36.3219 66.1079 36.1845 66.1164 35.4517C66.1269 34.5491 66.1365 34.4888 66.2686 34.4888C66.3387 34.4888 66.3899 34.5791 66.3899 34.7026C66.3899 34.8601 66.5287 35.2893 66.6402 35.4768C66.9384 35.9781 67.5425 36.2765 68.2562 36.275C68.9452 36.2736 69.5126 35.9797 69.7382 35.5076C69.8792 35.2124 69.8537 34.7815 69.6742 34.4261C69.4805 34.0428 69.1858 33.7676 68.3893 33.2267C67.6537 32.7272 67.3941 32.5262 67.0449 32.1858C66.4414 31.5974 66.1944 31.0816 66.1965 30.4137C66.1994 29.4961 66.8532 28.8242 67.9998 28.5607C68.63 28.4158 69.8192 28.461 70.5398 28.6573L70.6677 28.6921V29.472C70.6677 29.9009 70.6592 30.2742 70.6488 30.3014C70.6235 30.3682 70.4907 30.3646 70.456 30.2962C70.4406 30.266 70.4204 30.1805 70.4111 30.1061C70.3695 29.7758 70.0491 29.359 69.6912 29.1695C69.4121 29.0218 69.1588 28.9668 68.7631 28.968C68.24 28.9695 67.9426 29.0688 67.6598 29.3363C67.4613 29.524 67.375 29.7323 67.375 30.0234C67.375 30.56 67.6672 30.8951 68.7768 31.6312C69.5433 32.1398 69.8889 32.41 70.2824 32.8088C70.8411 33.375 71.036 33.787 71.0625 34.4575C71.0799 34.8986 71.0295 35.1464 70.8527 35.4901C70.6306 35.9218 70.1589 36.324 69.635 36.5282C69.1635 36.7121 68.9241 36.7504 68.1723 36.7622C67.7972 36.768 67.3927 36.7594 67.2734 36.7429ZM97.3801 36.7426C96.8089 36.6788 96.2712 36.4957 95.8048 36.2062C95.4597 35.992 94.9734 35.5043 94.736 35.1341C93.647 33.4366 93.8274 31.0112 95.1477 29.5958C95.8437 28.8497 96.7923 28.4704 97.9615 28.4705C98.8341 28.4708 99.4964 28.639 100.162 29.03C100.515 29.2372 101.036 29.769 101.255 30.1448C101.665 30.8509 101.847 31.6596 101.812 32.6237C101.76 34.0599 101.189 35.2687 100.214 36.0091C99.4604 36.581 98.397 36.8562 97.3801 36.7426ZM98.8087 36.0996C99.7251 35.793 100.228 34.8684 100.332 33.2972C100.449 31.5279 99.9188 30.0565 98.9263 29.3993C98.6135 29.1922 98.437 29.117 98.1021 29.0484C97.4063 28.9059 96.7084 29.12 96.2377 29.6205C95.9089 29.97 95.6605 30.5284 95.5433 31.1817C95.4743 31.5662 95.448 32.5365 95.4952 32.953C95.6803 34.5873 96.417 35.727 97.5214 36.0878C97.9493 36.2276 98.4134 36.2318 98.8087 36.0996ZM109.756 36.7583C109.135 36.6856 108.774 36.5927 108.373 36.4028C108.025 36.2376 107.77 36.057 107.47 35.7632C107.33 35.6253 107.21 35.5184 107.204 35.5257C107.199 35.533 107.177 35.6707 107.157 35.8318C107.101 36.2698 107.061 36.4267 106.982 36.5202L106.91 36.6047L105.861 36.6019C102.456 36.5928 101.666 36.5805 101.63 36.5362C101.568 36.4602 101.651 36.4203 101.919 36.3969C102.23 36.3699 102.312 36.3162 102.388 36.0889C102.49 35.782 102.506 35.192 102.497 32.2162L102.487 29.3323L102.418 29.1905C102.38 29.1125 102.31 29.026 102.263 28.9982C102.157 28.9357 101.893 28.8777 101.715 28.8777C101.57 28.8777 101.497 28.8253 101.541 28.7533C101.564 28.7166 101.845 28.7091 103.265 28.7074C104.991 28.7053 105.079 28.7109 105.037 28.8213C105.024 28.8556 104.945 28.8733 104.737 28.8882C104.317 28.9183 104.197 28.9857 104.111 29.2382C104.049 29.419 104.048 35.0536 104.109 35.3822C104.165 35.6822 104.221 35.788 104.382 35.8958C104.563 36.0165 104.719 36.0369 105.432 36.0331C106.077 36.0296 106.382 35.9849 106.604 35.8611C106.746 35.7821 106.914 35.5561 106.969 35.3694C107.002 35.2589 106.996 35.239 106.846 34.9754C106.432 34.2443 106.242 33.5052 106.242 32.6237C106.242 31.4314 106.635 30.3632 107.356 29.601C108.077 28.8374 108.99 28.4702 110.166 28.4702C112.23 28.4702 113.604 29.5767 113.958 31.5252C114 31.7535 114.007 31.9473 113.995 32.5597C113.979 33.3733 113.944 33.5962 113.738 34.1753C113.261 35.5161 112.209 36.435 110.854 36.6943C110.601 36.7427 109.948 36.7808 109.756 36.7583ZM110.933 36.1301C111.246 36.0412 111.463 35.9056 111.73 35.6329C111.943 35.4154 112.009 35.3218 112.142 35.0467C112.327 34.6633 112.46 34.1668 112.516 33.6542C112.573 33.1249 112.542 32.0862 112.456 31.6564C112.221 30.484 111.658 29.632 110.857 29.2366C110.067 28.8468 109.146 28.9574 108.559 29.5128C108.136 29.9134 107.909 30.3803 107.755 31.166C107.676 31.5716 107.659 32.6456 107.724 33.119C107.937 34.6599 108.654 35.7272 109.72 36.0863C110.099 36.2142 110.576 36.2314 110.933 36.1301ZM82.4677 36.5499C82.3282 36.4173 80.6561 34.5857 78.5895 32.3018C77.9938 31.6435 77.5022 31.1092 77.497 31.1144C77.4917 31.1197 77.5027 31.9684 77.5214 33.0004L77.5553 34.8768L77.8688 35.2672C78.2667 35.7626 78.6059 36.1275 78.7831 36.2508C78.8947 36.3284 78.9628 36.3502 79.1319 36.3625C79.3132 36.3756 79.3444 36.3868 79.3596 36.4442C79.3699 36.483 79.3592 36.5243 79.3339 36.5435C79.3048 36.5655 78.7531 36.5745 77.6527 36.5708C76.7519 36.5678 75.9983 36.5636 75.9782 36.5615C75.9229 36.5557 75.8961 36.4355 75.9386 36.3838C75.9648 36.3518 76.0417 36.3382 76.1969 36.3382C76.4793 36.3379 76.6284 36.2606 76.6135 36.1219C76.6067 36.0589 76.3477 35.7142 75.7425 34.9627L74.8812 33.8932H73.7077H72.5342L72.5114 34.4479C72.4822 35.1568 72.5069 35.8752 72.5662 36.0404C72.659 36.2987 72.8254 36.3931 73.2148 36.4085C73.44 36.4174 73.4684 36.4301 73.4522 36.5153C73.442 36.5687 73.3691 36.5719 72.1332 36.5726C70.93 36.5733 70.8206 36.569 70.7709 36.5187C70.6916 36.4386 70.7436 36.4116 71.0197 36.3894C71.3433 36.3634 71.4797 36.2862 71.5843 36.0701C71.6613 35.9109 71.6666 35.8494 71.9123 32.2768C72.0496 30.2795 72.174 28.6134 72.1887 28.5743C72.2186 28.4946 72.3371 28.4527 72.4423 28.4846C72.4966 28.5011 74.8812 31.4789 76.7056 33.8083L76.7986 33.9272L76.8191 33.4478C76.8304 33.1842 76.8712 31.9826 76.9098 30.7776L76.98 28.5866L77.054 28.526C77.0962 28.4914 77.1579 28.4712 77.1976 28.4788C77.3421 28.5067 77.2309 28.3884 79.7202 31.163C80.5647 32.1043 81.4644 33.1063 81.7196 33.3897L82.1835 33.9049L82.1854 32.9508C82.1865 32.4261 82.1795 31.3972 82.1699 30.6645L82.1525 29.3323L82.075 29.1771C81.9622 28.9515 81.8841 28.907 81.5275 28.8653C81.256 28.8335 81.2225 28.8228 81.2225 28.7675C81.2225 28.6711 81.363 28.6643 82.9274 28.6854C83.7117 28.696 85.0369 28.7072 85.8723 28.7103C87.258 28.7156 87.4218 28.7217 87.7401 28.7807C88.1356 28.8539 88.5664 29.0066 88.7672 29.1447C89.1 29.3737 89.3748 29.7964 89.4611 30.2122C89.5411 30.5981 89.4695 31.1951 89.2886 31.6507C89.0822 32.1706 88.7338 32.5472 88.2281 32.797C87.7763 33.0202 87.5653 33.0625 86.9045 33.0625C86.3441 33.0625 86.2607 33.0457 86.3005 32.941C86.3194 32.8913 86.3989 32.8729 86.7135 32.8456C87.3193 32.7931 87.8677 32.2638 88.0506 31.5552C88.1179 31.2944 88.114 30.674 88.0434 30.398C87.9672 30.1007 87.8124 29.8211 87.6082 29.6122C87.3899 29.3889 87.1561 29.2667 86.8196 29.1999C86.5353 29.1435 85.9431 29.1538 85.8815 29.2163C85.849 29.2493 85.8423 29.8656 85.8467 32.4294C85.8501 34.4534 85.8638 35.6792 85.8845 35.8158C85.9488 36.2403 86.1048 36.3925 86.4435 36.3615C86.8269 36.3263 87.026 36.1463 87.6702 35.2525C87.8747 34.9686 88.7396 33.7838 89.592 32.6195C90.4445 31.4552 91.4558 30.0712 91.8394 29.544C92.223 29.0169 92.5741 28.5577 92.6195 28.5237C92.7057 28.4593 92.8354 28.4618 92.902 28.5291C92.9418 28.5694 92.9419 28.57 93.1517 31.5109C93.4288 35.3944 93.443 35.5406 93.5833 35.9464C93.6449 36.1248 93.8143 36.2974 93.9474 36.3176C94.007 36.3266 94.1395 36.3455 94.2418 36.3596C94.3982 36.3812 94.4278 36.3952 94.4278 36.4476C94.4278 36.58 94.344 36.5872 92.942 36.5755C91.8671 36.5665 91.6096 36.5563 91.5881 36.5219C91.5452 36.4533 91.5727 36.4198 91.7133 36.3697C91.795 36.3406 91.86 36.2926 91.8833 36.2442C91.9376 36.1314 91.8545 33.9603 91.7935 33.897C91.7586 33.8609 91.5752 33.8584 90.6747 33.8814L89.5977 33.9089L88.7954 35.0818C88.3541 35.7269 87.9972 36.2756 88.0021 36.301C88.0171 36.3778 88.1047 36.4127 88.3168 36.4264C88.5205 36.4395 88.5737 36.4744 88.5207 36.5605C88.499 36.5958 88.4226 36.6018 88.1438 36.5904C87.6761 36.5712 85.1851 36.5528 84.6013 36.5643C83.4774 36.5863 83.3704 36.5764 83.4165 36.4549C83.4279 36.4248 83.5095 36.4041 83.6719 36.3902C83.9639 36.3653 84.0575 36.3227 84.1317 36.1812C84.2512 35.9534 84.2604 35.6879 84.2604 32.4356C84.2604 29.3629 84.2591 29.2985 84.1984 29.1775C84.1643 29.1097 84.1006 29.0278 84.0568 28.9955C83.8857 28.8692 83.2855 28.8392 83.1203 28.9487C83.0772 28.9772 83.0163 29.0681 82.9847 29.1507C82.9194 29.3219 82.9023 29.9177 82.8413 34.1283C82.8228 35.4041 82.7995 36.489 82.7894 36.539C82.7714 36.6288 82.7135 36.6865 82.6437 36.6842C82.624 36.6836 82.5449 36.6231 82.4677 36.5499ZM74.413 33.3282C74.3893 33.2563 72.6361 31.1067 72.6182 31.1277C72.5931 31.1574 72.5217 33.294 72.5446 33.3316C72.5699 33.3729 74.4266 33.3695 74.413 33.3282ZM91.7875 33.3368C91.7951 33.3239 91.7756 32.8196 91.7442 32.2162C91.7128 31.6127 91.6865 31.0802 91.6858 31.0328C91.685 30.9854 91.6725 30.9466 91.6578 30.9466C91.63 30.9466 90.0573 33.2196 90.0234 33.3089C90.0056 33.3558 90.0811 33.3603 90.8888 33.3603C91.3755 33.3603 91.7799 33.3497 91.7875 33.3368Z" fill="#006A33"/>
<path fill-rule="evenodd" clip-rule="evenodd" d="M52.5762 37.5938H62.4144V27.6448H52.5762V37.5938Z" fill="white"/>
<path fill-rule="evenodd" clip-rule="evenodd" d="M51.939 27H63.0518V38.2378H51.939V27ZM52.576 37.5936H62.4143V27.6447H52.576V37.5936Z" fill="#EC6D2D"/>
<path fill-rule="evenodd" clip-rule="evenodd" d="M61.8767 30.1728L61.8735 30.17H61.8731C61.8059 30.1294 61.7035 30.1058 61.635 30.1363C61.1963 30.0938 60.7772 30.0984 60.3335 30.104H60.3024C60.0803 30.1067 59.8499 30.1095 59.6201 30.1053L57.76 30.067C57.2995 30.0556 56.8388 30.0588 56.3785 30.0767C56.0317 30.0795 55.6944 30.0887 55.3512 30.0989C54.9938 30.1086 54.1401 30.1109 53.6301 30.1127C53.486 30.1124 53.3419 30.1132 53.1978 30.115C53.1375 30.1183 53.0644 30.2033 53.063 30.2712C53.0626 30.3101 53.0845 30.3535 53.1489 30.36C53.1969 30.3646 53.5054 30.3664 54.0661 30.3646L54.6387 30.3623C54.7909 30.3619 54.8617 30.3641 54.8946 30.3604H54.8988C55.3197 30.3175 55.7424 30.3198 56.1509 30.3225H56.1825C56.4471 30.3239 56.7208 30.3253 56.9959 30.3142C57.0531 30.3276 57.1134 30.3152 57.1714 30.3031L57.1801 30.3017C57.2061 30.2967 57.2331 30.2916 57.2587 30.2893C57.3213 30.3077 57.3931 30.3068 57.4685 30.305C57.5416 30.3031 57.6156 30.3022 57.6833 30.3179L57.6837 30.3198L57.6951 30.3194L57.6955 30.318C57.7549 30.2976 57.8088 30.3083 57.8664 30.3194C57.8956 30.3259 57.9252 30.3304 57.9551 30.3328C58.4865 30.318 59.0742 30.3369 59.8077 30.3938L60.1546 30.4316V30.4321H60.1582C60.4667 30.4016 60.7852 30.4251 61.0933 30.4482C61.0958 30.4483 61.0984 30.4485 61.101 30.4486C61.3327 30.4657 61.5516 30.4819 61.7692 30.4773L61.7705 30.4796L61.7833 30.475L61.7829 30.4722L61.8981 30.3793L61.8985 30.3797L61.9035 30.3737L61.9031 30.3733C61.9218 30.3418 61.9294 30.3048 61.9246 30.2683C61.9198 30.2319 61.9029 30.1983 61.8767 30.1728Z" fill="#E3B228"/>
<path fill-rule="evenodd" clip-rule="evenodd" d="M58.7998 34.1683L58.8094 34.1623V34.1392L58.8012 33.4072V33.4054L58.8008 33.4035C58.7892 33.2836 58.7831 33.1632 58.7825 33.0426C58.7793 32.898 58.7761 32.7478 58.7569 32.6147C58.7532 32.4252 58.7158 32.2214 58.6797 32.025L58.6559 31.8915L58.6536 31.8785L58.6445 31.8693C58.6157 31.8402 58.6056 31.8028 58.5946 31.7603C58.585 31.7242 58.5755 31.6877 58.5535 31.6526C58.5051 31.5629 58.4283 31.476 58.3602 31.3993L58.3566 31.3956C58.3397 31.3721 58.32 31.3601 58.3026 31.3485C58.2926 31.342 58.283 31.336 58.2725 31.3268L58.2569 31.3134L58.2473 31.3157L58.235 31.3055C58.1738 31.2561 58.1166 31.2371 58.0504 31.215L58.049 31.2146C58.0298 31.1868 57.9932 31.1827 57.9686 31.1822V31.1642L57.9343 31.1586L57.773 31.1341L57.7492 31.1304L57.7346 31.1503C57.7286 31.1582 57.7273 31.16 57.6935 31.1475C57.677 31.141 57.6598 31.1365 57.6423 31.1341L57.6235 31.1323L57.6139 31.1415C57.6082 31.1372 57.6021 31.1335 57.5957 31.1304L57.5289 31.1101L57.5234 31.1415C57.4968 31.1405 57.4704 31.1464 57.4467 31.1586H57.3406L57.2419 31.159L57.2534 31.1969L57.2515 31.1988C57.2081 31.1877 57.1752 31.2145 57.1565 31.2297L57.1473 31.2376C57.1122 31.2436 57.0925 31.2584 57.0783 31.269C57.0678 31.2769 57.0646 31.2796 57.055 31.2801L57.0386 31.282L57.0281 31.2949C57.0022 31.3162 56.973 31.3331 56.9417 31.3448L56.8873 31.3693L56.8992 31.3808C56.8897 31.385 56.8811 31.3908 56.8736 31.3979H56.821V31.4395L56.8151 31.4386L56.7859 31.4261C56.7836 31.4252 56.7644 31.4515 56.7644 31.4515C56.7324 31.4968 56.6908 31.5412 56.6469 31.5883C56.5958 31.6433 56.5423 31.7006 56.5021 31.7625L56.4897 31.781L56.4975 31.7995C56.4879 31.8055 56.4632 31.8212 56.4587 31.8513C56.4428 31.8715 56.4331 31.8959 56.4308 31.9215C56.4298 31.9275 56.4289 31.9358 56.4271 31.9395C56.4104 31.9603 56.4001 31.9855 56.3974 32.0121C56.3947 32.0273 56.3933 32.0361 56.3869 32.044L56.3609 32.0773L56.3723 32.086C56.3645 32.1059 56.3645 32.1267 56.364 32.1392C56.364 32.1447 56.364 32.1512 56.3631 32.1558L56.3462 32.1664L56.3499 32.1928C56.3572 32.2445 56.3503 32.2921 56.3439 32.3425C56.3353 32.3931 56.3326 32.4447 56.3362 32.4959C56.3165 32.5264 56.3211 32.5629 56.3243 32.5851C56.3256 32.593 56.327 32.6036 56.3266 32.6087L56.3005 32.629L56.3193 32.66C56.3334 32.6836 56.322 32.7214 56.3115 32.757C56.3014 32.7917 56.2895 32.8342 56.3019 32.8712C56.2961 32.8759 56.2915 32.882 56.2885 32.8889C56.2856 32.8958 56.2844 32.9034 56.285 32.9109C56.285 32.9391 56.2827 32.9479 56.2813 32.9497L56.2621 32.9899L56.2594 33.0056L56.2941 33.0301C56.2911 33.0516 56.2915 33.0735 56.2955 33.0948C56.2996 33.1216 56.3005 33.1327 56.2927 33.1434L56.2708 33.1826L56.2923 33.2085V33.2159C56.2914 33.2335 56.2891 33.2654 56.3115 33.2889C56.3119 33.2935 56.3129 33.2977 56.3142 33.3019L56.2749 33.312L56.3005 33.367L56.2978 33.3809C56.2941 33.3971 56.2868 33.4294 56.3033 33.4576C56.2909 33.49 56.2987 33.5214 56.3037 33.5422C56.305 33.5482 56.3073 33.556 56.3078 33.5616C56.2703 33.6013 56.2886 33.6535 56.2986 33.6817C56.2813 33.7085 56.2854 33.7404 56.289 33.7598L56.2388 33.7769L56.29 33.8296C56.2883 33.8363 56.288 33.8433 56.289 33.8501C56.29 33.8569 56.2924 33.8635 56.2959 33.8694C56.3018 33.8791 56.3096 33.8846 56.3174 33.8883L56.3018 33.8934L56.3037 33.8985V33.8989L56.3219 33.946L56.321 33.9516C56.317 33.9781 56.3227 34.0052 56.337 34.0278C56.3317 34.0342 56.3288 34.0422 56.3288 34.0504L56.3087 34.0708L56.3279 34.099C56.3429 34.1212 56.3375 34.1498 56.3265 34.1951C56.3164 34.2348 56.3041 34.2852 56.3269 34.3286L56.2986 34.3568L56.3342 34.3832C56.3335 34.3851 56.3326 34.387 56.3315 34.3887C56.3223 34.4058 56.3059 34.4372 56.3264 34.4719L56.3246 34.4677C56.3319 34.4839 56.3287 34.5112 56.325 34.5394C56.3204 34.5805 56.3145 34.6304 56.336 34.6799L56.3291 34.7293L56.3305 34.7233C56.3259 34.7394 56.3277 34.7566 56.3355 34.7714L56.32 34.7787L56.331 34.8129C56.3409 34.8545 56.3448 34.8973 56.3424 34.94C56.3424 35.0278 56.3428 35.1281 56.4214 35.2044L56.4384 35.2205L56.4607 35.2136C56.5197 35.196 56.5224 35.1369 56.5243 35.105C56.5243 35.0981 56.5247 35.0916 56.5256 35.0865L56.5266 35.0777L56.5243 35.069C56.5005 34.9881 56.5106 34.8823 56.5197 34.7889L56.5261 34.7177L56.527 34.7066L56.522 34.6965C56.506 34.6641 56.5101 34.6318 56.5143 34.5944C56.521 34.5577 56.5197 34.52 56.5106 34.4839C56.5239 34.3129 56.5161 34.1096 56.5088 33.9312C56.5065 33.8554 56.5033 33.7838 56.5019 33.7172V33.7136C56.4938 33.6262 56.4921 33.5383 56.4969 33.4506C56.4992 33.3716 56.5015 33.2903 56.4946 33.2154C56.5133 33.1299 56.5124 33.0518 56.5106 32.9691C56.5102 32.9317 56.5092 32.8928 56.5106 32.8526L56.511 32.8425L56.5083 32.8374C56.5265 32.8147 56.5307 32.7916 56.5215 32.7695C56.5283 32.7407 56.5319 32.7112 56.532 32.6817C56.5317 32.6613 56.5335 32.641 56.5375 32.6211L56.5398 32.6114L56.5371 32.6017C56.532 32.5837 56.537 32.5629 56.5421 32.5407C56.5512 32.5114 56.5517 32.4801 56.5435 32.4506C56.5754 32.3863 56.5818 32.3078 56.5887 32.2311L56.591 32.2047C56.5937 32.1881 56.5878 32.1724 56.5745 32.1585V32.1562C56.5745 32.1225 56.5919 32.0952 56.6134 32.0605C56.643 32.0193 56.6627 31.9717 56.671 31.9214L56.6719 31.9117L56.6715 31.9094L56.6806 31.9011C56.6953 31.8891 56.7176 31.8697 56.7172 31.8392C56.7172 31.8337 56.7162 31.8282 56.7144 31.823C56.7387 31.7994 56.7592 31.7721 56.7752 31.7421C56.7981 31.7038 56.8145 31.6756 56.8593 31.6626L56.8813 31.6562L56.8872 31.6335C56.8936 31.6086 56.9151 31.5943 56.9498 31.5725C56.9788 31.5564 57.0046 31.5351 57.0261 31.5097C57.0549 31.512 57.0727 31.5041 57.0828 31.4926C57.1142 31.4834 57.1431 31.4671 57.1673 31.445C57.2044 31.415 57.2162 31.4085 57.2418 31.4196L57.2674 31.4316L57.2834 31.4154L57.2866 31.4145C57.298 31.4112 57.3186 31.4057 57.3305 31.3867C57.3402 31.3844 57.3499 31.3815 57.3593 31.378C57.3803 31.3701 57.3853 31.3696 57.3922 31.3733C57.3978 31.3769 57.404 31.3792 57.4106 31.3801C57.4171 31.3811 57.4237 31.3807 57.4301 31.3789L57.4315 31.3821L57.4607 31.3784L57.4996 31.3733C57.6156 31.3581 57.7162 31.3452 57.8067 31.3941L57.8391 31.4122L57.8583 31.3826L57.8706 31.396C57.894 31.4223 57.9346 31.4676 57.9936 31.4574C58.0064 31.4685 58.021 31.4778 58.0338 31.4852L58.0507 31.4958V31.4976L58.0585 31.5083C58.0767 31.5332 58.1156 31.5448 58.1471 31.5462C58.2152 31.6187 58.2842 31.7176 58.2842 31.761V31.8017H58.3139L58.3149 31.804C58.3258 31.8576 58.3414 31.9242 58.3825 31.9676C58.3706 31.9949 58.3811 32.0282 58.3852 32.042L58.3894 32.0568L58.3793 32.0873L58.4058 32.1146L58.4117 32.1178C58.4104 32.146 58.4227 32.1719 58.4314 32.1904C58.434 32.1955 58.4362 32.2007 58.4383 32.2061L58.4319 32.2209C58.3958 32.2906 58.4442 32.3295 58.4675 32.3479C58.4706 32.3502 58.4735 32.3527 58.4762 32.3553C58.4579 32.3692 58.4588 32.384 58.4556 32.4089L58.4584 32.4394L58.4707 32.4598H58.4717L58.473 32.4639C58.4744 32.4699 58.4776 32.4783 58.4826 32.4875L58.4689 32.5009L58.4593 32.5374L58.4794 32.567L58.495 32.5748C58.4953 32.5892 58.4989 32.6033 58.5055 32.616L58.5078 32.622L58.5041 32.64C58.4909 32.707 58.4739 32.7934 58.5151 32.8627L58.5114 32.8664C58.4922 32.8918 58.4973 32.9214 58.5005 32.9431C58.5014 32.9501 58.5037 32.9612 58.5023 32.9649L58.4922 33.0069C58.4922 33.0088 58.5055 33.0125 58.5174 33.0148C58.516 33.0194 58.5142 33.0231 58.5132 33.0277L58.5046 33.0758H58.5206C58.5178 33.0924 58.5174 33.1077 58.5169 33.122C58.5165 33.1465 58.5155 33.1622 58.5068 33.1751L58.5036 33.1807L58.5018 33.1871C58.4899 33.2315 58.5059 33.2731 58.5187 33.3064L58.526 33.3244C58.5216 33.329 58.5182 33.3345 58.516 33.3406C58.5138 33.3466 58.5128 33.3531 58.5132 33.3595C58.5132 33.3632 58.5151 33.366 58.516 33.3692L58.5069 33.3785L58.5146 33.402C58.5192 33.4159 58.527 33.4242 58.537 33.4293L58.5302 33.4311C58.5288 33.4315 58.5288 33.463 58.5288 33.463V33.4741L58.5036 33.4815L58.5164 33.5083C58.512 33.5157 58.5091 33.524 58.508 33.5326C58.5069 33.5412 58.5076 33.5499 58.5101 33.5582L58.4927 33.5896C58.4936 33.5887 58.4954 33.6081 58.511 33.6155C58.495 33.6714 58.5352 33.7121 58.5585 33.7366C58.5661 33.7437 58.5731 33.7515 58.5795 33.7597H58.5594L58.5745 33.8124L58.5749 33.8138L58.5644 33.8249L58.5315 33.8415L58.542 33.8868L58.5388 33.8974C58.531 33.9214 58.537 33.9372 58.5438 33.9469C58.5452 33.9492 58.547 33.9501 58.5488 33.9515C58.5329 33.9663 58.5228 33.9865 58.5205 34.0083L58.5168 34.0467L58.5475 34.0513C58.5448 34.0592 58.5425 34.0672 58.5406 34.0753C58.5365 34.0897 58.5333 34.1021 58.5264 34.1118L58.5268 34.1122L58.5241 34.1169L58.578 34.1474C58.5714 34.16 58.5662 34.1733 58.5625 34.1871L58.557 34.2037H58.5529L58.5076 34.2041L58.5104 34.2568C58.5128 34.266 58.5144 34.2755 58.515 34.285C58.516 34.2959 58.5179 34.3067 58.5204 34.3174V34.37C58.5204 34.377 58.5204 34.3881 58.5227 34.3996L58.5168 34.4029L58.5209 34.432C58.5232 34.4468 58.5218 34.4611 58.5209 34.4759C58.5205 34.4847 58.5195 34.4939 58.5195 34.5036L58.483 34.523L58.5278 34.5725L58.5274 34.5743C58.5204 34.5892 58.5165 34.6054 58.5159 34.6219H58.4839L58.5383 34.6889C58.5429 34.6949 58.547 34.7097 58.5502 34.7208L58.5511 34.725C58.5287 34.7462 58.5251 34.7786 58.5237 34.7961C58.5228 34.804 58.5219 34.8155 58.5201 34.8183L58.521 34.8174L58.5347 34.8358C58.526 34.8424 58.5189 34.8509 58.5141 34.8608C58.5091 34.8729 58.5076 34.8862 58.5096 34.8992H58.457L58.5004 34.9431L58.4598 34.9565L58.4936 34.9851V35.0942C58.4936 35.114 58.5032 35.1307 58.5192 35.139C58.5202 35.1395 58.5212 35.1398 58.5224 35.1399C58.5318 35.1458 58.5424 35.1497 58.5534 35.1512C58.5644 35.1528 58.5756 35.1521 58.5863 35.1492V35.1945L58.6384 35.1787C58.6694 35.168 58.7027 35.1656 58.7349 35.1718L58.7778 35.181L58.7833 35.1371C58.8043 34.974 58.8002 34.8164 58.7961 34.6639C58.7925 34.5156 58.7888 34.3742 58.8075 34.2365C58.8116 34.2252 58.813 34.2132 58.8117 34.2013C58.8103 34.1895 58.8062 34.1781 58.7998 34.1681L58.7998 34.1683Z" fill="#006A32"/>
<path fill-rule="evenodd" clip-rule="evenodd" d="M55.7133 34.1683L55.7229 34.1623L55.7147 33.4072V33.4054L55.7143 33.4035C55.7027 33.2836 55.6966 33.1632 55.696 33.0426C55.6928 32.898 55.6896 32.7478 55.67 32.6147C55.6668 32.4252 55.6293 32.2214 55.5932 32.025L55.5694 31.8915L55.5672 31.8785L55.558 31.8693C55.5288 31.8402 55.5192 31.8028 55.5082 31.7603C55.4986 31.7242 55.489 31.6877 55.4666 31.6526C55.4186 31.5629 55.3414 31.476 55.2733 31.3993L55.2701 31.3956C55.2532 31.3721 55.2331 31.3601 55.2157 31.3485C55.2057 31.342 55.1961 31.336 55.1856 31.3268L55.17 31.3134L55.1604 31.3157L55.1481 31.3055C55.0869 31.2561 55.0297 31.2371 54.9635 31.215L54.9621 31.2146C54.9429 31.1868 54.9068 31.1827 54.8817 31.1822V31.1642L54.8474 31.1586L54.6861 31.1341L54.6623 31.1304L54.6477 31.1503C54.6417 31.1582 54.6404 31.16 54.6065 31.1475C54.591 31.142 54.5746 31.136 54.5558 31.1341L54.5366 31.1323L54.5275 31.1415C54.5216 31.1372 54.5153 31.1335 54.5088 31.1304L54.442 31.1101L54.4365 31.1415C54.4099 31.1405 54.3835 31.1464 54.3598 31.1586H54.2537L54.1546 31.159L54.1665 31.1969L54.1646 31.1988C54.1212 31.1877 54.0883 31.2145 54.07 31.2297C54.0668 31.2325 54.0632 31.2362 54.0604 31.2376C54.0351 31.2419 54.0114 31.2527 53.9914 31.269C53.9809 31.2769 53.9777 31.2796 53.9681 31.2801L53.9517 31.282L53.9412 31.2949C53.9153 31.3162 53.8861 31.3331 53.8548 31.3448L53.8004 31.3693L53.8123 31.3808C53.8027 31.3851 53.794 31.3909 53.7862 31.3979H53.7341V31.4395C53.7321 31.4396 53.7301 31.4392 53.7282 31.4386L53.6985 31.4261C53.6906 31.4338 53.6836 31.4423 53.6775 31.4515C53.6455 31.4968 53.6039 31.5412 53.56 31.5883C53.5088 31.6433 53.4554 31.7006 53.4151 31.7625L53.4028 31.781L53.411 31.7995C53.4014 31.8055 53.3763 31.8212 53.3722 31.8513C53.3526 31.873 53.348 31.9021 53.3448 31.9215C53.344 31.9276 53.3428 31.9336 53.3411 31.9395C53.3248 31.9605 53.3146 31.9856 53.3114 32.0121C53.3087 32.0273 53.3073 32.0361 53.3009 32.044L53.2749 32.0773L53.2868 32.086C53.2785 32.1059 53.2785 32.1267 53.2785 32.1392C53.2785 32.1447 53.2782 32.1503 53.2776 32.1558L53.2602 32.1664L53.2639 32.1928C53.2712 32.2445 53.2648 32.2921 53.2579 32.3425C53.2495 32.3932 53.2469 32.4447 53.2502 32.4959C53.2305 32.5264 53.2351 32.5629 53.2387 32.5851C53.2401 32.593 53.2415 32.6036 53.241 32.6087L53.215 32.629L53.2333 32.66C53.2474 32.6836 53.236 32.7214 53.2255 32.757C53.2159 32.7917 53.204 32.8342 53.2164 32.8712C53.2104 32.8758 53.2058 32.8819 53.2029 32.8888C53.2 32.8958 53.199 32.9034 53.1999 32.9109C53.1999 32.9391 53.1972 32.9479 53.1958 32.9497L53.1766 32.9899L53.1734 33.0056L53.2081 33.0301C53.2055 33.0517 53.2061 33.0735 53.21 33.0948C53.2141 33.1216 53.215 33.1327 53.2072 33.1434L53.1853 33.1826L53.2072 33.2085L53.2068 33.2159C53.2059 33.2335 53.2045 33.2654 53.226 33.2889C53.2264 33.2935 53.2274 33.2977 53.2288 33.3019L53.1895 33.312L53.215 33.367L53.2123 33.3809C53.2082 33.3971 53.2009 33.4294 53.2173 33.4576C53.2089 33.4852 53.209 33.5147 53.2177 33.5422C53.2191 33.5482 53.2214 33.556 53.2218 33.5616C53.1848 33.6013 53.2026 33.6535 53.2127 33.6817C53.1953 33.7085 53.1995 33.7404 53.2031 33.7598L53.1528 33.7769L53.2045 33.8296C53.2028 33.8363 53.2025 33.8433 53.2035 33.8501C53.2045 33.8569 53.2069 33.8635 53.2104 33.8694C53.2154 33.8778 53.2229 33.8844 53.2319 33.8883L53.2159 33.8934L53.2182 33.8985V33.8989L53.2365 33.946L53.2361 33.9516C53.2321 33.978 53.2376 34.0051 53.2516 34.0278C53.2465 34.0343 53.2436 34.0422 53.2434 34.0504L53.2233 34.0708L53.2429 34.099C53.258 34.1212 53.2521 34.1498 53.2411 34.1951C53.231 34.2348 53.2187 34.2852 53.242 34.3286L53.2137 34.3568L53.2493 34.3832L53.2466 34.3887C53.2375 34.4058 53.221 34.4372 53.242 34.4719L53.2397 34.4677C53.247 34.4839 53.2443 34.5112 53.2407 34.5394C53.2312 34.5863 53.235 34.635 53.2516 34.6799L53.2443 34.7293L53.2457 34.7233C53.2414 34.7393 53.243 34.7564 53.2503 34.7714L53.2347 34.7787L53.2457 34.8129C53.2558 34.8545 53.2598 34.8973 53.2576 34.94C53.258 35.0278 53.258 35.1281 53.3371 35.2044L53.354 35.2205L53.3764 35.2136C53.4354 35.196 53.4381 35.1369 53.4399 35.105C53.4399 35.0981 53.4399 35.0916 53.4409 35.0865L53.4418 35.0777L53.4395 35.069C53.4157 34.9881 53.4258 34.8823 53.4345 34.7889C53.4368 34.7635 53.4391 34.7404 53.4404 34.7177L53.4414 34.7066L53.4363 34.6965C53.4203 34.6641 53.4245 34.6318 53.4286 34.5944C53.4355 34.5577 53.4342 34.52 53.4249 34.4839C53.4382 34.3129 53.4304 34.1096 53.4231 33.9312C53.4203 33.8554 53.4171 33.7838 53.4162 33.7172V33.7136C53.4062 33.6285 53.4089 33.5384 53.4112 33.4506C53.4135 33.3716 53.4158 33.2903 53.4089 33.2154C53.4272 33.1299 53.4263 33.0518 53.4249 32.9691C53.4245 32.9317 53.4235 32.8928 53.4249 32.8526L53.4253 32.8425L53.4225 32.8374C53.4404 32.8147 53.4449 32.7916 53.4353 32.7695C53.444 32.7385 53.445 32.708 53.4459 32.6817C53.4468 32.6604 53.4472 32.6401 53.4518 32.6211L53.4541 32.6114L53.4513 32.6017C53.448 32.5813 53.4496 32.5604 53.4559 32.5407C53.4655 32.5115 53.4661 32.4801 53.4577 32.4506C53.4893 32.3863 53.4961 32.3078 53.5025 32.2311L53.5048 32.2047C53.506 32.1963 53.5051 32.1877 53.5023 32.1797C53.4996 32.1716 53.4949 32.1644 53.4888 32.1585V32.1562C53.4888 32.1225 53.5057 32.0952 53.5277 32.0605C53.5573 32.0194 53.5769 31.9717 53.5848 31.9214L53.5862 31.9117L53.5852 31.9094L53.5944 31.9011C53.609 31.8891 53.6314 31.8697 53.6309 31.8392C53.6307 31.8337 53.6298 31.8283 53.6282 31.823C53.6565 31.7976 53.6734 31.7685 53.689 31.7421C53.7114 31.7038 53.7278 31.6756 53.773 31.6626L53.795 31.6562L53.8009 31.6335C53.8073 31.6086 53.8293 31.5943 53.864 31.5725C53.8929 31.5565 53.9186 31.5352 53.9399 31.5097C53.9686 31.512 53.9865 31.5041 53.997 31.4926C54.0284 31.4834 54.0573 31.4671 54.0815 31.445C54.1185 31.415 54.1304 31.4085 54.156 31.4196L54.1816 31.4316L54.1976 31.4154C54.1989 31.4153 54.2001 31.415 54.2013 31.4145C54.2127 31.4112 54.2323 31.4057 54.2447 31.3867C54.2556 31.3844 54.2657 31.3807 54.2739 31.378C54.2945 31.3701 54.2995 31.3696 54.3064 31.3733C54.312 31.3769 54.3182 31.3792 54.3248 31.3801C54.3313 31.3811 54.3379 31.3807 54.3443 31.3789L54.3452 31.3821L54.3749 31.3784L54.4142 31.3733C54.5299 31.3581 54.6304 31.3452 54.7209 31.3941L54.7533 31.4122L54.7725 31.3826C54.7767 31.3868 54.7807 31.3913 54.7844 31.396C54.8077 31.4223 54.8484 31.4676 54.9078 31.4574C54.9206 31.4685 54.9352 31.4778 54.948 31.4852L54.9649 31.4958V31.4976L54.9731 31.5083C54.9914 31.5332 55.0303 31.5448 55.0614 31.5462C55.1294 31.6187 55.1985 31.7176 55.1985 31.761V31.8017H55.2286L55.229 31.804C55.2404 31.8576 55.256 31.9242 55.2966 31.9676C55.2852 31.9949 55.2953 32.0282 55.2994 32.042L55.3035 32.0568L55.2935 32.0873L55.32 32.1146L55.3259 32.1178C55.3245 32.146 55.3369 32.1719 55.3455 32.1904L55.3529 32.2061L55.346 32.2209C55.3099 32.2906 55.3583 32.3295 55.3816 32.3479L55.3903 32.3553C55.372 32.3692 55.373 32.384 55.3693 32.4089L55.3725 32.4394L55.3848 32.4598H55.3858L55.3871 32.4639C55.389 32.4699 55.3917 32.4783 55.3967 32.4875L55.383 32.5009L55.3734 32.5374L55.3935 32.567L55.4104 32.5735C55.41 32.5901 55.4168 32.6044 55.421 32.6146L55.4232 32.6206L55.4196 32.6386C55.4063 32.7056 55.3894 32.792 55.4306 32.8614L55.4274 32.865C55.4082 32.8905 55.4132 32.92 55.4169 32.9418C55.4178 32.9487 55.4196 32.9598 55.4187 32.9635L55.4082 33.0055C55.4082 33.0074 55.4214 33.0111 55.4333 33.0134C55.4319 33.018 55.4301 33.0217 55.4292 33.0263L55.4205 33.0744H55.437C55.4342 33.091 55.4338 33.1063 55.4333 33.1206C55.4329 33.1451 55.4319 33.1608 55.4233 33.1737L55.4201 33.1793L55.4182 33.1858C55.4064 33.2301 55.4224 33.2717 55.4356 33.305L55.4425 33.323C55.4381 33.3277 55.4347 33.3332 55.4325 33.3392C55.4303 33.3453 55.4293 33.3517 55.4297 33.3581C55.4297 33.3618 55.4315 33.3646 55.432 33.3678L55.4233 33.3771L55.431 33.4007C55.4351 33.4145 55.4434 33.4228 55.4534 33.4279L55.4466 33.4298C55.4452 33.4302 55.4452 33.4616 55.4452 33.4616V33.4727L55.4196 33.4792L55.4324 33.506C55.4279 33.5134 55.425 33.5217 55.4239 33.5303C55.4228 33.5389 55.4235 33.5476 55.426 33.5559L55.4086 33.5873C55.409 33.5864 55.4118 33.6058 55.4274 33.6132C55.4114 33.6691 55.4511 33.7098 55.4749 33.7343C55.4826 33.7413 55.4897 33.7491 55.4959 33.7574H55.4758L55.4909 33.8101L55.4913 33.8115C55.4875 33.8148 55.4839 33.8185 55.4808 33.8226L55.4474 33.8392L55.4579 33.8845L55.4547 33.8951C55.447 33.9191 55.4534 33.9349 55.4598 33.9446C55.4611 33.9469 55.463 33.9478 55.4648 33.9492C55.4486 33.9639 55.4385 33.9842 55.4365 34.006L55.4328 34.0444L55.4639 34.049C55.4611 34.0573 55.4584 34.0652 55.4566 34.073C55.4525 34.0874 55.4493 34.0998 55.4429 34.1095L55.4433 34.1099L55.4405 34.1146L55.4944 34.1451C55.4871 34.1594 55.4826 34.1737 55.4789 34.1848C55.4777 34.1905 55.4759 34.1961 55.4734 34.2014H55.4693L55.4241 34.2018L55.4268 34.2545C55.4293 34.2637 55.4308 34.2732 55.4314 34.2827C55.4323 34.2936 55.434 34.3044 55.4364 34.3151V34.3677C55.4364 34.3747 55.4364 34.3858 55.4387 34.3973L55.4323 34.4006L55.4364 34.4297C55.4382 34.4445 55.4373 34.4588 55.4364 34.4736C55.436 34.4823 55.435 34.4916 55.435 34.5013L55.3985 34.5207L55.4432 34.5702C55.4357 34.5856 55.4315 34.6024 55.4309 34.6196H55.3989L55.4533 34.6866C55.4579 34.6926 55.462 34.7074 55.4652 34.7185L55.4661 34.7227C55.4442 34.7439 55.4405 34.7763 55.4387 34.7938C55.4378 34.8017 55.4369 34.8132 55.4346 34.816L55.4355 34.8151L55.4492 34.8335C55.4405 34.8401 55.4335 34.8487 55.4287 34.8585C55.4234 34.8706 55.4218 34.8839 55.4241 34.8969H55.3715L55.4149 34.9408L55.3743 34.9542L55.4081 34.9828V35.0919C55.4081 35.1117 55.4177 35.1284 55.4332 35.1367L55.4364 35.1376C55.4459 35.1435 55.4565 35.1474 55.4675 35.149C55.4785 35.1505 55.4897 35.1498 55.5004 35.1469V35.1922L55.552 35.1764C55.5832 35.1657 55.6166 35.1633 55.6489 35.1695L55.6919 35.1788L55.6974 35.1349C55.7184 34.9717 55.7143 34.8141 55.7102 34.6616C55.706 34.5133 55.7024 34.3719 55.7211 34.2342C55.7335 34.2065 55.7211 34.1815 55.7134 34.1681L55.7133 34.1683Z" fill="#295493"/>
<path fill-rule="evenodd" clip-rule="evenodd" d="M61.8327 34.2242L61.8423 34.2178V34.1951L61.8341 33.4631V33.458C61.822 33.3383 61.8158 33.218 61.8153 33.0976C61.8121 32.9529 61.8089 32.8028 61.7897 32.6706C61.7861 32.4802 61.7486 32.2769 61.713 32.08L61.6887 31.946L61.6869 31.934L61.6778 31.9243C61.6517 31.8932 61.6345 31.8555 61.628 31.8152C61.6184 31.7792 61.6088 31.7422 61.5868 31.7071C61.5384 31.6179 61.4616 31.5305 61.3935 31.4538L61.3899 31.4497C61.375 31.4308 61.3567 31.4149 61.3359 31.403C61.3259 31.3961 61.3163 31.3905 61.3058 31.3813L61.2902 31.3679L61.2806 31.3702L61.2687 31.36C61.2136 31.318 61.1509 31.2872 61.0841 31.2694L61.0827 31.269C61.0636 31.2413 61.027 31.2371 61.0023 31.2362V31.2187L60.968 31.2131L60.8067 31.1891L60.783 31.1854L60.7688 31.2048C60.7628 31.2131 60.7615 31.2145 60.7272 31.2025C60.7117 31.1969 60.6948 31.1905 60.6765 31.1891L60.6573 31.1872L60.6481 31.1965C60.6424 31.192 60.6361 31.1883 60.6294 31.1854L60.5627 31.165L60.5572 31.1965C60.5306 31.1957 60.5042 31.2015 60.4804 31.2136H60.3744L60.2757 31.214L60.2876 31.2523L60.2857 31.2542C60.2423 31.2431 60.209 31.2699 60.1907 31.2851L60.1816 31.2925C60.1562 31.2969 60.1324 31.3079 60.1125 31.3244C60.1025 31.3323 60.0993 31.3346 60.0892 31.3355L60.0728 31.3369L60.0618 31.3503C60.0472 31.3683 60.0006 31.3886 59.9759 31.4002L59.9215 31.4242L59.9334 31.4362C59.924 31.4402 59.9153 31.4459 59.9078 31.4529H59.8553V31.4949C59.853 31.4949 59.8507 31.4945 59.8498 31.4935L59.8201 31.4815C59.8121 31.4891 59.8049 31.4974 59.7986 31.5065C59.7627 31.5548 59.7234 31.6005 59.6811 31.6433C59.63 31.6987 59.5769 31.7556 59.5363 31.817L59.5239 31.8355L59.5322 31.8545C59.5226 31.8605 59.4979 31.8762 59.4933 31.9062C59.4775 31.9265 59.4679 31.9511 59.4659 31.9769C59.4652 31.9831 59.4638 31.9891 59.4618 31.9949C59.4452 32.0156 59.4349 32.0406 59.4321 32.067C59.4298 32.0827 59.428 32.0911 59.4216 32.0994L59.3955 32.1322L59.4069 32.141C59.3992 32.1608 59.3992 32.1816 59.3987 32.1941C59.3987 32.1997 59.3987 32.2066 59.3978 32.2108L59.3809 32.2214L59.3845 32.2482C59.3923 32.299 59.3855 32.3471 59.3786 32.3975C59.3699 32.4481 59.3673 32.4996 59.3708 32.5509C59.3512 32.5814 59.3557 32.6174 59.3589 32.6401C59.3599 32.6479 59.3617 32.6585 59.3612 32.6632L59.3352 32.684L59.3539 32.7145C59.3681 32.7385 59.3567 32.7759 59.3461 32.8124C59.3365 32.8466 59.3242 32.8891 59.3365 32.9257C59.3338 32.9284 59.3302 32.9317 59.3274 32.9354C59.3215 32.9442 59.3187 32.9548 59.3196 32.9654C59.3196 32.9941 59.3169 33.0024 59.3155 33.0047L59.2968 33.0449L59.2936 33.0606L59.3283 33.0851C59.3257 33.1066 59.3263 33.1284 59.3302 33.1498C59.3343 33.1766 59.3352 33.1877 59.3274 33.1983L59.3059 33.2376L59.3274 33.2635V33.2704C59.3265 33.288 59.3247 33.3203 59.3466 33.3439C59.347 33.3485 59.348 33.3531 59.3494 33.3564L59.31 33.3665L59.3356 33.422L59.3329 33.4354C59.3288 33.452 59.3219 33.4839 59.3379 33.5125C59.326 33.5444 59.3338 33.5763 59.3388 33.5971C59.3407 33.6031 59.3425 33.611 59.343 33.6165C59.3059 33.6558 59.3238 33.7085 59.3338 33.7362C59.3165 33.763 59.3206 33.7949 59.3242 33.8143L59.2744 33.8319L59.3256 33.8846C59.3225 33.8979 59.3247 33.912 59.3315 33.9238C59.3365 33.9323 59.344 33.9389 59.353 33.9428L59.3375 33.9479L59.3393 33.9534L59.3576 34.001L59.3572 34.0061C59.3532 34.0326 59.3588 34.0596 59.3727 34.0823C59.3676 34.0889 59.3647 34.097 59.3645 34.1054L59.3444 34.1253L59.3636 34.154C59.3791 34.1762 59.3732 34.2048 59.3618 34.2501C59.3522 34.2894 59.3403 34.3402 59.3631 34.3836L59.3348 34.4123L59.37 34.4382L59.3672 34.4437C59.3581 34.4604 59.3416 34.4922 59.3627 34.5269L59.3608 34.5227C59.3682 34.5389 59.365 34.5657 59.3612 34.5939C59.3567 34.6355 59.3507 34.6854 59.3722 34.7349L59.3654 34.7848L59.3667 34.7778C59.3644 34.7858 59.3636 34.7941 59.3645 34.8024C59.3654 34.8106 59.3678 34.8186 59.3718 34.8259L59.3558 34.8328L59.3667 34.8675C59.3768 34.9089 59.3808 34.9515 59.3786 34.9941C59.379 35.0824 59.379 35.1827 59.4577 35.2584L59.4746 35.2746L59.4974 35.2682C59.5559 35.2501 59.5591 35.191 59.561 35.1591C59.561 35.1531 59.5613 35.1471 59.5619 35.1411L59.5628 35.1318L59.5605 35.1235C59.5368 35.0426 59.5468 34.9368 59.5555 34.843L59.5619 34.7718L59.5628 34.7607L59.5578 34.751C59.5418 34.7182 59.5459 34.6859 59.55 34.6489C59.5568 34.6122 59.5554 34.5745 59.5459 34.5385C59.5592 34.367 59.5514 34.1641 59.5445 33.9853C59.5414 33.9142 59.5389 33.843 59.5372 33.7718V33.7676C59.5291 33.6802 59.5275 33.5923 59.5322 33.5047C59.5345 33.4257 59.5368 33.3448 59.5299 33.2699C59.5486 33.1844 59.5473 33.1063 59.5459 33.0232C59.5452 32.9843 59.5452 32.9455 59.5459 32.9067L59.5463 32.8965L59.5436 32.8915C59.5618 32.8693 59.5664 32.8462 59.5568 32.824C59.5639 32.7951 59.5674 32.7655 59.5673 32.7357C59.5672 32.7156 59.569 32.6954 59.5728 32.6757L59.5751 32.6655L59.5724 32.6558C59.5694 32.6353 59.5711 32.6145 59.5774 32.5948C59.5865 32.5655 59.587 32.5342 59.5787 32.5047C59.6103 32.4409 59.6171 32.3619 59.624 32.2852L59.6258 32.2588C59.627 32.2504 59.6262 32.2418 59.6234 32.2337C59.6207 32.2257 59.616 32.2184 59.6098 32.2126V32.2103C59.6098 32.1761 59.6272 32.1488 59.6487 32.1142C59.6787 32.0732 59.6984 32.0255 59.7062 31.9751L59.7076 31.9654L59.7067 31.9635C59.7096 31.9606 59.7127 31.9578 59.7158 31.9552C59.7309 31.9422 59.7528 31.9233 59.7524 31.8923C59.7524 31.887 59.7515 31.8817 59.7496 31.8766C59.778 31.8508 59.7949 31.8221 59.8109 31.7958C59.8337 31.7569 59.8502 31.7292 59.895 31.7163L59.9169 31.7093L59.9228 31.6872C59.9292 31.6622 59.9512 31.6474 59.9859 31.6257C60.0147 31.6097 60.0404 31.5885 60.0618 31.5633C60.091 31.5656 60.1088 31.5578 60.1189 31.5462C60.1504 31.5369 60.1794 31.5207 60.2039 31.4986C60.2405 31.4681 60.2528 31.4616 60.2784 31.4732L60.3035 31.4852L60.3195 31.4686C60.3208 31.4685 60.322 31.4682 60.3232 31.4676C60.3319 31.4662 60.3402 31.463 60.3477 31.4582C60.3551 31.4535 60.3616 31.4472 60.3666 31.4399C60.3766 31.4378 60.3863 31.4348 60.3958 31.4311C60.4164 31.4233 60.4214 31.4228 60.4287 31.427C60.4361 31.4316 60.4498 31.4367 60.4662 31.4325L60.4676 31.4353L60.4968 31.4316L60.5361 31.4265C60.6522 31.4117 60.7528 31.3983 60.8432 31.4478L60.8757 31.4653L60.8949 31.4362L60.9072 31.4491C60.9305 31.4755 60.9712 31.5208 61.0302 31.5111C61.043 31.5222 61.0576 31.5314 61.0704 31.5393L61.0873 31.5494V31.5513L61.0955 31.5624C61.1138 31.5869 61.1526 31.5989 61.1837 31.5998C61.2518 31.6719 61.3208 31.7712 61.3208 31.8147V31.8554H61.351L61.3514 31.8577C61.3623 31.9113 61.3779 31.9774 61.4186 32.0213C61.4076 32.0485 61.4172 32.0813 61.4217 32.0952L61.4259 32.11L61.4158 32.1405L61.4423 32.1678L61.4483 32.1715C61.4488 32.1968 61.4557 32.2216 61.4684 32.2435L61.4752 32.2588L61.4688 32.274C61.4323 32.3438 61.4812 32.3826 61.504 32.4011L61.5132 32.4085C61.4953 32.4228 61.4958 32.4372 61.4926 32.4621L61.4953 32.4931L61.5077 32.513H61.5086L61.51 32.5176C61.5123 32.5258 61.5155 32.5337 61.5196 32.5411L61.5054 32.5545L61.4963 32.5911L61.5164 32.6202L61.5324 32.628C61.532 32.6447 61.5383 32.659 61.5424 32.6691C61.5434 32.671 61.5443 32.6728 61.5447 32.6756L61.5411 32.6936C61.5274 32.7606 61.5109 32.8471 61.552 32.9168L61.5484 32.9201C61.5297 32.9455 61.5342 32.9746 61.5379 32.9963C61.5388 33.0033 61.5406 33.0148 61.5397 33.0185L61.5297 33.0601C61.5293 33.0619 61.5429 33.0656 61.5543 33.0684C61.553 33.0726 61.5511 33.0763 61.5507 33.0809L61.5415 33.129H61.558C61.5552 33.1451 61.5548 33.1608 61.5543 33.1752C61.5539 33.1997 61.553 33.2158 61.5447 33.2283L61.5388 33.2343L61.537 33.2413C61.5251 33.2852 61.5411 33.3267 61.5543 33.36L61.5612 33.3785C61.5568 33.3831 61.5534 33.3885 61.5512 33.3945C61.549 33.4004 61.548 33.4068 61.5484 33.4132C61.5488 33.4169 61.5502 33.4201 61.5511 33.4229L61.5424 33.4317L61.5502 33.4557C61.5538 33.4674 61.5619 33.4772 61.5726 33.483L61.5657 33.4848C61.5644 33.4848 61.5644 33.5162 61.5644 33.5162V33.5278L61.5388 33.5347L61.5516 33.5611C61.5452 33.5735 61.5383 33.5916 61.5452 33.6114L61.5278 33.6424C61.5282 33.6414 61.5306 33.6609 61.5461 33.6687C61.5301 33.7242 61.5699 33.7648 61.5936 33.7893C61.6015 33.7965 61.6085 33.8046 61.6146 33.8134H61.5945L61.6096 33.8651L61.61 33.8665C61.6064 33.8697 61.6032 33.8739 61.6 33.8776L61.5671 33.8947L61.5776 33.94L61.5744 33.9506C61.5666 33.9742 61.573 33.9904 61.5794 33.9996C61.5808 34.0019 61.5826 34.0028 61.5844 34.0042C61.5684 34.0191 61.5584 34.0393 61.5561 34.0611L61.5524 34.0994L61.5835 34.104C61.581 34.112 61.5785 34.12 61.5762 34.1281C61.5725 34.1424 61.5693 34.1553 61.5625 34.165H61.5629L61.5597 34.1701L61.6136 34.2006C61.6073 34.2134 61.6023 34.2267 61.5985 34.2404L61.5926 34.2566H61.5889L61.5432 34.257L61.546 34.3096C61.5487 34.318 61.5496 34.3272 61.551 34.3378C61.552 34.3487 61.5535 34.3595 61.5556 34.3702V34.4233C61.5556 34.4331 61.5564 34.4428 61.5579 34.4524L61.5519 34.4557L61.556 34.4848C61.5574 34.4995 61.5574 34.5144 61.556 34.5291C61.5551 34.5382 61.5546 34.5473 61.5547 34.5564L61.5176 34.5758L61.5624 34.6253C61.555 34.6409 61.551 34.6579 61.5505 34.6752H61.5186L61.5729 34.7422C61.5775 34.7477 61.5816 34.763 61.5844 34.7736L61.5857 34.7778C61.5633 34.7995 61.5597 34.8318 61.5579 34.8489C61.5569 34.8568 61.556 34.8683 61.5542 34.8716L61.5546 34.8706L61.5688 34.8887C61.56 34.8954 61.553 34.9041 61.5482 34.9141C61.5429 34.9261 61.5413 34.9395 61.5436 34.9524H61.4911L61.5345 34.9963L61.4938 35.0097L61.5276 35.0384V35.1474C61.5276 35.1673 61.5372 35.1835 61.5528 35.1918L61.556 35.1932C61.577 35.2071 61.6008 35.2066 61.62 35.2024V35.2473L61.6716 35.232C61.7028 35.2213 61.7361 35.2188 61.7685 35.2246L61.8114 35.2338L61.8169 35.1899C61.8336 35.0328 61.8379 34.8746 61.8297 34.7167C61.8218 34.574 61.8255 34.4309 61.8407 34.2888C61.8526 34.262 61.8403 34.2371 61.8325 34.2241L61.8327 34.2242Z" fill="#EC6D2D"/>
</g>
<defs>
<clipPath id="clip0_308_124">
<rect width="99" height="11.2378" fill="white" transform="translate(15 27)"/>
</clipPath>
</defs>
</svg>
