<svg width="60" height="60" viewBox="0 0 60 60" fill="none" xmlns="http://www.w3.org/2000/svg">
<rect width="60" height="60" fill="#EC6D2D"/>
<path fill-rule="evenodd" clip-rule="evenodd" d="M12.3428 47.0269H46.7698V12.2124H12.3428V47.0269Z" fill="white"/>
<path fill-rule="evenodd" clip-rule="evenodd" d="M10.1128 9.95703H49V49.2816H10.1128V9.95703ZM12.342 47.0274H46.7691V12.2129H12.342V47.0274Z" fill="#EC6D2D"/>
<path fill-rule="evenodd" clip-rule="evenodd" d="M44.8876 21.0605L44.8764 21.0508H44.875C44.64 20.9085 44.2818 20.826 44.0419 20.9327C42.5067 20.7839 41.0402 20.8001 39.4874 20.8195H39.3787C38.6015 20.8292 37.7955 20.8389 36.9911 20.8244L30.4823 20.6902C28.8709 20.6501 27.2586 20.6614 25.6479 20.7241C24.4342 20.7338 23.254 20.7662 22.053 20.8017C20.8024 20.8357 17.8152 20.8438 16.0305 20.8503C15.5262 20.849 15.0219 20.8517 14.5177 20.8583C14.3066 20.8696 14.0507 21.1672 14.0459 21.4049C14.0445 21.5407 14.1211 21.6927 14.3466 21.7154C14.5145 21.7315 15.5939 21.738 17.5561 21.7316L19.5599 21.7234C20.0924 21.722 20.3403 21.7299 20.4554 21.717H20.4698C21.9427 21.5666 23.4219 21.5747 24.8516 21.5844H24.9619C25.8878 21.5892 26.8457 21.5941 27.8084 21.5553C28.0083 21.6021 28.2194 21.5586 28.4225 21.5164L28.4529 21.5116C28.5441 21.4938 28.6384 21.476 28.728 21.4679C28.9471 21.5326 29.1981 21.5294 29.462 21.5229C29.7179 21.5165 29.9769 21.5132 30.2136 21.5682L30.215 21.5747L30.255 21.5733L30.2564 21.5684C30.4643 21.4972 30.653 21.5344 30.8545 21.5733C30.9567 21.5961 31.0604 21.6117 31.1647 21.6201C33.0246 21.5684 35.0811 21.6347 37.6478 21.8336L38.8615 21.9662V21.9676H38.8743C39.9538 21.8609 41.0684 21.9433 42.1462 22.0242C42.1553 22.0245 42.1643 22.025 42.1734 22.0256C42.9842 22.0855 43.7502 22.1421 44.5114 22.1259L44.5162 22.134L44.561 22.1178L44.5596 22.1081L44.9626 21.7831L44.964 21.7845L44.9816 21.7635L44.9802 21.7621C45.0457 21.6518 45.0721 21.5222 45.0553 21.3947C45.0384 21.2672 44.9795 21.1495 44.8876 21.0605Z" fill="#E3B228"/>
<path fill-rule="evenodd" clip-rule="evenodd" d="M34.1209 35.042L34.1545 35.021V34.9402L34.1257 32.3787V32.3722L34.1243 32.3658C34.0837 31.946 34.0624 31.5246 34.0604 31.1028C34.0492 30.5967 34.038 30.0711 33.9708 29.6054C33.958 28.9424 33.8269 28.2292 33.7006 27.542L33.6174 27.0746L33.6094 27.0293L33.5774 26.997C33.4767 26.8951 33.4415 26.7642 33.4031 26.6154C33.3695 26.4892 33.3359 26.3615 33.2592 26.2386C33.0897 25.9249 32.821 25.6209 32.5827 25.3524L32.57 25.3395C32.5108 25.257 32.442 25.215 32.3813 25.1746C32.3461 25.152 32.3125 25.1309 32.2757 25.0986L32.2213 25.0517L32.1877 25.0598L32.1446 25.0242C31.9303 24.8512 31.7304 24.7849 31.4985 24.7073L31.4937 24.7058C31.4266 24.6088 31.2986 24.5943 31.2123 24.5926V24.5296L31.0923 24.5102L30.5278 24.4245L30.4447 24.4115L30.3935 24.481C30.3727 24.5085 30.3679 24.515 30.2496 24.4713C30.192 24.4483 30.1318 24.4326 30.0704 24.4244L30.0049 24.418L29.9713 24.4503C29.9513 24.4352 29.9299 24.4222 29.9073 24.4115L29.6738 24.3403L29.6546 24.4503C29.5615 24.4468 29.469 24.4674 29.386 24.5101H29.015L28.6696 24.5115L28.7095 24.6441L28.7032 24.6506C28.5512 24.6118 28.4361 24.7056 28.3705 24.7589L28.3386 24.7864C28.2154 24.8074 28.1467 24.8592 28.0971 24.8964C28.0603 24.9238 28.0491 24.9336 28.0155 24.9352L27.9579 24.9417L27.9212 24.9869C27.8306 25.0616 27.7285 25.1206 27.6189 25.1616L27.4286 25.2473L27.4702 25.2877C27.4371 25.3023 27.4068 25.3225 27.3807 25.3476H27.1967V25.4931L27.176 25.4898L27.0736 25.4462C27.0656 25.4429 26.9985 25.5351 26.9985 25.5351C26.8865 25.6936 26.741 25.8488 26.5875 26.0138C26.4084 26.2062 26.2213 26.4067 26.0805 26.6234L26.0374 26.6881L26.0645 26.7528C26.0309 26.7738 25.9446 26.8288 25.9286 26.9339C25.8732 27.0045 25.8393 27.0899 25.8311 27.1797C25.8278 27.2007 25.8247 27.2298 25.8182 27.2428C25.7599 27.3153 25.7238 27.4036 25.7143 27.4966C25.7047 27.55 25.6999 27.5807 25.6775 27.6082L25.5864 27.7247L25.6264 27.7554C25.5992 27.8249 25.5992 27.8977 25.5976 27.9413C25.5976 27.9608 25.5976 27.9834 25.5943 27.9996L25.5351 28.0367L25.5479 28.1289C25.5735 28.31 25.5493 28.4766 25.5271 28.6529C25.4968 28.8301 25.4877 29.0103 25.4999 29.1897C25.4312 29.2965 25.4472 29.4242 25.4584 29.5018C25.4632 29.5293 25.468 29.5665 25.4664 29.5843L25.3752 29.6555L25.4408 29.7638C25.4904 29.8463 25.4504 29.9789 25.4136 30.1034C25.3785 30.2247 25.3369 30.3735 25.38 30.5028C25.3597 30.5194 25.3437 30.5407 25.3334 30.5649C25.3231 30.5892 25.3188 30.6156 25.3209 30.6419C25.3209 30.7405 25.3128 30.7713 25.3081 30.7777L25.2409 30.9184L25.2313 30.9734L25.3529 31.0591C25.3422 31.1343 25.3438 31.2108 25.3577 31.2855C25.3721 31.3793 25.3752 31.4181 25.3481 31.4553L25.2713 31.5927L25.3465 31.6833V31.7092C25.3432 31.7706 25.3353 31.8822 25.4136 31.9647C25.415 31.9808 25.4184 31.9954 25.4232 32.01L25.2857 32.0455L25.3753 32.238L25.3657 32.2865C25.3529 32.3431 25.3273 32.4563 25.3849 32.5549C25.3417 32.6681 25.3689 32.7781 25.3863 32.8508C25.3911 32.8719 25.3991 32.8994 25.4007 32.9188C25.2695 33.0578 25.3335 33.2406 25.3687 33.3392C25.3079 33.433 25.3223 33.5446 25.3351 33.6125L25.1592 33.6723L25.3383 33.8567C25.3325 33.8801 25.3313 33.9045 25.3349 33.9283C25.3385 33.9522 25.3467 33.9751 25.3591 33.9958C25.3799 34.0297 25.407 34.0491 25.4342 34.0621L25.3799 34.0799L25.3862 34.0976V34.099L25.4502 34.264L25.4469 34.2834C25.4329 34.3763 25.4528 34.4711 25.5029 34.5502C25.4845 34.5724 25.4743 34.6005 25.4741 34.6295L25.4038 34.7006L25.4709 34.7993C25.5237 34.8769 25.5045 34.9771 25.4661 35.1356C25.4309 35.2747 25.3878 35.4509 25.4675 35.603L25.3684 35.7016L25.4931 35.7938C25.4906 35.8006 25.4873 35.8071 25.4835 35.8132C25.4515 35.873 25.394 35.983 25.4659 36.1043L25.4596 36.0897C25.4851 36.1463 25.474 36.2417 25.461 36.3404C25.445 36.4843 25.4242 36.6589 25.4994 36.832L25.4754 37.005L25.4802 36.984C25.464 37.0402 25.4703 37.1006 25.4977 37.1521L25.4434 37.178L25.4818 37.2977C25.5166 37.4431 25.53 37.593 25.5217 37.7424C25.5217 38.0496 25.5231 38.4005 25.7984 38.6674L25.8576 38.724L25.9359 38.6997C26.1422 38.6382 26.1518 38.4312 26.1582 38.3197C26.1582 38.2954 26.1596 38.2728 26.163 38.255L26.1663 38.2243L26.1583 38.1935C26.0751 37.9105 26.1103 37.5402 26.1423 37.2136L26.1646 36.9645L26.1679 36.9257L26.1503 36.8901C26.0944 36.7769 26.1088 36.6637 26.1232 36.5328C26.1466 36.4045 26.1423 36.2726 26.1104 36.1463C26.1568 35.5479 26.1296 34.8364 26.104 34.2122C26.0961 33.947 26.0848 33.6964 26.08 33.4635V33.4506C26.0517 33.1447 26.0458 32.8372 26.0625 32.5305C26.0705 32.2539 26.0784 31.9693 26.0544 31.7074C26.12 31.4082 26.1168 31.1349 26.1104 30.8454C26.109 30.7145 26.1056 30.5786 26.1104 30.4379L26.1118 30.4024L26.1022 30.3846C26.1662 30.3054 26.1806 30.2245 26.1486 30.1469C26.1725 30.0462 26.1848 29.9431 26.1853 29.8396C26.1842 29.7685 26.1907 29.6975 26.2045 29.6278L26.2126 29.5938L26.203 29.5598C26.1854 29.4968 26.203 29.424 26.2206 29.3464C26.2526 29.244 26.2543 29.1344 26.2254 29.0311C26.3373 28.8063 26.3597 28.5314 26.3837 28.2629L26.3917 28.1708C26.4013 28.1125 26.3805 28.0576 26.3341 28.009V28.0009C26.3341 27.8829 26.3949 27.7875 26.4701 27.6662C26.5738 27.522 26.6428 27.3554 26.6716 27.1795L26.6748 27.1455L26.6734 27.1374L26.7054 27.1083C26.7566 27.0662 26.8349 26.9983 26.8333 26.8916C26.8333 26.8723 26.83 26.8532 26.8237 26.835C26.9087 26.7523 26.9804 26.6569 27.0364 26.552C27.1164 26.4178 27.1739 26.3191 27.3307 26.2738L27.4074 26.2512L27.4282 26.172C27.4506 26.0847 27.5258 26.0345 27.6473 25.9585C27.7487 25.902 27.8391 25.8275 27.9144 25.7386C28.0151 25.7467 28.0775 25.7192 28.1127 25.6788C28.2225 25.6466 28.3236 25.5897 28.4085 25.5122C28.538 25.4071 28.5796 25.3844 28.6692 25.4233L28.7587 25.4653L28.8147 25.4087L28.8259 25.4054C28.8659 25.3941 28.9378 25.3747 28.9794 25.3084C29.0136 25.3002 29.0472 25.29 29.0801 25.2776C29.1537 25.2502 29.1713 25.2485 29.1953 25.2615C29.2149 25.2738 29.2368 25.2818 29.2597 25.2852C29.2825 25.2885 29.3058 25.2871 29.328 25.2809L29.3328 25.2922L29.4352 25.2792L29.5711 25.2615C29.9773 25.2081 30.3291 25.1628 30.6457 25.3342L30.7593 25.3973L30.8265 25.2938L30.8696 25.3407C30.9512 25.4329 31.0935 25.5914 31.2998 25.5558C31.3446 25.5946 31.3957 25.6269 31.4405 25.6528L31.4997 25.69V25.6964L31.5268 25.7336C31.5908 25.8209 31.7267 25.8614 31.8371 25.8662C32.0754 26.1201 32.3168 26.4662 32.3168 26.6182V26.7605H32.4208L32.424 26.7686C32.4624 26.9562 32.5168 27.189 32.6607 27.341C32.6192 27.4365 32.6559 27.5529 32.6703 27.6014L32.6847 27.6531L32.6495 27.7599L32.7423 27.8553L32.7631 27.8666C32.7583 27.9652 32.8015 28.0558 32.8318 28.1205C32.8408 28.1384 32.8488 28.1567 32.8558 28.1755L32.8335 28.2272C32.7071 28.4714 32.8766 28.6072 32.9582 28.6719C32.9689 28.6798 32.9791 28.6884 32.9886 28.6978C32.9246 28.7463 32.9278 28.798 32.9166 28.8854L32.9262 28.9921L32.9694 29.0632H32.9727L32.9775 29.0778C32.9823 29.0988 32.9935 29.1279 33.0111 29.1603L32.9631 29.2072L32.9295 29.3349L32.9999 29.4384L33.0543 29.4659C33.0553 29.5161 33.0679 29.5654 33.091 29.6098L33.099 29.6308L33.0863 29.6939C33.0399 29.9284 32.9807 30.2308 33.1247 30.4733L33.1119 30.4862C33.0447 30.5752 33.0623 30.6787 33.0735 30.7547C33.0768 30.7789 33.0847 30.8177 33.0799 30.8307L33.0447 30.9778C33.0447 30.9843 33.0911 30.9973 33.1327 31.0053C33.1279 31.0215 33.1215 31.0344 33.1183 31.0506L33.0879 31.2188H33.1439C33.1343 31.277 33.1327 31.3304 33.131 31.3805C33.1296 31.4662 33.1262 31.5212 33.0959 31.5664L33.0847 31.5859L33.0783 31.6085C33.0367 31.7637 33.0927 31.9093 33.1375 32.0257L33.163 32.0888C33.1475 32.105 33.1355 32.1243 33.1278 32.1454C33.1201 32.1666 33.1168 32.1891 33.1183 32.2117C33.1183 32.2246 33.1246 32.2343 33.1279 32.2456L33.0959 32.278L33.1231 32.3604C33.139 32.4089 33.1663 32.438 33.2014 32.4558L33.1774 32.4623C33.1726 32.4637 33.1726 32.5739 33.1726 32.5739V32.6127L33.0847 32.6386L33.1294 32.7324C33.1137 32.7582 33.1036 32.7872 33.0998 32.8173C33.0959 32.8474 33.0984 32.878 33.1071 32.907L33.0463 33.017C33.0496 33.0137 33.0559 33.0817 33.1103 33.1075C33.0543 33.3032 33.195 33.4455 33.2766 33.5312C33.3031 33.5562 33.3277 33.5832 33.3502 33.6121H33.2798L33.3326 33.7964L33.334 33.8013L33.2972 33.8401L33.182 33.8983L33.2188 34.0568L33.2076 34.094C33.1805 34.1781 33.2012 34.233 33.2252 34.267C33.23 34.2751 33.2364 34.2783 33.2428 34.2832C33.1869 34.3351 33.1517 34.4058 33.1437 34.4821L33.1309 34.6163L33.238 34.6324C33.2287 34.6601 33.2207 34.6882 33.214 34.7165C33.1996 34.7667 33.1884 34.8103 33.1644 34.8443L33.1658 34.8457L33.1562 34.8619L33.3449 34.9686C33.3218 35.0128 33.3036 35.0594 33.2906 35.1077L33.2714 35.1659H33.257L33.0986 35.1673L33.1082 35.3516C33.1168 35.3839 33.1222 35.417 33.1242 35.4503C33.128 35.4884 33.1344 35.5262 33.1434 35.5635V35.7478C33.1434 35.7721 33.1434 35.8109 33.1514 35.8513L33.1306 35.8626L33.145 35.9645C33.1531 36.0163 33.1483 36.0664 33.145 36.1181C33.1436 36.1489 33.1402 36.1812 33.1402 36.2152L33.0123 36.2831L33.169 36.4561L33.1676 36.4626C33.1433 36.5148 33.1297 36.5715 33.1277 36.6291H33.0157L33.206 36.8636C33.222 36.8846 33.2364 36.9364 33.2476 36.9752L33.2508 36.9898C33.1725 37.0641 33.1597 37.1773 33.1549 37.2388C33.1516 37.2663 33.1485 37.3067 33.1421 37.3164L33.1453 37.3131L33.1933 37.3778C33.1628 37.4007 33.1382 37.4307 33.1214 37.4651C33.1039 37.5075 33.0984 37.554 33.1054 37.5993H32.9215L33.0734 37.753L32.9311 37.7998L33.0494 37.9001V38.2817C33.0494 38.3513 33.083 38.4095 33.139 38.4386C33.1424 38.4404 33.1462 38.4415 33.1501 38.4419C33.1833 38.4625 33.2203 38.4759 33.2588 38.4815C33.2973 38.4871 33.3365 38.4846 33.374 38.4742V38.6327L33.5563 38.5777C33.6648 38.5401 33.7811 38.5317 33.8938 38.5534L34.0441 38.5858L34.0633 38.4321C34.1368 37.8613 34.1224 37.3099 34.1081 36.7762C34.0953 36.2571 34.0825 35.7623 34.148 35.2804C34.1623 35.2411 34.1672 35.1991 34.1625 35.1575C34.1578 35.1159 34.1435 35.0761 34.1209 35.0411L34.1209 35.042Z" fill="#006A32"/>
<path fill-rule="evenodd" clip-rule="evenodd" d="M23.3203 35.042L23.3539 35.021L23.3251 32.3787V32.3722L23.3237 32.3658C23.2831 31.946 23.2618 31.5246 23.2598 31.1028C23.2486 30.5967 23.2374 30.0711 23.1686 29.6054C23.1574 28.9424 23.0263 28.2292 22.8999 27.542L22.8168 27.0746L22.8088 27.0293L22.7768 26.997C22.6745 26.8951 22.6409 26.7642 22.6025 26.6154C22.5689 26.4892 22.5353 26.3615 22.457 26.2386C22.2891 25.9249 22.0188 25.6209 21.7805 25.3524L21.7693 25.3395C21.7102 25.257 21.6398 25.215 21.579 25.1746C21.5438 25.152 21.5103 25.1309 21.4735 25.0986L21.4191 25.0517L21.3855 25.0598L21.3424 25.0242C21.1281 24.8512 20.9282 24.7849 20.6963 24.7073L20.6915 24.7058C20.6243 24.6088 20.498 24.5943 20.41 24.5926V24.5296L20.2901 24.5102L19.7256 24.4245L19.6424 24.4115L19.5913 24.481C19.5705 24.5085 19.5657 24.515 19.4473 24.4713C19.393 24.4519 19.3354 24.4309 19.2698 24.4244L19.2027 24.418L19.1707 24.4503C19.1501 24.4353 19.1282 24.4223 19.1051 24.4115L18.8716 24.3403L18.8524 24.4503C18.7593 24.4466 18.6668 24.4672 18.5838 24.5101H18.2128L17.8658 24.5115L17.9073 24.6441L17.9009 24.6506C17.749 24.6118 17.6339 24.7056 17.5699 24.7589C17.5587 24.7687 17.5459 24.7816 17.5363 24.7864C17.4478 24.8015 17.3647 24.8394 17.2948 24.8964C17.2581 24.9238 17.2469 24.9336 17.2133 24.9352L17.1557 24.9417L17.1189 24.9869C17.0284 25.0616 16.9263 25.1206 16.8167 25.1616L16.6264 25.2473L16.668 25.2877C16.6346 25.3026 16.6038 25.3228 16.5768 25.3476H16.3945V25.4931C16.3874 25.4932 16.3804 25.4921 16.3737 25.4898L16.2698 25.4462C16.2422 25.4731 16.2175 25.5029 16.1962 25.5351C16.0843 25.6936 15.9387 25.8488 15.7852 26.0138C15.6061 26.2062 15.419 26.4067 15.2783 26.6234L15.2351 26.6881L15.2639 26.7528C15.2303 26.7738 15.1424 26.8288 15.128 26.9339C15.0592 27.0099 15.0432 27.1118 15.032 27.1797C15.0294 27.201 15.0251 27.2221 15.0193 27.2428C14.9623 27.3162 14.9263 27.404 14.9153 27.4966C14.9057 27.55 14.9009 27.5807 14.8786 27.6082L14.7874 27.7247L14.829 27.7554C14.8002 27.8249 14.8002 27.8977 14.8002 27.9413C14.8 27.9608 14.7989 27.9802 14.7969 27.9996L14.7361 28.0367L14.7489 28.1289C14.7745 28.31 14.7522 28.4766 14.7281 28.6529C14.6986 28.8302 14.6895 29.0103 14.701 29.1897C14.6322 29.2965 14.6482 29.4242 14.661 29.5018C14.6658 29.5293 14.6706 29.5665 14.669 29.5843L14.5778 29.6555L14.6418 29.7638C14.6914 29.8463 14.6514 29.9789 14.6146 30.1034C14.581 30.2247 14.5395 30.3735 14.5827 30.5028C14.5619 30.5189 14.5457 30.5402 14.5356 30.5646C14.5255 30.589 14.5219 30.6156 14.5251 30.6419C14.5251 30.7405 14.5155 30.7713 14.5107 30.7777L14.4435 30.9184L14.4323 30.9734L14.5539 31.0591C14.5445 31.1345 14.5467 31.2108 14.5603 31.2855C14.5747 31.3793 14.5778 31.4181 14.5507 31.4553L14.4739 31.5927L14.5507 31.6833L14.5493 31.7092C14.546 31.7706 14.5413 31.8822 14.6164 31.9647C14.6178 31.9808 14.6212 31.9954 14.626 32.01L14.4885 32.0455L14.5781 32.238L14.5685 32.2865C14.5541 32.3431 14.5285 32.4563 14.586 32.5549C14.5565 32.6514 14.557 32.7547 14.5874 32.8508C14.5922 32.8719 14.6002 32.8994 14.6018 32.9188C14.4723 33.0578 14.5347 33.2406 14.5699 33.3392C14.5091 33.433 14.5235 33.5446 14.5363 33.6125L14.3604 33.6723L14.5411 33.8567C14.5353 33.8801 14.5341 33.9045 14.5377 33.9283C14.5413 33.9522 14.5495 33.9751 14.5618 33.9958C14.5794 34.0253 14.6057 34.0485 14.637 34.0621L14.581 34.0799L14.589 34.0976V34.099L14.653 34.264L14.6516 34.2834C14.6378 34.3761 14.6571 34.4706 14.706 34.5502C14.6882 34.5728 14.6781 34.6006 14.6772 34.6295L14.6068 34.7006L14.6756 34.7993C14.7284 34.8769 14.7076 34.9771 14.6692 35.1356C14.634 35.2747 14.5908 35.4509 14.6725 35.603L14.5733 35.7016L14.6981 35.7938L14.6885 35.8132C14.6565 35.873 14.5989 35.983 14.6725 36.1043L14.6645 36.0897C14.69 36.1463 14.6804 36.2417 14.6677 36.3404C14.6344 36.5046 14.6478 36.675 14.7061 36.832L14.6805 37.005L14.6853 36.984C14.6703 37.0401 14.6759 37.0999 14.7013 37.1521L14.6469 37.178L14.6854 37.2977C14.7207 37.443 14.7347 37.5929 14.7269 37.7424C14.7283 38.0496 14.7283 38.4005 15.0052 38.6674L15.0643 38.724L15.1427 38.6997C15.349 38.6382 15.3586 38.4312 15.365 38.3197C15.365 38.2954 15.365 38.2728 15.3683 38.255L15.3715 38.2243L15.3635 38.1935C15.2803 37.9105 15.3155 37.5402 15.3459 37.2136C15.3539 37.1246 15.3619 37.0438 15.3667 36.9645L15.37 36.9257L15.3524 36.8901C15.2964 36.7769 15.3108 36.6637 15.3252 36.5328C15.3495 36.4046 15.3451 36.2725 15.3124 36.1463C15.3588 35.5479 15.3316 34.8364 15.306 34.2122C15.2964 33.947 15.2853 33.6964 15.282 33.4635V33.4506C15.2469 33.153 15.2565 32.8377 15.2644 32.5305C15.2724 32.2539 15.2804 31.9693 15.2564 31.7074C15.3204 31.4082 15.3172 31.1349 15.3124 30.8454C15.311 30.7145 15.3076 30.5786 15.3124 30.4379L15.3138 30.4024L15.3042 30.3846C15.3665 30.3054 15.3825 30.2245 15.349 30.1469C15.3793 30.0385 15.3826 29.9318 15.3857 29.8396C15.389 29.7653 15.3905 29.6941 15.4065 29.6278L15.4145 29.5938L15.4049 29.5598C15.3932 29.4884 15.3987 29.4152 15.4209 29.3464C15.4544 29.2443 15.4566 29.1344 15.4273 29.0311C15.5376 28.8063 15.5616 28.5314 15.584 28.2629L15.592 28.1708C15.5961 28.1412 15.5931 28.1112 15.5834 28.0831C15.5736 28.0549 15.5574 28.0296 15.5361 28.009V28.0009C15.5361 27.8829 15.5952 27.7875 15.672 27.6662C15.7758 27.5223 15.8444 27.3554 15.8719 27.1795L15.8767 27.1455L15.8734 27.1374L15.9054 27.1083C15.9566 27.0662 16.0349 26.9983 16.0333 26.8916C16.0325 26.8724 16.0292 26.8533 16.0237 26.835C16.1229 26.746 16.1821 26.6441 16.2364 26.552C16.3148 26.4178 16.3724 26.3191 16.5307 26.2738L16.6074 26.2512L16.6282 26.172C16.6506 26.0847 16.7274 26.0345 16.8489 25.9585C16.95 25.9024 17.0401 25.8278 17.1144 25.7386C17.2151 25.7467 17.2775 25.7192 17.3143 25.6788C17.4241 25.6466 17.5252 25.5897 17.6101 25.5122C17.7396 25.4071 17.7812 25.3844 17.8708 25.4233L17.9603 25.4653L18.0163 25.4087C18.0207 25.4082 18.025 25.4071 18.0291 25.4054C18.0691 25.3941 18.1379 25.3747 18.181 25.3084C18.2194 25.3003 18.2546 25.2873 18.2834 25.2776C18.3554 25.2502 18.3729 25.2485 18.3969 25.2615C18.4165 25.2738 18.4385 25.2818 18.4613 25.2852C18.4841 25.2885 18.5074 25.2871 18.5297 25.2809L18.5329 25.2922L18.6369 25.2792L18.7744 25.2615C19.179 25.2081 19.5308 25.1628 19.8474 25.3342L19.961 25.3973L20.0281 25.2938C20.0429 25.3086 20.0568 25.3243 20.0697 25.3407C20.1513 25.4329 20.2936 25.5914 20.5015 25.5558C20.5463 25.5946 20.5974 25.6269 20.6422 25.6528L20.7014 25.69V25.6964L20.7302 25.7336C20.7942 25.8209 20.9301 25.8614 21.0388 25.8662C21.2771 26.1201 21.5186 26.4662 21.5186 26.6182V26.7605H21.6241L21.6255 26.7686C21.6655 26.9562 21.7199 27.189 21.8622 27.341C21.8222 27.4365 21.8574 27.5529 21.8718 27.6014L21.8862 27.6531L21.851 27.7599L21.9438 27.8553L21.9646 27.8666C21.9598 27.9652 22.003 28.0558 22.0333 28.1205L22.0589 28.1755L22.0349 28.2272C21.9086 28.4714 22.0781 28.6072 22.1596 28.6719L22.19 28.6978C22.1261 28.7463 22.1293 28.798 22.1165 28.8854L22.1277 28.9921L22.1708 29.0632H22.1741L22.1789 29.0778C22.1853 29.0988 22.1949 29.1279 22.2125 29.1603L22.1645 29.2072L22.1309 29.3349L22.2013 29.4384L22.2604 29.461C22.259 29.5192 22.2828 29.5694 22.2972 29.6049L22.3052 29.626L22.2924 29.689C22.246 29.9235 22.1868 30.2259 22.3308 30.4685L22.3196 30.4814C22.2524 30.5703 22.27 30.6738 22.2828 30.7498C22.2861 30.7741 22.2924 30.8129 22.2892 30.8258L22.2525 30.973C22.2525 30.9794 22.2988 30.9924 22.3404 31.0005C22.3356 31.0166 22.3292 31.0296 22.326 31.0457L22.2956 31.2139H22.3532C22.3436 31.2721 22.342 31.3255 22.3404 31.3756C22.339 31.4613 22.3356 31.5163 22.3053 31.5616L22.2941 31.581L22.2877 31.6037C22.2461 31.7589 22.3021 31.9045 22.3484 32.0209L22.3724 32.084C22.3572 32.1003 22.3453 32.1196 22.3376 32.1408C22.3299 32.1619 22.3265 32.1844 22.3277 32.2069C22.3277 32.2198 22.334 32.2295 22.3357 32.2408L22.3053 32.2732L22.3325 32.3556C22.3469 32.4041 22.3757 32.4333 22.4108 32.451L22.3868 32.4575C22.382 32.4589 22.382 32.5691 22.382 32.5691V32.6079L22.2925 32.6305L22.3373 32.7243C22.3216 32.7502 22.3114 32.7791 22.3076 32.8092C22.3037 32.8393 22.3062 32.8699 22.3149 32.899L22.2541 33.0089C22.2555 33.0056 22.2653 33.0736 22.3197 33.0995C22.2637 33.2952 22.4028 33.4375 22.486 33.5232C22.513 33.5477 22.5376 33.5748 22.5596 33.604H22.4892L22.542 33.7884L22.5434 33.7932C22.5299 33.805 22.5176 33.818 22.5066 33.8321L22.3899 33.8903L22.4266 34.0487L22.4154 34.0859C22.3883 34.17 22.4107 34.225 22.433 34.259C22.4378 34.2671 22.4442 34.2703 22.4506 34.2751C22.3941 34.3265 22.3587 34.3975 22.3514 34.474L22.3387 34.6082L22.4474 34.6244C22.4378 34.6535 22.4282 34.681 22.4218 34.7085C22.4074 34.7586 22.3962 34.8023 22.3738 34.8362L22.3752 34.8377L22.3656 34.8538L22.5543 34.9605C22.5288 35.0107 22.5128 35.0608 22.5 35.0996C22.4958 35.1197 22.4893 35.1392 22.4808 35.1578H22.4664L22.3081 35.1593L22.3177 35.3436C22.3262 35.3759 22.3316 35.4089 22.3336 35.4422C22.3369 35.4803 22.3427 35.5182 22.3512 35.5554V35.7398C22.3512 35.7641 22.3512 35.8029 22.3592 35.8433L22.3368 35.8546L22.3512 35.9565C22.3576 36.0082 22.3545 36.0583 22.3512 36.1101C22.3498 36.1408 22.3464 36.1732 22.3464 36.2071L22.2185 36.275L22.3752 36.4481C22.3489 36.502 22.3342 36.561 22.332 36.6211H22.2201L22.4104 36.8556C22.4263 36.8766 22.4407 36.9283 22.4519 36.9672L22.4552 36.9817C22.3784 37.0561 22.3656 37.1693 22.3592 37.2308C22.356 37.2582 22.3529 37.2987 22.3448 37.3084L22.3481 37.3051L22.3961 37.3698C22.3656 37.3927 22.3409 37.4226 22.3241 37.4571C22.3059 37.4993 22.3003 37.5459 22.3081 37.5913H22.1242L22.2761 37.7449L22.1338 37.7918L22.2522 37.8921V38.2737C22.2522 38.3432 22.2858 38.4015 22.3401 38.4306L22.3513 38.4339C22.3845 38.4544 22.4214 38.4679 22.4599 38.4735C22.4984 38.479 22.5377 38.4766 22.5752 38.4662V38.6247L22.7559 38.5697C22.8649 38.532 22.9817 38.5236 23.0949 38.5454L23.2452 38.5777L23.2644 38.4241C23.338 37.8533 23.3236 37.3018 23.3092 36.7682C23.2948 36.2491 23.2821 35.7543 23.3476 35.2724C23.3908 35.1754 23.3476 35.088 23.3205 35.0411L23.3203 35.042Z" fill="#295493"/>
<path fill-rule="evenodd" clip-rule="evenodd" d="M44.7339 35.2368L44.7675 35.2141V35.1349L44.7387 32.5734V32.5556C44.6966 32.1365 44.6747 31.7156 44.6731 31.2943C44.6619 30.7881 44.6508 30.2626 44.5836 29.8001C44.5708 29.1339 44.4396 28.4223 44.3149 27.7334L44.2302 27.2645L44.2238 27.2225L44.1918 27.1885C44.1005 27.0796 44.0402 26.9477 44.0175 26.8068C43.9839 26.6807 43.9503 26.5513 43.8736 26.4284C43.704 26.1163 43.4354 25.8107 43.1971 25.5423L43.1843 25.5277C43.1323 25.4616 43.0682 25.4062 42.9956 25.3644C42.9604 25.3401 42.9268 25.3207 42.89 25.2884L42.8357 25.2415L42.8021 25.2495L42.7605 25.214C42.5676 25.0668 42.3481 24.9592 42.1144 24.897L42.1096 24.8956C42.0425 24.7986 41.9145 24.784 41.8282 24.7808V24.7193L41.7082 24.6999L41.1437 24.6158L41.0606 24.6029L41.011 24.6708C40.9902 24.7 40.9854 24.7048 40.8655 24.6627C40.8111 24.6433 40.7519 24.6207 40.688 24.6159L40.6208 24.6094L40.5888 24.6417C40.5686 24.6261 40.5466 24.6131 40.5233 24.6029L40.2898 24.5317L40.2706 24.6417C40.1775 24.6389 40.0852 24.6595 40.0019 24.7015H39.6309L39.2855 24.703L39.3271 24.8372L39.3207 24.8436C39.1688 24.8048 39.052 24.8986 38.9881 24.952L38.9561 24.9778C38.8673 24.993 38.7841 25.0315 38.7146 25.0894C38.6794 25.1169 38.6682 25.125 38.633 25.1283L38.5755 25.1331L38.5371 25.18C38.4859 25.2431 38.3228 25.3142 38.2365 25.3546L38.0462 25.4387L38.0877 25.4808C38.0547 25.4947 38.0244 25.5144 37.9982 25.539H37.8143V25.6861C37.8063 25.6861 37.7983 25.6847 37.7951 25.6813L37.6911 25.6392C37.6631 25.6656 37.6379 25.6948 37.616 25.7266C37.4903 25.8957 37.353 26.0556 37.205 26.2052C37.0259 26.3993 36.8404 26.5982 36.6981 26.8133L36.6549 26.8779L36.6837 26.9442C36.6501 26.9653 36.5637 27.0202 36.5477 27.1254C36.4922 27.1964 36.4589 27.2825 36.4518 27.3728C36.4492 27.3942 36.4444 27.4154 36.4374 27.4358C36.3794 27.508 36.3433 27.5956 36.3334 27.6881C36.3255 27.7431 36.319 27.7722 36.2967 27.8013L36.2055 27.9161L36.2455 27.9468C36.2183 28.0164 36.2183 28.0891 36.2167 28.1328C36.2167 28.1522 36.2167 28.1764 36.2134 28.191L36.1543 28.2282L36.167 28.322C36.1942 28.4999 36.1703 28.6681 36.1462 28.8443C36.1159 29.0215 36.1067 29.2018 36.1191 29.3812C36.0503 29.4879 36.0663 29.6141 36.0775 29.6933C36.0808 29.7208 36.0871 29.758 36.0855 29.7742L35.9944 29.8469L36.0599 29.9536C36.1095 30.0377 36.0695 30.1687 36.0328 30.2965C35.9992 30.4161 35.956 30.5649 35.9992 30.6927C35.9896 30.7024 35.9768 30.7137 35.9672 30.7266C35.9464 30.7575 35.9368 30.7946 35.94 30.8317C35.94 30.932 35.9304 30.9611 35.9256 30.9692L35.8601 31.1099L35.8489 31.1649L35.9704 31.2506C35.9611 31.3259 35.9633 31.4023 35.9768 31.477C35.9912 31.5708 35.9944 31.6096 35.9672 31.6468L35.892 31.7842L35.9672 31.8748V31.899C35.9639 31.9605 35.9576 32.0737 36.0344 32.1562C36.0358 32.1723 36.0392 32.1885 36.044 32.1998L35.9064 32.2354L35.996 32.4294L35.9864 32.4763C35.972 32.5345 35.948 32.6461 36.004 32.7464C35.9624 32.858 35.9896 32.9695 36.0072 33.0423C36.0136 33.0633 36.02 33.0908 36.0216 33.1102C35.8921 33.2477 35.9544 33.432 35.9896 33.529C35.9289 33.6228 35.9433 33.7344 35.956 33.8023L35.7817 33.8638L35.9608 34.0481C35.9501 34.095 35.9575 34.1442 35.9816 34.1856C35.9991 34.2152 36.0254 34.2385 36.0568 34.2519L36.0024 34.2697L36.0088 34.2891L36.0728 34.4556L36.0714 34.4734C36.0576 34.5661 36.0769 34.6607 36.1258 34.7403C36.1077 34.7633 36.0975 34.7917 36.097 34.8211L36.0266 34.8907L36.0938 34.9909C36.1481 35.0685 36.1274 35.1688 36.0874 35.3273C36.0538 35.4647 36.0122 35.6426 36.0922 35.7946L35.993 35.8949L36.1162 35.9854L36.1066 36.0048C36.0746 36.0631 36.017 36.1746 36.0906 36.2959L36.0842 36.2814C36.1098 36.338 36.0986 36.4317 36.0856 36.5304C36.0696 36.6759 36.0488 36.8506 36.124 37.0236L36.1 37.1982L36.1048 37.174C36.0966 37.2018 36.0939 37.231 36.0969 37.2599C36.1 37.2887 36.1086 37.3167 36.1224 37.3422L36.0664 37.3664L36.1048 37.4877C36.1402 37.6325 36.1542 37.7818 36.1464 37.9308C36.1478 38.2397 36.1478 38.5906 36.423 38.8558L36.4822 38.9124L36.5621 38.8898C36.7668 38.8267 36.778 38.6197 36.7844 38.5081C36.7845 38.4871 36.7856 38.466 36.7877 38.4451L36.791 38.4127L36.7829 38.3836C36.6998 38.1006 36.735 37.7303 36.7654 37.402L36.7877 37.153L36.791 37.1142L36.7734 37.0802C36.7174 36.9654 36.7318 36.8522 36.7462 36.7228C36.7699 36.5945 36.765 36.4625 36.7318 36.3363C36.7782 35.7364 36.751 35.0265 36.727 34.4007C36.7159 34.1517 36.7073 33.9027 36.7014 33.6536V33.639C36.6731 33.3332 36.6672 33.0256 36.6838 32.7189C36.6918 32.4424 36.6998 32.1594 36.6758 31.8974C36.7414 31.5982 36.7366 31.3249 36.7318 31.0339C36.7294 30.898 36.7294 30.7622 36.7318 30.6264L36.7332 30.5908L36.7236 30.573C36.7875 30.4954 36.8035 30.4145 36.7699 30.3369C36.7946 30.2359 36.807 30.1321 36.8067 30.028C36.8063 29.9575 36.8127 29.8871 36.8259 29.8178L36.8339 29.7822L36.8243 29.7483C36.814 29.6767 36.82 29.6037 36.8419 29.5348C36.8739 29.4324 36.8756 29.3228 36.8467 29.2195C36.957 28.9963 36.981 28.7198 37.005 28.4514L37.0114 28.3592C37.0157 28.3297 37.0129 28.2995 37.0031 28.2714C36.9934 28.2432 36.977 28.2178 36.9554 28.1975V28.1894C36.9554 28.0697 37.0162 27.9743 37.0914 27.853C37.1964 27.7096 37.2655 27.5426 37.2928 27.3663L37.2976 27.3323L37.2944 27.3258C37.3046 27.3157 37.3153 27.306 37.3264 27.2967C37.3791 27.2514 37.4559 27.1851 37.4543 27.0768C37.4544 27.058 37.4511 27.0394 37.4447 27.0218C37.5438 26.9313 37.603 26.831 37.659 26.7388C37.7389 26.603 37.7965 26.506 37.9532 26.4607L38.03 26.4364L38.0508 26.3588C38.0731 26.2715 38.1499 26.2197 38.2714 26.1437C38.3722 26.0877 38.4621 26.0137 38.5369 25.9254C38.6393 25.9335 38.7016 25.906 38.7368 25.8656C38.8469 25.833 38.9485 25.7761 39.0343 25.699C39.1622 25.5923 39.2054 25.5696 39.2949 25.6101L39.3829 25.6521L39.4389 25.5939C39.4433 25.5935 39.4476 25.5924 39.4517 25.5906C39.4821 25.5855 39.5113 25.5743 39.5374 25.5577C39.5635 25.541 39.586 25.5192 39.6036 25.4936C39.6385 25.4861 39.6727 25.4759 39.7059 25.4628C39.7779 25.4354 39.7955 25.4337 39.8211 25.4483C39.8467 25.4644 39.8946 25.4822 39.9522 25.4677L39.957 25.4774L40.0594 25.4644L40.1969 25.4467C40.6031 25.3949 40.9549 25.348 41.2715 25.5211L41.3851 25.5825L41.4522 25.4806L41.4954 25.5259C41.577 25.6181 41.7193 25.7766 41.9256 25.7426C41.9704 25.7814 42.0216 25.8138 42.0663 25.8412L42.1255 25.8768V25.8833L42.1543 25.9221C42.2183 26.0078 42.3542 26.0499 42.4629 26.0531C42.7012 26.3054 42.9427 26.653 42.9427 26.805V26.9474H43.0482L43.0496 26.9555C43.088 27.143 43.1424 27.3743 43.2847 27.5279C43.2463 27.6233 43.2799 27.7381 43.2959 27.7866L43.3103 27.8384L43.2751 27.9451L43.3679 28.0405L43.3887 28.0535C43.3905 28.1423 43.4147 28.2291 43.459 28.3058L43.483 28.3591L43.4607 28.4125C43.3327 28.6567 43.5039 28.7925 43.5838 28.8572L43.6158 28.8831C43.5534 28.9332 43.555 28.9833 43.5438 29.0706L43.5534 29.179L43.5966 29.2485H43.5999L43.6047 29.2647C43.6127 29.2934 43.624 29.3211 43.6383 29.3472L43.5887 29.394L43.5567 29.5218L43.6271 29.6237L43.683 29.6511C43.6816 29.7094 43.7038 29.7595 43.7182 29.7951C43.7215 29.8015 43.7246 29.808 43.7262 29.8177L43.7134 29.8808C43.6655 30.1152 43.6079 30.4176 43.7518 30.6618L43.7391 30.6731C43.6735 30.7621 43.6895 30.8639 43.7023 30.9399C43.7056 30.9642 43.7119 31.0046 43.7087 31.0176L43.6735 31.1631C43.6721 31.1696 43.7199 31.1825 43.7598 31.1922C43.755 31.2068 43.7487 31.2197 43.747 31.2359L43.7151 31.4041H43.7726C43.763 31.4607 43.7615 31.5157 43.7598 31.5658C43.7584 31.6515 43.755 31.7081 43.7262 31.7518L43.7054 31.7728L43.6991 31.797C43.6575 31.9507 43.7135 32.0962 43.7598 32.2126L43.7838 32.2773C43.7685 32.2933 43.7566 32.3124 43.7489 32.3332C43.7412 32.3541 43.7378 32.3764 43.739 32.3986C43.7404 32.4116 43.7454 32.4229 43.7486 32.4326L43.7183 32.4633L43.7454 32.5474C43.7581 32.5884 43.7863 32.6227 43.8238 32.6428L43.7998 32.6493C43.795 32.6493 43.795 32.7592 43.795 32.7592V32.7997L43.7054 32.8239L43.7502 32.9161C43.7278 32.9598 43.7038 33.0228 43.7278 33.0924L43.6671 33.2007C43.6685 33.1974 43.6767 33.2654 43.731 33.2929C43.6751 33.4869 43.8142 33.6292 43.8974 33.715C43.9249 33.7402 43.9495 33.7684 43.9709 33.799H43.9006L43.9533 33.9802L43.9547 33.985C43.9419 33.9963 43.9307 34.0109 43.9195 34.0238L43.8044 34.0837L43.8412 34.2421L43.83 34.2793C43.8028 34.3618 43.8252 34.4184 43.8476 34.4507C43.8524 34.4588 43.8587 34.4621 43.8651 34.4669C43.8092 34.5188 43.774 34.5895 43.766 34.6658L43.7532 34.8L43.8619 34.8162C43.8531 34.8441 43.8446 34.8722 43.8363 34.9003C43.8235 34.9504 43.8123 34.9957 43.7883 35.0296H43.7897L43.7786 35.0475L43.9673 35.1542C43.9453 35.1987 43.9276 35.2453 43.9145 35.2933L43.8937 35.3499H43.8809L43.721 35.3513L43.7306 35.5356C43.7402 35.5647 43.7434 35.5971 43.7482 35.6343C43.7516 35.6723 43.7569 35.71 43.7642 35.7475V35.9334C43.7642 35.9676 43.7669 36.0016 43.7722 36.0353L43.7514 36.0466L43.7658 36.1485C43.7706 36.2001 43.7706 36.2521 43.7658 36.3037C43.7625 36.3354 43.7609 36.3673 43.761 36.3991L43.6315 36.4671L43.7882 36.6401C43.7623 36.6947 43.7481 36.7542 43.7466 36.8147H43.6347L43.825 37.0492C43.841 37.0686 43.8554 37.122 43.865 37.1592L43.8698 37.1737C43.7914 37.2498 43.7786 37.3629 43.7722 37.4228C43.7689 37.4503 43.7658 37.4907 43.7594 37.502L43.7608 37.4987L43.8104 37.5618C43.7797 37.5852 43.7551 37.6157 43.7384 37.6507C43.72 37.6929 43.7144 37.7396 43.7224 37.7849H43.5385L43.6904 37.9386L43.5481 37.9854L43.6665 38.0857V38.4673C43.6665 38.5369 43.7001 38.5935 43.7544 38.6226L43.7656 38.6274C43.8391 38.676 43.9223 38.6743 43.9895 38.6598V38.8166L44.1702 38.7633C44.2792 38.7259 44.3958 38.717 44.5092 38.7374L44.6595 38.7697L44.6787 38.6161C44.7371 38.0662 44.7521 37.5125 44.7235 36.9602C44.6959 36.4608 44.7088 35.96 44.7619 35.4628C44.8035 35.369 44.7605 35.2816 44.7331 35.2364L44.7339 35.2368Z" fill="#EC6D2D"/>
</svg>
