<svg width="60" height="60" viewBox="0 0 60 60" fill="none" xmlns="http://www.w3.org/2000/svg">
<rect width="60" height="60" fill="#FC7900"/>
<path d="M20.636 26.3652C21.6136 26.3652 22.332 26.9401 22.332 27.7309C22.332 28.2055 22.0519 28.6005 21.6422 28.7587C22.1669 28.881 22.5334 29.3119 22.5334 29.8944C22.5334 30.7208 21.7355 31.3246 20.6503 31.3246H18.5015V26.3652H20.636ZM19.7237 27.3714V28.3131H20.5643C20.8949 28.3131 21.0963 28.1406 21.0963 27.8459C21.0963 27.5512 20.8953 27.3714 20.5643 27.3714H19.7237ZM20.6434 30.3184C21.0315 30.3184 21.2614 30.1244 21.2614 29.8011C21.2614 29.4778 21.0315 29.2837 20.6434 29.2837H19.7233V30.3188H20.6434V30.3184Z" fill="#23232F"/>
<path d="M26.1702 30.4262H24.1868L23.8705 31.3247H22.6128L24.4816 26.3657H25.9476L27.816 31.3247H26.4865L26.1702 30.4262ZM24.5387 29.42H25.8179L25.1783 27.6087L24.5387 29.42Z" fill="#23232F"/>
<path d="M29.3688 28.3995V31.3246H28.147V26.3652H29.297L31.3309 29.3624V26.3652H32.5527V31.3246H31.4027L29.3688 28.3995Z" fill="#23232F"/>
<path d="M37.2317 31.0805C36.8151 31.3247 36.3764 31.3968 35.7653 31.3968C34.2129 31.3968 33.0845 30.3258 33.0845 28.8598C33.0845 27.3792 34.2272 26.2939 35.7943 26.2939C36.3838 26.2939 36.8363 26.4016 37.16 26.6246V27.7673C36.7213 27.4799 36.2545 27.4081 35.8159 27.4081C34.9031 27.4081 34.3568 27.9471 34.3568 28.8456C34.3568 29.7437 34.9031 30.283 35.8301 30.283C36.3548 30.283 36.8151 30.175 37.2317 29.9381V31.0805Z" fill="#23232F"/>
<path d="M40.1789 26.2937C41.6881 26.2937 42.795 27.3716 42.795 28.8453C42.795 30.3187 41.6881 31.3969 40.1716 31.3969C38.6697 31.3969 37.5625 30.3187 37.5625 28.8527C37.5629 27.3789 38.6697 26.2937 40.1789 26.2937ZM40.1859 27.4079C39.3379 27.4079 38.8348 27.9468 38.8348 28.8453C38.8348 29.7434 39.3379 30.2828 40.1859 30.2828C41.0269 30.2828 41.5226 29.7434 41.5226 28.8453C41.523 27.9468 41.0269 27.4079 40.1859 27.4079Z" fill="#23232F"/>
<path d="M46.5692 29.5492H45.9728V31.3246H44.751V26.3652H46.7775C47.8917 26.3652 48.7111 27.0265 48.7111 27.9319C48.7111 28.5573 48.3373 29.0746 47.7625 29.3405L48.9341 31.3242H47.5183L46.5692 29.5492ZM45.9724 27.4435V28.5071H46.7771C47.1938 28.5071 47.4384 28.3061 47.4384 27.9751C47.4384 27.6445 47.1938 27.4435 46.7771 27.4435H45.9724Z" fill="#23232F"/>
<path d="M53.2317 31.0805C52.8151 31.3247 52.3764 31.3968 51.7653 31.3968C50.2129 31.3968 49.0845 30.3258 49.0845 28.8598C49.0845 27.3792 50.2272 26.2939 51.7943 26.2939C52.3838 26.2939 52.8363 26.4016 53.16 26.6246V27.7673C52.7213 27.4799 52.2545 27.4081 51.8159 27.4081C50.9031 27.4081 50.3568 27.9471 50.3568 28.8456C50.3568 29.7437 50.9031 30.283 51.8301 30.283C52.3548 30.283 52.8151 30.175 53.2317 29.9381V31.0805Z" fill="#23232F"/>
<path d="M54.9996 31.3246H53.7778V26.3652H54.9996V31.3246Z" fill="#23232F"/>
<path d="M16.5578 28.8238C16.5578 31.8214 14.1239 34.2515 11.1201 34.2515C8.1148 34.2515 5.67969 31.821 5.67969 28.8238C5.67969 25.825 8.1148 23.3945 11.1201 23.3945C14.1239 23.3945 16.5578 25.825 16.5578 28.8238Z" fill="white"/>
<path d="M19.647 33.2847C20.2253 33.2847 20.6127 33.591 20.6127 34.0462C20.6127 34.3525 20.4425 34.5867 20.1617 34.6843C20.5147 34.7611 20.7361 35.0288 20.7361 35.3949C20.7361 35.8926 20.3195 36.2202 19.681 36.2202H18.4985V33.2847H19.647ZM18.9368 33.6546V34.5265H19.6767C19.9576 34.5265 20.1659 34.3606 20.1659 34.084C20.1659 33.8159 19.9576 33.6543 19.6254 33.6543H18.9368V33.6546ZM19.6686 35.854C20.0598 35.854 20.277 35.6754 20.277 35.3649C20.277 35.067 20.0598 34.8799 19.7238 34.8799H18.9368V35.854H19.6686Z" fill="#23232F"/>
<path d="M22.3024 35.0119H21.6643V36.2202H21.2261V33.2847H22.3665C22.9621 33.2847 23.4 33.6419 23.4 34.1353C23.4 34.5312 23.1365 34.8375 22.7449 34.9563L23.5319 36.2198H23.0173L22.3024 35.0119ZM21.6643 33.6759V34.633H22.3665C22.7152 34.633 22.9409 34.4374 22.9409 34.1481C22.9409 33.8672 22.7195 33.6759 22.3665 33.6759H21.6643Z" fill="#23232F"/>
<path d="M25.7919 35.5648H24.3283L24.069 36.2199H23.6138L24.8136 33.2844H25.3325L26.5319 36.2199H26.0554L25.7919 35.5648ZM24.4772 35.1991H25.6469L25.0601 33.7358L24.4772 35.1991Z" fill="#23232F"/>
<path d="M26.6938 35.5823C27.0002 35.7651 27.3404 35.8758 27.7235 35.8758C28.1363 35.8758 28.3871 35.7269 28.3871 35.4461C28.3871 35.1864 28.1656 35.063 27.6637 34.9017C27.0214 34.6934 26.7023 34.455 26.7023 34.0422C26.7023 33.5742 27.1279 33.2424 27.7999 33.2424C28.1359 33.2424 28.4125 33.3061 28.6463 33.4253V33.8338C28.3697 33.7019 28.0638 33.634 27.7787 33.634C27.4045 33.634 27.1576 33.7744 27.1576 34.0171C27.1576 34.2509 27.3744 34.3531 27.9191 34.536C28.5831 34.757 28.8466 34.987 28.8466 35.4167C28.8466 35.9569 28.3446 36.2632 27.6896 36.2632C27.2899 36.2632 26.9365 36.1694 26.6942 36.0163V35.5823H26.6938Z" fill="#23232F"/>
<path d="M29.7151 36.2202H29.2769V33.2847H29.7151V36.2202Z" fill="#23232F"/>
<path d="M30.7747 35.833H32.3063V36.2199H30.3364V33.2844H30.7747V35.833Z" fill="#23232F"/>
</svg>
