<svg width="130" height="60" viewBox="0 0 130 60" fill="none" xmlns="http://www.w3.org/2000/svg">
<rect width="130" height="60" fill="white"/>
<path d="M54.4914 35.8494C54.4914 36.5382 54.3583 37.1487 54.0922 37.6653C53.8261 38.1819 53.4426 38.6124 52.9494 38.9646C52.4485 39.309 51.8536 39.5673 51.157 39.7395C50.4604 39.9117 49.6855 39.9978 48.8323 39.9978H41.647V24.86H48.6601C50.2178 24.86 51.431 25.2122 52.3154 25.9167C53.1999 26.6211 53.6382 27.576 53.6382 28.7736V28.8127C53.6382 29.6659 53.4504 30.3469 53.059 30.8556C52.6755 31.3644 52.2059 31.7792 51.6658 32.0767C52.0963 32.2489 52.4876 32.4445 52.8399 32.6637C53.1921 32.8829 53.4895 33.1333 53.7322 33.4308C53.9748 33.7282 54.1627 34.0648 54.2879 34.4561C54.421 34.8475 54.4836 35.2936 54.4836 35.7946V35.8494H54.4914ZM50.3586 29.3371C50.3586 28.8362 50.1708 28.4448 49.7951 28.1787C49.4194 27.9126 48.8793 27.7795 48.1749 27.7795H44.8874V30.9809H47.9557C48.6915 30.9809 49.2785 30.8556 49.709 30.6051C50.1395 30.3547 50.3586 29.9477 50.3586 29.3841V29.3371ZM51.204 35.3954C51.204 34.8945 51.0083 34.4874 50.6169 34.1978C50.2256 33.9004 49.5994 33.7517 48.7384 33.7517H44.8874V37.0782H48.8402C49.5759 37.0782 50.1551 36.9452 50.57 36.6791C50.9848 36.4129 51.1962 35.9981 51.1962 35.4345V35.3954H51.204Z" fill="#555860"/>
<path d="M72.1732 32.4289C72.1732 33.4934 71.9775 34.4874 71.5861 35.411C71.1948 36.3347 70.6469 37.133 69.9346 37.814C69.2223 38.495 68.377 39.0272 67.3907 39.4107C66.4123 39.8021 65.3244 39.9978 64.1268 39.9978H58.2251V24.86H64.1268C65.3244 24.86 66.4123 25.0557 67.3907 25.4314C68.3691 25.8149 69.2145 26.3472 69.9346 27.0203C70.6469 27.7013 71.2026 28.4918 71.5861 29.4076C71.9775 30.3234 72.1732 31.3174 72.1732 32.3819V32.4289ZM68.6901 32.4289C68.6901 31.7479 68.5805 31.1374 68.3691 30.5817C68.15 30.0259 67.8447 29.5485 67.4377 29.1415C67.0385 28.7423 66.5532 28.4292 65.9897 28.2022C65.4261 27.9752 64.8078 27.8656 64.1268 27.8656H61.5517V36.9921H64.1268C64.7999 36.9921 65.4261 36.8826 65.9897 36.6712C66.5532 36.4521 67.0385 36.1468 67.4377 35.7398C67.8447 35.3328 68.15 34.8553 68.3691 34.2996C68.5883 33.7439 68.6901 33.1333 68.6901 32.4758V32.4289Z" fill="#555860"/>
<path d="M87.6787 39.9978V30.112L83.3973 36.5773H83.3112L79.1158 30.1747V39.99H75.8284V24.86H79.4211L83.3973 31.2626L87.3735 24.86H90.9583V39.9978H87.6787Z" fill="#555860"/>
<path d="M109 37.8531C108.225 38.5184 107.294 39.082 106.221 39.5516C105.149 40.0213 103.92 40.2561 102.535 40.2561C101.353 40.2561 100.273 40.0604 99.3021 39.669C98.3315 39.2777 97.494 38.7376 96.7896 38.0488C96.0929 37.36 95.545 36.5382 95.1537 35.5832C94.7623 34.6283 94.5745 33.5951 94.5745 32.468V32.4289C94.5745 31.3487 94.7701 30.3312 95.1693 29.3919C95.5685 28.4448 96.1164 27.6152 96.8209 26.9029C97.5253 26.1906 98.3707 25.627 99.3412 25.22C100.312 24.8052 101.368 24.6017 102.511 24.6017C103.192 24.6017 103.803 24.6486 104.358 24.7426C104.914 24.8365 105.431 24.9696 105.908 25.1418C106.386 25.314 106.832 25.5331 107.247 25.7914C107.669 26.0497 108.069 26.3471 108.46 26.6759L106.362 29.2041C106.073 28.9614 105.783 28.7423 105.501 28.5544C105.212 28.3666 104.914 28.21 104.601 28.077C104.288 27.9517 103.951 27.85 103.599 27.7717C103.239 27.7013 102.84 27.6621 102.409 27.6621C101.799 27.6621 101.235 27.7874 100.711 28.0457C100.187 28.2961 99.7248 28.6405 99.3256 29.0632C98.9264 29.4937 98.6211 29.9868 98.3941 30.5582C98.1671 31.1296 98.0576 31.7401 98.0576 32.3897V32.4367C98.0576 33.1333 98.175 33.7673 98.3941 34.3544C98.6211 34.9414 98.9342 35.4502 99.3491 35.8807C99.7561 36.3112 100.241 36.6477 100.805 36.8904C101.368 37.1252 101.979 37.2504 102.644 37.2504C103.255 37.2504 103.818 37.1722 104.351 37.0234C104.883 36.8747 105.36 36.6399 105.775 36.3425V34.1665H102.425V31.2861H109V37.8531Z" fill="#555860"/>
<path d="M31.8395 29.2588L31.9178 29.2118L35.4322 27.1924C35.4635 27.169 35.487 27.1533 35.5183 27.1376C35.8079 26.9811 36.0427 26.7463 36.1993 26.4567C36.2149 26.4254 36.2306 26.4019 36.2384 26.3706C36.254 26.3314 36.2697 26.3001 36.2853 26.261C36.348 26.0888 36.3793 25.9009 36.3793 25.6974C36.3793 25.3061 36.254 24.9852 36.0349 24.7112C36.0349 24.7034 36.0271 24.6956 36.0271 24.6956C36.0662 24.7347 36.6845 25.3452 36.6845 26.3236C36.6845 27.0202 36.6845 31.8574 36.6845 31.8574V31.9514C36.6845 32.4601 36.5984 33.5168 35.3617 34.2213L28.9356 37.9548C28.1685 38.3932 27.425 37.9235 27.425 37.9235L22.1416 34.8944L31.8395 29.2588Z" fill="#555860"/>
<path d="M35.44 27.1925C35.4713 27.169 35.4948 27.1533 35.5261 27.1377C35.8157 26.9811 36.0506 26.7463 36.2071 26.4567C36.2228 26.4254 36.2384 26.4019 36.2462 26.3706C36.2619 26.3315 36.2775 26.3002 36.2932 26.261C36.3558 26.0888 36.3871 25.901 36.3871 25.6975C36.3871 25.3061 36.2619 24.9852 36.0427 24.7113C35.9018 24.5391 35.7218 24.3825 35.5027 24.2416C35.4166 24.1868 35.3774 24.1712 35.2835 24.1086L20.3101 15.4438V22.5823L31.8239 29.251L31.8395 29.2589L35.44 27.1925Z" fill="#D22828"/>
</svg>
