<svg width="60" height="60" viewBox="0 0 60 60" fill="none" xmlns="http://www.w3.org/2000/svg">
<rect width="60" height="60" fill="white"/>
<path d="M35.4176 34.2082L35.5401 34.1347L41.04 30.9744C41.089 30.9377 41.1257 30.9132 41.1747 30.8887C41.628 30.6437 41.9954 30.2762 42.2404 29.823C42.2649 29.774 42.2894 29.7372 42.3017 29.6882C42.3262 29.627 42.3507 29.578 42.3752 29.5168C42.4732 29.2473 42.5222 28.9533 42.5222 28.6348C42.5222 28.0223 42.3262 27.5201 41.9832 27.0914C41.9832 27.0791 41.9709 27.0669 41.9709 27.0669C42.0322 27.1281 42.9999 28.0836 42.9999 29.6147C42.9999 30.7049 42.9999 38.275 42.9999 38.275V38.422C42.9999 39.2182 42.8651 40.8718 40.9298 41.9743L30.8731 47.8172C29.6727 48.5031 28.509 47.7682 28.509 47.7682L20.2407 43.0277L35.4176 34.2082Z" fill="#555860"/>
<path d="M41.0524 30.9744C41.1014 30.9377 41.1381 30.9132 41.1871 30.8887C41.6403 30.6437 42.0078 30.2762 42.2528 29.823C42.2773 29.774 42.3018 29.7372 42.314 29.6883C42.3385 29.627 42.363 29.578 42.3875 29.5168C42.4855 29.2473 42.5345 28.9533 42.5345 28.6348C42.5345 28.0223 42.3385 27.5201 41.9956 27.0914C41.7751 26.8219 41.4933 26.5769 41.1504 26.3564C41.0156 26.2707 40.9544 26.2462 40.8074 26.1482L17.3745 12.5883V23.7596L35.3932 34.196L35.4177 34.2082L41.0524 30.9744Z" fill="#D22828"/>
</svg>
