<svg width="130" height="60" viewBox="0 0 130 60" fill="none" xmlns="http://www.w3.org/2000/svg">
<rect width="130" height="60" fill="white"/>
<path d="M70.9333 42.3135H75.4045C75.448 42.3166 75.4916 42.3109 75.5328 42.2966C75.574 42.2823 75.6118 42.2598 75.644 42.2305C75.6762 42.2012 75.702 42.1656 75.72 42.126C75.738 42.0864 75.7477 42.0436 75.7486 42.0001V29.6818C75.7486 26.1887 77.4689 24.3481 80.4389 24.3481C83.4089 24.3481 85.0978 26.1887 85.0978 29.6818V42.0017C85.0986 42.0451 85.1084 42.088 85.1263 42.1276C85.1444 42.1672 85.1702 42.2028 85.2023 42.2321C85.2346 42.2614 85.2724 42.2839 85.3136 42.2981C85.3547 42.3124 85.3984 42.3182 85.4419 42.3151H89.913C89.9565 42.3182 90.0002 42.3124 90.0413 42.2981C90.0825 42.2839 90.1203 42.2614 90.1526 42.2321C90.1847 42.2028 90.2106 42.1672 90.2286 42.1276C90.2465 42.088 90.2563 42.0451 90.2571 42.0017V29.7131C90.2571 24.4413 87.3185 19.8254 80.4381 19.8254C73.5578 19.8254 70.5892 24.4413 70.5892 29.7131V42.0017C70.5903 42.045 70.6002 42.0877 70.6182 42.1271C70.6364 42.1666 70.6623 42.2019 70.6944 42.231C70.7266 42.2602 70.7643 42.2825 70.8053 42.2967C70.8464 42.3109 70.8899 42.3166 70.9333 42.3135Z" fill="#00A868"/>
<path d="M40.165 42.5949C41.791 42.5949 42.8538 42.4076 43.3228 42.2204C43.3927 42.1925 43.4533 42.1455 43.4977 42.0848C43.5419 42.0241 43.5683 41.9521 43.5734 41.8771V38.1944C43.5734 37.9758 43.4791 37.8512 43.1979 37.8512C42.9787 37.8512 42.3535 37.9758 41.8531 37.9758C39.9144 37.9758 39.0707 37.2588 39.0707 35.5742V25.1905H43.1979C43.2889 25.1896 43.3759 25.1532 43.4403 25.089C43.5046 25.0248 43.5411 24.938 43.5419 24.8473V20.8237C43.5411 20.7329 43.5046 20.6461 43.4403 20.5819C43.3759 20.5177 43.2889 20.4813 43.1979 20.4805H38.9145V16.9874C38.9145 16.6128 38.7573 16.4569 38.4761 16.4569H34.2547C33.9115 16.4569 33.7551 16.6136 33.7551 16.9874V36.1062C33.7551 40.7544 36.3497 42.5949 40.165 42.5949Z" fill="#00A868"/>
<path d="M22.2182 42.8439C27.2526 42.8439 30.8487 39.7559 30.8487 35.7323C30.8487 31.2096 27.8465 29.9003 23.7507 29.0266L21.7178 28.5902C20.186 28.247 19.3416 27.5292 19.3416 26.3132C19.3416 24.7539 20.9048 23.9115 23.0626 23.9115C26.0955 23.9115 28.1591 25.2836 28.4717 25.2836C28.5586 25.2778 28.6423 25.2487 28.714 25.1993C28.7856 25.1499 28.8425 25.0821 28.8786 25.003L29.6916 21.9777C29.8488 21.5718 29.8165 21.4786 29.5345 21.3227C27.7208 20.3871 25.7821 19.8566 23.0304 19.8566C17.934 19.8566 14.3999 22.7887 14.3999 26.6877C14.3999 30.3704 17.2458 32.3951 21.3125 33.2695L23.376 33.706C25.0334 34.0493 25.9682 34.7043 25.9682 36.1076C25.9682 37.5423 24.8426 38.7898 22.1844 38.7898C18.432 38.7898 15.868 37.2932 15.4619 37.2932C15.2113 37.2932 15.1179 37.4178 15.0244 37.8229L14.4926 40.3499C14.3355 40.8796 14.4926 41.2227 14.8367 41.3787C16.1194 42.0957 19.6213 42.8439 22.2182 42.8439Z" fill="#00A868"/>
<path d="M56.3311 38.5086C53.0476 38.5086 50.0469 36.0442 50.0469 31.397C50.0469 26.7497 53.0485 24.3449 56.3311 24.3449C59.6452 24.3449 62.5846 26.7466 62.5846 31.397C62.5846 36.0757 59.6452 38.5086 56.3311 38.5086ZM56.3311 42.9999C62.8973 42.9999 67.6811 38.1035 67.6811 31.397C67.6811 24.6905 62.8973 19.8254 56.3311 19.8254C49.7956 19.8254 44.9803 24.6913 44.9803 31.397C44.9803 38.1027 49.7956 42.9999 56.3311 42.9999Z" fill="#00A868"/>
<path d="M114.6 31.1478C114.6 24.2525 110.629 19.8254 104.31 19.8254C98.369 19.8254 93.2411 24.3794 93.2411 31.3037C93.2411 38.6958 98.494 42.9999 104.122 42.9999C108.844 42.9999 111.568 41.1437 113.253 38.8831C113.579 38.4451 113.646 38.2562 113.646 38.134C113.646 38.0118 113.567 37.9162 113.284 37.6639L111.314 35.9487C110.842 35.5435 110.685 35.4182 110.528 35.4182C110.371 35.4182 110.277 35.5122 110.153 35.6682C108.808 37.4774 106.932 38.5062 104.399 38.5062C101.205 38.5062 99.0759 36.3412 98.5356 32.8293H112.965C113.971 32.8317 114.6 32.5159 114.6 31.1478ZM104.124 24.1608C107.537 24.1608 109.343 26.4574 109.441 28.9953H98.6118C99.2048 26.2701 101.059 24.1608 104.124 24.1608Z" fill="#00A868"/>
</svg>
