<svg width="60" height="60" viewBox="0 0 60 60" fill="none" xmlns="http://www.w3.org/2000/svg">
<rect width="60" height="60" fill="#00A868"/>
<path d="M17.8351 17.663C17.5715 17.3997 17.214 17.2517 16.8414 17.2517C16.4687 17.2517 16.1113 17.3997 15.8476 17.663L7.74749 26.5934C7.267 27.1114 7 27.7918 7 28.4984C7 29.2049 7.267 29.8853 7.74749 30.4033V30.4089L15.8495 39.3393C16.0465 39.5353 16.2971 39.6686 16.5698 39.7223C16.8424 39.7759 17.1249 39.7476 17.3814 39.6409C17.638 39.5342 17.8572 39.3538 18.0114 39.1226C18.1656 38.8914 18.2478 38.6197 18.2476 38.3419V18.6549C18.2473 18.282 18.0989 17.9246 17.8351 17.6611V17.663ZM29.4978 49.6535C29.4983 49.8369 29.5361 50.0184 29.6091 50.1867C29.682 50.3551 29.7885 50.5068 29.922 50.6326C30.0556 50.7584 30.2134 50.8557 30.3857 50.9185C30.5581 50.9813 30.7415 51.0083 30.9247 50.9978C42.6867 50.2553 52 40.4681 52 28.5002C51.9981 16.5324 42.683 6.74139 30.9228 6.00266C30.7395 5.9911 30.5557 6.01733 30.3829 6.07974C30.2102 6.14216 30.0521 6.23941 29.9184 6.36547C29.7848 6.49152 29.6785 6.6437 29.6062 6.81254C29.5338 6.98139 29.4969 7.16331 29.4978 7.347V15.788C29.501 16.166 29.6426 16.5297 29.8959 16.8102C30.1492 17.0908 30.4965 17.2688 30.8722 17.3105C33.5962 17.6503 36.1018 18.9747 37.9167 21.0342C39.734 23.0953 40.7368 25.7487 40.7368 28.4965C40.7368 31.2443 39.734 33.8977 37.9167 35.9588C36.1018 38.0182 33.5962 39.3427 30.8722 39.6825C30.4955 39.723 30.147 39.9008 29.8932 40.182C29.6393 40.4632 29.4979 40.828 29.4959 41.2068V49.6535H29.4978Z" fill="white"/>
</svg>
