<svg width="130" height="60" viewBox="0 0 130 60" fill="none" xmlns="http://www.w3.org/2000/svg">
<rect width="130" height="60" fill="white"/>
<path d="M26.3486 18.0952V24.4927C33.7819 24.1681 36.1322 27.844 36.1322 27.844C35.37 18.7248 26.3486 18.0952 26.3486 18.0952Z" fill="#A80A35"/>
<path d="M36.1321 27.844C36.1321 27.844 38.4824 24.1681 45.9157 24.4927V18.0952C45.9157 18.0952 36.8944 18.7248 36.1321 27.844Z" fill="#A80A35"/>
<path d="M36.1392 27.8369C36.1392 27.8369 39.8228 30.1823 39.4976 37.5997H45.9087C45.9087 37.5997 45.2777 28.5976 36.1392 27.8369Z" fill="#A80A35"/>
<path d="M20.0235 46.8109H26.6739C25.3266 30.6584 36.1252 27.837 36.1252 27.837C18.6901 28.5722 20.0235 46.8109 20.0235 46.8109Z" fill="#A80A35"/>
<path d="M45.414 14H26.8505C24.3146 14 22.2588 16.0514 22.2588 18.582V31.908C22.9566 31.0294 23.7424 30.1889 24.6282 29.4063V18.8227C24.6282 17.465 25.7312 16.3643 27.0919 16.3643H45.1728C46.5334 16.3643 47.6365 17.465 47.6365 18.8227V36.8652C47.6365 38.2228 46.5334 39.3237 45.1728 39.3237H28.9968V41.6879H45.414C47.9499 41.6879 50.0057 39.6364 50.0057 37.1059V18.582C50.0057 16.0514 47.9499 14 45.414 14Z" fill="#F68C1F"/>
<path d="M60.1737 25.7891C60.7395 25.2969 61.1265 24.5957 61.1265 23.7006C61.1265 22.3282 60.1588 21.4928 59.102 21.2243V21.1796C60.1886 20.7768 60.7693 19.9414 60.7693 19.0165C60.7693 18.1512 60.3525 17.4948 59.7272 17.1219C59.0574 16.6595 58.2088 16.4805 56.869 16.4805C55.827 16.4805 54.77 16.5849 54.1895 16.7042V26.5798C54.6658 26.6394 55.4251 26.7141 56.4374 26.7141C58.2832 26.7141 59.4592 26.4008 60.1737 25.7891ZM56.0055 17.9125C56.199 17.8678 56.5116 17.838 57.0475 17.838C58.2087 17.838 58.9233 18.2706 58.9233 19.2253C58.9233 20.0756 58.2236 20.6724 56.9433 20.6724H56.0055V17.9125ZM56.0055 22.0001H56.9136C58.1789 22.0001 59.2061 22.4774 59.2061 23.656C59.2061 24.8941 58.1492 25.3268 56.9731 25.3268C56.5563 25.3268 56.2437 25.3268 56.0055 25.282L56.0055 22.0001Z" fill="#A80A35"/>
<path d="M66.2769 25.8041H66.3216L66.4555 26.6097H68.1079C68.0186 26.1622 67.9889 25.5207 67.9889 24.8644V22.2537C67.9889 20.6575 67.3189 19.1807 64.9967 19.1807C63.8503 19.1807 62.9125 19.494 62.3766 19.8222L62.7339 21.0156C63.2252 20.7023 63.9694 20.4786 64.6839 20.4786C65.9642 20.4786 66.1577 21.2692 66.1577 21.7466V21.8659C63.4781 21.8509 61.8555 22.7908 61.8555 24.6108C61.8555 25.7147 62.6742 26.7738 64.1331 26.7738C65.086 26.7738 65.8453 26.371 66.2769 25.8041ZM63.6718 24.4168C63.6718 23.3128 64.9073 23.0443 66.2025 23.0592V24.0587C66.2025 24.193 66.2025 24.3272 66.1579 24.4614C65.9792 24.9836 65.4582 25.4609 64.7138 25.4609C64.1333 25.461 63.6718 25.1328 63.6718 24.4168Z" fill="#A80A35"/>
<path d="M72.9015 20.6724C73.8989 20.6724 74.2859 21.463 74.2859 22.5073V26.6097H76.117V22.2984C76.117 20.001 74.807 19.1806 73.5415 19.1806C72.3357 19.1806 71.5467 19.8668 71.2193 20.4337H71.1746L71.0853 19.3447H69.4924C69.5222 19.9713 69.552 20.6724 69.552 21.5078V26.6097H71.383V22.3282C71.383 22.1194 71.4128 21.8956 71.4724 21.7465C71.6659 21.1945 72.1721 20.6724 72.9015 20.6724Z" fill="#A80A35"/>
<path d="M80.9695 26.7589C81.8776 26.7589 82.6368 26.5649 83.0239 26.3859L82.7708 25.0284C82.4135 25.1776 81.9521 25.3118 81.3267 25.3118C80.0763 25.3118 79.1086 24.4614 79.1086 22.9697C79.0937 21.642 79.9274 20.6126 81.3267 20.6126C81.9818 20.6126 82.4135 20.7469 82.7112 20.8961L83.0387 19.5087C82.6218 19.3296 81.9371 19.1805 81.2672 19.1805C78.7215 19.1805 77.2329 20.8662 77.2329 23.0442C77.233 25.2969 78.7067 26.7589 80.9695 26.7589Z" fill="#A80A35"/>
<path d="M90.7651 22.91C90.7651 20.7022 89.3211 19.1806 87.1626 19.1806C84.9742 19.1806 83.4111 20.6425 83.4111 23.0294C83.4111 25.3715 85.004 26.7737 87.0434 26.7737C88.8894 26.7738 90.7651 25.5803 90.7651 22.91ZM85.3017 22.9847C85.3017 21.7763 85.8227 20.5083 87.1178 20.5083C88.3683 20.5083 88.8745 21.8211 88.8745 22.9548C88.8745 24.4317 88.145 25.446 87.103 25.446C86.0014 25.4461 85.3017 24.3869 85.3017 22.9847Z" fill="#A80A35"/>
<path d="M97.255 26.7738C98.2971 26.7738 99.1753 26.2666 99.6071 25.461H99.6368L99.7262 26.6097H101.349C101.319 26.1174 101.289 25.3119 101.289 24.5659V16.018H99.4582V20.1204H99.4284C99.1009 19.5833 98.3864 19.1806 97.3889 19.1806C95.6472 19.1806 94.1288 20.6276 94.1437 23.0592C94.1437 25.2969 95.5133 26.7738 97.255 26.7738ZM97.8356 20.5978C98.6692 20.5978 99.2499 21.1796 99.4136 21.8807C99.4434 22.0299 99.4582 22.2239 99.4582 22.373V23.4621C99.4582 23.656 99.4433 23.8349 99.3987 23.9991C99.2201 24.7897 98.565 25.2969 97.8207 25.2969C96.6596 25.2969 96.0045 24.3272 96.0045 22.9846C96.0045 21.642 96.6596 20.5978 97.8356 20.5978Z" fill="#A80A35"/>
<path d="M106.053 26.7738C107.899 26.7738 109.775 25.5803 109.775 22.9101C109.775 20.7023 108.331 19.1807 106.172 19.1807C103.984 19.1807 102.421 20.6426 102.421 23.0294C102.421 25.3715 104.014 26.7738 106.053 26.7738ZM106.127 20.5083C107.378 20.5083 107.884 21.8211 107.884 22.9548C107.884 24.4317 107.155 25.446 106.113 25.446C105.011 25.446 104.311 24.3868 104.311 22.9846C104.311 21.7763 104.832 20.5083 106.127 20.5083Z" fill="#A80A35"/>
<path d="M60.3374 31.8325C60.3374 33.3542 60.382 34.7117 60.516 36.0394H60.4862C60.0247 34.9056 59.4442 33.6525 58.8487 32.5933L56.7646 28.9086H54.1147V38.9632H56.1989V35.9349C56.1989 34.2939 56.1691 32.8768 56.0947 31.5342H56.1543C56.6307 32.7127 57.3005 34.0105 57.896 35.0846L60.0397 38.9632H62.4216V28.9086H60.3375V31.8325H60.3374Z" fill="#A80A35"/>
<path d="M67.1852 31.4895C64.8331 31.4895 63.2849 32.9961 63.2849 35.3681C63.2849 37.7251 64.9224 39.1274 67.0512 39.1274C69.0014 39.1274 70.892 37.9041 70.892 35.2338C70.892 33.0259 69.4033 31.4895 67.1852 31.4895ZM67.1108 37.5013C66.1432 37.5013 65.6221 36.5615 65.6221 35.3085C65.6221 34.2344 66.039 33.1155 67.1108 33.1155C68.138 33.1155 68.5549 34.2195 68.5549 35.2935C68.5548 36.6212 68.004 37.5013 67.1108 37.5013Z" fill="#A80A35"/>
<path d="M73.7503 33.011H73.6908L73.6015 31.6685H71.6663C71.7109 32.2951 71.7258 32.9961 71.7258 34.0703V38.9632H73.9885V35.2637C73.9885 35.0846 74.0034 34.9056 74.0332 34.7565C74.182 34.0553 74.7477 33.6078 75.5814 33.6078C75.8345 33.6078 76.0132 33.6376 76.1918 33.6674V31.5342C76.0281 31.5044 75.9239 31.4895 75.7154 31.4895C75.0008 31.4895 74.1224 31.937 73.7503 33.011Z" fill="#A80A35"/>
<path d="M83.7537 28.3716H81.4909V32.31H81.4611C81.1336 31.8176 80.4488 31.4895 79.5408 31.4895C77.7991 31.4895 76.2657 32.9216 76.2806 35.383C76.2806 37.6504 77.665 39.1274 79.392 39.1274C80.3298 39.1274 81.223 38.7097 81.6696 37.9041H81.7142L81.8036 38.9632H83.8133C83.7835 38.471 83.7537 37.6057 83.7537 36.7853V28.3716H83.7537ZM81.4909 35.7112C81.4909 35.8902 81.476 36.0693 81.4462 36.2333C81.3124 36.8748 80.7764 37.3224 80.1214 37.3224C79.1835 37.3224 78.5732 36.5466 78.5732 35.3084C78.5732 34.1598 79.0942 33.2348 80.1363 33.2348C80.836 33.2348 81.3273 33.742 81.4611 34.3387C81.491 34.473 81.491 34.6371 81.491 34.7565L81.4909 35.7112Z" fill="#A80A35"/>
<path d="M88.2642 31.5044C85.7335 31.5044 84.5872 33.5482 84.5872 35.3979C84.5872 37.6803 86.0014 39.1124 88.4726 39.1124C89.4551 39.1124 90.3632 38.9632 91.1075 38.65L90.8098 37.1134C90.1994 37.3223 89.5742 37.4268 88.8001 37.4268C87.7431 37.4268 86.8052 36.9792 86.7457 36.0394H91.4349C91.4647 35.8753 91.5094 35.5322 91.5094 35.1443C91.5095 33.3393 90.6163 31.5044 88.2642 31.5044ZM86.7309 34.4879C86.7904 33.8912 87.1775 33.011 88.1302 33.011C89.1723 33.011 89.4104 33.936 89.4104 34.4879H86.7309Z" fill="#A80A35"/>
<path d="M95.4097 34.5029C94.5164 34.1897 94.2336 34.0106 94.2336 33.6525C94.2336 33.2945 94.5463 33.0707 95.0971 33.0707C95.7075 33.0707 96.3475 33.3094 96.6751 33.4885L97.0621 31.922C96.6155 31.6983 95.8712 31.4894 95.0227 31.4894C93.2214 31.4894 92.0602 32.5187 92.0602 33.8912C92.0453 34.7565 92.6259 35.5768 94.1444 36.0842C94.978 36.3675 95.2013 36.5466 95.2013 36.9344C95.2013 37.3074 94.9185 37.5311 94.2337 37.5311C93.5638 37.5311 92.7003 37.2477 92.2835 36.9941L91.8816 38.6053C92.4324 38.9036 93.2809 39.1274 94.2337 39.1274C96.3179 39.1274 97.3748 38.1278 97.3748 36.7555C97.3599 35.6963 96.7941 34.9802 95.4097 34.5029Z" fill="#A80A35"/>
<path d="M100.724 29.6993L98.506 30.311V31.6685H97.5383V33.3393H98.506V36.3228C98.506 37.3522 98.7144 38.0533 99.1312 38.4859C99.5034 38.8588 100.114 39.1125 100.843 39.1125C101.468 39.1125 102.019 39.0229 102.302 38.9185L102.287 37.203C102.079 37.2477 101.93 37.2627 101.617 37.2627C100.947 37.2627 100.724 36.8598 100.724 35.9797V33.3393H102.347V31.6685H100.724V29.6993Z" fill="#A80A35"/>
<path d="M106.277 31.5044C103.746 31.5044 102.6 33.5482 102.6 35.3979C102.6 37.6803 104.014 39.1124 106.485 39.1124C107.468 39.1124 108.376 38.9632 109.12 38.65L108.822 37.1134C108.212 37.3223 107.587 37.4268 106.813 37.4268C105.756 37.4268 104.818 36.9792 104.758 36.0394H109.447C109.477 35.8753 109.522 35.5322 109.522 35.1443C109.522 33.3393 108.629 31.5044 106.277 31.5044ZM104.743 34.4879C104.803 33.8912 105.19 33.011 106.143 33.011C107.185 33.011 107.423 33.936 107.423 34.4879H104.743Z" fill="#A80A35"/>
</svg>
