<svg width="60" height="60" viewBox="0 0 60 60" fill="none" xmlns="http://www.w3.org/2000/svg">
<rect width="60" height="60" fill="#A80A35"/>
<path d="M20.1982 16.4588V23.7067C28.6196 23.339 31.2823 27.5035 31.2823 27.5035C30.4187 17.1722 20.1982 16.4588 20.1982 16.4588Z" fill="white"/>
<path d="M31.2825 27.5035C31.2825 27.5035 33.9452 23.339 42.3665 23.7067V16.4588C42.3665 16.4588 32.1461 17.1722 31.2825 27.5035Z" fill="white"/>
<path d="M31.2903 27.4955C31.2903 27.4955 35.4636 30.1526 35.0951 38.556H42.3585C42.3585 38.556 41.6435 28.3573 31.2903 27.4955Z" fill="white"/>
<path d="M13.0324 48.9916H20.5668C19.0405 30.692 31.2745 27.4956 31.2745 27.4956C11.5218 28.3286 13.0324 48.9916 13.0324 48.9916Z" fill="white"/>
<path d="M41.798 11.8193H20.767C17.894 11.8193 15.5649 14.1434 15.5649 17.0103V32.1077C16.3556 31.1123 17.2458 30.1601 18.2493 29.2734V17.2831C18.2493 15.7449 19.499 14.4979 21.0405 14.4979H41.5248C43.0663 14.4979 44.3159 15.7449 44.3159 17.2831V37.7238C44.3159 39.2619 43.0662 40.5091 41.5248 40.5091H23.1985V43.1876H41.7981C44.6711 43.1876 47.0002 40.8635 47.0002 37.9966V17.0103C47.0002 14.1434 44.671 11.8193 41.798 11.8193Z" fill="#F68C1F"/>
</svg>
