<svg width="60" height="60" viewBox="0 0 60 60" fill="none" xmlns="http://www.w3.org/2000/svg">
<rect width="60" height="60" fill="url(#paint0_linear_313_342)"/>
<g clip-path="url(#clip0_313_342)">
<path d="M7.11523 35.762H8.77813C8.98513 35.762 9.17833 35.7871 9.35313 35.8351C9.53253 35.8831 9.68663 35.9561 9.81313 36.0543C9.94423 36.148 10.0454 36.269 10.1167 36.4197C10.1926 36.5659 10.2317 36.7394 10.2317 36.9381C10.2317 37.2076 10.1558 37.4314 10.0017 37.6027C9.84763 37.7717 9.64983 37.895 9.40603 37.9749V37.9886C9.55093 37.9978 9.68663 38.0343 9.81083 38.1028C9.93733 38.1645 10.0454 38.249 10.1351 38.3563C10.2294 38.4591 10.3053 38.5778 10.3582 38.7148C10.4134 38.8519 10.4387 39.0003 10.4387 39.1602C10.4387 39.3725 10.3927 39.5621 10.303 39.7265C10.2179 39.8864 10.0983 40.0211 9.94423 40.133C9.79013 40.2449 9.61303 40.3271 9.41063 40.3865C9.20823 40.4436 8.98973 40.4733 8.75513 40.4733H7.11523V35.762ZM7.76383 37.7191H8.64933C8.77123 37.7191 8.88623 37.7077 8.99433 37.6849C9.10243 37.6575 9.19673 37.6164 9.27953 37.5593C9.36003 37.5022 9.42443 37.4291 9.46813 37.3401C9.51873 37.251 9.54173 37.1437 9.54173 37.0135C9.54173 36.8262 9.48193 36.6664 9.36003 36.5271C9.23813 36.39 9.04723 36.3215 8.78503 36.3215H7.76383V37.7191ZM7.76383 39.9138H8.71833C8.81723 39.9138 8.92533 39.9046 9.04263 39.8864C9.16453 39.8635 9.27723 39.8247 9.38073 39.7676C9.48423 39.706 9.57163 39.6237 9.64523 39.521C9.71653 39.4182 9.75333 39.2835 9.75333 39.1145C9.75333 38.8359 9.66133 38.6258 9.47503 38.4887C9.29103 38.3472 9.04033 38.2764 8.72523 38.2764H7.76383V39.9138Z" fill="white"/>
<path d="M11.2343 37.7054C11.4068 37.5501 11.6046 37.4359 11.83 37.3606C12.0554 37.2806 12.2808 37.2418 12.5062 37.2418C12.7408 37.2418 12.9409 37.2715 13.1088 37.3286C13.2813 37.3857 13.4193 37.4633 13.5274 37.5615C13.6355 37.6597 13.7137 37.7716 13.7643 37.9018C13.8195 38.0251 13.8448 38.1576 13.8448 38.2946V39.9046C13.8448 40.0165 13.8471 40.117 13.8517 40.2106C13.8563 40.3042 13.8632 40.3933 13.8724 40.4778H13.3319C13.3181 40.3179 13.3112 40.1581 13.3112 39.9982H13.2974C13.1617 40.2015 13.003 40.3454 12.8167 40.4298C12.6327 40.5143 12.4165 40.5555 12.175 40.5555C12.0255 40.5555 11.8852 40.5349 11.7495 40.4961C11.6138 40.4573 11.4942 40.3956 11.3907 40.3157C11.2918 40.2357 11.2136 40.1375 11.1538 40.0234C11.0963 39.9046 11.0664 39.7653 11.0664 39.61C11.0664 39.4068 11.1124 39.2355 11.2021 39.0985C11.2964 38.9614 11.4229 38.8495 11.5816 38.765C11.7449 38.676 11.9312 38.6143 12.1428 38.5778C12.359 38.539 12.589 38.5184 12.8328 38.5184H13.279V38.3837C13.279 38.3037 13.2629 38.2238 13.2307 38.1439C13.1985 38.0639 13.1525 37.9932 13.0881 37.9315C13.026 37.8653 12.9455 37.815 12.8512 37.7785C12.7569 37.7397 12.6442 37.7191 12.5131 37.7191C12.3958 37.7191 12.2923 37.7305 12.2026 37.7534C12.1175 37.7762 12.037 37.8036 11.9657 37.8401C11.8944 37.8721 11.8277 37.9087 11.7702 37.9543C11.7127 37.9977 11.6552 38.0411 11.6 38.0799L11.2343 37.7054ZM12.9524 38.9569C12.8075 38.9569 12.6603 38.966 12.5062 38.9843C12.3567 38.998 12.221 39.0254 12.0945 39.0711C11.9726 39.1144 11.8714 39.1784 11.7909 39.2583C11.715 39.3382 11.6759 39.441 11.6759 39.5643C11.6759 39.747 11.7357 39.8772 11.8576 39.9571C11.9841 40.0371 12.152 40.0759 12.3659 40.0759C12.5338 40.0759 12.6741 40.0485 12.7914 39.9959C12.9087 39.9389 13.003 39.8658 13.0766 39.7767C13.1479 39.6877 13.2008 39.5895 13.233 39.4844C13.2652 39.3725 13.2813 39.2652 13.2813 39.1578V38.9592H12.9524V38.9569Z" fill="white"/>
<path d="M14.7275 37.3195H15.337V37.8059H15.3508C15.4267 37.6369 15.5601 37.5022 15.751 37.3994C15.9396 37.2921 16.1581 37.2396 16.4065 37.2396C16.5606 37.2396 16.7055 37.2647 16.8458 37.3126C16.9907 37.356 17.1149 37.4268 17.2184 37.525C17.3265 37.6232 17.4116 37.7488 17.476 37.9041C17.5381 38.0548 17.5703 38.2352 17.5703 38.4431V40.471H16.9585V38.6075C16.9585 38.4613 16.9378 38.338 16.8987 38.2353C16.8573 38.1279 16.8044 38.0434 16.7354 37.9818C16.6687 37.9155 16.5882 37.8676 16.4985 37.8425C16.4134 37.8105 16.3237 37.7968 16.2271 37.7968C16.1006 37.7968 15.9833 37.8173 15.8752 37.8562C15.7671 37.895 15.6728 37.9612 15.59 38.048C15.5095 38.1325 15.4451 38.2398 15.4014 38.3746C15.3554 38.507 15.3347 38.6646 15.3347 38.8473V40.471H14.7275V37.3195Z" fill="white"/>
<path d="M18.4863 35.4446H19.0958V38.692L20.4758 37.3286H21.3222L19.8272 38.7582L21.451 40.4755H20.5862L19.0981 38.8381V40.4755H18.4886V35.4446H18.4863Z" fill="white"/>
<path fill-rule="evenodd" clip-rule="evenodd" d="M42.4703 25.0195V23.6904C41.019 23.6904 40.168 24.3801 39.616 25.2159V23.6904H36.6122V25.0195H38.0129V30.8247H36.6122H35.2092V23.6904H31.9547V25.0195H33.4566V29.9888C32.7045 30.6283 31.7546 31.0713 30.7035 31.0713C29.703 31.0713 29.3511 30.4798 29.3511 29.5458V23.6904H26.2461V25.0195H27.6491V29.6942C27.6491 31.5143 28.6496 32.4004 30.2021 32.4004C31.5039 32.4004 32.6562 31.9094 33.5578 31.0713V32.1538H36.6122H41.87V30.8247H39.7172V26.2984C40.2669 25.659 41.2191 25.0195 42.4703 25.0195Z" fill="white"/>
<path fill-rule="evenodd" clip-rule="evenodd" d="M7.07129 20.0982V21.4273H8.57319V30.8247H7.07129V32.2018H16.6853V29.4956H15.3329V30.8247H10.3258V26.3966H15.2823V25.0196H10.3258V21.4273H15.3329V22.8044H16.683V20.0982H7.07129Z" fill="white"/>
<path fill-rule="evenodd" clip-rule="evenodd" d="M21.9912 31.0713C21.3909 31.0713 20.4387 30.6785 19.7372 30.0871V25.5105C20.3375 25.1178 21.0896 24.7729 21.9406 24.7729C23.6426 24.7729 24.3441 26.102 24.3441 27.7737C24.3441 29.4476 23.8427 31.0713 21.9912 31.0713ZM22.3408 23.494C21.2897 23.494 20.4387 23.8389 19.7372 24.2819V20.0982H18.0352V32.2018H19.7372V31.4139C20.4387 31.9551 21.3403 32.3982 22.3408 32.3982C24.7443 32.3982 26.0967 30.3817 26.0967 27.7737C26.0967 25.1657 24.7443 23.494 22.3408 23.494Z" fill="white"/>
<path opacity="0.5" fill-rule="evenodd" clip-rule="evenodd" d="M16.6855 21.4273H18.0379V20.0982H16.6855V21.4273Z" fill="#79E3EC"/>
<path opacity="0.5" fill-rule="evenodd" clip-rule="evenodd" d="M42.4707 25.0195H43.8714V23.6904H42.4707V25.0195Z" fill="#79E3EC"/>
<path fill-rule="evenodd" clip-rule="evenodd" d="M48.6304 23.6904V25.0195H49.9828L47.6299 31.6125L45.6266 25.0195H46.979V23.6904H43.874V25.0195L46.1763 32.1538H47.4781L47.0273 33.3847C46.5765 34.6156 45.5254 34.8599 44.2742 34.8599H43.874V36.1891H44.2742C46.4776 36.1891 47.8783 35.6478 48.681 33.5331L51.7354 25.0218H52.8877V23.6927H48.6304V23.6904Z" fill="white"/>
</g>
<defs>
<linearGradient id="paint0_linear_313_342" x1="30" y1="0" x2="30" y2="60" gradientUnits="userSpaceOnUse">
<stop stop-color="#00C1CB"/>
<stop offset="1" stop-color="#00CBEC"/>
</linearGradient>
<clipPath id="clip0_313_342">
<rect width="46" height="20.5532" fill="white" transform="translate(7 20)"/>
</clipPath>
</defs>
</svg>
