<svg width="130" height="60" viewBox="0 0 130 60" fill="none" xmlns="http://www.w3.org/2000/svg">
<rect width="130" height="60" fill="white"/>
<g clip-path="url(#clip0_313_261)">
<path d="M83.2635 29.0217C82.265 29.0217 81.2889 29.3172 80.4588 29.8708C79.6287 30.4244 78.9819 31.2112 78.6002 32.1316C78.2185 33.0521 78.1191 34.0648 78.3145 35.0417C78.51 36.0185 78.9915 36.9156 79.6982 37.6193C80.4048 38.323 81.3049 38.8018 82.2844 38.9951C83.2639 39.1883 84.2789 39.0874 85.2009 38.705C86.1229 38.3226 86.9104 37.6759 87.4639 36.8468C88.0173 36.0177 88.3118 35.0435 88.31 34.0473C88.3081 32.7135 87.7755 31.435 86.8292 30.4927C85.883 29.5504 84.6005 29.0213 83.2635 29.0217ZM83.2635 37.0997C81.6336 37.0997 80.3135 35.7369 80.3135 34.0547C80.3135 32.3726 81.6336 31.0113 83.2635 31.0113C84.8933 31.0113 86.2135 32.3741 86.2135 34.0547C86.2135 35.7354 84.8933 37.0997 83.2635 37.0997ZM101.044 29.0217C99.7485 29.0217 98.6002 29.5198 97.8875 30.2914V29.2197H97.2104C97.0318 29.2109 96.8534 29.2399 96.6869 29.3049C96.5204 29.3699 96.3696 29.4693 96.2444 29.5967C96.1172 29.7236 96.0182 29.8758 95.9539 30.0433C95.8896 30.2109 95.8613 30.3901 95.871 30.5693V42.1608H97.9883V37.9304C98.621 38.6429 99.7663 39.0893 101.039 39.0893C103.919 39.0893 105.967 36.8351 105.967 34.0547C105.967 31.2744 103.919 29.0217 101.039 29.0217H101.044ZM100.925 37.0997C99.2951 37.0997 97.975 35.7369 97.975 34.0547C97.975 32.3726 99.2951 31.0113 100.925 31.0113C102.555 31.0113 103.875 32.3741 103.875 34.0547C103.875 35.7354 102.55 37.0997 100.921 37.0997H100.925ZM70.7122 34.0547C70.6992 34.7024 70.8978 35.3367 71.278 35.8619C71.6582 36.387 72.1994 36.7745 72.8198 36.9658C73.4402 37.1571 74.1061 37.1418 74.7171 36.9222C75.328 36.7027 75.8507 36.2907 76.2063 35.7487L77.8583 36.8529C76.8849 38.3014 75.5336 39.0893 73.6622 39.0893C72.339 39.0667 71.0776 38.5264 70.1498 37.5848C69.222 36.6432 68.7021 35.3758 68.7021 34.0555C68.7021 32.7352 69.222 31.4677 70.1498 30.5262C71.0776 29.5846 72.339 29.0443 73.6622 29.0217C75.5529 29.0217 76.9219 29.8302 77.8895 31.3054L76.187 32.4051C75.9221 31.9811 75.5537 31.631 75.1163 31.3875C74.6789 31.144 74.1868 31.015 73.686 31.0127C72.8868 31.0225 72.1242 31.3484 71.5657 31.9188C71.0073 32.4892 70.6987 33.2575 70.7078 34.0547H70.7122ZM93.8263 29.0202C94.3735 29.0232 94.907 29.1912 95.3569 29.5021L94.536 31.4769C94.211 31.2065 93.8034 31.0543 93.3803 31.0453C93.1369 31.0377 92.8945 31.0798 92.668 31.1691C92.4415 31.2583 92.2357 31.3927 92.0631 31.5641C91.6882 31.9366 91.4927 32.4391 91.4927 33.1752V38.8247H89.3754V30.5634C89.3657 30.3842 89.3939 30.205 89.4583 30.0374C89.5226 29.8699 89.6216 29.7177 89.7487 29.5908C89.8736 29.4651 90.0237 29.3671 90.1892 29.3032C90.3546 29.2392 90.5317 29.2108 90.7089 29.2197H91.386V30.2988C91.9712 29.4119 92.8232 29.0202 93.8263 29.0202Z" fill="#587690"/>
<path d="M69.0515 29.3144C69.0515 29.3144 66.1652 35.8049 65.0672 38.2852C64.5413 39.4677 64.2005 40.1166 63.507 40.798C62.6017 41.6849 61.3971 42.1136 60.0799 42.1682V40.1654C61.0475 40.1654 62.3543 39.5741 62.8388 37.9393L59.0176 29.3144H61.4564L64.0908 35.5225L66.7208 29.3144H69.0515ZM38.4683 34.0548C38.4701 35.0509 38.1756 36.0251 37.6221 36.8542C37.0687 37.6833 36.2811 38.33 35.3592 38.7124C34.4372 39.0948 33.4222 39.1958 32.4427 39.0025C31.4632 38.8092 30.5631 38.3304 29.8564 37.6267C29.1498 36.923 28.6683 36.0259 28.4728 35.0491C28.2774 34.0722 28.3768 33.0595 28.7585 32.139C29.1402 31.2186 29.787 30.4318 30.6171 29.8782C31.4472 29.3246 32.4233 29.0291 33.4217 29.0291C34.7586 29.0291 36.0409 29.5583 36.9871 30.5005C37.9332 31.4428 38.466 32.721 38.4683 34.0548ZM36.3718 34.0548C36.3718 32.3741 35.0516 31.0113 33.4217 31.0113C31.7919 31.0113 30.4717 32.3741 30.4717 34.0548C30.4717 35.7354 31.7919 37.0997 33.4217 37.0997C35.0516 37.0997 36.3718 35.7369 36.3718 34.0548ZM59.3821 34.0548C59.3822 34.3021 59.3639 34.5492 59.3273 34.7938H51.4418C51.7293 36.1907 52.9235 37.116 54.3814 37.116C54.9047 37.1269 55.4224 37.0078 55.888 36.7693C56.3536 36.5309 56.7524 36.1807 57.0485 35.7502L58.8265 36.739C57.8811 38.2054 56.1713 39.0952 54.3326 39.0952C51.4492 39.0952 49.286 36.9371 49.286 34.0607C49.286 31.1842 51.4492 29.035 54.3326 29.035C57.2159 29.035 59.3821 31.1798 59.3821 34.0548ZM57.1136 33.0393C56.7017 31.7755 55.669 30.9994 54.3222 30.9994C53.6963 30.9889 53.084 31.1824 52.5783 31.5505C52.0726 31.9187 51.7012 32.4414 51.5203 33.0393H57.1136ZM23.4234 29.0202C22.8022 29.0163 22.1891 29.1605 21.635 29.4408C21.0809 29.721 20.6019 30.1292 20.2379 30.6314C19.9524 30.1458 19.5455 29.7425 19.057 29.4609C18.5685 29.1792 18.015 29.0289 17.4508 29.0246C16.9704 29.0229 16.4968 29.1386 16.0714 29.3614C15.6461 29.5843 15.2818 29.9076 15.0105 30.3032V29.2242H14.3334C14.1561 29.2155 13.979 29.2441 13.8135 29.3083C13.6481 29.3725 13.4981 29.4707 13.3733 29.5967C13.2461 29.7236 13.1471 29.8758 13.0828 30.0433C13.0185 30.2109 12.9902 30.3901 12.9999 30.5693V38.8306H15.1172V33.094C15.1172 31.9114 15.8832 31.0246 17.073 31.0246C18.2628 31.0246 19.1207 31.9114 19.1207 33.094V38.8247H21.238V33.094C21.238 31.9114 22.0055 31.0246 23.1953 31.0246C24.385 31.0246 25.1525 31.9114 25.1525 33.094V38.8247H27.2713V32.7451C27.2713 30.6536 25.5467 29.0202 23.4234 29.0202ZM44.4468 29.0202C43.9051 29.0174 43.3691 29.1306 42.875 29.3522C42.3809 29.5738 41.9403 29.8986 41.5828 30.3047V29.2198H40.9057C40.7285 29.2108 40.5514 29.2392 40.386 29.3032C40.2205 29.3671 40.0705 29.4651 39.9455 29.5908C39.8184 29.7177 39.7194 29.8699 39.6551 30.0374C39.5908 30.205 39.5625 30.3842 39.5722 30.5634V38.8247H41.6895V33.2181C41.6895 31.9617 42.5444 31.0172 43.8705 31.0172C45.1966 31.0172 46.1537 31.9617 46.1537 33.2181V38.8247H48.2681V32.7451C48.2681 30.6846 46.5464 29.0202 44.4468 29.0202ZM117.908 24.7188C115.994 24.4051 114.227 23.5004 112.856 22.1321C111.485 20.7639 110.578 19.0009 110.264 17.0916C110.255 17.031 110.243 17 110.231 17C110.22 17 110.208 17.031 110.197 17.0916C109.883 19.0007 108.977 20.7635 107.606 22.1317C106.235 23.5 104.468 24.4048 102.555 24.7188C102.494 24.7292 102.463 24.741 102.463 24.7528C102.463 24.7647 102.494 24.7765 102.555 24.7868C104.467 25.1009 106.232 26.0047 107.603 27.3711C108.974 28.7375 109.881 30.4979 110.197 32.4051C110.208 32.4658 110.22 32.4968 110.231 32.4968C110.243 32.4968 110.255 32.4658 110.264 32.4051C110.579 30.4967 111.486 28.7347 112.857 27.3672C114.229 25.9996 115.995 25.0951 117.908 24.7809C117.969 24.7706 118 24.7587 118 24.7469C118 24.7351 117.969 24.7262 117.908 24.7188Z" fill="#CD001C"/>
<path d="M112.884 24.7691C112.235 24.8976 111.639 25.2154 111.171 25.6822C110.704 26.1491 110.385 26.7439 110.257 27.3913C110.257 27.4105 110.245 27.4209 110.238 27.4224C110.23 27.4238 110.221 27.4105 110.218 27.3913C110.089 26.7439 109.771 26.1493 109.303 25.6825C108.835 25.2158 108.239 24.8979 107.59 24.7691C107.571 24.7691 107.56 24.7573 107.559 24.7499C107.557 24.7425 107.571 24.7351 107.59 24.7307C108.239 24.6022 108.835 24.2844 109.302 23.8175C109.77 23.3507 110.088 22.7559 110.217 22.1085C110.217 22.0892 110.229 22.0789 110.236 22.0774C110.243 22.0759 110.251 22.0892 110.255 22.1085C110.383 22.7563 110.702 23.3516 111.17 23.8185C111.638 24.2855 112.234 24.603 112.884 24.7307C112.905 24.7307 112.915 24.7425 112.915 24.7499C112.915 24.7573 112.899 24.7661 112.884 24.7691Z" fill="white"/>
</g>
<defs>
<clipPath id="clip0_313_261">
<rect width="105" height="25.1653" fill="white" transform="translate(13 17)"/>
</clipPath>
</defs>
</svg>
