<svg width="60" height="60" viewBox="0 0 60 60" fill="none" xmlns="http://www.w3.org/2000/svg">
<rect width="60" height="60" fill="#CD001C"/>
<path d="M46.8604 29.6826C42.5994 28.9841 38.6653 26.9698 35.6122 23.9234C32.5591 20.8769 30.5407 16.9519 29.8414 12.7009C29.8216 12.5659 29.7952 12.4968 29.7688 12.4968C29.7424 12.4968 29.716 12.5659 29.6929 12.7009C28.9937 16.9514 26.9759 20.8761 23.9234 23.9225C20.871 26.9689 16.9376 28.9835 12.6772 29.6826C12.5419 29.7056 12.4727 29.732 12.4727 29.7583C12.4727 29.7846 12.5419 29.811 12.6772 29.834C16.9342 30.5334 20.8648 32.5455 23.9167 35.5878C26.9686 38.6301 28.9886 42.5496 29.6929 46.796C29.716 46.9309 29.7424 47 29.7688 47C29.7952 47 29.8216 46.9309 29.8414 46.796C30.5434 42.5468 32.5627 38.6239 35.6155 35.579C38.6683 32.5342 42.6009 30.5204 46.8604 29.8208C46.9956 29.7978 47.0649 29.7715 47.0649 29.7451C47.0649 29.7188 46.9956 29.6991 46.8604 29.6826Z" fill="white"/>
<path d="M35.6749 29.7945C34.2301 30.0806 32.9029 30.7882 31.8617 31.8275C30.8204 32.8669 30.1119 34.1913 29.8259 35.6328C29.8259 35.6755 29.7995 35.6986 29.783 35.7019C29.7665 35.7052 29.7467 35.6755 29.7401 35.6328C29.4527 34.1914 28.7433 32.8674 27.7016 31.8282C26.6599 30.789 25.3327 30.0812 23.8879 29.7945C23.845 29.7945 23.8219 29.7681 23.8186 29.7517C23.8153 29.7352 23.845 29.7188 23.8879 29.7089C25.3327 29.4228 26.6598 28.7152 27.7011 27.6758C28.7423 26.6365 29.4508 25.3121 29.7368 23.8706C29.7368 23.8278 29.7632 23.8048 29.7797 23.8015C29.7962 23.7982 29.8127 23.8278 29.8226 23.8706C30.1076 25.3131 30.8162 26.6384 31.8583 27.678C32.9004 28.7177 34.2289 29.4246 35.6749 29.7089C35.721 29.7089 35.7441 29.7352 35.7441 29.7517C35.7441 29.7681 35.7078 29.7879 35.6749 29.7945Z" fill="#CD001C"/>
</svg>
