<svg width="60" height="60" viewBox="0 0 60 60" fill="none" xmlns="http://www.w3.org/2000/svg">
<rect width="60" height="60" fill="white"/>
<path d="M25.4664 16.3877L22.7827 29.0851L19.9149 31.4449L17.2299 44H21.9469L27.8262 16.3877H25.4664ZM33.0512 16.3877L31.962 21.4312L29.1307 23.7883L24.7768 44H27.1367L28.2245 38.9566L31.091 36.5981L35.4096 16.3864L33.0512 16.3877ZM17.9195 16.3864L13.5656 36.7417L10.6991 39.1367L9.64648 44H14.3635L20.278 16.385H17.9208L17.9195 16.3864ZM45.8244 16.3877L39.9451 44H42.2684L46.6223 23.6447L49.4888 21.2862L50.5413 16.3877H45.8244ZM42.9579 16.3877H38.2396L32.3616 44H34.7201L37.443 31.3L40.3081 28.9428L42.9579 16.3877Z" fill="#0500F5"/>
</svg>
