<svg width="130" height="60" viewBox="0 0 130 60" fill="none" xmlns="http://www.w3.org/2000/svg">
<rect width="130" height="60" fill="white"/>
<path d="M118.205 15.902C115.875 15.902 113.92 17.107 112.982 18.58H112.661L111.214 15.982H109.714V32.936H113.036V24.714C113.036 21.5 115.045 19.598 118.473 19.598H119.25V15.982C118.904 15.9287 118.555 15.902 118.205 15.902ZM103.045 18.58H102.723C101.491 16.92 99.134 15.66 96.83 15.66C92.17 15.66 88.152 19.518 88.152 24.473C88.152 29.267 92.009 33.285 96.83 33.285C99.295 33.285 101.491 32.053 102.643 30.125V32.937H105.964V15.982H104.464L103.045 18.58ZM97.045 30.044C96.3125 30.0469 95.5868 29.9048 94.9095 29.6259C94.2322 29.347 93.6168 28.9367 93.0989 28.4188C92.5809 27.901 92.1706 27.2857 91.8915 26.6084C91.6125 25.9312 91.4702 25.2055 91.473 24.473C91.4725 23.7412 91.6162 23.0164 91.8961 22.3402C92.1759 21.664 92.5864 21.0496 93.1039 20.5322C93.6214 20.0148 94.2359 19.6044 94.9121 19.3247C95.5884 19.045 96.3132 18.9013 97.045 18.902C97.7787 18.8987 98.5058 19.0403 99.1847 19.3187C99.8635 19.5971 100.481 20.0069 101.001 20.5244C101.521 21.0419 101.934 21.657 102.215 22.3344C102.497 23.0119 102.643 23.7383 102.643 24.472C102.645 25.2065 102.501 25.9341 102.22 26.6127C101.939 27.2913 101.527 27.9075 101.006 28.4257C100.486 28.9438 99.8676 29.3536 99.1876 29.6314C98.5077 29.9092 97.7795 30.0494 97.045 30.044ZM76.982 15.66C72.107 15.66 68.357 19.625 68.357 24.446C68.357 29.428 72.187 33.285 77.277 33.285C80.223 33.285 82.714 32.025 84.697 29.508L82.07 27.5C80.972 29 79.204 30.018 77.276 30.018C74.704 30.018 72.32 28.197 71.865 25.679H85.445V24.447C85.418 19.438 81.775 15.662 76.981 15.662L76.982 15.66ZM71.892 22.785C72.455 20.295 74.678 18.821 77.009 18.821C79.393 18.821 81.294 20.321 81.803 22.785H71.893H71.892ZM52.634 29.99C51.9072 29.9938 51.1867 29.8539 50.5141 29.5784C49.8415 29.3028 49.2301 28.897 48.7148 28.3843C48.1996 27.8716 47.7908 27.2621 47.512 26.5908C47.2331 25.9196 47.0897 25.1999 47.09 24.473C47.09 21.419 49.447 18.955 52.634 18.955C54.161 18.955 55.34 19.598 56.304 20.455L58.822 18.178C57.322 16.652 55.125 15.661 52.661 15.661C47.866 15.661 43.768 19.625 43.768 24.473C43.768 29.374 47.759 33.285 52.661 33.285C55.929 33.285 58.42 31.785 59.973 29.321L57.188 27.58C56.116 29 54.643 29.99 52.634 29.99ZM62.063 15.178V32.937H65.383V12.5H64.983L62.063 15.178ZM22.178 12.527L20.197 21.9L18.08 23.642L16.098 32.91H19.58L23.92 12.527H22.178ZM27.777 12.527L26.973 16.25L24.883 17.99L21.669 32.91H23.411L24.214 29.187L26.33 27.446L29.518 12.526L27.777 12.527ZM16.607 12.526L13.393 27.552L11.277 29.32L10.5 32.91H13.982L18.348 12.525H16.608L16.607 12.526ZM37.206 12.527L32.866 32.91H34.581L37.795 17.884L39.911 16.143L40.688 12.527H37.206ZM35.09 12.527H31.607L27.268 32.91H29.009L31.019 23.535L33.134 21.795L35.09 12.527ZM51 44.293C50.491 44.936 49.688 45.257 48.697 45.257C46.929 45.257 45.723 44.025 45.723 42.177C45.723 40.356 46.929 39.124 48.697 39.124C49.875 39.124 50.517 39.686 50.867 40.141L50.893 40.195H51.241L51.107 38.427L51.054 38.4C50.464 37.945 49.554 37.677 48.616 37.677C45.991 37.677 44.089 39.579 44.089 42.204C44.089 44.829 45.991 46.757 48.616 46.757C49.634 46.757 50.598 46.463 51.188 46.007L51.214 45.98L51.375 44.293H51ZM56.678 37.65C54.027 37.65 52.205 39.499 52.205 42.177C52.205 44.802 54.08 46.73 56.678 46.73C59.277 46.73 61.178 44.829 61.178 42.177C61.178 39.526 59.33 37.65 56.678 37.65ZM59.571 42.177C59.571 44.025 58.419 45.257 56.705 45.257C54.991 45.257 53.839 44.025 53.839 42.177C53.839 40.356 54.991 39.124 56.705 39.124C58.419 39.124 59.571 40.329 59.571 42.177ZM67.58 37.731C67.473 37.677 67.312 37.651 67.098 37.651C66.5397 37.6481 65.9906 37.7927 65.5061 38.0701C65.0216 38.3475 64.619 38.748 64.339 39.231L63.964 37.758H62.92V46.597H64.528V41.802C64.528 40.249 65.492 39.204 66.911 39.204C67.179 39.204 67.447 39.231 67.635 39.284L67.795 39.338L67.662 37.758L67.582 37.731H67.58ZM73.875 37.731C73.768 37.677 73.607 37.651 73.393 37.651C72.8347 37.6481 72.2856 37.7927 71.8011 38.0701C71.3166 38.3475 70.914 38.748 70.634 39.231L70.259 37.758H69.214V46.597H70.822V41.802C70.822 40.249 71.786 39.204 73.205 39.204C73.473 39.204 73.741 39.231 73.929 39.284L74.089 39.338L73.955 37.758L73.875 37.731ZM78.777 37.65C76.313 37.65 74.464 39.606 74.464 42.204C74.464 44.909 76.339 46.73 79.125 46.73C80.33 46.73 81.563 46.356 82.259 45.793L82.286 45.766L82.554 44.133H82.205L82.179 44.159C81.482 44.856 80.357 45.257 79.205 45.257C77.438 45.257 76.339 44.374 76.098 42.767H82.795V42.659C82.821 42.419 82.821 42.231 82.821 42.017C82.821 39.418 81.188 37.65 78.777 37.65ZM78.75 39.124C80.17 39.124 81.134 40.034 81.241 41.454H76.125C76.366 40.034 77.411 39.124 78.75 39.124ZM88.607 45.097C88.447 45.231 88.152 45.311 87.804 45.311C86.866 45.311 86.411 44.829 86.411 43.811V39.151H88.875V37.785H86.437V35.99L83.25 38.83V39.15H84.83V43.945C84.83 45.685 85.875 46.73 87.59 46.73C87.991 46.73 88.5 46.65 88.741 46.49L88.795 46.463L88.955 45.097H88.607ZM94.179 37.65C91.527 37.65 89.706 39.499 89.706 42.177C89.706 44.802 91.581 46.73 94.179 46.73C96.777 46.73 98.679 44.829 98.679 42.177C98.679 39.526 96.831 37.65 94.179 37.65ZM97.045 42.177C97.045 44.025 95.893 45.257 94.179 45.257C92.464 45.257 91.313 44.025 91.313 42.177C91.313 40.356 92.464 39.124 94.179 39.124C95.919 39.124 97.045 40.329 97.045 42.177ZM105.054 37.731C104.9 37.6717 104.736 37.6444 104.572 37.651C104.013 37.6479 103.464 37.7924 102.979 38.0698C102.495 38.3473 102.092 38.7479 101.812 39.231L101.438 37.758H100.393V46.597H102V41.802C102 40.249 102.965 39.204 104.384 39.204C104.652 39.204 104.92 39.231 105.107 39.284L105.268 39.338L105.134 37.758L105.054 37.731ZM109.34 37.65C108.214 37.65 107.116 37.999 106.58 38.347L106.527 38.374L106.313 39.927H106.661L106.688 39.901C107.384 39.365 108.188 39.124 109.232 39.124C110.679 39.124 111.456 39.767 111.456 40.972V41.427C110.911 41.3032 110.354 41.2404 109.795 41.24C107.25 41.24 105.831 42.258 105.831 44.106C105.831 45.659 107.063 46.757 108.831 46.757C110.009 46.757 111.054 46.195 111.643 45.204L112.018 46.65H113.036V40.892C113.036 38.856 111.643 37.651 109.339 37.651L109.34 37.65ZM109.768 42.579C110.304 42.579 110.866 42.659 111.429 42.793C111.429 44.32 110.491 45.284 109.099 45.284C108.054 45.284 107.384 44.775 107.384 43.999C107.384 43.061 108.188 42.579 109.768 42.579Z" fill="#0500F5"/>
</svg>
