<svg width="60" height="60" viewBox="0 0 60 60" fill="none" xmlns="http://www.w3.org/2000/svg">
<rect width="60" height="60" fill="#F37124"/>
<path d="M47.8204 20.5887L54.1174 18.2471V12L46.4966 18.0221C46.0171 18.3949 45.7244 18.7655 45.7244 19.3224C45.7244 20.2886 46.6452 21.032 47.8227 20.5864M45.7222 42.2627H49.7723V22.5597H45.7222V42.265V42.2627ZM27.349 42.2627H31.3992V34.6788H41.5234V30.9619H31.3992C31.3249 27.877 33.3871 26.0174 36.2215 26.0174C37.7682 26.0174 39.0942 26.5744 40.0871 27.2814L42.6648 24.3442C40.7872 22.9325 38.761 22.1868 36.3318 22.1868C30.9939 22.1868 27.349 25.756 27.349 30.9619V42.265V42.2627ZM9.12445 30.3299C9.7143 27.6542 11.8125 26.0174 14.7213 26.0174C17.63 26.0174 19.6179 27.6542 19.9871 30.3299H9.12445ZM24.1454 32.0031C24.1454 27.4678 20.9057 22.1891 14.719 22.1891C9.27078 22.1868 5 26.3129 5 32.2623C5 38.2116 9.3068 42.6355 15.1243 42.6355C18.7331 42.6355 21.6419 40.8873 23.5555 38.323L20.7211 35.9815C19.323 37.8411 17.4071 38.8072 15.0139 38.8072C11.8486 38.8072 9.71204 36.9863 9.12219 34.0491H22.1439C23.3957 34.0491 24.1431 33.4535 24.1431 32.0031" fill="white"/>
</svg>
