<svg width="130" height="60" viewBox="0 0 130 60" fill="none" xmlns="http://www.w3.org/2000/svg">
<rect width="130" height="60" fill="white"/>
<path d="M68.8204 20.5887L75.1174 18.2471V12L67.4966 18.0221C67.0171 18.3949 66.7244 18.7655 66.7244 19.3224C66.7244 20.2886 67.6452 21.032 68.8227 20.5864M66.7222 42.2627H70.7723V22.5597H66.7222V42.265V42.2627ZM48.349 42.2627H52.3992V34.6788H62.5234V30.9619H52.3992C52.3249 27.877 54.3871 26.0174 57.2215 26.0174C58.7682 26.0174 60.0942 26.5744 61.0871 27.2814L63.6648 24.3442C61.7872 22.9325 59.761 22.1868 57.3318 22.1868C51.9939 22.1868 48.349 25.756 48.349 30.9619V42.265V42.2627ZM30.1244 30.3299C30.7143 27.6542 32.8125 26.0174 35.7213 26.0174C38.63 26.0174 40.6179 27.6542 40.9871 30.3299H30.1244ZM45.1454 32.0031C45.1454 27.4678 41.9057 22.1891 35.719 22.1891C30.2708 22.1868 26 26.3129 26 32.2623C26 38.2116 30.3068 42.6355 36.1243 42.6355C39.7331 42.6355 42.6419 40.8873 44.5555 38.323L41.7211 35.9815C40.323 37.8411 38.4071 38.8072 36.0139 38.8072C32.8486 38.8072 30.712 36.9863 30.1222 34.0491H43.1439C44.3957 34.0491 45.1431 33.4535 45.1431 32.0031" fill="#F37124"/>
<path d="M86.7793 36.5316H86.5001L88.8257 42.24H89.9649L87.4749 36.3679C87.3353 36.0383 87.1035 35.7814 86.6599 35.7814C86.2637 35.7814 85.9845 35.9928 85.8225 36.3679L83.3325 42.24H84.4491L86.7748 36.5316H86.7793ZM77.1233 42.24H78.1702V35.7791H77.1233V42.24ZM80.2639 39.2096C81.3806 39.2096 82.2406 38.4344 82.2406 37.4C82.2406 36.3657 81.4729 35.7791 80.3089 35.7791H77.5871V36.718H80.1693C80.7502 36.718 81.1464 37.0477 81.1464 37.5864C81.1464 38.1252 80.775 38.5253 80.2617 38.5253V39.2073L80.2639 39.2096ZM91.1536 42.24H92.2005L92.1532 36.4134L91.5949 36.6248L95.2938 41.7921C95.5032 42.0967 95.7824 42.2377 96.039 42.2377C96.388 42.2377 96.6446 41.9331 96.6446 41.533V35.7769H95.5978L95.645 41.6034L96.2034 41.392L92.5044 36.2247C92.295 35.9428 92.1082 35.7791 91.784 35.7791C91.435 35.7791 91.1559 36.0838 91.1559 36.4839V42.24H91.1536ZM84.5234 40.9464H88.8032V40.0075H84.5234V40.9464ZM103.063 42.24H104.389L101.435 38.9982L104.367 35.7791H103.018L100.598 38.4799C100.296 38.8322 100.272 39.1846 100.598 39.537L103.063 42.2377V42.24ZM98.7834 42.24H99.8303V35.7791H98.7834V42.24ZM77.5893 42.24H80.2887C81.707 42.24 82.4995 41.5352 82.4995 40.4554C82.4995 39.2096 81.3828 38.5299 80.2662 38.5299H77.5916V39.4688H80.4057C80.9866 39.4688 81.3828 39.7734 81.3828 40.3144C81.3828 40.926 80.8943 41.3011 80.1964 41.3011H77.5916V42.24H77.5893Z" fill="#F37124"/>
</svg>
