<svg width="130" height="60" viewBox="0 0 130 60" fill="none" xmlns="http://www.w3.org/2000/svg">
<rect width="130" height="60" fill="white"/>
<g clip-path="url(#clip0_307_59)">
<path d="M32.2077 18H9V41H32.2077V18Z" fill="url(#paint0_linear_307_59)"/>
<path d="M31.4922 29.6013C31.4922 34.4141 31.6967 39.3282 31.6967 39.3282C31.6967 39.8855 31.3389 40.2401 30.8788 40.2401H10.7894C10.3293 40.2401 10.0226 39.8348 9.97148 39.3282C9.97148 39.3282 9.40918 35.1233 9.40918 28.7401C9.40918 22.3062 10.0226 19.3172 10.0226 19.3172C10.0737 18.8106 10.3804 18.4053 10.8405 18.4053H30.9299C31.39 18.4053 31.7478 18.8106 31.7478 19.3172C31.6967 19.3172 31.4922 24.8392 31.4922 29.6013Z" fill="url(#paint1_linear_307_59)"/>
<path d="M26.9938 24.1806C25.5625 24.9912 25.1025 25.0925 23.5689 26.0044L23.62 25.8524C24.4379 24.9912 24.7958 24.5859 25.3069 23.826C23.8756 23.9273 21.7798 24.0793 20.2974 24.3832L20.3996 24.2313C21.7798 23.5727 24.2846 22.9141 25.5625 22.7621C25.2558 22.3061 22.6999 20.9383 22.0865 20.685L22.1376 20.533C24.0801 20.7357 26.636 21.6476 27.7095 22.3061C28.1696 22.1542 28.6807 22.1542 29.5498 22.0528C29.5498 22.0528 29.3964 22.5595 28.4763 23.218C28.7319 23.826 28.1696 27.3216 27.6584 28.2335C27.6584 26.815 27.5561 24.9912 26.9938 24.1806Z" fill="url(#paint2_linear_307_59)"/>
<path d="M16.5142 36.6432L16.5653 36.4912C15.7985 36.1872 15.0318 35.9846 14.4184 35.3767C14.6228 34.8194 14.8273 34.4141 15.1851 33.9075L15.2362 33.7555C14.5717 33.8568 14.0094 34.1101 13.4471 34.2115C12.987 33.4515 12.8337 32.3877 12.5781 31.3745V31.4758C12.4759 32.641 12.4247 33.4515 12.5781 34.3634C12.118 34.5154 11.7091 34.5154 11.3001 34.6674L11.249 34.8194C11.8624 35.174 12.3225 35.478 13.0382 35.7819C13.396 36.5419 13.8049 37.0991 14.4184 37.7071L14.4695 37.5551C14.3672 37.0991 14.2139 36.7445 14.265 36.2379C15.0318 36.4912 15.6452 36.5925 16.5142 36.6432Z" fill="url(#paint3_linear_307_59)"/>
<path d="M18.6611 25.0925C18.6611 25.0925 18.3544 25.6498 18.0988 26.359H18.0477C19.8368 26.6124 21.5237 27.3216 21.9327 27.5749L21.8816 27.7269C20.0413 27.4229 19.0701 27.4229 18.3544 27.5242C17.6899 27.5749 17.5365 27.6762 17.5365 27.6762C17.1276 28.5375 16.9231 29.956 16.8209 30.4626L16.7697 30.6146C16.4119 29.804 15.9519 28.1828 15.9519 28.1828C15.0317 28.6894 12.8848 30.6652 12.8848 30.6652C14.0605 28.3348 15.2873 27.2709 15.2873 27.2709C14.8784 26.8657 13.8049 26.663 12.987 26.6124L13.0381 26.4604C13.5493 26.3084 14.5717 26.2577 15.2362 26.2071C16.0541 26.2071 16.5142 26.2071 16.5142 26.2071C17.1787 25.6498 18.2522 25.1432 18.6611 25.0925Z" fill="url(#paint4_linear_307_59)"/>
<path d="M20.9104 35.174C20.5525 35.6806 20.1947 36.0859 19.7858 36.5419C19.1723 36.6938 18.4567 36.6432 17.8944 36.6432L17.8433 36.7952C18.2522 36.9978 18.6612 37.1498 19.1212 37.2511C18.7634 37.5551 18.3033 37.8084 17.9455 38.0617L17.8944 38.2137C18.61 38.0617 19.5813 37.7577 20.2969 37.3018C20.6548 37.3018 21.0126 37.3018 21.2682 37.2511L21.3193 37.0991C21.2682 36.9471 21.1148 36.8458 21.0637 36.5925C21.7282 36.0859 22.1883 35.63 22.7506 35.0727L22.8528 34.9207C22.2905 35.2753 21.626 35.8326 21.0126 36.1366C20.9615 35.7819 20.9104 35.5286 20.9104 35.174Z" fill="url(#paint5_linear_307_59)"/>
<path d="M27.0961 24.0286C25.6647 24.8392 25.2047 24.9405 23.6711 25.8524C24.5913 24.8898 24.898 24.4846 25.4603 23.6233C24.029 23.674 21.9331 23.8766 20.4507 24.1806C21.7286 23.4713 24.3357 22.7114 25.6647 22.5595C25.358 22.1542 22.8021 20.837 22.1376 20.533C24.1312 20.685 26.636 21.4449 27.8117 22.1542C28.2718 22.0022 28.783 22.0022 29.652 21.9009C29.4475 22.3061 29.4475 22.5595 28.5785 23.1167C28.8341 23.7246 28.2718 27.2202 27.7606 28.1321C27.7606 26.663 27.6072 24.8392 27.0961 24.0286Z" fill="white"/>
<path d="M16.6167 36.4912C15.7988 36.1872 15.1854 35.8326 14.572 35.2247C14.7765 34.6674 14.981 34.2621 15.3388 33.7555C14.6742 33.8568 14.1631 33.9075 13.6008 34.0595C13.0896 33.1982 12.8851 32.3877 12.6806 31.3238C12.5273 32.489 12.5273 33.2996 12.6806 34.2115C12.1695 34.3634 11.7605 34.4648 11.3516 34.6674C11.965 35.022 12.4762 35.326 13.1407 35.63C13.4985 36.3899 13.9075 36.9471 14.5209 37.5551C14.3675 37.0485 14.3164 36.6432 14.4187 36.0859C15.0832 36.3392 15.7477 36.4405 16.6167 36.4912Z" fill="white"/>
<path d="M18.7635 24.9406C18.5079 25.2952 18.2012 25.9031 18.1501 26.1564C20.2459 26.4604 21.984 27.5243 21.984 27.5243C20.1437 27.2203 19.1725 27.2203 18.4568 27.3216C17.7923 27.3723 17.6389 27.4736 17.6389 27.4736C17.1277 28.5375 16.821 30.4119 16.821 30.4119C16.4632 29.6013 16.0031 27.9802 16.0031 27.9802C15.083 28.4868 12.936 30.4626 12.936 30.4626C14.1118 28.1322 15.3386 27.0683 15.3386 27.0683C14.9296 26.663 13.8562 26.4604 13.0383 26.4097C13.4472 26.2577 14.5207 26.0551 15.3386 26.0044C16.1565 26.0044 16.6165 26.0044 16.6165 26.0044C17.2811 25.4978 18.3546 24.9912 18.7635 24.9406Z" fill="white"/>
<path d="M21.0127 35.022C20.6549 35.5286 20.2971 35.9339 19.8881 36.3899C19.1725 36.5925 18.6102 36.6432 17.8945 36.6432C18.3035 36.8458 18.7124 36.9978 19.1725 37.0991C18.7124 37.5044 18.3546 37.7577 17.8945 38.0617C18.6102 37.9097 19.5814 37.6057 20.2971 37.1498C20.6549 37.1498 21.0127 37.1498 21.2683 37.0991C21.2172 36.8965 21.1661 36.7445 21.115 36.4405C21.7795 35.9339 22.2907 35.478 22.8019 34.9207C22.1885 35.326 21.6773 35.63 21.0127 35.9339C21.0127 35.63 21.0127 35.3767 21.0127 35.022Z" fill="white"/>
<path d="M40.8976 26.4097C42.4823 26.4097 43.0446 26.7137 43.0446 27.5749C43.0446 27.8282 42.9935 28.0308 42.8401 28.1828C42.5334 28.5375 41.9711 28.7401 41.2043 28.6894H41.1532L40.6932 29.804H41.1532C42.0222 29.804 42.789 30.0573 43.1468 30.5132C43.3002 30.7159 43.4024 30.9692 43.4024 31.2225C43.4024 32.0837 42.6356 32.5397 41.1021 32.5397C40.8465 32.5397 40.4376 32.5397 40.182 32.5397C40.1309 31.3745 40.1309 29.7533 40.1309 29.2974C40.1309 28.7401 40.182 27.5242 40.182 26.4604C40.3353 26.4097 40.642 26.4097 40.8976 26.4097ZM38.035 25.5991C38.0861 26.4097 38.1372 28.5374 38.1372 29.2974C38.1372 30.0066 38.1372 32.3877 38.035 33.4009V33.5022H41.7155C43.5558 33.5022 45.4983 32.9449 45.4983 31.3238C45.4983 30.3106 44.7315 29.5507 43.3513 29.1454C44.3737 28.8921 45.0893 28.1828 45.0893 27.3723C45.0893 26.0551 43.5558 25.5485 42.1245 25.4978H37.9839L38.035 25.5991Z" fill="black"/>
<path d="M54.1373 25.4978H52.2971L52.3482 27.5242C52.3993 28.5374 52.3993 29.5507 52.5015 30.5132C52.3993 30.2093 52.2971 30.0573 51.7348 29.2467C51.7348 29.196 49.8434 26.3084 49.1789 25.4978H47.083V25.5991C47.1341 26.4097 47.1852 28.5374 47.1852 29.2974C47.1852 30.0066 47.1852 32.3877 47.083 33.4009V33.5022H48.9744V33.4009C48.8721 31.4758 48.8721 29.5 48.8721 27.5749C48.9233 27.8282 49.0255 27.9802 49.3322 28.4361C49.3322 28.4868 52.6038 33.1476 52.7571 33.4515V33.5022H54.2907V33.4009C54.1884 32.3877 54.1884 30.0066 54.1884 29.2974C54.1884 28.5374 54.2396 26.4097 54.2907 25.5991V25.5485H54.1373V25.4978Z" fill="black"/>
<path d="M59.0958 26.4604C60.1693 26.4604 60.885 26.663 61.2428 27.0683C61.3962 27.2709 61.4984 27.5242 61.4984 27.7775C61.4984 28.9427 60.1693 29.196 59.0958 29.196H58.6358C58.6358 29.196 58.5335 29.196 58.4313 29.196C58.4313 28.9427 58.4313 28.5881 58.4313 28.1828C58.4313 27.6762 58.4313 27.0683 58.4313 26.511C58.5846 26.511 58.8402 26.4604 59.0958 26.4604ZM56.3354 25.5991C56.3866 26.4097 56.4377 28.5374 56.4377 29.2974C56.4377 30.0066 56.4377 32.3877 56.3354 33.4009V33.5022H58.5847V33.4009C58.5335 32.641 58.4824 31.2731 58.4824 30.2093C58.5847 30.2093 58.8914 30.2093 58.8914 30.2093H59.1981C62.1629 30.2093 63.5942 29.4493 63.5942 27.8282C63.5942 25.9537 61.6006 25.5485 59.9137 25.4978H56.3866V25.5991" fill="black"/>
<path d="M70.5973 26.4604C71.6708 26.4604 72.3864 26.663 72.7443 27.0683C72.8976 27.2709 72.9999 27.5242 72.9999 27.7775C72.9999 28.9427 71.6708 29.196 70.5973 29.196H70.1372C70.1372 29.196 70.035 29.196 69.9328 29.196C69.9328 28.9427 69.9328 28.5881 69.9328 28.1828C69.9328 27.6762 69.9328 27.0683 69.9328 26.511C70.0861 26.511 70.3417 26.4604 70.5973 26.4604ZM67.8369 25.5991C67.888 26.4097 67.9392 28.5374 67.9392 29.2974C67.9392 30.0066 67.9392 32.3877 67.8369 33.4009V33.5022H70.0861V33.4009C70.035 32.641 69.9839 31.2731 69.9839 30.2093C70.0861 30.2093 70.3928 30.2093 70.3928 30.2093H70.6995C73.6644 30.2093 75.0957 29.4493 75.0957 27.8282C75.0957 25.9537 73.051 25.5485 71.3641 25.4978H67.8369V25.5991Z" fill="black"/>
<path d="M78.6228 27.8789C78.7762 28.2841 79.2874 29.2974 79.7986 30.5639C79.6963 30.5639 79.5941 30.5639 79.5941 30.5639H78.6228C78.6228 30.5639 77.6005 30.5639 77.4471 30.5639C77.8561 29.5507 78.265 28.6388 78.6228 27.8789ZM78.0605 25.4978C77.6005 26.663 74.8912 32.489 74.4823 33.4009L74.4312 33.5022H76.3225V33.4515C76.4759 32.8943 76.7315 32.2863 76.9871 31.6278C77.0893 31.6278 78.5717 31.6278 78.5717 31.6278H79.9008C79.9008 31.6278 80.1053 31.6278 80.1564 31.6278C80.5142 32.489 80.7698 33.1476 80.872 33.4515V33.5022H83.0701L79.4919 25.4978H79.543H78.0605Z" fill="black"/>
<path d="M84.0415 25.5991C84.0926 26.4097 84.1437 28.5374 84.1437 29.2974C84.1437 30.0066 84.1437 32.3877 84.0415 33.4009V33.5022H86.2907V33.4009C86.1885 32.3877 86.1373 30.0066 86.1373 29.2974C86.1373 28.7401 86.1373 27.5242 86.1885 26.511C86.3418 26.511 86.5974 26.4604 86.8019 26.4604C87.8242 26.4604 88.591 26.663 88.9488 27.0683C89.1022 27.2709 89.2044 27.5242 89.2044 27.7775C89.2044 28.6894 88.3354 29.1454 87.5175 29.196C87.262 29.196 87.0575 29.196 87.0575 29.196L86.9041 29.1454L87.0064 29.2974C87.8243 30.4626 89 32.4383 89.5112 33.4009V33.4515H91.9137L91.8626 33.3502C91.7604 33.1982 90.1757 30.9185 89.5112 29.956L89.46 29.9053C90.6869 29.5507 91.3003 28.8414 91.3003 27.8282C91.3003 26.0044 89.3067 25.5485 87.5687 25.4978H84.0415V25.5991Z" fill="black"/>
<path d="M95.083 25.4978H92.936V25.5485C92.9872 26.359 93.0383 28.4868 93.0383 29.2467C93.0383 29.956 93.0383 32.337 92.936 33.3502V33.4515H95.1852V33.3502C95.083 32.337 95.083 29.956 95.083 29.2467C95.083 28.4868 95.1341 26.359 95.1852 25.5485V25.4978H95.083Z" fill="black"/>
<path d="M100.041 26.4097C101.626 26.4097 102.188 26.7137 102.188 27.5749C102.188 27.8282 102.137 28.0308 101.984 28.1828C101.677 28.5375 101.115 28.7401 100.348 28.6894H100.297L99.888 29.804H100.297C101.166 29.804 101.882 30.0573 102.291 30.5132C102.495 30.7159 102.546 30.9692 102.546 31.2225C102.546 32.0837 101.779 32.5397 100.195 32.5397C99.9391 32.5397 99.5302 32.5397 99.2746 32.5397C99.2234 31.3745 99.2234 29.7533 99.2234 29.2974C99.2234 28.7401 99.2234 27.5242 99.2746 26.4604C99.479 26.4097 99.7857 26.4097 100.041 26.4097ZM97.1787 25.5991C97.2298 26.4097 97.2809 28.5374 97.2809 29.2974C97.2809 30.0066 97.2809 32.3877 97.1787 33.4009V33.5022H100.91C102.751 33.5022 104.693 32.9449 104.693 31.3238C104.693 30.3106 103.926 29.5507 102.546 29.1454C103.568 28.8921 104.284 28.1828 104.284 27.3723C104.284 26.0551 102.751 25.5485 101.319 25.4978H97.1787V25.5991Z" fill="black"/>
<path d="M109.243 27.8282C109.447 28.1828 109.907 29.2467 110.418 30.5132C110.316 30.5132 110.265 30.5132 110.265 30.5132H109.294C109.294 30.5132 108.271 30.5132 108.118 30.5132C108.476 29.5507 108.885 28.6388 109.243 27.8282ZM110.163 25.4978H108.68V25.5485C108.22 26.7643 105.409 32.8943 105.153 33.4009L105.102 33.5022H107.045V33.4515C107.198 32.8943 107.402 32.2863 107.658 31.6278C107.709 31.6278 109.243 31.6278 109.243 31.6278H110.572H110.827C111.185 32.489 111.441 33.1476 111.543 33.4515V33.5022H113.741L110.163 25.4978Z" fill="black"/>
<path d="M114.457 27.5749C114.457 28.9934 115.888 29.5507 117.115 30.0573C118.086 30.4626 119.109 30.8679 119.109 31.5265C119.109 31.7291 119.058 31.8811 118.955 32.0331C118.7 32.2864 118.24 32.4383 117.473 32.3877C116.706 32.337 115.888 32.1344 114.917 31.6784L114.559 31.4758V31.7798V33.1983L114.815 33.2489H114.968C115.428 33.3502 116.348 33.5529 117.217 33.5529C119.569 33.5529 121 32.641 121 31.0705C121 29.6013 119.569 29.0441 118.24 28.5375C117.269 28.1322 116.297 27.7776 116.297 27.1696C116.297 26.967 116.297 26.4604 117.524 26.4604C118.444 26.4604 119.313 26.815 119.824 27.0176L120.285 27.2203V26.9163V25.4472L119.824 25.3458C119.364 25.2445 118.598 25.0925 117.831 25.0925C115.786 25.1939 114.457 26.1564 114.457 27.5749Z" fill="black"/>
</g>
<defs>
<linearGradient id="paint0_linear_307_59" x1="20.5922" y1="17.4348" x2="20.5922" y2="41.6897" gradientUnits="userSpaceOnUse">
<stop stop-color="#008053"/>
<stop offset="0.6" stop-color="#7FCBAE"/>
<stop offset="1" stop-color="#00A76D"/>
</linearGradient>
<linearGradient id="paint1_linear_307_59" x1="20.5559" y1="12.2922" x2="20.5559" y2="39.5482" gradientUnits="userSpaceOnUse">
<stop stop-color="#00A76D"/>
<stop offset="0.3" stop-color="#7FCBAE"/>
<stop offset="0.55" stop-color="#00A76D"/>
<stop offset="0.8352" stop-color="#008053"/>
<stop offset="0.8691" stop-color="#008558"/>
<stop offset="0.9244" stop-color="#009264"/>
<stop offset="0.9939" stop-color="#00A97A"/>
<stop offset="1" stop-color="#00AD7D"/>
</linearGradient>
<linearGradient id="paint2_linear_307_59" x1="24.9612" y1="38.0429" x2="24.9612" y2="20.4051" gradientUnits="userSpaceOnUse">
<stop stop-color="#00B387"/>
<stop offset="1" stop-color="#00A76D"/>
</linearGradient>
<linearGradient id="paint3_linear_307_59" x1="13.9187" y1="38.0439" x2="13.9187" y2="20.4008" gradientUnits="userSpaceOnUse">
<stop stop-color="#00B387"/>
<stop offset="1" stop-color="#00A76D"/>
</linearGradient>
<linearGradient id="paint4_linear_307_59" x1="17.3584" y1="38.04" x2="17.3584" y2="20.4084" gradientUnits="userSpaceOnUse">
<stop stop-color="#00B387"/>
<stop offset="1" stop-color="#00A76D"/>
</linearGradient>
<linearGradient id="paint5_linear_307_59" x1="20.3324" y1="38.0424" x2="20.3324" y2="20.4048" gradientUnits="userSpaceOnUse">
<stop stop-color="#00B387"/>
<stop offset="1" stop-color="#00A76D"/>
</linearGradient>
<clipPath id="clip0_307_59">
<rect width="112" height="23" fill="white" transform="translate(9 18)"/>
</clipPath>
</defs>
</svg>
