<svg width="60" height="60" viewBox="0 0 60 60" fill="none" xmlns="http://www.w3.org/2000/svg">
<g clip-path="url(#clip0_307_57)">
<rect width="60" height="60" fill="#2B56C0"/>
<path d="M47.7923 13H13V47.481H47.7923V13Z" fill="url(#paint0_linear_307_57)"/>
<path d="M62.2563 30.8167C62.2563 44.9234 62.8513 59.3271 62.8513 59.3271C62.8513 60.9606 61.8101 62 60.4714 62H2.01602C0.677346 62 -0.215103 60.8121 -0.363845 59.3271C-0.363845 59.3271 -2 47.0023 -2 28.2923C-2 9.43388 -0.215103 0.672854 -0.215103 0.672854C-0.0663615 -0.812065 0.826087 -2 2.16476 -2H60.6201C61.9588 -2 63 -0.812065 63 0.672854C62.8513 0.672854 62.2563 16.8585 62.2563 30.8167Z" fill="url(#paint1_linear_307_57)"/>
<path d="M39.9757 22.2661C37.8299 23.4813 37.1402 23.6332 34.8412 25.0003L34.9178 24.7724C36.144 23.4813 36.6804 22.8737 37.4468 21.7344C35.301 21.8863 32.1589 22.1142 29.9365 22.5699L30.0898 22.342C32.1589 21.3547 35.9141 20.3673 37.8299 20.1395C37.3701 19.456 33.5384 17.4053 32.6188 17.0256L32.6954 16.7977C35.6075 17.1015 39.4393 18.4686 41.0486 19.456C41.7383 19.2281 42.5047 19.2281 43.8075 19.0762C43.8075 19.0762 43.5776 19.8357 42.1981 20.823C42.5813 21.7344 41.7383 26.9749 40.972 28.342C40.972 26.2154 40.8187 23.4813 39.9757 22.2661Z" fill="url(#paint2_linear_307_57)"/>
<path d="M24.265 40.9495L24.3416 40.7216C23.1921 40.2659 22.0426 39.9621 21.123 39.0507C21.4295 38.2153 21.736 37.6077 22.2725 36.8482L22.3491 36.6203C21.3529 36.7722 20.5099 37.152 19.6669 37.3039C18.9772 36.1646 18.7473 34.5697 18.3641 33.0507V33.2026C18.2108 34.9495 18.1342 36.1646 18.3641 37.5317C17.6744 37.7596 17.0613 37.7596 16.4482 37.9874L16.3716 38.2153C17.2912 38.7469 17.9809 39.2026 19.0538 39.6583C19.5903 40.7976 20.2033 41.633 21.123 42.5444L21.1996 42.3165C21.0463 41.633 20.8164 41.1014 20.8931 40.3419C22.0426 40.7216 22.9622 40.8735 24.265 40.9495Z" fill="url(#paint3_linear_307_57)"/>
<path d="M27.4835 23.6326C27.4835 23.6326 27.0237 24.468 26.6405 25.5313H26.5639C29.2461 25.911 31.7751 26.9743 32.3881 27.3541L32.3115 27.5819C29.5526 27.1262 28.0966 27.1262 27.0237 27.2781C26.0274 27.3541 25.7975 27.506 25.7975 27.506C25.1844 28.7971 24.8779 30.9237 24.7246 31.6832L24.648 31.911C24.1116 30.6959 23.4218 28.2655 23.4218 28.2655C22.0424 29.025 18.8237 31.987 18.8237 31.987C20.5863 28.4933 22.4256 26.8984 22.4256 26.8984C21.8125 26.2908 20.2032 25.987 18.977 25.911L19.0536 25.6832C19.82 25.4554 21.3527 25.3794 22.3489 25.3035C23.5751 25.3035 24.2648 25.3035 24.2648 25.3035C25.2611 24.468 26.8704 23.7085 27.4835 23.6326Z" fill="url(#paint4_linear_307_57)"/>
<path d="M30.8559 38.7471C30.3195 39.5066 29.783 40.1142 29.1699 40.7977C28.2503 41.0256 27.1774 40.9496 26.3344 40.9496L26.2578 41.1775C26.8709 41.4813 27.484 41.7091 28.1737 41.861C27.6372 42.3167 26.9475 42.6965 26.4111 43.0762L26.3344 43.3041C27.4073 43.0762 28.8634 42.6205 29.9363 41.937C30.4727 41.937 31.0092 41.937 31.3924 41.861L31.469 41.6332C31.3924 41.4053 31.1625 41.2534 31.0858 40.8737C32.0821 40.1142 32.7718 39.4307 33.6148 38.5952L33.7681 38.3674C32.9251 38.899 31.9288 39.7345 31.0092 40.1902C30.9326 39.6585 30.8559 39.2788 30.8559 38.7471Z" fill="url(#paint5_linear_307_57)"/>
<path d="M40.1291 22.0382C37.9833 23.2534 37.2936 23.4053 34.9945 24.7724C36.3739 23.3294 36.8338 22.7218 37.6767 21.4306C35.531 21.5066 32.3889 21.8104 30.1665 22.2661C32.0824 21.2028 35.9908 20.0636 37.9833 19.8357C37.5235 19.2281 33.6917 17.2534 32.6955 16.7977C35.6842 17.0256 39.4393 18.1648 41.202 19.2281C41.8917 19.0003 42.658 19.0003 43.9608 18.8484C43.6543 19.456 43.6543 19.8357 42.3515 20.6711C42.7347 21.5825 41.8917 26.823 41.1253 28.1901C41.1253 25.9876 40.8954 23.2534 40.1291 22.0382Z" fill="white"/>
<path d="M24.4188 40.7214C23.1926 40.2657 22.273 39.7341 21.3534 38.8227C21.6599 37.9873 21.9665 37.3797 22.5029 36.6202C21.5067 36.7721 20.7403 36.848 19.8973 37.0759C19.131 35.7847 18.8244 34.5695 18.5179 32.9746C18.288 34.7214 18.288 35.9366 18.5179 37.3037C17.7516 37.5316 17.1385 37.6835 16.5254 37.9873C17.445 38.5189 18.2114 38.9746 19.2076 39.4303C19.7441 40.5695 20.3571 41.405 21.2768 42.3164C21.0469 41.5569 20.9702 40.9493 21.1235 40.1138C22.1198 40.4936 23.116 40.6455 24.4188 40.7214Z" fill="white"/>
<path d="M27.6373 23.4049C27.2541 23.9366 26.7943 24.8479 26.7177 25.2277C29.8597 25.6834 32.4653 27.2783 32.4653 27.2783C29.7064 26.8226 28.2504 26.8226 27.1775 26.9745C26.1812 27.0505 25.9513 27.2024 25.9513 27.2024C25.185 28.7973 24.7251 31.6074 24.7251 31.6074C24.1887 30.3922 23.499 27.9619 23.499 27.9619C22.1196 28.7214 18.9009 31.6834 18.9009 31.6834C20.6635 28.1897 22.5027 26.5948 22.5027 26.5948C21.8896 25.9872 20.2803 25.6834 19.0541 25.6074C19.6672 25.3796 21.2766 25.0758 22.5027 24.9998C23.7289 24.9998 24.4186 24.9998 24.4186 24.9998C25.4149 24.2404 27.0242 23.4809 27.6373 23.4049Z" fill="white"/>
<path d="M31.0092 38.5193C30.4728 39.2788 29.9363 39.8864 29.3232 40.5699C28.2503 40.8737 27.4074 40.9496 26.3345 40.9496C26.9476 41.2534 27.5606 41.4813 28.2503 41.6332C27.5606 42.2408 27.0242 42.6205 26.3345 43.0762C27.4074 42.8484 28.8634 42.3927 29.9363 41.7091C30.4728 41.7091 31.0092 41.7091 31.3924 41.6332C31.3158 41.3294 31.2391 41.1015 31.1625 40.6459C32.1587 39.8864 32.9251 39.2028 33.6914 38.3674C32.7718 38.975 32.0055 39.4307 31.0092 39.8864C31.0092 39.4307 31.0092 39.0509 31.0092 38.5193Z" fill="white"/>
</g>
<defs>
<linearGradient id="paint0_linear_307_57" x1="30.3787" y1="12.1526" x2="30.3787" y2="48.515" gradientUnits="userSpaceOnUse">
<stop stop-color="#008053"/>
<stop offset="0.6" stop-color="#7FCBAE"/>
<stop offset="1" stop-color="#00A76D"/>
</linearGradient>
<linearGradient id="paint1_linear_307_57" x1="30.4341" y1="-19.9179" x2="30.4341" y2="59.9719" gradientUnits="userSpaceOnUse">
<stop stop-color="#00A76D"/>
<stop offset="0.3" stop-color="#7FCBAE"/>
<stop offset="0.55" stop-color="#00A76D"/>
<stop offset="0.8352" stop-color="#008053"/>
<stop offset="0.8691" stop-color="#008558"/>
<stop offset="0.9244" stop-color="#009264"/>
<stop offset="0.9939" stop-color="#00A97A"/>
<stop offset="1" stop-color="#00AD7D"/>
</linearGradient>
<linearGradient id="paint2_linear_307_57" x1="36.9284" y1="43.0481" x2="36.9284" y2="16.606" gradientUnits="userSpaceOnUse">
<stop stop-color="#00B387"/>
<stop offset="1" stop-color="#00A76D"/>
</linearGradient>
<linearGradient id="paint3_linear_307_57" x1="20.3739" y1="43.0494" x2="20.3739" y2="16.5993" gradientUnits="userSpaceOnUse">
<stop stop-color="#00B387"/>
<stop offset="1" stop-color="#00A76D"/>
</linearGradient>
<linearGradient id="paint4_linear_307_57" x1="25.5305" y1="43.043" x2="25.5305" y2="16.6103" gradientUnits="userSpaceOnUse">
<stop stop-color="#00B387"/>
<stop offset="1" stop-color="#00A76D"/>
</linearGradient>
<linearGradient id="paint5_linear_307_57" x1="29.9895" y1="43.0474" x2="29.9895" y2="16.6055" gradientUnits="userSpaceOnUse">
<stop stop-color="#00B387"/>
<stop offset="1" stop-color="#00A76D"/>
</linearGradient>
<clipPath id="clip0_307_57">
<rect width="60" height="60" fill="white"/>
</clipPath>
</defs>
</svg>
