<svg width="60" height="60" viewBox="0 0 60 60" fill="none" xmlns="http://www.w3.org/2000/svg">
<rect width="60" height="60" fill="#A6874B"/>
<path fill-rule="evenodd" clip-rule="evenodd" d="M14.7774 14.5495C14.7774 14.924 14.513 15.0828 14.0955 15.0828H13.2232V14.0161H14.1569C14.5562 14.0161 14.7774 14.2034 14.7774 14.5352V14.5495ZM15.017 16.5671V16.5529C15.017 16.214 14.802 16.0054 14.3165 16.0054H13.2232V17.1147H14.3473C14.7652 17.1147 15.017 16.9417 15.017 16.5671ZM21.9471 15.9765H20.8045L21.3756 14.3404L21.9471 15.9765ZM31.5642 28.4994C31.5642 29.853 30.61 30.4254 29.1014 30.4254H26.0239V26.5732H29.3232C30.7655 26.5732 31.5642 27.2499 31.5642 28.4473V28.4994ZM29.8902 33.7531C31.6423 33.7531 32.4186 34.508 32.4186 35.7307V35.7823C32.4186 37.1101 31.5411 37.7347 30.0829 37.7569H26.0239V33.7531H29.8902ZM44.8378 17.1508C45.5997 17.1508 46.128 16.4449 46.128 15.5801V15.5654C46.128 14.7007 45.5875 13.9806 44.8256 13.9806C44.0638 13.9806 43.5355 14.6865 43.5355 15.5512V15.5654C43.5355 16.4302 44.0759 17.1508 44.8378 17.1508ZM51 8V37.7569H50.9109L49.1334 35.6506C47.9285 36.9349 46.8561 37.7569 45.1037 37.7569C42.4759 37.7569 40.6582 35.1881 40.6582 32.106V32.0548C40.6582 28.9718 42.5196 26.4554 45.1037 26.4554C46.4685 26.4554 47.5736 27.0671 48.6336 28.0893L50.7975 25.1739C49.4417 23.7541 47.7701 22.8074 45.1256 22.8074C40.4171 22.8074 37.1321 26.9945 37.1321 32.106V32.157C37.1321 34.2749 37.6964 36.2098 38.6725 37.7569H35.5882C35.7066 37.3054 35.7688 36.8104 35.7688 36.2703V36.2187C35.7688 33.8042 34.6743 32.5463 32.9002 31.7501C33.995 31.0308 34.915 29.8499 34.915 27.821V27.7694C34.915 24.9444 32.9878 23.1207 29.8565 23.1207H22.7386V37.7569H21.9908L16.6845 23.1309H13.3935L8.08722 37.7569H8V8H51ZM42.5465 15.5797C42.5465 17.0142 43.4987 18.1739 44.8256 18.1739C46.1526 18.1739 47.1174 16.9991 47.1174 15.5659V15.5508C47.1174 14.1171 46.1651 12.957 44.8378 12.957C43.5109 12.957 42.5465 14.1318 42.5465 15.5659V15.5797ZM35.0577 15.5797C35.0577 17.028 35.9978 18.1739 37.2629 18.1739C38.0924 18.1739 38.5838 17.8282 39.0264 17.2736L38.4242 16.56C38.0863 16.9203 37.7851 17.1508 37.2937 17.1508C36.5564 17.1508 36.0467 16.4306 36.0467 15.5659V15.5508C36.0467 14.6869 36.5689 13.9801 37.2937 13.9801C37.7237 13.9801 38.0616 14.1967 38.3935 14.5495L38.9953 13.735C38.596 13.2742 38.1106 12.957 37.2997 12.957C35.9788 12.957 35.0577 14.1318 35.0577 15.5659V15.5797ZM27.3168 18.0876H28.2504V14.8813L30.3332 18.0876H31.1375V13.0433H30.2039V16.149L28.189 13.0433H27.3168V18.0876ZM19.109 18.0876H20.0734L20.4666 16.9564H22.285L22.6779 18.0876H23.667L21.8242 13.0073H20.952L19.109 18.0876ZM12.3017 18.0876H14.3473C15.3181 18.0876 15.9571 17.6263 15.9571 16.7037V16.6899C15.9571 16.0125 15.65 15.6735 15.1524 15.4502C15.4592 15.2483 15.7175 14.9311 15.7175 14.3626V14.3475C15.7175 13.5553 15.1766 13.0433 14.2983 13.0433H12.3017V18.0876ZM15.017 27.7481L18.4961 37.7574H11.5379L15.017 27.7481ZM51 50.8705H45.7904V41.79H47.4936V49.0543H51V50.8705ZM41.532 50.8705H43.2352V41.79H41.532V50.8705ZM36.3057 51C35.1336 51 33.9499 50.52 33.0212 49.5472L34.0273 48.1331C34.7244 48.8084 35.4544 49.2358 36.3387 49.2358C37.0358 49.2358 37.456 48.9115 37.456 48.3795V48.3542C37.456 47.848 37.1905 47.5886 35.8965 47.1994C34.3371 46.7329 33.3307 46.2262 33.3307 44.4238V44.3975C33.3307 42.75 34.4589 41.6601 36.0403 41.6601C37.1686 41.6601 38.1306 42.0752 38.9157 42.8149L38.0309 44.3193C37.3453 43.7614 36.6705 43.4248 36.0179 43.4248C35.3656 43.4248 35.0228 43.7753 35.0228 44.2156V44.2415C35.0228 44.8384 35.3547 45.0328 36.6926 45.4357C38.2633 45.9152 39.1482 46.5767 39.1482 48.1598V48.1856C39.1482 49.9881 37.9759 51 36.3057 51ZM30.3574 50.8705L29.6495 48.8337H26.3758L25.6679 50.8705H23.9321L27.2492 41.7251H28.8196L32.1376 50.8705H30.3574ZM28.0126 44.1253L26.9841 47.0696H29.0411L28.0126 44.1253ZM21.1531 50.8705L19.4942 47.965H18.1563V50.8705H16.4528V41.79H19.9918C21.8167 41.79 22.912 42.9185 22.912 44.7868V44.8126C22.912 46.2782 22.2368 47.1994 21.2531 47.6274L23.144 50.8705H21.1531ZM21.1864 44.8904C21.1864 44.0341 20.6779 43.5933 19.8484 43.5933H18.1563V46.2008H19.8814C20.7109 46.2008 21.1864 45.6817 21.1864 44.9166V44.8904ZM11.6839 50.8705H8.00114V41.79H11.5952C13.1769 41.79 14.1501 42.7113 14.1501 44.1382V44.164C14.1501 45.1889 13.6855 45.7596 13.1326 46.123C14.0283 46.5247 14.5816 47.1345 14.5816 48.3537V48.38C14.5816 50.0405 13.431 50.8705 11.6839 50.8705ZM12.4579 44.4754C12.4579 43.8785 12.0597 43.5412 11.3411 43.5412H9.65991V45.4612H11.2303C11.9824 45.4612 12.4579 45.176 12.4579 44.5012V44.4754ZM12.8891 48.1073C12.8891 47.4979 12.5023 47.1216 11.6285 47.1216H9.65991V49.1193H11.6839C12.4359 49.1193 12.8891 48.8079 12.8891 48.1336V48.1073Z" fill="white"/>
</svg>
