<svg width="60" height="60" viewBox="0 0 60 60" fill="none" xmlns="http://www.w3.org/2000/svg">
<rect width="60" height="60" fill="white"/>
<path fill-rule="evenodd" clip-rule="evenodd" d="M24.1409 33.4709C24.3881 33.4709 24.6871 33.5158 24.9714 33.6427C25.0016 33.4934 25.0239 33.344 25.0313 33.1872C24.7396 33.0602 24.448 33.008 24.1409 33.008C22.8089 33.008 22.1657 33.8144 22.1657 35.0391C22.1657 36.3234 22.8911 37.0403 23.9914 37.0403C24.3504 37.0403 24.6871 36.9657 24.9565 36.779C24.9867 36.6147 25.009 36.428 25.0239 36.2787C24.7322 36.4728 24.3806 36.5773 24.036 36.5773C23.2655 36.5773 22.6965 36.092 22.6965 35.0242C22.6965 34.0459 23.1833 33.4709 24.1409 33.4709ZM19.7338 33.008C19.3144 33.008 18.8281 33.0826 18.327 33.217V36.9507H18.8504V33.5755C19.1351 33.5082 19.449 33.4709 19.7184 33.4709C20.639 33.4709 20.9009 33.8294 20.9009 34.5238V36.9507H21.4249V34.4268C21.4249 33.5232 20.998 33.008 19.7338 33.008ZM8.92088 31.7983C8.71884 31.7983 8.5693 31.9476 8.5693 32.1493C8.5693 32.3508 8.71884 32.4927 8.92088 32.4927C9.12292 32.4927 9.26503 32.3508 9.26503 32.1493C9.26503 31.9476 9.12292 31.7983 8.92088 31.7983ZM25.7721 36.9507H26.296V33.0975H25.7721V36.9507ZM16.7854 36.2263C16.5383 36.4653 16.2244 36.6072 15.8352 36.6072C15.0196 36.6072 14.6002 36.0173 14.6002 35.054C14.6002 34.0534 15.0567 33.4709 16.0595 33.4709C16.3289 33.4709 16.5611 33.5008 16.7854 33.5605V36.2263ZM14.0694 35.054C14.0694 36.331 14.7274 37.0403 15.7901 37.0403C16.209 37.0403 16.5537 36.8835 16.8077 36.6595L16.8231 36.9507H17.3094V33.217C16.9127 33.0677 16.5235 33.008 16.0595 33.008C14.72 33.008 14.0694 33.7398 14.0694 35.054ZM11.6073 33.008C11.1884 33.008 10.7021 33.0826 10.2004 33.217V36.9507H10.7244V33.5755C11.0086 33.5082 11.323 33.4709 11.5924 33.4709C12.513 33.4709 12.775 33.8294 12.775 34.5238V36.9507H13.2983V34.4268C13.2983 33.5232 12.872 33.008 11.6073 33.008ZM53.9522 34.83L53.6006 34.7105C53.1366 34.5537 52.8444 34.4268 52.8444 34.0086C52.8444 33.6427 53.1366 33.456 53.7125 33.456C54.0794 33.456 54.4612 33.5158 54.8054 33.6427C54.8499 33.4934 54.8727 33.329 54.8802 33.2021C54.536 33.0677 54.1319 33.008 53.6976 33.008C52.8524 33.008 52.3433 33.3589 52.3433 34.0236C52.3433 34.6209 52.7097 34.957 53.3758 35.1586L53.7199 35.2631C54.0794 35.3752 54.4909 35.5319 54.4909 35.98C54.4909 36.4056 54.1394 36.5848 53.5629 36.5848C53.1811 36.5848 52.6949 36.4952 52.3433 36.2936C52.3056 36.3982 52.276 36.54 52.2685 36.7491C52.6201 36.9507 53.0544 37.0403 53.5778 37.0403C54.4761 37.0403 55 36.6446 55 35.965C55 35.3154 54.5434 35.0316 53.9522 34.83ZM49.8441 36.5699C48.9909 36.5699 48.5423 36.0099 48.5423 35.0092C48.5423 34.0908 48.9686 33.4784 49.8441 33.4784C50.6899 33.4784 51.1385 34.0459 51.1385 35.0242C51.1385 35.965 50.7122 36.5699 49.8441 36.5699ZM49.8589 33.008C48.6992 33.008 48.0109 33.7846 48.0109 35.0466C48.0109 36.1965 48.617 37.0403 49.8144 37.0403C50.9964 37.0403 51.6698 36.2637 51.6698 34.9869C51.6698 33.8518 51.0712 33.008 49.8589 33.008ZM26.034 31.7983C25.832 31.7983 25.6825 31.9476 25.6825 32.1493C25.6825 32.3508 25.832 32.4927 26.034 32.4927C26.2361 32.4927 26.3782 32.3508 26.3782 32.1493C26.3782 31.9476 26.2361 31.7983 26.034 31.7983ZM46.3496 35.7858V33.5904H47.6514C47.6816 33.4485 47.6965 33.2992 47.7039 33.1199H46.3496V31.7385C46.1926 31.7385 45.9831 31.7684 45.8256 31.8207V35.8456C45.8256 36.6819 46.2674 37.0403 46.9859 37.0403C47.2176 37.0403 47.4345 37.003 47.6593 36.9208C47.689 36.779 47.7113 36.6147 47.7267 36.4728C47.5247 36.5475 47.285 36.5923 47.0755 36.5923C46.6115 36.5923 46.3496 36.3533 46.3496 35.7858ZM8.65892 36.9507H9.18284V33.0975H8.65892V36.9507ZM29.8277 36.2263C29.5811 36.4653 29.2666 36.6072 28.8774 36.6072C28.0618 36.6072 27.6429 36.0173 27.6429 35.054C27.6429 34.0534 28.0995 33.4709 29.1017 33.4709C29.3711 33.4709 29.6034 33.5008 29.8277 33.5605V36.2263ZM27.1116 35.054C27.1116 36.331 27.7702 37.0403 28.8323 37.0403C29.2518 37.0403 29.5959 36.8835 29.8505 36.6595L29.8653 36.9507H30.3516V33.217C29.9549 33.0677 29.5657 33.008 29.1017 33.008C27.7628 33.008 27.1116 33.7398 27.1116 35.054ZM43.2071 33.008C42.7877 33.008 42.3014 33.0826 41.8003 33.217V36.9507H42.3237V33.5755C42.6084 33.5082 42.9224 33.4709 43.1917 33.4709C44.1123 33.4709 44.3743 33.8294 44.3743 34.5238V36.9507H44.8982V34.4268C44.8982 33.5232 44.4713 33.008 43.2071 33.008ZM40.4534 34.7329H38.1785C38.2384 33.9563 38.6048 33.4635 39.3536 33.4635C40.0944 33.4635 40.4534 33.9638 40.4534 34.703V34.7329ZM39.3759 33.008C38.1488 33.008 37.6472 33.8891 37.6472 35.0017C37.6472 36.2861 38.3058 37.0403 39.5556 37.0403C39.982 37.0403 40.3712 36.9731 40.745 36.7566C40.7827 36.5923 40.8124 36.3907 40.8272 36.2562C40.4232 36.4878 39.9745 36.5773 39.5705 36.5773C38.7173 36.5773 38.2458 36.0994 38.1785 35.2033H40.9471C40.9699 35.054 40.9773 34.8972 40.9773 34.7404C40.9773 33.7771 40.4985 33.008 39.3759 33.008ZM35.3277 33.008C34.8711 33.008 34.43 33.1274 34.0179 33.3216C33.756 33.1051 33.3673 33.008 32.8434 33.008C32.3645 33.008 31.8703 33.0826 31.3692 33.217V36.9507H31.8931V33.5755C32.1847 33.5082 32.5066 33.4709 32.7909 33.4709C33.5916 33.4709 33.8907 33.7697 33.8907 34.4939V36.9507H34.4146V34.4268C34.4146 34.1281 34.37 33.8817 34.2873 33.6875C34.6018 33.5531 34.9385 33.4709 35.2826 33.4709C36.0537 33.4709 36.383 33.8294 36.383 34.5089V36.9507H36.9063V34.4268C36.9063 33.5232 36.4577 33.008 35.3277 33.008ZM32.0348 26.1969C32.0722 25.9803 32.0947 25.7488 32.1096 25.4949H30.8075V24.0835C30.5531 24.0835 30.2388 24.1209 29.9844 24.203V28.1235C29.9844 29.0346 30.4932 29.4004 31.2939 29.4004C31.5259 29.4004 31.7654 29.3706 31.9899 29.281C32.0348 29.0644 32.0647 28.8105 32.0871 28.5865C31.9075 28.6537 31.6831 28.6985 31.4436 28.6985C31.047 28.6985 30.8075 28.5119 30.8075 28.0264V26.1969H32.0348ZM27.3426 25.3679C26.946 25.3679 26.3698 25.4501 25.846 25.5771V29.3109H26.6691V26.1297C26.8936 26.0923 27.1256 26.0699 27.3201 26.0699C28.1433 26.0699 28.3379 26.3537 28.3379 26.9436V29.3109H29.161V26.8017C29.161 25.8982 28.7195 25.3679 27.3426 25.3679ZM19.5822 26.4284L19.1781 26.2566C18.6542 26.0326 18.3624 25.8086 18.3624 25.4202C18.3624 25.0244 18.6617 24.7705 19.3128 24.7705C19.657 24.7705 20.1359 24.8377 20.54 24.9871C20.6148 24.7705 20.6672 24.539 20.6897 24.2404C20.2631 24.091 19.8067 24.0238 19.3202 24.0238C18.108 24.0238 17.5168 24.5689 17.5168 25.4202C17.5168 26.2118 17.9957 26.6076 18.6991 26.9138L19.0808 27.0781C19.7842 27.3842 20.0686 27.5859 20.0686 28.0189C20.0686 28.4595 19.6794 28.6836 18.9835 28.6836C18.5719 28.6836 18.0331 28.5865 17.6141 28.3924C17.5318 28.6313 17.4869 28.8404 17.4719 29.1466C17.891 29.3408 18.3923 29.4303 19.006 29.4303C20.2781 29.4303 20.9291 28.8404 20.9291 27.9816C20.9291 27.2573 20.5325 26.8317 19.5822 26.4284ZM13.7106 25.4649C13.6987 25.1923 13.6223 24.9219 13.4809 24.6775L12.2334 22.5213C12.1382 22.3569 12.0725 22.1807 12.036 22L11.9839 22.0901C11.6751 22.6238 11.6751 23.2813 11.9839 23.815L12.9819 25.5399C13.2906 26.0736 13.2906 26.7312 12.9819 27.2649L12.9297 27.355C12.8933 27.1743 12.8275 26.9981 12.7324 26.8337L11.2354 24.2462C11.1403 24.0818 11.0746 23.9056 11.0381 23.7249L10.9859 23.8151C10.6782 24.3469 10.6773 25.0018 10.9829 25.5345L11.9839 27.2649C12.2927 27.7985 12.2927 28.4561 11.9839 28.9898L11.9318 29.0799C11.8953 28.8992 11.8296 28.7231 11.7344 28.5586L10.487 26.4024C10.3197 26.1132 10.2432 25.7877 10.2572 25.4652C8.92178 25.8133 8 26.5526 8 27.4086C8 28.5994 9.7837 29.5648 11.9839 29.5648C14.1841 29.5648 15.9678 28.5994 15.9678 27.4086C15.9678 26.5526 15.0461 25.8131 13.7106 25.4649ZM24.1246 28.4595C23.9076 28.6239 23.6457 28.7284 23.3239 28.7284C22.5906 28.7284 22.2838 28.1907 22.2838 27.4291C22.2838 26.5927 22.6804 26.0699 23.5335 26.0699C23.7654 26.0699 23.9525 26.0849 24.1246 26.1147V28.4595ZM21.4456 27.4291C21.4456 28.6836 22.1042 29.4004 23.0919 29.4004C23.6158 29.4004 23.9375 29.1914 24.1471 28.8628L24.192 29.3109H24.9478V25.5771C24.5137 25.4277 24.0723 25.3679 23.5335 25.3679C22.1491 25.3679 21.4456 26.1147 21.4456 27.4291ZM35.0357 28.4595C34.8187 28.6239 34.5567 28.7284 34.235 28.7284C33.5016 28.7284 33.1948 28.1907 33.1948 27.4291C33.1948 26.5927 33.5914 26.0699 34.4445 26.0699C34.6765 26.0699 34.8636 26.0849 35.0357 26.1147V28.4595ZM32.3568 27.4291C32.3568 28.6836 33.0152 29.4004 34.003 29.4004C34.5268 29.4004 34.8486 29.1914 35.0582 28.8628L35.1031 29.3109H35.8589V25.5771C35.4249 25.4277 34.9833 25.3679 34.4445 25.3679C33.0601 25.3679 32.3568 26.1147 32.3568 27.4291ZM45.7447 27.0258C45.812 26.391 46.1189 26.055 46.7026 26.055C47.2713 26.055 47.6005 26.4134 47.6005 27.0258H45.7447ZM46.7474 25.3679C45.438 25.3679 44.9216 26.2492 44.9216 27.3618C44.9216 28.6388 45.5875 29.4004 46.9645 29.4004C47.406 29.4004 47.8026 29.3332 48.1767 29.1615C48.2291 28.9151 48.274 28.6313 48.304 28.4148C47.8924 28.6014 47.4359 28.6985 46.9869 28.6985C46.2536 28.6985 45.8645 28.3774 45.7597 27.7128H48.3863C48.4162 27.4962 48.4312 27.3096 48.4312 27.0781C48.4312 26.1371 47.9223 25.3679 46.7474 25.3679ZM38.2537 25.3679C37.857 25.3679 37.2808 25.4501 36.757 25.5771V29.3109H37.5802V26.1297C37.8046 26.0923 38.0366 26.0699 38.2312 26.0699C39.0544 26.0699 39.2489 26.3537 39.2489 26.9436V29.3109H40.0721V26.8017C40.0721 25.8982 39.6306 25.3679 38.2537 25.3679ZM5 36.9507H5.52391V34.5986H7.67897C7.70124 34.4566 7.72404 34.2326 7.73147 34.0982H5.52391V32.2836H7.88101C7.9107 32.1418 7.9335 31.9178 7.94093 31.7833H5V36.9507ZM43.4322 28.4446C43.2078 28.6164 42.9383 28.7284 42.6091 28.7284C41.8757 28.7284 41.5689 28.1907 41.5689 27.4291C41.5689 26.5777 41.9581 26.0699 42.7737 26.0699C42.9907 26.0699 43.2152 26.0998 43.4322 26.1446V28.4446ZM43.4322 25.4277C43.2376 25.3904 43.0356 25.3679 42.8186 25.3679C41.4342 25.3679 40.7308 26.1147 40.7308 27.4291C40.7308 28.6836 41.3893 29.4004 42.3771 29.4004C42.9159 29.4004 43.2376 29.1839 43.4472 28.8329L43.4921 29.3109H44.2479V24.0835C43.9785 24.0835 43.6867 24.1059 43.4322 24.1955V25.4277ZM49.1423 25.5771V29.3109H49.9654V26.1147C50.1675 26.0849 50.3695 26.0699 50.5715 26.0699C50.8035 26.0699 50.9981 26.0774 51.1926 26.0998C51.2376 25.943 51.2675 25.6443 51.2675 25.3978C51.0879 25.3754 50.8035 25.3679 50.5491 25.3679C50.0852 25.3679 49.494 25.4576 49.1423 25.5771Z" fill="#EC0000"/>
</svg>
