<svg width="130" height="60" viewBox="0 0 130 60" fill="none" xmlns="http://www.w3.org/2000/svg">
<rect width="130" height="60" fill="white"/>
<path fill-rule="evenodd" clip-rule="evenodd" d="M85.5869 29.8405C85.8991 29.8405 86.2769 29.8971 86.6359 30.0575C86.6741 29.8688 86.7022 29.6802 86.7116 29.482C86.3432 29.3216 85.9748 29.2556 85.5869 29.2556C83.9041 29.2556 83.0916 30.2744 83.0916 31.8215C83.0916 33.444 84.008 34.3496 85.398 34.3496C85.8515 34.3496 86.2769 34.2552 86.6172 34.0195C86.6554 33.8118 86.6835 33.5761 86.7022 33.3874C86.3338 33.6327 85.8897 33.7647 85.4543 33.7647C84.4809 33.7647 83.7621 33.1516 83.7621 31.8026C83.7621 30.5668 84.3771 29.8405 85.5869 29.8405ZM80.0195 29.2556C79.4896 29.2556 78.8753 29.3499 78.2423 29.5197V34.2364H78.9034V29.9726C79.2632 29.8876 79.6597 29.8405 80 29.8405C81.163 29.8405 81.4939 30.2933 81.4939 31.1706V34.2364H82.1557V31.048C82.1557 29.9065 81.6165 29.2556 80.0195 29.2556ZM66.3598 27.7274C66.1046 27.7274 65.9157 27.9161 65.9157 28.1709C65.9157 28.4255 66.1046 28.6047 66.3598 28.6047C66.615 28.6047 66.7946 28.4255 66.7946 28.1709C66.7946 27.9161 66.615 27.7274 66.3598 27.7274ZM87.6475 34.2364H88.3093V29.3688H87.6475V34.2364ZM76.2949 33.3213C75.9827 33.6232 75.5862 33.8025 75.0945 33.8025C74.0642 33.8025 73.5343 33.0572 73.5343 31.8403C73.5343 30.5763 74.1111 29.8405 75.3778 29.8405C75.7181 29.8405 76.0115 29.8782 76.2949 29.9536V33.3213ZM72.8637 31.8403C72.8637 33.4535 73.6951 34.3496 75.0375 34.3496C75.5667 34.3496 76.0022 34.1514 76.323 33.8685L76.3425 34.2364H76.9567V29.5197C76.4557 29.3311 75.964 29.2556 75.3778 29.2556C73.6857 29.2556 72.8637 30.1801 72.8637 31.8403ZM69.7535 29.2556C69.2243 29.2556 68.61 29.3499 67.9763 29.5197V34.2364H68.6381V29.9726C68.9972 29.8876 69.3944 29.8405 69.7347 29.8405C70.8976 29.8405 71.2286 30.2933 71.2286 31.1706V34.2364H71.8897V31.048C71.8897 29.9065 71.3511 29.2556 69.7535 29.2556ZM123.247 31.5574L122.802 31.4064C122.216 31.2083 121.847 31.048 121.847 30.5197C121.847 30.0575 122.216 29.8216 122.944 29.8216C123.407 29.8216 123.89 29.8971 124.324 30.0575C124.381 29.8688 124.409 29.6612 124.419 29.5009C123.984 29.3311 123.474 29.2556 122.925 29.2556C121.857 29.2556 121.214 29.699 121.214 30.5386C121.214 31.2932 121.677 31.7177 122.518 31.9724L122.953 32.1044C123.407 32.246 123.927 32.444 123.927 33.0101C123.927 33.5477 123.483 33.7741 122.755 33.7741C122.273 33.7741 121.658 33.661 121.214 33.4063C121.167 33.5384 121.129 33.7176 121.12 33.9817C121.564 34.2364 122.112 34.3496 122.774 34.3496C123.908 34.3496 124.57 33.8496 124.57 32.9912C124.57 32.1706 123.993 31.812 123.247 31.5574ZM118.057 33.7554C116.979 33.7554 116.412 33.0478 116.412 31.7837C116.412 30.6235 116.951 29.8499 118.057 29.8499C119.125 29.8499 119.692 30.5668 119.692 31.8026C119.692 32.9912 119.154 33.7554 118.057 33.7554ZM118.076 29.2556C116.611 29.2556 115.741 30.2367 115.741 31.831C115.741 33.2836 116.507 34.3496 118.019 34.3496C119.513 34.3496 120.363 33.3685 120.363 31.7555C120.363 30.3216 119.607 29.2556 118.076 29.2556ZM87.9784 27.7274C87.7232 27.7274 87.5342 27.9161 87.5342 28.1709C87.5342 28.4255 87.7232 28.6047 87.9784 28.6047C88.2336 28.6047 88.4131 28.4255 88.4131 28.1709C88.4131 27.9161 88.2336 27.7274 87.9784 27.7274ZM113.642 32.7648V29.9914H115.287C115.325 29.8121 115.344 29.6235 115.353 29.3971H113.642V27.652C113.444 27.652 113.179 27.6897 112.981 27.7558V32.8403C112.981 33.8968 113.539 34.3496 114.446 34.3496C114.739 34.3496 115.013 34.3024 115.297 34.1986C115.335 34.0195 115.363 33.8118 115.382 33.6327C115.127 33.727 114.824 33.7836 114.559 33.7836C113.973 33.7836 113.642 33.4817 113.642 32.7648ZM66.0289 34.2364H66.6907V29.3688H66.0289V34.2364ZM92.7708 33.3213C92.4593 33.6232 92.062 33.8025 91.5703 33.8025C90.54 33.8025 90.0108 33.0572 90.0108 31.8403C90.0108 30.5763 90.5876 29.8405 91.8537 29.8405C92.194 29.8405 92.4874 29.8782 92.7708 29.9536V33.3213ZM89.3396 31.8403C89.3396 33.4535 90.1716 34.3496 91.5134 34.3496C92.0432 34.3496 92.478 34.1514 92.7996 33.8685L92.8183 34.2364H93.4326V29.5197C92.9315 29.3311 92.4398 29.2556 91.8537 29.2556C90.1622 29.2556 89.3396 30.1801 89.3396 31.8403ZM109.673 29.2556C109.143 29.2556 108.528 29.3499 107.895 29.5197V34.2364H108.557V29.9726C108.916 29.8876 109.313 29.8405 109.653 29.8405C110.816 29.8405 111.147 30.2933 111.147 31.1706V34.2364H111.809V31.048C111.809 29.9065 111.27 29.2556 109.673 29.2556ZM106.194 31.4347H103.32C103.396 30.4536 103.859 29.8311 104.805 29.8311C105.74 29.8311 106.194 30.4631 106.194 31.3969V31.4347ZM104.833 29.2556C103.283 29.2556 102.649 30.3687 102.649 31.7743C102.649 33.3968 103.481 34.3496 105.06 34.3496C105.598 34.3496 106.09 34.2647 106.562 33.9911C106.61 33.7836 106.647 33.5289 106.666 33.3591C106.156 33.6515 105.589 33.7647 105.079 33.7647C104.001 33.7647 103.405 33.161 103.32 32.029H106.818C106.846 31.8403 106.856 31.6423 106.856 31.4441C106.856 30.2272 106.251 29.2556 104.833 29.2556ZM99.7188 29.2556C99.142 29.2556 98.5847 29.4066 98.0642 29.6518C97.7333 29.3783 97.2422 29.2556 96.5804 29.2556C95.9755 29.2556 95.3511 29.3499 94.7181 29.5197V34.2364H95.38V29.9726C95.7484 29.8876 96.155 29.8405 96.5141 29.8405C97.5256 29.8405 97.9034 30.2178 97.9034 31.1328V34.2364H98.5653V31.048C98.5653 30.6706 98.509 30.3594 98.4045 30.114C98.8017 29.9443 99.2271 29.8405 99.6619 29.8405C100.636 29.8405 101.052 30.2933 101.052 31.1517V34.2364H101.713V31.048C101.713 29.9065 101.146 29.2556 99.7188 29.2556ZM34.7882 30.3018C34.8355 30.0283 34.8639 29.7358 34.8827 29.415H33.2378V27.632C32.9164 27.632 32.5194 27.6792 32.198 27.783V32.7356C32.198 33.8866 32.8408 34.3488 33.8523 34.3488C34.1454 34.3488 34.4479 34.3111 34.7315 34.1978C34.7882 33.9243 34.826 33.6035 34.8543 33.3206C34.6275 33.4054 34.3439 33.462 34.0414 33.462C33.5404 33.462 33.2378 33.2262 33.2378 32.613V30.3018H34.7882ZM28.8607 29.2546C28.3597 29.2546 27.6318 29.3584 26.9701 29.5188V34.2356H28.0099V30.2169C28.2935 30.1697 28.5866 30.1414 28.8323 30.1414C29.8722 30.1414 30.1181 30.4999 30.1181 31.2451V34.2356H31.1579V31.0659C31.1579 29.9244 30.6001 29.2546 28.8607 29.2546ZM19.0572 30.5943L18.5467 30.3773C17.8849 30.0942 17.5163 29.8113 17.5163 29.3207C17.5163 28.8207 17.8944 28.4999 18.7169 28.4999C19.1517 28.4999 19.7567 28.5848 20.2672 28.7735C20.3617 28.4999 20.4279 28.2075 20.4563 27.8302C19.9174 27.6415 19.3408 27.5566 18.7263 27.5566C17.1949 27.5566 16.4481 28.2453 16.4481 29.3207C16.4481 30.3206 17.0531 30.8206 17.9417 31.2074L18.4238 31.415C19.3125 31.8017 19.6716 32.0565 19.6716 32.6035C19.6716 33.1601 19.1801 33.4432 18.3009 33.4432C17.781 33.4432 17.1004 33.3206 16.5709 33.0753C16.467 33.3771 16.4103 33.6412 16.3914 34.0281C16.9208 34.2734 17.5541 34.3865 18.3293 34.3865C19.9363 34.3865 20.7587 33.6412 20.7587 32.5563C20.7587 31.6414 20.2577 31.1037 19.0572 30.5943ZM11.6398 29.3771C11.6248 29.0328 11.5282 28.6912 11.3496 28.3824L9.77368 25.6586C9.6535 25.4508 9.57051 25.2283 9.52435 25L9.45857 25.1138C9.06843 25.788 9.06843 26.6186 9.4585 27.2928L10.7192 29.4719C11.1093 30.1461 11.1093 30.9768 10.7192 31.6509L10.6534 31.7648C10.6073 31.5365 10.5242 31.314 10.404 31.1063L8.51296 27.8376C8.39285 27.6299 8.30978 27.4073 8.26369 27.1791L8.19784 27.2929C7.80911 27.9648 7.8079 28.7921 8.19396 29.465L9.45857 31.6509C9.84858 32.3251 9.84858 33.1558 9.45857 33.83L9.39265 33.9439C9.34656 33.7156 9.26356 33.493 9.14339 33.2853L7.56748 30.5614C7.35613 30.1961 7.25953 29.7849 7.27722 29.3775C5.59024 29.8173 4.42578 30.7512 4.42578 31.8326C4.42578 33.3369 6.67908 34.5563 9.45857 34.5563C12.238 34.5563 14.4912 33.3369 14.4912 31.8326C14.4912 30.7512 13.3269 29.817 11.6398 29.3771ZM24.7955 33.1601C24.5214 33.3678 24.1906 33.4998 23.7841 33.4998C22.8577 33.4998 22.4701 32.8205 22.4701 31.8584C22.4701 30.8018 22.9711 30.1414 24.0487 30.1414C24.3418 30.1414 24.5782 30.1603 24.7955 30.198V33.1601ZM21.4113 31.8584C21.4113 33.4432 22.2432 34.3488 23.491 34.3488C24.1527 34.3488 24.5592 34.0847 24.8239 33.6696L24.8806 34.2356H25.8354V29.5188C25.2871 29.3301 24.7294 29.2546 24.0487 29.2546C22.2999 29.2546 21.4113 30.198 21.4113 31.8584ZM38.5792 33.1601C38.3051 33.3678 37.9741 33.4998 37.5677 33.4998C36.6413 33.4998 36.2537 32.8205 36.2537 31.8584C36.2537 30.8018 36.7547 30.1414 37.8324 30.1414C38.1254 30.1414 38.3618 30.1603 38.5792 30.198V33.1601ZM35.195 31.8584C35.195 33.4432 36.0268 34.3488 37.2746 34.3488C37.9364 34.3488 38.3428 34.0847 38.6076 33.6696L38.6643 34.2356H39.6191V29.5188C39.0708 29.3301 38.5131 29.2546 37.8324 29.2546C36.0835 29.2546 35.195 30.198 35.195 31.8584ZM52.1076 31.3489C52.1926 30.547 52.5803 30.1225 53.3176 30.1225C54.0361 30.1225 54.452 30.5753 54.452 31.3489H52.1076ZM53.3743 29.2546C51.7201 29.2546 51.0677 30.3678 51.0677 31.7734C51.0677 33.3865 51.909 34.3488 53.6485 34.3488C54.2062 34.3488 54.7072 34.2639 55.1799 34.0469C55.2461 33.7356 55.3028 33.3771 55.3406 33.1036C54.8207 33.3394 54.2441 33.462 53.6768 33.462C52.7504 33.462 52.2589 33.0564 52.1266 32.2168H55.4446C55.4824 31.9432 55.5013 31.7074 55.5013 31.415C55.5013 30.2263 54.8585 29.2546 53.3743 29.2546ZM42.6444 29.2546C42.1433 29.2546 41.4154 29.3584 40.7537 29.5188V34.2356H41.7936V30.2169C42.0771 30.1697 42.3702 30.1414 42.616 30.1414C43.6558 30.1414 43.9016 30.4999 43.9016 31.2451V34.2356H44.9415V31.0659C44.9415 29.9244 44.3838 29.2546 42.6444 29.2546ZM61.4067 34.2364H62.0685V31.265H64.791C64.8191 31.0857 64.8479 30.8027 64.8573 30.6329H62.0685V28.3406H65.0462C65.0837 28.1614 65.1125 27.8784 65.1219 27.7086H61.4067V34.2364ZM49.1863 33.1413C48.9027 33.3583 48.5624 33.4998 48.1464 33.4998C47.22 33.4998 46.8324 32.8205 46.8324 31.8584C46.8324 30.7829 47.324 30.1414 48.3544 30.1414C48.6285 30.1414 48.9122 30.1792 49.1863 30.2358V33.1413ZM49.1863 29.3301C48.9404 29.283 48.6852 29.2546 48.4111 29.2546C46.6623 29.2546 45.7737 30.198 45.7737 31.8584C45.7737 33.4432 46.6056 34.3488 47.8534 34.3488C48.534 34.3488 48.9404 34.0752 49.2052 33.6318L49.2619 34.2356H50.2167V27.632C49.8763 27.632 49.5077 27.6603 49.1863 27.7736V29.3301ZM56.3996 29.5188V34.2356H57.4395V30.198C57.6947 30.1603 57.9499 30.1414 58.2052 30.1414C58.4982 30.1414 58.7441 30.1509 58.9898 30.1792C59.0465 29.9811 59.0843 29.6037 59.0843 29.2924C58.8575 29.264 58.4982 29.2546 58.1768 29.2546C57.5907 29.2546 56.8439 29.3678 56.3996 29.5188Z" fill="#EC0000"/>
</svg>
