<svg width="60" height="60" viewBox="0 0 60 60" fill="none" xmlns="http://www.w3.org/2000/svg">
<rect width="60" height="60" fill="#266BFF"/>
<path d="M50.8564 17.3261C50.8672 18.6675 49.7322 19.6395 48.5571 19.6308C47.4889 19.6233 46.2903 18.7748 46.2886 17.318C46.2874 15.9731 47.325 14.9983 48.5783 15C49.9185 15.0023 50.8833 16.1141 50.8564 17.3261Z" fill="#2FC750"/>
<path d="M16.7849 20.9381C16.0934 20.9469 15.401 21.0538 14.7114 21.2639C12.2746 22.0068 10.6147 23.6575 9.63715 26.0029C8.94097 27.6737 8.8443 29.4311 9.20641 31.1926C9.7473 33.8261 11.2461 35.756 13.6021 36.981C14.9824 37.6984 16.4733 37.8478 17.9936 37.6361C19.6363 37.4076 21.1374 36.8482 22.3097 35.5555C22.3525 35.6298 22.3483 35.6924 22.344 35.7499C22.3429 35.7647 22.3414 35.7793 22.3412 35.7936C22.3429 36.0496 22.343 36.3058 22.3429 36.5618C22.3428 36.7326 22.3424 36.9031 22.3429 37.0738C22.3432 37.2359 22.3364 37.3087 22.3694 37.3411C22.403 37.3741 22.4778 37.3652 22.6437 37.3654C23.6063 37.3666 24.5685 37.3678 25.531 37.3649C25.7232 37.3646 25.8086 37.3797 25.8456 37.3444C25.8821 37.3098 25.8722 37.2269 25.8722 37.0329C25.873 33.1845 25.8729 29.3357 25.8727 25.4872C25.8727 24.2052 25.8727 22.9235 25.8727 21.6413C25.8727 21.6264 25.8721 21.6115 25.8716 21.5965C25.8706 21.5648 25.8698 21.5333 25.8733 21.5021C25.8871 21.3768 25.8511 21.3209 25.7102 21.3215C24.6468 21.3273 23.5838 21.3273 22.5208 21.3215C22.3701 21.3203 22.3394 21.379 22.3405 21.5165C22.3462 22.1283 22.3439 22.7405 22.3411 23.3529C22.3411 23.3655 22.3433 23.3792 22.3455 23.3932C22.3528 23.44 22.3607 23.4912 22.2924 23.5197C22.2538 23.4733 22.2155 23.4265 22.1774 23.38C22.1042 23.2907 22.0316 23.2018 21.9563 23.1149C21.2647 22.3198 20.4328 21.7261 19.4404 21.3822C18.5615 21.0775 17.6741 20.9266 16.7849 20.9381ZM17.2737 24.1884C17.4243 24.1863 17.5761 24.1899 17.7293 24.1984C18.7819 24.2564 19.737 24.5912 20.5598 25.2737C21.7166 26.2335 22.3181 27.4787 22.3972 28.9842C22.451 30.0119 22.3067 31.0069 21.7934 31.9099C20.86 33.55 19.4509 34.4114 17.5766 34.4804C17.0151 34.5007 16.4541 34.4649 15.9184 34.2921C13.9691 33.6635 12.8091 32.3223 12.4348 30.285C12.39 30.0407 12.3813 29.7947 12.3729 29.5675C12.3705 29.504 12.3681 29.4421 12.3651 29.3819C12.3628 27.6195 12.9974 26.2031 14.3645 25.1534C15.2344 24.4851 16.2195 24.2031 17.2734 24.1885L17.2737 24.1884ZM44.3426 21.8101C44.3426 21.6988 44.3443 21.5874 44.3421 21.4761C44.3387 21.2771 44.3376 21.2719 44.1484 21.2719C43.1032 21.2702 42.0583 21.2702 41.0131 21.2719C40.8093 21.2719 40.8076 21.276 40.805 21.4888C40.7999 22.0641 40.7971 22.6394 40.7914 23.2147C40.7909 23.2832 40.8056 23.3568 40.7713 23.4194C40.745 23.4142 40.7334 23.4154 40.7294 23.4107C40.6589 23.3255 40.589 23.2391 40.5185 23.1538C39.8077 22.2932 38.9269 21.6848 37.8761 21.3259C36.9255 21.0011 35.9463 20.9095 34.9499 20.9332C34.1552 20.9524 33.38 21.0782 32.6397 21.3722C30.7288 22.1314 29.3314 23.4856 28.3918 25.3024C27.3599 27.2974 27.239 29.4224 27.7758 31.5804C28.2755 33.5887 29.4673 35.1353 31.0842 36.3609C31.8422 36.9356 32.6942 37.3114 33.6253 37.5017C34.6349 37.7081 35.6473 37.7116 36.6587 37.5376C38.2166 37.2702 39.6457 36.7245 40.7923 35.4771C40.7985 35.5815 40.8064 35.6348 40.8041 35.6882C40.7877 36.0495 40.7773 36.4108 40.7212 36.7692C40.4508 38.4887 39.5673 39.7274 37.9502 40.388C36.7189 40.8914 35.4549 40.9436 34.1742 40.6281C32.979 40.3335 31.9345 39.7715 31.1402 38.7909C31.0423 38.6697 31.0348 38.6714 30.891 38.8164C30.1513 39.5634 29.4127 40.312 28.6736 41.0602C28.6478 41.0863 28.6226 41.1135 28.5962 41.1396C28.5487 41.1866 28.5464 41.2342 28.5905 41.2846C28.6455 41.3472 28.6988 41.4104 28.7549 41.4719C29.4935 42.2769 30.357 42.9119 31.3327 43.3874C33.6241 44.5044 36.0124 44.6622 38.4618 44.076C39.7989 43.7558 40.9783 43.1242 41.951 42.1244C42.8461 41.2046 43.4225 40.0992 43.7954 38.8768C44.205 37.5348 44.3381 36.1528 44.3398 34.7563C44.346 30.4409 44.3426 26.1255 44.3426 21.8101ZM40.8699 29.3626C40.8492 31.067 40.1893 32.4885 38.7848 33.5289C38.0955 34.0398 37.3135 34.317 36.4683 34.3988C35.4278 34.4991 34.413 34.3901 33.4796 33.8757C31.9469 33.0307 31.0725 31.7241 30.8686 29.9647C30.7563 28.998 30.8365 28.0463 31.2324 27.1567C32.0185 25.3919 33.365 24.3707 35.2844 24.1665C36.3891 24.0487 37.4496 24.2134 38.4093 24.7957C39.8664 25.6801 40.68 26.9919 40.8389 28.7109C40.8507 28.8403 40.8618 28.9696 40.8691 29.0995C40.8731 29.1743 40.8699 29.2483 40.8699 29.3626ZM46.8693 29.3267V21.589C46.8693 21.2463 46.8481 21.2886 47.1603 21.288C48.1413 21.2869 49.1217 21.2869 50.1026 21.288C50.4253 21.2886 50.3984 21.2527 50.3984 21.5856C50.399 25.4728 50.3984 29.3603 50.3984 33.2475V37.0049C50.3984 37.0791 50.3973 37.1534 50.3973 37.2276C50.3973 37.2954 50.3628 37.3285 50.2977 37.3303C50.2425 37.332 50.1875 37.332 50.1326 37.332C49.1333 37.332 48.1345 37.3325 47.1352 37.332C46.8419 37.332 46.8688 37.3581 46.8688 37.064C46.8693 34.4845 46.8693 31.9054 46.8693 29.3264V29.3267Z" fill="white"/>
</svg>
