<svg width="60" height="60" viewBox="0 0 60 60" fill="none" xmlns="http://www.w3.org/2000/svg">
<rect width="60" height="60" fill="white"/>
<path d="M21.8113 29.6559C21.8113 25.2608 25.4158 21.6976 29.8616 21.6976C34.3073 21.6976 37.9108 25.2608 37.9108 29.6559C37.9108 34.051 34.3073 37.6151 29.8616 37.6151C25.4158 37.6151 21.8113 34.051 21.8113 29.6559ZM20.6066 29.7007C20.6066 34.8872 24.1918 38.352 28.8483 38.8497H13.7857C12.2335 36.1742 11.3472 33.0063 11.3472 29.7007H20.6066ZM20.634 28.5802V13.8302C23.349 12.2847 26.4975 11.4004 29.8557 11.4004L29.8648 20.5483C25.0985 20.5483 21.1729 24.0142 20.634 28.5802ZM30.9276 20.5313H45.8795C47.4553 23.2154 48.3611 26.3683 48.3675 29.6953H39.1134C39.1134 24.9745 35.5562 21.0536 30.9276 20.5313ZM39.1016 30.6171V45.5572C36.3812 47.1113 33.2241 47.9999 29.8562 47.9999L29.8501 38.8412C34.6648 38.8412 38.6154 35.2386 39.1016 30.6171Z" fill="#041E41"/>
</svg>
