<svg width="130" height="60" viewBox="0 0 130 60" fill="none" xmlns="http://www.w3.org/2000/svg">
<rect width="130" height="60" fill="white"/>
<g clip-path="url(#clip0_308_109)">
<path d="M19.1358 29.9668C19.1358 26.6764 21.8343 24.0088 25.1626 24.0088C28.4909 24.0088 31.1887 26.6764 31.1887 29.9668C31.1887 33.2572 28.4909 35.9255 25.1626 35.9255C21.8343 35.9255 19.1358 33.2572 19.1358 29.9668ZM18.2338 30.0003C18.2338 33.8833 20.9179 36.4772 24.404 36.8498H13.1274C11.9653 34.8468 11.3018 32.4751 11.3018 30.0003H18.2338ZM18.2544 29.1615V18.1189C20.287 16.9618 22.6441 16.2998 25.1582 16.2998L25.165 23.1484C21.5967 23.1484 18.6578 25.7432 18.2544 29.1615ZM25.9607 23.1357H37.1544C38.3342 25.1451 39.0123 27.5056 39.0171 29.9963H32.089C32.089 26.4621 29.4259 23.5267 25.9607 23.1357ZM32.0802 30.6864V41.8714C30.0435 43.0348 27.68 43.7001 25.1586 43.7001L25.154 36.8434C28.7586 36.8434 31.7162 34.1463 32.0802 30.6864Z" fill="#041E41"/>
<path d="M42.4834 31.5561H45.0773V23.1738H42.4834V31.5561Z" fill="#041E41"/>
<path d="M55.5154 23.1738V29.458L50.4396 23.1738H46.3511V31.5562H48.7823V25.2608L53.8565 31.5562H57.9434V23.1738H55.5154Z" fill="#041E41"/>
<path d="M67.4127 31.55C69.4115 31.55 70.2337 30.9471 70.2337 29.1504C70.2337 27.6671 69.5379 27.4536 68.4121 27.2905C69.4485 27.0274 69.9051 26.7003 69.9051 25.3426C69.9051 23.7961 69.07 23.1797 67.2847 23.1797H59.3242V31.55H67.4127ZM61.869 25.0156H66.5768C67.0576 25.0156 67.3233 25.2539 67.3233 25.7193C67.3233 26.3605 66.944 26.4733 66.2732 26.4733H61.869V25.0156ZM61.869 28.1317H66.5519C67.3113 28.1317 67.6527 28.2699 67.6527 28.8481C67.6527 29.5893 67.1969 29.6654 66.5132 29.6654H61.869V28.1317Z" fill="#041E41"/>
<path d="M79.6532 27.5661C79.6532 28.3074 79.6532 28.7967 79.3738 29.1374C78.9937 29.5891 78.2866 29.5388 76.9313 29.5388C74.223 29.5388 73.971 29.6147 73.971 27.5286V23.1299H71.3755V28.2826C71.3755 31.7121 73.1721 31.5994 77.3742 31.5994C78.7046 31.5994 79.741 31.5881 80.4634 31.3475C81.7277 30.9333 82.2463 30.029 82.2463 28.4073V23.1299H79.6532V27.5661Z" fill="#041E41"/>
<path d="M90.3679 29.394C91.265 29.394 91.48 29.7211 91.48 30.4511V31.5562H94.0755V30.0489C94.0755 28.5152 93.3153 28.5272 92.3538 28.3385C93.5053 28.0003 94.177 27.8492 94.177 25.827C94.177 23.8919 93.441 23.1738 91.356 23.1738H83.5083V31.5562H86.103V29.394H90.3679ZM86.103 25.2104H90.1529C91.265 25.2104 91.5944 25.2984 91.5944 26.2035C91.5944 27.1455 91.4937 27.3718 90.2898 27.3718C90.1649 27.3718 90.0893 27.3582 89.9612 27.3582H86.103V25.2104Z" fill="#041E41"/>
<path d="M105.21 25.7438C105.198 24.7643 105.159 24.1238 104.412 23.5824C103.729 23.0923 102.641 23.0923 100.705 23.0923C98.8944 23.0923 97.6525 23.1795 97.1235 23.2441C95.5016 23.4313 94.9717 24.1357 94.9717 25.7941C94.9717 28.5591 96.414 28.2569 101.388 28.2945C102.35 28.3081 102.995 28.2945 102.995 29.0478C102.995 29.8034 102.501 29.8162 100.122 29.8162C99.2229 29.8162 98.5907 29.7899 98.3765 29.777C97.4778 29.7026 97.5913 29.2636 97.5793 28.8862H95.0354C95.0468 29.8913 94.933 30.5821 95.7415 31.1603C96.3117 31.5616 97.5793 31.6368 99.5515 31.6368C101.566 31.6368 102.906 31.5496 103.361 31.4993C104.905 31.3234 105.577 30.7085 105.577 28.9621C105.577 26.4857 104.31 26.3849 101.502 26.3849C101.16 26.3849 100.768 26.3985 100.414 26.3985C99.8189 26.3985 99.1222 26.3729 98.3765 26.3602C97.8442 26.3489 97.5157 26.1347 97.5157 25.7198C97.5157 24.7898 98.2622 25.0289 100.439 24.9161C100.566 24.9025 100.64 24.9026 100.768 24.9026C102.273 24.9026 102.654 24.9665 102.691 25.7454L105.21 25.7438Z" fill="#041E41"/>
<path d="M115.863 31.5562H118.698L114.091 23.1738H110.623L105.915 31.5562H108.775L109.611 30.0345H115.066L115.863 31.5562ZM110.51 28.3017L112.332 24.9841L114.13 28.3017H110.51Z" fill="#041E41"/>
</g>
<defs>
<clipPath id="clip0_308_109">
<rect width="108" height="28" fill="white" transform="translate(11 16)"/>
</clipPath>
</defs>
</svg>
