<svg width="60" height="60" viewBox="0 0 60 60" fill="none" xmlns="http://www.w3.org/2000/svg">
<rect width="60" height="60" fill="#FFD900"/>
<g clip-path="url(#clip0_42_208)">
<path d="M54.0001 26.6663C54.0001 22.4323 50.5298 19 46.2489 19C41.9681 19 38.4978 22.4323 38.4978 26.6663C38.4978 30.9004 41.9681 34.3327 46.2489 34.3327C50.5298 34.3327 54.0001 30.9004 54.0001 26.6663Z" fill="white"/>
<path d="M19.3503 27.3152C19.3503 31.3676 17.2164 33.7394 14.6298 33.7394C14.0836 33.7692 13.5413 33.6331 13.0756 33.3494C12.6098 33.0657 12.2428 32.648 12.0239 32.1522C11.6896 32.658 11.229 33.0698 10.6866 33.3479C10.1442 33.6259 9.53841 33.7608 8.92788 33.7394C7.43653 33.7394 5.73665 32.9363 5.73665 29.9481V26.6981C5.73665 25.8766 5.00061 25.6899 5.00061 25.2791V25.2214C5.00593 25.1222 5.04687 25.0282 5.11605 24.9563C5.18524 24.8844 5.27813 24.8393 5.37797 24.8291L7.79462 24.4743C8.26661 24.4166 8.54993 24.4928 8.54993 24.9412L8.51254 31.0481C8.49385 32.0378 8.85193 32.6722 9.53189 32.6722C10.9105 32.6722 11.6086 30.6368 11.6086 28.937V26.6981C11.6086 25.8766 10.8719 25.6899 10.8719 25.2791V25.2214C10.8784 25.1193 10.9224 25.0232 10.9955 24.9509C11.0687 24.8787 11.166 24.8354 11.2692 24.8291L13.4779 24.4362C13.9504 24.3617 14.2524 24.494 14.2524 24.9406L14.194 30.9915C14.1753 32.0378 14.4773 32.6722 15.2326 32.6722C16.5546 32.6722 17.8952 30.6368 17.8952 28.6949C17.8952 27.0887 16.1772 26.9951 16.1772 25.5571C16.1705 25.3985 16.1981 25.2404 16.2582 25.0933C16.3182 24.9462 16.4094 24.8135 16.5256 24.7041C16.6417 24.5947 16.7802 24.5111 16.9317 24.4589C17.0832 24.4067 17.2442 24.3871 17.4039 24.4015C18.6137 24.4015 19.3503 25.4663 19.3503 27.3152Z" fill="black"/>
<path d="M20.9346 33.2355V33.1604C20.9346 32.693 21.6519 32.544 21.6519 31.7409V27.5203C21.6519 26.6987 20.9346 26.493 20.9346 26.0822V26.0245C20.9346 25.8563 21.0853 25.7627 21.3312 25.6316L23.6912 24.4761C24.1638 24.2519 24.4658 24.513 24.4658 24.8493V31.7403C24.4658 32.5434 25.2585 32.6924 25.2585 33.1599V33.235C25.2585 33.4216 25.0885 33.5522 24.8245 33.5522H21.3499C21.104 33.5527 20.9346 33.421 20.9346 33.2355ZM21.1992 21.6184C21.2051 21.3874 21.2593 21.16 21.3583 20.9507C21.4574 20.7414 21.5991 20.5545 21.7747 20.402C21.9502 20.2495 22.1558 20.1345 22.3785 20.0643C22.6011 19.9942 22.8361 19.9704 23.0685 19.9943C23.2995 19.9712 23.5329 19.9962 23.7536 20.0678C23.9742 20.1393 24.1772 20.2559 24.3495 20.4099C24.5218 20.5639 24.6595 20.7519 24.7538 20.9618C24.8481 21.1717 24.8968 21.3989 24.8968 21.6285C24.8968 21.8582 24.8481 22.0854 24.7538 22.2953C24.6595 22.5052 24.5218 22.6932 24.3495 22.8472C24.1772 23.0012 23.9742 23.1178 23.7536 23.1893C23.5329 23.2609 23.2995 23.2859 23.0685 23.2627C22.8345 23.2861 22.5982 23.2612 22.3745 23.1896C22.1507 23.1179 21.9445 23.0011 21.7688 22.8466C21.5931 22.692 21.4517 22.503 21.3537 22.2916C21.2556 22.0802 21.203 21.851 21.1992 21.6184Z" fill="black"/>
<path d="M26.6172 33.2355V33.1604C26.6172 32.693 27.3538 32.5439 27.3538 31.7593V22.5729C27.3538 21.7322 26.6172 21.5451 26.6172 21.1533V21.0794C26.6172 20.8928 26.7679 20.7986 26.9945 20.7056L29.3732 19.55C29.8645 19.3068 30.1478 19.5685 30.1478 19.8863V31.7634C30.1478 32.548 30.9598 32.6971 30.9598 33.1645V33.2396C30.9598 33.4262 30.7711 33.5568 30.5252 33.5568H27.0506C26.7889 33.5527 26.6172 33.4222 26.6172 33.2355Z" fill="black"/>
<path d="M32.2811 33.2355V33.1604C32.2811 32.693 33.0172 32.5439 33.0172 31.7593V22.5729C33.0172 21.7322 32.2811 21.5451 32.2811 21.1533V21.0794C32.2811 20.8928 32.4318 20.7986 32.6585 20.7056L35.0372 19.55C35.5279 19.3068 35.8118 19.5685 35.8118 19.8863V31.7634C35.8118 32.548 36.6231 32.6971 36.6231 33.1645V33.2396C36.6231 33.4262 36.4345 33.5568 36.1891 33.5568H32.7146C32.4505 33.5527 32.2811 33.4222 32.2811 33.2355Z" fill="black"/>
<path d="M21.5532 36.7194H22.6771C22.829 36.7163 22.9804 36.7387 23.1246 36.7859C23.2404 36.8241 23.3471 36.8852 23.4383 36.9656C23.5199 37.0392 23.5838 37.13 23.6252 37.2313C23.6666 37.3345 23.6877 37.4445 23.6871 37.5555C23.6879 37.6536 23.668 37.7508 23.6287 37.8409C23.5945 37.92 23.5473 37.993 23.4891 38.057C23.4376 38.114 23.377 38.1624 23.3098 38.2002C23.256 38.2325 23.1965 38.2543 23.1345 38.2644C23.2144 38.2763 23.2928 38.2969 23.3682 38.3256C23.5536 38.3944 23.7045 38.532 23.7888 38.7093C23.8418 38.8259 23.8671 38.953 23.863 39.0808C23.8685 39.2331 23.8349 39.3844 23.7654 39.5204C23.7028 39.635 23.6122 39.7323 23.502 39.8035C23.3815 39.879 23.2474 39.9308 23.1071 39.9561C22.9463 39.9861 22.7829 40.0008 22.6193 40H21.5556L21.5532 36.7194ZM22.6047 38.087C22.6785 38.0865 22.7521 38.0774 22.8238 38.0599C22.8945 38.0426 22.9616 38.0135 23.0224 37.9738C23.0818 37.9345 23.1314 37.8824 23.1672 37.8212C23.2053 37.7518 23.2241 37.6737 23.2216 37.5948C23.2252 37.5119 23.2064 37.4295 23.1672 37.3561C23.1319 37.2972 23.0821 37.2481 23.0224 37.2134C22.9611 37.1785 22.8937 37.1552 22.8238 37.1447C22.7513 37.1333 22.6781 37.1275 22.6047 37.1273H22.013V38.087H22.6047ZM22.5895 39.5892C22.6793 39.589 22.769 39.5842 22.8582 39.5748C22.9467 39.5658 23.0331 39.5425 23.1141 39.506C23.1912 39.4705 23.2574 39.4152 23.3057 39.346C23.3539 39.2571 23.3791 39.1579 23.3791 39.0571C23.3791 38.9563 23.3539 38.857 23.3057 38.7682C23.2592 38.6969 23.1964 38.6375 23.1223 38.5949C23.046 38.5518 22.9625 38.5228 22.8758 38.5094C22.7903 38.4947 22.7037 38.4872 22.617 38.4868H22.0106V39.5886L22.5895 39.5892Z" fill="black"/>
<path d="M26.4513 36.7195H26.9385L28.2365 40H27.7043L27.3614 39.0854H25.9986L25.6557 40H25.1533L26.4513 36.7195ZM27.2171 38.6838L26.6797 37.2429L26.1376 38.6838H27.2171Z" fill="black"/>
<path d="M29.6631 36.7195H30.1462L31.9571 39.2824V36.7195H32.4244V40H31.9465L30.1316 37.433V40H29.6643L29.6631 36.7195Z" fill="black"/>
<path d="M34.1733 36.7195H34.6459V38.2095L36.0327 36.7195H36.5801L35.3469 38.057L36.729 39.9994H36.1571L35.0233 38.3915L34.6459 38.7959V40.0006H34.1733V36.7195Z" fill="black"/>
</g>
<defs>
<clipPath id="clip0_42_208">
<rect width="49" height="21" fill="white" transform="translate(5 19)"/>
</clipPath>
</defs>
</svg>
