<svg width="60" height="60" viewBox="0 0 60 60" fill="none" xmlns="http://www.w3.org/2000/svg">
<rect width="60" height="60" fill="#040C17"/>
<path d="M10.9852 35.075C9.75379 35.075 8.93287 34.8884 8.33583 34.5899L8 32.5003H8.2612L8.52241 33.0227C9.15676 34.2168 9.90305 34.7392 11.1344 34.7392C12.5151 34.7392 13.336 34.0302 13.336 32.9107C13.336 31.9032 12.7763 31.3808 11.0971 30.8211C9.19407 30.1868 8.2612 29.4405 8.2612 27.8359C8.2612 26.2314 9.7538 25 11.5822 25C12.739 25 13.4106 25.1493 14.045 25.4105L14.3808 27.612H14.1196L13.8584 27.0896C13.2987 25.8956 12.5897 25.3731 11.4703 25.3731C10.3135 25.3731 9.64185 26.0821 9.64185 27.0523C9.64185 28.0225 10.2016 28.5449 11.7688 29.0673C13.8584 29.7763 14.7167 30.5599 14.7167 32.1644C14.6793 33.8809 13.0002 35.075 10.9852 35.075Z" fill="white"/>
<path d="M19.6798 34.2541C19.12 34.7765 18.4857 35.075 17.7394 35.075C16.62 35.075 16.0602 34.5526 16.0602 33.3959V28.7688H15.0527V28.5076L16.1349 28.0972L17.217 25.9329H17.6648V28.1345H19.5305V28.7688H17.6648V33.3212C17.6648 33.9929 18.0006 34.3287 18.5603 34.3287C18.9335 34.3287 19.1947 34.2168 19.5305 33.9929L19.6798 34.2541Z" fill="white"/>
<path d="M23.5601 35.1123C21.5451 35.1123 20.0898 33.8436 20.0898 31.4555C20.0898 29.4405 21.5451 27.9106 23.5974 27.9106C25.6497 27.9106 27.0677 29.1793 27.0677 31.5674C27.0677 33.5824 25.6124 35.1123 23.5601 35.1123ZM23.3735 28.2837C22.4034 28.2837 21.8436 29.03 21.8436 31.0823C21.8436 33.3212 22.5526 34.7765 23.7467 34.7765C24.7542 34.7765 25.2766 34.0302 25.2766 31.9779C25.3139 29.739 24.6049 28.2837 23.3735 28.2837Z" fill="white"/>
<path d="M35.6132 34.9631C35.2774 34.9631 34.4938 34.9631 33.8594 34.9631C33.2251 34.9631 32.4415 34.9631 32.1057 34.9631V34.7392L32.3295 34.7019C32.9639 34.5899 33.0758 34.4034 33.0758 33.1347V30.4107C33.0758 29.3659 32.6281 28.8435 31.8071 28.8435C31.2474 28.8435 30.7623 29.0674 30.3519 29.3659V33.1347C30.3519 34.4034 30.4638 34.5899 31.0982 34.7019L31.322 34.7392V34.9631C30.9862 34.9631 30.1653 34.9631 29.5682 34.9631C28.9339 34.9631 28.113 34.9631 27.8145 34.9631V34.7392L28.0757 34.7019C28.6354 34.6273 28.7846 34.4034 28.7846 33.0227V30.0002C28.7846 29.2539 28.6727 29.0674 28.1503 28.8061L27.8145 28.6196V28.4703L30.2026 27.9479L30.3892 28.0599V29.03C31.1355 28.3957 31.8444 27.9479 32.74 27.9479C34.0087 27.9479 34.7177 28.6569 34.7177 30.0748V32.9854C34.7177 34.4034 34.8296 34.5526 35.4267 34.6646L35.6879 34.7019L35.6132 34.9631Z" fill="white"/>
<path d="M37.6276 30.8958V31.0077C37.6649 32.9854 38.747 34.1795 40.165 34.1795C40.9486 34.1795 41.5083 33.8809 42.1053 33.2839L42.2919 33.4332C41.5456 34.478 40.5754 35.1123 39.3067 35.1123C37.4783 35.1123 36.0977 33.8436 36.0977 31.7167C36.0977 29.4032 37.8515 27.9106 39.5306 27.9106C41.3964 27.9106 42.2919 28.9554 42.3292 30.8584L37.6276 30.8958ZM40.6501 30.4853C40.6127 29.03 40.0903 28.2837 39.2694 28.2837C38.3365 28.2837 37.7395 29.1046 37.6276 30.4853H40.6501Z" fill="white"/>
<path d="M52.4417 34.9631C52.1805 34.9631 50.9491 34.9257 50.464 34.9257C49.9789 34.9257 48.4117 34.9631 48.1505 34.9631V34.7765L48.5982 34.7019C49.0087 34.6272 49.1953 34.5153 49.1953 34.2541C49.1953 34.0302 49.046 33.769 48.7475 33.2839L47.2176 30.8958L45.6877 33.0227C45.3145 33.5078 45.1653 33.9182 45.1653 34.1795C45.1653 34.4407 45.3145 34.6272 45.7623 34.7019L46.2101 34.7765V34.9631C45.9489 34.9631 44.8668 34.9257 44.3444 34.9257C43.822 34.9257 43.0383 34.9631 42.8145 34.9631V34.7765L43.0383 34.7392C43.6727 34.6272 44.2324 34.1048 44.7175 33.5078L46.9564 30.5599L44.7175 27.3135C44.1951 26.5672 43.822 26.1941 43.2995 26.1195L43.001 26.0821V25.8956C43.2622 25.8956 44.4936 25.9329 44.9787 25.9329C45.4638 25.9329 47.031 25.8956 47.2922 25.8956V26.0821L46.8445 26.1568C46.4713 26.1941 46.2474 26.3433 46.2474 26.6046C46.2474 26.8284 46.3967 27.0896 46.6952 27.5747L48.0385 29.627L49.3445 27.7986C49.6804 27.3135 49.8669 26.9031 49.8669 26.6792C49.8669 26.418 49.6804 26.2314 49.2699 26.1568L48.8221 26.0821V25.8956C49.0833 25.8956 50.1655 25.9329 50.6879 25.9329C51.2103 25.9329 51.9939 25.8956 52.2178 25.8956V26.0821L51.9939 26.1195C51.3595 26.2314 50.7998 26.7165 50.3147 27.3508L48.2997 30.0002L50.7252 33.5824C51.2476 34.3287 51.6207 34.7019 52.1432 34.7765L52.4417 34.8138V34.9631Z" fill="white"/>
</svg>
