<svg width="130" height="60" viewBox="0 0 130 60" fill="none" xmlns="http://www.w3.org/2000/svg">
<rect width="130" height="60" fill="white"/>
<path d="M52.6461 30.6123C49.7541 27.0675 40.2173 28.9224 32.7877 31.2952C32.7673 31.3036 32.7452 31.3069 32.7232 31.3049C32.7013 31.3028 32.6802 31.2955 32.6617 31.2835C32.6432 31.2715 32.6279 31.2551 32.6172 31.2359C32.6064 31.2166 32.6005 31.1951 32.5999 31.173C32.6112 30.7975 32.6174 30.4196 32.6174 30.0363C32.6241 28.1481 32.4655 26.2629 32.1436 24.4023C32.1387 24.3711 32.1461 24.3392 32.1642 24.3134C32.1823 24.2875 32.2097 24.2697 32.2407 24.2636C38.3901 22.0205 50.7774 21.3263 52.8981 30.5102V30.5127C52.9334 30.6476 52.7332 30.727 52.6448 30.6128M46.4198 40.9156C46.217 41.0658 45.9509 40.8185 46.1249 40.6403C49.119 37.5793 51.5774 32.7253 29.8892 42.5998C29.7568 42.6604 29.6233 42.5217 29.7114 42.4133C30.906 40.7058 31.9734 37.9525 32.4547 34.0497C32.4574 34.0256 32.4667 34.0027 32.4816 33.9836C32.4964 33.9645 32.5164 33.9498 32.5391 33.9414C46.1296 28.4798 61.4807 28.6816 46.4195 40.9149M28.2761 16.4933C28.2501 16.4804 28.2295 16.4587 28.2179 16.432C28.2063 16.4054 28.2045 16.3755 28.2128 16.3476C28.2211 16.3198 28.2389 16.2958 28.2632 16.2798C28.2874 16.2638 28.3166 16.2569 28.3454 16.2603C32.107 16.2715 43.4332 15.9907 49.2724 23.4318C49.3518 23.5589 49.1703 23.6889 49.0532 23.588C47.2914 22.0545 42.522 19.4576 31.5305 21.7306C31.4949 21.7405 31.4568 21.7362 31.4244 21.7185C31.3919 21.7009 31.3676 21.6713 31.3566 21.636C30.4819 18.8384 29.3692 17.3264 28.2776 16.4933M52.4338 12.9575H27.7359C26.709 12.9654 25.7274 13.3808 25.0068 14.1124C24.2863 14.8441 23.8859 15.8319 23.8937 16.8588V41.9284C23.8859 42.9553 24.2863 43.9431 25.0068 44.6748C25.7274 45.4064 26.709 45.8218 27.7359 45.8297H52.4333C53.4603 45.8219 54.4421 45.4065 55.1628 44.6749C55.8836 43.9433 56.2843 42.9554 56.2767 41.9284V16.859C56.2841 15.8321 55.8833 14.8443 55.1626 14.1128C54.4419 13.3812 53.4602 12.9658 52.4333 12.9578" fill="#2B56C0"/>
<path d="M61.1299 13.0221H66.7804C69.7165 13.0221 71.4657 14.8317 71.4657 17.386C71.4657 19.9403 69.7165 21.7509 66.7804 21.7509H63.8041V27.1003H61.1299V13.0221ZM66.6605 19.5168C68.2293 19.5168 68.8721 18.5112 68.8721 17.3845C68.8721 16.2578 68.2283 15.2523 66.6605 15.2523H63.8051V19.5153H66.6605V19.5168ZM76.8159 16.8025C79.8931 16.8025 82.1047 19.0141 82.1047 22.0308C82.1047 25.0474 79.8934 27.258 76.8161 27.258C73.7186 27.258 71.5073 25.0464 71.5073 22.0298C71.5073 19.0131 73.7184 16.8025 76.8159 16.8025ZM76.8159 25.1283C78.4856 25.1283 79.6108 23.8619 79.6108 22.0308C79.6108 20.1996 78.4843 18.9333 76.8159 18.9333C75.1272 18.9333 74.0008 20.1996 74.0008 22.0308C74.0008 23.8619 75.126 25.1283 76.8159 25.1283ZM83.2299 20.5829C83.2299 18.2706 84.5366 16.9637 86.8491 16.9637H89.121V19.0354H87.2311C86.2456 19.0354 85.7026 19.5986 85.7026 20.5841V27.0991H83.2289V20.5829H83.2299ZM90.3686 13.9068H92.8423V16.964H95.6575V19.0356H92.8426V23.4601C92.8426 24.4864 93.3858 25.0089 94.3107 25.0089H95.6577V27.1008H94.0284C91.8168 27.1008 90.3689 25.8141 90.3689 23.561L90.3686 13.9068ZM101.711 16.8025C104.788 16.8025 107 19.0141 107 22.0308C107 25.0474 104.789 27.258 101.711 27.258C98.6138 27.258 96.4024 25.0464 96.4024 22.0298C96.4024 19.0131 98.614 16.8025 101.711 16.8025H101.711ZM101.711 25.1283C103.381 25.1283 104.506 23.8619 104.506 22.0308C104.506 20.1996 103.38 18.9333 101.711 18.9333C100.022 18.9333 98.8959 20.1996 98.8959 22.0308C98.8959 23.8619 100.022 25.1283 101.711 25.1283H101.711Z" fill="#2B56C0"/>
<path d="M61.1147 31.4528H66.6997C69.3371 31.4528 71.2135 32.7723 71.2135 35.1626C71.207 35.7511 71.0404 36.3266 70.7318 36.8277C70.4231 37.3287 69.9839 37.7363 69.4613 38.0068C70.2069 38.2615 70.8504 38.7501 71.296 39.3999C71.7417 40.0496 71.9658 40.8259 71.935 41.6132C71.935 44.2917 69.9364 45.8787 66.907 45.8787H61.116V31.4528H61.1147ZM66.5142 37.0996C67.9571 37.0996 68.6778 36.4808 68.6778 35.3681C68.6778 34.2554 67.9571 33.6366 66.4724 33.6366H63.794V37.0996H66.5142ZM66.6176 43.5079C68.4525 43.5079 69.3168 42.807 69.3168 41.4678C69.3168 40.1483 68.4512 39.4073 66.6176 39.4073H63.7937V43.5079H66.6176Z" fill="black"/>
<path d="M77.5809 37.2229C76.2414 37.2229 75.4374 38.0685 75.3958 38.9947H73.1289C73.2523 36.9343 75.0041 35.3264 77.7046 35.3264C80.342 35.3264 82.1969 36.8512 82.1969 39.2014V45.8788H79.7031V44.3326C79.2708 45.3634 78.0761 46.0425 76.5919 46.0425C74.5315 46.0425 73.1304 44.7231 73.1304 42.9313C73.1304 40.9112 74.6967 39.6548 77.0254 39.6548H79.7039V39.224C79.7032 37.9451 78.9204 37.2229 77.5809 37.2229ZM77.1889 44.1689C78.7755 44.1689 79.7029 43.0562 79.7029 41.4904V41.367H77.4976C76.3018 41.367 75.5808 41.924 75.5808 42.8299C75.5811 43.6332 76.2402 44.1689 77.1889 44.1689Z" fill="black"/>
<path d="M83.9897 35.4916H86.525V37.0995C87.1023 35.9665 88.2773 35.3277 89.7609 35.3277C92.1097 35.3277 93.6359 37.0176 93.6359 39.4495V45.8801H91.1004V39.9852C91.1004 38.5639 90.2348 37.5746 88.9369 37.5746C87.5155 37.5746 86.5263 38.6873 86.5263 40.212V45.8788H83.991V35.4916H83.9897Z" fill="black"/>
<path d="M95.7363 45.8796V31.0405H98.2721V39.2844L102.249 35.4927H105.464L101.238 39.573L105.814 45.8786H102.743L99.5072 41.2414L98.2711 42.4372V45.8796H95.7363Z" fill="black"/>
</svg>
