<svg width="60" height="60" viewBox="0 0 60 60" fill="none" xmlns="http://www.w3.org/2000/svg">
<rect width="60" height="60" fill="white"/>
<path d="M44.8929 31.8112C41.4839 27.6326 30.2421 29.8191 21.4842 32.6161C21.4602 32.6261 21.4341 32.63 21.4082 32.6276C21.3824 32.6252 21.3575 32.6165 21.3357 32.6023C21.3139 32.5882 21.2959 32.5689 21.2832 32.5462C21.2705 32.5236 21.2636 32.4981 21.2629 32.4721C21.2762 32.0295 21.2836 31.584 21.2836 31.1322C21.2914 28.9064 21.1045 26.6842 20.725 24.4909C20.7193 24.4541 20.728 24.4166 20.7493 24.3861C20.7707 24.3557 20.803 24.3346 20.8395 24.3274C28.0883 21.6833 42.6902 20.865 45.1901 31.6908V31.6937C45.2317 31.8528 44.9956 31.9463 44.8915 31.8118M37.5535 43.9565C37.3145 44.1336 37.0008 43.842 37.2059 43.632C40.7353 40.0238 43.6333 34.3019 18.0675 45.9418C17.9114 46.0132 17.7542 45.8498 17.858 45.722C19.2661 43.7093 20.5243 40.4637 21.0918 35.8632C21.0949 35.8348 21.1058 35.8078 21.1234 35.7852C21.1409 35.7626 21.1644 35.7454 21.1912 35.7354C37.2115 29.2974 55.3071 29.5352 37.5532 43.9556M16.166 15.168C16.1354 15.1527 16.1111 15.1271 16.0974 15.0957C16.0838 15.0643 16.0817 15.0291 16.0914 14.9962C16.1012 14.9634 16.1222 14.9351 16.1508 14.9163C16.1794 14.8974 16.2138 14.8893 16.2478 14.8932C20.6819 14.9065 34.0329 14.5755 40.9162 23.3469C41.0097 23.4968 40.7958 23.6499 40.6577 23.531C38.581 21.7234 32.9589 18.6623 20.0023 21.3416C19.9604 21.3533 19.9155 21.3482 19.8772 21.3274C19.8389 21.3065 19.8102 21.2716 19.7973 21.23C18.7663 17.9322 17.4546 16.15 16.1678 15.168M44.6427 11H15.5293C14.3188 11.0093 13.1617 11.499 12.3123 12.3614C11.4629 13.2238 10.9909 14.3883 11.0001 15.5988V45.1504C10.9909 46.3608 11.4629 47.5253 12.3123 48.3878C13.1617 49.2502 14.3188 49.7399 15.5293 49.7492H44.6421C45.8527 49.74 47.0101 49.2503 47.8597 48.3879C48.7093 47.5255 49.1816 46.361 49.1727 45.1504V15.5991C49.1814 14.3886 48.709 13.2241 47.8594 12.3618C47.0099 11.4994 45.8526 11.0097 44.6421 11.0003" fill="#2B56C0"/>
</svg>
