<svg width="130" height="60" viewBox="0 0 130 60" fill="none" xmlns="http://www.w3.org/2000/svg">
<rect width="130" height="60" fill="white"/>
<path d="M46.5789 21.3744C45.4616 20.9092 44.287 20.5894 43.227 20.5894C41.68 20.5894 40.9062 20.9383 40.9062 21.5197C40.9062 23.2641 47.8108 21.8686 47.8108 25.5608C47.8108 27.1016 46.407 28.2645 43.5421 28.2645C41.8521 28.2645 40.534 27.9156 39.0156 27.0725L39.6459 25.7061C40.9638 26.462 42.1954 26.7818 43.5421 26.7818C45.2324 26.7818 46.1205 26.2876 46.1205 25.5608C46.1205 23.6711 39.2162 25.0665 39.2162 21.6069C39.2162 20.1243 40.6197 19.0777 43.1697 19.0777C44.6881 19.0777 45.9773 19.4265 47.1805 20.0371L46.5789 21.3744ZM54.2567 28.3226C51.5062 28.3226 49.2143 26.462 49.2143 23.6711C49.2143 20.9092 51.5062 19.0195 54.2567 19.0195C57.0356 19.0195 59.2702 20.9092 59.2702 23.6711C59.2989 26.462 57.0356 28.3226 54.2567 28.3226ZM54.2567 20.5313C52.2513 20.5313 50.8762 21.8977 50.8762 23.6711C50.8762 25.4735 52.194 26.8399 54.2567 26.8399C56.3194 26.8399 57.6086 25.4735 57.6086 23.6711C57.6373 21.8977 56.3194 20.5313 54.2567 20.5313ZM65.8594 28.3226C62.9656 28.3226 60.7886 26.462 60.7886 23.6711C60.7886 20.9383 62.9946 19.0195 65.8594 19.0195C67.5783 19.0195 68.7816 19.5138 69.8989 20.3278L69.0394 21.6069C68.2373 20.9964 67.2346 20.5313 65.917 20.5313C63.797 20.5313 62.4792 21.8977 62.4792 23.642C62.4792 25.4445 63.797 26.7818 65.917 26.7818C67.2348 26.7818 68.2948 26.3457 69.097 25.7352L69.9565 27.0144C68.8675 27.8574 67.5783 28.3226 65.8594 28.3226ZM71.5892 19.3393H73.3081V28.061H71.5892V19.3393ZM75.6 28.061V19.3393H83.6216V20.7929H77.3189V22.828H82.1892V24.2816H77.3189V26.6073H83.9081V28.061H75.6ZM89.9243 20.7929V28.061H88.2054V20.7929H84.7675V19.3393H93.3621V20.7929H89.9243ZM94.7946 28.061V19.3393H102.53V20.7929H96.227V22.828H101.097V24.2816H96.227V26.6073H102.816V28.061H94.7946ZM43.9432 38.4688C44.8313 38.4688 45.8054 38.2653 46.3783 37.9455V35.329H48.0973V38.7886C46.9513 39.5444 45.4329 39.9805 43.9432 39.9805C41.0494 39.9805 38.8438 38.1199 38.8438 35.329C38.8438 32.5962 41.0494 30.7065 43.9143 30.7065C45.5762 30.7065 46.8364 31.172 47.9251 32.0148L47.0656 33.2939C46.2635 32.6834 45.2608 32.2473 43.9432 32.2473C41.8232 32.1892 40.5054 33.5847 40.5054 35.329C40.5054 37.1896 41.8232 38.4688 43.9432 38.4688ZM50.1027 39.6898V30.9682H58.1243V32.4218H51.8216V34.4568H56.6919V35.9104H51.8216V38.2362H58.4108V39.6898H50.1027ZM61.2756 39.6898H59.8432V30.9682H61.4762L67.12 37.5966C67.034 35.9395 66.9767 34.6022 66.9767 33.2939V30.9682H68.6956V39.6898H66.9767L61.3616 33.1195L61.2756 33.1486C61.3329 34.4568 61.2756 36.7535 61.2756 37.4803V39.6898ZM71.0162 39.6898V30.9682H78.7513V32.4218H72.4486V34.4568H77.3189V35.9104H72.4486V38.2362H79.0378V39.6898H71.0162ZM84.9394 36.4919H82.4756V39.6898H80.7567V30.9682H86.3146C88.1481 30.9682 89.294 32.131 89.294 33.7882C89.294 35.3578 88.1767 36.2593 86.8016 36.4628L89.38 39.7186H87.3746L84.9394 36.4919ZM86.1427 35.0383C87.1454 35.0383 87.7183 34.515 87.7183 33.7591C87.7183 32.9163 87.2313 32.4218 86.3146 32.4218H82.4756V35.0383H86.1427ZM92.6746 37.6547L91.6719 39.6898H89.9243L94.1356 30.9682H95.8256L100.037 39.6898H98.3181L97.3154 37.6547H92.6746ZM93.3335 36.2011H96.6567L94.9951 32.6543L93.3335 36.2011ZM101.384 39.6898V30.9682H102.816V38.2362H108.546V39.6898H101.384ZM109.692 39.6898V30.9682H117.713V32.4218H111.411V34.4568H116.281V35.9104H111.411V38.2362H118V39.6898H109.692Z" fill="#231F20"/>
<path d="M12 19.0483H32.9135V29.805H12V19.0483Z" fill="#E90031"/>
<path d="M12 29.5146H32.9135V39.9806H12V29.5146Z" fill="#231F20"/>
<path d="M15.7241 28.9331H29.189V30.096H15.7241V28.9331Z" fill="white"/>
</svg>
