<svg width="60" height="60" viewBox="0 0 60 60" fill="none" xmlns="http://www.w3.org/2000/svg">
<rect width="60" height="60" fill="white"/>
<path d="M41.5345 31.7395H45.0169V28.2572H41.5345V31.7395ZM31.7395 15H28.2572V18.479H31.7395V15ZM28.2673 45H31.7496V41.5177H28.2673V45ZM15 31.7395H18.4823V28.2572H15V31.7395ZM37.3666 22.1538V19.1646H40.8489V22.6435H37.8563C37.8161 22.6435 37.7763 22.6515 37.7392 22.667C37.7021 22.6825 37.6684 22.7052 37.6402 22.7338C37.6119 22.7624 37.5896 22.7963 37.5745 22.8335C37.5594 22.8708 37.5519 22.9107 37.5523 22.9509V27.6796H34.4078C34.1647 27.6796 33.9315 27.7759 33.7594 27.9475C33.5872 28.119 33.49 28.3519 33.4891 28.5949V31.4017C33.4891 31.6445 33.5855 31.8773 33.7571 32.0489C33.9288 32.2206 34.1616 32.317 34.4044 32.317H37.5523V37.0457C37.5523 37.1264 37.5844 37.2037 37.6414 37.2607C37.6984 37.3177 37.7757 37.3497 37.8563 37.3497H40.8489V40.832H37.3666V37.8395C37.3657 37.7585 37.3329 37.6812 37.2754 37.6243C37.2178 37.5674 37.1402 37.5355 37.0592 37.5355H32.3306V34.3942C32.3306 34.1516 32.2341 33.9187 32.0624 33.7471C31.8908 33.5754 31.6579 33.479 31.4152 33.479H28.6084C28.4879 33.479 28.3686 33.5027 28.2574 33.5489C28.1461 33.5951 28.0451 33.6628 27.96 33.7483C27.875 33.8336 27.8076 33.9349 27.7618 34.0463C27.716 34.1578 27.6926 34.2772 27.6931 34.3976V37.5388H22.9644C22.9242 37.5388 22.8845 37.5468 22.8473 37.5623C22.8102 37.5778 22.7765 37.6005 22.7483 37.6291C22.72 37.6576 22.6977 37.6915 22.6826 37.7288C22.6675 37.7661 22.66 37.806 22.6604 37.8462V40.8354H19.1781V37.3531H22.1707C22.2513 37.3531 22.3286 37.3211 22.3856 37.264C22.4427 37.2071 22.4747 37.1297 22.4747 37.0491V32.3204H25.6192C25.8619 32.3204 26.0948 32.224 26.2664 32.0523C26.4381 31.8807 26.5345 31.6478 26.5345 31.4051V28.5983C26.5345 28.3555 26.4381 28.1227 26.2664 27.9511C26.0948 27.7794 25.8619 27.683 25.6192 27.683H22.4747V22.9543C22.4747 22.8733 22.4428 22.7957 22.3859 22.7381C22.3289 22.6806 22.2516 22.6478 22.1707 22.6469H19.1781V19.168H22.6604V22.1572C22.6604 22.2378 22.6924 22.3151 22.7494 22.3721C22.8064 22.4291 22.8838 22.4612 22.9644 22.4612H27.6931V25.6058C27.6931 25.7259 27.7168 25.8449 27.7628 25.956C27.8087 26.0671 27.8762 26.1679 27.9612 26.2529C28.0462 26.338 28.147 26.4054 28.2581 26.4514C28.3692 26.4974 28.4882 26.521 28.6084 26.521H31.4152C31.6579 26.521 31.8908 26.4246 32.0624 26.2529C32.2341 26.0813 32.3306 25.8484 32.3306 25.6058V22.4612H37.0592C37.0994 22.4616 37.1393 22.4541 37.1766 22.439C37.2139 22.4239 37.2478 22.4016 37.2764 22.3733C37.3049 22.3451 37.3277 22.3114 37.3431 22.2743C37.3586 22.2372 37.3666 22.1974 37.3666 22.1572" fill="#00D8D8"/>
</svg>
