<svg width="130" height="60" viewBox="0 0 130 60" fill="none" xmlns="http://www.w3.org/2000/svg">
<rect width="130" height="60" fill="white"/>
<path d="M40.5345 31.7395H44.0169V28.2572H40.5345V31.7395ZM30.7395 15H27.2572V18.479H30.7395V15ZM27.2673 45H30.7496V41.5177H27.2673V45ZM14 31.7395H17.4823V28.2572H14V31.7395ZM36.3666 22.1538V19.1646H39.8489V22.6435H36.8563C36.8161 22.6435 36.7763 22.6515 36.7392 22.667C36.7021 22.6825 36.6684 22.7052 36.6402 22.7338C36.6119 22.7624 36.5896 22.7963 36.5745 22.8335C36.5594 22.8708 36.5519 22.9107 36.5523 22.9509V27.6796H33.4078C33.1647 27.6796 32.9315 27.7759 32.7594 27.9475C32.5872 28.119 32.49 28.3519 32.4891 28.5949V31.4017C32.4891 31.6445 32.5855 31.8773 32.7571 32.0489C32.9288 32.2206 33.1616 32.317 33.4044 32.317H36.5523V37.0457C36.5523 37.1264 36.5844 37.2037 36.6414 37.2607C36.6984 37.3177 36.7757 37.3497 36.8563 37.3497H39.8489V40.832H36.3666V37.8395C36.3657 37.7585 36.3329 37.6812 36.2754 37.6243C36.2178 37.5674 36.1402 37.5355 36.0592 37.5355H31.3306V34.3942C31.3306 34.1516 31.2341 33.9187 31.0624 33.7471C30.8908 33.5754 30.6579 33.479 30.4152 33.479H27.6084C27.4879 33.479 27.3686 33.5027 27.2574 33.5489C27.1461 33.5951 27.0451 33.6628 26.96 33.7483C26.875 33.8336 26.8076 33.9349 26.7618 34.0463C26.716 34.1578 26.6926 34.2772 26.6931 34.3976V37.5388H21.9644C21.9242 37.5388 21.8845 37.5468 21.8473 37.5623C21.8102 37.5778 21.7765 37.6005 21.7483 37.6291C21.72 37.6576 21.6977 37.6915 21.6826 37.7288C21.6675 37.7661 21.66 37.806 21.6604 37.8462V40.8354H18.1781V37.3531H21.1707C21.2513 37.3531 21.3286 37.3211 21.3856 37.264C21.4427 37.2071 21.4747 37.1297 21.4747 37.0491V32.3204H24.6192C24.8619 32.3204 25.0948 32.224 25.2664 32.0523C25.4381 31.8807 25.5345 31.6478 25.5345 31.4051V28.5983C25.5345 28.3555 25.4381 28.1227 25.2664 27.9511C25.0948 27.7794 24.8619 27.683 24.6192 27.683H21.4747V22.9543C21.4747 22.8733 21.4428 22.7957 21.3859 22.7381C21.3289 22.6806 21.2516 22.6478 21.1707 22.6469H18.1781V19.168H21.6604V22.1572C21.6604 22.2378 21.6924 22.3151 21.7494 22.3721C21.8064 22.4291 21.8838 22.4612 21.9644 22.4612H26.6931V25.6058C26.6931 25.7259 26.7168 25.8449 26.7628 25.956C26.8087 26.0671 26.8762 26.1679 26.9612 26.2529C27.0462 26.338 27.147 26.4054 27.2581 26.4514C27.3692 26.4974 27.4882 26.521 27.6084 26.521H30.4152C30.6579 26.521 30.8908 26.4246 31.0624 26.2529C31.2341 26.0813 31.3306 25.8484 31.3306 25.6058V22.4612H36.0592C36.0994 22.4616 36.1393 22.4541 36.1766 22.439C36.2139 22.4239 36.2478 22.4016 36.2764 22.3733C36.3049 22.3451 36.3277 22.3114 36.3431 22.2743C36.3586 22.2372 36.3666 22.1974 36.3666 22.1572" fill="#00D8D8"/>
<path d="M52.7227 39.089H61.5484C66.5743 39.089 70.3302 35.181 70.3302 29.9863C70.3302 24.7915 66.5608 20.9106 61.5484 20.9106H52.7227V39.089ZM55.1545 36.8834V23.1162H61.4099C65.0949 23.1162 67.8882 26.0784 67.8882 29.9863C67.8882 33.8942 65.0949 36.8935 61.4099 36.8935L55.1545 36.8834ZM79.1694 39.3693C80.6052 39.3968 82.0167 38.9962 83.224 38.2185C84.4313 37.4408 85.3797 36.3213 85.9483 35.0025C86.5169 33.6838 86.68 32.2257 86.4169 30.8139C86.1537 29.4021 85.4761 28.1007 84.4705 27.0754C83.4649 26.0502 82.1768 25.3476 80.7703 25.0572C79.3639 24.7667 77.9029 24.9016 76.5734 25.4446C75.244 25.9876 74.1063 26.9142 73.3054 28.1062C72.5045 29.2983 72.0766 30.7017 72.0764 32.1378C72.058 33.0809 72.2278 34.0182 72.5761 34.8948C72.9243 35.7714 73.4438 36.5697 74.1043 37.2431C74.7648 37.9165 75.553 38.4514 76.4227 38.8164C77.2924 39.1815 78.2261 39.3695 79.1694 39.3693ZM79.1694 37.1637C76.4673 37.1637 74.309 34.9581 74.309 32.1378C74.309 29.3175 76.4605 27.1119 79.1694 27.1119C81.8782 27.1119 84.0264 29.3175 84.0264 32.1378C84.0264 34.9581 81.8782 37.1637 79.1694 37.1637ZM103.826 39.089H106.062V32.4519C106.062 32.3758 106.092 32.3028 106.146 32.249C106.2 32.1951 106.273 32.1648 106.349 32.1648H107.65C107.694 32.1645 107.737 32.1744 107.777 32.1936C107.817 32.213 107.852 32.2413 107.879 32.2763L113.098 39.089H115.556L109.885 31.8271L114.992 25.1833H112.591L107.862 31.4927C107.835 31.528 107.8 31.5567 107.761 31.5765C107.721 31.5964 107.677 31.6071 107.632 31.6076H106.332C106.294 31.6076 106.257 31.6002 106.222 31.5857C106.187 31.5713 106.156 31.5501 106.129 31.5234C106.102 31.4968 106.081 31.4652 106.067 31.4304C106.052 31.3955 106.045 31.3581 106.045 31.3205V20.9106H103.809L103.826 39.089ZM90.1702 32.1378C90.1702 29.3175 92.2642 27.1119 94.9192 27.1119C95.9482 27.1039 96.9509 27.4364 97.7714 28.0577C98.5919 28.679 99.1844 29.5542 99.4552 30.547H101.661C100.985 27.3078 98.3407 24.9063 94.9327 24.9063C91.0214 24.9063 87.9512 28.0881 87.9512 32.1378C87.9512 36.1876 91.0214 39.3693 94.9327 39.3693C98.3407 39.3693 100.992 36.9678 101.661 33.7287H99.4552C99.1844 34.7193 98.5949 35.5928 97.7774 36.2139C96.9592 36.8349 95.9594 37.1688 94.9327 37.1637C92.2777 37.1637 90.1837 34.9581 90.1837 32.1378" fill="#00D8D8"/>
</svg>
