<svg width="60" height="60" viewBox="0 0 60 60" fill="none" xmlns="http://www.w3.org/2000/svg">
<rect width="60" height="60" fill="white"/>
<path d="M32.25 43.3125L35.6875 46L39.125 43.3125V41.1875L35.6875 44.0625L32.25 41.1875V43.3125Z" fill="#661739"/>
<path d="M32.25 33.8125V35.9375L35.6875 38.625L39.125 35.9375V33.8125L35.6875 36.6875L32.25 33.8125Z" fill="#661739"/>
<path d="M21.125 41.1875V43.3125L24.5625 46L28 43.3125V41.1875L24.5625 44.0625L21.125 41.1875Z" fill="#661739"/>
<path d="M44.375 12H15.875C14.875 12 13.875 12.4375 13.125 13.125C12.375 13.875 12 14.875 12 15.875V43.9375C12 44.5625 12.125 45.125 12.375 45.625C12.625 46.1875 13 46.625 13.5 47V46L16.9375 43.3125V41.1875L13.5 44.0625V38.625L19.0625 34.25L24.625 38.625L28.0625 35.9375V33.875L24.625 36.75V31.3125L30.1875 26.9375L35.75 31.3125L39.1875 28.625V26.5L35.75 29.375V23.875L41.3125 19.5L46.875 23.875V29.3125L43.4375 26.4375V28.5625L46.875 31.3125V36.75L43.4375 33.875V35.9375L46.875 38.625V44.0625L43.4375 41.1875V43.3125L46.875 46V47C47.3125 46.625 47.6875 46.1875 48 45.625C48.3125 45.0625 48.375 44.5 48.375 43.9375V15.9375C48.375 14.875 47.9375 13.9375 47.25 13.1875C46.4375 12.4375 45.4375 12 44.375 12Z" fill="#661739"/>
</svg>
