<svg width="130" height="60" viewBox="0 0 130 60" fill="none" xmlns="http://www.w3.org/2000/svg">
<rect width="130" height="60" fill="white"/>
<path d="M60.5571 24.5625V16.0625H63.2446C64.0571 16 64.8071 16.1875 65.4946 16.625C65.7446 16.8125 65.9321 17.0625 66.0571 17.375C66.1821 17.6875 66.2446 18 66.2446 18.3125C66.2446 18.75 66.1196 19.125 65.8696 19.4375C65.6196 19.75 65.2446 20 64.8071 20.125C65.3071 20.25 65.7446 20.5 66.1196 20.875C66.4321 21.25 66.6196 21.6875 66.6196 22.1875C66.6196 22.5 66.5571 22.875 66.4321 23.1875C66.3071 23.5 66.0571 23.75 65.8071 24C65.1821 24.4375 64.4321 24.6875 63.6196 24.625L60.5571 24.5625ZM61.3071 19.875H63.4321C63.9946 19.875 64.4946 19.75 64.9321 19.4375C65.1196 19.3125 65.2446 19.125 65.3696 18.875C65.4321 18.6875 65.4946 18.4375 65.4946 18.1875C65.4946 17.9375 65.4946 17.75 65.3696 17.5C65.2446 17.375 65.1196 17.1875 64.9321 17.0625C64.4321 16.75 63.8696 16.625 63.3071 16.6875H61.3696L61.3071 19.875ZM61.3071 20.5V24H63.6196C64.1821 24 64.7446 23.875 65.1821 23.5C65.3696 23.3125 65.4946 23.125 65.6196 22.9375C65.7446 22.6875 65.7446 22.4375 65.7446 22.1875C65.7446 21.9375 65.6821 21.6875 65.6196 21.5C65.4946 21.3125 65.3696 21.0625 65.1821 20.9375C64.7446 20.625 64.1821 20.4375 63.6196 20.5H61.3071Z" fill="#565859"/>
<path d="M72.7446 22.1875H68.6196L67.6196 24.625H66.8071L70.3071 16.0625H71.0571L74.4946 24.625H73.6821L72.7446 22.1875ZM68.8071 21.5625H72.4946L70.6821 16.875L68.8071 21.5625Z" fill="#565859"/>
<path d="M81.9946 24.5625H81.2446L75.9946 17.25V24.5625H75.1821V16.0625H75.9946L81.2446 23.375V16.0625H81.9946V24.5625Z" fill="#565859"/>
<path d="M90.1821 21.9376C90.1821 22.3126 90.0571 22.7501 89.8696 23.0626C89.6821 23.4376 89.4321 23.7501 89.1196 24.0001C88.4321 24.5001 87.6196 24.7501 86.8071 24.6876C86.1821 24.6876 85.5571 24.5626 84.9946 24.1876C84.4946 23.8751 84.0571 23.4376 83.8071 22.8751C83.4946 22.2501 83.3696 21.5626 83.3696 20.8751V19.7501C83.3696 19.0626 83.4946 18.3751 83.8071 17.7501C84.0571 17.1876 84.4946 16.6876 85.0571 16.3751C85.6196 16.0626 86.2446 15.8751 86.9321 15.8751C87.7446 15.8126 88.6196 16.0626 89.2446 16.6251C89.8071 17.1251 90.1821 17.8751 90.2446 18.6876H89.4321C89.4321 18.0626 89.1196 17.5001 88.6821 17.1251C88.2446 16.6876 87.6821 16.5001 87.0571 16.5001C86.9946 16.5001 86.9321 16.5001 86.8696 16.5001C86.4946 16.5001 86.1196 16.5626 85.8071 16.6876C85.4946 16.8126 85.1821 17.0626 84.9321 17.3126C84.4321 18.0001 84.1196 18.8751 84.1821 19.6876V20.7501C84.1196 21.6251 84.3696 22.4376 84.8696 23.1251C85.1196 23.4376 85.4321 23.6251 85.7446 23.8126C86.0571 23.9376 86.4321 24.0626 86.8071 24.0001C87.4321 24.0626 88.1196 23.8751 88.6196 23.4376C89.0571 23.0001 89.3696 22.4376 89.3696 21.8126L90.1821 21.9376Z" fill="#565859"/>
<path d="M98.182 20.75C98.182 21.5 98.057 22.1875 97.7445 22.875C97.4945 23.4375 97.057 23.9375 96.4945 24.25C95.932 24.5625 95.2445 24.75 94.6195 24.75C94.1195 24.75 93.682 24.6875 93.182 24.5C92.7445 24.3125 92.307 24.0625 91.9945 23.6875C91.307 22.875 90.932 21.875 90.9945 20.8125V19.875C90.9945 19.1875 91.1195 18.4375 91.432 17.8125C91.682 17.25 92.1195 16.75 92.682 16.4375C93.2445 16.125 93.8695 15.9375 94.557 15.9375C95.182 15.9375 95.8695 16.0625 96.432 16.4375C96.9945 16.75 97.432 17.25 97.682 17.8125C97.9945 18.4375 98.1195 19.125 98.1195 19.8125L98.182 20.75ZM97.3695 19.875C97.4321 19 97.182 18.125 96.6195 17.4375C96.1195 16.875 95.3695 16.5625 94.682 16.5625C93.932 16.5625 93.182 16.8125 92.682 17.3125C92.6195 17.375 92.6195 17.375 92.557 17.4375C91.9945 18.125 91.7445 19 91.807 19.9375V20.8125C91.7445 21.6875 92.057 22.5625 92.557 23.1875C92.807 23.4375 93.1195 23.6875 93.432 23.8125C93.7445 23.9375 94.1195 24.0625 94.4945 24.0625C94.8695 24.0625 95.2445 24 95.557 23.875C95.8695 23.75 96.2445 23.5625 96.4945 23.3125C96.557 23.25 96.557 23.25 96.6195 23.1875C97.1195 22.5 97.432 21.625 97.3695 20.6875L97.3695 19.875Z" fill="#565859"/>
<path d="M63.8696 38.4376V45.0626H60.5571V27.125H67.9321C69.7446 27.0001 71.5571 27.5626 72.9946 28.6876C73.6196 29.1876 74.1196 29.8126 74.4321 30.5001C74.7446 31.1876 74.9321 32.0001 74.8696 32.8126C74.9321 33.6251 74.7446 34.3751 74.4321 35.1251C74.1196 35.8125 73.6196 36.5001 72.9946 36.9376C71.4946 38.0001 69.6196 38.5001 67.8071 38.3751L63.8696 38.4376ZM63.8696 35.9376H67.8696C68.8696 36.0001 69.8071 35.6876 70.5571 35.1251C70.8696 34.8751 71.1196 34.5001 71.3071 34.125C71.4946 33.7501 71.5571 33.3126 71.4946 32.8751C71.4946 32.4376 71.4321 32.0001 71.2446 31.6251C71.0571 31.2501 70.8071 30.8751 70.4946 30.5626C69.7446 29.9376 68.8071 29.6251 67.8696 29.6876H63.7446V35.9376H63.8696Z" fill="#565859"/>
<path d="M79.9946 45.0625H76.6821V27.125H79.9946V45.0625Z" fill="#565859"/>
<path d="M97.9321 45.0625H94.6196L85.9946 32.3125V45.0625H82.7446V27.125H86.0571L94.6196 39.875V27.125H97.9321L97.9321 45.0625Z" fill="#565859"/>
<path d="M111.745 37.0625H103.87V42.5625H113.057V45.0625H100.495V27.125H112.932V29.625H103.807V34.5625H111.682V37.0625H111.745Z" fill="#565859"/>
<path d="M37.7446 44.3125L41.1821 47L44.6196 44.3125V42.1875L41.1821 45.0625L37.7446 42.1875V44.3125Z" fill="#661739"/>
<path d="M37.7446 34.8125V36.9375L41.1821 39.625L44.6196 36.9375V34.8125L41.1821 37.6875L37.7446 34.8125Z" fill="#661739"/>
<path d="M26.6196 42.1875V44.3125L30.0571 47L33.4946 44.3125V42.1875L30.0571 45.0625L26.6196 42.1875Z" fill="#661739"/>
<path d="M49.8696 13H21.3696C20.3696 13 19.3696 13.4375 18.6196 14.125C17.8696 14.875 17.4946 15.875 17.4946 16.875V44.9375C17.4946 45.5625 17.6196 46.125 17.8696 46.625C18.1196 47.1875 18.4946 47.625 18.9946 48V47L22.4321 44.3125V42.1875L18.9946 45.0625V39.625L24.5571 35.25L30.1196 39.625L33.5571 36.9375V34.875L30.1196 37.75V32.3125L35.6821 27.9375L41.2446 32.3125L44.6821 29.625V27.5L41.2446 30.375V24.875L46.8071 20.5L52.3696 24.875V30.3125L48.9321 27.4375V29.5625L52.3696 32.3125V37.75L48.9321 34.875V36.9375L52.3696 39.625V45.0625L48.9321 42.1875V44.3125L52.3696 47V48C52.8071 47.625 53.1821 47.1875 53.4946 46.625C53.8071 46.0625 53.8696 45.5 53.8696 44.9375V16.9375C53.8696 15.875 53.4321 14.9375 52.7446 14.1875C51.9321 13.4375 50.9321 13 49.8696 13Z" fill="#661739"/>
</svg>
