<svg width="60" height="60" viewBox="0 0 60 60" fill="none" xmlns="http://www.w3.org/2000/svg">
<rect width="60" height="60" fill="white"/>
<path d="M7.94767 39.0349C7.81167 39.0128 7.64649 38.8764 7.58062 38.7319C7.38802 38.3091 7.75212 37.9108 8.44563 37.7855C8.74999 37.7306 8.99902 37.6446 8.99902 37.5946C8.99902 37.4276 8.64935 37.3667 8.34685 37.4808C8.10188 37.5733 8.03596 37.5625 7.98159 37.4208C7.88486 37.1687 8.21684 36.9742 8.74383 36.9742C9.49754 36.9742 9.6369 37.2734 9.46554 38.5237L9.39601 39.031L9.0099 38.9833C8.79754 38.9571 8.5273 38.967 8.40937 39.0054C8.29144 39.0438 8.08367 39.0571 7.94767 39.0349ZM8.87287 38.3291C8.89566 38.2137 8.8344 38.1535 8.69402 38.1535C8.37275 38.1535 8.14134 38.2668 8.14134 38.4241C8.14134 38.7414 8.80855 38.6547 8.87287 38.3291ZM14.8199 38.9918C14.2003 38.8269 13.9829 38.2422 14.3077 37.614C14.6431 36.9654 15.653 36.7571 16.1333 37.2374C16.8851 37.9891 15.9161 39.2835 14.8199 38.9918ZM15.6406 38.3208C15.8563 38.061 15.7377 37.5693 15.4496 37.5285C15.013 37.4666 14.5741 38.118 14.8598 38.4037C14.9895 38.5333 15.5101 38.4781 15.6406 38.3208ZM24.4266 38.9731C24.1319 38.8269 24.0531 38.326 24.1964 37.5103C24.2709 37.0865 24.3176 37.0236 24.5809 36.9932L24.8806 36.9586L24.8059 37.7169L24.7311 38.4752H25.0089C25.2397 38.4752 25.3043 38.4073 25.3915 38.0731C25.4491 37.852 25.5113 37.5264 25.5296 37.3495C25.5566 37.0884 25.6184 37.0215 25.8577 36.9939C26.2049 36.954 26.2113 36.9992 26.0308 38.2128L25.9091 39.0313L25.5216 38.9834C25.3085 38.9571 25.0328 38.9728 24.9091 39.0182C24.7788 39.066 24.5757 39.047 24.4266 38.9731ZM26.6082 38.9895C26.2137 38.8858 26.1916 38.8354 26.4267 38.5756C26.5653 38.4225 26.6469 38.4113 26.9076 38.5097C27.1425 38.5984 27.2536 38.5963 27.3483 38.5016C27.4457 38.4043 27.4274 38.3604 27.2694 38.312C26.4552 38.0625 26.2405 37.6025 26.7508 37.2011C27.0531 36.9633 27.6891 36.8983 27.9709 37.0765C28.1049 37.1613 28.0987 37.2073 27.9278 37.3962C27.7763 37.5635 27.6936 37.5881 27.585 37.4979C27.4295 37.3689 27.1175 37.4407 27.1175 37.6056C27.1175 37.6617 27.2572 37.7384 27.428 37.7759C27.8903 37.8774 28.1124 38.1676 27.9848 38.5034C27.9278 38.6533 27.8242 38.8111 27.7547 38.8541C27.497 39.0134 26.9463 39.0784 26.6082 38.9895ZM28.9936 39.0337C28.5607 38.9418 28.4905 38.7936 28.5671 38.1336C28.6286 37.6038 28.6137 37.5103 28.4681 37.5103C28.3568 37.5103 28.2968 37.4164 28.2968 37.2423C28.2968 37.0508 28.3547 36.9742 28.4996 36.9742C28.6265 36.9742 28.7275 36.8739 28.7696 36.7062C28.8216 36.499 28.906 36.4382 29.1416 36.4382C29.4088 36.4382 29.44 36.4712 29.3951 36.7062C29.351 36.9369 29.383 36.9742 29.6244 36.9742C29.7787 36.9742 29.9049 37.0185 29.9049 37.0727C29.9049 37.3311 29.7522 37.5103 29.5319 37.5103C29.3299 37.5103 29.277 37.5853 29.2176 37.957C29.1434 38.4209 29.2732 38.635 29.5639 38.5282C29.6585 38.4934 29.694 38.5519 29.6711 38.7053C29.6335 38.9566 29.3281 39.1047 28.9936 39.0337ZM33.0347 39.0349C32.8987 39.0128 32.7335 38.8764 32.6677 38.7319C32.4751 38.3091 32.8392 37.9108 33.5327 37.7855C33.8371 37.7306 34.0861 37.6446 34.0861 37.5946C34.0861 37.4276 33.7364 37.3667 33.4339 37.4808C33.1889 37.5733 33.123 37.5625 33.0687 37.4208C32.9719 37.1687 33.3039 36.9742 33.8309 36.9742C34.5846 36.9742 34.724 37.2734 34.5526 38.5237L34.4831 39.031L34.097 38.9833C33.8846 38.9571 33.6144 38.967 33.4964 39.0054C33.3785 39.0438 33.1707 39.0571 33.0347 39.0349ZM33.9599 38.3291C33.9827 38.2137 33.9215 38.1535 33.7811 38.1535C33.4598 38.1535 33.2284 38.2668 33.2284 38.4241C33.2284 38.7414 33.8956 38.6547 33.9599 38.3291ZM37.4373 39.0341C36.9122 38.9521 36.6858 38.0448 37.0562 37.5073C37.3715 37.05 37.5428 36.9655 38.0694 37.0079L38.5684 37.048L38.6399 36.4751C38.7081 35.9294 38.7264 35.9021 39.0254 35.9021C39.1981 35.9021 39.3382 35.9383 39.3369 35.9825C39.3355 36.0268 39.2402 36.6901 39.1249 37.4567C39.0097 38.2232 38.9143 38.8866 38.913 38.9308C38.909 39.0619 38.3745 39.0222 38.3745 38.8909C38.3745 38.8102 38.3303 38.8051 38.2405 38.8754C38.062 39.015 37.7323 39.0802 37.4373 39.0341ZM38.3978 38.1988C38.5511 37.8624 38.4101 37.5804 38.0628 37.5289C37.7411 37.4811 37.5168 37.6917 37.5168 38.0416C37.5168 38.4085 37.5858 38.4752 37.9658 38.4752C38.1907 38.4752 38.3052 38.4019 38.3978 38.1988ZM47.0407 38.9696C46.8723 38.8861 46.7796 38.7345 46.7573 38.5061C46.7173 38.0956 47.0337 37.8436 47.7017 37.754C47.9541 37.7201 48.1221 37.645 48.0994 37.576C48.0448 37.41 47.6121 37.3622 47.442 37.5034C47.3379 37.5897 47.2653 37.5767 47.163 37.4535C46.9603 37.2093 47.1641 37.06 47.7758 37.0042C48.5074 36.9375 48.726 37.1244 48.7006 37.7948C48.664 38.76 48.5784 39.0112 48.2865 39.0112C48.1418 39.0112 48.0233 38.9571 48.0233 38.8909C48.0233 38.8102 47.9792 38.8051 47.8893 38.8754C47.6556 39.0582 47.2993 39.0978 47.0407 38.9696ZM47.9965 38.4454C48.2195 38.2729 48.1481 38.1535 47.822 38.1535C47.4546 38.1535 47.2175 38.3769 47.3957 38.5551C47.5158 38.6752 47.7563 38.6313 47.9965 38.4454ZM49.2294 38.9895C48.8284 38.8841 48.8002 38.796 49.0848 38.5384C49.2182 38.4177 49.3129 38.3934 49.3591 38.4682C49.4571 38.6267 49.9819 38.6152 49.9288 38.4558C49.9056 38.3861 49.7206 38.2736 49.5178 38.2057C49.2166 38.1048 49.143 38.0211 49.1159 37.7489C49.0678 37.2652 49.3974 36.9742 49.9936 36.9742C50.5546 36.9742 50.8437 37.2133 50.5032 37.3956C50.3853 37.4587 50.1825 37.4982 50.0524 37.4835C49.7016 37.4437 49.6814 37.6871 50.0282 37.7741C50.4341 37.876 50.5964 38.0282 50.5964 38.307C50.5964 38.8456 49.936 39.1753 49.2294 38.9895ZM5.07082 38.4064C5.10977 38.061 5.19494 37.4044 5.2601 36.9474L5.37856 36.1166H6.16153C7.04847 36.1166 7.24664 36.1687 7.39196 36.4402C7.52112 36.6816 7.33556 37.253 7.09848 37.344C6.95187 37.4002 6.96034 37.4392 7.15958 37.6248C7.46267 37.9072 7.45265 38.2842 7.13214 38.6568C6.89157 38.9365 6.80762 38.9603 5.9367 38.9961L5 39.0345L5.07082 38.4064ZM6.63927 38.3157C6.8687 38.0393 6.68682 37.8319 6.21493 37.8319C5.9133 37.8319 5.78273 37.8779 5.78273 37.984C5.78273 38.0676 5.75345 38.2123 5.71766 38.3056C5.66503 38.4427 5.73427 38.4752 6.07976 38.4752C6.32706 38.4752 6.56267 38.408 6.63927 38.3157ZM6.58373 37.1506C6.89641 36.9219 6.71955 36.6314 6.29271 36.6726C6.00159 36.7006 5.93791 36.7552 5.90962 37.001C5.88104 37.2494 5.9158 37.2959 6.13035 37.2959C6.27041 37.2959 6.47443 37.2305 6.58373 37.1506ZM9.7895 38.8236C9.81945 38.7204 9.8749 38.3465 9.91271 37.9927C10.0118 37.066 10.0508 36.9742 10.3464 36.9742C10.4898 36.9742 10.6072 37.0242 10.6072 37.0852C10.6072 37.1617 10.6716 37.1617 10.8145 37.0852C11.1226 36.9203 11.5331 36.9506 11.7357 37.1532C11.8836 37.3011 11.9018 37.4535 11.8401 38.0296C11.7432 38.9339 11.7078 39.0112 11.3902 39.0112C11.1296 39.0112 11.1249 38.9963 11.1605 38.2876C11.1947 37.6061 11.1828 37.5619 10.9558 37.5297C10.6798 37.4905 10.5724 37.6987 10.4544 38.502C10.3842 38.98 10.3598 39.0112 10.0573 39.0112C9.80111 39.0112 9.7462 38.9728 9.7895 38.8236ZM12.4484 38.7631C12.0778 38.3686 12.1314 37.7872 12.5798 37.3388C12.8839 37.0347 13.0225 36.9742 13.4161 36.9742C13.9979 36.9742 14.2162 37.1468 13.9736 37.4148C13.8543 37.5467 13.7046 37.5847 13.4609 37.5452C13.0421 37.4772 12.8281 37.6882 12.8776 38.1203C12.9072 38.3782 12.9611 38.4225 13.252 38.4281C13.4389 38.4317 13.6687 38.4984 13.7626 38.5764C14.0393 38.806 13.7671 39.0112 13.1858 39.0112C12.7973 39.0112 12.628 38.9542 12.4484 38.7631ZM17.8974 38.9609C17.8974 38.8505 18.2288 36.5834 18.2778 36.3578C18.3181 36.1729 18.4055 36.1166 18.652 36.1166C18.9299 36.1166 18.9663 36.1493 18.92 36.3578C18.8906 36.4905 18.8159 37.0091 18.754 37.5103C18.57 39.0019 18.5666 39.0112 18.2105 39.0112C18.0383 39.0112 17.8974 38.9886 17.8974 38.9609ZM19.0766 38.8772C19.0765 38.8035 19.1321 38.3452 19.2 37.8587C19.3219 36.9868 19.328 36.9742 19.629 36.9742C19.797 36.9742 19.9344 37.0321 19.9344 37.1029C19.9344 37.203 19.963 37.203 20.0631 37.1029C20.1338 37.0321 20.3413 36.9742 20.5241 36.9742C21.1054 36.9742 21.213 37.2919 21.0455 38.5138C20.9828 38.9712 20.9531 39.0112 20.6765 39.0112H20.3757L20.4386 38.2608C20.4975 37.5582 20.4877 37.5103 20.2847 37.5103C19.9655 37.5103 19.8421 37.7208 19.7621 38.4018C19.6936 38.9843 19.6769 39.0112 19.3836 39.0112C19.2096 39.0112 19.0767 38.9532 19.0766 38.8772ZM21.7112 38.8429C21.309 38.4408 21.3736 37.77 21.8614 37.2821C22.1885 36.9551 22.7789 36.8598 23.0151 37.0959C23.1059 37.1867 23.1557 37.0506 23.2112 36.5599C23.2831 35.9244 23.296 35.9021 23.5934 35.9021C23.9591 35.9021 23.9563 35.8575 23.7045 37.6711C23.5277 38.9445 23.5229 38.958 23.2311 38.9915C23.0468 39.0127 22.9363 38.9746 22.9363 38.8897C22.9363 38.7841 22.9077 38.7825 22.8076 38.8826C22.6231 39.0671 21.9096 39.0413 21.7112 38.8429ZM22.9309 38.3208C23.1465 38.061 23.0279 37.5693 22.7398 37.5285C22.3033 37.4666 21.8644 38.118 22.1501 38.4037C22.2797 38.5333 22.8004 38.4781 22.9309 38.3208ZM29.9459 38.7164C29.9779 38.5542 30.034 38.1803 30.0707 37.8855C30.1073 37.5907 30.1607 37.265 30.1892 37.1619C30.249 36.945 30.7187 36.9034 30.7938 37.1082C30.8332 37.2155 30.8714 37.2155 30.985 37.1082C31.1493 36.9533 31.6203 36.9269 31.6203 37.0727C31.6203 37.3346 31.466 37.5103 31.236 37.5103C30.9128 37.5103 30.6992 37.8471 30.6068 38.502C30.5393 38.9812 30.5159 39.0112 30.2114 39.0112C29.9158 39.0112 29.8929 38.9857 29.9459 38.7164ZM31.6593 38.5556C31.6942 38.305 31.7541 37.8467 31.7925 37.5371C31.8593 36.9987 31.8763 36.9742 32.1838 36.9742C32.4952 36.9742 32.5033 36.9869 32.4416 37.3763C32.4065 37.5974 32.3455 38.0557 32.3059 38.3948C32.2363 38.991 32.2235 39.0112 31.915 39.0112C31.6011 39.0112 31.597 39.0038 31.6593 38.5556ZM34.8751 38.8236C34.9043 38.7204 35.0114 38.0209 35.1132 37.2691L35.2982 35.9021H35.6034C35.7713 35.9021 35.9086 35.9246 35.9086 35.9521C35.9086 36.0702 35.5761 38.4485 35.5222 38.7164C35.4733 38.959 35.406 39.0112 35.1424 39.0112C34.8886 39.0112 34.8331 38.9723 34.8751 38.8236ZM39.5725 38.7631C39.2018 38.3686 39.2555 37.7872 39.7039 37.3388C40.0128 37.0299 40.1436 36.9742 40.5615 36.9742C41.6121 36.9742 41.9383 38.1248 41.0793 38.8004C40.6855 39.1102 39.8798 39.0902 39.5725 38.7631ZM40.8636 38.1988C41.0169 37.8624 40.8759 37.5804 40.5286 37.5289C40.2069 37.4811 39.9826 37.6917 39.9826 38.0416C39.9826 38.4085 40.0516 38.4752 40.4316 38.4752C40.6565 38.4752 40.7711 38.4019 40.8636 38.1988ZM42.6708 38.8236C42.6752 38.7204 42.7603 38.0812 42.8598 37.4031L43.0407 36.1702L43.8834 36.1386C44.5569 36.1134 44.7665 36.1436 44.9274 36.2892C45.2006 36.5365 45.1806 36.9321 44.8795 37.2331C44.6429 37.4697 44.6402 37.4884 44.8259 37.6044C45.0413 37.7389 45.0893 38.2553 44.9165 38.5782C44.7651 38.861 44.2383 39.0112 43.3973 39.0112C42.7663 39.0112 42.664 38.9848 42.6708 38.8236ZM44.2547 38.3803C44.3343 38.3299 44.3821 38.198 44.361 38.0871C44.332 37.9343 44.2128 37.8775 43.868 37.8526C43.4252 37.8204 43.4133 37.8281 43.4133 38.1474C43.4133 38.4461 43.4443 38.475 43.7617 38.4735C43.9534 38.4727 44.1752 38.4307 44.2547 38.3803ZM44.3979 37.053C44.5422 36.8256 44.4292 36.7074 44.0351 36.6738C43.7021 36.6453 43.6485 36.675 43.6031 36.9125C43.5746 37.0616 43.5802 37.2126 43.6155 37.2479C43.7154 37.3478 44.304 37.2011 44.3979 37.053ZM45.2357 38.8772C45.2357 38.8035 45.2912 38.3452 45.3592 37.8587C45.481 36.9868 45.4871 36.9742 45.7882 36.9742C45.9561 36.9742 46.0936 37.0242 46.0936 37.0852C46.0936 37.1617 46.158 37.1617 46.3009 37.0852C46.654 36.8963 46.844 36.9512 46.844 37.2423C46.844 37.4679 46.7937 37.5103 46.5262 37.5103C46.1425 37.5103 46.0005 37.7341 45.9124 38.4782C45.8532 38.9785 45.8304 39.0112 45.5426 39.0112C45.3688 39.0112 45.2358 38.9532 45.2357 38.8772ZM50.8518 38.7164C50.8837 38.5542 50.9399 38.1803 50.9766 37.8855C51.0799 37.0548 51.1193 36.9742 51.4225 36.9742C51.6976 36.9742 51.698 36.9753 51.6264 37.6742C51.4977 38.9302 51.4664 39.0112 51.1105 39.0112C50.8223 39.0112 50.799 38.9846 50.8518 38.7164ZM51.8874 38.8307C51.8899 38.7236 51.9763 38.0329 52.0795 37.2959C52.2647 35.9725 52.2706 35.9553 52.5574 35.9218C52.9099 35.8806 52.9129 35.9382 52.6511 37.7247C52.4733 38.9376 52.4656 38.9582 52.1766 38.9915C51.9506 39.0176 51.8839 38.9806 51.8874 38.8307ZM32.0759 36.6888C31.8922 36.6147 31.9072 36.2788 32.1013 36.1177C32.4436 35.8336 32.775 36.3127 32.4565 36.6312C32.3194 36.7683 32.2855 36.7734 32.0759 36.6888ZM51.2322 36.59C51.0417 36.3605 51.2333 36.063 51.5715 36.063C51.8822 36.063 51.9618 36.3439 51.7198 36.586C51.5023 36.8034 51.4099 36.8042 51.2322 36.59ZM31.8649 33.3944C35.3129 31.2297 38.2782 27.7868 40.5018 23.3667C40.9638 22.4483 41.3953 21.5401 41.4607 21.3484L41.5796 21H48.0178C51.5587 21 54.4559 21.0198 54.4559 21.0439C54.4559 21.1651 53.2702 33.0254 53.2143 33.4631L53.1493 33.9724H42.0468H30.9443L31.8649 33.3944ZM9.10328 32.5079C9.10165 32.4584 9.59593 30.1142 10.2017 27.2986L11.303 22.1793H14.2025C16.4653 22.1793 17.2409 22.2155 17.7347 22.3441C18.9773 22.6678 19.5045 23.2122 19.5052 24.1724C19.5059 25.2363 18.5612 26.589 17.5946 26.908L17.2158 27.033L17.5834 27.2226C18.4384 27.6634 18.8198 28.5236 18.628 29.5788C18.3887 30.8957 17.5372 31.7989 16.084 32.2773C15.4405 32.4892 15.1005 32.5137 12.2421 32.5539C10.5174 32.5781 9.1049 32.5574 9.10328 32.5079ZM14.8274 30.501C15.5465 30.2006 15.946 29.2973 15.5961 28.7633C15.3181 28.339 14.7882 28.1697 13.8509 28.2055L13.0348 28.2367L12.7902 29.3624C12.6556 29.9815 12.5436 30.5242 12.5412 30.5685C12.5335 30.7132 14.4553 30.6565 14.8274 30.501ZM15.6845 26.157C16.4088 25.6795 16.6272 24.7589 16.1333 24.265C15.8935 24.0251 15.786 24.0019 14.9181 24.0019H13.9661L13.7334 25.0472C13.6053 25.6221 13.5009 26.1528 13.5012 26.2265C13.5016 26.3235 13.7609 26.3603 14.4399 26.3598C15.1781 26.3592 15.4433 26.316 15.6845 26.157ZM18.6537 32.4446C18.6568 32.3709 19.1537 30.0431 19.7578 27.2718L20.8561 22.2329L22.3278 22.2031L23.7996 22.1732L23.743 22.4175C23.6695 22.7348 21.6941 31.7735 21.5985 32.2302L21.5255 32.5786H20.0867C19.004 32.5786 18.6493 32.5455 18.6537 32.4446ZM22.6146 32.5338C22.6146 32.4502 24.7637 22.5558 24.8242 22.361C24.8806 22.1791 25.0714 22.1698 28.011 22.2063C31.2673 22.2468 31.5981 22.2885 32.2663 22.7433C32.857 23.1453 33.0616 23.509 33.0525 24.1404C33.0366 25.2364 32.1004 26.5789 31.1281 26.8997L30.7612 27.0208L31.216 27.2614C31.5511 27.4385 31.7489 27.6513 31.9672 28.0691C32.3169 28.7386 32.3349 29.114 32.0593 29.9994C31.7829 30.8876 31.24 31.5238 30.4113 31.9307C29.2904 32.4812 28.5692 32.5747 25.4289 32.5768C23.8811 32.5779 22.6146 32.5585 22.6146 32.5338ZM28.4018 30.4611C29.2038 30.0582 29.517 29.0527 28.9921 28.5663C28.6703 28.268 28.3011 28.183 27.3273 28.183H26.599L26.3675 29.2283C26.2402 29.8033 26.1124 30.3581 26.0835 30.4613C26.0361 30.6303 26.1299 30.6489 27.0298 30.6487C27.7668 30.6486 28.1266 30.5994 28.4018 30.4611ZM29.1513 26.2013C29.9165 25.8056 30.1874 24.6685 29.6224 24.2241C29.3861 24.0382 29.1884 24.0019 28.4125 24.0019H27.485L27.2858 24.9873C27.1763 25.5292 27.0638 26.0599 27.0359 26.1666C26.9899 26.3426 27.0708 26.3605 27.9143 26.3605C28.5263 26.3605 28.9485 26.3061 29.1513 26.2013Z" fill="#001F5F"/>
</svg>
