<svg width="60" height="60" viewBox="0 0 60 60" fill="none" xmlns="http://www.w3.org/2000/svg">
<rect width="60" height="60" fill="white"/>
<path d="M34.9998 20.6616C33.015 20.6616 31.1538 21.2429 29.6153 22.212L24.3052 25.5548L24.3052 14L15 21.6546L15 36.1892C15 40.5011 17.8784 44.159 21.8735 45.4428L23.6353 46C19.9875 44.2074 17.5062 40.6222 17.5062 36.4798C17.5062 30.5694 22.5433 25.7728 28.7965 25.7728C34.6276 25.7728 39.4167 29.9635 40.0125 35.3172L33.5856 35.3172C33.015 33.2097 31.0546 31.6593 28.7469 31.6593C25.9678 31.6593 23.7346 33.8395 23.7346 36.5525C23.7346 39.2416 25.9678 41.4218 28.7469 41.4218C31.3027 41.4218 33.4119 39.5565 33.7096 37.1583L40.0621 37.1583C39.9132 39.3143 39.0941 41.3007 37.804 42.9235C37.804 42.9235 41.7492 38.4178 43.1141 36.3587C44.3298 34.5176 45 32.6039 45 30.448C45 25.0461 40.5087 20.6616 34.9998 20.6616Z" fill="#003974"/>
</svg>
