<svg width="130" height="60" viewBox="0 0 130 60" fill="none" xmlns="http://www.w3.org/2000/svg">
<rect width="130" height="60" fill="white"/>
<path d="M110.57 25.483L111.128 25.483C111.765 25.483 112.377 25.5377 112.377 26.178C112.377 26.764 111.738 26.9139 111.113 26.9139L110.57 26.9139L110.57 25.483ZM110.57 28.1675L111.155 28.1675C111.82 28.1675 112.568 28.2356 112.568 28.9849C112.568 29.6936 111.834 29.7889 111.14 29.7889L110.57 29.7889L110.57 28.1675ZM108.667 31.097L111.684 31.097C112.961 31.097 114.47 30.7564 114.47 29.0941C114.47 28.2492 113.981 27.7586 113.03 27.5679C113.818 27.2817 114.28 26.8049 114.28 25.9328C114.28 24.7337 113.287 24.1749 111.955 24.1749L108.667 24.1749L108.667 31.097ZM110.57 33.0592L111.128 33.0592C111.765 33.0592 112.377 33.1274 112.377 33.7541C112.377 34.3401 111.738 34.4899 111.113 34.4899L110.57 34.4899L110.57 33.0592ZM110.57 35.7435L111.155 35.7435C111.82 35.7435 112.568 35.8116 112.568 36.5748C112.568 37.2697 111.834 37.3787 111.14 37.3787L110.57 37.3787L110.57 35.7435ZM108.667 38.6868L111.684 38.6868C112.961 38.6868 114.47 38.3325 114.47 36.6838C114.47 35.8389 113.981 35.3348 113.03 35.1441C113.818 34.8714 114.28 34.3809 114.28 33.5088C114.28 32.3234 113.287 31.7511 111.955 31.7511L108.667 31.7511L108.667 38.6868ZM115.107 38.6868L116.819 38.6868L116.779 33.359L118.41 38.6868L120.013 38.6868L121.698 33.359L121.685 38.6868L123.397 38.6868L123.397 31.7511L120.747 31.7511L119.279 36.3568L117.866 31.7511L115.107 31.7511L115.107 38.6868Z" fill="#AE0E16"/>
<path d="M17.952 24.7471C16.8651 24.7471 15.846 25.0741 15.0034 25.6193L12.0956 27.4996L12.0956 21L7 25.3057L7 33.4814C7 35.9068 8.57623 37.9644 10.764 38.6866L11.7288 39C9.73121 37.9917 8.37242 35.975 8.37242 33.6449C8.37242 30.3203 11.1308 27.6222 14.5551 27.6222C17.7482 27.6222 20.3708 29.9795 20.697 32.9909L17.1776 32.9909C16.8651 31.8055 15.7916 30.9334 14.5279 30.9334C13.0061 30.9334 11.7831 32.1597 11.7831 33.6858C11.7831 35.1984 13.0061 36.4247 14.5279 36.4247C15.9275 36.4247 17.0825 35.3755 17.2455 34.0265L20.7242 34.0266C20.6427 35.2393 20.1941 36.3566 19.4876 37.2695C19.4876 37.2695 21.648 34.735 22.3955 33.5768C23.0612 32.5412 23.4282 31.4647 23.4282 30.252C23.4282 27.2135 20.9687 24.7471 17.952 24.7471Z" fill="#003974"/>
<path d="M44.5851 32.8139C41.3914 32.2007 39.0002 30.4975 38.9858 30.4702C38.9731 30.443 38.7013 30.3204 38.7412 30.1431C38.8644 29.6253 39.6125 28.5489 39.6941 28.4126C39.7756 28.2628 39.7067 27.9903 39.5437 27.963C38.3753 27.7312 38.3336 27.6904 38.3336 27.6904C38.0075 27.6631 37.9949 27.8266 37.9949 27.8266L38.0075 28.6579C37.8046 29.3801 37.6688 29.3256 37.6688 29.3256C37.6688 29.3256 36.7177 28.6306 36.6634 28.5761C36.5946 28.508 35.8609 28.4535 35.8609 28.4535C35.8609 28.4535 35.9424 28.3173 36.0113 28.2628C37.0837 27.3362 37.3699 26.5049 37.3826 26.4777C37.3826 26.4504 37.3699 25.9736 37.3699 25.9736L36.9895 25.4967L37.9532 25.2377C37.9532 25.2377 38.5111 25.0742 38.6198 25.1968C38.7955 25.4012 38.8644 26.355 38.8644 26.355C39.1905 27.0637 40.2375 27.3498 40.3045 27.3634C40.3734 27.377 42.1523 27.8949 42.1523 27.8949C42.6015 27.5541 42.5327 27.0773 42.5327 27.0773C42.6414 26.8184 41.6632 26.4095 41.2972 26.3142C39.9513 26.0008 39.7212 25.7692 39.368 25.4967C38.9858 25.2241 39.272 24.9516 39.272 24.9516C39.272 24.9516 39.9785 24.7472 40.1832 24.7064C40.4676 24.6519 42.0979 24.5701 42.0979 24.5701C42.5472 24.611 42.5472 24.4339 42.5472 24.4339L42.4113 23.3438C42.4657 23.2075 42.3425 22.9349 42.2338 22.9621C40.2375 23.5481 38.9858 23.6571 38.9858 23.6571C38.81 23.6844 38.7955 22.7986 38.8644 22.4035C38.9314 21.9403 38.4966 21.654 38.2122 21.6404C37.926 21.6268 37.4786 21.3407 37.4786 21.3407C36.3645 22.8668 37.8445 23.2212 37.9405 23.262C38.3336 23.4119 38.2666 23.4664 38.388 23.6163C38.5383 23.807 38.0891 23.9569 37.8046 24.0386C35.1689 24.7472 34.2305 24.7745 33.9461 24.7609C33.3483 24.7336 33.5512 25.3058 33.5512 25.3058C33.5512 25.3058 33.7559 25.5512 33.8646 25.8237C34.0675 26.2869 35.0602 25.9463 35.2631 25.8918C36.3645 25.5921 36.35 25.6875 36.35 25.6875C36.5402 25.8918 36.2141 26.464 36.2141 26.464C35.495 27.4179 34.4896 27.963 34.2849 28.0448C34.082 28.1265 34.0005 28.0584 34.0005 28.0584C33.8918 28.3309 34.2034 28.7396 34.3266 28.7532C34.4081 28.7669 35.3319 28.726 35.3319 28.726L35.4533 28.6851C35.562 28.6851 35.5348 28.835 35.5348 28.835C35.5892 29.5164 35.9968 29.6935 36.2286 29.748C37.0166 29.9387 37.2195 30.334 37.2195 30.334C35.495 32.6913 32.314 32.4595 32.314 32.4595C32.41 32.5549 32.6817 32.7185 33.2125 32.8139C34.9642 33.1681 36.5819 32.2279 36.7033 32.1189C36.8391 32.0099 37.7902 31.2877 37.926 31.1378C38.1579 30.8926 38.2938 31.0288 38.2938 31.0288C38.2938 31.0288 39.8426 32.3369 40.3045 32.7322C43.0218 35.0212 44.6793 32.9638 44.6793 32.9638L44.5851 32.8139Z" fill="#003974"/>
<path d="M53.8802 24.9926C54.1791 24.4749 53.7298 23.8752 53.4581 23.7117C52.4944 23.0985 52.3712 22.7851 52.3712 22.7851C51.8133 23.0576 51.8133 23.6845 51.9636 24.0387C52.4672 25.2651 53.7842 25.1561 53.8802 24.9926Z" fill="#003974"/>
<path d="M59.1243 26.7639C59.1116 26.8457 59.0971 30.77 59.0971 30.77C59.0572 30.8789 58.2674 30.9198 58.2674 30.9198C58.2004 31.2468 59.0699 32.2688 59.0699 32.2688C59.0699 32.2688 59.0699 32.3369 58.771 32.3505C57.4522 32.3778 57.1805 32.1734 57.1805 32.1734C57.2765 32.1734 57.6968 31.6693 57.6968 31.6693L57.6968 30.4566C58.4033 30.1976 58.6352 29.8433 58.6352 29.8433C58.7583 29.1758 58.5265 29.1349 58.5265 29.1349L57.9413 29.2439C57.6696 29.2575 57.7113 29.1076 57.7113 29.1076L57.6968 28.6034C57.6968 28.5489 58.6895 28.1129 58.6895 28.1129C58.6895 28.1129 58.7855 27.8539 58.7294 27.4588C58.6623 27.0773 57.7113 27.4179 57.7113 27.4179L57.6569 26.7503C57.6569 26.7503 58.1316 26.682 58.2674 26.6003C58.4178 26.5185 59.0029 26.4368 59.0029 26.4368C59.1388 26.4504 59.1388 26.682 59.1243 26.7639ZM56.7331 32.1053C55.8364 32.0372 55.6045 31.8737 55.6045 31.8737C55.619 31.8192 55.686 30.4838 55.686 30.4838C56.7602 30.443 56.7602 30.5383 56.7602 30.5383C56.8418 31.3422 56.7331 32.1053 56.7331 32.1053ZM55.4958 28.0312C55.4958 28.0312 55.2513 27.3498 55.4415 27.2544C55.4415 27.2544 55.7404 27.3225 56.57 27.0228C56.57 27.0228 56.6914 27.2953 56.6642 27.6086C56.6516 27.7449 56.5429 27.7176 56.5429 27.7176C56.5429 27.7176 55.9306 27.9358 55.7549 28.0993C55.6588 28.181 55.5646 28.3173 55.4958 28.0312ZM56.5157 29.4891C56.5157 29.4891 55.7132 29.6117 55.6588 29.5845C55.6588 29.5845 55.6462 28.7941 55.6462 28.7124C55.6462 28.7124 55.9034 28.835 56.0538 28.8486C56.2295 28.8622 56.3653 28.9031 56.6099 28.835C56.6099 28.835 56.7059 28.835 56.7059 29.094C56.7059 29.4482 56.7458 29.4619 56.5157 29.4891ZM59.8724 32.1734C59.8724 32.1734 59.7492 32.0917 59.8308 31.9146C59.9123 31.7374 59.9938 31.3149 59.9666 31.2332C59.9666 31.2332 59.7366 28.5353 59.9268 27.2544C60.021 26.7231 60.1025 25.8373 60.184 25.7692C60.184 25.7692 60.0355 25.2922 58.867 25.3603C58.4576 25.3739 57.983 25.7147 57.6968 25.5104C57.5066 25.3739 57.5483 25.2513 57.6841 25.0878C57.8327 24.938 59.4503 23.2075 59.7909 23.1394C59.7909 23.1394 60.184 22.6351 59.3416 22.1583C58.8525 21.8856 58.7294 21.7085 58.1044 22.1174C57.7385 22.349 56.6914 23.2757 56.0266 23.3983C55.6733 23.4528 55.619 23.153 55.5918 23.1258L55.456 23.0302C55.456 23.0302 54.8582 23.5754 54.9252 24.3385C54.9524 24.7336 55.9849 24.393 56.2838 24.1476C56.4885 23.9705 57.8327 23.1667 57.5609 23.8887L56.7331 24.8154L56.0664 25.0061C56.0664 25.0061 55.7132 25.1423 56.0121 25.4557C56.0121 25.4557 56.5284 25.7965 56.474 25.9327C56.474 25.9327 56.407 26.1371 55.7132 26.4777C55.5502 26.5458 55.3744 26.6958 55.3473 26.7503C55.3473 26.7639 55.3328 26.7639 55.3328 26.7639L54.8165 26.464L54.4234 26.4504C54.4234 26.4504 54.5593 27.3907 54.5448 27.5133C54.5448 27.6223 54.5176 31.2332 54.7766 31.7783L53.4579 31.6693C53.4579 31.6693 51.5014 29.6117 52.9688 26.7639C53.1463 26.4095 53.4035 25.9736 52.7242 25.6602C52.4253 25.5376 51.7587 25.4557 51.6373 25.3194C51.6373 25.3194 51.188 25.1696 51.2424 25.7556L51.5558 26.4504C51.5558 26.4504 51.5014 26.8593 51.3239 27.8266C51.284 28.0312 51.0667 29.2711 52.1264 31.0016C52.1264 31.0016 52.3311 31.3285 52.2623 31.4375C52.2079 31.5603 52.1536 31.4922 52.1536 31.4922L50.7804 31.3558C50.7804 31.3558 50.4689 31.2604 50.4145 31.5876C50.3602 31.8192 50.1156 32.6094 50.5359 32.6913C50.5359 32.6913 53.1318 32.1325 57.0048 33.1681C57.6968 33.3453 58.7167 33.536 60.6876 33.4815C60.6876 33.4815 63.2002 33.1273 63.2002 31.6284C63.2002 31.6284 62.6712 31.2059 59.8724 32.1734Z" fill="#003974"/>
<path d="M88.9235 25.0741C89.9688 25.0469 90.4724 24.5292 90.4724 24.5292C90.4724 24.5292 90.7713 24.2565 91.0973 23.9295C91.4778 23.5344 91.8998 23.0574 91.8998 23.0574L92.1842 22.8939L92.1842 22.7577C91.7223 22.2536 90.8926 22.0356 90.8926 22.0356C90.88 21.9947 90.7441 22.0629 90.7441 22.0629C90.4851 22.5942 89.7115 23.3437 89.5068 23.5208C88.7188 24.2156 88.4888 24.8561 88.4888 24.8561C88.4888 24.8561 88.6518 25.0878 88.9235 25.0741Z" fill="#003974"/>
<path d="M92.2933 25.3602C92.3893 25.1694 92.2933 25.0468 92.2933 25.0468C91.4237 24.679 90.7299 24.6926 90.7299 24.6926L90.431 24.788C88.2174 28.0855 85.7718 29.162 85.7718 29.162C85.6758 29.271 85.9349 29.8977 85.9349 29.8977C85.9349 29.8977 86.0834 29.9658 86.3008 29.9794C87.1033 30.0203 88.8695 28.6032 88.8695 28.6032C89.1267 28.5896 89.2354 28.9847 89.2354 28.9847C89.1811 29.1075 89.1267 32.0098 89.1267 32.2141C89.0996 32.8819 89.3858 33.3179 89.643 33.3179C89.8876 33.3179 90.3495 32.8955 90.3495 32.8955L90.3097 30.5518C90.2825 30.4292 90.0108 27.8537 90.0108 27.8537C91.7226 26.3685 92.1846 25.5647 92.2933 25.3602Z" fill="#003974"/>
<path d="M92.8095 23.9024C93.0541 24.6246 93.3947 24.9925 93.3947 24.9925C94.9018 25.6603 96.8311 24.2839 96.9398 24.2157C97.0358 24.134 97.0901 23.6844 97.0901 23.6844C97.0358 23.589 96.5865 23.2348 96.5865 23.2348L96.3565 23.1667C94.6989 23.4392 92.7969 23.3983 92.7969 23.3983L92.728 23.698C92.728 23.698 92.7425 23.6844 92.8095 23.9024Z" fill="#003974"/>
<path d="M98.3002 25.2378C98.3002 25.2378 95.7442 25.8238 95.0522 25.8646C94.6717 25.8783 92.4979 26.1235 92.4979 26.1235C92.4979 26.1235 91.5596 26.2325 91.4925 27.1182C91.4781 27.3498 91.4781 27.895 91.5469 27.9767C91.5469 27.9767 92.3892 27.7313 93.449 27.4997C93.8149 27.418 94.3312 27.3907 94.4272 27.4043C94.4272 27.4043 94.5902 31.4923 94.5087 31.6421C94.5087 31.6421 94.5631 32.2552 93.8692 32.0236C93.8692 32.0236 93.1628 31.574 92.4979 31.6013C92.4979 31.6013 92.4708 31.6966 92.6193 31.8465C92.7697 31.9964 93.775 32.814 94.2225 33.3862C94.3855 33.5905 96.0304 34.2311 96.1246 32.4051C96.1391 32.1053 95.7858 28.944 95.7586 28.7533C95.7315 28.5626 95.6626 27.3226 95.7586 27.2681C95.7586 27.2681 98.4487 26.9002 98.965 26.3006C99.1426 26.1099 98.9523 25.5513 98.3002 25.2378Z" fill="#003974"/>
<path d="M74.2759 30.7698C74.2759 30.7698 73.0115 30.9742 73.0115 30.9333C72.9988 30.8924 73.1618 30.7153 73.352 30.5655C73.8955 30.1429 74.1255 29.816 74.1255 29.816C74.4933 29.0665 74.0585 29.0939 74.0585 29.0939C73.7053 28.9711 73.4607 29.2982 73.3919 29.3936C72.7941 30.2656 72.7542 30.1838 72.7542 30.1838C72.6582 29.6933 72.7271 28.6441 72.7271 28.6441L73.6509 28.1264C73.9227 28.0447 73.977 27.4859 73.7868 27.3633C73.6509 27.2679 72.7669 27.3905 72.7669 27.3905C72.7669 27.3905 72.6455 27.445 72.6039 27.3905C72.5495 27.3497 72.6184 26.9682 72.6184 26.9682L73.3919 26.6138C73.5966 26.4503 73.5277 25.9871 73.5277 25.9871C73.3792 25.7827 72.9444 25.7146 72.9444 25.7146L71.843 25.7282C71.843 25.7282 71.5441 25.81 71.5713 25.6465C71.6383 25.2784 72.4408 24.5564 72.4408 24.5564C72.8484 24.57 73.4064 24.9923 73.5151 25.0877C73.9498 25.4692 74.3973 25.7827 74.3973 25.7827C74.4661 23.8341 73.5694 23.4799 73.4064 23.3981C73.2433 23.3028 73.2433 23.1393 73.2433 23.1393C73.7324 22.8121 73.6908 22.7031 73.6908 22.7031C73.189 21.3951 72.2923 21.7084 72.2923 21.7084C72.2778 21.7493 71.747 22.8121 71.5713 23.1393C70.171 25.6873 67.8215 27.5131 67.7527 27.6085C67.6711 27.6903 66.856 28.0992 66.856 28.0992C67.2635 29.1075 68.2418 28.9438 68.432 28.903C69.0443 28.7667 70.5786 26.7774 70.5786 26.7774C70.6203 26.9001 70.8775 26.9001 71.0007 26.9273C71.4354 27.0227 71.776 27.0499 71.776 27.0499L71.8159 27.6085L70.9047 27.8674C70.9047 27.8674 70.4971 27.9765 70.4844 28.4398C70.4427 29.38 71.1365 29.1075 71.1365 29.1075L71.8974 28.8757C71.9517 28.9166 72.0206 30.0884 72.0206 30.0884L71.1764 29.5844C70.7018 29.8432 70.6873 30.3066 70.6873 30.3066C70.9047 30.9333 71.2996 30.9606 71.4898 31.0423C71.6383 31.1104 71.6112 31.2739 71.5025 31.342C69.5189 32.3776 69.383 32.3231 69.383 32.3231L69.2471 32.6637C69.2471 33.5631 70.4699 33.2634 70.5388 33.2225C72.5368 32.1597 73.9227 31.8054 73.9227 31.8054C74.1799 31.8054 74.3846 31.3148 74.3846 31.3148L74.5748 31.0151C74.7233 30.729 74.2759 30.7698 74.2759 30.7698Z" fill="#003974"/>
<path d="M76.7612 31.0425C76.3681 31.2196 76.1507 31.0833 76.1507 31.0833C76.1507 31.0833 75.7703 30.3885 75.9062 29.2303C75.9062 29.2303 75.9877 29.1894 76.0547 29.203C76.0547 29.203 76.8301 29.3393 77.821 29.8979C77.821 29.8979 77.917 30.5247 76.7612 31.0425ZM75.9877 25.8646L76.0819 25.7284L77.5365 25.6603C77.5365 25.6603 77.6452 25.7284 77.5764 25.9191C77.5094 26.1098 77.3192 26.8185 76.7214 26.8048C76.7214 26.8048 75.9334 26.9547 75.9189 26.6959L75.9877 25.8646ZM76.2449 23.916C76.2721 23.7253 77.522 23.7117 77.6579 23.7525C77.8083 23.7798 77.8354 24.2021 77.8354 24.2021C77.7123 24.8154 77.6036 24.7473 77.6036 24.7473C76.8572 24.9244 76.1906 24.7881 76.1906 24.7881C76.1236 24.611 76.2449 23.916 76.2449 23.916ZM80.0093 29.8025C79.3444 29.5845 78.5963 29.0804 78.5963 29.0804C78.6234 29.053 81.002 27.6495 81.002 27.6495C80.4168 26.9411 79.6705 26.5458 79.6705 26.5458C78.3934 28.6306 76.5583 28.7669 76.2594 28.7805C75.9605 28.7941 75.9062 28.7805 75.9062 28.5217C75.8645 27.6223 76.0276 27.6087 76.0276 27.6087C76.0276 27.6087 76.2449 27.595 76.408 27.7585C76.7214 28.0448 77.4134 27.8267 77.4134 27.8267L77.8753 27.4179C78.3662 26.8593 78.4332 26.6684 78.4604 26.178C78.5564 25.0197 78.7593 24.5838 78.8952 24.2294C79.2357 23.3029 79.1941 23.0984 79.1941 23.0984C79.1397 22.0902 78.147 22.4036 78.0256 22.4581C77.2503 22.7442 76.2993 22.8668 76.0004 22.9485C75.1997 23.1939 75.3084 23.3438 75.3084 23.3438L75.2667 24.134C75.2667 24.134 75.1309 28.2764 75.1182 28.5762C74.995 31.7783 75.2395 33.3589 75.2395 33.3589C75.2269 33.6314 75.5928 33.7813 75.5928 33.7813C76.7485 33.7131 77.6851 31.5876 77.7539 31.3422C78.1343 30.075 78.2159 30.2112 78.2159 30.2112C79.127 30.5792 80.214 31.8737 80.281 31.9282C80.3498 31.9827 80.444 31.9555 80.54 31.7783C80.6215 31.6149 81.2193 30.8653 81.2193 30.8653C81.1922 30.6201 80.3897 29.9387 80.0093 29.8025Z" fill="#003974"/>
<path d="M27.7491 35.9478L28.673 35.9478C29.0407 35.9478 29.2708 36.0296 29.2708 36.2886C29.2708 36.5475 29.0135 36.6565 28.7001 36.6565L27.7491 36.6565L27.7491 35.9478ZM26.9756 38.605L28.6059 38.605C29.394 38.605 29.6113 38.496 29.8287 38.3188C30.0316 38.1553 30.1548 37.91 30.1548 37.6512C30.1548 37.3377 30.0316 37.0243 29.557 36.8745C29.72 36.8063 30.0461 36.6837 30.0461 36.2203C30.0461 35.8797 29.8015 35.3893 28.8505 35.3893L26.9756 35.3893L26.9756 38.605ZM27.7491 37.1879L28.7817 37.1879C29.0679 37.1879 29.3523 37.2969 29.3523 37.583C29.3523 37.91 29.1222 38.0463 28.7418 38.0463L27.7491 38.0463L27.7491 37.1879Z" fill="#003974"/>
<path d="M31.4988 37.9509L32.9263 37.9509L33.1709 38.605L34.0404 38.605L32.6818 35.3893L31.7579 35.3893L30.3848 38.605L31.2271 38.605L31.4988 37.9509ZM32.2053 36.125L32.2198 36.125L32.6944 37.3922L31.7162 37.3922L32.2053 36.125Z" fill="#003974"/>
<path d="M36.9083 35.3893L37.6546 35.3893L37.6546 38.605L36.8394 38.605L35.2779 36.3159L35.2779 38.605L34.5171 38.605L34.5171 35.3893L35.3721 35.3893L36.8938 37.6239L36.9083 37.6239L36.9083 35.3893Z" fill="#003974"/>
<path d="M39.2846 38.605L38.4839 38.605L38.4839 35.3893L39.2846 35.3893L39.2846 36.6973L40.7537 35.3893L41.7863 35.3893L40.2229 36.711L41.8805 38.605L40.8479 38.605L39.6668 37.2015L39.2846 37.5149L39.2846 38.605Z" fill="#003974"/>
<path d="M45.1016 36.9971C45.1016 38.5096 46.433 38.6868 46.9493 38.6868C47.4529 38.6868 48.797 38.5096 48.797 36.9971C48.797 35.4983 47.4529 35.3076 46.9493 35.3076C46.433 35.3076 45.1016 35.4983 45.1016 36.9971ZM45.9041 36.9971C45.9041 36.0978 46.5145 35.8798 46.9493 35.8798C47.3841 35.8798 47.9819 36.0978 47.9819 36.9971C47.9819 37.8965 47.3841 38.1145 46.9493 38.1145C46.5145 38.1145 45.9041 37.8965 45.9041 36.9971Z" fill="#003974"/>
<path d="M50.2372 38.605L49.4365 38.605L49.4365 35.3893L52.1665 35.3893L52.1665 35.9615L50.2372 35.9615L50.2372 36.6837L51.9364 36.6837L51.9364 37.256L50.2372 37.256L50.2372 38.605Z" fill="#003974"/>
<path d="M57.9019 36.4522C57.833 36.2476 57.7117 35.8934 57.045 35.8934C56.6646 35.8934 56.094 36.1114 56.094 37.0107C56.094 37.5831 56.3657 38.1145 57.045 38.1145C57.4943 38.1145 57.8059 37.8965 57.9019 37.5013L58.7026 37.5013C58.5395 38.1962 57.9961 38.6868 57.0323 38.6868C56.0125 38.6868 55.2788 38.1145 55.2788 36.9971C55.2788 35.8798 56.0541 35.3076 57.045 35.3076C58.2008 35.3076 58.6627 35.9751 58.7026 36.4522L57.9019 36.4522Z" fill="#003974"/>
<path d="M59.1387 36.9971C59.1387 38.5096 60.4828 38.6868 60.9991 38.6868C61.5027 38.6868 62.8468 38.5096 62.8468 36.9971C62.8468 35.4983 61.5027 35.3076 60.9991 35.3076C60.4828 35.3076 59.1387 35.4983 59.1387 36.9971ZM59.9539 36.9971C59.9539 36.0978 60.5643 35.8798 60.9991 35.8798C61.4339 35.8798 62.0317 36.0978 62.0317 36.9971C62.0317 37.8965 61.4339 38.1145 60.9991 38.1145C60.5643 38.1145 59.9539 37.8965 59.9539 36.9971Z" fill="#003974"/>
<path d="M67.1693 38.605L66.4211 38.605L66.4211 35.9206L66.4085 35.9206L65.702 38.605L64.9121 38.605L64.2057 35.9206L64.193 35.9206L64.193 38.605L63.4448 38.605L63.4448 35.3893L64.6133 35.3893L65.3216 37.9237L66.0135 35.3893L67.1693 35.3893L67.1693 38.605Z" fill="#003974"/>
<path d="M71.6382 38.605L70.8918 38.605L70.8918 35.9206L70.8773 35.9206L70.1582 38.605L69.3702 38.605L68.6763 35.9206L68.6637 35.9206L68.6637 38.605L67.9028 38.605L67.9028 35.3893L69.0839 35.3893L69.7777 37.9237L69.7904 37.9237L70.4697 35.3893L71.6382 35.3893L71.6382 38.605Z" fill="#003974"/>
<path d="M75.4844 37.4877C75.4844 38.3325 74.8739 38.6868 73.9084 38.6868C73.5551 38.6868 73.0262 38.6186 72.6856 38.2916C72.4682 38.1008 72.3867 37.842 72.3867 37.5286L72.3867 35.3893L73.2019 35.3893L73.2019 37.474C73.2019 37.9237 73.5153 38.1145 73.8957 38.1145C74.4392 38.1145 74.6692 37.8965 74.6692 37.5149L74.6692 35.3893L75.4844 35.3893L75.4844 37.4877Z" fill="#003974"/>
<path d="M78.6109 35.3893L79.3573 35.3893L79.3573 38.605L78.5566 38.605L76.9933 36.3159L76.9788 36.3159L76.9788 38.605L76.2324 38.605L76.2324 35.3893L77.0875 35.3893L78.6109 37.6239L78.6109 35.3893Z" fill="#003974"/>
<path d="M80.8788 38.605L80.0781 38.605L80.0781 35.3893L80.8788 35.3893L80.8788 38.605Z" fill="#003974"/>
<path d="M84.0851 36.4522C84.0181 36.2476 83.8949 35.8934 83.2301 35.8934C82.8497 35.8934 82.279 36.1114 82.279 37.0107C82.279 37.5831 82.5508 38.1145 83.2301 38.1145C83.6775 38.1145 83.9764 37.8965 84.0851 37.5013L84.8876 37.5013C84.7246 38.1962 84.1811 38.6868 83.2156 38.6868C82.1975 38.6868 81.4639 38.1145 81.4639 36.9971C81.4639 35.8798 82.2247 35.3076 83.2301 35.3076C84.3713 35.3076 84.8478 35.9751 84.8876 36.4522L84.0851 36.4522Z" fill="#003974"/>
<path d="M86.3008 37.9509L87.7282 37.9509L87.9728 38.605L88.8423 38.605L87.4964 35.3893L86.5725 35.3893L85.2012 38.605L86.0435 38.605L86.3008 37.9509ZM87.0217 36.125L87.5108 37.3922L86.5181 37.3922L87.0217 36.125Z" fill="#003974"/>
<path d="M90.5126 38.605L89.7119 38.605L89.7119 35.9615L88.5435 35.9615L88.5435 35.3893L91.6828 35.3893L91.6828 35.9615L90.5126 35.9615L90.5126 38.605Z" fill="#003974"/>
<path d="M92.891 38.605L92.0903 38.605L92.0903 35.3893L92.891 35.3893L92.891 38.605Z" fill="#003974"/>
<path d="M93.4614 36.9971C93.4614 38.5096 94.8074 38.6868 95.3237 38.6868C95.8254 38.6868 97.1569 38.5096 97.1569 36.9971C97.1569 35.4983 95.8254 35.3076 95.3237 35.3076C94.8074 35.3076 93.4614 35.4983 93.4614 36.9971ZM94.2766 36.9971C94.2766 36.0978 94.8889 35.8798 95.3237 35.8798C95.7584 35.8798 96.3562 36.0978 96.3562 36.9971C96.3562 37.8965 95.7584 38.1145 95.3237 38.1145C94.8889 38.1145 94.2766 37.8965 94.2766 36.9971Z" fill="#003974"/>
<path d="M100.148 35.3893L100.909 35.3893L100.909 38.605L100.094 38.605L98.5304 36.3159L98.5304 38.605L97.7695 38.605L97.7695 35.3893L98.6119 35.3893L100.134 37.6239L100.148 37.6239L100.148 35.3893Z" fill="#003974"/>
<path d="M102.253 37.6103C102.253 37.8011 102.362 38.1417 103.068 38.1417C103.449 38.1417 103.871 38.06 103.871 37.7193C103.871 37.4604 103.572 37.4059 103.164 37.3242L102.757 37.2424C102.132 37.1197 101.534 36.9971 101.534 36.2887C101.534 35.9343 101.764 35.3076 103.014 35.3076C104.184 35.3076 104.51 35.9479 104.51 36.3432L103.748 36.3432C103.72 36.2067 103.653 35.8661 102.959 35.8661C102.648 35.8661 102.295 35.9615 102.295 36.2476C102.295 36.493 102.539 36.5475 102.688 36.5884L103.626 36.7791C104.157 36.8881 104.632 37.0652 104.632 37.6376C104.632 38.605 103.463 38.6868 103.123 38.6868C101.71 38.6868 101.479 38.0191 101.479 37.6103L102.253 37.6103Z" fill="#003974"/>
</svg>
