<svg width="60" height="60" viewBox="0 0 60 60" fill="none" xmlns="http://www.w3.org/2000/svg">
<rect width="60" height="60" fill="white"/>
<path d="M24.81 21.4894C20.4767 21.4894 17.209 24.7039 17.209 28.9666C17.209 33.2998 20.3936 36.4446 24.7809 36.4446C29.1142 36.4446 32.382 33.2302 32.382 28.9666C32.382 24.6342 29.1973 21.4894 24.81 21.4894ZM29.6769 28.9666C29.6769 31.9012 27.6168 34.0304 24.7823 34.0304C21.9622 34.0304 19.9155 31.9012 19.9155 28.9666C19.9155 26.0322 21.9622 23.9036 24.7823 23.9036C27.6189 23.9036 29.6769 26.0329 29.6769 28.9666Z" fill="#133034"/>
<path d="M14.5574 21.8328H11.9062V36.1005H14.5574V21.8328Z" fill="#133034"/>
<path d="M36.166 39.3044H35.04V45.1274H36.166V39.3044Z" fill="#133034"/>
<path d="M38.8909 45.2139C38.3979 45.2139 38.0254 45.0859 37.7735 44.8301C37.5215 44.5742 37.3953 44.1932 37.3948 43.6871V41.4784H36.6738V40.6502H37.3948V39.3121H38.486V40.6502H39.5068V41.4784H38.486V43.5916C38.486 43.8508 38.5388 44.0421 38.6444 44.1656C38.75 44.2891 38.9146 44.352 39.1381 44.3543C39.308 44.3545 39.4761 44.3194 39.6311 44.2512V45.0871C39.3946 45.1728 39.1445 45.2167 38.8923 45.2167" fill="#133034"/>
<path d="M41.5574 45.2397C41.1113 45.2397 40.7535 45.1217 40.484 44.8858C40.2145 44.6499 40.0796 44.3335 40.0791 43.9364C40.0791 43.4303 40.2844 43.0377 40.695 42.7586C41.1056 42.4796 41.6893 42.3402 42.4461 42.3407H42.6393C42.7039 42.3407 42.765 42.3407 42.824 42.3491C42.8064 42.0273 42.7118 41.7886 42.5399 41.633C42.3679 41.4775 42.1127 41.3999 41.774 41.4004C41.3151 41.407 40.8661 41.532 40.4719 41.7625V40.9003C40.9245 40.6646 41.4286 40.5403 41.941 40.5381C42.5567 40.5381 43.0319 40.7034 43.3667 41.034C43.7016 41.3646 43.8687 41.8378 43.8682 42.4535V45.1275H42.9646L42.9028 44.61C42.7573 44.8093 42.5615 44.9682 42.3345 45.0711C42.0905 45.1848 41.8233 45.2425 41.5531 45.2397H41.5574ZM41.8522 44.4805C41.9811 44.4823 42.109 44.4579 42.2278 44.4088C42.3467 44.3598 42.4539 44.2872 42.5427 44.1956C42.6351 44.1054 42.708 43.9978 42.7568 43.8793C42.8056 43.7608 42.8294 43.6338 42.8268 43.506V43.0658C42.7686 43.0658 42.7082 43.0658 42.6471 43.0616C42.586 43.0573 42.5221 43.0567 42.4574 43.0567C42.0236 43.0567 41.6907 43.1214 41.4587 43.251C41.367 43.3009 41.2886 43.3711 41.2296 43.4561C41.1707 43.541 41.1327 43.6383 41.1189 43.7402C41.1051 43.842 41.1157 43.9456 41.1502 44.0427C41.1845 44.1398 41.2415 44.2277 41.3166 44.2993C41.4654 44.4248 41.6576 44.4896 41.8536 44.4804" fill="#133034"/>
<path d="M46.2139 45.2397C45.7441 45.2397 45.3703 45.0802 45.0923 44.7612C44.8143 44.4422 44.6748 44.015 44.6738 43.4796V40.6503H45.765V43.3096C45.765 43.6491 45.836 43.9091 45.9781 44.0897C46.0503 44.1799 46.1436 44.2516 46.25 44.2991C46.3565 44.3464 46.473 44.3681 46.5898 44.3621C46.7115 44.3663 46.8326 44.3426 46.9435 44.2931C47.0544 44.2437 47.1521 44.1698 47.2291 44.0772C47.3901 43.8868 47.4708 43.6337 47.4713 43.318V40.6503H48.5616V45.1276H47.6127L47.5509 44.601C47.4075 44.8057 47.2114 44.9696 46.9826 45.0761C46.742 45.1868 46.479 45.2428 46.2132 45.2397H46.2139ZM47.0046 40.0464H46.0456L46.9869 38.7007H48.1744L47.0046 40.0464Z" fill="#133034"/>
<path d="M42.4735 21.4894C41.0527 21.4894 38.8839 22.1344 37.6784 23.8465V21.8328H35.04V36.1005H37.6912V27.9511C37.684 27.4174 37.7851 26.8875 37.9884 26.3924C38.1918 25.8972 38.4935 25.4466 38.8758 25.0667C39.2582 24.6868 39.7138 24.3851 40.2161 24.1792C40.7184 23.9733 41.2574 23.8673 41.8018 23.8673C42.3462 23.8673 42.8852 23.9733 43.3874 24.1792C43.8897 24.3851 44.3453 24.6868 44.7277 25.0667C45.1101 25.4466 45.4118 25.8972 45.6151 26.3924C45.8185 26.8875 45.9196 27.4174 45.9124 27.9511V36.1005H48.5636V27.1947C48.5636 23.9419 45.9458 21.4894 42.4735 21.4894Z" fill="#133034"/>
<path d="M24.766 14.7603L11.4365 18.5079L11.9022 20.1001L25.2316 16.3524L24.766 14.7603Z" fill="#A7CE2E"/>
</svg>
