<svg width="130" height="60" viewBox="0 0 130 60" fill="none" xmlns="http://www.w3.org/2000/svg">
<rect width="130" height="60" fill="white"/>
<g clip-path="url(#clip0_476_750)">
<path d="M63.8958 20.8632C58.5556 20.8632 54.541 24.9401 54.541 30.3262C54.541 35.0391 57.9207 39.8267 64.3812 39.8267C65.5389 39.8267 66.6406 39.6584 67.6488 39.3031L67.126 34.7585C66.2671 35.2635 65.3335 35.5066 64.3439 35.5066C61.9912 35.5066 60.1613 34.2536 59.4518 32.2525H73.3812V31.4296C73.3812 25.2207 69.4787 20.8632 63.8958 20.8632ZM59.4144 28.269C59.9372 26.6794 61.3004 25.1646 63.8584 25.1646C66.0057 25.1646 67.7422 26.3989 68.321 28.269H59.4144Z" fill="#004B8F"/>
<path d="M93.2105 20.8632C90.8017 20.8632 88.8972 21.6486 87.6834 23.1074C86.0773 21.125 84.117 20.8632 82.7165 20.8632C81.4468 20.8632 79.9717 21.1811 78.8141 21.9666V20.8632H74.2207V39.8267H78.8141V28.774C78.8141 26.5672 80.0838 25.2581 82.2124 25.2581C84.0236 25.2581 85.0693 26.4924 85.0693 28.6431V39.8267H89.6628V28.774C89.6628 26.5672 90.932 25.2581 93.0606 25.2581C94.8719 25.2581 95.9177 26.4924 95.9177 28.6431V39.8267H100.511V28.3251C100.511 23.7806 97.6541 20.8632 93.2105 20.8632Z" fill="#004B8F"/>
<path d="M47.0716 35.5066L53.7376 24.5848C54.6712 22.6398 53.7002 20.938 51.2915 20.8632H40.6484L41.7127 25.1833H48.0426L40.8165 36.9466L41.358 39.808H55.9969L54.9326 35.4879H47.0716V35.5066Z" fill="#004B8F"/>
<path d="M109.474 20.8818C107.924 20.8818 106.355 21.0127 104.769 21.5176L105.497 25.4637C106.786 25.0336 108.149 24.94 109.325 24.94C112.014 24.94 113.358 26.1744 113.358 27.8014V27.9136C112.126 27.203 110.707 26.8476 109.157 26.8476C103.779 26.8476 101.352 30.1391 101.352 33.2062C101.352 36.8343 104.153 39.4339 108.261 39.7892L108.242 39.8079H108.578C108.783 39.8266 108.988 39.8266 109.194 39.8266C109.269 39.8266 109.344 39.8266 109.4 39.8266H115.244C115.318 39.8266 115.393 39.8266 115.467 39.8079H116.943C117.373 39.8079 117.727 39.4526 117.727 39.0225V36.9465V31.0929V27.5957C117.764 23.7618 114.516 20.8818 109.474 20.8818ZM113.489 35.4317C113.489 35.8618 113.153 36.1985 112.723 36.1985H109.605H109.456C109.437 36.1985 109.4 36.1985 109.381 36.1985C109.25 36.1985 109.119 36.1798 109.007 36.1611C108.876 36.1424 108.764 36.1237 108.634 36.105C108.578 36.105 108.54 36.0863 108.484 36.0676C108.466 36.0676 108.466 36.0676 108.447 36.0676C108.41 36.0489 108.354 36.0489 108.317 36.0302C108.298 36.0302 108.279 36.0302 108.261 36.0115C108.223 35.9928 108.186 35.9928 108.149 35.9741C108.13 35.9741 108.111 35.9554 108.093 35.9554C108.055 35.9366 108.018 35.9366 107.981 35.9179C107.962 35.9179 107.943 35.8992 107.924 35.8992C107.887 35.8805 107.85 35.8805 107.812 35.8618C107.793 35.8618 107.775 35.8431 107.756 35.8431C107.719 35.8244 107.681 35.8244 107.662 35.8057C107.644 35.8057 107.625 35.787 107.607 35.787C107.569 35.7683 107.551 35.7683 107.513 35.7496C107.495 35.7309 107.476 35.7309 107.457 35.7122C107.42 35.6935 107.401 35.6748 107.364 35.6748C107.345 35.6561 107.327 35.6561 107.308 35.6374C107.271 35.6187 107.252 35.6 107.233 35.6C107.215 35.5813 107.196 35.5813 107.177 35.5626C107.159 35.5439 107.121 35.5252 107.103 35.5065C107.084 35.4878 107.065 35.4878 107.047 35.4691C107.028 35.4504 106.991 35.4317 106.972 35.413C106.953 35.3943 106.935 35.3943 106.916 35.3756C106.898 35.3569 106.879 35.3382 106.842 35.3195C106.823 35.3008 106.804 35.2821 106.786 35.2821C106.767 35.2634 106.748 35.2447 106.711 35.226C106.692 35.2073 106.673 35.1886 106.655 35.1699C106.636 35.1512 106.617 35.1325 106.599 35.1138C106.58 35.0951 106.561 35.0764 106.543 35.0577C106.524 35.039 106.505 35.0203 106.486 35.0016C106.468 34.9829 106.449 34.9642 106.43 34.9455C106.412 34.9268 106.393 34.9081 106.374 34.8894C106.355 34.8707 106.337 34.852 106.318 34.8333C106.299 34.8146 106.281 34.7959 106.262 34.7771C106.243 34.7584 106.225 34.7397 106.225 34.721C106.206 34.7023 106.188 34.6836 106.188 34.6649C106.169 34.6462 106.15 34.6275 106.15 34.6088C106.132 34.5901 106.132 34.5714 106.113 34.5527C106.094 34.534 106.094 34.5153 106.076 34.4966C106.057 34.4779 106.057 34.4592 106.038 34.4405C106.02 34.4218 106.02 34.4031 106.001 34.3657C105.982 34.347 105.982 34.3283 105.964 34.3096C105.945 34.2909 105.945 34.2722 105.926 34.2348C105.908 34.2161 105.908 34.1974 105.908 34.1787C105.889 34.16 105.889 34.1226 105.889 34.1038C105.889 34.0851 105.87 34.0664 105.87 34.0477C105.87 34.0291 105.852 33.9917 105.852 33.973C105.852 33.9543 105.833 33.9356 105.833 33.9169C105.833 33.8982 105.814 33.8608 105.814 33.8421C105.814 33.8234 105.796 33.8047 105.796 33.786C105.796 33.7673 105.777 33.7299 105.777 33.7112C105.777 33.6925 105.777 33.6738 105.758 33.6551C105.758 33.6176 105.758 33.5989 105.74 33.5615C105.74 33.5428 105.74 33.5241 105.74 33.5054C105.74 33.4493 105.74 33.4119 105.74 33.3558C105.74 31.7848 107.476 30.4944 109.624 30.4944C109.698 30.4944 109.754 30.4944 109.829 30.4944C109.847 30.4944 109.866 30.4944 109.903 30.4944C109.941 30.4944 109.997 30.4944 110.034 30.4944C110.053 30.4944 110.09 30.4944 110.109 30.4944C110.146 30.4944 110.183 30.4944 110.221 30.5131C110.258 30.5131 110.277 30.5131 110.314 30.5318C110.351 30.5318 110.389 30.5318 110.407 30.5505C110.445 30.5505 110.464 30.5692 110.501 30.5692C110.538 30.5692 110.557 30.5879 110.595 30.5879C110.632 30.5879 110.669 30.6066 110.688 30.6066C110.707 30.6066 110.744 30.6253 110.763 30.6253C110.8 30.6253 110.837 30.6441 110.875 30.6441C110.893 30.6441 110.931 30.6628 110.949 30.6628C110.987 30.6815 111.024 30.6815 111.061 30.7002C111.08 30.7002 111.099 30.7189 111.136 30.7189C111.173 30.7376 111.21 30.7376 111.248 30.7563C111.266 30.7563 111.285 30.775 111.304 30.775C111.341 30.7937 111.378 30.8124 111.416 30.8124C111.434 30.8124 111.453 30.8311 111.472 30.8311C111.509 30.8498 111.546 30.8685 111.584 30.8872C111.602 30.8872 111.621 30.9059 111.621 30.9059C111.658 30.9246 111.696 30.9433 111.733 30.962C111.752 30.962 111.752 30.9807 111.771 30.9807C111.808 30.9994 111.846 31.0181 111.883 31.0368C111.902 31.0368 111.902 31.0555 111.92 31.0555C111.958 31.0742 111.995 31.0929 112.051 31.1303C112.051 31.1303 112.07 31.1303 112.07 31.149C112.107 31.1677 112.144 31.2051 112.2 31.2238C112.2 31.2238 112.219 31.2238 112.219 31.2425C112.256 31.2612 112.294 31.2986 112.331 31.3174C112.331 31.3174 112.331 31.3174 112.35 31.3174C112.387 31.3548 112.424 31.3735 112.462 31.4109C112.499 31.4483 112.536 31.467 112.573 31.5044C112.611 31.5417 112.648 31.5791 112.685 31.6165C113.171 32.0841 113.47 32.6639 113.47 33.2997C113.47 33.3184 113.47 33.3184 113.47 33.3371V35.4317H113.489Z" fill="#004B8F"/>
<path d="M32.8633 38.0501L27.1309 20.751C26.8322 19.8533 26.1227 19.1613 25.2077 18.8621C25.2077 18.8621 25.189 18.8621 25.1703 18.8434H25.1517C25.021 18.806 24.853 18.7686 24.6849 18.7499C24.6662 18.7499 24.6662 18.7499 24.6475 18.7499C24.6289 18.7499 24.5915 18.7312 24.5542 18.7312C24.4608 18.7312 24.3861 18.7312 24.3115 18.7312H24.2554L24.1994 18.7125C24.1247 18.7125 24.0314 18.7125 23.9567 18.7125C23.9194 18.7125 23.882 18.7312 23.8633 18.7312C23.8446 18.7312 23.8446 18.7312 23.826 18.7312C23.658 18.7499 23.4899 18.7873 23.3592 18.8247H23.3405C23.3405 18.8247 23.3218 18.8247 23.3218 18.8434C22.4069 19.1426 21.6974 19.8533 21.3986 20.7322L15.6663 38.0314C15.5729 38.3118 15.5169 38.6111 15.5169 38.8916C15.4982 39.5461 15.6849 40.2007 16.1144 40.743C16.4132 41.1545 16.8053 41.4538 17.2161 41.6595C17.2347 41.6595 17.2347 41.6782 17.2534 41.6782C17.3094 41.7156 17.3841 41.7343 17.4401 41.753C17.4775 41.7717 17.4961 41.7717 17.5335 41.7904C17.5708 41.8091 17.6082 41.8091 17.6455 41.8278C17.7575 41.8652 17.8883 41.8839 18.0003 41.9213C18.019 41.9213 18.0563 41.94 18.075 41.94C18.2057 41.9587 18.3364 41.9587 18.4484 41.9774C18.4858 41.9774 18.5418 41.9774 18.5791 41.9774C18.7098 41.9774 18.8219 41.9587 18.9526 41.94C18.9899 41.94 19.0459 41.9213 19.0833 41.9213C19.1579 41.9026 19.2513 41.8839 19.326 41.8652C19.6621 41.7717 19.9982 41.6221 20.297 41.3976L20.4836 41.2667C20.8945 40.9301 21.2119 40.4813 21.3986 39.9389L24.2928 31.2239L27.187 39.9389C27.7098 41.5099 29.409 42.3701 30.9961 41.8465C32.5272 41.3041 33.3861 39.6209 32.8633 38.0501Z" fill="#FBAF1A"/>
<path d="M11.875 28.026C11.875 28.3627 11.931 28.6805 12.0244 28.9611C12.4165 30.1767 13.5555 31.0556 14.8812 31.0556H24.0492L16.6924 36.554C15.3667 37.5451 15.1053 39.4341 16.0762 40.7619C17.0658 42.0897 18.933 42.3889 20.2588 41.3977L34.8604 30.4946C35.6072 29.9335 36.0554 29.0359 36.0554 28.0821C36.0554 28.0634 36.0554 28.0634 36.0554 28.0447V28.026C36.0554 27.8764 36.0367 27.7268 35.9993 27.5584C35.9993 27.5397 35.9993 27.5397 35.9993 27.521C35.9993 27.5023 35.9993 27.4649 35.9806 27.4275C35.962 27.3527 35.9433 27.2592 35.906 27.1844L35.8873 27.1283L35.8686 27.0722C35.8499 26.9974 35.8126 26.9226 35.7939 26.8478C35.7753 26.8104 35.7566 26.7917 35.7566 26.773C35.7566 26.7543 35.7379 26.7543 35.7379 26.7356C35.6632 26.586 35.5699 26.4363 35.4952 26.3241L35.4765 26.3054L35.4578 26.2867C34.879 25.52 33.9827 25.0524 33.0492 25.0524L14.8625 25.015C13.2007 25.015 11.875 26.3802 11.875 28.026Z" fill="url(#paint0_linear_476_750)"/>
</g>
<defs>
<linearGradient id="paint0_linear_476_750" x1="11.875" y1="33.5025" x2="36.0518" y2="33.5025" gradientUnits="userSpaceOnUse">
<stop stop-color="#E5A812"/>
<stop offset="0.3297" stop-color="#FFCB05"/>
<stop offset="0.7386" stop-color="#FFF200"/>
<stop offset="1" stop-color="#FFF200"/>
</linearGradient>
<clipPath id="clip0_476_750">
<rect width="106.249" height="23.2875" fill="white" transform="translate(11.875 18.7125)"/>
</clipPath>
</defs>
</svg>
