<svg width="60" height="60" viewBox="0 0 60 60" fill="none" xmlns="http://www.w3.org/2000/svg">
<rect width="60" height="60" fill="#004B8F"/>
<path d="M43.2702 41.041L34.7786 15.415C34.3361 14.0852 33.285 13.0602 31.9297 12.6169C31.9297 12.6169 31.902 12.6169 31.8743 12.5892H31.8467C31.6531 12.5338 31.4041 12.4784 31.1551 12.4507C31.1275 12.4507 31.1275 12.4507 31.0998 12.4507C31.0722 12.4507 31.0168 12.423 30.9615 12.423C30.8232 12.423 30.7126 12.423 30.602 12.423H30.519L30.436 12.3953C30.3254 12.3953 30.187 12.3953 30.0764 12.3953C30.0211 12.3953 29.9658 12.423 29.9381 12.423C29.9104 12.423 29.9104 12.423 29.8828 12.423C29.6339 12.4507 29.3849 12.5061 29.1913 12.5615H29.1637C29.1637 12.5615 29.136 12.5615 29.136 12.5892C27.7807 13.0325 26.7296 14.0852 26.2871 15.3873L17.7954 41.0133C17.6571 41.4288 17.5741 41.8721 17.5741 42.2877C17.5465 43.2572 17.8231 44.2269 18.4593 45.0303C18.9018 45.6398 19.4827 46.0831 20.0912 46.3878C20.1189 46.3878 20.1189 46.4155 20.1465 46.4155C20.2295 46.471 20.3401 46.4987 20.4231 46.5264C20.4784 46.5541 20.5061 46.5541 20.5614 46.5818C20.6167 46.6095 20.6721 46.6095 20.7274 46.6372C20.8933 46.6926 21.087 46.7203 21.2529 46.7757C21.2806 46.7757 21.3359 46.8034 21.3636 46.8034C21.5572 46.8311 21.7508 46.8311 21.9168 46.8588C21.9721 46.8588 22.0551 46.8588 22.1104 46.8588C22.304 46.8588 22.47 46.8311 22.6636 46.8034C22.7189 46.8034 22.8019 46.7757 22.8572 46.7757C22.9678 46.748 23.1061 46.7203 23.2167 46.6926C23.7147 46.5541 24.2125 46.3324 24.6551 46L24.9317 45.806C25.5402 45.3073 26.0104 44.6425 26.2871 43.839L30.5743 30.9291L34.8616 43.839C35.6361 46.1662 38.1532 47.4405 40.5042 46.6649C42.7723 45.8614 44.0447 43.3681 43.2702 41.041Z" fill="#FBAF1A"/>
<path d="M12.1797 26.1918C12.1797 26.6905 12.2627 27.1614 12.401 27.5769C12.9818 29.3777 14.6691 30.6797 16.6329 30.6797H30.214L19.3159 38.8247C17.3521 40.293 16.9648 43.0911 18.4032 45.0581C19.8691 47.025 22.6351 47.4682 24.599 45.9999L46.2291 29.8487C47.3355 29.0175 47.9993 27.6878 47.9993 26.2749C47.9993 26.2472 47.9993 26.2472 47.9993 26.2195V26.1918C47.9993 25.9701 47.9716 25.7485 47.9163 25.4991C47.9163 25.4714 47.9163 25.4714 47.9163 25.4437C47.9163 25.416 47.9163 25.3606 47.8886 25.3052C47.861 25.1944 47.8333 25.0559 47.778 24.945L47.7503 24.862L47.7227 24.7789C47.695 24.6681 47.6397 24.5573 47.612 24.4464C47.5844 24.391 47.5567 24.3633 47.5567 24.3356C47.5567 24.3079 47.5291 24.3079 47.5291 24.2802C47.4184 24.0586 47.2802 23.8369 47.1694 23.6707L47.1418 23.643L47.1141 23.6153C46.2567 22.4794 44.929 21.7869 43.5461 21.7869L16.6053 21.7314C14.1435 21.7314 12.1797 23.7538 12.1797 26.1918Z" fill="url(#paint0_linear_476_748)"/>
<defs>
<linearGradient id="paint0_linear_476_748" x1="12.1797" y1="34.3044" x2="47.994" y2="34.3044" gradientUnits="userSpaceOnUse">
<stop stop-color="#E5A812"/>
<stop offset="0.3297" stop-color="#FFCB05"/>
<stop offset="0.7386" stop-color="#FFF200"/>
<stop offset="1" stop-color="#FFF200"/>
</linearGradient>
</defs>
</svg>
