<svg width="60" height="60" viewBox="0 0 60 60" fill="none" xmlns="http://www.w3.org/2000/svg">
<rect width="60" height="60" fill="white"/>
<path d="M28.7197 24.512C28.7197 23.13 29.9711 22.077 31.2883 22.2745C38.4674 23.3932 43.9997 29.5793 43.9997 37.0816C43.9997 48.7957 34.5814 51.3623 30.498 51.8889C29.51 52.0205 28.6538 51.2307 28.6538 50.2436C28.7197 50.3094 28.7197 31.2904 28.7197 24.512Z" fill="#462A71"/>
<path d="M16.8643 38.0687H23.5823C26.4144 38.0687 28.7196 35.7654 28.7196 32.9357V9.77061C28.7196 8.84928 27.9951 8.12537 27.073 8.12537H23.9116C19.1036 8.12537 15.1519 12.0082 15.1519 16.8781V36.3578C15.1519 37.2791 15.8763 38.0687 16.8643 38.0687Z" fill="#FA6300"/>
</svg>
