<svg width="130" height="60" viewBox="0 0 130 60" fill="none" xmlns="http://www.w3.org/2000/svg">
<rect width="130" height="60" fill="white"/>
<mask id="mask0_48_29" style="mask-type:luminance" maskUnits="userSpaceOnUse" x="21" y="11" width="88" height="38">
<path d="M109 11.9034H21.5967V48.0966H109V11.9034Z" fill="white"/>
</mask>
<g mask="url(#mask0_48_29)">
<path d="M81.9412 20.9028C79.6309 20.9028 78.182 21.7636 76.7722 23.9548C75.7541 21.6071 73.9527 20.942 72.2298 20.942C70.8984 20.942 69.1361 21.3724 68.1571 23.1331L67.9222 21.8419C67.8831 21.5289 67.5698 21.2941 67.2565 21.2941H64.5153C64.1629 21.2941 63.8496 21.6071 63.8496 21.9593V36.7887C63.8496 37.1408 64.1629 37.4539 64.5153 37.4539H67.6873C68.0397 37.4539 68.353 37.1408 68.353 36.7887V28.8067C68.353 26.9676 69.2928 25.2461 71.0941 25.2461C72.9346 25.2461 73.8353 26.6547 73.8353 28.7675V36.7887C73.8353 37.1408 74.1485 37.4539 74.501 37.4539H77.6337C77.9862 37.4539 78.2994 37.1408 78.2994 36.7887V28.8067C78.2994 26.9676 79.1217 25.3633 80.9231 25.3633C82.7635 25.3633 83.5467 26.6938 83.5467 28.7284V36.7887C83.5467 37.1408 83.8601 37.4539 84.2124 37.4539H87.4235C87.7759 37.4539 88.0892 37.1408 88.0892 36.7887V28.611C88.1284 22.5853 85.1915 20.9028 81.9412 20.9028Z" fill="#FA6300"/>
<path d="M53.1592 20.7853C51.2404 20.7853 49.3999 21.3722 48.0293 23.0939V14.1727C48.0293 13.7815 47.716 13.5076 47.3636 13.5076H43.9177C43.526 13.5076 43.252 13.8206 43.252 14.1727V36.7886C43.252 37.1799 43.5652 37.4538 43.9177 37.4538H46.9329C47.2853 37.4538 47.5595 37.219 47.5986 36.8669L47.8335 35.38C49.3607 37.3364 51.2013 37.8059 53.2767 37.8059C58.0933 37.8059 61.3435 34.4018 61.3435 29.3152C61.3044 23.9938 57.9758 20.7853 53.1592 20.7853ZM52.6502 33.5018C50.3398 33.5018 48.46 31.6238 48.46 29.3152C48.46 27.0066 50.3398 25.1285 52.6502 25.1285C54.9605 25.1285 56.8402 27.0066 56.8402 29.3152C56.8794 31.6238 54.9996 33.5018 52.6502 33.5018Z" fill="#FA6300"/>
<path d="M78.8473 13.2338C78.1425 13.2338 77.6725 13.5468 77.4376 13.899V12.6077V12.373V12.0208C77.4376 11.9426 77.3985 11.9034 77.3201 11.9034H76.9676H76.8894H76.5369C76.4586 11.9034 76.4194 11.9426 76.4194 12.0208V12.6077V16.8335V17.3422V17.6944C76.4194 17.7726 76.4586 17.8117 76.5369 17.8117H77.2418C77.3201 17.8117 77.3593 17.7726 77.3593 17.6944V17.3422V17.0683C77.6333 17.5378 78.1817 17.8117 78.8473 17.8117C80.1787 17.8117 80.9228 16.7553 80.9228 15.5032C80.9228 14.2511 80.1787 13.2338 78.8473 13.2338ZM78.6515 16.9118C77.8683 16.9118 77.3985 16.2857 77.3985 15.5032C77.3985 14.6815 77.8683 14.0946 78.6515 14.0946C79.4347 14.0946 79.9046 14.7206 79.9046 15.5032C79.9046 16.3249 79.4347 16.9118 78.6515 16.9118Z" fill="#FA6300"/>
<path d="M89.7342 13.2338C88.9902 13.2338 88.5595 13.5859 88.3637 13.8989V13.4685C88.3637 13.3903 88.3245 13.3512 88.2462 13.3512H87.9329H87.8937H87.8545H87.5413C87.463 13.3512 87.4238 13.3903 87.4238 13.4685V13.8207V14.0163V17.1465V17.3813V17.7335C87.4238 17.8117 87.463 17.8509 87.5413 17.8509H87.8937H87.972H88.3245C88.4028 17.8509 88.442 17.8117 88.442 17.7335V17.3813V15.1902C88.442 14.4859 88.8336 14.0946 89.4993 14.0946C89.9692 14.0946 90.3608 14.4859 90.3608 14.9945V17.3813V17.6943C90.3608 17.7726 90.3999 17.8117 90.4783 17.8117H90.8307H90.909H91.2615C91.3398 17.8117 91.379 17.7726 91.379 17.6943V17.3422V17.1074V14.9554C91.379 13.9381 90.7915 13.2338 89.7342 13.2338Z" fill="#FA6300"/>
<path d="M94.5114 14.1338C95.0204 14.1338 95.412 14.4077 95.5686 14.8381C95.5686 14.8381 95.5686 14.8381 95.5686 14.8772C95.5686 14.9163 95.647 14.9554 95.6861 14.9554H95.7253H95.9211H96.4301C96.5085 14.9554 96.5476 14.9163 96.5476 14.8381C96.5476 14.8381 96.5476 14.6033 96.3518 14.2511C96.3518 14.2511 96.3518 14.2511 96.3518 14.212C96.3518 14.212 96.3518 14.1729 96.3127 14.1729C96.0777 13.7816 95.7253 13.586 95.7253 13.586C95.412 13.3903 95.0204 13.2729 94.5114 13.2729C93.1799 13.2729 92.2793 14.2903 92.2793 15.5815C92.2793 16.8336 93.1799 17.89 94.5114 17.89C94.9813 17.89 95.3728 17.7726 95.7253 17.577C95.7253 17.577 96.0777 17.3814 96.3127 16.9901C96.3127 16.9901 96.3126 16.951 96.3518 16.951C96.3518 16.951 96.3518 16.9118 96.391 16.9118C96.391 16.9118 96.391 16.9118 96.391 16.8727C96.5868 16.5597 96.5868 16.2858 96.5868 16.2858C96.5868 16.2075 96.5476 16.1684 96.4693 16.1684H95.6861C95.6078 16.1684 95.5686 16.2075 95.5686 16.2466C95.5686 16.2466 95.5686 16.2466 95.5686 16.2858C95.412 16.6771 95.0204 16.9901 94.5114 16.9901C93.7674 16.9901 93.2974 16.4032 93.2974 15.5815C93.2974 14.6815 93.7674 14.1338 94.5114 14.1338Z" fill="#FA6300"/>
<path d="M99.6019 13.2338C98.1922 13.2338 97.2915 14.2902 97.2915 15.5423C97.2915 16.7944 98.1922 17.8509 99.6019 17.8509C101.012 17.8509 101.912 16.7944 101.912 15.5423C101.912 14.2902 101.012 13.2338 99.6019 13.2338ZM99.6019 16.9118C98.8579 16.9118 98.3096 16.364 98.3096 15.5032C98.3096 14.6424 98.8579 14.0946 99.6019 14.0946C100.346 14.0946 100.894 14.6424 100.894 15.5032C100.894 16.364 100.346 16.9118 99.6019 16.9118Z" fill="#FA6300"/>
<path d="M86.0533 13.3512H85.3485C85.2701 13.3512 85.231 13.3903 85.231 13.4685V13.9772C84.9568 13.5077 84.4086 13.2338 83.7429 13.2338C82.4115 13.2338 81.6675 14.2902 81.6675 15.5423C81.6675 16.7944 82.4115 17.8509 83.7429 17.8509C84.4478 17.8509 84.9568 17.5769 85.231 17.1074V17.1857V17.7335C85.231 17.8117 85.2701 17.8509 85.3485 17.8509H86.0533C86.1315 17.8509 86.1707 17.8117 86.1707 17.7335V17.3813V17.1857V13.9772V13.8207V13.4685C86.1707 13.3903 86.0925 13.3512 86.0533 13.3512ZM83.8996 16.9118C83.1164 16.9118 82.6464 16.2857 82.6464 15.5032C82.6464 14.7206 83.1164 14.0946 83.8996 14.0946C84.6826 14.0946 85.1526 14.7206 85.1526 15.5032C85.1918 16.3249 84.6826 16.9118 83.8996 16.9118Z" fill="#FA6300"/>
<path d="M29.6637 22.4287C29.6637 21.6071 30.4077 20.981 31.1909 21.0984C35.4592 21.7636 38.7486 25.4416 38.7486 29.9021C38.7486 36.8668 33.1488 38.3928 30.721 38.7059C30.1336 38.7842 29.6245 38.3146 29.6245 37.7277C29.6637 37.7668 29.6637 26.4589 29.6637 22.4287Z" fill="#462A71"/>
<path d="M22.6148 30.489H26.6091C28.2929 30.489 29.6635 29.1196 29.6635 27.4371V13.6641C29.6635 13.1163 29.2327 12.6859 28.6845 12.6859H26.8049C23.9462 12.6859 21.5967 14.9945 21.5967 17.8899V29.4718C21.5967 30.0195 22.0274 30.489 22.6148 30.489Z" fill="#FA6300"/>
<path d="M105.123 35.3019C107.551 34.0497 108.648 31.8194 108.726 29.4327C108.726 27.4371 108.217 25.7938 107.316 24.4635L108.844 22.7027C109.079 22.3897 109.039 21.9592 108.726 21.7245L106.259 19.8463C105.946 19.6116 105.515 19.6898 105.28 20.0029L103.988 21.7245C102.696 21.1376 101.286 20.8245 99.7978 20.8245C95.0986 20.8245 90.752 23.6809 90.752 29.3935C90.752 34.5976 94.3154 37.8451 99.837 37.8451C102.852 37.8451 103.909 39.0972 103.909 40.7406C103.909 42.8143 101.952 43.8317 99.7586 43.8317C97.6832 43.8317 95.9993 43.1274 95.6078 41.0145C95.5686 40.7014 95.2553 40.4666 94.9421 40.4666H91.6918C91.3003 40.4666 90.9869 40.8188 90.9869 41.2101C91.2219 45.5924 94.2372 48.1749 99.7195 48.1749C104.34 48.1749 108.804 45.7489 108.804 40.7797C108.844 39.7233 108.844 36.9843 105.123 35.3019ZM99.7586 33.4628C97.4482 33.4628 95.5686 31.5847 95.5686 29.2761C95.5686 26.9676 97.4482 25.0895 99.7586 25.0895C102.069 25.0895 103.949 26.9676 103.949 29.2761C103.949 31.5847 102.069 33.4628 99.7586 33.4628Z" fill="#FA6300"/>
</g>
</svg>
