<svg width="60" height="60" viewBox="0 0 60 60" fill="none" xmlns="http://www.w3.org/2000/svg">
<rect width="60" height="60" fill="#082A4D"/>
<g clip-path="url(#clip0_308_104)">
<path d="M18.6821 27.501H17.0989C17.009 27.501 16.937 27.5729 16.937 27.6627V36.5577C16.937 36.6476 17.009 36.7194 17.0989 36.7194H18.6821C18.772 36.7194 18.844 36.6476 18.844 36.5577V27.6627C18.844 27.5729 18.772 27.501 18.6821 27.501Z" fill="white"/>
<path d="M46.4055 33.6286L48.3844 29.4416L50.4171 33.6286H46.4055ZM53.8173 36.5397L49.4457 27.6267C49.4099 27.5368 49.3197 27.4829 49.2297 27.4829H47.5209C47.431 27.4829 47.3407 27.5368 47.3049 27.6267L43.059 36.5397C43.0232 36.6115 43.0773 36.7194 43.1672 36.7194H44.8223C44.9122 36.7194 45.0021 36.6655 45.038 36.5756L45.7038 35.156H51.1729L51.8566 36.5756C51.8924 36.6655 51.9824 36.7194 52.0723 36.7194H53.7095C53.7994 36.7194 53.8535 36.6295 53.8173 36.5397Z" fill="white"/>
<path d="M39.6591 31.4543C39.5692 31.6699 39.4253 31.8496 39.2453 31.9934C39.0654 32.1372 38.8316 32.2629 38.5617 32.3348C38.2918 32.4247 37.986 32.4606 37.6262 32.4606H34.7118V29.1183H37.6262C38.3458 29.1183 38.8856 29.262 39.2453 29.5315C39.6052 29.8191 39.785 30.2144 39.785 30.7175C39.8031 31.0051 39.7491 31.2387 39.6591 31.4543ZM40.7745 28.3635C40.4327 28.076 39.9829 27.8783 39.4612 27.7166C38.9395 27.5729 38.3099 27.501 37.5902 27.501H32.9847C32.8947 27.501 32.8228 27.5729 32.8228 27.6627V36.5577C32.8228 36.6476 32.8947 36.7194 32.9847 36.7194H34.5498C34.6398 36.7194 34.7118 36.6476 34.7118 36.5577V34.0959H37.5902H37.6442L39.3353 36.6116C39.3893 36.6835 39.4612 36.7194 39.5332 36.7194H41.4941C41.584 36.7194 41.656 36.6116 41.6023 36.5218L39.6951 33.7544C40.0549 33.6286 40.3608 33.449 40.6306 33.2513C40.9005 33.0536 41.1164 32.82 41.2781 32.5504C41.4583 32.2989 41.584 32.0114 41.656 31.7059C41.7459 31.4004 41.7821 31.0769 41.7821 30.7355C41.7821 30.2324 41.6922 29.7651 41.5303 29.3698C41.3863 28.9745 41.1164 28.6331 40.7745 28.3635Z" fill="white"/>
<path d="M28.3071 34.7607C28.0373 34.9763 27.6595 35.0841 27.1378 35.0841H23.2698V32.6043H27.1378C27.6415 32.6043 28.0373 32.7121 28.3071 32.9277C28.577 33.1434 28.7029 33.4489 28.7029 33.8442C28.7029 34.2396 28.577 34.545 28.3071 34.7607ZM23.2698 29.1361H26.4181C26.9218 29.1361 27.3176 29.226 27.5875 29.4057C27.8574 29.5854 27.9833 29.8549 27.9833 30.1784C27.9833 30.1784 27.9833 30.1784 27.9833 30.1963C27.9833 30.6636 27.5695 31.0409 27.1018 31.0409H23.2698V29.1361ZM29.4225 31.562C29.8004 31.1128 29.9802 30.6096 29.9802 30.0166C29.9802 29.6573 29.9083 29.3338 29.7644 29.0103C29.6204 28.7049 29.4045 28.4353 29.0987 28.2017C28.7929 27.9861 28.4151 27.8064 27.9653 27.6806C27.5155 27.5548 26.9758 27.4829 26.3642 27.4829H21.5247C21.4348 27.4829 21.3628 27.5548 21.3628 27.6446V36.5397C21.3628 36.6295 21.4348 36.7014 21.5247 36.7014H27.0838C27.6954 36.7014 28.2352 36.6295 28.6849 36.5037C29.1347 36.378 29.5125 36.1803 29.8183 35.9287C30.1242 35.6771 30.3401 35.3896 30.484 35.0482C30.6279 34.7068 30.6999 34.3114 30.6999 33.8801C30.6999 33.377 30.5919 32.9098 30.376 32.5144C30.1781 32.1371 29.8543 31.8136 29.4225 31.562Z" fill="white"/>
<path d="M8.40975 24.5899C8.40975 24.3923 8.26582 24.3024 7.97797 24.3024H7.34831V24.8775H7.97797C8.24783 24.8595 8.40975 24.7876 8.40975 24.5899ZM7.34831 23.368V23.9071H7.88802C8.15788 23.9071 8.3018 23.8172 8.3018 23.6375C8.3018 23.4578 8.15788 23.368 7.88802 23.368H7.34831ZM8.94946 24.6438C8.94946 25.0392 8.62563 25.2728 8.01396 25.2728H6.80859V22.9727H7.942C8.51769 22.9727 8.82353 23.2063 8.82353 23.5657C8.82353 23.7993 8.69759 23.979 8.51769 24.0688C8.76956 24.1587 8.94946 24.3563 8.94946 24.6438Z" fill="white"/>
<path d="M11.2522 24.3743L10.8744 23.4938L10.5146 24.3743H11.2522ZM11.4141 24.7696H10.3347L10.1368 25.2728H9.5791L10.6225 22.9727H11.1623L12.1877 25.2728H11.63L11.4141 24.7696Z" fill="white"/>
<path d="M15.1379 22.9727V25.2728H14.6882L13.5188 23.8711V25.2728H12.9971V22.9727H13.4468L14.5982 24.3743V22.9727H15.1379Z" fill="white"/>
<path d="M16.0918 24.1225C16.0918 23.4397 16.6315 22.9365 17.3511 22.9365C17.7469 22.9365 18.0888 23.0803 18.3046 23.3498L17.9628 23.6553C17.8009 23.4756 17.603 23.3858 17.3691 23.3858C16.9374 23.3858 16.6315 23.6913 16.6315 24.1225C16.6315 24.5538 16.9374 24.8593 17.3691 24.8593C17.603 24.8593 17.8009 24.7694 17.9628 24.5897L18.3046 24.8952C18.0888 25.1648 17.7469 25.3085 17.3511 25.3085C16.6315 25.3085 16.0918 24.8054 16.0918 24.1225Z" fill="white"/>
<path d="M21.0208 24.1225C21.0208 23.6913 20.715 23.3858 20.3012 23.3858C19.8875 23.3858 19.5816 23.6913 19.5816 24.1225C19.5816 24.5538 19.8875 24.8593 20.3012 24.8593C20.715 24.8593 21.0208 24.5538 21.0208 24.1225ZM19.0239 24.1225C19.0239 23.4397 19.5636 22.9365 20.3012 22.9365C21.0388 22.9365 21.5785 23.4397 21.5785 24.1225C21.5785 24.8054 21.0388 25.3085 20.3012 25.3085C19.5636 25.3085 19.0239 24.8054 19.0239 24.1225Z" fill="white"/>
<path d="M14.9583 27.501H6.97051C6.88056 27.501 6.80859 27.5729 6.80859 27.6627V29.28C6.80859 29.3698 6.88056 29.4417 6.97051 29.4417H14.0767C14.1667 29.4417 14.2567 29.3878 14.2926 29.2979L15.0662 27.6807C15.1022 27.5908 15.0482 27.501 14.9583 27.501Z" fill="white"/>
<path d="M11.3962 31.508C11.3602 31.4181 11.2702 31.3643 11.1803 31.3643H8.71558H6.80859V31.526V33.1432V34.9582V35.659V36.5755C6.80859 36.6653 6.88056 36.7372 6.97051 36.7372H8.55367C8.64362 36.7372 8.71558 36.6653 8.71558 36.5755V35.659V34.9582V33.305H12.0618C12.1518 33.305 12.2057 33.2152 12.1698 33.1253L11.3962 31.508Z" fill="white"/>
</g>
<defs>
<clipPath id="clip0_308_104">
<rect width="47.1915" height="14.1274" fill="white" transform="translate(6.80859 22.9365)"/>
</clipPath>
</defs>
</svg>
