<svg width="60" height="60" viewBox="0 0 60 60" fill="none" xmlns="http://www.w3.org/2000/svg">
<rect width="60" height="60" fill="white"/>
<path d="M10 11V27.4069C10 39.6448 20.0619 49.5966 32.5712 49.5966H49.1597V11H10ZM36.9223 37.4931H22.5094V23.2379H37.0583V37.4931H36.9223Z" fill="#292A60"/>
<path d="M27.8122 49.3276C22.9173 48.9241 10 42.6035 10 28.2138C10 20.5483 10 11 10 11H22.5094C22.5094 11 22.5094 29.0207 22.5094 34.2655C22.5094 44.8897 27.8122 49.3276 27.8122 49.3276Z" fill="#CC163F"/>
<path d="M12.0391 37.3586C12.0391 37.3586 17.07 49.5966 31.6189 49.5966C39.5052 49.5966 49.1592 49.7311 49.1592 49.7311V37.3586H12.0391Z" fill="#840029"/>
</svg>
