<svg width="130" height="60" viewBox="0 0 130 60" fill="none" xmlns="http://www.w3.org/2000/svg">
<rect width="130" height="60" fill="white"/>
<mask id="mask0_476_784" style="mask-type:luminance" maskUnits="userSpaceOnUse" x="12" y="19" width="107" height="22">
<path d="M118.615 19H12V41H118.615V19Z" fill="white"/>
</mask>
<g mask="url(#mask0_476_784)">
<path d="M12 19V28.2552C12 35.1586 17.6759 40.7724 24.7325 40.7724H34.0901V19H12ZM27.1869 33.9448H19.0566V25.9034H27.2636V33.9448H27.1869Z" fill="#292A60"/>
<path d="M22.0479 40.6207C19.2867 40.3931 12 36.8276 12 28.7103C12 24.3862 12 19 12 19H19.0566C19.0566 19 19.0566 29.1655 19.0566 32.1241C19.0566 38.1172 22.0479 40.6207 22.0479 40.6207Z" fill="#CC163F"/>
<path d="M13.1504 33.869C13.1504 33.869 15.9884 40.7725 24.1954 40.7725C28.6441 40.7725 34.09 40.8483 34.09 40.8483V33.869H13.1504Z" fill="#840029"/>
<path d="M71.2128 39.7862C69.9855 40.469 68.3748 40.7724 66.3805 40.7724C63.8494 40.7724 61.7784 40.0138 60.2444 38.4966C58.7104 36.9793 57.9434 35.0069 57.9434 32.5035C57.9434 29.9241 58.6337 27.8759 60.0143 26.3586C61.3949 24.8414 63.1591 24.0828 65.3067 24.0828C67.3777 24.0828 69.0651 24.7655 70.2923 26.0552C71.5196 27.3448 72.1332 29.2414 72.1332 31.669C72.1332 32.3517 72.0565 33.0345 71.9031 33.7172H61.1648C61.3949 35.1586 62.0085 36.2207 63.0057 36.9793C64.0028 37.7379 65.3067 38.1172 66.7641 38.1172C68.5282 38.1172 69.9855 37.7379 71.1361 36.9035V39.7103H71.2128V39.7862ZM65.4601 26.8138C64.3863 26.8138 63.4659 27.1931 62.6222 28.0276C61.8551 28.7862 61.3182 29.9241 61.1648 31.4414H69.1418V30.8345C69.0651 29.6207 68.7583 28.6345 68.1447 27.9517C67.5311 27.1931 66.6874 26.8138 65.4601 26.8138Z" fill="#292A60"/>
<path d="M87.706 40.0896C86.6322 40.7724 85.2516 41.0758 83.6408 41.0758C81.033 41.0758 79.0387 40.2413 77.428 38.6482C75.894 37.0551 75.127 35.0068 75.127 32.6551C75.127 30.3034 75.894 28.331 77.428 26.662C78.962 24.9931 81.033 24.1586 83.7175 24.1586C85.1749 24.1586 86.4788 24.462 87.6293 25.0689V27.9517C86.5555 27.2689 85.3283 26.9655 84.0244 26.9655C82.2602 26.9655 80.9563 27.4965 79.8825 28.5586C78.8853 29.6206 78.3484 30.9862 78.3484 32.6551C78.4251 34.2482 78.8853 35.6896 79.8825 36.7517C80.8796 37.8137 82.2602 38.3448 83.9477 38.3448C85.2516 38.3448 86.4788 37.9655 87.5526 37.2827L87.706 40.0896Z" fill="#292A60"/>
<path d="M102.968 40.0896C101.894 40.7724 100.513 41.0758 98.9026 41.0758C96.2947 41.0758 94.3005 40.2413 92.6897 38.6482C91.1557 37.0551 90.3887 35.0068 90.3887 32.6551C90.3887 30.3034 91.1557 28.331 92.6897 26.662C94.2238 24.9931 96.2947 24.1586 98.9793 24.1586C100.437 24.1586 101.741 24.462 102.891 25.0689V27.9517C101.817 27.2689 100.59 26.9655 99.2861 26.9655C97.5219 26.9655 96.218 27.4965 95.1442 28.5586C94.0704 29.6206 93.6101 30.9862 93.6101 32.6551C93.6868 34.2482 94.1471 35.6896 95.1442 36.7517C96.1413 37.8137 97.5219 38.3448 99.2094 38.3448C100.513 38.3448 101.741 37.9655 102.814 37.2827L102.968 40.0896Z" fill="#292A60"/>
<path d="M111.022 40.7724C109.488 40.7724 108.184 40.3172 107.263 39.4068C106.343 38.4965 105.883 37.3586 105.883 35.9931C105.883 34.4758 106.496 33.1862 107.647 32.3517C108.874 31.5172 110.485 31.062 112.633 31.062H115.394V30.1517C115.394 29.0137 115.087 28.1793 114.55 27.6482C114.013 27.0413 113.093 26.8137 111.866 26.8137C110.101 26.8137 108.491 27.2689 107.11 28.2551V25.2206C108.414 24.462 110.101 24.1586 112.172 24.1586C116.544 24.1586 118.692 26.2068 118.692 30.3793V40.6965C118.615 40.6965 113.093 40.7724 111.022 40.7724ZM112.019 38.3448C113.016 38.3448 115.394 38.3448 115.394 38.3448L115.317 33.4137H112.863C111.635 33.4137 110.715 33.6413 110.101 34.0965C109.488 34.5517 109.181 35.1586 109.181 35.9172C109.181 36.6758 109.411 37.2827 109.871 37.662C110.408 38.1172 111.099 38.3448 112.019 38.3448Z" fill="#292A60"/>
<path d="M46.5931 37.5104V19.0759H43.2949V38.1932C43.2949 39.5587 44.4454 40.6966 45.8261 40.6966L55.4905 40.7725V37.5863L46.5931 37.5104Z" fill="#292A60"/>
</g>
</svg>
