<svg width="60" height="60" viewBox="0 0 60 60" fill="none" xmlns="http://www.w3.org/2000/svg">
<rect width="60" height="60" fill="#255BE3"/>
<path d="M6 32.1214C6 27.3169 9.93804 23.5766 15.0704 23.5766C18.0401 23.5766 20.7515 24.8986 22.3009 26.8977L20.0736 29.1227C19.4829 28.3671 18.7291 27.7543 17.8684 27.33C17.0078 26.9057 16.0624 26.6808 15.1027 26.672C12.0362 26.672 9.58297 28.9615 9.58297 32.1214C9.58297 35.3137 12.0362 37.6031 15.1027 37.6031C16.0967 37.6018 17.0771 37.3713 17.9673 36.9294C18.8576 36.4876 19.6336 35.8464 20.235 35.0558L22.43 37.2161C20.9452 39.312 18.1046 40.6985 15.0704 40.6985C9.93804 40.6985 6 36.9582 6 32.1214Z" fill="white"/>
<path d="M25.3354 24.1568H28.8538V40.118H25.3354V24.1568Z" fill="white"/>
<path d="M35.4062 35.83V27.124H31.5649V24.1575H35.5675V20.7395L38.8601 19.1272V24.1575H44.0892V27.124H38.8601V35.2496C38.8601 36.8619 39.7638 37.5713 41.4746 37.5713C42.3648 37.5759 43.2455 37.3889 44.057 37.0231V40.0541C43.0403 40.4997 41.939 40.7198 40.8291 40.699C37.698 40.699 35.4062 38.9901 35.4062 35.83Z" fill="white"/>
<path d="M46.8652 24.1568H50.3837V40.118H46.8652V24.1568Z" fill="white"/>
<path d="M37.8272 14.0001C40.7168 13.9932 43.5656 14.681 46.1331 16.0055C48.7006 17.33 50.9114 19.2522 52.5787 21.6098H48.4792C47.1356 20.1179 45.4929 18.9249 43.6578 18.1083C41.8226 17.2917 39.8361 16.8697 37.8272 16.8697C35.8182 16.8697 33.8317 17.2917 31.9965 18.1083C30.1614 18.9249 28.5187 20.1179 27.1751 21.6098H23.0757C24.743 19.2522 26.9537 17.33 29.5212 16.0055C32.0887 14.681 34.9375 13.9932 37.8272 14.0001Z" fill="#FF3C28"/>
</svg>
