<svg width="60" height="60" viewBox="0 0 60 60" fill="none" xmlns="http://www.w3.org/2000/svg">
<rect width="60" height="60" fill="white"/>
<path d="M7 35.1214C7 30.3169 10.938 26.5766 16.0704 26.5766C19.0401 26.5766 21.7515 27.8986 23.3009 29.8977L21.0736 32.1227C20.4829 31.3671 19.7291 30.7543 18.8684 30.33C18.0078 29.9057 17.0624 29.6808 16.1027 29.672C13.0362 29.672 10.583 31.9615 10.583 35.1214C10.583 38.3137 13.0362 40.6031 16.1027 40.6031C17.0967 40.6018 18.0771 40.3713 18.9673 39.9294C19.8576 39.4876 20.6336 38.8464 21.235 38.0558L23.43 40.2161C21.9452 42.312 19.1046 43.6985 16.0704 43.6985C10.938 43.6985 7 39.9582 7 35.1214Z" fill="#255BE3"/>
<path d="M26.3354 27.1568H29.8538V43.118H26.3354V27.1568Z" fill="#255BE3"/>
<path d="M36.4062 38.83V30.124H32.5649V27.1575H36.5675V23.7395L39.8601 22.1272V27.1575H45.0892V30.124H39.8601V38.2496C39.8601 39.8619 40.7638 40.5713 42.4746 40.5713C43.3648 40.5759 44.2455 40.3889 45.057 40.0231V43.0541C44.0403 43.4997 42.939 43.7198 41.8291 43.699C38.698 43.699 36.4062 41.9901 36.4062 38.83Z" fill="#255BE3"/>
<path d="M47.8652 27.1568H51.3837V43.118H47.8652V27.1568Z" fill="#255BE3"/>
<path d="M38.8272 17.0001C41.7168 16.9932 44.5656 17.681 47.1331 19.0055C49.7006 20.33 51.9114 22.2522 53.5787 24.6098H49.4792C48.1356 23.1179 46.4929 21.9249 44.6578 21.1083C42.8226 20.2917 40.8361 19.8697 38.8272 19.8697C36.8182 19.8697 34.8317 20.2917 32.9965 21.1083C31.1614 21.9249 29.5187 23.1179 28.1751 24.6098H24.0757C25.743 22.2522 27.9537 20.33 30.5212 19.0055C33.0887 17.681 35.9375 16.9932 38.8272 17.0001Z" fill="#FF3C28"/>
</svg>
