<svg width="60" height="60" viewBox="0 0 60 60" fill="none" xmlns="http://www.w3.org/2000/svg">
<rect width="60" height="60" fill="white"/>
<path d="M47.657 22.5269C47.657 22.5269 50.6123 22.9761 50.6123 28.9904C50.6123 31.8554 47.6318 35.7346 47.6318 35.7346C47.6318 35.7346 39.7962 41.5937 33.5362 41.4566C26.4803 41.3016 21.7529 40.7936 16.2438 39.042C12.3296 37.7975 10.5794 35.615 10.5794 35.615L11.1184 33.71L9.35596 25.7671L13.7642 21.5128L25.4574 18.3688L38.8203 19.1999L43.6577 20.8311L47.657 22.5269Z" fill="#19255F"/>
<path d="M31.9239 29.2267C33.3683 27.1385 33.9507 26.5716 34.5549 26.5716C35.1865 26.5716 35.4076 26.9997 35.292 28.3549C35.2418 28.9415 34.9666 30.3632 34.8509 31.7173C34.7868 32.4664 34.7885 33.1717 34.7999 33.5803C34.8066 33.6822 34.8349 33.9387 34.8584 34.2046C34.8819 34.4721 34.8994 34.7396 34.8875 34.8767C34.8551 35.2581 33.9449 35.8187 33.5199 35.8187C32.7252 35.8187 32.2041 34.5222 32.3711 32.5684C32.4078 32.1421 32.4535 31.7833 32.5952 31.0206L32.4743 30.949C30.8146 33.1168 30.4244 34.0877 29.3045 35.6908C29.0898 35.9502 28.897 36.0669 28.6948 36.0669C28.1343 36.0669 27.7565 35.3804 27.8522 34.2609C27.9964 32.5742 29.2625 27.4497 30.4466 25.8441C30.6952 25.5191 30.9515 25.3754 31.2498 25.3754C31.6832 25.3754 31.9183 25.8064 31.8357 26.775C31.7664 27.5841 31.5919 28.5502 31.2607 29.9205L31.3824 29.9944L31.9239 29.2267Z" fill="white"/>
<path d="M28.2458 28.0732C28.3813 26.5836 27.8766 25.6858 26.9103 25.6858C25.7854 25.6858 24.1844 26.7372 23.0169 28.774C22.222 30.1976 21.5991 31.9934 21.4837 33.2636C21.3262 34.9939 22.0525 36.0669 23.3358 36.0669C25.0945 36.0669 27.6384 33.362 27.6232 32.8326C27.6165 32.5904 27.4376 32.2561 27.1366 32.2561C27.0097 32.2561 26.7384 32.4533 26.3577 32.8037C25.6841 33.417 25.1418 33.8162 24.7671 33.7454C24.2106 33.6402 24.2478 32.9123 24.3747 32.371C24.4904 32.5234 24.651 32.5349 24.7935 32.5349C25.8551 32.5349 28.0226 30.5261 28.2458 28.0732ZM26.2396 27.8321C26.198 28.292 26.0669 29.9116 25.0026 31.5105C24.8728 31.7238 24.6997 31.8453 24.6032 31.8126C24.4827 31.772 24.4636 31.6322 24.5016 31.2573C24.6816 29.4855 25.7707 27.2408 26.1191 27.2408C26.23 27.2408 26.2735 27.4599 26.2396 27.8321Z" fill="white"/>
<path d="M15.8016 26.1366C15.6092 26.8843 16.019 27.8159 16.7544 28.3998C17.494 28.9871 18.6305 29.7121 19.3087 30.2646C20.8261 31.5012 21.3693 32.6928 21.2505 33.8553C21.1329 35.0049 20.5201 35.9115 18.3492 36.6688C15.8755 37.5313 11.6561 36.644 9.07943 34.5112C8.47634 34.0122 7.38686 32.9283 7.51647 32.2048C7.59573 31.7635 7.85452 31.3737 8.40685 32.1598C8.88055 32.8341 9.38836 33.6281 10.1248 34.1168C11.6668 35.1399 12.3603 35.3513 13.7533 35.333C15.0548 35.3159 17.3066 34.7748 17.4048 33.1858C17.4393 32.6252 17.2583 31.9345 15.7675 30.8068C15.3739 30.5091 14.8401 30.2736 13.8567 29.4036C12.7013 28.3815 12.4148 27.6607 12.4148 26.592C12.4148 25.816 12.9784 24.4596 14.2701 23.6778C16.1305 22.5515 19.0293 22.2593 21.4568 23.2564C22.2682 23.5894 22.6229 24.1963 22.5085 24.4486C22.3429 24.8129 21.8717 24.6658 21.3112 24.5512C18.0318 23.8813 16.1767 24.6772 15.8016 26.1366Z" fill="white"/>
<path d="M12.074 35.1009C11.0611 34.8887 9.46779 33.9771 8.56534 32.7549C7.11284 30.7875 6.45254 28.6281 7.54243 26.3164C10.5641 19.9088 23.0006 16.6907 36.4082 18.4993C40.5128 19.0827 45.2865 20.3956 48.5768 22.7682C51.876 25.167 53.4872 27.812 53.0208 30.8518C52.2424 35.9282 45.0238 39.097 43.1831 39.7946C39.5448 41.1738 34.7282 42.546 25.4935 41.7798C21.0299 41.4097 15.9002 39.4426 12.7341 37.5861C11.3986 36.7985 10.0305 35.7961 9.54997 35.2151C9.17384 34.7599 9.04881 34.5756 9.52313 34.8367C10.2795 35.343 11.0264 35.8088 11.7643 36.2376C19.4855 40.7228 26.2233 41.1152 32.8598 40.6839C36.3479 40.4574 40.4749 39.4164 42.5752 38.3858C44.1517 37.6121 48.5626 35.1962 49.6879 31.5163C50.4243 29.2314 49.9631 24.3012 43.0653 21.484C38.753 19.7228 36.2445 19.1162 31.2827 18.9791C23.1205 18.7533 16.9358 20.3238 13.9938 22.2377C11.5648 23.8177 10.5487 25.569 10.8441 27.4675C11.3243 30.5531 15.8686 31.4572 15.3518 33.7928C15.1646 34.6403 13.6485 35.431 12.074 35.1009Z" fill="#96A0A5"/>
<path d="M38.1176 33.7828C37.7494 36.0905 37.4223 37.4492 37.1417 37.7929C36.9399 38.0333 36.5912 38.1763 36.2613 38.1763C35.1801 38.1763 35.2428 37.4862 35.2862 37.0545C35.9183 30.7757 38.1157 24.7183 39.859 24.036C40.7609 23.6833 41.499 23.9203 41.8493 24.2998C42.157 24.6328 42.1628 25.0283 41.8208 25.16C41.7372 25.192 41.6567 25.1976 41.5768 25.1916C41.5011 25.1856 41.4224 25.1685 41.3357 25.1512C41.1709 25.1184 40.9831 25.0874 40.7301 25.1408C40.038 25.3568 39.7669 26.1952 39.7116 26.3834C39.2753 27.8754 38.8821 29.5458 38.7028 30.9716C38.7904 30.972 38.9312 30.9656 39.0789 30.9577C39.2759 30.9469 39.4733 30.9342 39.542 30.9342C40.1045 30.9342 40.3956 31.0929 40.3519 31.5269C40.3136 31.9055 40.0142 32.4996 39.7003 32.8325C39.5035 33.0507 39.35 33.1705 39.1193 33.2459C39.0086 33.2821 38.8796 33.3081 38.7171 33.3311C38.5703 33.3524 38.3953 33.3713 38.1806 33.3944L38.1176 33.7828Z" fill="white"/>
<path d="M42.3945 33.7828C42.0265 36.0905 41.6994 37.4492 41.4186 37.7929C41.2168 38.0333 40.8681 38.1763 40.5382 38.1763C39.4568 38.1763 39.5196 37.4862 39.5631 37.0545C40.1951 30.7757 42.3928 24.7183 44.1359 24.036C45.0375 23.6833 45.7759 23.9203 46.1262 24.2998C46.4339 24.6328 46.4399 25.0283 46.0977 25.16C46.0143 25.192 45.9336 25.1976 45.8535 25.1916C45.7779 25.1856 45.6993 25.1685 45.6126 25.1512C45.4478 25.1184 45.2599 25.0874 45.007 25.1408C44.3148 25.3568 44.0436 26.1952 43.9884 26.3834C43.5524 27.8754 43.159 29.5458 42.9797 30.9716C43.0673 30.972 43.2083 30.9656 43.3556 30.9577C43.553 30.9469 43.7504 30.9342 43.8191 30.9342C44.3812 30.9342 44.6724 31.0929 44.629 31.5269C44.5907 31.9055 44.2911 32.4996 43.9774 32.8325C43.7804 33.0507 43.6269 33.1705 43.3962 33.2459C43.2855 33.2821 43.1565 33.3081 42.9938 33.3311C42.8472 33.3524 42.6722 33.3713 42.4575 33.3944L42.3945 33.7828Z" fill="white"/>
</svg>
