<svg width="60" height="60" viewBox="0 0 60 60" fill="none" xmlns="http://www.w3.org/2000/svg">
<rect width="60" height="60" fill="white"/>
<path d="M9.55276 37.5265L15.4683 43.4403C15.9225 43.9439 16.4801 44.3437 17.103 44.6122C17.7259 44.8808 18.3994 45.0119 19.0775 44.9965C20.15 44.9262 21.1739 44.5233 22.0065 43.8438C22.8799 44.6146 24.0128 45.0265 25.1775 44.9965C26.2602 44.925 27.2948 44.5226 28.1411 43.8438C29.0196 44.6291 30.1691 45.0425 31.3467 44.9965C32.5586 44.8828 33.6965 44.3628 34.5755 43.521C35.0516 44.0028 35.6219 44.3814 36.2508 44.6332C36.8797 44.8851 37.5537 45.0049 38.2309 44.985C39.8312 44.8116 41.3044 44.0319 42.3475 42.8062L49.8543 31.8432C49.9478 31.7175 50.0146 31.5741 50.0508 31.4217C50.087 31.2694 50.0917 31.1112 50.0647 30.957C50.0378 30.8027 49.9796 30.6556 49.8939 30.5245C49.8081 30.3935 49.6966 30.2812 49.566 30.1947C49.4396 30.1018 49.2955 30.0357 49.1427 30.0004C48.9898 29.9652 48.8313 29.9614 48.677 29.9895C48.5226 30.0175 48.3756 30.0768 48.2449 30.1636C48.1143 30.2504 48.0027 30.363 47.9171 30.4944L40.491 41.3537C39.8736 42.0474 39.0335 42.504 38.1155 42.6448C37.713 42.6423 37.3158 42.5523 36.9514 42.3811C36.5871 42.2099 36.2643 41.9616 36.0053 41.6534L18.9161 24.5575C18.8089 24.4495 18.6814 24.3637 18.5408 24.3052C18.4003 24.2467 18.2496 24.2166 18.0974 24.2166C17.9452 24.2166 17.7944 24.2467 17.6539 24.3052C17.5134 24.3637 17.3859 24.4495 17.2787 24.5575C17.1653 24.6652 17.075 24.7949 17.0133 24.9386C16.9516 25.0822 16.9198 25.237 16.9198 25.3933C16.9198 25.5497 16.9516 25.7044 17.0133 25.8481C17.075 25.9918 17.1653 26.1214 17.2787 26.2291L32.8919 41.8725C32.4274 42.2741 31.8529 42.5272 31.243 42.5987C30.8934 42.5934 30.549 42.5135 30.2328 42.3644C29.9167 42.2153 29.6359 42.0004 29.4095 41.7341L16.0448 28.3733C15.9371 28.2599 15.8074 28.1697 15.6637 28.108C15.52 28.0463 15.3652 28.0145 15.2088 28.0145C15.0524 28.0145 14.8976 28.0463 14.7539 28.108C14.6102 28.1697 14.4805 28.2599 14.3728 28.3733C14.2594 28.481 14.1691 28.6106 14.1074 28.7543C14.0457 28.898 14.0139 29.0527 14.0139 29.2091C14.0139 29.3654 14.0457 29.5202 14.1074 29.6638C14.1691 29.8075 14.2594 29.9371 14.3728 30.0448L26.4229 42.0915C26.0261 42.3869 25.555 42.5665 25.0622 42.6103C24.7127 42.6049 24.3683 42.525 24.0521 42.3759C23.7359 42.2268 23.4552 42.0119 23.2288 41.7457L13.5887 32.1083C13.481 31.995 13.3513 31.9047 13.2076 31.843C13.0638 31.7813 12.9091 31.7495 12.7527 31.7495C12.5963 31.7495 12.4415 31.7813 12.2978 31.843C12.154 31.9047 12.0244 31.995 11.9167 32.1083C11.8033 32.216 11.713 32.3457 11.6513 32.4893C11.5896 32.633 11.5577 32.7877 11.5577 32.9441C11.5577 33.1005 11.5896 33.2552 11.6513 33.3989C11.713 33.5426 11.8033 33.6722 11.9167 33.7799L20.2883 42.1491C19.8979 42.4268 19.4398 42.5941 18.9622 42.6333C18.6146 42.6263 18.2725 42.5456 17.9584 42.3966C17.6443 42.2476 17.3655 42.0335 17.1403 41.7687L11.2248 35.8549C11.1171 35.7415 10.9874 35.6513 10.8437 35.5896C10.6999 35.5279 10.5452 35.4961 10.3888 35.4961C10.2324 35.4961 10.0776 35.5279 9.93387 35.5896C9.79015 35.6513 9.66048 35.7415 9.55276 35.8549C9.43936 35.9626 9.34907 36.0922 9.28737 36.2359C9.22567 36.3796 9.19385 36.5343 9.19385 36.6907C9.19385 36.847 9.22567 37.0018 9.28737 37.1454C9.34907 37.2891 9.43936 37.4188 9.55276 37.5265Z" fill="#FFCD00"/>
<path d="M49.716 22.1825L43.8005 16.2802C43.3511 15.772 42.7966 15.3676 42.1754 15.0949C41.5542 14.8222 40.8811 14.6878 40.2028 14.7009C39.1303 14.7712 38.1064 15.1741 37.2738 15.8536C36.4114 15.0721 35.2776 14.6585 34.1143 14.7009C33.0306 14.7679 31.9948 15.1708 31.1508 15.8536C30.2685 15.0745 29.1217 14.6621 27.9451 14.7009C26.7405 14.7902 25.602 15.2861 24.7164 16.1073C24.2337 15.6381 23.661 15.2716 23.0327 15.0298C22.4045 14.7881 21.7337 14.6762 21.061 14.7009C19.4634 14.8833 17.9934 15.6613 16.9443 16.8796L9.41445 27.8657C9.32662 27.9944 9.265 28.1391 9.23312 28.2916C9.20123 28.4441 9.1997 28.6014 9.22861 28.7544C9.25752 28.9075 9.31631 29.0534 9.40161 29.1838C9.48692 29.3141 9.59708 29.4264 9.72579 29.5142C9.85451 29.602 9.99926 29.6636 10.1518 29.6955C10.3043 29.7274 10.4616 29.7289 10.6148 29.7C10.7679 29.6711 10.9138 29.6123 11.0442 29.5271C11.1746 29.4418 11.2869 29.3317 11.3748 29.203L18.7893 18.3552C19.4102 17.66 20.2545 17.2033 21.1763 17.0641C21.5765 17.0706 21.9707 17.1624 22.3326 17.3333C22.6946 17.5043 23.0158 17.7505 23.275 18.0555L40.3411 35.1399C40.4493 35.2502 40.5785 35.3376 40.7211 35.397C40.8638 35.4564 41.0169 35.4866 41.1714 35.4857C41.3278 35.4882 41.4831 35.4588 41.6278 35.3993C41.7726 35.3399 41.9037 35.2516 42.0132 35.1399C42.1266 35.0322 42.2169 34.9025 42.2786 34.7589C42.3403 34.6152 42.3721 34.4604 42.3721 34.3041C42.3721 34.1477 42.3403 33.993 42.2786 33.8493C42.2169 33.7056 42.1266 33.576 42.0132 33.4683L26.3999 17.8364C26.8627 17.434 27.4387 17.1843 28.0489 17.1217C28.3988 17.1248 28.7439 17.2037 29.0605 17.353C29.377 17.5022 29.6574 17.7183 29.8823 17.9863L43.2239 31.3241C43.3334 31.4358 43.4645 31.5241 43.6093 31.5836C43.754 31.643 43.9093 31.6724 44.0657 31.67C44.2202 31.6709 44.3733 31.6407 44.516 31.5813C44.6586 31.5219 44.7878 31.4344 44.896 31.3241C45.0079 31.2208 45.0983 31.0963 45.1618 30.9579C45.2253 30.8195 45.2608 30.6699 45.2662 30.5176C45.2715 30.3654 45.2467 30.2137 45.193 30.0711C45.1394 29.9286 45.058 29.7981 44.9536 29.6871L32.8574 17.6174C33.2554 17.3241 33.7258 17.1448 34.2181 17.0987C34.5684 17.1062 34.9131 17.1882 35.2292 17.3393C35.5453 17.4904 35.8257 17.707 36.0515 17.9748L45.6801 27.6006C45.7896 27.7123 45.9207 27.8006 46.0654 27.86C46.2101 27.9195 46.3654 27.9489 46.5219 27.9464C46.6764 27.9473 46.8295 27.9172 46.9721 27.8578C47.1147 27.7984 47.244 27.7109 47.3521 27.6006C47.4655 27.4929 47.5558 27.3633 47.6175 27.2196C47.6792 27.0759 47.711 26.9212 47.711 26.7648C47.711 26.6085 47.6792 26.4537 47.6175 26.3101C47.5558 26.1664 47.4655 26.0367 47.3521 25.929L38.992 17.5598C39.389 17.2782 39.8556 17.1107 40.3411 17.0756C40.6896 17.084 41.0323 17.1665 41.3465 17.3176C41.6606 17.4686 41.939 17.6848 42.1631 17.9517L48.067 23.854C48.1768 23.9638 48.3072 24.0508 48.4506 24.1102C48.5941 24.1696 48.7478 24.2002 48.9031 24.2002C49.0583 24.2002 49.2121 24.1696 49.3555 24.1102C49.4989 24.0508 49.6293 23.9638 49.7391 23.854C49.8489 23.7443 49.9359 23.614 49.9954 23.4706C50.0548 23.3272 50.0854 23.1735 50.0854 23.0182C50.0854 22.863 50.0548 22.7093 49.9954 22.5659C49.9359 22.4225 49.8489 22.2922 49.7391 22.1825" fill="#006937"/>
</svg>
