<svg width="60" height="60" viewBox="0 0 60 60" fill="none" xmlns="http://www.w3.org/2000/svg">
<rect width="60" height="60" fill="#FFCD00"/>
<path d="M9.55276 37.5267L15.4683 43.4405C15.9225 43.9442 16.4801 44.3439 17.103 44.6125C17.7259 44.881 18.3994 45.0121 19.0775 44.9968C20.15 44.9265 21.1739 44.5235 22.0065 43.844C22.8799 44.6149 24.0128 45.0267 25.1775 44.9968C26.2602 44.9253 27.2948 44.5229 28.1411 43.844C29.0196 44.6294 30.1691 45.0427 31.3467 44.9968C32.5586 44.883 33.6965 44.363 34.5755 43.5212C35.0516 44.003 35.6219 44.3816 36.2508 44.6335C36.8797 44.8854 37.5537 45.0051 38.2309 44.9853C39.8312 44.8118 41.3044 44.0322 42.3475 42.8065L49.8543 31.8434C49.9478 31.7178 50.0146 31.5744 50.0508 31.422C50.087 31.2696 50.0917 31.1115 50.0647 30.9572C50.0378 30.803 49.9796 30.6558 49.8939 30.5248C49.8081 30.3937 49.6966 30.2815 49.566 30.1949C49.4396 30.1021 49.2955 30.036 49.1427 30.0007C48.9898 29.9654 48.8313 29.9617 48.677 29.9897C48.5226 30.0178 48.3756 30.077 48.2449 30.1639C48.1143 30.2507 48.0027 30.3632 47.9171 30.4947L40.491 41.354C39.8736 42.0476 39.0335 42.5042 38.1155 42.6451C37.713 42.6425 37.3158 42.5525 36.9514 42.3813C36.5871 42.2102 36.2643 41.9619 36.0053 41.6537L18.9161 24.5578C18.8089 24.4497 18.6814 24.364 18.5408 24.3055C18.4003 24.2469 18.2496 24.2168 18.0974 24.2168C17.9452 24.2168 17.7944 24.2469 17.6539 24.3055C17.5134 24.364 17.3859 24.4497 17.2787 24.5578C17.1653 24.6655 17.075 24.7951 17.0133 24.9388C16.9516 25.0825 16.9198 25.2372 16.9198 25.3936C16.9198 25.5499 16.9516 25.7047 17.0133 25.8483C17.075 25.992 17.1653 26.1216 17.2787 26.2293L32.8919 41.8727C32.4274 42.2744 31.8529 42.5274 31.243 42.599C30.8934 42.5936 30.549 42.5137 30.2328 42.3646C29.9167 42.2155 29.6359 42.0006 29.4095 41.7344L16.0448 28.3735C15.9371 28.2602 15.8074 28.1699 15.6637 28.1082C15.52 28.0465 15.3652 28.0147 15.2088 28.0147C15.0524 28.0147 14.8976 28.0465 14.7539 28.1082C14.6102 28.1699 14.4805 28.2602 14.3728 28.3735C14.2594 28.4812 14.1691 28.6109 14.1074 28.7545C14.0457 28.8982 14.0139 29.0529 14.0139 29.2093C14.0139 29.3657 14.0457 29.5204 14.1074 29.6641C14.1691 29.8078 14.2594 29.9374 14.3728 30.0451L26.4229 42.0918C26.0261 42.3871 25.555 42.5667 25.0622 42.6105C24.7127 42.6051 24.3683 42.5252 24.0521 42.3761C23.7359 42.227 23.4552 42.0122 23.2288 41.7459L13.5887 32.1086C13.481 31.9952 13.3513 31.9049 13.2076 31.8433C13.0638 31.7816 12.9091 31.7498 12.7527 31.7498C12.5963 31.7498 12.4415 31.7816 12.2978 31.8433C12.154 31.9049 12.0244 31.9952 11.9167 32.1086C11.8033 32.2163 11.713 32.3459 11.6513 32.4896C11.5896 32.6333 11.5577 32.788 11.5577 32.9444C11.5577 33.1007 11.5896 33.2554 11.6513 33.3991C11.713 33.5428 11.8033 33.6724 11.9167 33.7801L20.2883 42.1494C19.8979 42.4271 19.4398 42.5943 18.9622 42.6336C18.6146 42.6266 18.2725 42.5459 17.9584 42.3968C17.6443 42.2478 17.3655 42.0338 17.1403 41.769L11.2248 35.8552C11.1171 35.7418 10.9874 35.6515 10.8437 35.5898C10.6999 35.5282 10.5452 35.4963 10.3888 35.4963C10.2324 35.4963 10.0776 35.5282 9.93387 35.5898C9.79015 35.6515 9.66048 35.7418 9.55276 35.8552C9.43936 35.9628 9.34907 36.0925 9.28737 36.2362C9.22567 36.3798 9.19385 36.5346 9.19385 36.6909C9.19385 36.8473 9.22567 37.002 9.28737 37.1457C9.34907 37.2894 9.43936 37.419 9.55276 37.5267Z" fill="#55565A"/>
<path d="M49.716 22.1827L43.8005 16.2804C43.3511 15.7723 42.7966 15.3679 42.1754 15.0952C41.5542 14.8225 40.8811 14.688 40.2028 14.7011C39.1303 14.7714 38.1064 15.1744 37.2738 15.8539C36.4114 15.0724 35.2776 14.6587 34.1143 14.7011C33.0306 14.7681 31.9948 15.1711 31.1508 15.8539C30.2685 15.0747 29.1217 14.6623 27.9451 14.7011C26.7405 14.7904 25.602 15.2863 24.7164 16.1075C24.2337 15.6383 23.661 15.2718 23.0327 15.0301C22.4045 14.7884 21.7337 14.6764 21.061 14.7011C19.4634 14.8835 17.9934 15.6616 16.9443 16.8799L9.41445 27.866C9.32662 27.9947 9.265 28.1394 9.23312 28.2919C9.20123 28.4443 9.1997 28.6016 9.22861 28.7547C9.25752 28.9078 9.31631 29.0537 9.40161 29.184C9.48692 29.3144 9.59708 29.4267 9.72579 29.5145C9.85451 29.6023 9.99926 29.6639 10.1518 29.6958C10.3043 29.7276 10.4616 29.7292 10.6148 29.7003C10.7679 29.6714 10.9138 29.6126 11.0442 29.5273C11.1746 29.442 11.2869 29.3319 11.3748 29.2032L18.7893 18.3554C19.4102 17.6602 20.2545 17.2036 21.1763 17.0643C21.5765 17.0708 21.9707 17.1626 22.3326 17.3336C22.6946 17.5045 23.0158 17.7507 23.275 18.0557L40.3411 35.1401C40.4493 35.2504 40.5785 35.3379 40.7211 35.3973C40.8638 35.4567 41.0169 35.4868 41.1714 35.4859C41.3278 35.4884 41.4831 35.459 41.6278 35.3996C41.7726 35.3401 41.9037 35.2518 42.0132 35.1401C42.1266 35.0324 42.2169 34.9028 42.2786 34.7591C42.3403 34.6154 42.3721 34.4607 42.3721 34.3043C42.3721 34.148 42.3403 33.9932 42.2786 33.8496C42.2169 33.7059 42.1266 33.5762 42.0132 33.4685L26.3999 17.8367C26.8627 17.4342 27.4387 17.1846 28.0489 17.122C28.3988 17.1251 28.7439 17.204 29.0605 17.3532C29.377 17.5025 29.6574 17.7186 29.8823 17.9866L43.2239 31.3244C43.3334 31.4361 43.4645 31.5244 43.6093 31.5838C43.754 31.6433 43.9093 31.6727 44.0657 31.6702C44.2202 31.6711 44.3733 31.6409 44.516 31.5815C44.6586 31.5221 44.7878 31.4347 44.896 31.3244C45.0079 31.221 45.0983 31.0966 45.1618 30.9582C45.2253 30.8197 45.2608 30.6701 45.2662 30.5179C45.2715 30.3657 45.2467 30.2139 45.193 30.0714C45.1394 29.9288 45.058 29.7983 44.9536 29.6874L32.8574 17.6177C33.2554 17.3244 33.7258 17.145 34.2181 17.0989C34.5684 17.1064 34.9131 17.1885 35.2292 17.3395C35.5453 17.4906 35.8257 17.7072 36.0515 17.975L45.6801 27.6008C45.7896 27.7126 45.9207 27.8008 46.0654 27.8603C46.2101 27.9197 46.3654 27.9491 46.5219 27.9467C46.6764 27.9476 46.8295 27.9174 46.9721 27.858C47.1147 27.7986 47.244 27.7112 47.3521 27.6008C47.4655 27.4931 47.5558 27.3635 47.6175 27.2198C47.6792 27.0762 47.711 26.9214 47.711 26.7651C47.711 26.6087 47.6792 26.454 47.6175 26.3103C47.5558 26.1666 47.4655 26.037 47.3521 25.9293L38.992 17.56C39.389 17.2784 39.8556 17.111 40.3411 17.0758C40.6896 17.0843 41.0323 17.1668 41.3465 17.3178C41.6606 17.4689 41.939 17.685 42.1631 17.952L48.067 23.8543C48.1768 23.964 48.3072 24.0511 48.4506 24.1105C48.5941 24.1699 48.7478 24.2005 48.9031 24.2005C49.0583 24.2005 49.2121 24.1699 49.3555 24.1105C49.4989 24.0511 49.6293 23.964 49.7391 23.8543C49.8489 23.7445 49.9359 23.6142 49.9954 23.4708C50.0548 23.3274 50.0854 23.1737 50.0854 23.0185C50.0854 22.8633 50.0548 22.7096 49.9954 22.5662C49.9359 22.4228 49.8489 22.2925 49.7391 22.1827" fill="#006937"/>
</svg>
