<svg width="130" height="60" viewBox="0 0 130 60" fill="none" xmlns="http://www.w3.org/2000/svg">
<rect width="130" height="60" fill="white"/>
<g clip-path="url(#clip0_307_55)">
<path d="M20.2477 32.3438L24.4834 36.5783C24.8087 36.9389 25.2079 37.2251 25.6539 37.4174C26.0999 37.6097 26.5822 37.7036 27.0678 37.6926C27.8357 37.6423 28.5688 37.3537 29.165 36.8672C29.7904 37.4191 30.6016 37.714 31.4356 37.6926C32.2108 37.6414 32.9516 37.3533 33.5575 36.8672C34.1866 37.4295 35.0096 37.7255 35.8529 37.6926C36.7207 37.6112 37.5354 37.2388 38.1648 36.6361C38.5057 36.981 38.914 37.2521 39.3643 37.4325C39.8146 37.6128 40.2973 37.6986 40.7821 37.6844C41.9281 37.5602 42.9829 37.0019 43.7298 36.1243L49.1049 28.2744C49.1718 28.1844 49.2197 28.0817 49.2456 27.9726C49.2715 27.8635 49.2749 27.7503 49.2556 27.6398C49.2363 27.5294 49.1946 27.424 49.1332 27.3302C49.0718 27.2363 48.992 27.156 48.8985 27.094C48.808 27.0275 48.7048 26.9802 48.5953 26.9549C48.4859 26.9297 48.3724 26.927 48.2619 26.9471C48.1514 26.9672 48.0461 27.0096 47.9525 27.0718C47.859 27.1339 47.7791 27.2145 47.7178 27.3086L42.4005 35.0842C41.9584 35.5809 41.3569 35.9079 40.6996 36.0087C40.4113 36.0069 40.1269 35.9424 39.866 35.8199C39.6051 35.6973 39.374 35.5195 39.1886 35.2988L26.9522 23.0576C26.8754 22.9803 26.7841 22.9189 26.6835 22.877C26.5829 22.8351 26.4749 22.8135 26.3659 22.8135C26.2569 22.8135 26.149 22.8351 26.0484 22.877C25.9478 22.9189 25.8565 22.9803 25.7797 23.0576C25.6985 23.1348 25.6339 23.2276 25.5897 23.3304C25.5455 23.4333 25.5227 23.5441 25.5227 23.6561C25.5227 23.768 25.5455 23.8788 25.5897 23.9817C25.6339 24.0846 25.6985 24.1774 25.7797 24.2545L36.9593 35.4557C36.6267 35.7433 36.2154 35.9245 35.7786 35.9757C35.5283 35.9719 35.2817 35.9146 35.0553 35.8079C34.8289 35.7011 34.6279 35.5473 34.4658 35.3566L24.8962 25.7898C24.8191 25.7087 24.7263 25.644 24.6234 25.5999C24.5204 25.5557 24.4096 25.5329 24.2976 25.5329C24.1856 25.5329 24.0748 25.5557 23.9719 25.5999C23.869 25.644 23.7762 25.7087 23.699 25.7898C23.6178 25.8669 23.5532 25.9598 23.509 26.0626C23.4648 26.1655 23.442 26.2763 23.442 26.3883C23.442 26.5002 23.4648 26.611 23.509 26.7139C23.5532 26.8168 23.6178 26.9096 23.699 26.9867L32.3273 35.6125C32.0431 35.824 31.7059 35.9526 31.353 35.984C31.1027 35.9801 30.8561 35.9229 30.6297 35.8161C30.4033 35.7094 30.2023 35.5555 30.0402 35.3649L23.1376 28.4642C23.0604 28.3831 22.9676 28.3184 22.8647 28.2743C22.7618 28.2301 22.6509 28.2073 22.539 28.2073C22.427 28.2073 22.3161 28.2301 22.2132 28.2743C22.1103 28.3184 22.0175 28.3831 21.9403 28.4642C21.8591 28.5414 21.7945 28.6342 21.7503 28.7371C21.7061 28.8399 21.6833 28.9507 21.6833 29.0627C21.6833 29.1746 21.7061 29.2854 21.7503 29.3883C21.7945 29.4912 21.8591 29.584 21.9403 29.6611L27.9347 35.6538C27.6552 35.8526 27.3271 35.9724 26.9852 36.0005C26.7363 35.9955 26.4913 35.9377 26.2664 35.831C26.0415 35.7242 25.8419 35.571 25.6806 35.3814L21.4449 31.1469C21.3678 31.0657 21.275 31.0011 21.172 30.9569C21.0691 30.9128 20.9583 30.89 20.8463 30.89C20.7343 30.89 20.6235 30.9128 20.5206 30.9569C20.4177 31.0011 20.3248 31.0657 20.2477 31.1469C20.1665 31.224 20.1019 31.3168 20.0577 31.4197C20.0135 31.5226 19.9907 31.6334 19.9907 31.7453C19.9907 31.8573 20.0135 31.9681 20.0577 32.071C20.1019 32.1739 20.1665 32.2667 20.2477 32.3438Z" fill="#FFCD00"/>
<path d="M49.006 21.357L44.7703 17.1308C44.4485 16.767 44.0515 16.4774 43.6067 16.2821C43.1619 16.0869 42.6799 15.9906 42.1942 16C41.4263 16.0503 40.6932 16.3388 40.097 16.8254C39.4794 16.2658 38.6676 15.9696 37.8347 16C37.0587 16.0479 36.317 16.3365 35.7127 16.8254C35.081 16.2675 34.2598 15.9722 33.4173 16C32.5548 16.0639 31.7396 16.419 31.1054 17.007C30.7599 16.671 30.3498 16.4086 29.8999 16.2355C29.4501 16.0624 28.9698 15.9823 28.4881 16C27.3441 16.1306 26.2916 16.6877 25.5404 17.56L20.1488 25.4264C20.0859 25.5186 20.0418 25.6222 20.019 25.7314C19.9961 25.8406 19.995 25.9532 20.0157 26.0628C20.0364 26.1724 20.0785 26.2768 20.1396 26.3702C20.2007 26.4635 20.2796 26.5439 20.3717 26.6068C20.4639 26.6697 20.5675 26.7138 20.6768 26.7366C20.786 26.7594 20.8986 26.7605 21.0083 26.7398C21.1179 26.7191 21.2224 26.6771 21.3158 26.616C21.4091 26.5549 21.4895 26.4761 21.5524 26.3839L26.8615 18.6166C27.3061 18.1188 27.9106 17.7918 28.5706 17.6921C28.8572 17.6968 29.1395 17.7625 29.3986 17.8849C29.6578 18.0073 29.8878 18.1836 30.0734 18.402L42.2933 30.6349C42.3707 30.7139 42.4633 30.7765 42.5654 30.8191C42.6675 30.8616 42.7771 30.8832 42.8878 30.8826C42.9998 30.8843 43.111 30.8633 43.2146 30.8207C43.3182 30.7781 43.4121 30.7149 43.4905 30.6349C43.5717 30.5578 43.6364 30.465 43.6805 30.3621C43.7247 30.2592 43.7475 30.1484 43.7475 30.0365C43.7475 29.9245 43.7247 29.8137 43.6805 29.7109C43.6364 29.608 43.5717 29.5152 43.4905 29.438L32.3109 18.2451C32.6423 17.9569 33.0547 17.7782 33.4916 17.7334C33.7422 17.7356 33.9893 17.7921 34.216 17.899C34.4426 18.0058 34.6434 18.1605 34.8045 18.3524L44.3575 27.9027C44.4359 27.9827 44.5297 28.0459 44.6334 28.0885C44.737 28.1311 44.8482 28.1521 44.9602 28.1504C45.0708 28.151 45.1805 28.1294 45.2826 28.0869C45.3847 28.0443 45.4772 27.9817 45.5547 27.9027C45.6348 27.8288 45.6995 27.7396 45.745 27.6405C45.7905 27.5414 45.8159 27.4343 45.8198 27.3253C45.8236 27.2163 45.8058 27.1076 45.7674 27.0056C45.729 26.9035 45.6707 26.81 45.596 26.7306L36.9347 18.0883C37.2197 17.8783 37.5565 17.7499 37.909 17.7169C38.1598 17.7223 38.4066 17.781 38.633 17.8892C38.8593 17.9973 39.0601 18.1524 39.2218 18.3442L46.1161 25.2366C46.1945 25.3166 46.2884 25.3798 46.392 25.4224C46.4957 25.4649 46.6069 25.486 46.7189 25.4842C46.8295 25.4849 46.9391 25.4633 47.0413 25.4207C47.1434 25.3782 47.2359 25.3156 47.3134 25.2366C47.3946 25.1595 47.4592 25.0666 47.5034 24.9638C47.5476 24.8609 47.5704 24.7501 47.5704 24.6381C47.5704 24.5262 47.5476 24.4154 47.5034 24.3125C47.4592 24.2096 47.3946 24.1168 47.3134 24.0397L41.3273 18.047C41.6115 17.8454 41.9456 17.7255 42.2933 17.7004C42.5428 17.7064 42.7882 17.7654 43.0131 17.8736C43.2381 17.9818 43.4374 18.1366 43.5978 18.3277L47.8253 22.5539C47.9039 22.6325 47.9972 22.6948 48.0999 22.7374C48.2026 22.7799 48.3127 22.8018 48.4239 22.8018C48.5351 22.8018 48.6451 22.7799 48.7479 22.7374C48.8506 22.6948 48.9439 22.6325 49.0225 22.5539C49.1011 22.4753 49.1635 22.382 49.206 22.2793C49.2486 22.1767 49.2705 22.0666 49.2705 21.9555C49.2705 21.8443 49.2486 21.7343 49.206 21.6316C49.1635 21.5289 49.1011 21.4356 49.0225 21.357" fill="#006937"/>
<path d="M57.0563 17.6013H64.6525C69.6065 17.6013 71.2579 19.6649 71.2579 21.9844C71.2579 24.3039 69.7221 26.029 67.1295 26.6563C67.929 26.8763 68.6335 27.3539 69.1336 28.0151C69.6338 28.6763 69.9016 29.4841 69.8955 30.313C69.8955 33.4662 67.2616 35.8682 61.6388 35.8682H52.1519L57.0563 17.6013ZM61.8205 31.7988C63.5709 31.7988 64.636 31.0146 64.636 29.8673C64.636 28.9263 63.8846 28.431 62.3984 28.431H58.8976L57.9811 31.7988H61.8205ZM63.2819 24.8817C65.0819 24.8817 66.0479 24.18 66.0479 23.0327C66.0479 22.2072 65.3956 21.6707 63.8599 21.6707H60.6976L59.8719 24.8817H63.2819Z" fill="#006937"/>
<path d="M74.8411 17.6509H82.4043C87.3583 17.6509 89.0097 19.698 89.0097 22.0092C89.0097 24.3204 87.4739 26.0373 84.9308 26.6564C85.7259 26.8762 86.4263 27.352 86.9234 28.0101C87.4205 28.6682 87.6865 29.4719 87.6803 30.2966C87.6803 33.4332 85.0547 35.827 79.4236 35.827H69.9614L74.8411 17.6509ZM79.5805 31.7741C81.3227 31.7741 82.3878 30.9982 82.3878 29.8508C82.3878 28.9181 81.6364 28.4228 80.1502 28.4228H76.6741L75.7659 31.7741H79.5805ZM81.0337 24.89C82.8254 24.89 83.7914 24.1883 83.7914 23.0492C83.7914 22.2238 83.1391 21.6955 81.6034 21.6955H78.4658L77.6402 24.89H81.0337Z" fill="#006937"/>
<path d="M89.2407 28.2412C89.2622 26.7732 89.5738 25.324 90.1577 23.9768C90.7415 22.6297 91.5861 21.4113 92.6428 20.3917C93.6995 19.3722 94.9474 18.5716 96.3148 18.036C97.6822 17.5005 99.142 17.2405 100.61 17.2712C104.334 17.2712 106.91 19.0624 108.041 21.8688L103.632 24.2543C103.334 23.5345 102.821 22.9237 102.164 22.5044C101.507 22.0852 100.737 21.8777 99.9579 21.9101C96.9442 21.9101 94.525 24.7496 94.525 27.9193C94.4883 28.4116 94.5565 28.9062 94.725 29.3703C94.8935 29.8343 95.1586 30.2574 95.5027 30.6116C95.8468 30.9657 96.2621 31.2429 96.7213 31.4248C97.1804 31.6067 97.6729 31.6891 98.1662 31.6668C98.911 31.6521 99.6441 31.4798 100.317 31.161C100.991 30.8423 101.588 30.3845 102.072 29.8178L105.473 32.8389C104.538 33.9388 103.368 34.8151 102.049 35.4036C100.73 35.9921 99.2962 36.2778 97.8525 36.2397C92.8076 36.2397 89.2407 33.1443 89.2407 28.2825" fill="#006937"/>
<path d="M86.7804 40.8456C86.8004 41.1323 86.7601 41.42 86.6619 41.6902C86.5638 41.9603 86.4101 42.2069 86.2107 42.4139C85.7527 42.8036 85.1591 42.9965 84.5594 42.9505H83.4282V38.8233H84.6998C84.978 38.8053 85.257 38.8428 85.5206 38.9334C85.7843 39.0241 86.0273 39.1663 86.2355 39.3516C86.4242 39.5497 86.57 39.7847 86.6638 40.0418C86.7576 40.2989 86.7973 40.5725 86.7804 40.8456ZM86.0704 40.8456C86.0704 39.8633 85.608 39.3681 84.6832 39.3681H84.097V42.4139H84.5759C84.7829 42.4405 84.9932 42.418 85.1899 42.3482C85.3866 42.2784 85.5641 42.1633 85.708 42.0122C85.8519 41.8611 85.9582 41.6783 86.0183 41.4784C86.0784 41.2786 86.0906 41.0675 86.0539 40.8621L86.0704 40.8456Z" fill="#006937"/>
<path d="M88.126 42.9422V38.8151H88.803V42.9422H88.126Z" fill="#006937"/>
<path d="M92.04 40.7053H93.5592V42.7771C93.328 42.8554 93.0904 42.9134 92.8491 42.9505C92.6029 42.9845 92.3546 43.0011 92.106 43C91.837 43.0134 91.5683 42.9679 91.3187 42.8667C91.0692 42.7654 90.8447 42.6109 90.6611 42.414C90.2976 41.9751 90.1145 41.4144 90.1492 40.8456C90.1341 40.5612 90.1776 40.2767 90.277 40.0097C90.3765 39.7428 90.5297 39.4991 90.7271 39.2938C90.9381 39.0976 91.1865 38.9459 91.4575 38.8481C91.7285 38.7502 92.0165 38.7081 92.3042 38.7243C92.7241 38.7226 93.14 38.8069 93.5262 38.9719L93.2867 39.5414C92.9756 39.3885 92.6343 39.3068 92.2877 39.3021C92.0928 39.292 91.8981 39.3245 91.717 39.3972C91.536 39.4699 91.3729 39.5811 91.2391 39.723C90.9707 40.0366 90.8346 40.442 90.8592 40.8539C90.827 41.2663 90.9507 41.6757 91.206 42.0012C91.3316 42.1365 91.4855 42.2422 91.6569 42.3107C91.8282 42.3792 92.0126 42.4088 92.1968 42.3974C92.4332 42.3971 92.6687 42.3694 92.8987 42.3149V41.2831H92.073L92.04 40.7053Z" fill="#006937"/>
<path d="M95.0122 42.9422V38.8151H95.6893V42.9422H95.0122Z" fill="#006937"/>
<path d="M98.6619 42.9422H97.9931V39.4011H96.7876V38.8233H99.8839V39.4011H98.6619V42.9422Z" fill="#006937"/>
<path d="M103.533 42.9422L103.12 41.8031H101.543L101.139 42.9422H100.429L101.973 38.8151H102.708L104.252 42.9422H103.533ZM102.947 41.2171L102.567 40.0945C102.523 39.9782 102.484 39.8598 102.452 39.7396C102.402 39.5745 102.361 39.4589 102.344 39.3846C102.287 39.6425 102.213 39.8963 102.121 40.144L101.742 41.2171H102.947Z" fill="#006937"/>
<path d="M105.259 42.9422V38.8151H105.928V42.3562H107.678V42.934L105.259 42.9422Z" fill="#006937"/>
</g>
<defs>
<clipPath id="clip0_307_55">
<rect width="88" height="27" fill="white" transform="translate(20 16)"/>
</clipPath>
</defs>
</svg>
