<svg width="130" height="60" viewBox="0 0 130 60" fill="none" xmlns="http://www.w3.org/2000/svg">
<rect width="130" height="60" fill="white"/>
<mask id="mask0_43_16" style="mask-type:luminance" maskUnits="userSpaceOnUse" x="12" y="14" width="107" height="32">
<path d="M119 14H12V45.7268H119V14Z" fill="white"/>
</mask>
<g mask="url(#mask0_43_16)">
<path d="M49.1794 39.3775C49.1668 39.4065 49.1463 39.4315 49.1202 39.4493C49.0963 39.4637 49.0689 39.4709 49.041 39.47C49.0037 39.4681 48.9676 39.4558 48.9369 39.4346C48.8983 39.4107 48.8528 39.384 48.8007 39.3546C48.7421 39.3224 48.6808 39.2957 48.6174 39.2746C48.537 39.2492 48.4531 39.237 48.3689 39.2387C48.2927 39.2373 48.2168 39.2478 48.1438 39.2697C48.0844 39.2878 48.0291 39.3174 47.9811 39.3568C47.9379 39.3925 47.9042 39.4383 47.8829 39.4901C47.8608 39.544 47.8497 39.6018 47.8503 39.6599C47.8477 39.7314 47.871 39.8014 47.916 39.857C47.9644 39.9133 48.0239 39.959 48.0906 39.9914C48.17 40.0313 48.2526 40.0646 48.3375 40.091C48.4296 40.1204 48.5239 40.1516 48.6201 40.1846C48.7164 40.2179 48.8107 40.2566 48.9027 40.3005C48.9932 40.3432 49.0766 40.3995 49.1501 40.4676C49.2241 40.5372 49.2833 40.621 49.3242 40.7141C49.3709 40.8262 49.3933 40.947 49.3898 41.0685C49.391 41.2137 49.3648 41.3579 49.3128 41.4935C49.2637 41.6222 49.1881 41.739 49.091 41.8364C48.9867 41.9377 48.8628 42.0165 48.7269 42.0677C48.5699 42.1268 48.4032 42.1557 48.2355 42.1526C48.13 42.1525 48.0248 42.1419 47.9214 42.121C47.8201 42.1008 47.7209 42.0709 47.6252 42.0318C47.5323 41.9942 47.4433 41.9477 47.3594 41.893C47.2795 41.8411 47.2057 41.7805 47.1392 41.7123L47.3193 41.4135C47.3361 41.3916 47.3568 41.3731 47.3805 41.3591C47.4044 41.3444 47.4318 41.3369 47.4598 41.3373C47.5052 41.3398 47.5488 41.3563 47.5845 41.3847C47.629 41.4163 47.6822 41.4516 47.7429 41.4897C47.8106 41.5321 47.8824 41.5674 47.9572 41.5953C48.0524 41.629 48.153 41.6451 48.2539 41.6426C48.4308 41.6426 48.5678 41.6008 48.6651 41.5169C48.7146 41.4711 48.7534 41.4148 48.7785 41.3521C48.8037 41.2895 48.8146 41.2219 48.8105 41.1545C48.8142 41.0765 48.7911 40.9996 48.7449 40.9367C48.697 40.8783 48.6375 40.8304 48.5702 40.7963C48.4913 40.7561 48.4086 40.724 48.3233 40.7005C48.2311 40.6739 48.1373 40.6461 48.0418 40.6146C47.9455 40.5844 47.8513 40.5481 47.7597 40.5057C47.6686 40.4634 47.5852 40.4062 47.5129 40.3364C47.4377 40.2626 47.3784 40.174 47.3388 40.0763C47.2916 39.9533 47.2693 39.8222 47.2732 39.6904C47.2737 39.5661 47.2992 39.4432 47.3481 39.3291C47.397 39.2149 47.4684 39.1118 47.5579 39.0259C47.6569 38.9315 47.7734 38.8576 47.9008 38.8082C48.0489 38.752 48.2063 38.7245 48.3646 38.7271C48.5503 38.7252 48.7349 38.7566 48.9097 38.8197C49.0673 38.8765 49.2118 38.9648 49.3345 39.0792L49.1794 39.3775Z" fill="#199B43"/>
<path d="M50.7535 39.0489C50.7537 39.0968 50.7436 39.1441 50.7237 39.1877C50.6846 39.2739 50.6145 39.3422 50.5274 39.3787C50.4822 39.3985 50.4334 39.4084 50.3842 39.4081C50.3361 39.4084 50.2886 39.3983 50.2447 39.3787C50.2021 39.3603 50.1633 39.3341 50.1303 39.3014C50.0977 39.2687 50.0715 39.2301 50.0533 39.1877C50.0336 39.1441 50.0236 39.0968 50.0239 39.0489C50.0247 38.9516 50.0638 38.8585 50.1324 38.7898C50.1653 38.7568 50.2041 38.7304 50.2469 38.712C50.2909 38.6928 50.3383 38.683 50.3863 38.6832C50.4355 38.6829 50.4842 38.6927 50.5295 38.712C50.573 38.7304 50.6125 38.7567 50.6462 38.7898C50.6798 38.8229 50.7069 38.862 50.7259 38.9052C50.7449 38.9507 50.7543 38.9996 50.7535 39.0489ZM50.6679 39.7412V42.1173H50.0978V39.7412H50.6679Z" fill="#199B43"/>
<path d="M52.9423 40.2037C52.9308 40.2256 52.9143 40.2443 52.8939 40.2582C52.8743 40.2691 52.8519 40.2744 52.8294 40.2734C52.7983 40.2727 52.7679 40.2647 52.7405 40.25L52.632 40.1956C52.5861 40.1737 52.5386 40.1555 52.4898 40.1412C52.4285 40.1247 52.3651 40.1168 52.3016 40.1178C52.2077 40.1125 52.1148 40.1377 52.0363 40.1896C52.0059 40.2104 51.9811 40.2384 51.9642 40.2712C51.9473 40.304 51.9386 40.3405 51.9393 40.3774C51.9386 40.401 51.9427 40.4245 51.9513 40.4466C51.9599 40.4686 51.9728 40.4888 51.9891 40.5058C52.027 40.544 52.0715 40.575 52.1204 40.5972C52.1805 40.6256 52.2427 40.6493 52.3064 40.668C52.3759 40.6887 52.4464 40.7115 52.5186 40.7366C52.5908 40.761 52.6618 40.7892 52.7312 40.8209C52.7987 40.8515 52.8612 40.892 52.9168 40.9412C52.9765 40.9932 53.0238 41.058 53.0553 41.1308C53.0867 41.2037 53.1015 41.2826 53.0985 41.3619C53.0995 41.4703 53.0782 41.5777 53.0361 41.6775C52.9948 41.7738 52.9323 41.8594 52.8533 41.9279C52.7664 42.0018 52.6658 42.0573 52.5571 42.0912C52.3483 42.1548 52.1273 42.1675 51.9126 42.1282C51.8365 42.1141 51.7618 42.0936 51.6891 42.0667C51.6204 42.0418 51.5539 42.0109 51.4906 41.9741C51.4324 41.9416 51.3778 41.9027 51.3279 41.8583L51.4592 41.6406C51.4742 41.6161 51.4948 41.5955 51.5193 41.5807C51.5462 41.5658 51.5766 41.5586 51.6072 41.56C51.6429 41.56 51.6778 41.5704 51.7076 41.59C51.7391 41.6101 51.7759 41.6313 51.8161 41.6547C51.8632 41.68 51.9121 41.7017 51.9626 41.7195C52.0316 41.7414 52.1038 41.7515 52.1763 41.7494C52.2352 41.7506 52.294 41.7425 52.3504 41.7254C52.394 41.7119 52.4346 41.6903 52.4703 41.6618C52.5004 41.6373 52.5243 41.606 52.5397 41.5704C52.5545 41.536 52.562 41.4989 52.562 41.4615C52.5638 41.4112 52.5459 41.3621 52.512 41.3249C52.4743 41.2858 52.4296 41.2543 52.3803 41.2318C52.32 41.2035 52.2576 41.18 52.1937 41.1616C52.1237 41.1404 52.052 41.1181 51.9767 41.093C51.9026 41.0684 51.8302 41.0394 51.7597 41.0059C51.6913 40.9742 51.6283 40.9317 51.5731 40.8803C51.517 40.8272 51.4721 40.7633 51.4412 40.6925C51.406 40.6074 51.3892 40.5157 51.3919 40.4236C51.3915 40.3281 51.4111 40.2335 51.4493 40.1461C51.4882 40.0575 51.5463 39.9786 51.6191 39.9153C51.7013 39.8454 51.7962 39.7919 51.8986 39.758C52.0231 39.7166 52.1536 39.6965 52.2848 39.6987C52.4372 39.6968 52.5886 39.7243 52.7307 39.7798C52.8551 39.8282 52.9688 39.9006 53.0654 39.9931L52.9423 40.2037Z" fill="#199B43"/>
<path d="M54.56 42.1549C54.3555 42.1549 54.1977 42.0961 54.087 41.9796C53.9763 41.8632 53.921 41.7021 53.921 41.4969V40.17H53.6807C53.665 40.1708 53.6493 40.1682 53.6347 40.1623C53.62 40.1565 53.607 40.1475 53.5962 40.1359C53.5854 40.1244 53.5772 40.1107 53.5722 40.0958C53.5673 40.0808 53.5656 40.0649 53.5673 40.0492V39.8228L53.947 39.7602L54.0669 39.112C54.0714 39.0835 54.0865 39.0579 54.1093 39.0402C54.1339 39.0226 54.1636 39.0136 54.1939 39.0146H54.4895V39.763H55.1123V40.1706H54.4911V41.4556C54.4871 41.5182 54.5065 41.58 54.5454 41.6291C54.5639 41.6498 54.5867 41.6661 54.6122 41.6769C54.6377 41.6878 54.6652 41.6928 54.6929 41.6917C54.7231 41.6925 54.7532 41.6881 54.7819 41.6787C54.8033 41.6713 54.8242 41.6625 54.8443 41.652C54.8616 41.6428 54.8773 41.634 54.8915 41.6254C54.904 41.6175 54.9185 41.6132 54.9332 41.6128C54.948 41.6123 54.9625 41.6167 54.9745 41.6254C54.9877 41.6366 54.9994 41.6496 55.0092 41.664L55.1801 41.9416C55.0954 42.0119 54.9982 42.0654 54.8937 42.0994C54.7861 42.1355 54.6735 42.1543 54.56 42.1549Z" fill="#199B43"/>
<path d="M56.7737 39.7041C56.9142 39.7026 57.0537 39.7269 57.1854 39.7759C57.3077 39.8214 57.4188 39.8929 57.5109 39.9855C57.6048 40.082 57.6773 40.1974 57.7235 40.324C57.7768 40.4704 57.8028 40.6253 57.8 40.7812C57.8004 40.8175 57.7984 40.8539 57.7941 40.89C57.792 40.9136 57.7847 40.9365 57.7729 40.9569C57.7637 40.9727 57.7496 40.9849 57.7328 40.9918C57.7121 40.9994 57.6902 41.0029 57.6682 41.0022H56.2036C56.2202 41.2467 56.2857 41.4259 56.3999 41.5398C56.4598 41.5978 56.5308 41.6429 56.6086 41.6723C56.6864 41.7018 56.7693 41.7151 56.8524 41.7113C56.9331 41.7129 57.0137 41.7019 57.0911 41.6786C57.1515 41.6596 57.2103 41.6356 57.2668 41.6068C57.3167 41.5807 57.3606 41.5567 57.3981 41.5349C57.4308 41.5148 57.4682 41.5037 57.5066 41.5029C57.5274 41.5022 57.5482 41.5069 57.5668 41.5164C57.5841 41.5261 57.5991 41.5395 57.6108 41.5557L57.7767 41.7641C57.7158 41.8367 57.6443 41.8996 57.5646 41.9508C57.4876 42.0001 57.4051 42.0405 57.3189 42.071C57.2343 42.1013 57.1469 42.1226 57.058 42.1347C56.9726 42.1469 56.8865 42.1531 56.8003 42.1532C56.6434 42.1547 56.4875 42.1269 56.3408 42.071C56.2014 42.0181 56.0753 41.935 55.9714 41.8277C55.8626 41.7137 55.7786 41.5782 55.7246 41.4299C55.6617 41.2535 55.6312 41.0671 55.6345 40.8797C55.6337 40.7234 55.6607 40.5682 55.7143 40.4214C55.7639 40.2833 55.8404 40.1566 55.9394 40.0486C56.0399 39.941 56.1617 39.8555 56.2969 39.7977C56.4476 39.7335 56.61 39.7017 56.7737 39.7041ZM56.7851 40.1145C56.714 40.1103 56.6427 40.1206 56.5757 40.1449C56.5087 40.1691 56.4472 40.2067 56.3951 40.2554C56.2936 40.366 56.2304 40.5065 56.215 40.656H57.2864C57.2867 40.585 57.2764 40.5144 57.256 40.4464C57.2375 40.3832 57.206 40.3244 57.1637 40.2739C57.121 40.2235 57.0674 40.1835 57.007 40.1569C56.9368 40.1273 56.8612 40.1129 56.7851 40.1145Z" fill="#199B43"/>
<path d="M58.489 42.1173V39.7411H58.8373C58.8699 39.7387 58.9023 39.7478 58.9289 39.7669C58.9555 39.786 58.9745 39.8138 58.9827 39.8456L59.0196 40.0214C59.0602 39.9761 59.1039 39.9335 59.1503 39.8941C59.1951 39.8557 59.2438 39.8223 59.2957 39.7944C59.3483 39.7663 59.4041 39.7442 59.4617 39.7286C59.5254 39.7117 59.5911 39.7035 59.657 39.7041C59.7904 39.6989 59.9212 39.7421 60.0253 39.826C60.1252 39.912 60.2002 40.0235 60.2423 40.1487C60.2767 40.074 60.3235 40.0055 60.3806 39.9463C60.4341 39.8914 60.4955 39.845 60.5629 39.8086C60.6294 39.773 60.7004 39.7464 60.7739 39.7297C60.8478 39.7128 60.9233 39.7042 60.999 39.7041C61.1181 39.702 61.2364 39.7225 61.3478 39.7645C61.4457 39.8022 61.5333 39.8625 61.6039 39.9403C61.676 40.0223 61.7299 40.1188 61.7622 40.2233C61.8 40.3467 61.8183 40.4752 61.8165 40.6042V42.1162H61.2453V40.6054C61.2453 40.4541 61.2122 40.3398 61.146 40.2635C61.109 40.2241 61.0638 40.1933 61.0135 40.1734C60.9632 40.1536 60.9092 40.1451 60.8553 40.1487C60.7996 40.1484 60.7443 40.1588 60.6925 40.1792C60.6434 40.1988 60.5987 40.2282 60.5612 40.2658C60.5218 40.3063 60.4914 40.355 60.4723 40.4083C60.4497 40.4715 60.4389 40.5383 60.4403 40.6054V42.1173H59.8669V40.6054C59.8669 40.4464 59.8351 40.3305 59.7714 40.2576C59.735 40.2198 59.6908 40.1905 59.6418 40.1717C59.593 40.1529 59.5405 40.1451 59.4882 40.1487C59.4077 40.1486 59.3286 40.1698 59.2588 40.2103C59.1831 40.2544 59.1156 40.3112 59.0592 40.3784V42.1173H58.489Z" fill="#199B43"/>
<path d="M64.4584 42.1172H64.2024C64.1588 42.1195 64.1153 42.1113 64.0755 42.0933C64.0579 42.0823 64.0428 42.068 64.0308 42.051C64.0189 42.0341 64.0105 42.015 64.006 41.9948L63.9545 41.8255C63.8987 41.8766 63.8398 41.9242 63.7782 41.9681C63.722 42.0082 63.6621 42.0426 63.5992 42.071C63.5363 42.0994 63.4705 42.1203 63.4028 42.1335C63.3269 42.1484 63.2497 42.1554 63.1723 42.1548C63.0783 42.1557 62.9848 42.1419 62.8951 42.1139C62.8151 42.0889 62.7412 42.0474 62.6781 41.992C62.6163 41.936 62.5678 41.8669 62.5359 41.7896C62.5007 41.7003 62.4836 41.6048 62.4855 41.5088C62.4862 41.4155 62.5105 41.3239 62.556 41.2426C62.6127 41.1447 62.6934 41.063 62.7904 41.0054C62.925 40.9244 63.0714 40.8653 63.2244 40.8301C63.4459 40.7791 63.6729 40.7557 63.9002 40.7604V40.6205C63.9002 40.46 63.8672 40.3414 63.7999 40.2646C63.763 40.2251 63.7179 40.1942 63.6677 40.1742C63.6175 40.1543 63.5636 40.1457 63.5097 40.1492C63.4316 40.1471 63.3536 40.1582 63.2791 40.1819C63.2226 40.2007 63.1681 40.2251 63.1164 40.2548C63.0708 40.282 63.0291 40.306 62.9905 40.3277C62.9518 40.3496 62.908 40.3608 62.8636 40.3604C62.8281 40.3614 62.7932 40.3507 62.7644 40.3299C62.7369 40.3104 62.714 40.2851 62.6971 40.2559L62.5983 40.0725C62.8662 39.8242 63.2194 39.6896 63.584 39.6969C63.711 39.6956 63.837 39.7199 63.9545 39.7683C64.0589 39.8112 64.153 39.876 64.2306 39.9582C64.3075 40.042 64.3661 40.141 64.4026 40.2488C64.4427 40.3682 64.4625 40.4935 64.4612 40.6195L64.4584 42.1172ZM63.3507 41.7607C63.4054 41.7612 63.4599 41.7559 63.5135 41.745C63.5618 41.7345 63.6088 41.7185 63.6535 41.6971C63.6984 41.6753 63.7409 41.6489 63.7804 41.6181C63.824 41.585 63.8652 41.5485 63.9035 41.5093V41.1114C63.7641 41.1095 63.6249 41.1201 63.4875 41.143C63.394 41.1581 63.3028 41.1853 63.2162 41.2236C63.1587 41.2479 63.1088 41.2873 63.0719 41.3379C63.0373 41.394 63.0229 41.4603 63.0313 41.5257C63.0397 41.5911 63.0703 41.6516 63.118 41.6971C63.1868 41.7428 63.2683 41.7652 63.3507 41.7607Z" fill="#199B43"/>
<path d="M68.0292 42.1173C67.9967 42.1197 67.9644 42.1106 67.9378 42.0916C67.9113 42.0726 67.8921 42.0449 67.8838 42.0133L67.8377 41.7842C67.79 41.8381 67.7383 41.8883 67.6831 41.9344C67.6295 41.9795 67.5712 42.0184 67.5089 42.0504C67.4452 42.0835 67.3776 42.1087 67.3077 42.1254C67.2319 42.1439 67.1541 42.1528 67.0761 42.1521C66.953 42.1541 66.8311 42.1264 66.7209 42.0714C66.6107 42.0164 66.5152 41.9356 66.4425 41.8359C66.3589 41.7216 66.2977 41.5922 66.2624 41.455C66.2178 41.2858 66.1964 41.1113 66.1989 40.9363C66.1976 40.7703 66.2218 40.6051 66.2705 40.4465C66.3138 40.3036 66.3834 40.1702 66.4755 40.053C66.5625 39.9437 66.672 39.8547 66.7967 39.7922C66.9274 39.7282 67.0712 39.696 67.2166 39.6981C67.333 39.6949 67.4488 39.7168 67.5562 39.7623C67.6483 39.8042 67.7327 39.8614 67.8057 39.9316V38.676H68.3758V42.1173H68.0292ZM67.2697 41.6982C67.3754 41.7015 67.4801 41.6759 67.5724 41.6242C67.6626 41.5684 67.7423 41.4971 67.8078 41.4136V40.348C67.7518 40.2761 67.6792 40.219 67.5963 40.1814C67.5186 40.1486 67.4349 40.1321 67.3506 40.133C67.2699 40.1317 67.1898 40.1482 67.1162 40.1814C67.0456 40.2147 66.9844 40.2652 66.9383 40.3284C66.8855 40.4039 66.8475 40.4889 66.8265 40.5787C66.7987 40.6958 66.7856 40.8159 66.7875 40.9363C66.7853 41.0549 66.7965 41.1734 66.8211 41.2895C66.8382 41.3734 66.8706 41.4535 66.9166 41.5257C66.9542 41.5832 67.0069 41.629 67.069 41.6579C67.1324 41.6854 67.2008 41.6991 67.2697 41.6982Z" fill="#199B43"/>
<path d="M70.199 39.7041C70.3396 39.7026 70.4794 39.727 70.6113 39.776C70.7334 39.8217 70.8444 39.8931 70.9367 39.9855C71.0303 40.0822 71.1026 40.1976 71.1488 40.324C71.2021 40.4704 71.2281 40.6254 71.2253 40.7812C71.2258 40.8175 71.2237 40.8539 71.2194 40.89C71.2171 40.9135 71.2101 40.9363 71.1988 40.957C71.1892 40.9726 71.175 40.9848 71.1581 40.9918C71.1374 40.9994 71.1155 41.0029 71.0936 41.0022H69.6289C69.6459 41.2467 69.7113 41.4259 69.8253 41.5398C69.8851 41.5978 69.9561 41.6429 70.0339 41.6723C70.1116 41.7018 70.1946 41.7151 70.2777 41.7113C70.3584 41.7129 70.439 41.7019 70.5164 41.6786C70.5768 41.6596 70.6356 41.6356 70.6921 41.6068C70.742 41.5807 70.786 41.5567 70.8234 41.5349C70.8561 41.5148 70.8935 41.5037 70.9319 41.5029C70.9528 41.5022 70.9735 41.5069 70.9921 41.5164C71.0094 41.5261 71.0244 41.5395 71.0361 41.5557L71.202 41.7641C71.1411 41.8367 71.0696 41.8996 70.9899 41.9508C70.9129 42.0001 70.8304 42.0405 70.7442 42.0711C70.6596 42.1013 70.5722 42.1226 70.4832 42.1347C70.3979 42.1469 70.3118 42.1531 70.2256 42.1532C70.0687 42.1547 69.9129 42.1268 69.7661 42.0711C69.6269 42.0181 69.501 41.935 69.3972 41.8277C69.2883 41.7137 69.2041 41.5782 69.1499 41.4299C69.087 41.2535 69.0565 41.0671 69.0598 40.8797C69.059 40.7237 69.0856 40.5687 69.1385 40.422C69.188 40.2839 69.2646 40.1572 69.3636 40.0492C69.4642 39.9414 69.5862 39.856 69.7216 39.7983C69.8724 39.7337 70.0351 39.7016 70.199 39.7041ZM70.211 40.1145C70.1398 40.1103 70.0684 40.1206 70.0013 40.1448C69.9342 40.1691 69.8726 40.2067 69.8204 40.2554C69.719 40.366 69.6561 40.5066 69.6408 40.656H70.7117C70.712 40.585 70.7017 40.5144 70.6813 40.4464C70.6628 40.3832 70.6314 40.3244 70.589 40.2739C70.5463 40.2235 70.4927 40.1835 70.4323 40.1569C70.3623 40.1273 70.2869 40.1127 70.211 40.1145Z" fill="#199B43"/>
<path d="M75.3586 41.3276C75.3754 41.3277 75.3915 41.3313 75.4064 41.3381C75.4219 41.3449 75.4355 41.3549 75.4461 41.3674L75.6911 41.6335C75.5571 41.8002 75.3859 41.9329 75.1917 42.0204C74.9659 42.1152 74.7234 42.1611 74.4789 42.1549C74.25 42.1587 74.0225 42.1151 73.8109 42.027C73.6188 41.9464 73.4461 41.8256 73.3042 41.6727C73.1606 41.5155 73.0509 41.3302 72.982 41.1284C72.9054 40.9073 72.8677 40.6746 72.8703 40.4405C72.8673 40.2043 72.9095 39.9696 72.9945 39.7494C73.0727 39.5461 73.1926 39.3615 73.3463 39.2075C73.5 39.0535 73.6841 38.9334 73.8868 38.8552C74.1086 38.7687 74.3449 38.7258 74.5825 38.7289C74.8059 38.724 75.0273 38.7645 75.2339 38.8481C75.4113 38.9222 75.5733 39.0295 75.7104 39.1643L75.5025 39.4538C75.4901 39.4728 75.474 39.4892 75.4548 39.5023C75.4318 39.5176 75.4039 39.5251 75.376 39.5235C75.3363 39.5219 75.2978 39.5071 75.2674 39.4815C75.2221 39.4486 75.175 39.4185 75.1266 39.3912C75.0571 39.3539 74.9845 39.3236 74.9095 39.3009C74.657 39.2339 74.3896 39.2482 74.1458 39.3417C74.0166 39.3943 73.9007 39.4745 73.806 39.5768C73.7079 39.6845 73.6327 39.8109 73.5847 39.9486C73.5297 40.1059 73.5027 40.2716 73.5049 40.4383C73.502 40.6092 73.529 40.7792 73.5847 40.9407C73.6321 41.0773 73.7058 41.2032 73.8017 41.3113C73.8907 41.4106 74.0003 41.4892 74.1228 41.5415C74.2482 41.5953 74.3834 41.6225 74.5199 41.6216C74.5968 41.6221 74.6731 41.6176 74.7494 41.6079C74.8139 41.5997 74.8772 41.585 74.9386 41.5639C74.9957 41.5438 75.0497 41.5179 75.1012 41.4866C75.1564 41.4523 75.2079 41.4131 75.2556 41.3696C75.2699 41.356 75.286 41.3446 75.304 41.3358C75.3214 41.3288 75.34 41.326 75.3586 41.3276Z" fill="#199B43"/>
<path d="M76.3538 42.1172V39.741H76.6881C76.7316 39.7365 76.775 39.7481 76.8103 39.7737C76.837 39.8039 76.8532 39.8422 76.8563 39.8825L76.891 40.1699C76.9661 40.0347 77.0678 39.9165 77.1906 39.8227C77.3011 39.7388 77.4357 39.6938 77.574 39.6948C77.677 39.6908 77.7787 39.7193 77.865 39.7764L77.7911 40.2047C77.7887 40.2274 77.7781 40.2484 77.7614 40.2635C77.7428 40.276 77.721 40.2822 77.6987 40.2809C77.6665 40.2795 77.6348 40.274 77.6038 40.2646C77.5517 40.2528 77.4977 40.2476 77.4444 40.2488C77.3346 40.246 77.2279 40.2805 77.1404 40.3468C77.0455 40.4241 76.9716 40.523 76.9233 40.6352V42.115L76.3538 42.1172Z" fill="#199B43"/>
<path d="M79.4442 39.7042C79.5851 39.7026 79.7246 39.727 79.8561 39.776C79.9784 39.8215 80.0894 39.893 80.1812 39.9856C80.2755 40.0821 80.3481 40.1975 80.394 40.3241C80.4467 40.4706 80.4728 40.6255 80.4703 40.7813C80.4709 40.8176 80.4691 40.854 80.4647 40.8901C80.4622 40.9137 80.4554 40.9365 80.4436 40.9571C80.4343 40.9728 80.4201 40.985 80.4033 40.9919C80.3828 40.9995 80.3605 41.003 80.3388 41.0022H78.8741C78.8909 41.2468 78.956 41.426 79.0708 41.54C79.1303 41.5979 79.201 41.643 79.2792 41.6725C79.3568 41.7019 79.4399 41.7152 79.523 41.7114C79.6037 41.713 79.6843 41.7019 79.7619 41.6787C79.822 41.6598 79.8803 41.6357 79.9368 41.6069C79.987 41.5808 80.0305 41.5568 80.0689 41.5351C80.1012 41.5149 80.139 41.5038 80.1769 41.5029C80.198 41.5023 80.2191 41.507 80.2377 41.5165C80.2544 41.5262 80.2699 41.5396 80.2811 41.5557L80.4474 41.7642C80.3866 41.8369 80.3146 41.8998 80.2346 41.9508C80.1576 42.0005 80.0751 42.0408 79.9889 42.0711C79.9045 42.1015 79.8171 42.1228 79.7277 42.1348C79.6427 42.147 79.5571 42.1532 79.4709 42.1533C79.314 42.1548 79.1582 42.1269 79.0112 42.0711C78.8723 42.0181 78.7457 41.9351 78.6421 41.8279C78.5335 41.7138 78.4492 41.5783 78.3952 41.43C78.3319 41.2536 78.3015 41.0671 78.3052 40.8798C78.304 40.7236 78.3307 40.5683 78.384 40.4215C78.433 40.2833 78.51 40.1565 78.6092 40.0487C78.7097 39.9411 78.8313 39.8556 78.9665 39.7978C79.1173 39.7335 79.2805 39.7016 79.4442 39.7042ZM79.4554 40.1145C79.3847 40.1104 79.3133 40.1208 79.2463 40.1449C79.1793 40.1692 79.1179 40.2068 79.0658 40.2555C78.9641 40.366 78.9008 40.5066 78.8853 40.6561H79.9567C79.9573 40.5851 79.9467 40.5145 79.9263 40.4466C79.9076 40.3834 79.8766 40.3246 79.8344 40.274C79.7916 40.2237 79.7377 40.1838 79.6775 40.157C79.6074 40.1274 79.5317 40.1129 79.4554 40.1145ZM80.2569 38.7344L79.6856 39.3363C79.662 39.3627 79.6328 39.3844 79.6012 39.3999C79.5677 39.4126 79.5323 39.4186 79.4963 39.4174H79.1545L79.4802 38.8546C79.4994 38.8184 79.5274 38.787 79.5609 38.7632C79.603 38.7392 79.6514 38.7282 79.6998 38.7316L80.2569 38.7344Z" fill="#199B43"/>
<path d="M82.826 42.1173C82.7937 42.1197 82.7615 42.1107 82.7348 42.0918C82.7081 42.0727 82.6889 42.045 82.6808 42.0133L82.6349 41.7842C82.5872 41.8381 82.5351 41.8883 82.4798 41.9344C82.4265 41.9793 82.3676 42.0182 82.3055 42.0504C82.2416 42.0835 82.1746 42.1087 82.1045 42.1254C82.0288 42.1439 81.9507 42.1528 81.8725 42.1521C81.7497 42.1537 81.6275 42.1259 81.517 42.071C81.4072 42.0155 81.3123 41.9349 81.2391 41.8359C81.1554 41.7215 81.0946 41.5922 81.0586 41.455C81.0145 41.2858 80.9928 41.1113 80.9953 40.9363C80.9941 40.7703 81.0183 40.6051 81.0673 40.4465C81.1101 40.3035 81.1802 40.17 81.2726 40.053C81.3595 39.9437 81.4693 39.8547 81.594 39.7922C81.7242 39.7281 81.8682 39.6958 82.0133 39.6981C82.13 39.6949 82.246 39.7168 82.3533 39.7623C82.4457 39.8043 82.5313 39.8617 82.6052 39.9321V38.676H83.1753V42.1173H82.826ZM82.0667 41.6982C82.1721 41.7015 82.277 41.6759 82.3688 41.6242C82.4594 41.5684 82.5394 41.4971 82.6052 41.4136V40.348C82.5487 40.2763 82.4761 40.2192 82.393 40.1814C82.3154 40.1486 82.2317 40.1321 82.1473 40.133C82.0667 40.1317 81.9866 40.1482 81.9134 40.1814C81.8427 40.2147 81.7813 40.2652 81.7354 40.3284C81.6827 40.4039 81.6448 40.4889 81.6237 40.5787C81.5958 40.6958 81.5828 40.8159 81.5847 40.9363C81.5822 41.0549 81.5933 41.1734 81.6175 41.2895C81.6343 41.3736 81.6672 41.4536 81.7137 41.5257C81.7509 41.5833 81.8036 41.6291 81.8663 41.6579C81.9296 41.6855 81.9978 41.6992 82.0667 41.6982Z" fill="#199B43"/>
<path d="M84.7093 39.0489C84.7099 39.0968 84.6994 39.1442 84.6795 39.1877C84.6603 39.2302 84.633 39.2687 84.6001 39.3014C84.566 39.3342 84.5263 39.3605 84.4835 39.3787C84.4382 39.3985 84.3892 39.4084 84.3402 39.4081C84.2918 39.4084 84.2446 39.3983 84.2006 39.3787C84.1144 39.3422 84.0461 39.2738 84.0089 39.1877C83.9897 39.1441 83.9797 39.0968 83.9797 39.0489C83.9797 38.9995 83.9897 38.9505 84.0089 38.9052C84.0455 38.8183 84.1144 38.7491 84.2006 38.712C84.2446 38.6928 84.2918 38.683 84.3402 38.6832C84.3892 38.6829 84.4382 38.6927 84.4835 38.712C84.5709 38.749 84.641 38.8181 84.6795 38.9052C84.6994 38.9504 84.7099 38.9994 84.7093 39.0489ZM84.6218 39.7412V42.1173H84.0517V39.7412H84.6218Z" fill="#199B43"/>
<path d="M86.2721 42.1549C86.068 42.1549 85.9098 42.0961 85.7994 41.9796C85.6883 41.8632 85.6325 41.7021 85.6325 41.4969V40.17H85.393C85.3775 40.1708 85.3614 40.1682 85.3471 40.1623C85.3322 40.1565 85.3192 40.1475 85.3087 40.1359C85.2975 40.1244 85.2894 40.1107 85.2845 40.0958C85.2795 40.0808 85.2777 40.0649 85.2795 40.0492V39.8228L85.6592 39.7602L85.7789 39.112C85.7839 39.0835 85.7988 39.0579 85.8217 39.0402C85.8459 39.0226 85.8757 39.0136 85.9061 39.0146H86.2014V39.763H86.8248V40.1706H86.2014V41.4556C86.197 41.5182 86.2169 41.58 86.2554 41.6291C86.274 41.6498 86.2969 41.6661 86.3224 41.6769C86.3478 41.6878 86.3751 41.6928 86.403 41.6917C86.4334 41.6925 86.4632 41.6881 86.4917 41.6787C86.5134 41.6713 86.5345 41.6625 86.5544 41.652C86.5717 41.6428 86.5872 41.634 86.6015 41.6254C86.6139 41.6175 86.6288 41.6132 86.6431 41.6128C86.658 41.6123 86.6729 41.6167 86.6846 41.6254C86.6977 41.6366 86.7095 41.6496 86.7194 41.664L86.89 41.9416C86.8056 42.0119 86.7082 42.0654 86.604 42.0994C86.4967 42.1354 86.385 42.1541 86.2721 42.1549Z" fill="#199B43"/>
<path d="M88.5183 39.7041C88.6827 39.7019 88.8465 39.7311 88.9997 39.7901C89.1387 39.8439 89.264 39.9269 89.3682 40.0333C89.4724 40.1432 89.5531 40.2742 89.6027 40.4176C89.7144 40.7472 89.7144 41.1046 89.6027 41.4342C89.5525 41.5782 89.4724 41.71 89.3682 41.8212C89.2646 41.9289 89.1387 42.0127 88.9997 42.0666C88.6883 42.1805 88.3471 42.1805 88.0357 42.0666C87.8961 42.0128 87.7695 41.929 87.6653 41.8212C87.5605 41.71 87.4792 41.5783 87.4277 41.4342C87.3154 41.1047 87.3154 40.7471 87.4277 40.4176C87.4792 40.2741 87.5599 40.1432 87.6653 40.0333C87.7702 39.9267 87.8967 39.8437 88.0357 39.7901C88.1902 39.7311 88.3539 39.7019 88.5183 39.7041ZM88.5183 41.7123C88.7156 41.7123 88.8614 41.646 88.9557 41.5131C89.05 41.3803 89.0977 41.1857 89.0977 40.9292C89.0977 40.6734 89.0506 40.4782 88.9557 40.3436C88.8608 40.2089 88.7156 40.1418 88.5183 40.1422C88.3186 40.1422 88.1709 40.2097 88.0748 40.3447C87.9792 40.4796 87.9308 40.6745 87.9308 40.9292C87.9308 41.1844 87.9786 41.3781 88.0735 41.5121C88.1684 41.646 88.3186 41.7123 88.5183 41.7123Z" fill="#199B43"/>
<path d="M93.8022 41.3276C93.8189 41.3276 93.8357 41.3312 93.8506 41.3381C93.8654 41.3449 93.8791 41.3549 93.8903 41.3673L94.1347 41.6335C94.0013 41.8002 93.8301 41.9328 93.6353 42.0204C93.4101 42.1153 93.1675 42.161 92.9231 42.1548C92.6942 42.1586 92.4665 42.1151 92.255 42.027C92.0627 41.9463 91.8902 41.8255 91.7481 41.6726C91.6042 41.5154 91.495 41.3301 91.4255 41.1284C91.3499 40.9072 91.312 40.6745 91.3139 40.4405C91.3108 40.2042 91.3536 39.9695 91.4386 39.7493C91.5174 39.5468 91.6371 39.3627 91.7891 39.2083C91.9442 39.0547 92.129 38.9345 92.3319 38.8551C92.5534 38.7687 92.7897 38.7258 93.028 38.7288C93.2507 38.7238 93.4721 38.7644 93.6787 38.848C93.8561 38.9222 94.0181 39.0295 94.1558 39.1642L93.9479 39.4538C93.9349 39.4726 93.9188 39.489 93.9008 39.5022C93.8766 39.5175 93.8487 39.5249 93.8208 39.5234C93.7811 39.5217 93.7432 39.507 93.7122 39.4815C93.6669 39.4486 93.6198 39.4184 93.5714 39.3912C93.5019 39.3538 93.4293 39.3235 93.3543 39.3008C93.1018 39.234 92.8344 39.2483 92.59 39.3417C92.4609 39.3942 92.3449 39.4745 92.2506 39.5768C92.1526 39.6844 92.0769 39.8108 92.0292 39.9485C91.974 40.1058 91.9473 40.2716 91.9491 40.4383C91.9466 40.6091 91.9733 40.7792 92.0292 40.9407C92.0763 41.0773 92.1501 41.2033 92.2463 41.3113C92.335 41.4106 92.4442 41.4892 92.5664 41.5415C92.6923 41.5953 92.8276 41.6226 92.9634 41.6215C93.0404 41.6221 93.1173 41.6175 93.1936 41.6079C93.2581 41.5995 93.3214 41.5848 93.3828 41.5638C93.4399 41.5436 93.4945 41.5178 93.546 41.4865C93.6005 41.4522 93.652 41.4131 93.6992 41.3695C93.7135 41.3559 93.7302 41.3446 93.7476 41.3358C93.7649 41.3288 93.7835 41.326 93.8022 41.3276Z" fill="#199B43"/>
<path d="M95.8083 39.7041C95.9727 39.7019 96.1358 39.7311 96.2897 39.7901C96.428 39.8437 96.554 39.9267 96.6576 40.0333C96.7624 40.1433 96.8424 40.2743 96.8933 40.4176C97.0037 40.7474 97.0037 41.1044 96.8933 41.4342C96.8424 41.5782 96.7618 41.7099 96.6576 41.8212C96.554 41.929 96.4286 42.0128 96.2897 42.0666C95.9783 42.1806 95.637 42.1806 95.3262 42.0666C95.186 42.013 95.0595 41.9292 94.9553 41.8212C94.8504 41.7101 94.7692 41.5783 94.7171 41.4342C94.6054 41.1047 94.6054 40.7471 94.7171 40.4176C94.7685 40.2741 94.8498 40.1432 94.9553 40.0333C95.0601 39.9266 95.1867 39.8436 95.3262 39.7901C95.4801 39.7311 95.6433 39.7019 95.8083 39.7041ZM95.8083 41.7123C96.0049 41.7123 96.1507 41.646 96.2462 41.5131C96.3412 41.3804 96.3883 41.1857 96.3877 40.9292C96.3877 40.6734 96.3405 40.4782 96.2462 40.3436C96.1513 40.2089 96.0056 40.1418 95.8083 40.1422C95.6079 40.1422 95.4602 40.2097 95.3653 40.3447C95.2698 40.4796 95.222 40.6745 95.222 40.9292C95.222 41.1844 95.2698 41.3781 95.3653 41.5121C95.4602 41.646 95.6079 41.7123 95.8083 41.7123Z" fill="#199B43"/>
<path d="M98.6588 39.7041C98.8232 39.7019 98.987 39.7311 99.1408 39.7901C99.2792 39.8439 99.4051 39.9269 99.5087 40.0333C99.6135 40.1434 99.6936 40.2743 99.7438 40.4176C99.8555 40.7472 99.8555 41.1046 99.7438 41.4342C99.6929 41.5782 99.6129 41.7099 99.5087 41.8212C99.4051 41.9289 99.2798 42.0127 99.1408 42.0666C98.8294 42.1805 98.4882 42.1805 98.1768 42.0666C98.0366 42.0128 97.9106 41.929 97.8064 41.8212C97.7009 41.7102 97.6203 41.5784 97.5688 41.4342C97.4559 41.1048 97.4559 40.747 97.5688 40.4176C97.6197 40.274 97.7009 40.1431 97.8064 40.0333C97.9106 39.9267 98.0372 39.8437 98.1768 39.7901C98.3306 39.7311 98.4944 39.702 98.6588 39.7041ZM98.6588 41.7123C98.8561 41.7123 99.0019 41.646 99.0968 41.5131C99.1917 41.3803 99.2388 41.1857 99.2388 40.9292C99.2388 40.6734 99.1917 40.4782 99.0968 40.3436C99.0019 40.2089 98.8561 40.1418 98.6588 40.1422C98.459 40.1422 98.3114 40.2097 98.2159 40.3447C98.1203 40.4796 98.0732 40.6745 98.0732 40.9292C98.0732 41.1838 98.1203 41.3781 98.2159 41.5121C98.3114 41.646 98.459 41.7123 98.6588 41.7123Z" fill="#199B43"/>
<path d="M100.499 42.8934V39.7412H100.847C100.881 39.7403 100.914 39.7492 100.942 39.7667C100.955 39.7758 100.967 39.7874 100.975 39.801C100.985 39.8146 100.99 39.8298 100.993 39.8457L101.039 40.0634C101.132 39.9559 101.243 39.8658 101.368 39.7973C101.501 39.7269 101.651 39.6917 101.802 39.6949C101.925 39.6935 102.047 39.7215 102.156 39.7765C102.266 39.8323 102.36 39.9126 102.433 40.0111C102.516 40.1257 102.578 40.255 102.614 40.3921C102.658 40.5609 102.679 40.7351 102.677 40.9097C102.678 41.077 102.654 41.2435 102.605 41.4033C102.562 41.546 102.493 41.6794 102.401 41.7968C102.315 41.9062 102.205 41.9952 102.08 42.0575C101.949 42.1213 101.805 42.1534 101.659 42.1511C101.55 42.1563 101.441 42.1383 101.339 42.0985C101.237 42.0587 101.145 41.9978 101.068 41.9198V42.8924L100.499 42.8934ZM101.607 40.1494C101.501 40.1464 101.396 40.1725 101.303 40.225C101.213 40.2809 101.133 40.3526 101.069 40.4367V41.5023C101.124 41.5751 101.197 41.6328 101.28 41.67C101.358 41.7019 101.442 41.718 101.526 41.7174C101.607 41.7184 101.687 41.7019 101.761 41.6689C101.831 41.6357 101.893 41.5847 101.938 41.5209C101.991 41.4449 102.029 41.3596 102.05 41.2695C102.078 41.1521 102.091 41.0319 102.089 40.9113C102.091 40.7926 102.08 40.6742 102.056 40.5581C102.039 40.4746 102.006 40.3951 101.96 40.3235C101.923 40.2666 101.87 40.2209 101.809 40.1913C101.746 40.1625 101.677 40.1482 101.607 40.1494Z" fill="#199B43"/>
<path d="M104.313 39.7041C104.454 39.7027 104.594 39.727 104.726 39.776C104.848 39.8217 104.959 39.8931 105.051 39.9855C105.145 40.0822 105.217 40.1975 105.263 40.324C105.317 40.4704 105.343 40.6254 105.339 40.7812C105.34 40.8176 105.338 40.8539 105.334 40.89C105.331 40.9136 105.325 40.9364 105.313 40.957C105.303 40.9727 105.289 40.9849 105.272 40.9918C105.252 40.9994 105.23 41.0029 105.208 41.0021H103.743C103.76 41.2467 103.825 41.4259 103.94 41.5399C103.999 41.5978 104.07 41.6429 104.148 41.6724C104.226 41.7019 104.309 41.7151 104.392 41.7113C104.473 41.713 104.553 41.7019 104.631 41.6786C104.691 41.6595 104.75 41.6355 104.807 41.6068C104.856 41.5807 104.9 41.5567 104.937 41.535C104.97 41.5148 105.008 41.5038 105.046 41.5028C105.067 41.5022 105.088 41.5069 105.106 41.5165C105.124 41.5262 105.138 41.5396 105.15 41.5556L105.317 41.7641C105.256 41.8367 105.184 41.8996 105.104 41.9507C105.027 42.0001 104.945 42.0405 104.859 42.071C104.774 42.1012 104.687 42.1226 104.597 42.1347C104.513 42.1469 104.426 42.1531 104.34 42.1532C104.183 42.1547 104.027 42.1269 103.88 42.071C103.741 42.018 103.615 41.935 103.511 41.8278C103.403 41.7135 103.318 41.5781 103.264 41.4299C103.201 41.2531 103.171 41.0663 103.174 40.8786C103.173 40.7225 103.2 40.5676 103.253 40.4209C103.302 40.2828 103.379 40.1561 103.478 40.0481C103.578 39.9404 103.7 39.855 103.836 39.7972C103.986 39.7331 104.15 39.7014 104.313 39.7041ZM104.325 40.1145C104.253 40.1106 104.182 40.1212 104.114 40.1459C104.047 40.1707 103.986 40.2088 103.934 40.2582C103.833 40.3689 103.769 40.5093 103.754 40.6587H104.825C104.825 40.5877 104.815 40.5171 104.795 40.4492C104.776 40.3859 104.745 40.3272 104.702 40.2767C104.66 40.2263 104.606 40.1863 104.545 40.1597C104.477 40.1294 104.401 40.114 104.326 40.1145H104.325Z" fill="#199B43"/>
<path d="M106.03 42.1172V39.741H106.364C106.408 39.7365 106.451 39.7481 106.487 39.7737C106.513 39.8039 106.529 39.8422 106.533 39.8825L106.567 40.1699C106.641 40.0351 106.742 39.9169 106.863 39.8227C106.974 39.7388 107.108 39.6938 107.247 39.6948C107.35 39.6908 107.451 39.7193 107.538 39.7764L107.464 40.2047C107.462 40.2275 107.451 40.2486 107.433 40.2635C107.415 40.2762 107.393 40.2824 107.371 40.2809C107.339 40.2794 107.307 40.2739 107.276 40.2646C107.224 40.2528 107.171 40.2476 107.117 40.2488C107.008 40.246 106.9 40.2805 106.813 40.3468C106.718 40.4241 106.644 40.523 106.596 40.6352V42.115L106.03 42.1172Z" fill="#199B43"/>
<path d="M109.931 42.1172H109.675C109.631 42.1195 109.587 42.1113 109.548 42.0933C109.53 42.0823 109.515 42.068 109.503 42.051C109.491 42.0341 109.482 42.015 109.478 41.9948L109.428 41.8255C109.372 41.8765 109.312 41.9241 109.251 41.9681C109.195 42.0082 109.135 42.0426 109.072 42.071C109.009 42.0993 108.943 42.1203 108.876 42.1335C108.8 42.1483 108.722 42.1554 108.645 42.1548C108.551 42.1557 108.458 42.1419 108.368 42.1139C108.288 42.0889 108.214 42.0474 108.151 41.992C108.089 41.936 108.041 41.8669 108.009 41.7896C107.974 41.7003 107.956 41.6048 107.958 41.5088C107.959 41.4155 107.983 41.3239 108.029 41.2426C108.085 41.1447 108.166 41.063 108.263 41.0054C108.398 40.9244 108.544 40.8653 108.697 40.8301C108.919 40.779 109.146 40.7557 109.374 40.7604V40.6205C109.374 40.4602 109.34 40.3416 109.273 40.2646C109.235 40.2247 109.19 40.1936 109.14 40.1736C109.089 40.1535 109.035 40.145 108.981 40.1487C108.903 40.1466 108.825 40.1576 108.75 40.1813C108.694 40.2001 108.639 40.2246 108.588 40.2543C108.542 40.2815 108.5 40.3055 108.462 40.3272C108.423 40.349 108.379 40.3603 108.335 40.3599C108.299 40.3609 108.265 40.3501 108.235 40.3294C108.208 40.3098 108.185 40.2845 108.168 40.2553L108.065 40.0725C108.332 39.8242 108.686 39.6896 109.05 39.6969C109.177 39.6948 109.303 39.7181 109.421 39.7656C109.525 39.8084 109.619 39.8731 109.697 39.9555C109.774 40.0393 109.832 40.1383 109.869 40.2461C109.909 40.3654 109.929 40.4908 109.927 40.6168L109.931 42.1172ZM108.823 41.7607C108.878 41.7612 108.932 41.7559 108.985 41.745C109.034 41.7345 109.081 41.7185 109.126 41.6971C109.17 41.6753 109.211 41.649 109.25 41.6187C109.294 41.5853 109.335 41.549 109.374 41.5098V41.112C109.234 41.11 109.095 41.1206 108.957 41.1436C108.863 41.1587 108.772 41.1858 108.686 41.2241C108.628 41.2483 108.579 41.2879 108.541 41.3384C108.507 41.3944 108.492 41.4608 108.501 41.5262C108.509 41.5917 108.54 41.6522 108.588 41.6976C108.657 41.7438 108.74 41.7659 108.823 41.7607Z" fill="#199B43"/>
<path d="M111.495 42.1549C111.291 42.1549 111.133 42.0961 111.023 41.9796C110.912 41.8632 110.856 41.7021 110.856 41.4969V40.17H110.616C110.587 40.1705 110.558 40.1596 110.536 40.1396C110.525 40.1278 110.516 40.1137 110.51 40.0981C110.505 40.0824 110.502 40.0658 110.503 40.0492V39.8228L110.883 39.7602L111.003 39.112C111.008 39.0835 111.023 39.0578 111.046 39.0402C111.071 39.0226 111.1 39.0136 111.13 39.0146H111.426V39.763H112.049V40.1706H111.426V41.4556C111.422 41.5182 111.441 41.58 111.48 41.6291C111.499 41.6498 111.522 41.6661 111.547 41.6769C111.572 41.6878 111.6 41.6928 111.628 41.6917C111.658 41.6925 111.688 41.6881 111.716 41.6787C111.738 41.6713 111.758 41.6625 111.779 41.652C111.797 41.6428 111.812 41.634 111.826 41.6254C111.839 41.6175 111.853 41.6132 111.868 41.6128C111.883 41.6122 111.897 41.6167 111.909 41.6254C111.922 41.6365 111.934 41.6495 111.944 41.664L112.115 41.9416C112.03 42.0118 111.933 42.0654 111.829 42.0994C111.721 42.1354 111.609 42.1542 111.495 42.1549Z" fill="#199B43"/>
<path d="M113.423 39.0489C113.423 39.0968 113.413 39.1442 113.393 39.1877C113.374 39.2303 113.347 39.2689 113.314 39.3014C113.28 39.3341 113.24 39.3604 113.197 39.3787C113.152 39.3984 113.103 39.4084 113.054 39.4081C113.006 39.4084 112.958 39.3983 112.914 39.3787C112.872 39.3603 112.833 39.3341 112.8 39.3014C112.768 39.2686 112.741 39.2301 112.722 39.1877C112.703 39.144 112.694 39.0966 112.694 39.0489C112.694 38.9773 112.714 38.9072 112.753 38.8473C112.792 38.7875 112.848 38.7404 112.914 38.712C112.958 38.6928 113.006 38.683 113.054 38.6832C113.103 38.6829 113.152 38.6928 113.197 38.712C113.24 38.7304 113.28 38.7567 113.314 38.7898C113.348 38.8228 113.374 38.862 113.393 38.9052C113.413 38.9504 113.423 38.9994 113.423 39.0489ZM113.338 39.7412V42.1173H112.768V39.7412H113.338Z" fill="#199B43"/>
<path d="M115.395 42.1173H114.878L113.936 39.7412H114.409C114.446 39.7399 114.483 39.7506 114.514 39.7716C114.541 39.7899 114.562 39.8167 114.573 39.8478L115.03 41.117C115.056 41.191 115.078 41.2639 115.096 41.3347C115.114 41.4054 115.129 41.4768 115.143 41.5481C115.157 41.4768 115.173 41.406 115.19 41.3347C115.209 41.261 115.232 41.1883 115.258 41.117L115.727 39.8478C115.738 39.817 115.758 39.7904 115.785 39.7716C115.814 39.7509 115.848 39.7402 115.884 39.7412H116.334L115.395 42.1173Z" fill="#199B43"/>
<path d="M117.833 39.7041C117.997 39.7019 118.16 39.7311 118.314 39.7901C118.453 39.8439 118.578 39.9269 118.682 40.0333C118.787 40.1434 118.867 40.2743 118.917 40.4176C119.029 40.7472 119.029 41.1046 118.917 41.4342C118.867 41.5782 118.787 41.7099 118.682 41.8212C118.579 41.9289 118.453 42.0127 118.314 42.0666C118.002 42.1805 117.661 42.1805 117.35 42.0666C117.21 42.0128 117.084 41.929 116.98 41.8212C116.874 41.7102 116.793 41.5784 116.742 41.4342C116.629 41.1048 116.629 40.747 116.742 40.4176C116.793 40.274 116.874 40.1431 116.98 40.0333C117.084 39.9267 117.211 39.8437 117.35 39.7901C117.504 39.7311 117.667 39.702 117.833 39.7041ZM117.833 41.7123C118.029 41.7123 118.175 41.646 118.27 41.5131C118.365 41.3803 118.413 41.1857 118.412 40.9292C118.412 40.6734 118.365 40.4782 118.27 40.3436C118.176 40.2089 118.029 40.1418 117.833 40.1422C117.633 40.1422 117.484 40.2097 117.389 40.3447C117.293 40.4796 117.246 40.6745 117.246 40.9292C117.246 41.1838 117.293 41.3781 117.389 41.5121C117.484 41.646 117.633 41.7123 117.833 41.7123Z" fill="#199B43"/>
<path d="M57.0809 33.2652C57.1576 33.2656 57.2337 33.2798 57.3054 33.3071C57.3871 33.3389 57.4611 33.3878 57.5224 33.4508L58.7738 34.7613C58.2347 35.4654 57.5251 36.0195 56.7125 36.3711C55.8858 36.734 54.9081 36.9154 53.7794 36.9154C52.744 36.9154 51.8164 36.7405 50.9966 36.3908C50.2065 36.0623 49.4952 35.5686 48.9103 34.9425C48.3279 34.308 47.8803 33.5612 47.5948 32.7476C47.2835 31.8649 47.129 30.9343 47.1381 29.9981C47.1381 28.989 47.3127 28.0622 47.662 27.2175C47.9959 26.3959 48.4944 25.6517 49.1267 25.0313C49.7719 24.408 50.5364 23.9225 51.3741 23.6043C52.2475 23.2643 53.2111 23.0943 54.2649 23.0943C54.7494 23.0912 55.233 23.1353 55.7089 23.226C56.1421 23.3101 56.5665 23.4344 56.9767 23.5972C57.3565 23.7484 57.7201 23.938 58.0616 24.1632C58.3802 24.3733 58.6751 24.6177 58.941 24.892L57.8788 26.3124C57.8079 26.4014 57.726 26.4809 57.6352 26.5492C57.5419 26.6205 57.4106 26.658 57.2425 26.658C57.1322 26.6586 57.0233 26.6333 56.9246 26.584C56.8155 26.529 56.7092 26.4685 56.6062 26.4028C56.4937 26.3302 56.3705 26.2529 56.2367 26.1709C56.0855 26.0787 55.9259 26.0011 55.7599 25.9391C55.5497 25.8594 55.333 25.7981 55.1123 25.7557C54.8261 25.7024 54.5354 25.6774 54.2443 25.6811C53.705 25.674 53.1698 25.7767 52.6712 25.9832C52.2058 26.1776 51.7888 26.4723 51.4496 26.8464C51.0971 27.2423 50.8269 27.7049 50.6548 28.207C50.4574 28.7834 50.3608 29.3897 50.3695 29.9991C50.3695 30.6918 50.4646 31.3074 50.6548 31.8458C50.8225 32.3458 51.0862 32.8081 51.4311 33.2064C51.7478 33.5667 52.139 33.8535 52.5773 34.0467C53.0198 34.2398 53.4976 34.3377 53.9801 34.3341C54.2427 34.3355 54.5052 34.3216 54.7661 34.2927C54.9904 34.2675 55.2114 34.2192 55.4258 34.1485C55.6278 34.0809 55.8221 33.9923 56.0056 33.884C56.2029 33.7664 56.3894 33.6315 56.5628 33.4807C56.6367 33.419 56.7184 33.3674 56.8058 33.3272C56.8918 33.2863 56.9857 33.2651 57.0809 33.2652Z" fill="#199B43"/>
<path d="M60.2144 36.7646V27.1386H61.9356C62.0567 27.1363 62.1776 27.1487 62.2957 27.1756C62.3843 27.1966 62.4673 27.2363 62.5394 27.292C62.6065 27.3471 62.658 27.419 62.6885 27.5005C62.7275 27.6028 62.7573 27.7085 62.7775 27.8161L62.937 28.7169C63.2917 28.1726 63.6908 27.7425 64.1342 27.4265C64.555 27.1179 65.0629 26.9521 65.5842 26.9529C66.0268 26.9529 66.3823 27.058 66.6506 27.2681L66.2764 29.3852C66.2514 29.5147 66.2021 29.6062 66.1266 29.6573C66.0375 29.7138 65.9331 29.7412 65.8277 29.7357C65.702 29.7337 65.5766 29.7199 65.4535 29.6943C65.2743 29.6636 65.0927 29.6496 64.911 29.6524C64.1515 29.6524 63.5529 30.0546 63.1149 30.859V36.7646H60.2144Z" fill="#199B43"/>
<path d="M72.0955 26.9901C72.6962 26.9831 73.2932 27.0838 73.8586 27.2873C74.3728 27.4736 74.8418 27.7679 75.2338 28.1505C75.6278 28.5439 75.9342 29.017 76.1321 29.5383C76.3493 30.0858 76.4572 30.7063 76.4572 31.3996C76.4597 31.5764 76.4504 31.7531 76.4293 31.9286C76.4181 32.0435 76.3828 32.1548 76.3263 32.2552C76.2804 32.3326 76.2091 32.3916 76.1247 32.4223C76.0211 32.4564 75.9119 32.4723 75.8027 32.4691H70.2056C70.2989 33.2735 70.5454 33.8567 70.945 34.2188C71.3446 34.5809 71.8591 34.7623 72.4883 34.7631C72.7822 34.7687 73.0751 34.7278 73.3562 34.6417C73.5801 34.5698 73.7978 34.4798 74.0072 34.3729C74.1978 34.2738 74.3715 34.184 74.531 34.1034C74.6861 34.0238 74.8579 33.9824 75.0316 33.9826C75.2618 33.9826 75.4373 34.0664 75.5552 34.2335L76.3976 35.2638C76.1179 35.5874 75.7916 35.8673 75.4293 36.0943C75.0943 36.3027 74.7363 36.4711 74.3622 36.5961C74.0067 36.7148 73.6403 36.7987 73.2683 36.8465C72.9225 36.8918 72.574 36.9151 72.2252 36.9161C71.5731 36.9208 70.9252 36.8093 70.3119 36.5868C69.7282 36.3744 69.1958 36.0405 68.7497 35.6072C68.2879 35.1498 67.9277 34.5994 67.6929 33.9924C67.4336 33.3488 67.3041 32.5999 67.3045 31.7457C67.3011 31.1209 67.4136 30.5007 67.6365 29.9171C67.8501 29.3534 68.1746 28.8387 68.5907 28.4036C69.0185 27.962 69.5306 27.6116 70.0966 27.3733C70.6868 27.1179 71.3531 26.9901 72.0955 26.9901ZM72.1498 28.9767C71.5943 28.9767 71.1603 29.133 70.8479 29.4458C70.5354 29.7585 70.3297 30.2087 70.2306 30.7961H73.851C73.8513 30.5703 73.8214 30.3455 73.762 30.1277C73.7054 29.9167 73.6067 29.7193 73.4718 29.5475C73.3296 29.371 73.1488 29.2297 72.9434 29.1345C72.6944 29.0233 72.4238 28.9694 72.1514 28.9767H72.1498Z" fill="#199B43"/>
<path d="M84.93 36.7648C84.77 36.7708 84.6118 36.7288 84.4759 36.644C84.3506 36.5576 84.2594 36.4294 84.2191 36.2821L83.9951 35.549C83.8059 35.749 83.6024 35.9353 83.3865 36.1063C83.1731 36.2739 82.943 36.4185 82.6992 36.5379C82.4454 36.6608 82.1787 36.7541 81.9039 36.816C81.6011 36.8832 81.2916 36.9159 80.9814 36.9134C80.4932 36.9177 80.0111 36.803 79.5769 36.5792C79.1364 36.3479 78.7555 36.0175 78.4633 35.6137C78.1519 35.1936 77.9069 34.6785 77.7294 34.0687C77.552 33.4587 77.4627 32.7639 77.4627 31.9842C77.4565 31.3058 77.5576 30.6308 77.7623 29.984C77.9428 29.4035 78.2301 28.8619 78.6091 28.3873C78.9658 27.9449 79.4143 27.5855 79.923 27.3336C80.4503 27.0761 81.0298 26.9457 81.616 26.9526C82.1154 26.9526 82.5379 27.0252 82.884 27.1703C83.2246 27.3118 83.5422 27.504 83.8264 27.7407V22.8691H86.726V36.7648H84.93ZM81.9926 34.707C82.1861 34.709 82.3791 34.6888 82.5683 34.6466C82.7321 34.6094 82.8909 34.5516 83.041 34.4746C83.1868 34.3984 83.3233 34.3051 83.4473 34.1965C83.5838 34.0764 83.711 33.9462 83.827 33.8069V29.719C83.631 29.4976 83.3859 29.3245 83.1117 29.2134C82.8561 29.1171 82.585 29.0684 82.3114 29.0698C82.0565 29.0667 81.8046 29.1206 81.5726 29.2276C81.3375 29.3421 81.1359 29.5164 80.9882 29.7332C80.8232 29.9654 80.6935 30.2671 80.5999 30.6383C80.4987 31.0796 80.4516 31.5315 80.4597 31.9842C80.4522 32.414 80.4901 32.8434 80.5719 33.2653C80.647 33.6122 80.7512 33.8923 80.8852 34.1056C81 34.3007 81.1669 34.4599 81.3666 34.565C81.5614 34.6605 81.7761 34.7092 81.9926 34.707Z" fill="#199B43"/>
<path d="M92.3019 24.5024C92.3031 24.7251 92.2554 24.9453 92.1617 25.1473C92.0693 25.3469 91.939 25.5267 91.7783 25.6768C91.6127 25.8306 91.421 25.9532 91.2119 26.0388C90.9935 26.1291 90.7597 26.1748 90.5239 26.1732C90.2956 26.175 90.0698 26.1293 89.8601 26.0388C89.6579 25.9513 89.4724 25.8288 89.313 25.6768C89.1548 25.5265 89.0276 25.3466 88.9383 25.1473C88.8477 24.9445 88.8018 24.7246 88.803 24.5024C88.8012 24.2756 88.8477 24.0509 88.9383 23.8433C89.0276 23.6414 89.1548 23.4585 89.313 23.305C89.4712 23.1511 89.6567 23.0283 89.8601 22.9431C90.0704 22.8553 90.2963 22.8111 90.5239 22.8131C90.7597 22.8113 90.9929 22.8555 91.2119 22.9431C91.4216 23.0265 91.6139 23.1493 91.7783 23.305C91.939 23.4584 92.0693 23.641 92.1617 23.8433C92.2554 24.0502 92.3031 24.2751 92.3019 24.5024ZM91.965 27.1387V36.7648H89.0648V27.1387H91.965Z" fill="#199B43"/>
<path d="M101.9 25.9876C101.823 26.1168 101.724 26.2302 101.605 26.3217C101.488 26.4004 101.349 26.4395 101.208 26.4333C101.045 26.428 100.885 26.3816 100.744 26.2983C100.581 26.2091 100.392 26.1078 100.183 25.9968C99.9536 25.8766 99.7142 25.7757 99.4679 25.6953C99.1713 25.6014 98.8618 25.5559 98.551 25.5608C97.9585 25.5608 97.5168 25.6862 97.2271 25.937C96.9368 26.1877 96.7922 26.5264 96.7929 26.9531C96.7891 27.0778 96.8102 27.2021 96.8549 27.3185C96.9002 27.4348 96.9678 27.541 97.0547 27.6306C97.2532 27.8266 97.4864 27.984 97.742 28.0948C98.0578 28.2364 98.3829 28.3559 98.7148 28.4524C99.0801 28.5613 99.453 28.682 99.8333 28.8143C100.215 28.9478 100.588 29.1042 100.951 29.283C101.31 29.459 101.638 29.6916 101.923 29.9719C102.215 30.2633 102.449 30.6085 102.611 30.9886C102.786 31.3877 102.873 31.8688 102.873 32.4319C102.878 33.0324 102.768 33.6282 102.547 34.1866C102.334 34.7231 102.01 35.2086 101.598 35.6114C101.157 36.0327 100.635 36.3583 100.063 36.5677C99.4555 36.7995 98.765 36.9155 97.9914 36.9155C97.5559 36.9145 97.1223 36.871 96.6955 36.7854C96.26 36.7002 95.8332 36.5777 95.4188 36.4191C95.0168 36.2657 94.6284 36.0778 94.2587 35.8574C93.9156 35.6553 93.598 35.4121 93.3132 35.1331L94.2494 33.6668C94.3201 33.5518 94.42 33.4578 94.5391 33.3948C94.6625 33.3269 94.8009 33.2917 94.9417 33.2924C95.1427 33.297 95.3387 33.358 95.5075 33.4688C95.6973 33.5863 95.9132 33.7164 96.1526 33.859C96.4169 34.0125 96.6942 34.1429 96.9808 34.2486C97.3351 34.3733 97.7091 34.4331 98.0851 34.425C98.6583 34.425 99.1043 34.2996 99.4226 34.0489C99.7408 33.7982 99.8997 33.4007 99.8978 32.8565C99.8978 32.5408 99.8103 32.2839 99.636 32.0858C99.4437 31.8758 99.2092 31.7089 98.948 31.596C98.6354 31.4556 98.3115 31.3408 97.9802 31.2526C97.6186 31.1536 97.2476 31.0438 96.8667 30.9233C96.4852 30.8022 96.1136 30.6532 95.7544 30.4776C95.3939 30.3025 95.0664 30.0671 94.786 29.7815C94.4876 29.4719 94.2537 29.1058 94.098 28.7044C93.9231 28.2745 93.8362 27.7438 93.8362 27.1125C93.8362 26.6014 93.9417 26.096 94.1445 25.6273C94.3542 25.1386 94.6638 24.6991 95.0521 24.3369C95.4783 23.9424 95.9777 23.6349 96.5211 23.4318C97.0999 23.2057 97.7637 23.0929 98.5138 23.0933C98.9226 23.0925 99.3308 23.1249 99.734 23.1901C100.117 23.2523 100.495 23.3489 100.861 23.4786C101.206 23.6001 101.54 23.7522 101.858 23.9331C102.155 24.1004 102.433 24.3004 102.686 24.5295L101.9 25.9876Z" fill="#199B43"/>
<path d="M107.905 36.7648H104.725V23.2397H107.905V36.7648Z" fill="#199B43"/>
<path d="M118.027 25.9876C117.952 26.1167 117.851 26.2301 117.733 26.3217C117.615 26.4004 117.476 26.4395 117.336 26.4333C117.172 26.4279 117.013 26.3815 116.872 26.2983C116.709 26.2091 116.52 26.1078 116.311 25.9968C116.081 25.8766 115.842 25.7758 115.596 25.6953C115.299 25.6014 114.989 25.556 114.679 25.5609C114.086 25.5609 113.645 25.6862 113.355 25.9369C113.064 26.1876 112.92 26.5263 112.921 26.953C112.917 27.0778 112.938 27.2022 112.983 27.3185C113.028 27.435 113.096 27.5411 113.183 27.6307C113.381 27.8267 113.615 27.9841 113.871 28.0949C114.186 28.2365 114.511 28.356 114.843 28.4525C115.208 28.5613 115.581 28.6819 115.962 28.8144C116.343 28.9478 116.717 29.1043 117.079 29.2829C117.438 29.459 117.766 29.6916 118.051 29.972C118.343 30.2633 118.577 30.6085 118.739 30.9886C118.913 31.3877 119 31.8689 119.001 32.432C119.006 33.0324 118.896 33.6283 118.675 34.1866C118.462 34.7232 118.138 35.2087 117.726 35.6114C117.285 36.0328 116.763 36.3583 116.192 36.5677C115.583 36.7995 114.893 36.9155 114.12 36.9155C113.684 36.9146 113.251 36.8711 112.824 36.7854C112.388 36.7001 111.961 36.5776 111.547 36.4191C111.145 36.2658 110.757 36.0779 110.387 35.8574C110.044 35.6554 109.726 35.4121 109.442 35.133L110.378 33.6669C110.448 33.5518 110.548 33.4579 110.667 33.3947C110.791 33.327 110.929 33.2918 111.069 33.2924C111.271 33.297 111.467 33.3581 111.636 33.4687C111.826 33.5863 112.041 33.7164 112.282 33.8589C112.545 34.0126 112.823 34.143 113.109 34.2486C113.463 34.3733 113.837 34.433 114.213 34.425C114.787 34.425 115.233 34.2996 115.551 34.0489C115.869 33.7982 116.028 33.4007 116.028 32.8565C116.028 32.5408 115.94 32.2839 115.766 32.0858C115.573 31.8757 115.339 31.7087 115.078 31.596C114.765 31.4556 114.441 31.3407 114.11 31.2526C113.748 31.1535 113.377 31.0438 112.997 30.9233C112.615 30.8021 112.243 30.6532 111.884 30.4776C111.524 30.3023 111.197 30.067 110.916 29.7815C110.616 29.4716 110.382 29.1048 110.226 28.7028C110.051 28.2729 109.963 27.7422 109.964 27.1108C109.964 26.5998 110.07 26.0943 110.273 25.6256C110.483 25.1369 110.792 24.6974 111.18 24.3352C111.607 23.9408 112.105 23.6335 112.649 23.4302C113.228 23.2041 113.892 23.0913 114.642 23.0916C115.051 23.0909 115.459 23.1233 115.862 23.1885C116.246 23.2507 116.623 23.3472 116.99 23.4769C117.334 23.5985 117.666 23.7505 117.983 23.9309C118.28 24.0992 118.558 24.3 118.812 24.5295L118.027 25.9876Z" fill="#199B43"/>
<path fill-rule="evenodd" clip-rule="evenodd" d="M39.8408 33.6577L27.8117 45.7263L23.6157 41.5171C27.6392 36.9689 33.38 34.0065 39.8267 33.6577" fill="#199B43"/>
<path fill-rule="evenodd" clip-rule="evenodd" d="M43.5751 29.8153C40.6903 28.5921 37.5899 27.9628 34.458 27.9649C27.7477 27.9649 21.7101 30.8015 17.4529 35.3362L22.2342 40.1326C26.5196 34.99 32.9559 31.7251 40.149 31.7251C40.6724 31.7251 41.191 31.7392 41.7145 31.7795L43.6229 29.8632L43.5751 29.8153Z" fill="#199B43"/>
<path fill-rule="evenodd" clip-rule="evenodd" d="M27.811 20.3459C25.2043 20.3427 22.6166 20.7916 20.1624 21.6728L27.811 13.999L35.4598 21.6728C33.0055 20.7914 30.4178 20.3425 27.811 20.3459Z" fill="#FFCD00"/>
<path fill-rule="evenodd" clip-rule="evenodd" d="M41.0814 27.3135L37.9671 24.189C35.0414 22.9368 31.893 22.2924 28.7121 22.295C21.6423 22.295 16.7531 25.094 12 29.8633L16.0262 33.9026C18.2123 31.4281 20.8981 29.4485 23.9052 28.0952C26.9124 26.742 30.1721 26.046 33.4679 26.0535C36.058 26.052 38.6307 26.4771 41.0835 27.3118" fill="#199B43"/>
</g>
</svg>
