<svg width="60" height="60" viewBox="0 0 60 60" fill="none" xmlns="http://www.w3.org/2000/svg">
<rect width="60" height="60" fill="#199B43"/>
<path fill-rule="evenodd" clip-rule="evenodd" d="M47 35L29.2067 53L23 46.7221C28.9515 39.9385 37.4433 35.5203 46.9792 35" fill="white"/>
<path fill-rule="evenodd" clip-rule="evenodd" d="M52.9288 29.7374C48.6297 27.9278 44.0093 26.9969 39.3419 27C29.342 27 20.3444 31.1962 14 37.9045L21.1253 45C27.5117 37.3924 37.1034 32.5625 47.823 32.5625C48.6031 32.5625 49.3759 32.5835 50.156 32.643L53 29.8082L52.9288 29.7374Z" fill="white"/>
<path fill-rule="evenodd" clip-rule="evenodd" d="M29.5 15.098C25.5807 15.0933 21.6901 15.7368 18 17L29.5 6L41 17C37.31 15.7365 33.4193 15.0931 29.5 15.098Z" fill="#FFCD00"/>
<path fill-rule="evenodd" clip-rule="evenodd" d="M48.9968 25.3499L44.3924 20.7738C40.0666 18.9399 35.4118 17.9963 30.7089 18C20.2561 18 13.0274 22.0993 6 29.0841L11.9527 35C15.1848 31.376 19.1558 28.4767 23.6019 26.4947C28.048 24.5128 32.8675 23.4935 37.7403 23.5046C41.5698 23.5023 45.3735 24.1249 49 25.3474" fill="white"/>
</svg>
