<svg width="130" height="60" viewBox="0 0 130 60" fill="none" xmlns="http://www.w3.org/2000/svg">
<rect width="130" height="60" fill="white"/>
<path d="M46.4234 31.2796C47.2981 30.1353 47.8236 28.712 47.8236 27.1643C47.8236 23.4162 44.7731 20.3664 41.0257 20.3664H28.5996V29.7377V33.9614V43.3327H34.937H42.1194C45.8683 43.3327 48.9173 40.2837 48.9173 36.5356C48.9173 34.4197 47.9451 32.5273 46.4234 31.2796ZM34.2402 24.5916H39.9104C41.3301 24.5916 42.4838 25.7453 42.4838 27.1643C42.4838 28.584 41.3301 29.7377 39.9104 29.7377H34.2402V24.5916ZM40.4193 39.109H34.2402V33.9614H40.4193C41.8383 33.9614 42.992 35.1166 42.992 36.5356C42.992 37.9546 41.8383 39.109 40.4193 39.109Z" fill="#08377B"/>
<path d="M67.2649 16.2694C67.2649 17.1035 66.9461 17.7881 66.3078 18.323C65.6688 18.8565 64.8491 19.1247 63.8501 19.1247C62.9111 19.1247 62.1181 18.8768 61.4718 18.3809C60.8278 17.8879 60.4439 17.2141 60.3203 16.3604H62.8518C63.0434 16.8534 63.3817 17.1035 63.8768 17.1035C64.1804 17.1035 64.4291 17.0233 64.6265 16.8628C64.8209 16.7016 64.9192 16.4906 64.9192 16.2303C64.9192 15.978 64.8238 15.7764 64.633 15.6238C64.4414 15.4713 64.1754 15.3954 63.8364 15.3954H62.9783V13.6237H63.772C64.0937 13.6237 64.3503 13.5521 64.5412 13.4082C64.732 13.2651 64.8274 13.0757 64.8274 12.8415C64.8274 12.5806 64.7392 12.3716 64.5607 12.2155C64.3828 12.0586 64.1414 11.9806 63.8364 11.9806C63.5327 11.9806 63.2834 12.0847 63.0875 12.2943C62.9704 12.4194 62.8858 12.5863 62.8251 12.7873H60.4092C60.5487 11.9112 60.9246 11.2266 61.5369 10.7358C62.1492 10.245 62.9111 9.9999 63.8241 9.9999C64.7884 9.9999 65.5821 10.2601 66.2023 10.7821C66.8233 11.3032 67.1348 11.9676 67.1348 12.7757C67.1348 13.5145 66.8312 14.0798 66.2233 14.4701C66.9179 14.8619 67.2649 15.4605 67.2649 16.2694Z" fill="#08377B"/>
<path d="M28.6513 15.9657V13.1531H20V50.5573H28.6513V47.7352H22.804V15.9657H28.6513Z" fill="#08377B"/>
<path d="M48.752 47.7349V50.5577H57.4033V13.1528H48.752V15.9655H54.5985V47.7349H48.752Z" fill="#08377B"/>
<path d="M78.2126 40.1813C78.6145 40.2239 78.9369 40.3786 79.182 40.6447C79.4256 40.9107 79.5477 41.2504 79.5477 41.6653C79.5477 42.1591 79.3786 42.5603 79.0381 42.8696C78.6984 43.1798 78.2379 43.333 77.6553 43.333H74.7168V37.1199H77.4803C78.0622 37.1199 78.5148 37.2652 78.8429 37.5558C79.1718 37.8464 79.3352 38.2332 79.3352 38.7153C79.3352 39.0992 79.2268 39.4237 79.0099 39.689C78.7931 39.955 78.5285 40.1119 78.2126 40.1618V40.1813ZM75.1896 40.0042H77.5823C77.9719 40.0042 78.2863 39.8878 78.5285 39.6522C78.7699 39.4165 78.8892 39.1107 78.8892 38.7348C78.8892 38.3698 78.7613 38.077 78.5046 37.858C78.248 37.6382 77.8938 37.5284 77.4427 37.5284H75.1896V40.0042ZM77.6191 42.926C78.0572 42.926 78.4107 42.8068 78.676 42.5682C78.9427 42.3304 79.075 42.0203 79.075 41.6364C79.075 41.254 78.9398 40.9512 78.6723 40.7271C78.4034 40.5059 78.0485 40.3945 77.6104 40.3945H75.1896V42.926H77.6191Z" fill="#07367A"/>
<path d="M85.6808 43.3331L84.9196 41.6365H81.3782L80.6084 43.3331H80.1074L82.9353 37.12H83.3531L86.181 43.3331H85.6808ZM83.15 37.7135L81.572 41.21H84.7258L83.15 37.7135Z" fill="#07367A"/>
<path d="M91.5299 43.3331H87.3105V37.12H87.784V42.9073H91.5299V43.3331Z" fill="#07367A"/>
<path d="M96.409 42.5736C96.8442 42.2888 97.155 41.9028 97.3415 41.4134L97.7962 41.5255C97.5858 42.1132 97.2208 42.578 96.7003 42.9221C96.1813 43.2647 95.5763 43.4367 94.883 43.4367C93.9874 43.4367 93.2305 43.1252 92.6118 42.5035C91.993 41.8826 91.6836 41.1236 91.6836 40.2265C91.6836 39.3316 91.993 38.5718 92.6118 37.9502C93.2305 37.3292 93.9874 37.0191 94.883 37.0191C95.5763 37.0191 96.1813 37.189 96.7003 37.5287C97.2208 37.8692 97.5858 38.3268 97.7962 38.9007L97.3502 39.0402C97.1716 38.5523 96.8622 38.1648 96.4242 37.8815C95.9839 37.5967 95.4714 37.455 94.883 37.455C94.1168 37.455 93.4684 37.7224 92.9414 38.2566C92.4115 38.7916 92.1477 39.4487 92.1477 40.2265C92.1477 41.0064 92.4115 41.6643 92.9414 42.1985C93.4684 42.7327 94.1168 43.0008 94.883 43.0008C95.4642 43.0008 95.9731 42.8584 96.409 42.5736Z" fill="#07367A"/>
<path d="M103.853 43.3331L103.092 41.6365H99.5508L98.7802 43.3331H98.2793L101.108 37.12H101.525L104.354 43.3331H103.853ZM101.322 37.7142L99.7446 41.21H102.898L101.322 37.7142ZM100.483 35.7993C100.412 35.8824 100.375 35.9952 100.375 36.1369H100.032C100.032 35.8716 100.101 35.6692 100.237 35.5297C100.373 35.3909 100.543 35.3215 100.747 35.3215C100.932 35.3215 101.135 35.4039 101.354 35.5666C101.573 35.7314 101.751 35.8138 101.887 35.8138C102.004 35.8138 102.095 35.769 102.161 35.6829C102.226 35.5962 102.258 35.4791 102.258 35.3309H102.611C102.611 35.6027 102.544 35.808 102.411 35.9475C102.279 36.0863 102.111 36.1564 101.906 36.1564C101.72 36.1564 101.518 36.0755 101.298 35.915C101.079 35.7538 100.904 35.6735 100.775 35.6735C100.651 35.6735 100.553 35.7155 100.483 35.7993Z" fill="#07367A"/>
<path d="M110.082 37.9502C110.694 38.5718 110.999 39.3316 110.999 40.2265C110.999 41.1301 110.694 41.8898 110.082 42.5086C109.47 43.1266 108.718 43.4367 107.827 43.4367C106.931 43.4367 106.177 43.1266 105.565 42.5086C104.953 41.8898 104.646 41.1301 104.646 40.2265C104.646 39.3316 104.954 38.5718 105.571 37.9502C106.185 37.3292 106.938 37.0184 107.827 37.0184C108.718 37.0184 109.47 37.3292 110.082 37.9502ZM109.752 42.2035C110.275 41.67 110.536 41.0122 110.536 40.2265C110.536 39.4487 110.275 38.7908 109.752 38.2566C109.23 37.7224 108.588 37.455 107.827 37.455C107.061 37.455 106.417 37.7224 105.894 38.2566C105.371 38.7908 105.111 39.4487 105.111 40.2265C105.111 41.0122 105.371 41.67 105.894 42.2035C106.417 42.7341 107.061 43.0001 107.827 43.0001C108.588 43.0001 109.23 42.7341 109.752 42.2035Z" fill="#07367A"/>
<path d="M78.3572 31.7961C78.7151 31.8387 79.0143 31.9919 79.2521 32.2551C79.49 32.5182 79.61 32.8558 79.61 33.2707C79.61 33.7774 79.4408 34.1851 79.104 34.4945C78.7664 34.8032 78.2929 34.9579 77.6806 34.9579H74.7031V28.7448H77.5599C78.1339 28.7448 78.5864 28.8937 78.9146 29.1908C79.2413 29.4865 79.4054 29.8826 79.4054 30.3771C79.4054 30.7544 79.302 31.071 79.0946 31.3284C78.8878 31.5843 78.6413 31.731 78.3572 31.7679V31.7961ZM75.4361 31.5271H77.5505C77.896 31.5271 78.1758 31.4252 78.3898 31.2214C78.6037 31.0168 78.71 30.7479 78.71 30.4139C78.71 30.0995 78.6001 29.8472 78.3804 29.6585C78.1613 29.4699 77.8657 29.3759 77.4956 29.3759H75.4361V31.5271ZM77.6156 34.3283C77.9987 34.3283 78.3037 34.2256 78.5286 34.021C78.7541 33.8179 78.8676 33.5461 78.8676 33.2064C78.8676 32.8782 78.7519 32.6151 78.5192 32.4184C78.2878 32.2197 77.9893 32.1199 77.6242 32.1199H75.4361V34.3283H77.6156Z" fill="#08377B"/>
<path d="M85.807 29.5614C86.4287 30.1852 86.741 30.9493 86.741 31.8521C86.741 32.7543 86.4287 33.5176 85.807 34.1422C85.1868 34.7668 84.4271 35.079 83.5314 35.079C82.6286 35.079 81.8659 34.7668 81.2443 34.1422C80.6233 33.5176 80.3125 32.7543 80.3125 31.8521C80.3125 30.9493 80.6233 30.1852 81.2443 29.5614C81.8659 28.9368 82.6286 28.6245 83.5314 28.6245C84.4271 28.6245 85.1868 28.9368 85.807 29.5614ZM85.2837 33.6557C85.76 33.1707 85.9986 32.5685 85.9986 31.8521C85.9986 31.1401 85.76 30.5394 85.2837 30.0486C84.808 29.5563 84.224 29.3105 83.5314 29.3105C82.8324 29.3105 82.2455 29.5563 81.7691 30.0486C81.2927 30.5394 81.0549 31.1401 81.0549 31.8521C81.0549 32.5685 81.2927 33.1707 81.7691 33.6557C82.2455 34.1408 82.8324 34.3829 83.5314 34.3829C84.224 34.3829 84.808 34.1408 85.2837 33.6557Z" fill="#08377B"/>
<path d="M92.0841 34.9581H87.791V28.745H88.524V34.2909H92.0841V34.9581Z" fill="#08377B"/>
<path d="M96.7164 29.0879C97.1335 29.3973 97.3959 29.8115 97.5 30.3305L96.767 30.4975C96.6983 30.1202 96.5198 29.8209 96.2292 29.5982C95.9386 29.3756 95.5793 29.2643 95.1536 29.2643C94.7336 29.2643 94.3931 29.3684 94.1336 29.5751C93.8741 29.7818 93.744 30.0522 93.744 30.3869C93.744 30.6522 93.8228 30.8582 93.9803 31.0028C94.1386 31.1488 94.3714 31.2522 94.6808 31.3143L96.0355 31.6201C97.08 31.8428 97.6026 32.3813 97.6026 33.2336C97.6026 33.7959 97.3916 34.2441 96.9716 34.5774C96.5509 34.9121 95.9914 35.079 95.2931 35.079C94.6186 35.079 94.049 34.9128 93.582 34.5832C93.1151 34.2521 92.8454 33.7988 92.7695 33.2242L93.5401 33.0666C93.6081 33.5003 93.8054 33.8343 94.1336 34.0728C94.4618 34.3106 94.8687 34.4299 95.3574 34.4299C95.8273 34.4299 96.1967 34.3236 96.4663 34.1097C96.7352 33.8964 96.8697 33.616 96.8697 33.2711C96.8697 32.9863 96.7901 32.7724 96.6325 32.6314C96.475 32.489 96.2176 32.3777 95.8584 32.296L94.4582 31.9909C93.462 31.7676 92.9647 31.2399 92.9647 30.405C92.9647 29.8737 93.1678 29.4443 93.5726 29.1161C93.9774 28.7886 94.5102 28.6245 95.1724 28.6245C95.7839 28.6245 96.2993 28.7792 96.7164 29.0879Z" fill="#08377B"/>
<path d="M103.74 34.9581L103.044 33.3822H99.7704L99.0736 34.9581H98.2871L101.069 28.745H101.745L104.528 34.9581H103.74ZM101.411 29.6536L100.057 32.723H102.757L101.411 29.6536Z" fill="#08377B"/>
<path d="M78.5189 23.4193C78.8405 23.4561 79.116 23.6043 79.3451 23.8638C79.5735 24.1233 79.6885 24.4609 79.6885 24.8744C79.6885 25.3941 79.52 25.8083 79.1839 26.117C78.8463 26.4264 78.3591 26.5818 77.723 26.5818H74.6992V20.3673H77.6572C78.2196 20.3673 78.6685 20.5206 79.0025 20.8263C79.3357 21.1328 79.502 21.5398 79.502 22.0465C79.502 22.4116 79.4022 22.7137 79.2013 22.9552C79.001 23.1966 78.7733 23.3383 78.5189 23.3817V23.4193ZM75.6917 23.0571H77.5466C77.8423 23.0571 78.0823 22.9689 78.2651 22.7925C78.4466 22.6169 78.5377 22.3863 78.5377 22.1015C78.5377 21.842 78.4466 21.6302 78.2651 21.4668C78.0823 21.3027 77.8451 21.221 77.5553 21.221H75.6917V23.0571ZM77.6211 25.7281C77.9478 25.7281 78.2044 25.6414 78.3902 25.4686C78.5752 25.2958 78.6685 25.066 78.6685 24.7826C78.6685 24.5036 78.5745 24.2802 78.3859 24.1096C78.1965 23.9397 77.9514 23.8552 77.6471 23.8552H75.6917V25.7281H77.6211Z" fill="#00BAF2"/>
<path d="M85.0116 26.5816L82.796 24.1058H81.8968V26.5816H80.9043V20.3678H83.8254C84.4615 20.3678 84.9762 20.5399 85.3695 20.8825C85.7627 21.2252 85.9593 21.6784 85.9593 22.2408C85.9593 22.7728 85.7808 23.2073 85.4244 23.5441C85.0695 23.881 84.5945 24.0653 84.0018 24.0957L86.2456 26.5816H85.0116ZM83.8254 23.2058C84.1659 23.2058 84.4399 23.1176 84.6509 22.9413C84.8613 22.7649 84.9661 22.5314 84.9661 22.2408C84.9661 21.9509 84.8613 21.716 84.6509 21.5367C84.4399 21.3567 84.1659 21.2671 83.8254 21.2671H81.8968V23.2058H83.8254Z" fill="#00BAF2"/>
<path d="M91.9416 26.5815L91.3294 25.1336H88.307L87.6948 26.5815H86.6191L89.3552 20.3678H90.2819L93.0173 26.5815H91.9416ZM89.8193 21.5822L88.6959 24.2257H90.9412L89.8193 21.5822Z" fill="#00BAF2"/>
<path d="M97.5184 20.7111C97.9493 21.0262 98.2189 21.4527 98.3309 21.9913L97.3384 22.1944C97.282 21.8669 97.1245 21.6024 96.8649 21.4014C96.6054 21.2012 96.2903 21.1 95.9194 21.1C95.5544 21.1 95.2616 21.1882 95.0375 21.3646C94.8156 21.5409 94.7043 21.7679 94.7043 22.0462C94.7043 22.2631 94.7679 22.433 94.8944 22.5558C95.0202 22.6802 95.2211 22.7691 95.4922 22.8255L96.8382 23.1132C97.9008 23.3481 98.4321 23.9134 98.4321 24.8105C98.4321 25.3909 98.2138 25.8529 97.7779 26.1962C97.342 26.5389 96.7666 26.7102 96.0495 26.7102C95.3628 26.7102 94.7816 26.549 94.3045 26.2237C93.8289 25.8991 93.5542 25.4466 93.4805 24.8654L94.538 24.6435C94.6118 25.0324 94.7903 25.328 95.0751 25.5283C95.3599 25.7292 95.7149 25.8297 96.1421 25.8297C96.5498 25.8297 96.87 25.7423 97.1013 25.5659C97.3341 25.3902 97.4497 25.156 97.4497 24.8654C97.4497 24.6305 97.3825 24.4512 97.2495 24.3276C97.1165 24.204 96.8924 24.1078 96.5787 24.0399L95.224 23.7623C94.1788 23.5209 93.6568 22.9585 93.6568 22.0744C93.6568 21.5236 93.865 21.0805 94.2821 20.7429C94.6992 20.406 95.2522 20.2383 95.9382 20.2383C96.5621 20.2383 97.089 20.3952 97.5184 20.7111Z" fill="#00BAF2"/>
<path d="M99.6934 20.367H100.686V26.5808H99.6934V20.367Z" fill="#00BAF2"/>
<path d="M106.582 26.5815H102.195V20.3678H103.189V25.6816H106.582V26.5815Z" fill="#00BAF2"/>
</svg>
