<svg width="60" height="60" viewBox="0 0 60 60" fill="none" xmlns="http://www.w3.org/2000/svg">
<rect width="60" height="60" fill="#08377B"/>
<path d="M32.4947 30.3146C33.2064 29.3835 33.634 28.2254 33.634 26.9661C33.634 23.9165 31.1519 21.435 28.1028 21.435H17.9922V29.06V32.4967V40.1217H23.1487H28.9927C32.043 40.1217 34.5239 37.6408 34.5239 34.5912C34.5239 32.8696 33.7328 31.3298 32.4947 30.3146ZM22.5817 24.8728H27.1953C28.3504 24.8728 29.2891 25.8116 29.2891 26.9661C29.2891 28.1213 28.3504 29.06 27.1953 29.06H22.5817V24.8728ZM27.6093 36.685H22.5817V32.4967H27.6093C28.7639 32.4967 29.7026 33.4366 29.7026 34.5912C29.7026 35.7457 28.7639 36.685 27.6093 36.685Z" fill="white"/>
<path d="M49.4572 18.1012C49.4572 18.7799 49.1978 19.3369 48.6784 19.7722C48.1585 20.2063 47.4915 20.4245 46.6787 20.4245C45.9146 20.4245 45.2694 20.2227 44.7436 19.8192C44.2195 19.4181 43.9072 18.8699 43.8066 18.1753H45.8664C46.0223 18.5764 46.2975 18.7799 46.7004 18.7799C46.9475 18.7799 47.1498 18.7147 47.3104 18.5841C47.4686 18.4529 47.5486 18.2812 47.5486 18.0694C47.5486 17.8642 47.4709 17.7001 47.3157 17.576C47.1598 17.4519 46.9433 17.3901 46.6675 17.3901H45.9693V15.9485H46.6151C46.8769 15.9485 47.0857 15.8903 47.241 15.7732C47.3962 15.6568 47.4739 15.5027 47.4739 15.3121C47.4739 15.0998 47.4021 14.9298 47.2568 14.8027C47.1122 14.6751 46.9157 14.6116 46.6675 14.6116C46.4205 14.6116 46.2175 14.6963 46.0582 14.8669C45.9629 14.9686 45.8941 15.1045 45.8446 15.268H43.879C43.9925 14.5551 44.2984 13.9981 44.7965 13.5988C45.2947 13.1994 45.9146 13 46.6575 13C47.4421 13 48.0879 13.2118 48.5926 13.6364C49.0978 14.0605 49.3513 14.601 49.3513 15.2586C49.3513 15.8597 49.1043 16.3196 48.6096 16.6372C49.1749 16.956 49.4572 17.443 49.4572 18.1012Z" fill="white"/>
<path d="M18.0392 17.8541V15.5655H11V45.9997H18.0392V43.7035H13.2815V17.8541H18.0392Z" fill="white"/>
<path d="M34.3965 43.7034V46.0002H41.4357V15.5653H34.3965V17.8539H39.1536V43.7034H34.3965Z" fill="white"/>
</svg>
