<svg width="60" height="60" viewBox="0 0 60 60" fill="none" xmlns="http://www.w3.org/2000/svg">
<rect width="60" height="60" fill="#1E1E1C"/>
<path d="M11.7881 26.3846V25.9649C11.132 25.9486 10.5574 26.0179 10.0562 26.1727C9.57129 26.3276 9.15157 26.5395 8.79298 26.8084C8.43846 27.0733 8.15321 27.3912 7.94131 27.7579C7.72942 28.1084 7.57049 28.4914 7.46862 28.8948H7.42379V26.2135H7V37.0569H7.42787V30.9201C7.42787 30.3292 7.51752 29.7506 7.68459 29.1882C7.85574 28.6259 8.11654 28.1328 8.47513 27.709C8.83373 27.2771 9.28197 26.9388 9.81986 26.6984C10.3741 26.4458 11.0301 26.3398 11.7881 26.3806M19.938 31.295H11.1768C11.2216 30.537 11.3643 29.8565 11.6047 29.2493C11.8492 28.6422 12.1589 28.1328 12.546 27.7049C12.9454 27.273 13.3977 26.9429 13.9111 26.7147C14.4368 26.4906 14.9991 26.3765 15.5981 26.3765C16.3113 26.3765 16.9388 26.511 17.4767 26.7758C18.0146 27.0285 18.4669 27.383 18.8214 27.8313C19.1923 28.2836 19.4693 28.8052 19.6568 29.4123C19.8402 29.9991 19.9339 30.6307 19.9339 31.2868M20.3618 31.7065C20.3903 30.9649 20.3129 30.2477 20.1295 29.555C19.9583 28.8663 19.6731 28.255 19.2737 27.7212C18.8907 27.1874 18.3854 26.7555 17.7579 26.4335C17.1466 26.1076 16.4131 25.9486 15.5615 25.9486C14.9502 25.9486 14.3512 26.0709 13.7685 26.3276C13.1858 26.5802 12.6723 26.9511 12.2322 27.4441C11.7921 27.9209 11.4376 28.5158 11.1646 29.2167C10.8957 29.9217 10.7612 30.7204 10.7612 31.621C10.7612 32.4237 10.8508 33.1735 11.0383 33.8785C11.2216 34.5671 11.5069 35.1743 11.894 35.6918C12.2771 36.1971 12.7701 36.5924 13.3651 36.8736C13.9763 37.1547 14.7098 37.2851 15.5615 37.2729C16.8125 37.2729 17.8679 36.9306 18.7196 36.242C19.5753 35.5411 20.0765 34.5549 20.2354 33.2876H19.8076C19.6242 34.4816 19.1474 35.3821 18.3773 35.9852C17.6193 36.5761 16.6658 36.8736 15.5126 36.8736C14.7302 36.8736 14.07 36.7432 13.5281 36.4742C12.9861 36.2094 12.546 35.8426 12.2037 35.3781C11.8655 34.9094 11.6047 34.3715 11.4376 33.7522C11.2787 33.1205 11.1931 32.4359 11.1809 31.7065H20.3618ZM28.9395 32.6845C28.9395 33.2183 28.8417 33.7399 28.6421 34.2452C28.4546 34.7505 28.1734 35.2028 27.7863 35.5981C27.4155 35.9771 26.951 36.2868 26.4008 36.5231C25.8466 36.7635 25.211 36.8817 24.5019 36.8817C23.9029 36.8817 23.3976 36.8124 22.986 36.6698C22.5867 36.515 22.2648 36.3235 22.004 36.0993C21.7513 35.863 21.5639 35.594 21.4498 35.2966C21.352 34.9869 21.299 34.6772 21.299 34.3675C21.299 33.7888 21.3886 33.3243 21.5761 32.9738C21.7635 32.6071 22.0162 32.3259 22.3259 32.1303C22.6397 31.9184 22.9942 31.7799 23.3935 31.7065C23.8051 31.621 24.2248 31.568 24.6527 31.5395C25.0806 31.5109 25.5125 31.4906 25.9567 31.4743C26.409 31.462 26.8328 31.4254 27.2158 31.3724C27.6029 31.3153 27.9412 31.2379 28.2427 31.1401C28.5402 31.026 28.7643 30.8752 28.9029 30.6756H28.9477V32.6804L28.9395 32.6845ZM30.1172 37.0529H30.757V36.6331C30.6184 36.6494 30.4595 36.6576 30.2883 36.678C30.1294 36.678 29.9827 36.6617 29.8401 36.6331C29.6975 36.5924 29.5834 36.5231 29.4978 36.4212C29.4122 36.3235 29.3715 36.1686 29.3715 35.9608V29.066C29.3552 28.4751 29.2492 27.982 29.0496 27.5868C28.8458 27.1956 28.5891 26.8777 28.259 26.6414C27.933 26.3887 27.5459 26.2094 27.1058 26.1116C26.6739 26.0138 26.2215 25.9649 25.7407 25.9649C25.0561 25.9649 24.4571 26.0546 23.9477 26.2379C23.4506 26.4213 23.0227 26.674 22.6641 26.9959C22.3218 27.3219 22.0569 27.709 21.8736 28.1573C21.6902 28.5933 21.5802 29.066 21.5516 29.5713H21.9795C22.0488 28.5566 22.4074 27.7783 23.0472 27.2322C23.6869 26.6699 24.5875 26.3846 25.7407 26.3846C26.462 26.3846 27.0447 26.4824 27.4726 26.6821C27.9004 26.8655 28.2183 27.1059 28.4342 27.3993C28.6624 27.6968 28.8051 28.0187 28.8621 28.3691C28.9192 28.7196 28.9477 29.0578 28.9477 29.3838C28.9477 29.7913 28.8621 30.1051 28.695 30.3333C28.5361 30.5452 28.2835 30.7041 27.9249 30.8182C27.5826 30.916 27.1384 30.9893 26.6005 31.0301C26.0585 31.0586 25.4106 31.0953 24.6568 31.1401C24.2004 31.1646 23.748 31.2298 23.2917 31.3316C22.8353 31.4131 22.4318 31.5761 22.0732 31.8166C21.7146 32.0407 21.4253 32.3544 21.1931 32.766C20.9812 33.1735 20.8752 33.7155 20.8752 34.3919C20.8752 35.3618 21.2094 36.0912 21.8776 36.5842C22.5459 37.061 23.4343 37.2974 24.5467 37.2974C25.1132 37.2974 25.6429 37.2199 26.1278 37.0651C26.6127 36.9265 27.0365 36.7269 27.4074 36.4783C27.7945 36.2257 28.1082 35.9363 28.3487 35.6144C28.6013 35.2884 28.7888 34.9502 28.9029 34.5997H28.9477V36.0138C28.9477 36.4212 29.0618 36.7024 29.29 36.8573C29.5304 36.9958 29.8116 37.0692 30.1253 37.0692M31.356 37.0692H31.7838V22H31.356V37.0651V37.0692ZM32.9941 24.1434H33.422V22H32.9941V24.1393V24.1434ZM32.9941 37.0692H33.422V26.2135H32.9941V37.0651V37.0692ZM34.6526 36.6494L42.342 26.7595V26.2339H34.783V26.6577H41.8979L34.2084 36.5476V37.0732H42.6843V36.6535H34.6567L34.6526 36.6494ZM51.58 31.3113H42.8229C42.8636 30.5533 43.0063 29.8728 43.2508 29.2656C43.4912 28.6585 43.8049 28.1491 44.188 27.7212C44.5873 27.2893 45.0437 26.9592 45.5531 26.731C46.0788 26.5069 46.6411 26.3928 47.2401 26.3928C47.9533 26.3928 48.5767 26.5273 49.1146 26.7921C49.6566 27.0448 50.1048 27.3993 50.4593 27.8476C50.8302 28.2999 51.1073 28.8215 51.2906 29.4286C51.4781 30.0154 51.5677 30.647 51.5677 31.3031M51.7593 29.5713C51.5881 28.8826 51.3029 28.2713 50.9035 27.7375C50.5205 27.2037 50.0152 26.7718 49.3876 26.4498C48.7764 26.1238 48.0429 25.9649 47.1912 25.9649C46.58 25.9649 45.981 26.0872 45.3983 26.3439C44.8155 26.5965 44.3021 26.9674 43.862 27.4604C43.4219 27.9372 43.0633 28.5321 42.7944 29.233C42.5254 29.938 42.3909 30.7367 42.3909 31.6373C42.3909 32.44 42.4806 33.1898 42.668 33.8948C42.8514 34.5834 43.1367 35.1906 43.5238 35.7081C43.9068 36.2134 44.3999 36.6087 44.9948 36.8899C45.6061 37.171 46.3396 37.3014 47.1953 37.2892C48.4463 37.2892 49.5017 36.9469 50.3534 36.2583C51.2091 35.5574 51.7144 34.5712 51.8734 33.3039H51.4455C51.2621 34.4979 50.7853 35.3984 50.0152 36.0015C49.2613 36.5924 48.3037 36.8899 47.1505 36.8899C46.3681 36.8899 45.7039 36.7595 45.1619 36.4905C44.624 36.2257 44.1798 35.8589 43.8375 35.3944C43.4953 34.9257 43.2426 34.3878 43.0674 33.7685C42.9125 33.1368 42.827 32.4522 42.8147 31.7228H51.9956C52.0201 30.9812 51.9426 30.264 51.7633 29.5713" fill="white"/>
</svg>
