<svg width="130" height="60" viewBox="0 0 130 60" fill="none" xmlns="http://www.w3.org/2000/svg">
<rect width="130" height="60" fill="white"/>
<g clip-path="url(#clip0_308_128)">
<path fill-rule="evenodd" clip-rule="evenodd" d="M95.8799 23.5344V21.1508H88.1192V28.3017H92.8745V30.6853H88.1192V37.8362H95.8799V35.4461H90.5067V33.0625H95.2815V25.9116H90.5067V23.528M80.8985 29.5032C80.9101 26.4507 81.8323 23.47 83.5486 20.9376C85.265 18.4052 87.6986 16.4346 90.5421 15.2747C93.3856 14.1148 96.5115 13.8176 99.525 14.4206C102.538 15.0236 105.304 16.4998 107.473 18.6628C109.643 20.8258 111.118 23.5785 111.712 26.5734C112.307 29.5683 111.995 32.671 110.815 35.4897C109.635 38.3085 107.64 40.7168 105.083 42.4105C102.525 44.1043 99.52 45.0077 96.4459 45.0064C94.3997 45.003 92.3741 44.5992 90.4851 43.8181C88.5961 43.037 86.8807 41.8939 85.4368 40.4542C83.993 39.0144 82.849 37.3062 82.0702 35.4271C81.2915 33.5481 80.8934 31.5351 80.8985 29.5032ZM83.3054 29.5032C83.3157 26.9246 84.0951 24.4069 85.5452 22.2679C86.9954 20.1289 89.0512 18.4645 91.4532 17.4848C93.8552 16.5051 96.4957 16.2541 99.0412 16.7634C101.587 17.2727 103.923 18.5195 105.756 20.3464C107.588 22.1733 108.835 24.4984 109.338 27.0282C109.84 29.5579 109.577 32.1789 108.581 34.5602C107.585 36.9415 105.901 38.9763 103.741 40.4079C101.581 41.8394 99.0426 42.6034 96.4459 42.6034C92.9545 42.5949 89.6092 41.2102 87.1453 38.7538C84.6813 36.2974 83.3002 32.9702 83.3054 29.5032ZM97.0834 35.4526V37.8362H104.831V30.6918H100.063V28.3081H104.831V21.1573H97.0834V23.5409H102.444V25.931H97.6688V33.0754H102.444V35.459L97.0834 35.4526Z" fill="#CB0202"/>
<path fill-rule="evenodd" clip-rule="evenodd" d="M50.103 37.9008C52.1066 37.9008 53.6158 37.4163 54.5916 36.4539C54.9932 36.0353 55.307 35.5416 55.5147 35.0016C55.7225 34.4615 55.8199 33.8858 55.8015 33.308C55.8015 31.3701 54.9884 30.0006 53.3751 29.2771H53.3035L53.3686 29.2384C54.0972 28.8573 55.0534 28.0821 55.0534 25.7695C55.0659 25.1674 54.952 24.5693 54.719 24.0133C54.4861 23.4572 54.1392 22.9554 53.7004 22.5397C52.577 21.593 51.1321 21.1078 49.6606 21.1832H40.9307V37.9008M44.0987 27.7333V24.2386H49.3874C50.3177 24.2386 51.8724 24.2386 51.8724 26.0796C51.8926 26.376 51.8203 26.6714 51.6655 26.9257C51.5107 27.1799 51.2809 27.3807 51.0072 27.5007C50.4968 27.7024 49.9493 27.7949 49.4004 27.772H44.1052V27.7333H44.0987ZM44.0987 30.8469V30.7952H49.8688C50.5333 30.7752 51.1898 30.9432 51.7618 31.2796C52.037 31.4546 52.2612 31.6982 52.4118 31.9861C52.5625 32.2741 52.6345 32.5962 52.6205 32.9204C52.6425 33.3944 52.4767 33.8582 52.1586 34.2123C51.5927 34.7808 50.6169 34.7808 49.9013 34.7808H44.0792V34.7485V30.8146L44.0987 30.8469Z" fill="#201E1D"/>
<path fill-rule="evenodd" clip-rule="evenodd" d="M18 37.8879H21.3242V21.1379H18V37.8879Z" fill="#201E1D"/>
<path fill-rule="evenodd" clip-rule="evenodd" d="M24.0173 29.3675C23.9726 30.774 24.2577 32.1716 24.85 33.45C25.3469 34.4274 26.0582 35.2817 26.9317 35.9499C28.4149 37.1385 30.503 37.7392 33.1441 37.7392H37.6978V34.5804H33.4043C31.0169 34.5804 29.2865 33.9862 28.2587 32.8105C27.4964 31.8781 27.099 30.7035 27.1398 29.5031C27.0974 28.8675 27.1844 28.2298 27.3956 27.6283C27.6069 27.0267 27.938 26.4736 28.3693 26.002C29.4101 24.9491 31.1015 24.4194 33.3978 24.4194H37.6782V21.2864H33.2938C32.0168 21.2635 30.7428 21.4157 29.5077 21.7386C28.5214 21.9994 27.6044 22.4712 26.8211 23.121C25.9153 23.8983 25.1936 24.8648 24.7078 25.9514C24.222 27.038 23.984 28.2177 24.0108 29.4063" fill="#201E1D"/>
<path fill-rule="evenodd" clip-rule="evenodd" d="M57.8119 29.3675C57.7775 30.8232 58.0615 32.269 58.6445 33.6051C59.1221 34.6345 59.8348 35.5392 60.7262 36.2471C62.1183 37.3646 64.0959 37.8814 66.9386 37.8814H71.733V34.7226H67.1793C64.7984 34.7226 63.0616 34.0766 62.0337 32.8816C61.265 31.9129 60.8704 30.7032 60.9214 29.4709C60.882 28.813 60.9769 28.154 61.2005 27.5335C61.4241 26.9129 61.7717 26.3437 62.2224 25.8599C63.2632 24.8005 64.9416 24.2644 67.2054 24.2644H71.759V21.1314H67.1273C65.8504 21.1083 64.5763 21.2604 63.3413 21.5836C62.355 21.8413 61.4379 22.311 60.6546 22.9595C59.7453 23.7592 59.0228 24.7464 58.5374 25.852C58.052 26.9577 57.8155 28.1553 57.8444 29.3611" fill="#201E1D"/>
</g>
<defs>
<clipPath id="clip0_308_128">
<rect width="94" height="31" fill="white" transform="translate(18 14)"/>
</clipPath>
</defs>
</svg>
