<svg width="60" height="60" viewBox="0 0 60 60" fill="none" xmlns="http://www.w3.org/2000/svg">
<rect width="60" height="60" fill="white"/>
<path fill-rule="evenodd" clip-rule="evenodd" d="M28.9815 24.4182V22.0346H21.2208V29.1855H25.9761V31.5691H21.2208V38.72H28.9815V36.3299H23.6082V33.9463H28.383V26.7954H23.6082V24.4118M14 30.387C14.0116 27.3344 14.9338 24.3538 16.6502 21.8214C18.3666 19.289 20.8002 17.3184 23.6437 16.1585C26.4872 14.9986 29.613 14.7014 32.6265 15.3044C35.64 15.9074 38.4059 17.3836 40.575 19.5466C42.7442 21.7096 44.2193 24.4623 44.8139 27.4572C45.4086 30.4521 45.0963 33.5548 43.9163 36.3735C42.7364 39.1922 40.7418 41.6005 38.1844 43.2943C35.627 44.9881 32.6215 45.8914 29.5475 45.8902C27.5012 45.8868 25.4757 45.483 23.5867 44.7019C21.6977 43.9208 19.9823 42.7777 18.5384 41.3379C17.0945 39.8982 15.9505 38.1899 15.1718 36.3109C14.3931 34.4319 13.9949 32.4189 14 30.387ZM16.407 30.387C16.4173 27.8084 17.1967 25.2907 18.6468 23.1517C20.0969 21.0127 22.1527 19.3483 24.5547 18.3686C26.9567 17.3889 29.5972 17.1379 32.1428 17.6472C34.6884 18.1565 37.0249 19.4033 38.8574 21.2302C40.69 23.0571 41.9363 25.3822 42.4391 27.912C42.942 30.4417 42.6787 33.0627 41.6826 35.444C40.6865 37.8253 39.0023 39.8601 36.8425 41.2917C34.6827 42.7232 32.1442 43.4872 29.5475 43.4872C26.056 43.4787 22.7108 42.094 20.2468 39.6376C17.7829 37.1812 16.4018 33.854 16.407 30.387ZM30.185 36.3363V38.72H37.9326V31.5756H33.1644V29.1919H37.9326V22.0411H30.185V24.4247H35.5452V26.8148H30.7704V33.9592H35.5452V36.3428L30.185 36.3363Z" fill="#CB0202"/>
</svg>
