<svg width="60" height="60" viewBox="0 0 60 60" fill="none" xmlns="http://www.w3.org/2000/svg">
<rect width="60" height="60" fill="#1D4389"/>
<path d="M29.6522 11C19.3236 11 11 19.4185 11 29.8648C11 40.3111 19.3236 48.7296 29.6522 48.7296C39.9807 48.7296 48.3044 40.3111 48.3044 29.8648C48.3044 19.4185 39.9807 11 29.6522 11Z" fill="#1D4389"/>
<path d="M29.6522 11C19.3236 11 11 19.4185 11 29.8648C11 40.3111 19.3236 48.7296 29.6522 48.7296C39.9807 48.7296 48.3044 40.3111 48.3044 29.8648C48.3044 19.4185 39.9807 11 29.6522 11ZM39.4339 34.1663L40.7706 37.0543H44.902C40.9528 45.5958 30.9281 49.2827 22.4829 45.2885C18.8983 43.5679 16.0428 40.6798 14.3416 37.0543H18.473L19.8097 34.1663H13.248C13.005 33.1831 12.8227 32.2613 12.7619 31.2782H21.1463L21.207 31.0938L22.4222 28.3286H12.7619C12.8227 27.3454 13.005 26.3622 13.248 25.4405H23.7588L24.0018 24.826L25.0347 22.491H14.2808C17.0756 16.5919 22.969 12.782 29.4699 12.782H29.5307C36.0316 12.782 41.9249 16.5304 44.7197 22.491H33.9659L34.9987 24.826L35.3025 25.4405H45.8741C46.1171 26.4237 46.2994 27.3454 46.3602 28.3286H36.7607L37.9758 31.0938L38.0365 31.2782H46.4209C46.3601 32.2613 46.1779 33.2445 45.9349 34.1663H39.4339Z" fill="white"/>
<path d="M38.0363 31.2168L37.9755 31.0325L36.7604 28.2673L36.5781 27.8986L35.4237 25.3792L35.1807 24.7647L34.1478 22.4296L33.7833 21.6308L29.6519 12.7207L25.5812 21.6308L25.2167 22.4296L24.1838 24.7647L23.9408 25.3792L23.6978 25.9322L22.7257 27.96L22.5434 28.3287L21.3283 31.0939L21.2675 31.2783L20.5992 32.5687L19.8701 34.1664L18.5335 37.0545L18.412 37.3003L16.8931 40.6185H42.4107L40.8918 37.3003L40.7703 37.0545L39.4336 34.1664L38.6438 32.5687L38.0363 31.2168Z" fill="#CCD619"/>
</svg>
