<svg width="130" height="60" viewBox="0 0 130 60" fill="none" xmlns="http://www.w3.org/2000/svg">
<rect width="130" height="60" fill="white"/>
<g clip-path="url(#clip0_308_120)">
<mask id="mask0_308_120" style="mask-type:luminance" maskUnits="userSpaceOnUse" x="11" y="16" width="100" height="27">
<path d="M111 16H11V43H111V16Z" fill="white"/>
</mask>
<g mask="url(#mask0_308_120)">
<path d="M19.7391 30.2477V36.2721H17.3913V30.2477C17.2174 28.6207 16.0435 28.2249 14.9565 28.5767C14.2609 28.7966 13.6957 29.2803 13.3478 29.8959V36.3161H11V26.7298H13.1304V26.6858L13.1739 26.9497L13.3478 27.8291C14.6522 26.5099 16.3043 25.9822 18.0435 26.9497C19.7826 27.9171 19.7391 30.2477 19.7391 30.2477Z" fill="#1D4389"/>
<path d="M31.0437 31.391C31.0437 34.5132 28.9133 36.58 26.0872 36.58C24.5654 36.536 23.0437 36.2282 21.5654 35.7005V22.5083H24.1306V27.4774C24.8263 26.7298 25.7828 26.2901 26.7828 26.2461C29.348 26.2461 31.0437 28.3568 31.0437 31.391ZM28.6089 31.435C28.6089 29.72 27.6959 28.4448 26.0872 28.4448C25.348 28.4888 24.6089 28.8405 24.1306 29.4122V34.1614C24.6959 34.3813 25.3046 34.5132 25.9133 34.5132C27.522 34.4692 28.6089 33.194 28.6089 31.435Z" fill="#1D4389"/>
<path d="M39.3914 33.9854L39.8262 35.9203C39.0436 36.36 38.174 36.6239 37.261 36.6239C34.4784 36.6678 32.1305 34.4252 32.0871 31.6108C32.0436 28.7965 34.261 26.4219 37.0436 26.3779C37.0871 26.3779 37.174 26.3779 37.2175 26.3779C38.1305 26.3779 39.0001 26.6418 39.7827 27.0815L39.3479 29.0164C38.6957 28.6646 37.9566 28.5327 37.2175 28.5327C35.6088 28.5766 34.3914 29.9398 34.4349 31.5229C34.3914 33.1499 35.6523 34.4691 37.2175 34.5131C38.0436 34.4691 38.7392 34.2932 39.3914 33.9854Z" fill="#1D4389"/>
<path d="M50.3476 31.391C50.3476 34.5132 48.2607 36.58 45.4781 36.58C44.0867 36.536 42.7389 36.2721 41.4346 35.7884V22.5083H43.0433V27.7852C43.7824 26.8617 44.8694 26.334 46.0433 26.2461C48.652 26.2461 50.3476 28.3568 50.3476 31.391ZM48.7824 31.391C48.7824 29.1923 47.6085 27.6093 45.652 27.6093C44.6954 27.6093 43.7824 28.2249 43.0433 29.1044V34.6891C43.7824 34.9529 44.6085 35.1288 45.3911 35.1728C47.3476 35.2168 48.7824 33.6337 48.7824 31.391Z" fill="#1D4389"/>
<path d="M59.3915 30.1597V36.2281H58.0002L57.7828 34.9969C57.0002 35.9203 55.8698 36.448 54.6524 36.492C52.7828 36.492 51.522 35.3486 51.522 33.6776C51.522 31.8747 52.6524 30.8193 54.7394 30.8193C55.7828 30.8633 56.7828 31.0392 57.7828 31.347V30.2037C57.7828 28.8845 56.5655 27.7851 54.9568 27.7851C54.1307 27.7412 53.3046 27.961 52.5655 28.3568L52.2611 27.0815C53.1307 26.5539 54.1741 26.334 55.1741 26.334C57.2176 26.378 59.3915 27.7851 59.3915 30.1597ZM57.7394 32.6223C56.8698 32.2705 55.9133 32.0946 55.0002 32.0506C53.435 32.0506 53.0872 32.8421 53.0872 33.5457C53.0872 34.6011 53.7828 35.1727 55.0002 35.1727C56.0872 35.0848 57.0872 34.5131 57.7394 33.6337V32.6223Z" fill="#1D4389"/>
<path d="M69.5216 30.6873V36.316H67.9129V30.6873C67.9129 28.7965 67.0434 27.873 65.4347 27.873C64.4347 27.873 63.5651 28.4007 62.8694 29.4121V36.316H61.2607V26.6417H62.652L62.8694 27.917C63.6086 26.9935 64.739 26.4658 65.9129 26.4219C68.0868 26.4219 69.5216 27.6092 69.5216 30.6873Z" fill="#1D4389"/>
<path d="M79.6955 36.2282H77.5216L73.0868 31.9627H72.9564V36.2282H71.3477V22.5083H72.9564V30.6435H73.1303L76.7824 26.5979H78.8259L74.3477 31.3031L79.6955 36.2282Z" fill="#1D4389"/>
<path d="M97.652 16C90.2607 16 84.3042 22.0244 84.3042 29.5C84.3042 36.9756 90.2607 43 97.652 43C105.043 43 111 36.9756 111 29.5C111 22.0244 105.043 16 97.652 16Z" fill="#1D4389"/>
<path d="M97.652 16C90.2607 16 84.3042 22.0244 84.3042 29.5C84.3042 36.9756 90.2607 43 97.652 43C105.043 43 111 36.9756 111 29.5C111 22.0244 105.043 16 97.652 16ZM104.652 32.5782L105.609 34.645H108.565C105.739 40.7573 98.5651 43.3958 92.5216 40.5375C89.9564 39.3062 87.9129 37.2394 86.6955 34.645H89.652L90.6085 32.5782H85.9129C85.739 31.8746 85.6085 31.215 85.5651 30.5114H91.5651L91.6085 30.3795L92.4781 28.4007H85.5651C85.6085 27.6971 85.739 26.9935 85.9129 26.3339H93.4346L93.6085 25.8941L94.3477 24.2231H86.652C88.652 20.0016 92.8694 17.2752 97.5216 17.2752H97.5651C102.217 17.2752 106.435 19.9577 108.435 24.2231H100.739L101.478 25.8941L101.696 26.3339H109.261C109.435 27.0375 109.565 27.6971 109.609 28.4007H102.739L103.609 30.3795L103.652 30.5114H109.652C109.609 31.215 109.478 31.9186 109.304 32.5782H104.652Z" fill="white"/>
<path d="M103.652 30.4676L103.609 30.3357L102.739 28.3569L102.609 28.093L101.783 26.2901L101.609 25.8503L100.87 24.1793L100.609 23.6077L97.6524 17.2314L94.7394 23.6077L94.4785 24.1793L93.7394 25.8503L93.5654 26.2901L93.3915 26.6858L92.6959 28.137L92.5655 28.4008L91.6959 30.3797L91.6524 30.5116L91.1741 31.435L90.6524 32.5784L89.6959 34.6451L89.6089 34.821L88.522 37.1956H106.783L105.696 34.821L105.609 34.6451L104.652 32.5784L104.087 31.435L103.652 30.4676Z" fill="#CCD619"/>
</g>
</g>
<defs>
<clipPath id="clip0_308_120">
<rect width="100" height="27" fill="white" transform="translate(11 16)"/>
</clipPath>
</defs>
</svg>
