<svg width="60" height="60" viewBox="0 0 60 60" fill="none" xmlns="http://www.w3.org/2000/svg">
<rect width="60" height="60" fill="white"/>
<path d="M29.6522 11.0005C19.3236 11.0005 11 19.419 11 29.8653C11 40.3116 19.3236 48.7301 29.6522 48.7301C39.9807 48.7301 48.3044 40.3116 48.3044 29.8653C48.3044 19.419 39.9807 11.0005 29.6522 11.0005Z" fill="#1D4389"/>
<path d="M29.6522 11.0005C19.3236 11.0005 11 19.419 11 29.8653C11 40.3116 19.3236 48.7301 29.6522 48.7301C39.9807 48.7301 48.3044 40.3116 48.3044 29.8653C48.3044 19.419 39.9807 11.0005 29.6522 11.0005ZM39.4339 34.1667L40.7706 37.0548H44.902C40.9528 45.5962 30.9281 49.2832 22.4829 45.289C18.8983 43.5684 16.0428 40.6803 14.3416 37.0548H18.473L19.8097 34.1667H13.248C13.005 33.1836 12.8227 32.2618 12.7619 31.2786H21.1463L21.207 31.0943L22.4222 28.3291H12.7619C12.8227 27.3459 13.005 26.3627 13.248 25.441H23.7588L24.0018 24.8265L25.0347 22.4914H14.2808C17.0756 16.5923 22.969 12.7825 29.4699 12.7825H29.5307C36.0316 12.7825 41.9249 16.5309 44.7197 22.4914H33.9659L34.9987 24.8265L35.3025 25.441H45.8741C46.1171 26.4242 46.2994 27.3459 46.3602 28.3291H36.7607L37.9758 31.0943L38.0365 31.2786H46.4209C46.3601 32.2618 46.1779 33.245 45.9349 34.1667H39.4339Z" fill="white"/>
<path d="M38.0363 31.2173L37.9755 31.033L36.7604 28.2678L36.5781 27.8991L35.4237 25.3797L35.1807 24.7652L34.1478 22.4301L33.7833 21.6313L29.6519 12.7212L25.5812 21.6313L25.2167 22.4301L24.1838 24.7652L23.9408 25.3797L23.6978 25.9327L22.7257 27.9605L22.5434 28.3292L21.3283 31.0944L21.2675 31.2788L20.5992 32.5692L19.8701 34.1669L18.5335 37.055L18.412 37.3008L16.8931 40.619H42.4107L40.8918 37.3008L40.7703 37.055L39.4336 34.1669L38.6438 32.5692L38.0363 31.2173Z" fill="#CCD619"/>
</svg>
