<svg width="60" height="60" viewBox="0 0 60 60" fill="none" xmlns="http://www.w3.org/2000/svg">
<rect width="60" height="60" fill="white"/>
<mask id="mask0_307_10" style="mask-type:luminance" maskUnits="userSpaceOnUse" x="11" y="12" width="37" height="36">
<path d="M14.2115 12.6428H44.8096C46.4214 12.6428 47.7283 13.9497 47.7283 15.5615V44.3615C47.7283 45.9729 46.4214 47.2798 44.8096 47.2798H14.2115C12.6 47.2798 11.293 45.9729 11.293 44.3615V15.5615C11.293 13.9497 12.6 12.6428 14.2115 12.6428Z" fill="white"/>
</mask>
<g mask="url(#mask0_307_10)">
<path d="M47.7283 12.6428H11.293V47.2798H47.7283V12.6428Z" fill="url(#paint0_linear_307_10)"/>
</g>
<path fill-rule="evenodd" clip-rule="evenodd" d="M14.2347 13.2857C12.9837 13.2857 11.9644 14.3053 11.9644 15.5678V44.4323C11.9644 45.6948 12.9837 46.7144 14.2347 46.7144H44.776C46.0269 46.7144 47.0462 45.6948 47.0462 44.4323V15.5678C47.0462 14.3053 46.0269 13.2857 44.776 13.2857H14.2347ZM10.6787 15.5678C10.6787 13.6002 12.2687 12 14.2347 12H44.776C46.7419 12 48.3319 13.6002 48.3319 15.5678V44.4323C48.3319 46.3999 46.7419 48.0001 44.776 48.0001H14.2347C12.2687 48.0001 10.6787 46.3999 10.6787 44.4323V15.5678Z" fill="#C6C6C6"/>
<path d="M37.6848 19.5857H37.2107L36.1167 21.5694H38.7616L37.6848 19.5857Z" fill="#C6C6C6"/>
<path d="M38.8597 23.2222H36.0022L29.3971 38.4201L21.8411 24.4547H21.3921L12.644 40.414H14.7096L17.3916 35.5805L21.6084 28.4105L23.5474 31.5642L24.2292 32.7567L24.9149 33.9168L26.0661 36.0152L28.4787 40.414H28.5358H30.4748H30.5973L33.4833 34.2875L34.3284 32.4909L37.4308 24.5998L40.6556 32.4909L40.7944 32.801L41.0394 33.373L41.4556 34.2875L44.3703 40.414H46.3666L38.8597 23.2222Z" fill="#C6C6C6"/>
<defs>
<linearGradient id="paint0_linear_307_10" x1="12.2794" y1="30.3789" x2="48.7145" y2="30.3789" gradientUnits="userSpaceOnUse">
<stop stop-color="#001437"/>
<stop offset="0.21" stop-color="#00214E"/>
<stop offset="0.54" stop-color="#00336E"/>
<stop offset="0.81" stop-color="#003F81"/>
<stop offset="1" stop-color="#004388"/>
</linearGradient>
</defs>
</svg>
