<svg width="60" height="60" viewBox="0 0 60 60" fill="none" xmlns="http://www.w3.org/2000/svg">
<g clip-path="url(#clip0_307_11)">
<rect width="60" height="60" fill="#2B56C0"/>
<mask id="mask0_307_11" style="mask-type:luminance" maskUnits="userSpaceOnUse" x="-2" y="-2" width="65" height="64">
<path d="M3.12657 -2H56.8735C59.7046 -2 62.0003 0.414831 62.0003 3.3929V56.6077C62.0003 59.5852 59.7046 62 56.8735 62H3.12657C0.295885 62 -2 59.5852 -2 56.6077V3.3929C-2 0.414831 0.295885 -2 3.12657 -2Z" fill="white"/>
</mask>
<g mask="url(#mask0_307_11)">
<path d="M62.0003 -2H-2V62H62.0003V-2Z" fill="url(#paint0_linear_307_11)"/>
</g>
<path fill-rule="evenodd" clip-rule="evenodd" d="M14.2347 13.2857C12.9837 13.2857 11.9644 14.3053 11.9644 15.5678V44.4323C11.9644 45.6948 12.9837 46.7144 14.2347 46.7144H44.776C46.0269 46.7144 47.0462 45.6948 47.0462 44.4323V15.5678C47.0462 14.3053 46.0269 13.2857 44.776 13.2857H14.2347ZM10.6787 15.5678C10.6787 13.6002 12.2687 12 14.2347 12H44.776C46.7419 12 48.3319 13.6002 48.3319 15.5678V44.4323C48.3319 46.3999 46.7419 48.0001 44.776 48.0001H14.2347C12.2687 48.0001 10.6787 46.3999 10.6787 44.4323V15.5678Z" fill="#C6C6C6"/>
<path d="M37.6848 19.5857H37.2107L36.1167 21.5694H38.7616L37.6848 19.5857Z" fill="#C6C6C6"/>
<path d="M38.8602 23.2222H36.0027L29.3976 38.4201L21.8416 24.4547H21.3926L12.6445 40.414H14.7101L17.3921 35.5805L21.6089 28.4105L23.5479 31.5642L24.2296 32.7567L24.9154 33.9168L26.0666 36.0152L28.4791 40.414H28.5363H30.4753H30.5978L33.4838 34.2875L34.3288 32.4909L37.4313 24.5998L40.6561 32.4909L40.7949 32.801L41.0399 33.373L41.4561 34.2875L44.3708 40.414H46.3671L38.8602 23.2222Z" fill="#C6C6C6"/>
</g>
<defs>
<linearGradient id="paint0_linear_307_11" x1="-0.267372" y1="30.7715" x2="63.7326" y2="30.7715" gradientUnits="userSpaceOnUse">
<stop stop-color="#001437"/>
<stop offset="0.21" stop-color="#00214E"/>
<stop offset="0.54" stop-color="#00336E"/>
<stop offset="0.81" stop-color="#003F81"/>
<stop offset="1" stop-color="#004388"/>
</linearGradient>
<clipPath id="clip0_307_11">
<rect width="60" height="60" fill="white"/>
</clipPath>
</defs>
</svg>
