<svg width="130" height="60" viewBox="0 0 130 60" fill="none" xmlns="http://www.w3.org/2000/svg">
<rect width="130" height="60" fill="white"/>
<mask id="mask0_307_12" style="mask-type:luminance" maskUnits="userSpaceOnUse" x="19" y="19" width="23" height="22">
<path d="M20.8587 19.3928H39.5575C40.5424 19.3928 41.3411 20.1915 41.3411 21.1764V38.7763C41.3411 39.7611 40.5424 40.5597 39.5575 40.5597H20.8587C19.8739 40.5597 19.0752 39.7611 19.0752 38.7763V21.1764C19.0752 20.1915 19.8739 19.3928 20.8587 19.3928Z" fill="white"/>
</mask>
<g mask="url(#mask0_307_12)">
<path d="M41.3411 19.3928H19.0752V40.5597H41.3411V19.3928Z" fill="url(#paint0_linear_307_12)"/>
</g>
<path fill-rule="evenodd" clip-rule="evenodd" d="M20.8728 19.7857C20.1083 19.7857 19.4854 20.4088 19.4854 21.1803V38.8196C19.4854 39.5911 20.1083 40.2142 20.8728 40.2142H39.5368C40.3012 40.2142 40.9241 39.5911 40.9241 38.8196V21.1803C40.9241 20.4088 40.3012 19.7857 39.5368 19.7857H20.8728ZM18.6997 21.1803C18.6997 19.9779 19.6714 19 20.8728 19H39.5368C40.7382 19 41.7098 19.9779 41.7098 21.1803V38.8196C41.7098 40.022 40.7382 40.9999 39.5368 40.9999H20.8728C19.6714 40.9999 18.6997 40.022 18.6997 38.8196V21.1803Z" fill="#C6C6C6"/>
<path d="M35.2034 23.6357H34.9137L34.2451 24.848H35.8614L35.2034 23.6357Z" fill="#C6C6C6"/>
<path d="M35.9214 25.8579H34.1752L30.1388 35.1455L25.5213 26.6111H25.2469L19.9009 36.364H21.1632L22.8021 33.4102L25.3791 29.0285L26.564 30.9558L26.9806 31.6845L27.3997 32.3935L28.1032 33.6758L29.5775 36.364H29.6124H30.7974H30.8722L32.6359 32.62L33.1523 31.5221L35.0482 26.6998L37.0189 31.5221L37.1038 31.7116L37.2535 32.0611L37.5079 32.62L39.289 36.364H40.509L35.9214 25.8579Z" fill="#C6C6C6"/>
<path d="M49.6344 25.5414C49.8639 25.5937 50.0496 25.7186 50.1937 25.9105C50.3377 26.1051 50.4086 26.3295 50.4086 26.589C50.4086 26.9007 50.306 27.1601 50.1009 27.3672C49.8957 27.5743 49.6393 27.6765 49.3314 27.6765H47.5801V23.6357H49.1922C49.4732 23.6357 49.71 23.7305 49.8981 23.9226C50.0886 24.1122 50.1815 24.3516 50.1815 24.6385C50.1815 24.8405 50.1302 25.0252 50.0252 25.1896C49.9201 25.3543 49.7882 25.4715 49.6294 25.539M49.114 23.9675H47.9221V25.4266H49.114C49.3069 25.4266 49.4708 25.3569 49.61 25.2147C49.7492 25.0724 49.8175 24.9003 49.8175 24.6958C49.8175 24.4914 49.7492 24.3142 49.6148 24.177C49.4805 24.0374 49.312 23.9699 49.1115 23.9699M49.2483 27.3523C49.4732 27.3523 49.6587 27.2749 49.8102 27.1203C49.9617 26.9656 50.0349 26.7712 50.0349 26.5417C50.0349 26.3122 49.9591 26.1227 49.8102 25.9679C49.6613 25.8133 49.4732 25.7384 49.2483 25.7384H47.9171V27.3547H49.2483V27.3523Z" fill="#C6C6C6"/>
<path d="M55.2603 27.6765L54.799 26.5692H52.6778L52.2165 27.6765H51.8228L53.5253 23.6357H53.9589L55.6615 27.6765H55.2552H55.2603ZM52.8198 26.2348H54.6669L53.7421 24.0224L52.8222 26.2348H52.8198Z" fill="#C6C6C6"/>
<path d="M60.5372 23.6357H60.9147V27.6765H60.509L57.8495 24.212V27.6765H57.48V23.6357H57.8806L60.5372 27.1003V23.6357Z" fill="#C6C6C6"/>
<path d="M64.8286 27.6764C64.534 27.6764 64.259 27.6209 63.999 27.5122C63.739 27.4035 63.5161 27.2544 63.3326 27.0675C63.147 26.8804 63.0009 26.6555 62.8944 26.3927C62.7879 26.1298 62.7334 25.852 62.7334 25.5538C62.7334 25.157 62.8251 24.7982 63.0084 24.4747C63.1916 24.1512 63.4418 23.8961 63.7612 23.7116C64.0806 23.5271 64.4374 23.4336 64.8286 23.4336C65.1926 23.4336 65.527 23.517 65.8317 23.6813C66.1364 23.8456 66.3839 24.0704 66.5722 24.3535L66.2576 24.548C66.104 24.3131 65.9034 24.126 65.6533 23.992C65.4032 23.8557 65.1308 23.79 64.8286 23.79C64.5067 23.79 64.2144 23.8658 63.9519 24.0199C63.6895 24.1714 63.4813 24.3838 63.3302 24.6517C63.1791 24.922 63.105 25.2202 63.105 25.5512C63.105 25.7989 63.1494 26.0314 63.2387 26.2512C63.3278 26.4711 63.4492 26.6582 63.6001 26.8121C63.7513 26.9663 63.9345 27.0901 64.1475 27.1812C64.3606 27.2722 64.5883 27.315 64.8286 27.315C65.1284 27.315 65.4032 27.2469 65.6533 27.1129C65.9034 26.979 66.104 26.7919 66.2576 26.5569L66.5722 26.7515C66.3839 27.0346 66.1364 27.2594 65.8317 27.4263C65.527 27.5906 65.1926 27.6738 64.8286 27.6738" fill="#C6C6C6"/>
<path d="M70.4118 27.6764C70.1297 27.6764 69.8622 27.6209 69.6113 27.512C69.3603 27.4033 69.1452 27.254 68.9684 27.0667C68.7892 26.8794 68.6481 26.6543 68.5455 26.3937C68.4427 26.1306 68.3901 25.8522 68.3901 25.5538C68.3901 25.1566 68.4786 24.7974 68.6554 24.4735C68.8322 24.1496 69.0736 23.8967 69.3817 23.7094C69.6901 23.5247 70.0341 23.4336 70.4118 23.4336C70.7894 23.4336 71.131 23.5247 71.4393 23.7094C71.7474 23.894 71.9913 24.1496 72.1657 24.4735C72.3424 24.7974 72.4309 25.1566 72.4309 25.5538C72.4309 25.8522 72.3784 26.1306 72.2756 26.3937C72.1705 26.6567 72.0295 26.8794 71.8527 27.0667C71.6735 27.254 71.4607 27.4033 71.2098 27.512C70.9589 27.6209 70.6938 27.6764 70.4118 27.6764ZM70.4118 27.3196C70.7223 27.3196 71.0043 27.2439 71.2577 27.0895C71.5108 26.9376 71.7092 26.7252 71.8551 26.4545C72.0008 26.1838 72.0725 25.8827 72.0725 25.5512C72.0725 25.2198 72.0008 24.9212 71.8551 24.6505C71.7092 24.3797 71.5108 24.1698 71.2577 24.0155C71.0043 23.8637 70.7223 23.7853 70.4118 23.7853C70.101 23.7853 69.8192 23.8611 69.5658 24.0155C69.3124 24.1672 69.1118 24.3797 68.966 24.6505C68.8203 24.9212 68.7486 25.2198 68.7486 25.5512C68.7486 25.7991 68.7916 26.0318 68.8777 26.2521C68.9637 26.4721 69.0807 26.6594 69.2266 26.8137C69.3723 26.9681 69.549 27.0919 69.7545 27.1831C69.9602 27.2742 70.18 27.3172 70.4118 27.3172" fill="#C6C6C6"/>
<path d="M82.4912 34.59C81.7612 34.0415 81.3303 33.7015 81.1983 33.5724C80.9567 33.3265 80.7922 33.1006 80.7025 32.8921C80.6128 32.6836 80.5655 32.4702 80.5655 32.2468C80.5655 31.8819 80.695 31.5742 80.9492 31.3259C81.2058 31.0752 81.5345 30.9511 81.9382 30.9511C82.252 30.9511 82.5411 31.0331 82.8052 31.1944C83.0716 31.3558 83.3905 31.6908 83.7667 32.1997L84.5837 31.5691C84.1255 30.9313 83.6919 30.4945 83.281 30.2561C82.8698 30.0179 82.4289 29.8987 81.9582 29.8987C81.5147 29.8987 81.1011 30.0029 80.7225 30.2139C80.3439 30.425 80.0499 30.7129 79.8406 31.0778C79.6313 31.4427 79.5266 31.8472 79.5266 32.2914C79.5266 32.8501 79.7036 33.3713 80.0574 33.8504C80.2617 34.1357 80.7797 34.6024 81.6167 35.2428C82.4463 35.8807 83.0193 36.4268 83.3307 36.8786C83.5573 37.2063 83.6721 37.5412 83.6721 37.8839C83.6721 38.1841 83.5947 38.4672 83.4404 38.7353C83.2858 39.0034 83.0617 39.2168 82.7678 39.3756C82.4738 39.5346 82.1574 39.614 81.821 39.614C81.0363 39.614 80.3439 39.0529 79.7461 37.931L78.8965 38.4498C79.3149 39.2267 79.7709 39.7803 80.2641 40.1104C80.7573 40.4405 81.3105 40.6068 81.9182 40.6068C82.708 40.6068 83.3781 40.3338 83.9285 39.7902C84.4791 39.244 84.7556 38.6038 84.7556 37.8639C84.7556 37.3501 84.5938 36.8414 84.2724 36.3324C83.9509 35.8237 83.3557 35.2453 82.4888 34.5925" fill="#C6C6C6"/>
<path d="M72.4383 30.1011L67.582 40.6072H68.7298L70.3302 37.1507L70.8003 36.1358L72.5607 32.3318L74.3112 36.1358L74.3888 36.312L74.5263 36.6344L74.7563 37.1507L76.3718 40.6072H77.482L72.6908 30.1011H72.4383Z" fill="#C6C6C6"/>
<path d="M60.9579 30.1011L56.6747 39.4337L52.4486 30.1011H52.1979L47.3784 40.6072H48.5157L50.1047 37.1515L50.5715 36.1368L52.3195 32.3338L54.0601 36.1368L54.1346 36.313L54.2712 36.633L54.5021 37.1515L56.1061 40.6072H56.1358H57.206H57.2755L58.8648 37.1515L59.3315 36.1368L61.0796 32.3338L62.8201 36.1368L62.8947 36.313L63.0313 36.633L63.2596 37.1515L64.8636 40.6072H65.9661L61.2087 30.1011H60.9579Z" fill="#C6C6C6"/>
<path d="M87.584 31.1307H89.8028V40.6072H90.8178V31.1307H93.0391V30.1011H87.584V31.1307Z" fill="#C6C6C6"/>
<path d="M96.0703 40.6072H101.887V39.5802H97.0928V35.4521H101.887V34.4225H97.0928V31.1307H101.929V30.1011H96.0703V40.6072Z" fill="#C6C6C6"/>
<path d="M108.194 35.7275C109.04 35.7224 109.706 35.6085 110.186 35.3876C110.668 35.1668 111.037 34.8393 111.295 34.4051C111.553 33.9712 111.683 33.4675 111.683 32.8969C111.683 32.2098 111.497 31.6317 111.12 31.1628C110.744 30.6941 110.257 30.3864 109.657 30.2449C109.259 30.1508 108.499 30.1011 107.375 30.1011H105.363V40.6072H106.374V35.7299H106.945L110.579 40.6072H111.829L108.194 35.7299V35.7275ZM106.374 34.6979V31.128H108.157C108.85 31.128 109.345 31.1901 109.642 31.3141C109.94 31.4382 110.181 31.6441 110.365 31.932C110.55 32.2197 110.641 32.5397 110.641 32.8918C110.641 33.2442 110.55 33.5816 110.368 33.8744C110.186 34.1671 109.935 34.3805 109.61 34.5144C109.286 34.6484 108.789 34.7153 108.113 34.7153L106.371 34.7005L106.374 34.6979Z" fill="#C6C6C6"/>
<defs>
<linearGradient id="paint0_linear_307_12" x1="19.678" y1="30.2315" x2="41.9438" y2="30.2315" gradientUnits="userSpaceOnUse">
<stop stop-color="#001437"/>
<stop offset="0.21" stop-color="#00214E"/>
<stop offset="0.54" stop-color="#00336E"/>
<stop offset="0.81" stop-color="#003F81"/>
<stop offset="1" stop-color="#004388"/>
</linearGradient>
</defs>
</svg>
