<svg width="60" height="60" viewBox="0 0 60 60" fill="none" xmlns="http://www.w3.org/2000/svg">
<rect width="60" height="60" fill="#00C5FF"/>
<path d="M30.1857 36.7081C27.2452 36.7081 24.855 34.3662 24.855 31.4854C24.855 28.6043 27.2452 26.2626 30.1857 26.2626C33.1264 26.2626 35.5166 28.6043 35.5166 31.4854C35.5166 34.3662 33.1264 36.7081 30.1857 36.7081ZM30.1857 18.75C23.0179 18.75 17.187 24.4627 17.187 31.4854V51H24.855V43.1194L25.4585 43.3512C26.9671 43.928 28.5559 44.2207 30.1857 44.2207C37.3537 44.2207 43.1846 38.508 43.1846 31.4854C43.1846 24.4627 37.3537 18.75 30.1857 18.75Z" fill="white"/>
<path d="M17.1865 15.1667H24.3583V8H17.1865V15.1667Z" fill="white"/>
</svg>
