<svg width="60" height="60" viewBox="0 0 60 60" fill="none" xmlns="http://www.w3.org/2000/svg">
<rect width="60" height="60" fill="white"/>
<path d="M30.1852 36.7081C27.2447 36.7081 24.8545 34.3662 24.8545 31.4854C24.8545 28.6043 27.2447 26.2626 30.1852 26.2626C33.1259 26.2626 35.5161 28.6043 35.5161 31.4854C35.5161 34.3662 33.1259 36.7081 30.1852 36.7081ZM30.1852 18.75C23.0174 18.75 17.1865 24.4627 17.1865 31.4854V51H24.8545V43.1194L25.458 43.3512C26.9667 43.928 28.5554 44.2207 30.1852 44.2207C37.3532 44.2207 43.1841 38.508 43.1841 31.4854C43.1841 24.4627 37.3532 18.75 30.1852 18.75Z" fill="#414141"/>
<path d="M17.186 15.1667H24.3578V8H17.186V15.1667Z" fill="#00C5FF"/>
</svg>
