<svg width="130" height="60" viewBox="0 0 130 60" fill="none" xmlns="http://www.w3.org/2000/svg">
<rect width="130" height="60" fill="white"/>
<g clip-path="url(#clip0_313_340)">
<path fill-rule="evenodd" clip-rule="evenodd" d="M23.8999 28.7776V28.5772C26.3922 28.5772 28.2843 27.3099 28.2843 25.2444C28.2843 22.9633 26.5576 21.2893 23.8413 21.2893H15.417V23.3777H23.175C24.7859 23.3777 25.8688 24.3702 25.8688 25.8469C25.8688 26.8122 25.4943 28.4315 22.9885 28.4315H17.6942C16.3526 28.4315 15.4155 27.3418 15.4155 25.7816H13C13 28.1523 14.6109 30.107 17.3558 30.107V30.3088C14.3627 30.3073 13 31.5367 13 33.5187H15.417C15.417 31.8372 16.4353 30.5183 18.1138 30.5183H23.736C25.1078 30.5183 26.5261 31.5716 26.5261 33.3336C26.5261 35.0956 25.0792 35.9834 23.736 35.9834H15.417V38.0702H23.8999C26.6569 38.0702 28.9416 36.0517 28.9416 33.3336C28.9416 30.6154 27.2059 28.7791 23.8999 28.7791V28.7776ZM49.7699 31.8796L53.3 21.8554H53.7572L57.4241 31.8796H49.7699ZM33.1951 29.1661V23.2851H39.1587C41.2403 23.2851 42.4331 24.3292 42.4331 26.1474C42.4331 28.0658 41.2388 29.1661 39.1587 29.1661H33.1951ZM51.3492 21.2893L45.2366 37.6969L42.5263 33.1196C41.9187 32.0041 40.8493 31.0966 39.0128 31.0966V30.8947C42.7595 30.8947 44.805 29.0143 44.805 26.0154C44.805 23.0165 42.6451 21.2893 39.0279 21.2893H30.8894V38.0702H33.1951V31.0966H37.0816C38.5676 31.0966 39.1677 31.7871 39.8356 32.8995L42.8346 38.0702H47.589L49.0901 33.8086H58.1295L59.6877 38.0702H61.9604L55.708 21.2893H51.3492ZM83.4971 21.8554L79.9685 31.8796H87.6212L83.9543 21.8554H83.4971ZM92.159 38.0702H89.8866V38.0717L88.3283 33.8101H79.2886L77.7876 38.0717H62.7185V33.6204L75.0882 23.5203V23.3291H63.0042V21.2893H75.6309V25.7376L63.2584 35.8407V36.032L76.0383 36.0745L81.5465 21.2893H85.9066L92.159 38.0702Z" fill="black"/>
<path fill-rule="evenodd" clip-rule="evenodd" d="M94.931 24.0029C95.9512 24.0029 96.542 24.7314 96.542 25.9698C96.542 27.2067 95.9495 27.9367 94.931 27.9367C93.9132 27.9367 93.3102 27.1627 93.3102 25.9698C93.3102 24.7769 93.9115 24.0029 94.931 24.0029ZM95.3928 28.8322C96.8157 28.8322 97.66 27.7713 97.66 25.9698C97.66 24.1684 96.8174 23.1075 95.3928 23.1075C94.1551 23.1075 93.4109 23.8375 93.4109 25.0532H93.3884V21.2893H92.293V28.7214H93.3884V26.8865H93.4109C93.4109 28.1022 94.1551 28.8322 95.3928 28.8322ZM100.988 24.0029C102.006 24.0029 102.598 24.7769 102.598 25.9698C102.598 27.1627 102.006 27.9367 100.988 27.9367C99.9699 27.9367 99.3791 27.2067 99.3791 25.9698C99.3791 24.7329 99.9699 24.0029 100.988 24.0029ZM103.616 28.7214V23.2183H102.521V25.0532H102.5C102.5 23.8375 101.766 23.1075 100.517 23.1075C99.0944 23.1075 98.2508 24.1684 98.2508 25.9698C98.2508 27.7713 99.0933 28.8322 100.517 28.8322C101.766 28.8322 102.5 28.1022 102.5 26.8865H102.521V28.7214H103.616ZM109.62 25.3294V28.7229H108.525V25.3628C108.525 24.5007 108.054 24.0029 107.254 24.0029C106.357 24.0029 105.82 24.6434 105.82 25.727V28.7214H104.724V23.2183H105.82V25.1306H105.842C105.842 23.8603 106.52 23.1075 107.671 23.1075C108.898 23.1075 109.62 23.9362 109.62 25.3294ZM114.609 28.7214H116L113.054 25.8378L115.78 23.2183H114.422L111.806 25.815H111.783V21.2893H110.688V28.7214H111.783V25.9031H111.806L114.609 28.7214Z" fill="#FF0651"/>
</g>
<defs>
<clipPath id="clip0_313_340">
<rect width="103" height="17.3596" fill="white" transform="translate(13 21)"/>
</clipPath>
</defs>
</svg>
