<svg width="60" height="60" viewBox="0 0 60 60" fill="none" xmlns="http://www.w3.org/2000/svg">
<rect width="60" height="60" fill="#FF0651"/>
<path fill-rule="evenodd" clip-rule="evenodd" d="M36.1186 28.4969V28.0764C41.3492 28.0764 45.3204 25.4166 45.3204 21.0816C45.3204 16.2942 41.6964 12.7809 35.9955 12.7809H18.315V17.1638H34.5971C37.9779 17.1638 40.2507 19.2469 40.2507 22.3461C40.2507 24.372 39.4648 27.7706 34.2057 27.7706H23.0942C20.2784 27.7706 18.3118 25.4836 18.3118 22.2092H13.2422C13.2422 27.1845 16.623 31.2871 22.3839 31.2871V31.7107C16.1021 31.7075 13.2422 34.2876 13.2422 38.4475H18.315C18.315 34.9183 20.452 32.1503 23.9749 32.1503H35.7745C38.6535 32.1503 41.6302 34.3608 41.6302 38.0588C41.6302 41.757 38.5935 43.6203 35.7745 43.6203H18.315V48H36.1186C41.9048 48 46.6998 43.7636 46.6998 38.0588C46.6998 32.3541 43.057 28.5 36.1186 28.5V28.4969Z" fill="white"/>
</svg>
