<svg width="60" height="60" viewBox="0 0 60 60" fill="none" xmlns="http://www.w3.org/2000/svg">
<rect width="60" height="60" fill="#04133E"/>
<path fill-rule="evenodd" clip-rule="evenodd" d="M14.012 17C15.2115 17 15.4861 17.7948 16.1653 22.2458C16.5266 24.6014 16.7144 27.6073 16.7144 31.1334C16.7144 33.5178 16.5266 35.0641 16.1653 35.8011C15.9919 36.1769 15.5439 36.3214 15.1826 36.1191C14.7057 35.8734 14.4022 35.4977 14.2866 34.9919C14.2433 34.7606 14.2433 34.515 14.2722 34.2693C14.3589 33.6623 14.6912 32.275 14.6912 30.9021C14.6912 30.1073 14.6912 28.7345 14.5756 26.6535H14.2433H14.3589C13.2461 26.6535 11.931 26.798 11.1218 27.1159C9.32981 27.7951 8.18816 29.5437 8.18816 31.4513V32.0294C8.18816 33.1855 8.7084 33.8213 9.7489 33.8213C10.7316 33.8213 11.931 32.9253 13.3473 31.1334L13.564 30.9021C13.6652 30.7865 13.8531 30.8154 13.9109 30.9455C13.9831 31.0611 13.9976 31.2056 13.9542 31.3357C12.9571 34.197 11.4831 35.6277 9.53213 35.6277C8.18816 35.6277 7.19102 34.9341 6.54071 33.5323C5.97711 32.3473 5.87595 30.9889 6.13607 29.7027C6.75748 26.798 9.32981 24.8182 11.7287 24.6303C13.2028 24.5147 14.3444 24.8615 14.3444 24.8615C14.2288 21.451 13.3473 18.344 13.3473 18.344L13.2895 17.9249C13.2461 17.4769 13.564 17.0578 14.012 17Z" fill="white"/>
<path fill-rule="evenodd" clip-rule="evenodd" d="M20.0238 25.8298C20.2551 25.8443 20.4718 25.931 20.6308 26.09C20.9487 26.4368 21.0788 27.0438 21.021 27.9108L20.862 30.4398C20.8187 31.0757 20.8331 31.726 20.9054 32.3618C21.0065 33.3012 21.1944 33.7781 21.7724 33.807L22.7551 33.8648L22.9575 33.8792C23.1742 33.8937 23.3332 34.0815 23.3187 34.2839C23.3043 34.5006 23.2176 34.6885 23.0875 34.8475C22.784 35.1798 22.3794 35.4978 21.8592 35.7868C21.5846 35.9458 21.2666 36.018 20.9632 36.0036C19.677 35.9169 19.2579 34.7174 18.8099 32.4052C18.6654 31.6248 18.5932 30.8444 18.5787 30.0641L18.5498 27.9542C18.651 26.4513 18.8388 25.7431 20.0238 25.8298Z" fill="white"/>
<path fill-rule="evenodd" clip-rule="evenodd" d="M37.1052 25.8298C37.322 25.8443 37.5387 25.931 37.6977 26.09C38.0156 26.4368 38.1457 27.0438 38.0879 27.9108L37.9289 30.4398C37.8856 31.0757 37.9 31.726 37.9723 32.3618C38.0879 33.3012 38.2613 33.7781 38.8393 33.807L39.822 33.8648L40.0243 33.8792C40.2411 33.8937 40.4001 34.0815 40.3856 34.2839C40.3712 34.5006 40.2989 34.6885 40.1544 34.8475C39.8509 35.1798 39.4463 35.4978 38.926 35.7868C38.6515 35.9458 38.348 36.018 38.0301 36.0036C36.7439 35.9169 36.3393 34.7174 35.8768 32.4052C35.7323 31.6248 35.6601 30.8444 35.6456 30.0641L35.6167 27.9542C35.7179 26.4513 35.9057 25.7431 37.1052 25.8298Z" fill="white"/>
<path fill-rule="evenodd" clip-rule="evenodd" d="M31.4112 24.0233C32.1048 23.792 32.8707 24.11 33.1598 24.7747C33.7956 26.2199 34.1135 29.2546 34.1135 33.8935V34.5583C34.1135 38.8648 32.8129 41.7406 30.1972 43.1568C29.7493 43.4025 29.2435 43.5325 28.7377 43.5325C27.4081 43.5325 26.4399 42.6654 25.8329 40.9457C25.674 40.4977 25.5873 40.0353 25.5584 39.5729C25.5295 39.2116 25.8474 38.937 26.1942 38.9948C26.3821 39.0237 26.5122 39.1538 26.6133 39.2983C27.1047 39.9052 27.437 40.4255 28.1307 40.9891C28.3619 41.177 28.651 41.2926 28.9544 41.2926C29.836 41.2926 30.5874 40.5411 31.1799 39.0237C31.6568 37.7954 31.8736 36.4803 31.8447 35.1508L31.7724 32.0437C31.7724 32.0437 29.5036 35.1219 26.7145 35.0063C25.067 34.9484 23.882 33.46 24.489 30.7865C24.9803 28.5465 26.0208 26.9858 28.0874 25.5985C29.0556 24.9626 30.0961 24.4568 31.1944 24.0955L31.4112 24.0233ZM26.5411 31.6969V31.7692C26.5989 32.3183 27.0613 32.7374 27.6105 32.7663C28.9111 32.7663 30.9776 30.9021 31.4401 28.7344C31.5846 28.0552 31.4979 27.4627 31.2955 26.9858C31.2955 26.9858 31.2811 26.9858 31.2811 26.9713C31.1655 26.6968 30.8331 26.5956 30.573 26.7401C28.1885 27.9396 26.5411 29.8327 26.5411 31.6969Z" fill="white"/>
<path fill-rule="evenodd" clip-rule="evenodd" d="M48.0738 21.2197H48.1895C48.5218 21.2197 48.8542 21.3787 49.0421 21.6677C49.0565 21.6822 49.0565 21.7111 49.071 21.7255C49.3167 22.1735 49.4178 22.6793 49.3745 23.1851L49.2155 25.2083L49.1143 26.4945C49.0999 26.6534 49.2444 26.7835 49.4034 26.769C49.9381 26.7257 51.152 26.639 52.9584 26.5523C53.5364 26.5234 54.0278 27.0002 53.9989 27.5783C53.9844 28.0841 53.652 28.5321 53.1751 28.6766C52.5104 28.8789 51.4265 29.0234 49.7935 29.2546C49.5912 29.2836 49.4178 29.457 49.4178 29.6737V29.746V29.9772V30.4252C49.4178 33.2577 49.1288 34.6883 48.5218 34.6883H48.4351C48.1461 34.6883 47.8715 34.5872 47.6692 34.3993C47.0478 33.8213 46.7299 32.7085 46.7299 31.09L46.7154 29.9917C46.701 29.8038 46.542 29.6593 46.3541 29.6737C46.1663 29.6882 45.9061 29.7171 45.5593 29.7604C44.3165 29.9339 43.0448 30.1795 41.9609 30.194C41.8453 30.194 41.7297 30.1795 41.6286 30.1651L41.5708 30.1506C41.1228 30.0639 40.8048 29.6448 40.8482 29.1968L40.8771 28.7633C40.8915 28.6332 40.9204 28.5176 40.9783 28.402C41.0939 28.1853 41.2673 27.954 41.7008 27.8673C42.4812 27.7084 42.7124 27.7084 43.6806 27.5783L45.5593 27.376C46.4697 27.2604 46.7299 27.2748 46.7299 26.3788V22.5637C46.7299 21.8267 47.3368 21.2197 48.0738 21.2197Z" fill="#E24747"/>
<path fill-rule="evenodd" clip-rule="evenodd" d="M20.6415 20.3125H19V16H20.5832C21.3311 16 21.807 16.4539 21.807 17.1865C21.807 17.6507 21.5351 17.9809 21.2631 18.0944C21.5739 18.2285 21.875 18.5586 21.875 19.0951C21.875 19.8895 21.3602 20.3125 20.6415 20.3125ZM20.5249 16.5881H19.6119V17.8261H20.5249C20.9231 17.8261 21.1951 17.6095 21.1951 17.2071C21.1951 16.8047 20.9231 16.5881 20.5249 16.5881ZM20.5832 18.4142H19.6119V19.7244H20.5832C21.0106 19.7244 21.2534 19.4459 21.2534 19.0642C21.2534 18.6824 21.0106 18.4142 20.5832 18.4142Z" fill="white"/>
<path fill-rule="evenodd" clip-rule="evenodd" d="M26.559 20.3125L26.2754 19.4459H24.6619L24.3783 20.3125H23.7231L25.2193 16H25.718L27.2142 20.3125H26.559ZM25.4834 16.9801L24.8477 18.8888H26.0994L25.4834 16.9801Z" fill="white"/>
<path fill-rule="evenodd" clip-rule="evenodd" d="M35.5366 20.3125C35.0936 20.3125 34.7021 20.1502 34.4033 19.8559C33.9809 19.4399 33.9912 18.9731 33.9912 18.1512C33.9912 17.3394 33.9809 16.8625 34.4033 16.4465C34.7021 16.1624 35.0936 16 35.5366 16C36.3298 16 36.9273 16.4566 37.0716 17.2988H36.4122C36.3092 16.8726 36.0105 16.5784 35.5366 16.5784C35.279 16.5784 35.0524 16.6697 34.8978 16.8321C34.6918 17.0553 34.6403 17.2988 34.6403 18.1512C34.6403 19.0035 34.6918 19.2471 34.8978 19.4804C35.0524 19.6428 35.279 19.7341 35.5366 19.7341C36.0105 19.7341 36.3092 19.4399 36.4122 19.0035H37.0716C36.9273 19.8559 36.3195 20.3125 35.5366 20.3125Z" fill="white"/>
<path fill-rule="evenodd" clip-rule="evenodd" d="M41.5894 19.8559C41.302 20.1502 40.9221 20.3125 40.46 20.3125C39.998 20.3125 39.6284 20.1502 39.3306 19.8559C38.9097 19.4399 38.9199 18.9731 38.9199 18.1512C38.9199 17.3394 38.9097 16.8625 39.3306 16.4465C39.6284 16.1624 39.998 16 40.46 16C40.9221 16 41.302 16.1624 41.5894 16.4465C42.0207 16.8625 42.0001 17.3394 42.0001 18.1512C42.0001 18.9731 42.0207 19.4399 41.5894 19.8559ZM41.0966 16.8321C40.9529 16.6799 40.7167 16.5784 40.46 16.5784C40.2034 16.5784 39.9672 16.6799 39.8235 16.8321C39.6079 17.0654 39.5668 17.2988 39.5668 18.1512C39.5668 19.0035 39.6079 19.2471 39.8235 19.4703C39.9672 19.6327 40.2034 19.7341 40.46 19.7341C40.7167 19.7341 40.9529 19.6327 41.0966 19.4703C41.3122 19.2471 41.3533 19.0035 41.3533 18.1512C41.3533 17.2988 41.3122 17.0654 41.0966 16.8321Z" fill="white"/>
<path fill-rule="evenodd" clip-rule="evenodd" d="M31.5272 20.3125L29.5141 17.2793V20.3125H28.8569V16H29.4619L31.4751 19.0332V16H32.1427V20.3125H31.5272Z" fill="white"/>
</svg>
