<svg width="130" height="60" viewBox="0 0 130 60" fill="none" xmlns="http://www.w3.org/2000/svg">
<rect width="130" height="60" fill="white"/>
<path d="M31.1 34.305V42.3241C29.6239 42.8882 28.0212 43.196 26.3453 43.196C26.2072 43.196 26.0707 43.1944 25.9343 43.1894C24.4082 43.1445 22.9454 42.8416 21.5907 42.3241C20.9983 42.0995 20.4257 41.8315 19.8782 41.527C15.7759 39.2506 13 34.8758 13 29.852V17.8792C13 14.0802 16.0805 11 19.8782 11V29.0666C19.8782 29.5425 19.6635 32.2499 21.5907 34.305C22.7323 35.5231 24.117 35.9807 24.3716 36.0606C24.994 36.2586 25.658 36.3651 26.3453 36.3651C28.2209 36.3651 29.9118 35.573 31.1 34.305Z" fill="#5E010D"/>
<path d="M21.5908 25.3988V17.3798C23.067 16.8157 24.6697 16.5078 26.3455 16.5078C26.4837 16.5078 26.6201 16.5095 26.7565 16.5145C28.2827 16.5594 29.7455 16.8623 31.1002 17.3798C31.6926 17.6044 32.2651 17.8724 32.8127 18.1769C36.915 20.4533 39.6909 24.8281 39.6909 29.8519V41.8247C39.6909 45.6237 36.6104 48.7039 32.8127 48.7039V30.6373C32.8127 30.1613 33.0274 27.4539 31.1002 25.3988C29.9586 24.1807 28.5739 23.7231 28.3193 23.6433C27.6969 23.4453 27.0329 23.3387 26.3455 23.3387C24.4699 23.3387 22.7791 24.1308 21.5908 25.3988Z" fill="#0D0D0D"/>
<path d="M50.0604 28.0197C49.9406 28.256 49.7692 28.4574 49.5495 28.6204C49.3298 28.7835 49.0652 28.9116 48.759 29.0014C48.4511 29.0913 48.1083 29.1363 47.7272 29.1363H44.6816V22.1123H47.5757C47.9169 22.1123 48.2264 22.1523 48.5077 22.2337C48.7889 22.3153 49.0269 22.4301 49.2233 22.5799C49.4197 22.7313 49.5745 22.9127 49.6843 23.1274C49.7942 23.342 49.8491 23.58 49.8491 23.8413V23.8612C49.8491 24.1025 49.8141 24.3139 49.7442 24.4952C49.6743 24.6766 49.5828 24.833 49.4696 24.9678C49.3564 25.1026 49.2283 25.2141 49.0835 25.304C48.9404 25.3938 48.7989 25.4703 48.6575 25.5302C48.8639 25.5835 49.0652 25.6551 49.2583 25.7449C49.4513 25.8348 49.6211 25.948 49.7642 26.0861C49.9073 26.2225 50.0222 26.3839 50.1104 26.567C50.1969 26.75 50.2401 26.963 50.2401 27.2027V27.2226C50.2401 27.5171 50.1802 27.7817 50.0604 28.0197ZM49.3282 23.8879C49.3282 23.4968 49.1784 23.1823 48.8772 22.9426C48.5759 22.703 48.1416 22.5832 47.5724 22.5832H45.2042V25.3622H47.5225C47.7838 25.3622 48.025 25.3306 48.2447 25.2657C48.4661 25.2025 48.6558 25.1092 48.8172 24.9878C48.977 24.8663 49.1035 24.7149 49.1934 24.5335C49.2832 24.3521 49.3282 24.1424 49.3282 23.9062V23.8862V23.8879ZM49.7192 27.2043C49.7192 26.7683 49.5362 26.4305 49.1717 26.1926C48.8072 25.9546 48.2764 25.8348 47.5807 25.8348H45.2026V28.6637H47.7522C48.3546 28.6637 48.8322 28.5339 49.1867 28.2759C49.5412 28.018 49.7192 27.6669 49.7192 27.2242V27.2043Z" fill="#0D0D0D"/>
<path d="M57.7976 29.1363L56.9039 27.1695H52.76L51.8663 29.1363H51.3237L54.5956 22.0625H55.0965L58.3683 29.1363H57.7959H57.7976ZM54.8369 22.6349L52.9797 26.6985H56.6825L54.8369 22.6349Z" fill="#0D0D0D"/>
<path d="M65.3027 29.1363L60.355 22.8944V29.1363H59.854V22.1123H60.345L65.1928 28.2227V22.1123H65.6938V29.1363H65.3027Z" fill="#0D0D0D"/>
<path d="M73.1764 28.5308C72.9784 28.6806 72.7687 28.8104 72.544 28.9169C72.3193 29.0234 72.078 29.1082 71.8167 29.1681C71.5554 29.228 71.2709 29.258 70.9646 29.258C70.462 29.258 69.9977 29.1648 69.57 28.9768C69.1423 28.7904 68.7728 28.5342 68.4616 28.2097C68.1504 27.8852 67.9075 27.5024 67.7344 27.0615C67.5596 26.6205 67.4731 26.1479 67.4731 25.647V25.6271C67.4731 25.1328 67.5613 24.6635 67.7394 24.2226C67.9158 23.7816 68.1605 23.3955 68.4717 23.0644C68.7829 22.7333 69.1523 22.472 69.58 22.2823C70.0077 22.091 70.4771 21.9961 70.9846 21.9961C71.2991 21.9961 71.5837 22.0227 71.8384 22.0759C72.093 22.1292 72.3277 22.2058 72.5456 22.3073C72.7637 22.4071 72.9667 22.5269 73.1581 22.6634C73.3495 22.7998 73.5342 22.9529 73.7156 23.1193L73.3445 23.5004C73.1914 23.3539 73.0299 23.2158 72.8635 23.0894C72.6971 22.9629 72.5174 22.8531 72.326 22.7632C72.1346 22.6734 71.9282 22.6018 71.7035 22.5469C71.4789 22.4937 71.2376 22.467 70.9763 22.467C70.5553 22.467 70.1641 22.5469 69.8014 22.7083C69.4402 22.868 69.1274 23.091 68.8627 23.3756C68.5981 23.6601 68.3918 23.9929 68.2403 24.374C68.0889 24.7551 68.014 25.1661 68.014 25.6088V25.6287C68.014 26.0697 68.0905 26.484 68.2453 26.8684C68.3984 27.2528 68.6081 27.5873 68.8727 27.8718C69.1373 28.1564 69.4502 28.381 69.8113 28.5441C70.1725 28.7089 70.5635 28.7904 70.9846 28.7904C71.4922 28.7904 71.9349 28.6972 72.3094 28.5092C72.6838 28.3228 73.0482 28.0515 73.4027 27.6971L73.7539 28.0382C73.5658 28.218 73.3744 28.3844 73.1764 28.5342V28.5308Z" fill="#0D0D0D"/>
<path d="M81.4861 27.0048C81.3164 27.4425 81.0768 27.8302 80.769 28.163C80.4607 28.4975 80.0878 28.7637 79.6505 28.9601C79.2127 29.1581 78.7285 29.2563 78.2006 29.2563C77.6733 29.2563 77.1825 29.1581 76.7513 28.9601C76.3201 28.7621 75.9509 28.4991 75.6432 28.168C75.3348 27.8369 75.097 27.4541 74.9304 27.0198C74.7643 26.5855 74.6792 26.1262 74.6792 25.6453V25.6253C74.6792 25.1444 74.7643 24.6835 74.9359 24.2458C75.1068 23.8082 75.3452 23.4222 75.6529 23.0877C75.9607 22.7532 76.3317 22.4869 76.7665 22.2905C77.2008 22.0925 77.6867 21.9944 78.2207 21.9944C78.7553 21.9944 79.2309 22.0925 79.6651 22.2905C80.1 22.4886 80.471 22.7515 80.7787 23.0826C81.0865 23.4138 81.3243 23.7965 81.4909 24.2308C81.6576 24.6652 81.7421 25.1244 81.7421 25.6053C81.7488 25.612 81.7488 25.6187 81.7421 25.6253C81.7421 26.1063 81.6576 26.5672 81.4861 27.0048ZM81.1996 25.6253C81.1996 25.191 81.1248 24.7816 80.9734 24.3956C80.8238 24.0112 80.6157 23.6767 80.3512 23.3922C80.0866 23.1076 79.7704 22.883 79.4024 22.7149C79.0345 22.5485 78.6337 22.4636 78.1976 22.4636C77.7615 22.4636 77.3619 22.5452 76.9976 22.7099C76.6333 22.8747 76.3189 23.0977 76.0537 23.3822C75.7891 23.6667 75.583 23.9996 75.4364 24.3806C75.2898 24.7617 75.215 25.1694 75.215 25.6053V25.6253C75.215 26.0597 75.2898 26.4706 75.4413 26.855C75.5915 27.2394 75.7995 27.5739 76.064 27.8585C76.3286 28.1431 76.6449 28.3693 77.0128 28.5357C77.3802 28.7038 77.7816 28.787 78.2177 28.787C78.6537 28.787 79.0515 28.7055 79.4176 28.5407C79.7819 28.3777 80.0964 28.153 80.3609 27.8685C80.6255 27.5839 80.8304 27.2511 80.9782 26.8701C81.1248 26.489 81.1996 26.0813 81.1996 25.6453V25.6253Z" fill="#0D0D0D"/>
<path d="M52.5834 40.9729C52.0841 41.1909 51.5149 41.299 50.8726 41.299C50.3234 41.299 49.8241 41.2092 49.3714 41.0278C48.9205 40.8464 48.5327 40.5968 48.2081 40.2757C47.8836 39.9545 47.6307 39.5734 47.4509 39.1324C47.2695 38.6915 47.1797 38.2089 47.1797 37.6881V37.6681C47.1797 37.1656 47.2712 36.6963 47.4559 36.2586C47.639 35.821 47.8953 35.4366 48.2232 35.1055C48.551 34.7743 48.9388 34.513 49.3881 34.3234C49.8374 34.1336 50.3284 34.0371 50.8626 34.0371C51.1771 34.0371 51.4634 34.0588 51.7213 34.1021C51.9793 34.1453 52.2189 34.2068 52.4386 34.2884C52.6599 34.3683 52.8663 34.4698 53.061 34.5896C53.2558 34.7094 53.4421 34.8475 53.6235 35.0006L52.6499 36.1754C52.5168 36.0623 52.382 35.9607 52.2489 35.8743C52.1158 35.7877 51.9759 35.7145 51.8328 35.6529C51.688 35.593 51.5332 35.5464 51.3668 35.5132C51.2004 35.4798 51.0157 35.4632 50.8143 35.4632C50.5331 35.4632 50.2701 35.5215 50.0272 35.6396C49.7825 35.7561 49.5695 35.9142 49.3847 36.1122C49.2 36.3102 49.0569 36.5415 48.9537 36.8061C48.8506 37.0707 48.7989 37.3536 48.7989 37.6565V37.6764C48.7989 37.9976 48.8506 38.2954 48.9537 38.5667C49.0569 38.8379 49.205 39.0742 49.3947 39.2755C49.5861 39.4769 49.8091 39.6333 50.0671 39.7431C50.3251 39.8547 50.6113 39.9096 50.9258 39.9096C51.5016 39.9096 51.9859 39.7681 52.3803 39.4852V38.4752H50.8243V37.1406H53.8748V40.1908C53.5137 40.4986 53.0843 40.7616 52.585 40.9779L52.5834 40.9729Z" fill="#0D0D0D"/>
<path d="M61.1539 39.5119C61.0091 39.9062 60.8044 40.2357 60.5364 40.5003C60.2685 40.7649 59.9439 40.9613 59.5629 41.0928C59.1818 41.2225 58.7574 41.2891 58.2881 41.2891C57.3445 41.2891 56.6022 41.0278 56.0597 40.507C55.5172 39.9845 55.2476 39.2057 55.2476 38.169V34.1553H56.7936V38.129C56.7936 38.7048 56.9267 39.1375 57.1947 39.4287C57.4627 39.7199 57.8338 39.8646 58.308 39.8646C58.7824 39.8646 59.1535 39.7249 59.4214 39.4436C59.6894 39.1624 59.8225 38.7414 59.8225 38.179V34.1553H61.3685V38.1191C61.3685 38.6549 61.297 39.1192 61.1522 39.5136L61.1539 39.5119Z" fill="#0D0D0D"/>
<path d="M68.1737 41.1777L67.5313 39.6018H64.5607L63.9183 41.1777H62.3423L65.3528 34.1038H66.7774L69.788 41.1777H68.172H68.1737ZM66.0468 35.9592L65.1132 38.2373H66.9804L66.0468 35.9592Z" fill="#0D0D0D"/>
<path d="M75.8011 41.1775L72.3992 36.7129V41.1775H70.873V34.1536H72.2977L75.5894 38.4784V34.1536H77.1154V41.1775H75.8011Z" fill="#0D0D0D"/>
<path d="M84.0291 41.1777L83.3868 39.6018H80.4158L79.7736 41.1777H78.1978L81.2083 34.1038H82.6327L85.6432 41.1777H84.0273H84.0291ZM81.9022 35.9592L80.9687 38.2373H82.8358L81.9022 35.9592Z" fill="#0D0D0D"/>
<path d="M92.5046 40.0942C92.3818 40.3355 92.2036 40.5352 91.9737 40.6966C91.7426 40.8563 91.4664 40.9778 91.1417 41.0577C90.8175 41.1376 90.4593 41.1775 90.0652 41.1775H86.728V34.1536H89.9837C90.7038 34.1536 91.27 34.3183 91.6811 34.6461C92.0923 34.9739 92.2966 35.4149 92.2966 35.9707V35.9907C92.2966 36.192 92.2717 36.3684 92.2218 36.5231C92.1719 36.6779 92.105 36.816 92.0223 36.9392C91.939 37.0623 91.8423 37.1721 91.7328 37.2653C91.6227 37.3585 91.5048 37.44 91.3783 37.5066C91.7839 37.6614 92.1038 37.8694 92.3368 38.134C92.5697 38.3986 92.6859 38.7647 92.6859 39.2322V39.2522C92.6859 39.5733 92.6244 39.8546 92.5016 40.0958L92.5046 40.0942ZM90.7737 36.2303C90.7737 35.9957 90.6873 35.8176 90.5128 35.6928C90.3376 35.5697 90.0883 35.5064 89.7605 35.5064H88.2345V36.9907H89.6589C90.0001 36.9907 90.2713 36.9325 90.4708 36.8144C90.6721 36.6979 90.7725 36.5082 90.7725 36.2469V36.2269L90.7737 36.2303ZM91.1648 39.0392C91.1648 38.8045 91.0754 38.6199 90.8935 38.4817C90.7141 38.3453 90.4228 38.2754 90.0202 38.2754H88.2345V39.8213H90.0719C90.4131 39.8213 90.6807 39.7597 90.8741 39.6349C91.0687 39.5118 91.1648 39.3188 91.1648 39.0575V39.0375V39.0392Z" fill="#0D0D0D"/>
<path d="M99.2034 41.1777L98.5612 39.6018H95.5901L94.9479 41.1777H93.3721L96.3826 34.1038H97.807L100.818 41.1777H99.2016H99.2034ZM97.0766 35.9592L96.143 38.2373H98.0101L97.0766 35.9592Z" fill="#0D0D0D"/>
<path d="M106.168 41.1775L104.662 38.9294H103.447V41.1775H101.901V34.1536H105.113C105.948 34.1536 106.599 34.3582 107.065 34.7659C107.53 35.1736 107.762 35.7427 107.762 36.4716V36.4915C107.762 37.0607 107.624 37.5233 107.347 37.881C107.069 38.2388 106.705 38.5017 106.258 38.6681L107.974 41.1775H106.168ZM106.198 36.5514C106.198 36.2169 106.092 35.9657 105.877 35.7993C105.662 35.6329 105.364 35.548 104.983 35.548H103.447V37.5649H105.013C105.394 37.5649 105.687 37.475 105.892 37.2936C106.097 37.1122 106.198 36.8726 106.198 36.5714V36.5514Z" fill="#0D0D0D"/>
<path d="M114.386 41.1777L113.743 39.6018H110.773L110.131 41.1777H108.554L111.565 34.1038H112.99L116 41.1777H114.384H114.386ZM112.259 35.9592L111.326 38.2373H113.193L112.259 35.9592Z" fill="#0D0D0D"/>
</svg>
