<svg width="60" height="60" viewBox="0 0 60 60" fill="none" xmlns="http://www.w3.org/2000/svg">
<rect width="60" height="60" fill="white"/>
<path d="M35.1 34.305V42.3241C33.6239 42.8882 32.0212 43.196 30.3453 43.196C30.2072 43.196 30.0707 43.1944 29.9343 43.1894C28.4082 43.1445 26.9454 42.8416 25.5907 42.3241C24.9983 42.0995 24.4257 41.8315 23.8782 41.527C19.7759 39.2506 17 34.8758 17 29.852V17.8792C17 14.0802 20.0805 11 23.8782 11V29.0666C23.8782 29.5425 23.6635 32.2499 25.5907 34.305C26.7323 35.5231 28.117 35.9807 28.3716 36.0606C28.994 36.2586 29.658 36.3651 30.3453 36.3651C32.2209 36.3651 33.9118 35.573 35.1 34.305Z" fill="#5E010D"/>
<path d="M25.5908 25.3988V17.3798C27.067 16.8157 28.6697 16.5078 30.3455 16.5078C30.4837 16.5078 30.6201 16.5095 30.7565 16.5145C32.2827 16.5594 33.7455 16.8623 35.1002 17.3798C35.6926 17.6044 36.2651 17.8724 36.8127 18.1769C40.915 20.4533 43.6909 24.8281 43.6909 29.8519V41.8247C43.6909 45.6237 40.6104 48.7039 36.8127 48.7039V30.6373C36.8127 30.1613 37.0274 27.4539 35.1002 25.3988C33.9586 24.1807 32.5739 23.7231 32.3193 23.6433C31.6969 23.4453 31.0329 23.3387 30.3455 23.3387C28.4699 23.3387 26.7791 24.1308 25.5908 25.3988Z" fill="#0D0D0D"/>
</svg>
