<svg width="130" height="60" viewBox="0 0 130 60" fill="none" xmlns="http://www.w3.org/2000/svg">
<rect width="130" height="60" fill="white"/>
<path d="M21.8411 27.0814C20.6874 27.0808 19.5518 27.3669 18.5367 27.9139C17.5217 28.4608 16.6593 29.2514 16.0273 30.2142V39.8102H25.658C26.9049 38.9889 27.8534 37.789 28.3633 36.388C28.8732 34.9871 28.9173 33.4596 28.4891 32.0318C28.0609 30.6039 27.1832 29.3515 25.9859 28.4599C24.7885 27.5683 23.3352 27.085 21.8411 27.0814ZM16.0273 20V28.0104L23.9743 20.0848L35.8092 31.8897L27.8609 39.8102H35.8865V20H16.0273Z" fill="#008752"/>
<path d="M54.4705 26.34C54.3636 24.8121 53.713 23.6621 52.5382 22.9194C51.5771 22.3142 50.2529 21.9942 48.7057 21.9942H43.3635L40.8721 39.8179H46.0713C49.3782 39.8179 51.7021 39.1227 52.98 37.7543C53.8174 36.8548 54.1909 35.6713 54.0905 34.2335C53.9616 32.324 53.0212 31.0069 51.4921 30.5315C53.3562 29.961 54.6045 28.2558 54.4705 26.34ZM49.6912 35.7883C48.9273 36.6068 47.4755 36.7199 46.0198 36.7199H45.0163L45.6694 32.0002H46.6562C48.4365 32.0002 50.0996 32.2353 50.2194 33.9405C50.276 34.7474 50.1021 35.3514 49.6912 35.7921V35.7883ZM50.1743 28.1852C49.5031 28.9047 48.2213 29.0564 47.2655 29.0564H46.0868L46.6665 25.0884H47.7537C49.2158 25.0884 50.5363 25.2092 50.638 26.6779C50.6818 27.305 50.526 27.8112 50.1743 28.189V28.1852ZM72.4076 21.9981H68.7478L66.8786 34.8361L62.3608 21.9981H57.6511L55.0592 39.8179H58.7705L60.556 26.8732L65.0042 39.8179H69.7899L72.4076 21.9981ZM85.5062 23.4886C84.0982 22.4992 82.2496 21.9981 80.0119 21.9981H74.6014L72.0817 39.8179H78.1852C81.7704 39.8179 84.4975 38.8465 86.2791 36.9332C88.527 34.5239 88.6623 31.3192 88.5438 29.6243C88.348 26.8308 87.3264 24.7672 85.5062 23.4886ZM82.971 34.9068C81.8464 36.1121 80.1163 36.7237 77.831 36.7237H76.3998L78.0242 25.0923H79.087C82.3075 25.0923 84.3262 26.6034 84.5039 29.136C84.6817 31.6687 84.1664 33.6257 82.971 34.9068ZM94.8973 25.0923H101.753L102.129 21.9981H91.468L88.9534 39.8179H99.7435L100.202 36.7237H93.2715L93.9157 32.1544H100.068L100.471 29.0602H94.3421L94.8973 25.0923ZM113.826 22.4851C112.49 21.9621 110.921 21.6974 109.166 21.6974C106.951 21.6974 105.119 22.354 104.013 23.5477C103.139 24.4845 102.748 25.6988 102.853 27.1572C103.038 29.8081 104.972 30.8476 106.679 31.7638C108.056 32.5026 109.245 33.1425 109.339 34.4699C109.386 35.1419 109.211 35.7022 108.798 36.1403C108.273 36.7044 107.381 37.027 106.351 37.027C104.827 37.027 103.329 36.414 102.043 35.8397L101.857 35.7561L101.085 39.0816L101.234 39.1343C103.079 39.7883 104.802 40.1212 106.357 40.1212C108.916 40.1212 110.893 39.4517 112.073 38.1873C113.017 37.1747 113.436 35.8037 113.317 34.1101C113.118 31.2549 110.999 30.0561 109.291 29.0923C108.002 28.3663 106.896 27.738 106.818 26.6214C106.799 26.4281 106.821 26.2329 106.883 26.0488C106.945 25.8647 107.045 25.6959 107.178 25.5536C107.701 24.9933 108.695 24.7941 109.452 24.7941C110.711 24.816 111.95 25.1175 113.078 25.6769L113.271 25.772L113.973 22.5429L113.826 22.4851Z" fill="#00539B"/>
</svg>
