<svg width="60" height="60" viewBox="0 0 60 60" fill="none" xmlns="http://www.w3.org/2000/svg">
<rect width="60" height="60" fill="#0099FF"/>
<path d="M19.7315 38.5545C16.8023 38.5545 14.677 36.4896 14.677 33.6433C14.677 30.9192 16.8564 28.7015 19.5354 28.7015C22.2497 28.7015 24.2968 30.855 24.2968 33.7093C24.2968 36.4266 22.2913 38.5545 19.7315 38.5545ZM28.1556 16.0034H25.2172C24.802 16.0034 24.4633 16.341 24.4633 16.7542V25.8058L24.4599 25.849C22.9978 24.7566 21.3681 24.265 19.2423 24.265C16.853 24.265 14.7169 25.0828 13.0684 26.6282C11.1182 28.4082 10 30.9414 10 33.5785C10 36.4504 11.1952 39.0586 13.3649 40.9239C14.9456 42.2965 16.9773 43.0228 19.2423 43.0228C21.2107 43.0228 22.9226 42.4806 24.4599 41.365L24.4633 41.3698V41.8461C24.4633 42.2587 24.802 42.598 25.2172 42.598H28.1556C28.5695 42.598 28.9088 42.2587 28.9088 41.8461V16.7545C28.9088 16.3413 28.5695 16.0034 28.1556 16.0034Z" fill="white"/>
<path d="M49.2678 31.5175H42.2448V31.5143V16.7508C42.2448 16.3376 41.9061 16 41.491 16H38.5526C38.1375 16 37.7993 16.3376 37.7993 16.7508L37.8072 35.1943C37.8072 35.6075 38.1454 35.9457 38.5605 35.9457H49.2677C49.6891 35.9457 50.0222 35.5985 50.0222 35.1864V32.2685C50.0222 31.8547 49.6829 31.5175 49.2678 31.5175Z" fill="white"/>
<path d="M49.2641 38.159L35.5803 38.1622L35.5769 16.7513C35.5769 16.3381 35.2376 16.0005 34.823 16.0005H31.8846C31.4701 16.0005 31.1313 16.3381 31.1313 16.7513V41.8139C31.1313 42.2276 31.4701 42.5658 31.8846 42.5942H49.2641C49.6792 42.5658 50.0179 42.214 50.0179 41.8002V38.9141C50.0179 38.5015 49.6724 38.1607 49.2641 38.159Z" fill="white"/>
</svg>
