<svg width="130" height="60" viewBox="0 0 130 60" fill="none" xmlns="http://www.w3.org/2000/svg">
<rect width="130" height="60" fill="white"/>
<path d="M21.1593 37.9807C18.23 37.9807 16.1047 35.9159 16.1047 33.0696C16.1047 30.3455 18.2842 28.1278 20.9631 28.1278C23.6774 28.1278 25.7245 30.2813 25.7245 33.1355C25.7245 35.8528 23.719 37.9807 21.1593 37.9807ZM29.5833 15.4297H26.6449C26.2298 15.4297 25.891 15.7673 25.891 16.1805V25.2321L25.8877 25.2752C24.4256 24.1828 22.7959 23.6912 20.67 23.6912C18.2808 23.6912 16.1447 24.5091 14.4961 26.0544C12.5459 27.8345 11.4277 30.3677 11.4277 33.0048C11.4277 35.8767 12.6229 38.4848 14.7927 40.3502C16.3733 41.7227 18.4051 42.4491 20.67 42.4491C22.6385 42.4491 24.3503 41.9069 25.8877 40.7912L25.891 40.7961V41.2723C25.891 41.6849 26.2298 42.0243 26.6449 42.0243H29.5833C29.9973 42.0243 30.3366 41.6849 30.3366 41.2723V16.1808C30.3366 15.7676 29.9973 15.4297 29.5833 15.4297Z" fill="#0099FF"/>
<path d="M50.6955 30.9438H43.6726V30.9406V16.1771C43.6726 15.7639 43.3339 15.4263 42.9187 15.4263H39.9803C39.5652 15.4263 39.2271 15.7639 39.2271 16.1771L39.235 34.6206C39.235 35.0338 39.5731 35.372 39.9883 35.372H50.6955C51.1169 35.372 51.4499 35.0247 51.4499 34.6127V31.6947C51.4499 31.281 51.1107 30.9438 50.6955 30.9438Z" fill="#0099FF"/>
<path d="M50.6918 37.5855L37.008 37.5887L37.0046 16.1778C37.0046 15.7646 36.6653 15.427 36.2508 15.427H33.3124C32.8978 15.427 32.5591 15.7646 32.5591 16.1778V41.2404C32.5591 41.6541 32.8978 41.9923 33.3124 42.0207H50.6918C51.107 41.9924 51.4457 41.6405 51.4457 41.2267V38.3407C51.4457 37.928 51.1001 37.5872 50.6918 37.5855Z" fill="#0099FF"/>
<path d="M86.7571 34.3379C86.9002 34.4816 87.073 34.5965 87.2743 34.6823C87.4768 34.7687 87.7094 34.8118 87.9746 34.8118C88.2352 34.8118 88.4507 34.7703 88.6224 34.6868C88.7963 34.6043 88.883 34.4731 88.883 34.2941C88.883 34.2026 88.864 34.1247 88.827 34.0571C88.7894 33.9917 88.7262 33.9326 88.6371 33.8815C88.5465 33.8298 88.4296 33.7826 88.2819 33.7394C88.1353 33.6967 87.9517 33.649 87.7333 33.5962C87.577 33.5627 87.4231 33.5166 87.2714 33.4597C87.118 33.4017 86.9818 33.3261 86.8592 33.2312C86.7389 33.1363 86.6413 33.0209 86.5666 32.8857C86.4908 32.751 86.4538 32.589 86.4538 32.4003C86.4538 32.2036 86.4983 32.0331 86.5885 31.887C86.6769 31.7404 86.7972 31.6165 86.9471 31.5165C87.0965 31.416 87.2647 31.3397 87.4518 31.288C87.64 31.2357 87.8344 31.2102 88.0357 31.2102C88.3755 31.2102 88.6681 31.2556 88.9133 31.3444C89.1579 31.433 89.3723 31.5581 89.5571 31.719L89.134 32.2526C89.0131 32.1447 88.8608 32.052 88.6795 31.9775C88.4982 31.902 88.2866 31.8656 88.0448 31.8656C87.7962 31.8656 87.5978 31.9054 87.4484 31.9861C87.2979 32.0661 87.2237 32.1986 87.2237 32.3822C87.2237 32.5544 87.3229 32.6829 87.5213 32.7653C87.7204 32.8494 87.9809 32.9284 88.3037 33.0023C88.4942 33.0484 88.6709 33.1017 88.8357 33.1619C88.9999 33.2228 89.1442 33.2995 89.2674 33.3949C89.3917 33.4887 89.4898 33.6052 89.5616 33.7439C89.6329 33.8815 89.6694 34.0474 89.6694 34.2435C89.6694 34.4441 89.6232 34.6209 89.5309 34.7732C89.4386 34.925 89.3154 35.0528 89.1603 35.1568C89.004 35.2598 88.825 35.3376 88.6225 35.3893C88.4213 35.441 88.2114 35.4666 87.993 35.4666C87.2323 35.4666 86.6609 35.2626 86.2817 34.8545L86.7571 34.3379Z" fill="#0099FF"/>
<path d="M92.2969 34.7944C92.5034 34.7944 92.6915 34.7534 92.8586 34.6698C93.0257 34.5862 93.1665 34.4772 93.2823 34.3425C93.3975 34.2071 93.4858 34.052 93.5457 33.877C93.6055 33.7019 93.6364 33.5223 93.6364 33.3388C93.6364 33.1603 93.6057 32.9835 93.5457 32.8085C93.4859 32.6334 93.3952 32.4771 93.2777 32.339C93.1597 32.2014 93.0188 32.0912 92.8546 32.0077C92.6898 31.924 92.5034 31.8826 92.2969 31.8826C92.0894 31.8826 91.9023 31.9242 91.7347 32.0077C91.567 32.0913 91.4267 32.2003 91.3116 32.3345C91.1958 32.4703 91.1086 32.6249 91.0481 32.8005C90.987 32.9756 90.9569 33.1552 90.9569 33.3388C90.9569 33.5223 90.9872 33.7014 91.0481 33.8724C91.1086 34.0446 91.1975 34.2004 91.3161 34.3379C91.4336 34.4755 91.575 34.5863 91.7398 34.6698C91.9035 34.7534 92.0894 34.7944 92.2969 34.7944ZM92.2969 35.4667C91.9856 35.4667 91.6999 35.4105 91.4404 35.2991C91.1815 35.1871 90.9586 35.0331 90.7704 34.8381C90.5834 34.6426 90.4368 34.417 90.3296 34.1624C90.2236 33.9066 90.1699 33.6309 90.1699 33.3388C90.1699 33.0455 90.2236 32.7716 90.3296 32.5158C90.4368 32.2607 90.5834 32.035 90.7704 31.8389C90.9586 31.6446 91.1815 31.4911 91.4404 31.3791C91.6999 31.2672 91.9856 31.2103 92.2969 31.2103C92.6026 31.2103 92.8843 31.2672 93.1437 31.3791C93.4037 31.4911 93.6278 31.6446 93.8189 31.8389C94.0088 32.035 94.1564 32.2607 94.2636 32.5158C94.3703 32.7716 94.4227 33.0455 94.4227 33.3388C94.4227 33.6309 94.3702 33.9066 94.2636 34.1624C94.1565 34.417 94.0088 34.6426 93.8189 34.8381C93.6278 35.0331 93.4037 35.1871 93.1437 35.2991C92.8843 35.4104 92.6026 35.4667 92.2969 35.4667Z" fill="#0099FF"/>
<path d="M95.0894 29.5996H95.8672V35.3462H95.0894V29.5996Z" fill="#0099FF"/>
<path d="M96.6885 31.3398H97.4663V33.6922C97.4663 34.0707 97.5439 34.3452 97.7001 34.5146C97.8557 34.684 98.0804 34.7686 98.3741 34.7686C98.5988 34.7686 98.7852 34.7232 98.9318 34.631C99.0777 34.5395 99.1986 34.4196 99.2899 34.273C99.3828 34.1275 99.4473 33.9604 99.4855 33.774C99.522 33.5864 99.5414 33.3966 99.5414 33.1999V31.3397H100.319V34.4753V34.9362C100.319 35.0658 100.322 35.2028 100.329 35.3455H99.5859L99.559 34.7515C99.5071 34.8197 99.4438 34.8948 99.3691 34.9755C99.2945 35.0562 99.2015 35.129 99.092 35.1954C98.9826 35.2613 98.8559 35.3171 98.7117 35.3625C98.5675 35.4097 98.4032 35.4331 98.219 35.4331C97.6949 35.4331 97.3083 35.2808 97.0603 34.9801C96.8134 34.6777 96.6891 34.2668 96.6891 33.7439L96.6885 31.3398Z" fill="#0099FF"/>
<path d="M101.659 31.9863H100.932V31.3395H101.659V30.0306H102.436V31.3395H103.612V31.9863H102.436V33.9596C102.436 34.2802 102.486 34.5013 102.588 34.6229C102.688 34.7428 102.831 34.8031 103.015 34.8031C103.165 34.8031 103.289 34.7808 103.387 34.7349C103.484 34.6888 103.582 34.6196 103.681 34.5281L104.035 35.0021C103.868 35.1624 103.697 35.2783 103.521 35.3505C103.345 35.4222 103.137 35.4584 102.894 35.4584C102.467 35.4584 102.155 35.343 101.957 35.1134C101.758 34.8832 101.659 34.5246 101.659 34.0358L101.659 31.9863Z" fill="#0099FF"/>
<path d="M104.58 31.34H105.358V35.3457H104.58V31.34ZM104.528 29.7543H105.401V30.625H104.528V29.7543Z" fill="#0099FF"/>
<path d="M108.184 34.7944C108.392 34.7944 108.579 34.7534 108.746 34.6698C108.914 34.5862 109.054 34.4772 109.169 34.3425C109.285 34.2071 109.374 34.052 109.434 33.877C109.494 33.7019 109.524 33.5223 109.524 33.3388C109.524 33.1603 109.494 32.9835 109.434 32.8085C109.374 32.6334 109.283 32.4771 109.166 32.339C109.047 32.2014 108.906 32.0912 108.742 32.0077C108.578 31.924 108.392 31.8826 108.184 31.8826C107.977 31.8826 107.79 31.9242 107.623 32.0077C107.455 32.0913 107.315 32.2003 107.199 32.3345C107.084 32.4703 106.996 32.6249 106.936 32.8005C106.875 32.9756 106.845 33.1552 106.845 33.3388C106.845 33.5223 106.875 33.7014 106.936 33.8724C106.996 34.0446 107.085 34.2004 107.203 34.3379C107.322 34.4755 107.462 34.5863 107.628 34.6698C107.791 34.7534 107.977 34.7944 108.184 34.7944ZM108.184 35.4667C107.873 35.4667 107.588 35.4105 107.328 35.2991C107.07 35.1871 106.846 35.0331 106.659 34.8381C106.471 34.6426 106.325 34.417 106.218 34.1624C106.111 33.9066 106.057 33.6309 106.057 33.3388C106.057 33.0455 106.111 32.7716 106.218 32.5158C106.325 32.2607 106.471 32.035 106.659 31.8389C106.846 31.6446 107.07 31.4911 107.328 31.3791C107.588 31.2672 107.873 31.2103 108.184 31.2103C108.49 31.2103 108.772 31.2672 109.032 31.3791C109.291 31.4911 109.515 31.6446 109.706 31.8389C109.896 32.035 110.044 32.2607 110.151 32.5158C110.257 32.7716 110.311 33.0455 110.311 33.3388C110.311 33.6309 110.257 33.9066 110.151 34.1624C110.044 34.417 109.896 34.6426 109.706 34.8381C109.515 35.0331 109.291 35.1871 109.032 35.2991C108.772 35.4104 108.49 35.4667 108.184 35.4667Z" fill="#0099FF"/>
<path d="M110.946 32.2101V31.7491C110.946 31.6196 110.943 31.4837 110.937 31.3399H111.68L111.706 31.9429C111.758 31.8737 111.821 31.7968 111.896 31.7145C111.971 31.6308 112.063 31.5548 112.173 31.4865C112.282 31.4173 112.411 31.3604 112.557 31.3138C112.704 31.2677 112.87 31.245 113.054 31.245C113.579 31.245 113.968 31.3972 114.222 31.7019C114.475 32.0066 114.602 32.4198 114.602 32.9427V35.3456H113.824V33.0023C113.824 32.6295 113.743 32.3556 113.582 32.1799C113.42 32.0049 113.193 31.9179 112.899 31.9179C112.674 31.9179 112.487 31.9633 112.338 32.0549C112.187 32.147 112.067 32.2651 111.978 32.4123C111.889 32.559 111.824 32.7249 111.784 32.9125C111.744 33.0989 111.723 33.2899 111.723 33.4854V35.3456H110.946L110.946 32.2101Z" fill="#0099FF"/>
<path d="M115.659 34.3379C115.803 34.4816 115.976 34.5965 116.178 34.6823C116.38 34.7687 116.612 34.8118 116.878 34.8118C117.137 34.8118 117.352 34.7703 117.526 34.6868C117.699 34.6043 117.786 34.4731 117.786 34.2941C117.786 34.2026 117.767 34.1247 117.729 34.0571C117.691 33.9917 117.628 33.9326 117.539 33.8815C117.45 33.8298 117.331 33.7826 117.185 33.7394C117.038 33.6967 116.855 33.649 116.636 33.5962C116.48 33.5627 116.326 33.5166 116.174 33.4597C116.02 33.4017 115.884 33.3261 115.763 33.2312C115.642 33.1363 115.543 33.0209 115.469 32.8857C115.393 32.751 115.357 32.589 115.357 32.4003C115.357 32.2036 115.401 32.0331 115.491 31.887C115.579 31.7404 115.7 31.6165 115.849 31.5165C115.998 31.416 116.167 31.3397 116.354 31.288C116.543 31.2357 116.736 31.2102 116.938 31.2102C117.279 31.2102 117.571 31.2556 117.816 31.3444C118.061 31.433 118.274 31.5581 118.46 31.719L118.036 32.2526C117.915 32.1447 117.763 32.052 117.583 31.9775C117.4 31.902 117.189 31.8656 116.947 31.8656C116.698 31.8656 116.5 31.9054 116.35 31.9861C116.2 32.0661 116.125 32.1986 116.125 32.3822C116.125 32.5544 116.224 32.6829 116.424 32.7653C116.622 32.8494 116.883 32.9284 117.206 33.0023C117.396 33.0484 117.574 33.1017 117.738 33.1619C117.902 33.2228 118.046 33.2995 118.171 33.3949C118.294 33.4887 118.391 33.6052 118.463 33.7439C118.536 33.8815 118.573 34.0474 118.573 34.2435C118.573 34.4441 118.526 34.6209 118.433 34.7732C118.342 34.925 118.217 35.0528 118.063 35.1568C117.906 35.2598 117.727 35.3376 117.526 35.3893C117.324 35.441 117.113 35.4666 116.894 35.4666C116.134 35.4666 115.564 35.2626 115.183 34.8545L115.659 34.3379Z" fill="#0099FF"/>
<path d="M59.8046 32.227V31.7661C59.8046 31.637 59.8014 31.5012 59.7949 31.3574H60.5391L60.5648 31.9605C60.6173 31.8912 60.6805 31.815 60.7564 31.7325C60.8317 31.6489 60.9251 31.5722 61.0335 31.5041C61.1429 31.4342 61.2713 31.3773 61.4184 31.3318C61.5655 31.2858 61.7309 31.2626 61.9151 31.2626C62.4403 31.2626 62.8286 31.4143 63.0829 31.719C63.3361 32.0236 63.4632 32.4374 63.4632 32.9597V35.3627H62.6843V33.0199C62.6843 32.6471 62.604 32.3726 62.4431 32.1975C62.2806 32.0219 62.0536 31.9349 61.7605 31.9349C61.5347 31.9349 61.3477 31.9804 61.1983 32.0725C61.0478 32.164 60.928 32.2828 60.8402 32.4306C60.7495 32.5761 60.6839 32.7421 60.6435 32.9296C60.6031 33.116 60.583 33.3081 60.583 33.5025V35.3627H59.8041L59.8046 32.227Z" fill="#0099FF"/>
<path d="M66.8806 33.4685C66.8571 33.462 66.8133 33.4556 66.7472 33.4463C66.6805 33.4382 66.6046 33.4302 66.518 33.4247C66.4318 33.4199 66.3389 33.4134 66.2408 33.4071C66.1427 33.4023 66.0475 33.3991 65.9557 33.3991C65.7368 33.3991 65.5594 33.4247 65.4248 33.4764C65.2886 33.5281 65.1825 33.5929 65.1044 33.6708C65.0268 33.7481 64.9733 33.8344 64.9447 33.9294C64.9156 34.0238 64.9007 34.1141 64.9007 34.2005C64.9007 34.4187 64.9765 34.5841 65.1254 34.6955C65.2759 34.8075 65.4835 34.8637 65.7481 34.8637C65.8981 34.8637 66.04 34.8376 66.1757 34.7864C66.3115 34.7347 66.4318 34.6654 66.535 34.5801C66.6394 34.4931 66.7231 34.3931 66.7853 34.2783C66.8485 34.163 66.8805 34.0447 66.8805 33.9248L66.8806 33.4685ZM66.8903 34.8803C66.7409 35.082 66.5424 35.2315 66.2978 35.3287C66.0526 35.4265 65.8006 35.4753 65.5411 35.4753C65.374 35.4753 65.2086 35.4544 65.0439 35.4106C64.8802 35.3674 64.7302 35.2963 64.5951 35.1957C64.4599 35.0957 64.3499 34.9655 64.2661 34.8075C64.1835 34.6495 64.1411 34.4563 64.1411 34.2261C64.1411 33.7953 64.2916 33.4509 64.595 33.1923C64.8972 32.9337 65.3335 32.8052 65.9048 32.8052C65.9966 32.8052 66.0947 32.8084 66.1979 32.8133C66.3024 32.8197 66.4004 32.8246 66.4927 32.8304C66.5846 32.8368 66.665 32.8417 66.734 32.8475C66.8035 32.8539 66.8519 32.8587 66.881 32.865V32.7178C66.881 32.4194 66.7904 32.2051 66.6096 32.0767C66.4277 31.9465 66.1808 31.8817 65.8695 31.8817C65.5644 31.8817 65.3226 31.9244 65.1441 32.0074C64.9656 32.091 64.8157 32.1751 64.6936 32.2614L64.331 31.7357C64.4 31.6788 64.4832 31.6208 64.5824 31.5641C64.6794 31.5061 64.7951 31.4521 64.9274 31.4044C65.0596 31.3556 65.2103 31.3151 65.3768 31.2834C65.5439 31.2517 65.7372 31.2362 65.9561 31.2362C66.475 31.2362 66.8828 31.3619 67.1798 31.6113C67.4764 31.8608 67.6252 32.2149 67.6252 32.6753V34.5702V35.0061C67.6252 35.1464 67.6284 35.2658 67.6333 35.3624H66.9074L66.8903 34.8803Z" fill="#0099FF"/>
<path d="M68.4539 32.227V31.7661C68.4539 31.637 68.4523 31.5012 68.4458 31.3574H69.1894L69.2144 31.9605C69.2668 31.8912 69.3308 31.815 69.4043 31.7325C69.4796 31.6489 69.5725 31.5722 69.682 31.5041C69.7914 31.4348 69.9187 31.3773 70.0658 31.3318C70.2129 31.2858 70.3777 31.2626 70.563 31.2626C71.0871 31.2626 71.4754 31.4143 71.7292 31.719C71.9835 32.0236 72.1095 32.4374 72.1095 32.9597V35.3627H71.3317V33.0199C71.3317 32.6471 71.2507 32.3726 71.0894 32.1975C70.928 32.0219 70.701 31.9349 70.4074 31.9349C70.1827 31.9349 69.9951 31.9804 69.8457 32.0725C69.6957 32.164 69.5765 32.2828 69.4864 32.4306C69.3975 32.5761 69.333 32.7421 69.2931 32.9296C69.2521 33.116 69.2322 33.3081 69.2322 33.5025V35.3627H68.4538L68.4539 32.227Z" fill="#0099FF"/>
<path d="M76.3837 34.8121C76.2046 35.0139 75.9845 35.1753 75.7228 35.2987C75.4611 35.4219 75.156 35.4845 74.811 35.4845C74.4877 35.4845 74.1951 35.431 73.9334 35.3248C73.6717 35.2192 73.4493 35.0725 73.2679 34.885C73.0866 34.6985 72.9463 34.4746 72.8483 34.2137C72.7501 33.9523 72.7012 33.6664 72.7012 33.3566C72.7012 33.0628 72.7531 32.7883 72.8575 32.5291C72.9608 32.2705 73.1061 32.0449 73.2943 31.8522C73.4813 31.6607 73.7026 31.5078 73.9597 31.3958C74.2158 31.2839 74.4992 31.2281 74.8111 31.2281C75.1509 31.2281 75.4497 31.2884 75.7103 31.4095C75.9698 31.53 76.1905 31.6936 76.3758 31.9005L75.8654 32.3916C75.7441 32.2421 75.5974 32.1239 75.4252 32.0381C75.2524 31.9517 75.0477 31.9085 74.8111 31.9085C74.6035 31.9085 74.4176 31.9483 74.2534 32.0256C74.0886 32.103 73.9506 32.2087 73.8383 32.3434C73.7259 32.4792 73.6398 32.6338 73.5794 32.8088C73.5183 32.9845 73.4894 33.1669 73.4894 33.3567C73.4894 33.5397 73.5185 33.7199 73.5794 33.895C73.6398 34.07 73.726 34.2252 73.8383 34.3593C73.9506 34.4946 74.0886 34.6026 74.2534 34.6827C74.4176 34.7634 74.6035 34.8032 74.8111 34.8032C75.0477 34.8032 75.2582 34.7589 75.4469 34.6703C75.6339 34.5817 75.7879 34.4617 75.9088 34.3122L76.3837 34.8121Z" fill="#0099FF"/>
<path d="M77.0686 31.3576H77.8464V35.3627H77.0686V31.3576ZM77.0161 29.7725H77.8891V30.6432H77.0161V29.7725Z" fill="#0099FF"/>
<path d="M81.3094 33.4685C81.2855 33.462 81.241 33.4556 81.1748 33.4463C81.108 33.4382 81.0317 33.4302 80.945 33.4247C80.8595 33.4199 80.7671 33.4134 80.669 33.4071C80.5709 33.4023 80.4762 33.3991 80.3839 33.3991C80.1643 33.3991 79.9876 33.4247 79.8518 33.4764C79.7161 33.5281 79.6095 33.5929 79.5319 33.6708C79.4544 33.7481 79.4013 33.8344 79.3722 33.9294C79.3431 34.0238 79.3296 34.1141 79.3296 34.2005C79.3296 34.4187 79.4042 34.5841 79.5542 34.6955C79.7042 34.8075 79.9106 34.8637 80.1764 34.8637C80.3257 34.8637 80.4689 34.8376 80.6035 34.7864C80.7392 34.7347 80.8595 34.6654 80.9627 34.5801C81.0671 34.4931 81.1503 34.3931 81.213 34.2783C81.2775 34.163 81.3094 34.0447 81.3094 33.9248L81.3094 33.4685ZM81.3175 34.8803C81.1681 35.082 80.9702 35.2315 80.725 35.3287C80.4804 35.4265 80.2289 35.4753 79.9695 35.4753C79.8013 35.4753 79.6365 35.4544 79.4717 35.4106C79.3074 35.3674 79.1575 35.2963 79.0223 35.1957C78.8872 35.0957 78.7771 34.9655 78.6944 34.8075C78.6105 34.6495 78.5679 34.4563 78.5679 34.2261C78.5679 33.7953 78.7195 33.4509 79.0223 33.1923C79.3257 32.9337 79.7619 32.8052 80.3322 32.8052C80.424 32.8052 80.522 32.8084 80.6253 32.8133C80.7297 32.8197 80.8271 32.8246 80.9195 32.8304C81.012 32.8368 81.0934 32.8417 81.1619 32.8475C81.2302 32.8539 81.2805 32.8587 81.3096 32.865V32.7178C81.3096 32.4194 81.2178 32.2051 81.037 32.0767C80.8551 31.9476 80.6082 31.8817 80.2974 31.8817C79.9924 31.8817 79.7494 31.9244 79.5715 32.0074C79.393 32.091 79.2437 32.1751 79.1222 32.2614L78.7584 31.7357C78.8285 31.6788 78.9118 31.6208 79.0093 31.5641C79.1079 31.5061 79.2231 31.4521 79.3548 31.4044C79.4877 31.3556 79.6371 31.3151 79.8048 31.2834C79.9718 31.2517 80.1646 31.2362 80.3841 31.2362C80.9025 31.2362 81.3107 31.3619 81.6073 31.6113C81.9038 31.8608 82.0526 32.2149 82.0526 32.6753V34.5702V35.0061C82.0526 35.1464 82.0542 35.2658 82.0607 35.3624H81.3342L81.3175 34.8803Z" fill="#0099FF"/>
<path d="M83.0288 29.6172H83.8066V35.3626H83.0288V29.6172Z" fill="#0099FF"/>
<path d="M58.0069 31.357H58.7847V35.3627H58.0069V31.357ZM57.9556 29.7719H58.828V30.642H57.9556V29.7719Z" fill="#0099FF"/>
<path d="M57.169 29.5689C56.9643 29.503 56.7556 29.4706 56.5429 29.4706C56.3581 29.4706 56.1825 29.5001 56.0154 29.5603C55.8478 29.6211 55.6995 29.7144 55.5701 29.8405C55.4401 29.9667 55.3363 30.1287 55.2587 30.3276C55.1812 30.5254 55.1424 30.7601 55.1424 31.0301V31.3569H54.4165V32.0031H55.1424V35.3626H55.9202V32.0031H57.0698V31.3569H55.9202V31.0983C55.9202 30.7482 55.9875 30.5004 56.1232 30.3577C56.2584 30.2139 56.4385 30.1417 56.6638 30.1417C56.7955 30.1417 56.9227 30.1712 57.0464 30.2236L57.4439 29.6945C57.3549 29.6427 57.2642 29.6001 57.169 29.5689Z" fill="#0099FF"/>
<path d="M55.6039 41.1403C55.6963 41.2147 55.8286 41.2869 56.0019 41.3551C56.1741 41.4244 56.3903 41.4592 56.6497 41.4592C56.8459 41.4592 57.0261 41.4228 57.1903 41.3517C57.3545 41.2796 57.4954 41.1784 57.6134 41.0499C57.7314 40.9209 57.8221 40.7697 57.886 40.5975C57.9498 40.4253 57.9812 40.2355 57.9812 40.0286C57.9812 39.8342 57.959 39.6495 57.9156 39.4767C57.8728 39.3057 57.8039 39.1528 57.7086 39.0203C57.6134 38.889 57.4914 38.7845 57.3414 38.7072C57.1909 38.6287 57.0072 38.5901 56.7883 38.5901C56.5111 38.5901 56.2751 38.6663 56.0795 38.818C55.8833 38.9697 55.7447 39.1925 55.6643 39.4858C55.6353 39.5784 55.6181 39.6768 55.6125 39.7836C55.6068 39.8899 55.6039 40.0002 55.6039 40.1144L55.6039 41.1403ZM54.8341 38.8743V38.4133C54.8341 38.2831 54.8318 38.1473 54.8262 38.0047H55.5692L55.5954 38.573C55.6353 38.5213 55.6935 38.4581 55.7682 38.3826C55.8429 38.3082 55.9364 38.2371 56.0493 38.1678C56.1617 38.0985 56.2922 38.0399 56.4422 37.991C56.5922 37.9422 56.765 37.9177 56.9611 37.9177C57.2725 37.9177 57.5416 37.9751 57.7697 38.0905C57.9972 38.2054 58.1854 38.3599 58.3354 38.5554C58.4847 38.7504 58.596 38.9754 58.6684 39.2272C58.7402 39.4807 58.7762 39.7478 58.7762 40.0286C58.7762 40.3906 58.714 40.7032 58.5903 40.9681C58.4666 41.2329 58.3052 41.45 58.1062 41.6222C57.9077 41.795 57.6854 41.9229 57.4413 42.0059C57.1961 42.0889 56.9554 42.1316 56.7188 42.1316C56.4485 42.1316 56.2307 42.1037 56.0665 42.0486C55.9017 41.9946 55.7477 41.936 55.604 41.8724V43.7337H54.8342L54.8341 38.8743Z" fill="#0099FF"/>
<path d="M61.9908 40.1146C61.968 40.1098 61.9236 40.1017 61.8568 40.093C61.7907 40.085 61.7138 40.0769 61.6276 40.0721C61.5421 40.0656 61.4491 40.0608 61.351 40.0545C61.2529 40.0481 61.1577 40.0465 61.0659 40.0465C60.8469 40.0465 60.6696 40.0721 60.5345 40.1238C60.3993 40.1762 60.2927 40.2398 60.2151 40.317C60.1375 40.3955 60.0845 40.4813 60.0554 40.5756C60.0263 40.6717 60.0121 40.7615 60.0121 40.8473C60.0121 41.0656 60.0874 41.2298 60.2379 41.3429C60.3861 41.4549 60.5937 41.5117 60.8583 41.5117C61.0083 41.5117 61.1509 41.485 61.2871 41.4328C61.4218 41.3811 61.542 41.3129 61.6447 41.2265C61.7484 41.1406 61.8323 41.0401 61.8961 40.9247C61.9589 40.8098 61.9909 40.6922 61.9909 40.5723L61.9908 40.1146ZM62.0005 41.5275C61.85 41.7293 61.6521 41.8782 61.4081 41.976C61.1629 42.0738 60.9108 42.1226 60.6513 42.1226C60.4843 42.1226 60.3201 42.101 60.1553 42.0578C59.991 42.014 59.8416 41.943 59.7065 41.843C59.5702 41.7425 59.4607 41.6128 59.378 41.4548C59.2941 41.2968 59.252 41.103 59.252 40.8728C59.252 40.4425 59.4036 40.0976 59.7064 39.8395C60.0081 39.5809 60.4443 39.4514 61.014 39.4514C61.1069 39.4514 61.205 39.4546 61.3082 39.4594C61.4126 39.4659 61.5106 39.4707 61.6024 39.4765C61.6936 39.4829 61.7752 39.4878 61.8442 39.4936C61.9132 39.5 61.9622 39.5064 61.9913 39.5122V39.3645C61.9913 39.0673 61.9006 38.8524 61.7199 38.7234C61.538 38.5939 61.2911 38.529 60.9803 38.529C60.6746 38.529 60.4329 38.5706 60.2549 38.6541C60.0759 38.7377 59.9265 38.8223 59.805 38.9081L59.4424 38.3824C59.5114 38.3255 59.5951 38.2682 59.6933 38.2113C59.7908 38.1533 59.906 38.1 60.0383 38.051C60.1711 38.0022 60.3205 37.9613 60.4876 37.9305C60.6541 37.8986 60.8474 37.8833 61.0664 37.8833C61.5853 37.8833 61.993 38.0083 62.289 38.2578C62.5866 38.5074 62.7343 38.8626 62.7343 39.3218V41.2172V41.652C62.7343 41.7935 62.7376 41.9123 62.744 42.0101H62.0181L62.0005 41.5275Z" fill="#0099FF"/>
<path d="M63.5395 38.8225V38.3872C63.5395 38.2639 63.5363 38.136 63.5298 38.0047H64.2728L64.299 38.6503C64.3463 38.5822 64.4057 38.5053 64.4803 38.423C64.5556 38.3394 64.6462 38.2633 64.7535 38.194C64.8606 38.1247 64.9838 38.066 65.1252 38.0172C65.2667 37.9684 65.4286 37.9432 65.6134 37.9432C65.6995 37.9432 65.7787 37.9497 65.8517 37.9608C65.9235 37.9721 65.9909 37.9903 66.0541 38.0125L65.8814 38.736C65.7769 38.6962 65.6453 38.6758 65.4839 38.6758C65.3168 38.6758 65.1623 38.7077 65.0214 38.7707C64.8795 38.8338 64.758 38.9218 64.6531 39.0338C64.5504 39.1458 64.4683 39.2759 64.4073 39.4254C64.3475 39.5754 64.3166 39.7329 64.3166 39.8988V42.0103H63.5388L63.5395 38.8225Z" fill="#0099FF"/>
<path d="M66.9465 38.6502H66.4253V38.0045H66.9465V36.6945H67.7243V38.0045H68.8995V38.6502H67.7243V40.6235C67.7243 40.9446 67.7739 41.1663 67.8748 41.2868C67.9756 41.4066 68.1188 41.468 68.3025 41.468C68.4529 41.468 68.5767 41.4447 68.6748 41.3988C68.7729 41.3527 68.871 41.2834 68.9679 41.1919L69.3237 41.6659C69.1561 41.8256 68.9844 41.9433 68.8088 42.0143C68.632 42.0858 68.4233 42.1222 68.1821 42.1222C67.755 42.1222 67.4425 42.008 67.2441 41.7778C67.0457 41.5476 66.9464 41.189 66.9464 40.7008L66.9465 38.6502Z" fill="#0099FF"/>
<path d="M69.8772 38.874V38.4131C69.8772 38.2835 69.874 38.1476 69.8691 38.0044H70.6122L70.6379 38.6074C70.6902 38.5382 70.7531 38.462 70.8277 38.3784C70.9035 38.2961 70.9954 38.2192 71.1037 38.151C71.2131 38.0818 71.3421 38.0249 71.4886 37.9777C71.6357 37.9316 71.8005 37.9095 71.9859 37.9095C72.5099 37.9095 72.8994 38.0624 73.152 38.3659C73.4063 38.6706 73.5323 39.0843 73.5323 39.6066V42.0108H72.7545V39.6669C72.7545 39.2941 72.6736 39.0195 72.5128 38.8439C72.3508 38.6689 72.1239 38.5819 71.8302 38.5819C71.605 38.5819 71.4185 38.6273 71.2674 38.7195C71.118 38.811 70.9999 38.9298 70.9104 39.0776C70.8204 39.223 70.7552 39.3902 70.716 39.5766C70.6754 39.763 70.656 39.9551 70.656 40.1495V42.0108H69.8771L69.8772 38.874Z" fill="#0099FF"/>
<path d="M77.3164 39.6581C77.293 39.3484 77.1836 39.0847 76.9874 38.8659C76.7918 38.6476 76.5153 38.5385 76.1583 38.5385C75.9741 38.5385 75.8082 38.5702 75.661 38.6334C75.514 38.6965 75.3885 38.78 75.2853 38.8829C75.1809 38.9858 75.1005 39.1057 75.0435 39.2409C74.9859 39.3756 74.9539 39.5149 74.9476 39.6581L77.3164 39.6581ZM78.0167 41.4246C77.9704 41.4769 77.9009 41.5428 77.8091 41.6224C77.7166 41.7031 77.597 41.7804 77.4499 41.8554C77.3032 41.9305 77.1305 41.9946 76.9315 42.0486C76.7331 42.1037 76.5067 42.1316 76.2535 42.1316C75.9422 42.1316 75.6571 42.0788 75.397 41.9758C75.1381 41.8717 74.9158 41.7263 74.7316 41.5365C74.5474 41.3472 74.4048 41.1199 74.3033 40.8561C74.2036 40.5913 74.1528 40.2986 74.1528 39.9769C74.1528 39.6836 74.2018 39.4103 74.2999 39.1545C74.398 38.8988 74.5354 38.6777 74.7139 38.4901C74.8929 38.3048 75.1051 38.1565 75.3503 38.0474C75.5955 37.9377 75.8646 37.8837 76.1583 37.8837C76.5039 37.8837 76.8004 37.9496 77.0484 38.082C77.2959 38.2138 77.4995 38.3884 77.6574 38.6078C77.8165 38.8249 77.9323 39.0755 78.0081 39.3568C78.0828 39.6376 78.1205 39.9309 78.1205 40.2355H74.9477C74.9542 40.414 74.9928 40.5771 75.0652 40.7265C75.1365 40.8754 75.2334 41.0045 75.3538 41.1147C75.4758 41.2238 75.6138 41.3097 75.7689 41.3722C75.9245 41.4359 76.0888 41.4678 76.2616 41.4678C76.602 41.4678 76.8808 41.4104 77.1004 41.295C77.3193 41.1801 77.4779 41.0682 77.5759 40.9591L78.0167 41.4246Z" fill="#0099FF"/>
<path d="M78.7634 38.8225V38.3872C78.7634 38.2639 78.7602 38.136 78.7554 38.0047H79.4972L79.5241 38.6503C79.5708 38.5822 79.6301 38.5053 79.7054 38.423C79.7812 38.3394 79.8719 38.2633 79.978 38.194C80.0851 38.1247 80.2083 38.066 80.3498 38.0172C80.4912 37.9684 80.6531 37.9432 80.8384 37.9432C80.9246 37.9432 81.0032 37.9497 81.0762 37.9608C81.1482 37.9721 81.2154 37.9903 81.2787 38.0125L81.1059 38.736C81.0021 38.6962 80.8698 38.6758 80.7084 38.6758C80.5413 38.6758 80.3868 38.7077 80.246 38.7707C80.1045 38.8338 79.9831 38.9218 79.8776 39.0338C79.7755 39.1458 79.6929 39.2759 79.6318 39.4254C79.572 39.5754 79.5412 39.7329 79.5412 39.8988V42.0103H78.7634L78.7634 38.8225Z" fill="#0099FF"/>
</svg>
