<svg width="130" height="60" viewBox="0 0 130 60" fill="none" xmlns="http://www.w3.org/2000/svg">
<rect width="130" height="60" fill="white"/>
<path d="M81.6944 34.018V32.6361C81.6944 31.8812 81.4466 31.2417 80.9534 30.7125C80.4552 30.1908 79.8269 29.9275 79.0709 29.9275C78.1621 29.9275 77.4537 30.2611 76.933 30.9332C76.4122 31.6053 76.1569 32.5283 76.1569 33.717C76.1569 34.798 76.4047 35.6532 76.9029 36.2752C77.4011 36.8971 78.072 37.2106 78.9106 37.2106C79.7493 37.2106 80.4077 36.9097 80.9234 36.3053C81.4391 35.7008 81.6944 34.9409 81.6944 34.018ZM83.1815 38.2539H81.6944V36.6639H81.6569C80.9659 37.8702 79.9045 38.4721 78.4675 38.4721C77.306 38.4721 76.3722 38.0508 75.6762 37.2156C74.9803 36.373 74.6323 35.2369 74.6323 33.7923C74.6323 32.2398 75.0178 31.0034 75.7889 30.0654C76.5599 29.1275 77.5913 28.6635 78.8781 28.6635C80.1648 28.6635 81.0786 29.1726 81.6569 30.1833H81.6944V24.3799H83.1815V38.2539Z" fill="#FAAE28"/>
<path d="M87.1692 38.2465H85.6822V28.8793H87.1692V38.2465ZM86.4407 26.5042C86.1729 26.5042 85.9501 26.4089 85.7623 26.2284C85.5746 26.0478 85.4819 25.8146 85.4819 25.5312C85.4819 25.2478 85.5746 25.0145 85.7623 24.8264C85.9476 24.6433 86.1729 24.5505 86.4407 24.5505C86.7086 24.5505 86.9439 24.6458 87.1367 24.8264C87.3294 25.0145 87.4221 25.2478 87.4221 25.5312C87.4221 25.8146 87.3294 26.0277 87.1367 26.2158C86.9439 26.4039 86.7136 26.4992 86.4407 26.4992" fill="#FAAE28"/>
<path d="M94.5067 30.4067C94.2463 30.206 93.8733 30.1057 93.3827 30.1057C92.7493 30.1057 92.2211 30.4067 91.7905 31.0111C91.3674 31.6155 91.1496 32.4381 91.1496 33.4789V38.2541H89.6626V28.8843H91.1496V30.813H91.1872C91.4 30.1534 91.7229 29.6367 92.156 29.2681C92.5891 28.8994 93.0772 28.7163 93.618 28.7163C94.0035 28.7163 94.3014 28.7615 94.5067 28.8417V30.3992V30.4067Z" fill="#FAAE28"/>
<path d="M101.301 32.6737C101.293 31.8059 101.091 31.1338 100.68 30.6497C100.27 30.1657 99.7038 29.9275 98.9828 29.9275C98.2618 29.9275 97.6885 30.1783 97.1978 30.6874C96.7072 31.1965 96.4093 31.8561 96.2891 32.6737H101.293H101.301ZM102.823 33.9427H96.2766C96.3016 34.986 96.582 35.7886 97.1102 36.3629C97.6384 36.9272 98.3719 37.2106 99.2982 37.2106C100.342 37.2106 101.301 36.8645 102.177 36.1673V37.5742C101.364 38.1711 100.287 38.4721 98.9427 38.4721C97.5984 38.4721 96.6045 38.0457 95.8535 37.1955C95.1075 36.3478 94.7295 35.1465 94.7295 33.6091C94.7295 32.152 95.14 30.9632 95.9537 30.0453C96.7748 29.1274 97.7887 28.6685 99.0003 28.6685C100.212 28.6685 101.151 29.0647 101.817 29.8547C102.483 30.6447 102.81 31.7457 102.81 33.1602V33.9452L102.823 33.9427Z" fill="#FAAE28"/>
<path d="M108.866 38.1662C108.518 38.3619 108.052 38.4622 107.479 38.4622C105.857 38.4622 105.043 37.5443 105.043 35.716V30.1684H103.451V28.8868H105.043V26.5995L106.53 26.1155V28.8868H108.869V30.1684H106.53V35.4451C106.53 36.0746 106.636 36.5185 106.848 36.7894C107.061 37.0602 107.407 37.1907 107.9 37.1907C108.273 37.1907 108.596 37.0903 108.869 36.8772V38.1587L108.866 38.1662Z" fill="#FAAE28"/>
<path d="M111.125 33.6168C111.125 31.9765 112.436 30.6523 114.059 30.6523C115.681 30.6523 116.992 31.9791 116.992 33.6168C116.992 35.2545 115.681 36.5812 114.059 36.5812C112.436 36.5812 111.125 35.2545 111.125 33.6168Z" fill="#17A990"/>
<path fill-rule="evenodd" clip-rule="evenodd" d="M110.198 33.617C110.198 31.4626 111.926 29.7146 114.058 29.7146C116.191 29.7146 117.919 31.4601 117.919 33.617C117.919 35.7738 116.191 37.5194 114.058 37.5194C111.926 37.5194 110.198 35.7738 110.198 33.617ZM109.117 33.617C109.117 30.8582 111.33 28.6211 114.058 28.6211C116.787 28.6211 119 30.8582 119 33.617C119 36.3757 116.787 38.6128 114.058 38.6128C111.33 38.6128 109.117 36.3757 109.117 33.617Z" fill="#FAAE28"/>
<path fill-rule="evenodd" clip-rule="evenodd" d="M40.8689 23.0056H40.9566C41.3171 22.5467 41.8027 22.2758 42.3935 22.2758C43.3323 22.2758 43.868 22.7222 43.868 23.7655C43.868 24.3123 43.8505 25.8447 43.868 26.3287H42.5137V23.9863C42.5137 23.2941 42.3259 22.9304 41.7852 22.9304C41.1644 22.9304 40.9841 23.432 40.9841 24.1944V26.3312H39.6223V22.3837H40.9215L40.884 23.0056H40.8689ZM48.602 23.1185C48.2966 22.805 47.9185 22.6169 47.3453 22.6169C46.5567 22.6169 46.1461 23.2941 46.1461 24.37C46.1461 25.4459 46.6618 25.9726 47.6256 25.9726C48.0062 25.9726 48.4142 25.802 48.6145 25.6014L48.7947 25.8472C48.4593 26.1481 47.7884 26.424 47.2226 26.424C45.3701 26.424 44.7617 25.3506 44.7617 24.3574C44.7617 23.1636 45.7381 22.2708 47.2601 22.2708C47.9436 22.2708 48.4117 22.4163 48.8573 22.6345L48.602 23.111V23.1185ZM51.4734 22.2758C52.9354 22.2758 53.7915 23.0483 53.7915 24.2747C53.7915 25.6064 52.8402 26.4365 51.4734 26.4365C50.3368 26.4365 49.1552 25.8973 49.1552 24.4577C49.1552 23.0182 50.2742 22.2783 51.4734 22.2783M51.4934 22.5743C50.865 22.5743 50.4995 23.2163 50.4995 24.4653C50.4995 25.3882 50.7299 26.1431 51.4884 26.1431C52.1293 26.1431 52.4522 25.4258 52.4522 24.1518C52.4522 23.1962 52.1718 22.5743 51.4934 22.5743ZM34.7456 22.7247C35.2864 22.4037 36.0374 22.2783 36.6282 22.2783C37.6421 22.2783 38.3505 22.6495 38.3505 23.5925V26.3262H37.1764C37.1764 26.2434 37.1889 26.0503 37.1764 25.8672V25.7669L37.1013 25.8421C36.8084 26.1882 36.4554 26.4315 35.8822 26.4315C34.9309 26.4315 34.5453 25.8923 34.5453 25.3832C34.5453 24.691 35.0736 24.39 35.9372 24.2095C37.0012 23.9888 37.1439 23.921 37.1439 23.58C37.1439 23.1536 36.7709 22.8125 36.1751 22.8125C35.4916 22.8125 35.0385 23.0458 34.9008 23.126L34.7456 22.7122V22.7247ZM37.1639 24.1443L37.1013 24.1769L36.6782 24.3349C36.5356 24.38 36.3929 24.4302 36.2627 24.4929C36.0023 24.6258 35.8096 24.839 35.8096 25.2779C35.8096 25.7167 36.0324 25.95 36.4004 25.95C36.8535 25.95 37.1639 25.6415 37.1639 25.0898V24.1493V24.1443ZM31.2934 21.0645H30.7777L30.7477 23.1762H31.2258C31.7916 23.1762 32.3624 22.8125 32.3624 22.0777C32.3624 21.5259 32.077 21.067 31.2859 21.067M29.3232 20.6732H31.8041C32.9532 20.6732 33.7067 21.0494 33.7067 21.9222C33.7067 22.795 32.7679 23.1712 32.1721 23.274V23.3568C32.7629 23.3818 33.8694 23.7455 33.8694 24.7136C33.8694 25.8647 32.8055 26.3337 31.6689 26.3337H29.3232V20.6682V20.6732ZM31.2008 23.5624H30.7477L30.7602 25.9299H31.331C31.9218 25.9299 32.4325 25.5036 32.4325 24.7612C32.4325 23.9637 31.9969 23.5674 31.2083 23.5674" fill="#FAAE28"/>
<path fill-rule="evenodd" clip-rule="evenodd" d="M14.1348 33.7746C14.638 36.3453 16.821 37.8451 19.3069 37.8451C20.849 37.8451 22.2233 37.2557 22.2233 35.9716C22.2233 35.1164 21.6701 34.5396 20.8815 34.0806L19.5297 33.4486C19.039 33.253 18.5158 33.0599 17.9951 32.8517C15.8997 32.0216 13.8594 30.9858 13.8594 28.4728C13.8594 25.6388 16.6207 24.2995 19.3294 24.2995C20.5736 24.2995 21.4498 24.5629 22.1157 24.8212L22.9794 25.1849C23.2272 25.2852 23.445 25.3554 23.6578 25.3554C24.1234 25.3554 24.3537 25.1347 24.4038 24.5328H24.7217V28.5355H24.3988C23.8405 26.3185 21.963 25.0118 19.5622 25.0118C18.2329 25.0118 17.1389 25.5911 17.1389 26.8451C17.1389 27.605 17.6847 28.0966 18.4582 28.4853C19.2318 28.8741 20.2556 29.1826 21.2871 29.5713C23.3398 30.3437 25.3401 31.4071 25.3401 34.0254C25.3401 37.2306 22.9643 38.5498 19.7274 38.5498C18.8062 38.5498 17.7873 38.3492 16.9361 38.141C16.5131 38.0407 16.1275 37.9328 15.8296 37.8576C15.5317 37.7824 15.2939 37.7247 15.1762 37.7247C14.7106 37.7247 14.3051 38.0332 14.1574 38.3893H13.8244V33.7621H14.1473L14.1348 33.7746ZM44.779 38.3793V38.0607C43.7276 38.0607 43.317 37.815 43.317 36.7039V33.4662C44.9593 33.4662 45.6302 33.7119 45.7228 35.4324H46.0582V30.8654H45.7228C45.6302 32.5859 44.9643 32.8316 43.317 32.8316V28.7286H45.0819C46.6666 28.7286 47.4877 29.3932 47.6379 30.9281H47.9734V28.0941H38.5681V28.4151C39.6195 28.4151 40.03 28.6609 40.03 29.7719V36.709C40.03 37.8225 39.6195 38.0658 38.5681 38.0658V38.3868H44.779V38.3793ZM66.8115 38.3793V38.0607C65.8852 38.0607 65.6249 37.7849 65.6249 37.4137C65.6249 37.1378 65.7 36.9246 65.8226 36.6036L66.3709 35.1139H69.2498L69.9633 36.8344C70.0384 37.035 70.131 37.2983 70.131 37.5266C70.131 37.8727 69.8581 38.0607 69.5102 38.0607H68.8267V38.3818H74.3042V38.0607C73.801 38.0156 73.6833 37.9479 73.403 37.3059L69.5527 28.0816H68.4888L65.0015 36.6839C64.5609 37.7648 64.2981 37.998 63.6772 38.0607V38.3818L66.8115 38.3793ZM69.007 34.5346H66.5887L67.8078 31.4999L69.007 34.5346ZM55.396 38.4369H55.7314C55.824 38.1786 56.1094 37.9479 56.4474 37.9479C56.7853 37.9479 58.4426 38.5573 59.8095 38.5573C62.2152 38.5573 64.0127 37.5767 64.0127 35.159C64.0127 31.214 57.9569 31.9664 57.9569 29.8572C57.9569 28.9769 58.7155 28.5581 59.6918 28.5581C61.4567 28.5581 62.8261 29.5261 63.2216 31.1588H63.5571V28.0891H63.2216C63.1916 28.5531 63.0414 28.6985 62.7184 28.6985C62.1401 28.6985 61.3816 27.9185 59.5241 27.9185C57.5163 27.9185 55.4335 28.9167 55.4335 31.0535C55.4335 34.843 61.6119 34.1759 61.6119 36.5886C61.6119 37.4864 60.6531 37.9203 59.5116 37.9203C57.6841 37.9203 56.0869 36.8068 55.7389 34.9107H55.4035V38.4369H55.396ZM26.6243 33.2329C26.6243 36.7466 29.1477 38.5548 32.5298 38.5548C35.9119 38.5548 38.4354 36.7466 38.4354 33.2329C38.4354 29.7193 35.9119 27.911 32.5298 27.911C29.1477 27.911 26.6243 29.7218 26.6243 33.2329ZM30.0014 33.2329C30.0014 29.8522 31.0403 28.5531 32.5323 28.5531C34.0244 28.5531 35.0558 29.8547 35.0558 33.2329C35.0558 36.6111 34.0219 37.9153 32.5298 37.9153C31.0378 37.9153 30.0014 36.6137 30.0014 33.2329ZM54.5648 38.3793V38.0607C53.5334 38.0607 53.1153 37.815 53.1153 36.7039V29.7669C53.1153 28.6559 53.5259 28.4101 54.5648 28.4101V28.0891H48.3714V28.4101C49.4228 28.4101 49.8334 28.6559 49.8334 29.7669V36.7014C49.8334 37.815 49.4228 38.0582 48.3714 38.0582V38.3793H54.5648ZM11.2935 20.6755H27.6883V21.6913H11.2935V20.6755ZM11.2935 22.4211H27.6883V22.7546H11.2935V22.4211ZM11.2935 41.3136H27.6883V42.3318H11.2935V41.3136ZM11.2935 40.2402H27.6883V40.5737H11.2935V40.2402Z" fill="#17A990"/>
</svg>
