<svg width="60" height="60" viewBox="0 0 60 60" fill="none" xmlns="http://www.w3.org/2000/svg">
<rect width="60" height="60" fill="#17A990"/>
<path d="M14 30C14 21.1472 21.1536 14 30 14C38.8464 14 46 21.1607 46 30C46 38.8393 38.8464 46 30 46C21.1536 46 14 38.8393 14 30Z" fill="white"/>
<path d="M18.7803 29.9951C18.7803 23.7557 23.7703 18.7185 29.9411 18.7185C36.1119 18.7185 41.1019 23.7653 41.1019 29.9951C41.1019 36.2248 36.1119 41.2716 29.9411 41.2716C23.7703 41.2716 18.7803 36.2248 18.7803 29.9951Z" fill="#17A990"/>
<path fill-rule="evenodd" clip-rule="evenodd" d="M15.2574 29.9958C15.2574 21.8008 21.8282 15.1512 29.9417 15.1512C38.0552 15.1512 44.626 21.7912 44.626 29.9958C44.626 38.2004 38.0552 44.8404 29.9417 44.8404C21.8282 44.8404 15.2574 38.2004 15.2574 29.9958ZM11.1436 29.9958C11.1436 19.5016 19.5618 10.9917 29.9417 10.9917C40.3217 10.9917 48.7399 19.5016 48.7399 29.9958C48.7399 40.4901 40.3217 49 29.9417 49C19.5618 49 11.1436 40.4901 11.1436 29.9958Z" fill="#FAAE28"/>
</svg>
