<svg width="130" height="60" viewBox="0 0 130 60" fill="none" xmlns="http://www.w3.org/2000/svg">
<rect width="130" height="60" fill="white"/>
<g clip-path="url(#clip0_68_214)">
<path d="M32.968 18H9V42H32.968V18Z" fill="#00C88D"/>
<path fill-rule="evenodd" clip-rule="evenodd" d="M21.745 24.437L26.384 35.563H24.849L20.907 26.357L17.118 35.563H15.583L20.068 24.437H21.745Z" fill="#175459"/>
<path d="M82.6738 35.877C81.867 35.8782 81.0779 35.64 80.4065 35.1926C79.7351 34.7453 79.2115 34.1088 78.9019 33.3637C78.5923 32.6187 78.5107 31.7985 78.6674 31.0071C78.8241 30.2156 79.212 29.4884 79.7821 28.9175C80.3522 28.3466 81.0788 27.9576 81.87 27.7998C82.6612 27.6419 83.4815 27.7223 84.227 28.0308C84.9725 28.3393 85.6097 28.862 86.0581 29.5327C86.5065 30.2035 86.7458 30.9922 86.7458 31.799C86.7462 32.3341 86.6412 32.8641 86.4367 33.3586C86.2323 33.8532 85.9325 34.3026 85.5544 34.6813C85.1762 35.06 84.7272 35.3605 84.233 35.5656C83.7387 35.7708 83.2089 35.8766 82.6738 35.877ZM82.6738 26.1C81.5462 26.0988 80.4435 26.4321 79.5054 27.0577C78.5673 27.6833 77.8357 28.5731 77.4034 29.6145C76.9711 30.656 76.8573 31.8022 77.0766 32.9083C77.2958 34.0144 77.8382 35.0306 78.6351 35.8284C79.4321 36.6261 80.4477 37.1696 81.5536 37.39C82.6594 37.6104 83.8058 37.4979 84.8477 37.0667C85.8896 36.6354 86.7801 35.9048 87.4067 34.9673C88.0333 34.0299 88.3678 32.9276 88.3678 31.8C88.3678 30.2893 87.7681 28.8404 86.7004 27.7716C85.6327 26.7028 84.1845 26.1016 82.6738 26.1Z" fill="#175459"/>
<path d="M96.4912 30.862V27.903H99.7812C99.9758 27.899 100.169 27.9334 100.351 28.0042C100.532 28.0749 100.698 28.1807 100.838 28.3155C100.978 28.4503 101.091 28.6114 101.169 28.7897C101.247 28.968 101.29 29.1599 101.294 29.3545C101.298 29.5491 101.263 29.7426 101.193 29.924C101.122 30.1053 101.016 30.2709 100.881 30.4114C100.746 30.5518 100.585 30.6644 100.407 30.7425C100.229 30.8207 100.037 30.863 99.8422 30.867H99.7812L96.4912 30.862ZM102.878 29.378C102.878 28.5558 102.552 27.7673 101.97 27.186C101.389 26.6046 100.6 26.278 99.7782 26.278H94.8682V37.322H96.4892V32.482H99.0532L101.633 37.32H103.462L100.791 32.307C101.4 32.096 101.928 31.7006 102.302 31.1756C102.675 30.6507 102.876 30.0224 102.876 29.378H102.878Z" fill="#175459"/>
<path d="M65.8031 32.483H69.5031V33.368C69.316 33.9082 69.0039 34.3964 68.5921 34.793C67.8007 35.5133 66.7619 35.9005 65.6921 35.874C65.0202 35.876 64.3583 35.7119 63.7651 35.3964C63.1719 35.0809 62.6658 34.6237 62.2919 34.0655C61.918 33.5073 61.6878 32.8653 61.6218 32.1966C61.5558 31.528 61.656 30.8534 61.9135 30.2328C62.1711 29.6123 62.578 29.0649 63.0981 28.6395C63.6181 28.2141 64.2352 27.9238 64.8945 27.7944C65.5539 27.665 66.2349 27.7005 66.8772 27.8977C67.5195 28.0949 68.1031 28.4478 68.5761 28.925L69.6761 27.73C69.0087 27.0743 68.1901 26.5929 67.2926 26.3285C66.3951 26.064 65.4463 26.0245 64.53 26.2135C63.6136 26.4025 62.7579 26.8142 62.0383 27.4122C61.3187 28.0102 60.7574 28.7762 60.4039 29.6425C60.0504 30.5088 59.9156 31.4488 60.0114 32.3795C60.1072 33.3103 60.4306 34.2031 60.9531 34.9793C61.4757 35.7554 62.1812 36.391 63.0075 36.8299C63.8338 37.2688 64.7555 37.4976 65.6911 37.496C66.8967 37.5427 68.0837 37.1886 69.0666 36.4891C70.0496 35.7897 70.7731 34.7842 71.1241 33.63V30.861H65.8041L65.8031 32.483Z" fill="#175459"/>
<path d="M112.59 33.036L114.525 28.399L116.461 33.036H112.59ZM115.39 26.276H113.651L109.036 37.321H110.791L111.903 34.657H117.129L118.241 37.321H119.996L115.385 26.278L115.39 26.276Z" fill="#175459"/>
<path d="M53.0911 22.497H50.0591L49.4121 24.044H53.0901L53.0911 22.497Z" fill="#175459"/>
<path d="M47.419 33.036L49.354 28.399L51.29 33.036H47.419ZM48.491 26.276L43.876 37.321H45.631L46.742 34.657H51.966L53.078 37.321H54.832L50.222 26.276H48.491Z" fill="#175459"/>
</g>
<defs>
<clipPath id="clip0_68_214">
<rect width="111" height="24" fill="white" transform="translate(9 18)"/>
</clipPath>
</defs>
</svg>
