<svg width="60" height="60" viewBox="0 0 60 60" fill="none" xmlns="http://www.w3.org/2000/svg">
<rect width="60" height="60" fill="#005941"/>
<path d="M50.0142 29.5C50.0142 40.8124 40.8115 50.0141 29.4994 50.0141C18.1872 50.0141 8.98578 40.8124 8.98578 29.5C8.98578 18.1876 18.1885 8.98589 29.4994 8.98589C40.8102 8.98589 50.0142 18.1876 50.0142 29.5ZM54 29.5C54 15.9905 43.0098 5 29.4994 5C15.9889 5 5 15.9905 5 29.5C5 43.0095 15.9902 54 29.4994 54C43.0085 54 53.9987 43.0082 53.9987 29.5" fill="#EF7C02"/>
<path d="M41.5711 30.3863L35.7225 35.9886L32.206 32.6068L33.5838 31.2829C35.8467 28.8677 32.9511 26.7591 32.9511 26.7591C32.9328 26.754 32.9197 26.7464 32.9067 26.7387L27.9352 31.5245L27.632 31.8209L23.2775 35.9962L17.4329 30.3939C16.6276 29.6219 16.6263 28.3654 17.4302 27.5921L23.2775 21.9885L26.794 25.3703L25.4149 26.6955C23.152 29.1106 26.0502 31.2193 26.0502 31.2193C26.0672 31.2244 26.0789 31.232 26.0946 31.2397L35.7238 21.9809L41.5698 27.5832C42.3737 28.3539 42.375 29.613 41.5724 30.3863M44.2744 24.99L36.0637 17.1188C35.8976 16.9611 35.5499 16.9598 35.3839 17.1188L29.4961 22.7745L23.6161 17.1264C23.4422 16.9585 23.1102 16.9598 22.9376 17.1264L14.7256 24.9976C13.6144 26.0634 13 27.484 13 28.9949C13 30.5058 13.6131 31.9252 14.7256 32.9897L22.9376 40.8622C23.1024 41.0211 23.437 41.0339 23.6161 40.8622L29.5039 35.2064L35.3839 40.8545C35.5826 41.0466 35.8597 41.0504 36.0623 40.8545L44.2744 32.9833C45.3856 31.9175 46 30.4969 46 28.986C46 27.4751 45.3869 26.0558 44.2744 24.9913" fill="white"/>
</svg>
