<svg width="130" height="60" viewBox="0 0 130 60" fill="none" xmlns="http://www.w3.org/2000/svg">
<rect width="130" height="60" fill="white"/>
<path d="M30.2078 29.9015C30.2078 34.9351 26.0765 39.0294 20.9982 39.0294C15.92 39.0294 11.7893 34.9351 11.7893 29.9015C11.7893 24.8679 15.9206 20.7736 20.9982 20.7736C26.0759 20.7736 30.2078 24.8679 30.2078 29.9015ZM31.9971 29.9015C31.9971 23.8903 27.0633 19 20.9982 19C14.9331 19 10 23.8903 10 29.9015C10 35.9127 14.9337 40.803 20.9982 40.803C27.0628 40.803 31.9965 35.9121 31.9965 29.9015" fill="#EF7C02"/>
<path d="M26.3506 30.4545L23.7641 32.9787L22.2089 31.455L22.8182 30.8585C23.819 29.7703 22.5384 28.8202 22.5384 28.8202C22.5303 28.8179 22.5246 28.8144 22.5188 28.811L20.3202 30.9674L20.186 31.1009L18.2603 32.9822L15.6755 30.4579C15.3194 30.1101 15.3188 29.5439 15.6744 29.1955L18.2603 26.6707L19.8155 28.1944L19.2055 28.7915C18.2048 29.8797 19.4865 30.8298 19.4865 30.8298C19.494 30.8321 19.4992 30.8356 19.5062 30.839L23.7646 26.6673L26.35 29.1915C26.7055 29.5388 26.7061 30.1061 26.3512 30.4545M27.5461 28.0231L23.9149 24.4765C23.8415 24.4055 23.6877 24.4049 23.6143 24.4765L21.0104 27.0248L18.41 24.48C18.3331 24.4043 18.1863 24.4049 18.11 24.48L14.4782 28.0265C13.9868 28.5067 13.7151 29.1468 13.7151 29.8276C13.7151 30.5083 13.9862 31.1479 14.4782 31.6275L18.11 35.1746C18.1828 35.2462 18.3308 35.252 18.41 35.1746L21.0139 32.6263L23.6143 35.1712C23.7022 35.2577 23.8248 35.2594 23.9144 35.1712L27.5461 31.6246C28.0375 31.1444 28.3093 30.5043 28.3093 29.8236C28.3093 29.1428 28.0381 28.5033 27.5461 28.0237" fill="#005941"/>
<path d="M101.555 34.644C99.2007 34.644 97.7369 32.8137 97.7369 29.8671C97.7369 26.9206 99.1648 25.1315 101.555 25.1315C103.946 25.1315 105.349 26.9016 105.349 29.8671C105.349 32.8326 103.896 34.644 101.555 34.644ZM101.555 22.5632C97.1345 22.5632 94.3872 25.3625 94.3872 29.8671C94.3872 34.3718 97.1345 37.1911 101.555 37.1911C105.976 37.1911 108.699 34.3844 108.699 29.8671C108.699 25.3499 105.962 22.5632 101.555 22.5632Z" fill="#005941"/>
<path d="M79.531 34.5689H71.631V31.0029H76.515C77.026 30.9381 77.6279 30.7295 77.6279 30.0986L77.6452 28.5165H71.6304V25.3831H77.91C78.5656 25.3332 78.9564 24.8261 79.1136 24.4886C79.3114 24.064 79.66 22.6995 79.66 22.699C79.66 22.699 69.6405 22.7024 69.6249 22.7024C68.8872 22.7024 68.2871 23.225 68.2871 23.8668V35.8915C68.2865 36.5339 68.8872 37.0559 69.6249 37.0559H78.3008C78.9922 37.0078 79.5328 36.5 79.5328 35.8972C79.5328 35.8783 79.531 34.5695 79.531 34.5695" fill="#005941"/>
<path d="M119.776 37.0645C120.46 37.0135 120.985 36.5276 121 35.9316V34.5833L113.941 34.5775V22.6881H110.592V37.0657L119.776 37.0645Z" fill="#005941"/>
<path d="M82.5933 36.5201C84.5381 37.0788 85.7695 37.1917 87.1252 37.1917C89.8239 37.1917 93.0406 36.4777 93.0406 33.0784C93.0406 30.9742 92.0057 29.9571 88.7821 28.8918L86.8257 28.254C85.5411 27.8351 84.6306 27.4707 84.6306 26.575C84.6306 25.6794 85.5955 25.1321 87.0315 25.1321C88.06 25.1321 88.9989 25.3436 89.8597 25.5716L90.3089 25.6926C90.9674 25.79 91.4709 25.508 91.7854 24.8634L92.3191 23.5694L90.698 23.0904C89.5123 22.7414 88.2785 22.5643 87.0315 22.5643C83.4159 22.5643 81.2566 24.064 81.2566 26.5756C81.2566 28.6494 82.2799 29.6517 85.4689 30.6998L87.4275 31.3582C88.4699 31.7106 89.6672 32.224 89.6672 33.079C89.6672 34.6451 87.7542 34.6451 87.1258 34.6451C86.021 34.6451 84.9549 34.491 83.6692 34.1437L83.0471 33.9781C82.9453 33.9586 82.8326 33.9472 82.7251 33.9472C82.0354 33.9472 81.6648 34.4285 81.4757 34.8337L80.9751 36.064L82.5938 36.5207L82.5933 36.5201Z" fill="#005941"/>
<path d="M61.8908 34.7557L62.407 35.864C62.862 36.7504 63.517 37.0438 64.2339 37.0438L66.5689 37.0393C66.5689 37.0393 64.886 33.6543 64.838 33.5472C64.3738 32.6612 63.5321 31.404 62.9019 31.1559C62.8337 31.1289 62.4718 30.9874 62.4718 30.9874C62.4718 30.9874 62.8597 30.8241 62.9401 30.788C64.1559 30.3124 65.5653 29.0087 65.5653 27.1217C65.5653 24.4152 63.502 22.7081 59.9037 22.7081C59.9037 22.7081 54.6619 22.7116 54.6318 22.7116C53.978 22.7116 53.3091 23.4307 53.3091 23.9831V37.045H56.6622V25.3705H59.9037C61.271 25.3705 62.1902 26.1739 62.1902 27.3698C62.1902 28.7147 61.249 29.3691 59.4147 29.3691C58.8307 29.3691 58.5509 29.4814 58.3341 29.7118C57.8722 30.2035 57.8265 31.1364 57.8757 31.8676C60.3928 31.9524 61.0993 33.0664 61.8908 34.7557Z" fill="#005941"/>
<path d="M49.7016 34.327C49.7016 34.327 48.1117 34.6502 47.0497 34.6502C44.5702 34.6502 43.0896 32.8801 43.0896 29.9146V29.8396C43.0896 26.8741 44.5702 25.104 47.0497 25.104C48.1117 25.104 49.7016 25.4272 49.7016 25.4272C50.2572 25.4936 50.8098 25.253 51.107 24.6375C51.2625 24.3149 51.5915 23.292 51.5915 23.292L50.4612 22.9597C49.3836 22.6554 48.4262 22.5362 47.0497 22.5362C42.5265 22.5362 39.7168 25.3338 39.7168 29.839V29.9141C39.7168 34.4193 42.5271 37.2169 47.0497 37.2169C48.4262 37.2169 49.383 37.0977 50.4612 36.7934L51.5915 36.461C51.5915 36.461 51.2631 35.4376 51.107 35.1155C50.8098 34.5001 50.2577 34.2594 49.7016 34.3259" fill="#005941"/>
</svg>
