<svg width="130" height="60" viewBox="0 0 130 60" fill="none" xmlns="http://www.w3.org/2000/svg">
<rect width="130" height="60" fill="white"/>
<path d="M51.327 40.9186V41.3754H49.7285V40.9186H51.327ZM50.1573 40.218H50.7269V42.9839C50.7269 43.0944 50.7434 43.1776 50.7764 43.2335C50.8093 43.2879 50.8519 43.3254 50.9041 43.3456C50.9573 43.3648 51.0151 43.3742 51.0775 43.3742C51.1232 43.3742 51.163 43.3711 51.1974 43.3648C51.2317 43.3583 51.2584 43.3533 51.2774 43.3494L51.3802 43.8197C51.3473 43.8325 51.3003 43.845 51.2394 43.8577C51.1785 43.8716 51.1021 43.8794 51.0107 43.8806C50.8609 43.8831 50.7211 43.8564 50.5915 43.8006C50.4621 43.7449 50.3572 43.6586 50.2773 43.5418C50.1972 43.4251 50.1573 43.2785 50.1573 43.1021V40.218ZM52.5896 42.1063V43.8425H52.02V39.9439H52.5819V41.3946H52.6182C52.6868 41.2371 52.7916 41.1121 52.9324 41.0195C53.0735 40.9269 53.2577 40.8804 53.4849 40.8804C53.6856 40.8804 53.8609 40.9217 54.0107 41.0043C54.1618 41.0866 54.2786 41.2098 54.3613 41.3735C54.4451 41.5359 54.4871 41.739 54.4871 41.9827V43.8425H53.9175V42.0513C53.9175 41.8368 53.8622 41.6704 53.7516 41.5524C53.6412 41.4331 53.4874 41.3735 53.2907 41.3735C53.1561 41.3735 53.0353 41.4021 52.9286 41.4592C52.8233 41.5163 52.74 41.6001 52.6791 41.7104C52.6194 41.8197 52.5896 41.9516 52.5896 42.1063ZM56.5083 43.9015C56.22 43.9015 55.9717 43.84 55.7634 43.7169C55.5564 43.5925 55.3964 43.418 55.2833 43.1934C55.1717 42.9674 55.1158 42.7028 55.1158 42.3995C55.1158 42.1001 55.1717 41.8361 55.2833 41.6076C55.3964 41.3793 55.5539 41.2009 55.7559 41.0729C55.9591 40.9446 56.1966 40.8804 56.4683 40.8804C56.6335 40.8804 56.7935 40.9077 56.9484 40.9624C57.1034 41.017 57.2424 41.1027 57.3657 41.2194C57.4888 41.3362 57.586 41.4878 57.6572 41.6744C57.7283 41.8595 57.7638 42.0849 57.7638 42.3501V42.5519H55.4377V42.1255H57.2056C57.2056 41.9756 57.1752 41.843 57.1142 41.7275C57.0531 41.6108 56.9676 41.5188 56.857 41.4515C56.7476 41.3843 56.6195 41.3508 56.4722 41.3508C56.3122 41.3508 56.1724 41.39 56.053 41.4688C55.9349 41.5461 55.8435 41.6477 55.7787 41.7734C55.7152 41.8976 55.6835 42.0328 55.6835 42.1787V42.5119C55.6835 42.7072 55.7177 42.8736 55.7864 43.0106C55.8561 43.1478 55.9533 43.2524 56.0779 43.3248C56.2022 43.3959 56.3477 43.4313 56.514 43.4313C56.622 43.4313 56.7205 43.4161 56.8094 43.3857C56.8983 43.354 56.9751 43.3071 57.0398 43.2447C57.1047 43.1826 57.1541 43.1059 57.1885 43.0145L57.7277 43.1115C57.6845 43.2701 57.6069 43.4092 57.4953 43.5285C57.3847 43.6465 57.2457 43.7384 57.0779 43.8045C56.9116 43.8691 56.7218 43.9015 56.5083 43.9015ZM59.8614 43.8425V39.9439H60.431V41.3925H60.4652C60.4982 41.3316 60.5458 41.2611 60.6082 41.1813C60.6703 41.1012 60.7567 41.0316 60.8671 40.9719C60.9777 40.9109 61.1237 40.8804 61.3053 40.8804C61.5417 40.8804 61.7524 40.94 61.9379 41.0595C62.1232 41.1788 62.2686 41.3508 62.3742 41.5753C62.4808 41.7999 62.5342 42.0703 62.5342 42.3861C62.5342 42.7022 62.4815 42.9733 62.3761 43.1991C62.2707 43.4238 62.1259 43.5969 61.9417 43.7188C61.7574 43.8393 61.5473 43.8996 61.3111 43.8996C61.1333 43.8996 60.9879 43.8698 60.8748 43.8101C60.763 43.7505 60.6754 43.6807 60.6119 43.6008C60.5485 43.5208 60.4995 43.4497 60.4652 43.3875H60.4177V43.8425H59.8614ZM60.4195 42.3805C60.4195 42.5861 60.4494 42.7664 60.5091 42.9211C60.5687 43.076 60.6551 43.1972 60.7682 43.2847C60.8811 43.3711 61.0196 43.4142 61.1834 43.4142C61.3537 43.4142 61.4958 43.3692 61.6101 43.2791C61.7245 43.1876 61.8108 43.064 61.8693 42.9078C61.9289 42.7518 61.9588 42.5759 61.9588 42.3805C61.9588 42.1877 61.9296 42.0144 61.8711 41.861C61.814 41.7073 61.7276 41.5862 61.612 41.4973C61.4979 41.4085 61.3549 41.3639 61.1834 41.3639C61.0184 41.3639 60.8786 41.4064 60.7642 41.4915C60.6514 41.5766 60.5656 41.6952 60.5072 41.8476C60.4488 41.9998 60.4195 42.1774 60.4195 42.3805ZM64.4349 43.9015C64.1467 43.9015 63.8984 43.84 63.69 43.7169C63.483 43.5925 63.323 43.418 63.2101 43.1934C63.0982 42.9674 63.0423 42.7028 63.0423 42.3995C63.0423 42.1001 63.0982 41.8361 63.2101 41.6076C63.323 41.3793 63.4805 41.2009 63.6825 41.0729C63.8857 40.9446 64.1231 40.8804 64.395 40.8804C64.5601 40.8804 64.7201 40.9077 64.8751 40.9624C65.03 41.017 65.1691 41.1027 65.2922 41.2194C65.4156 41.3362 65.5126 41.4878 65.5837 41.6744C65.6549 41.8595 65.6904 42.0849 65.6904 42.3501V42.5519H63.3643V42.1255H65.1322C65.1322 41.9756 65.1017 41.843 65.0408 41.7275C64.9799 41.6108 64.8941 41.5188 64.7835 41.4515C64.6744 41.3843 64.5461 41.3508 64.3988 41.3508C64.2387 41.3508 64.0989 41.39 63.9796 41.4688C63.8615 41.5461 63.7701 41.6477 63.7052 41.7734C63.6418 41.8976 63.6101 42.0328 63.6101 42.1787V42.5119C63.6101 42.7072 63.6443 42.8736 63.7129 43.0106C63.7828 43.1478 63.8799 43.2524 64.0044 43.3248C64.1288 43.3959 64.2742 43.4313 64.4407 43.4313C64.5486 43.4313 64.6471 43.4161 64.736 43.3857C64.8249 43.354 64.9016 43.3071 64.9665 43.2447C65.0312 43.1826 65.0809 43.1059 65.1151 43.0145L65.6543 43.1115C65.6111 43.2701 65.5337 43.4092 65.4218 43.5285C65.3112 43.6465 65.1723 43.7384 65.0045 43.8045C64.8382 43.8691 64.6483 43.9015 64.4349 43.9015ZM68.5151 41.6324L67.9989 41.7238C67.9774 41.6579 67.943 41.5949 67.896 41.5353C67.8503 41.4757 67.7882 41.4269 67.7093 41.3887C67.6306 41.3508 67.5321 41.3316 67.414 41.3316C67.2528 41.3316 67.1182 41.3679 67.0101 41.4402C66.9022 41.5113 66.8482 41.6033 66.8482 41.7163C66.8482 41.8138 66.8845 41.8926 66.9569 41.9523C67.0293 42.0119 67.1461 42.0607 67.3074 42.0988L67.7723 42.2054C68.0415 42.2675 68.2422 42.3634 68.3743 42.4929C68.5064 42.6224 68.5723 42.7904 68.5723 42.9972C68.5723 43.1724 68.5216 43.3285 68.42 43.4655C68.3196 43.6014 68.1792 43.708 67.9989 43.7853C67.8199 43.8629 67.6123 43.9015 67.3759 43.9015C67.0483 43.9015 66.781 43.8318 66.574 43.6921C66.3668 43.5512 66.2399 43.3515 66.1928 43.0925L66.7434 43.0087C66.7779 43.1521 66.8482 43.2606 66.955 43.3342C67.0616 43.4065 67.2006 43.4428 67.3721 43.4428C67.5589 43.4428 67.708 43.404 67.8199 43.3267C67.9315 43.248 67.9874 43.1521 67.9874 43.0391C67.9874 42.9478 67.9532 42.8711 67.8846 42.8088C67.8174 42.7466 67.7139 42.6997 67.5741 42.668L67.0787 42.5594C66.8056 42.4973 66.6038 42.3982 66.473 42.2625C66.3434 42.1268 66.2785 41.9548 66.2785 41.7467C66.2785 41.5741 66.327 41.4231 66.4234 41.2936C66.52 41.1642 66.6533 41.0633 66.8236 40.9909C66.9936 40.9173 67.1887 40.8804 67.4084 40.8804C67.7245 40.8804 67.9734 40.949 68.1552 41.086C68.3367 41.2219 68.4567 41.4039 68.5151 41.6324ZM70.5645 40.9186V41.3754H68.9662V40.9186H70.5645ZM69.3948 40.218H69.9644V42.9839C69.9644 43.0944 69.9811 43.1776 70.0141 43.2335C70.0471 43.2879 70.0896 43.3254 70.1418 43.3456C70.195 43.3648 70.2528 43.3742 70.315 43.3742C70.3609 43.3742 70.4007 43.3711 70.4351 43.3648C70.4694 43.3583 70.4961 43.3533 70.5151 43.3494L70.6179 43.8197C70.585 43.8325 70.538 43.845 70.4769 43.8577C70.416 43.8716 70.3398 43.8794 70.2484 43.8806C70.0986 43.8831 69.9588 43.8564 69.8292 43.8006C69.6996 43.7449 69.5949 43.6586 69.515 43.5418C69.4349 43.4251 69.3948 43.2785 69.3948 43.1021V40.218ZM74.8073 41.6324L74.2911 41.7238C74.2694 41.6579 74.2352 41.5949 74.188 41.5353C74.1423 41.4757 74.0801 41.4269 74.0015 41.3887C73.9226 41.3508 73.8243 41.3316 73.706 41.3316C73.5447 41.3316 73.4101 41.3679 73.3023 41.4402C73.1942 41.5113 73.1403 41.6033 73.1403 41.7163C73.1403 41.8138 73.1764 41.8926 73.2489 41.9523C73.3213 42.0119 73.4381 42.0607 73.5994 42.0988L74.0643 42.2054C74.3334 42.2675 74.5342 42.3634 74.6662 42.4929C74.7983 42.6224 74.8645 42.7904 74.8645 42.9972C74.8645 43.1724 74.8135 43.3285 74.7119 43.4655C74.6116 43.6014 74.4714 43.708 74.2911 43.7853C74.1118 43.8629 73.9042 43.9015 73.668 43.9015C73.3402 43.9015 73.073 43.8318 72.866 43.6921C72.659 43.5512 72.5319 43.3515 72.485 43.0925L73.0356 43.0087C73.0698 43.1521 73.1404 43.2606 73.247 43.3342C73.3536 43.4065 73.4928 43.4428 73.6643 43.4428C73.8508 43.4428 74.0002 43.404 74.1118 43.3267C74.2237 43.248 74.2796 43.1521 74.2796 43.0391C74.2796 42.9478 74.2452 42.8711 74.1767 42.8088C74.1093 42.7466 74.0059 42.6997 73.8661 42.668L73.3709 42.5594C73.0978 42.4973 72.8958 42.3982 72.765 42.2625C72.6354 42.1268 72.5707 41.9548 72.5707 41.7467C72.5707 41.5741 72.6189 41.4231 72.7155 41.2936C72.8119 41.1642 72.9453 41.0633 73.1155 40.9909C73.2858 40.9173 73.4807 40.8804 73.7004 40.8804C74.0167 40.8804 74.2656 40.949 74.4471 41.086C74.6289 41.2219 74.7489 41.4039 74.8073 41.6324ZM76.7519 43.9015C76.4636 43.9015 76.2153 43.84 76.0071 43.7169C75.8001 43.5925 75.64 43.418 75.5269 43.1934C75.4151 42.9674 75.3592 42.7028 75.3592 42.3995C75.3592 42.1001 75.4151 41.8361 75.5269 41.6076C75.64 41.3793 75.7974 41.2009 75.9993 41.0729C76.2026 40.9446 76.44 40.8804 76.7119 40.8804C76.8769 40.8804 77.037 40.9077 77.192 40.9624C77.3468 41.017 77.486 41.1027 77.6091 41.2194C77.7324 41.3362 77.8294 41.4878 77.9006 41.6744C77.9717 41.8595 78.0074 42.0849 78.0074 42.3501V42.5519H75.6811V42.1255H77.4491C77.4491 41.9756 77.4186 41.843 77.3577 41.7275C77.2967 41.6108 77.211 41.5188 77.1006 41.4515C76.9913 41.3843 76.8629 41.3508 76.7156 41.3508C76.5556 41.3508 76.416 41.39 76.2967 41.4688C76.1784 41.5461 76.087 41.6477 76.0223 41.7734C75.9586 41.8976 75.9269 42.0328 75.9269 42.1787V42.5119C75.9269 42.7072 75.9614 42.8736 76.0298 43.0106C76.0997 43.1478 76.1969 43.2524 76.3213 43.3248C76.4459 43.3959 76.5913 43.4313 76.7576 43.4313C76.8655 43.4313 76.9639 43.4161 77.0528 43.3857C77.1417 43.354 77.2187 43.3071 77.2834 43.2447C77.3483 43.1826 77.3977 43.1059 77.432 43.0145L77.9711 43.1115C77.9279 43.2701 77.8505 43.4092 77.7387 43.5285C77.6283 43.6465 77.4891 43.7384 77.3216 43.8045C77.1551 43.8691 76.9652 43.9015 76.7519 43.9015ZM78.6394 43.8425V40.9186H79.1899V41.3831H79.2203C79.2737 41.2257 79.3678 41.102 79.5024 41.0118C79.6383 40.9204 79.792 40.8748 79.9633 40.8748C79.999 40.8748 80.041 40.876 80.0892 40.8785C80.1386 40.881 80.1774 40.8844 80.2054 40.8881V41.4325C80.1824 41.4262 80.1417 41.4192 80.0833 41.4117C80.0249 41.4027 79.9665 41.3983 79.908 41.3983C79.7735 41.3983 79.6535 41.4269 79.5481 41.484C79.444 41.5399 79.3614 41.6179 79.3004 41.7181C79.2395 41.8172 79.2091 41.93 79.2091 42.0569V43.8425H78.6394ZM83.2907 40.9186L82.2295 43.8425H81.6198L80.5568 40.9186H81.1683L81.9095 43.1686H81.9399L82.6792 40.9186H83.2907ZM83.8259 43.8425V40.9186H84.3956V43.8425H83.8259ZM84.1137 40.4674C84.0146 40.4674 83.9294 40.4345 83.8583 40.3684C83.7886 40.3012 83.7535 40.2212 83.7535 40.1286C83.7535 40.0346 83.7886 39.9547 83.8583 39.8886C83.9294 39.8215 84.0146 39.7879 84.1137 39.7879C84.2128 39.7879 84.2971 39.8215 84.367 39.8886C84.4381 39.9547 84.4738 40.0346 84.4738 40.1286C84.4738 40.2212 84.4381 40.3012 84.367 40.3684C84.2971 40.4345 84.2128 40.4674 84.1137 40.4674ZM86.3945 43.9015C86.1113 43.9015 85.8674 43.8375 85.6629 43.7092C85.4597 43.5798 85.3036 43.4015 85.1943 43.1742C85.0852 42.9472 85.0305 42.687 85.0305 42.3939C85.0305 42.097 85.0864 41.8349 85.1981 41.6076C85.3099 41.3793 85.4674 41.2009 85.6707 41.0729C85.8739 40.9446 86.1132 40.8804 86.3889 40.8804C86.6111 40.8804 86.8093 40.9217 86.9833 41.0043C87.1571 41.0854 87.2975 41.1996 87.4042 41.3468C87.5122 41.494 87.5763 41.666 87.5967 41.8628H87.0424C87.0117 41.7256 86.942 41.6076 86.8327 41.5086C86.7248 41.4098 86.58 41.3602 86.3982 41.3602C86.2397 41.3602 86.1005 41.4021 85.9811 41.4859C85.863 41.5682 85.771 41.6864 85.7049 41.8399C85.6389 41.9923 85.6058 42.1724 85.6058 42.3805C85.6058 42.5938 85.6381 42.7777 85.703 42.9326C85.7677 43.0875 85.8593 43.2074 85.9774 43.2925C86.0967 43.3773 86.2369 43.4198 86.3982 43.4198C86.5063 43.4198 86.6042 43.4002 86.6918 43.3608C86.7807 43.3202 86.855 43.2626 86.9147 43.1876C86.9756 43.1127 87.0182 43.0227 87.0424 42.9174H87.5967C87.5763 43.1065 87.5147 43.2752 87.4119 43.4238C87.309 43.5723 87.1711 43.689 86.9985 43.7741C86.827 43.8589 86.6257 43.9015 86.3945 43.9015ZM89.4669 43.9015C89.1788 43.9015 88.9305 43.84 88.722 43.7169C88.515 43.5925 88.355 43.418 88.2419 43.1934C88.1303 42.9674 88.0744 42.7028 88.0744 42.3995C88.0744 42.1001 88.1303 41.8361 88.2419 41.6076C88.355 41.3793 88.5125 41.2009 88.7145 41.0729C88.9177 40.9446 89.1552 40.8804 89.4271 40.8804C89.5921 40.8804 89.7521 40.9077 89.907 40.9624C90.062 41.017 90.2012 41.1027 90.3243 41.2194C90.4474 41.3362 90.5446 41.4878 90.6158 41.6744C90.6869 41.8595 90.7224 42.0849 90.7224 42.3501V42.5519H88.3963V42.1255H90.1642C90.1642 41.9756 90.1338 41.843 90.0728 41.7275C90.0119 41.6108 89.9262 41.5188 89.8156 41.4515C89.7064 41.3843 89.5781 41.3508 89.4308 41.3508C89.2708 41.3508 89.131 41.39 89.0116 41.4688C88.8935 41.5461 88.8021 41.6477 88.7372 41.7734C88.6738 41.8976 88.6421 42.0328 88.6421 42.1787V42.5119C88.6421 42.7072 88.6763 42.8736 88.745 43.0106C88.8149 43.1478 88.9119 43.2524 89.0365 43.3248C89.1608 43.3959 89.3063 43.4313 89.4728 43.4313C89.5806 43.4313 89.6791 43.4161 89.768 43.3857C89.8569 43.354 89.9337 43.3071 89.9986 43.2447C90.0632 43.1826 90.1127 43.1059 90.1471 43.0145L90.6863 43.1115C90.6431 43.2701 90.5655 43.4092 90.4538 43.5285C90.3433 43.6465 90.2043 43.7384 90.0365 43.8045C89.8702 43.8691 89.6804 43.9015 89.4669 43.9015ZM94.1668 40.9186V41.3754H92.5133V40.9186H94.1668ZM92.9667 43.8425V40.5798C92.9667 40.3969 93.0067 40.2453 93.0866 40.1248C93.1668 40.0029 93.2728 39.9122 93.4048 39.8526C93.5369 39.7917 93.6805 39.7612 93.8353 39.7612C93.9496 39.7612 94.0475 39.7706 94.1287 39.7898C94.21 39.8075 94.2703 39.824 94.3098 39.8392L94.1764 40.3C94.1497 40.2923 94.1153 40.2833 94.0736 40.2733C94.0316 40.2618 93.9807 40.2562 93.9211 40.2562C93.7827 40.2562 93.6836 40.2904 93.6239 40.359C93.5655 40.4274 93.5363 40.5264 93.5363 40.6559V43.8425H92.9667ZM95.872 43.9015C95.5976 43.9015 95.3583 43.8387 95.1538 43.713C94.9493 43.5875 94.7905 43.4117 94.6774 43.1857C94.5643 42.9599 94.5078 42.696 94.5078 42.3939C94.5078 42.0905 94.5643 41.8253 94.6774 41.5983C94.7905 41.371 94.9493 41.1946 95.1538 41.0689C95.3583 40.9434 95.5976 40.8804 95.872 40.8804C96.1461 40.8804 96.3857 40.9434 96.5902 41.0689C96.7946 41.1946 96.9534 41.371 97.0663 41.5983C97.1794 41.8253 97.2359 42.0905 97.2359 42.3939C97.2359 42.696 97.1794 42.9599 97.0663 43.1857C96.9534 43.4117 96.7946 43.5875 96.5902 43.713C96.3857 43.8387 96.1461 43.9015 95.872 43.9015ZM95.8738 43.4238C96.0516 43.4238 96.1989 43.3767 96.3158 43.2829C96.4326 43.1888 96.519 43.064 96.5749 42.9078C96.6321 42.7518 96.6607 42.5798 96.6607 42.392C96.6607 42.2054 96.6321 42.034 96.5749 41.878C96.519 41.7206 96.4326 41.5943 96.3158 41.4992C96.1989 41.4039 96.0516 41.3564 95.8738 41.3564C95.6948 41.3564 95.5461 41.4039 95.428 41.4992C95.3111 41.5943 95.2241 41.7206 95.1669 41.878C95.1112 42.034 95.0833 42.2054 95.0833 42.392C95.0833 42.5798 95.1112 42.7518 95.1669 42.9078C95.2241 43.064 95.3111 43.1888 95.428 43.2829C95.5461 43.3767 95.6948 43.4238 95.8738 43.4238ZM97.8717 43.8425V40.9186H98.4224V41.3831H98.4528C98.5062 41.2257 98.6001 41.102 98.7347 41.0118C98.8707 40.9204 99.0243 40.8748 99.1958 40.8748C99.2313 40.8748 99.2732 40.876 99.3217 40.8785C99.3711 40.881 99.4099 40.8844 99.4379 40.8881V41.4325C99.4149 41.4262 99.3742 41.4192 99.3158 41.4117C99.2574 41.4027 99.199 41.3983 99.1405 41.3983C99.006 41.3983 98.886 41.4269 98.7806 41.484C98.6763 41.5399 98.5939 41.6179 98.5329 41.7181C98.4718 41.8172 98.4413 41.93 98.4413 42.0569V43.8425H97.8717ZM102.577 45C102.345 45 102.145 44.9694 101.977 44.9085C101.811 44.8476 101.675 44.7671 101.569 44.6668C101.464 44.5666 101.385 44.4567 101.333 44.3374L101.823 44.1356C101.857 44.1915 101.903 44.2505 101.96 44.3126C102.019 44.3762 102.097 44.4302 102.196 44.4746C102.297 44.519 102.426 44.5411 102.583 44.5411C102.799 44.5411 102.977 44.4886 103.118 44.3831C103.259 44.279 103.33 44.1129 103.33 43.8844V43.3096H103.294C103.259 43.3717 103.21 43.4409 103.145 43.517C103.082 43.5931 102.994 43.6592 102.882 43.7151C102.77 43.7707 102.625 43.7987 102.446 43.7987C102.215 43.7987 102.006 43.7449 101.821 43.6369C101.637 43.5278 101.491 43.3673 101.383 43.1553C101.276 42.9422 101.223 42.6801 101.223 42.369C101.223 42.0582 101.275 41.7917 101.381 41.5697C101.488 41.3474 101.634 41.1775 101.819 41.0595C102.005 40.94 102.215 40.8804 102.45 40.8804C102.631 40.8804 102.778 40.9109 102.89 40.9719C103.001 41.0316 103.088 41.1012 103.151 41.1813C103.214 41.2611 103.263 41.3316 103.298 41.3925H103.339V40.9186H103.898V43.9073C103.898 44.1585 103.839 44.3647 103.722 44.5259C103.606 44.6871 103.447 44.8063 103.248 44.8839C103.05 44.9612 102.826 45 102.577 45ZM102.572 43.3267C102.735 43.3267 102.874 43.2885 102.987 43.2124C103.101 43.135 103.188 43.0245 103.246 42.8811C103.306 42.7364 103.336 42.5634 103.336 42.3615C103.336 42.1647 103.306 41.9915 103.248 41.8418C103.189 41.6921 103.104 41.5753 102.991 41.4915C102.878 41.4064 102.738 41.3639 102.572 41.3639C102.4 41.3639 102.257 41.4085 102.143 41.4973C102.029 41.5849 101.942 41.7042 101.884 41.8551C101.827 42.0061 101.798 42.1749 101.798 42.3615C101.798 42.5531 101.827 42.7212 101.886 42.8659C101.944 43.0106 102.031 43.1236 102.145 43.2049C102.261 43.286 102.403 43.3267 102.572 43.3267ZM104.662 43.8425V40.9186H105.212V41.3831H105.243C105.296 41.2257 105.39 41.102 105.525 41.0118C105.66 40.9204 105.814 40.8748 105.986 40.8748C106.021 40.8748 106.063 40.876 106.111 40.8785C106.161 40.881 106.2 40.8844 106.227 40.8881V41.4325C106.205 41.4262 106.164 41.4192 106.106 41.4117C106.047 41.4027 105.989 41.3983 105.93 41.3983C105.796 41.3983 105.676 41.4269 105.57 41.484C105.466 41.5399 105.383 41.6179 105.323 41.7181C105.262 41.8172 105.231 41.93 105.231 42.0569V43.8425H104.662ZM107.848 43.9015C107.574 43.9015 107.335 43.8387 107.13 43.713C106.926 43.5875 106.767 43.4117 106.654 43.1857C106.541 42.9599 106.484 42.696 106.484 42.3939C106.484 42.0905 106.541 41.8253 106.654 41.5983C106.767 41.371 106.926 41.1946 107.13 41.0689C107.335 40.9434 107.574 40.8804 107.848 40.8804C108.123 40.8804 108.362 40.9434 108.566 41.0689C108.771 41.1946 108.93 41.371 109.043 41.5983C109.156 41.8253 109.212 42.0905 109.212 42.3939C109.212 42.696 109.156 42.9599 109.043 43.1857C108.93 43.4117 108.771 43.5875 108.566 43.713C108.362 43.8387 108.123 43.9015 107.848 43.9015ZM107.85 43.4238C108.028 43.4238 108.175 43.3767 108.292 43.2829C108.409 43.1888 108.495 43.064 108.551 42.9078C108.608 42.7518 108.637 42.5798 108.637 42.392C108.637 42.2054 108.608 42.034 108.551 41.878C108.495 41.7206 108.409 41.5943 108.292 41.4992C108.175 41.4039 108.028 41.3564 107.85 41.3564C107.671 41.3564 107.523 41.4039 107.404 41.4992C107.288 41.5943 107.201 41.7206 107.143 41.878C107.088 42.034 107.06 42.2054 107.06 42.392C107.06 42.5798 107.088 42.7518 107.143 42.9078C107.201 43.064 107.288 43.1888 107.404 43.2829C107.523 43.3767 107.671 43.4238 107.85 43.4238ZM110.393 43.8425L109.532 40.9186H110.121L110.695 43.0658H110.723L111.298 40.9186H111.887L112.459 43.0562H112.487L113.057 40.9186H113.646L112.786 43.8425H112.205L111.611 41.7315H111.567L110.973 43.8425H110.393ZM115.552 40.9186V41.3754H113.954V40.9186H115.552ZM114.382 40.218H114.952V42.9839C114.952 43.0944 114.968 43.1776 115.001 43.2335C115.035 43.2879 115.077 43.3254 115.129 43.3456C115.182 43.3648 115.24 43.3742 115.302 43.3742C115.348 43.3742 115.388 43.3711 115.422 43.3648C115.457 43.3583 115.483 43.3533 115.503 43.3494L115.605 43.8197C115.572 43.8325 115.525 43.845 115.464 43.8577C115.403 43.8716 115.327 43.8794 115.236 43.8806C115.086 43.8831 114.946 43.8564 114.817 43.8006C114.687 43.7449 114.582 43.6586 114.502 43.5418C114.422 43.4251 114.382 43.2785 114.382 43.1021V40.218ZM116.815 42.1063V43.8425H116.245V39.9439H116.807V41.3946H116.843C116.912 41.2371 117.017 41.1121 117.158 41.0195C117.298 40.9269 117.483 40.8804 117.71 40.8804C117.911 40.8804 118.086 40.9217 118.236 41.0043C118.387 41.0866 118.504 41.2098 118.586 41.3735C118.67 41.5359 118.712 41.739 118.712 41.9827V43.8425H118.142V42.0513C118.142 41.8368 118.087 41.6704 117.977 41.5524C117.866 41.4331 117.713 41.3735 117.516 41.3735C117.381 41.3735 117.26 41.4021 117.154 41.4592C117.048 41.5163 116.965 41.6001 116.904 41.7104C116.844 41.8197 116.815 41.9516 116.815 42.1063Z" fill="#7664FA"/>
<path d="M48.0352 29.2408C48.0352 25.7382 50.6642 23.0903 54.1696 23.0903C56.0892 23.0903 57.6541 23.8826 58.6765 25.1336C58.8226 25.3212 58.8226 25.488 58.6765 25.6339L57.5915 26.6764C57.4037 26.864 57.1533 26.8223 57.0073 26.6555C56.3187 25.9675 55.5258 25.5088 54.2948 25.5088C52.083 25.5088 50.539 27.0934 50.539 29.2617C50.539 31.43 52.083 33.0562 54.3365 33.0562C55.5467 33.0562 56.3396 32.5976 57.0073 31.9095C57.1742 31.7427 57.4246 31.701 57.6124 31.8887L58.6974 32.9312C58.8434 33.0771 58.8434 33.2439 58.6974 33.4315C57.6958 34.6825 56.1309 35.4748 54.2322 35.4748C50.6642 35.4331 48.0352 32.7644 48.0352 29.2408Z" fill="#7664FA"/>
<path d="M59.8242 29.199C59.8242 25.738 62.2237 23.0693 65.8126 23.0693C69.3388 23.0693 71.3837 25.738 71.3837 28.6778C71.3837 29.7202 71.175 30.2206 70.2778 30.2206H62.3489C62.6619 32.097 64.0599 33.348 66.3968 33.348C67.5444 33.348 68.4834 33.0561 69.4223 32.4306C69.5684 32.3264 69.7144 32.3681 69.7979 32.4932L70.4656 33.4105C70.6116 33.5982 70.5699 33.7441 70.3613 33.9318C69.318 34.9325 67.8157 35.4121 66.1464 35.4121C62.3281 35.4329 59.8242 32.7225 59.8242 29.199ZM69.0885 28.3442C68.9424 26.4261 67.6696 25.2585 65.8126 25.2585C63.9556 25.2585 62.5993 26.3844 62.3281 28.3442H69.0885Z" fill="#7664FA"/>
<path d="M73.0527 34.7867V18.3159C73.0527 18.1074 73.1779 17.9614 73.3866 17.9614H75.3062C75.5149 17.9614 75.64 18.1074 75.64 18.3159V34.7659C75.64 34.9744 75.5149 35.1203 75.3062 35.1203H73.3866C73.1779 35.1412 73.0527 34.9952 73.0527 34.7867Z" fill="#7664FA"/>
<path d="M77.3086 29.2408C77.3086 25.7382 79.9376 23.0903 83.443 23.0903C85.3626 23.0903 86.9276 23.8826 87.95 25.1336C88.096 25.3212 88.096 25.488 87.95 25.6339L86.865 26.6764C86.6772 26.864 86.4268 26.8223 86.2807 26.6555C85.5922 25.9675 84.7993 25.5088 83.5682 25.5088C81.3565 25.5088 79.8124 27.0934 79.8124 29.2617C79.8124 31.43 81.3565 33.0562 83.61 33.0562C84.8201 33.0562 85.613 32.5976 86.2807 31.9095C86.4476 31.7427 86.698 31.701 86.8858 31.8887L87.9708 32.9312C88.1169 33.0771 88.1169 33.2439 87.9708 33.4315C86.9693 34.6825 85.4044 35.4748 83.5056 35.4748C79.9585 35.4331 77.3086 32.7644 77.3086 29.2408Z" fill="#7664FA"/>
<path d="M88.6387 29.2617C88.6387 25.7799 91.226 23.0903 94.7522 23.0903C98.2368 23.0903 100.845 25.7799 100.845 29.2617C100.845 32.7435 98.2576 35.4331 94.7522 35.4331C91.226 35.4331 88.6387 32.7435 88.6387 29.2617ZM94.7522 33.0354C96.7762 33.0354 98.3411 31.5134 98.3411 29.2617C98.3411 27.01 96.7762 25.488 94.7522 25.488C92.7074 25.488 91.1425 27.01 91.1425 29.2617C91.1425 31.5134 92.7074 33.0354 94.7522 33.0354Z" fill="#7664FA"/>
<path d="M102.307 19.3375C102.307 18.5244 102.953 17.8572 103.83 17.8572C104.664 17.8572 105.311 18.5244 105.311 19.3375C105.311 20.1714 104.664 20.8595 103.83 20.8595C102.953 20.8386 102.307 20.1714 102.307 19.3375ZM102.494 23.7366C102.494 23.5282 102.62 23.3822 102.828 23.3822H104.769C104.977 23.3822 105.103 23.5282 105.103 23.7366V34.7867C105.103 34.9952 104.977 35.1412 104.769 35.1412H102.828C102.62 35.1412 102.494 34.9952 102.494 34.7867V23.7366Z" fill="#7664FA"/>
<path d="M107.855 34.7867V23.7367C107.855 23.5282 107.981 23.3822 108.189 23.3822H110.025C110.234 23.3822 110.359 23.4865 110.359 23.7575L110.464 25.1961C111.131 23.9868 112.321 23.0903 114.157 23.0903C116.661 23.0903 118.434 24.8208 118.434 27.9273V34.8076C118.434 35.0161 118.288 35.162 118.08 35.162H116.181C115.972 35.162 115.847 35.0161 115.847 34.8076V28.386C115.847 26.5304 114.929 25.488 113.28 25.488C111.611 25.488 110.464 26.5513 110.464 28.386V34.7867C110.464 34.9952 110.338 35.1412 110.13 35.1412H108.21C107.981 35.1412 107.855 34.9952 107.855 34.7867Z" fill="#7664FA"/>
<path d="M42.4844 29.3033C42.4844 23.1111 38.7495 17.6278 33.0741 15.3135C32.8863 14.5629 32.1977 14 31.384 14C30.4242 14 29.6313 14.7923 29.6313 15.7513C29.6313 16.7104 30.4242 17.5027 31.384 17.5027C31.6552 17.5027 31.9056 17.4401 32.1351 17.315C37.0385 19.2748 40.2726 23.9868 40.2726 29.3033C40.2726 36.0793 34.9937 41.6252 28.3168 42.1881V39.6445C31.6761 39.2692 34.639 37.2885 36.2873 34.328C37.1637 34.2446 37.8523 33.494 37.8523 32.5975C37.8523 31.6384 37.0594 30.8461 36.0996 30.8461C35.1397 30.8461 34.3469 31.6384 34.3469 32.5975C34.3469 32.7643 34.3886 32.9311 34.4303 33.077C33.0323 35.7874 30.2572 37.497 27.1692 37.497C22.6414 37.497 18.969 33.8276 18.969 29.3033C18.969 24.779 22.6414 21.1096 27.1692 21.1096C30.2781 21.1096 33.0532 22.8609 34.4512 25.5922C34.3886 25.7798 34.3469 25.9674 34.3469 26.1551C34.3469 27.1141 35.1397 27.9064 36.0996 27.9064C37.0594 27.9064 37.8523 27.1141 37.8523 26.1551C37.8523 25.2794 37.2054 24.5497 36.3708 24.4246C34.7642 21.3806 31.7387 19.3374 28.3376 18.9621V15.376V15.3552C28.3376 15.3343 28.3585 15.3135 28.3585 15.2718C28.3585 14.6672 27.8577 14.1668 27.2526 14.1668C18.8439 14.1668 12 20.9636 12 29.3033C12 35.4747 15.7349 40.958 21.4103 43.2931C21.5981 44.0437 22.2867 44.6066 23.1004 44.6066C24.0602 44.6066 24.8531 43.8143 24.8531 42.8553C24.8531 41.8962 24.0602 41.104 23.1004 41.104C22.8292 41.104 22.5788 41.1665 22.3492 41.2916C17.4459 39.3318 14.2117 34.6199 14.2117 29.3033C14.2117 22.5482 19.4698 16.9814 26.1468 16.4185V18.9413C20.8887 19.4625 16.7782 23.9034 16.7782 29.3033C16.7782 34.7032 20.8887 39.1233 26.1468 39.6654V43.3765C26.1468 43.9811 26.6475 44.4815 27.2526 44.4815C27.3152 44.4815 27.3569 44.4607 27.3987 44.4607C35.724 44.3773 42.4844 37.6221 42.4844 29.3033Z" fill="#7664FA"/>
</svg>
