<svg width="60" height="60" viewBox="0 0 60 60" fill="none" xmlns="http://www.w3.org/2000/svg">
<rect width="60" height="60" fill="#7664FA"/>
<path d="M50 30C50 21.9074 45.0992 14.7411 37.6523 11.7166C37.4059 10.7357 36.5024 10 35.4346 10C34.1752 10 33.1348 11.0354 33.1348 12.2888C33.1348 13.5422 34.1752 14.5777 35.4346 14.5777C35.7906 14.5777 36.1191 14.4959 36.4203 14.3324C42.8542 16.8937 47.0979 23.0518 47.0979 30C47.0979 38.8556 40.1711 46.1035 31.41 46.8392V43.515C35.8179 43.0245 39.7057 40.436 41.8686 36.5668C43.0185 36.4578 43.922 35.4768 43.922 34.3052C43.922 33.0518 42.8816 32.0163 41.6222 32.0163C40.3628 32.0163 39.3224 33.0518 39.3224 34.3052C39.3224 34.5232 39.3771 34.7411 39.4319 34.9319C37.5975 38.4741 33.9562 40.7084 29.9042 40.7084C23.963 40.7084 19.1444 35.9128 19.1444 30C19.1444 24.0872 23.963 19.2916 29.9042 19.2916C33.9836 19.2916 37.6249 21.5804 39.4593 25.1499C39.3771 25.3951 39.3224 25.6403 39.3224 25.8856C39.3224 27.139 40.3628 28.1744 41.6222 28.1744C42.8816 28.1744 43.922 27.139 43.922 25.8856C43.922 24.7411 43.0732 23.7875 41.9781 23.624C39.8699 19.6458 35.9001 16.9755 31.4374 16.485V11.7984V11.7711C31.4374 11.7439 31.4647 11.7166 31.4647 11.6621C31.4647 10.8719 30.8077 10.218 30.0137 10.218C18.9801 10.218 10 19.1008 10 30C10 38.0654 14.9008 45.2316 22.3477 48.2834C22.5941 49.2643 23.4976 50 24.5654 50C25.8248 50 26.8652 48.9646 26.8652 47.7112C26.8652 46.4578 25.8248 45.4223 24.5654 45.4223C24.2094 45.4223 23.8809 45.5041 23.5797 45.6676C17.1458 43.1063 12.9021 36.9482 12.9021 30C12.9021 21.1717 19.8015 13.8965 28.5626 13.1608V16.4578C21.6632 17.139 16.2697 22.9428 16.2697 30C16.2697 37.0572 21.6632 42.8338 28.5626 43.5422V48.3924C28.5626 49.1826 29.2197 49.8365 30.0137 49.8365C30.0958 49.8365 30.1506 49.8093 30.2053 49.8093C41.1294 49.7003 50 40.8719 50 30Z" fill="white"/>
</svg>
