<svg width="60" height="60" viewBox="0 0 60 60" fill="none" xmlns="http://www.w3.org/2000/svg">
<rect width="60" height="60" fill="#24575B"/>
<path d="M24.2179 34.9471L29.141 19.2883C29.2851 18.8312 29.653 18.4788 30.117 18.3503L45.9196 14.0185C46.3005 13.9139 46.6461 14.27 46.526 14.6444L41.6991 29.7122C41.5585 30.1508 41.2129 30.4923 40.771 30.63L24.8409 35.5675C24.4582 35.6868 24.0977 35.3289 24.2179 34.9489V34.9471ZM31.7901 21.3404L28.8673 30.6391C28.8082 30.83 28.9875 31.008 29.1779 30.9475L38.7541 27.9794C38.8909 27.9373 38.9981 27.8307 39.0425 27.6949L41.9062 18.7542C41.9653 18.5669 41.7934 18.3889 41.603 18.4421L32.0915 21.0486C31.9472 21.0889 31.8326 21.1972 31.7883 21.3404H31.7901Z" fill="white"/>
<path d="M38.2332 34.1705C37.3847 39.822 32.1584 44.0731 26.0984 43.3977C21.3972 42.8745 16.9825 38.5041 16.4427 33.8383C15.7513 27.8636 19.9571 22.704 25.5808 21.7918C25.6584 21.7789 25.7232 21.7239 25.7471 21.6486L26.7066 18.598C26.751 18.4585 26.6401 18.3171 26.4941 18.3245C18.5539 18.7962 12.3312 25.6978 13.0577 33.8456C13.6697 40.7068 19.0512 46.0903 25.9579 46.7456C33.6429 47.4743 40.252 42.1495 41.5091 35.0204C41.6108 34.4458 41.6755 33.8603 41.7032 33.2656C41.7106 33.1205 41.5682 33.0141 41.4277 33.0563L38.3756 34.0017C38.298 34.0255 38.2424 34.0916 38.2313 34.1705H38.2332Z" fill="white"/>
</svg>
