<svg width="130" height="60" viewBox="0 0 130 60" fill="none" xmlns="http://www.w3.org/2000/svg">
<rect width="130" height="60" fill="white"/>
<g clip-path="url(#clip0_308_116)">
<mask id="mask0_308_116" style="mask-type:luminance" maskUnits="userSpaceOnUse" x="7" y="20" width="115" height="20">
<path d="M121.6 20H7.6001V40H121.6V20Z" fill="white"/>
</mask>
<g mask="url(#mask0_308_116)">
<path d="M14.4377 32.7121L17.4384 23.1677C17.5263 22.8891 17.7505 22.6743 18.0334 22.596L27.6654 19.9556C27.8976 19.8919 28.1082 20.1089 28.035 20.3371L25.0929 29.5213C25.0072 29.7886 24.7965 29.9968 24.5272 30.0807L14.8174 33.0902C14.5842 33.1629 14.3644 32.9448 14.4377 32.7132V32.7121ZM19.0532 24.4185L17.2716 30.0863C17.2356 30.2026 17.3449 30.3111 17.4609 30.2742L23.2979 28.4651C23.3812 28.4394 23.4466 28.3745 23.4736 28.2917L25.2191 22.8421C25.2552 22.728 25.1504 22.6195 25.0343 22.6519L19.2368 24.2406C19.1489 24.2652 19.079 24.3312 19.052 24.4185H19.0532Z" fill="#24575B"/>
<path d="M22.9803 32.2388C22.4631 35.6835 19.2776 38.2746 15.5839 37.8629C12.7184 37.5441 10.0275 34.8802 9.6985 32.0363C9.27707 28.3946 11.8406 25.2497 15.2684 24.6936C15.3157 24.6858 15.3552 24.6522 15.3698 24.6064L15.9546 22.7469C15.9817 22.6619 15.914 22.5758 15.8251 22.5802C10.9853 22.8678 7.19245 27.0744 7.63529 32.0407C8.00827 36.2228 11.2884 39.5041 15.4982 39.9036C20.1824 40.3477 24.2108 37.1021 24.977 32.7568C25.039 32.4066 25.0785 32.0497 25.0954 31.6872C25.0999 31.5988 25.0131 31.5339 24.9275 31.5596L23.0671 32.1359C23.0198 32.1504 22.986 32.1906 22.9792 32.2388H22.9803Z" fill="#24575B"/>
<path d="M97.4978 26.1037C97.4059 26.1037 97.3325 26.1763 97.3318 26.2668L97.3126 28.0812C97.2264 27.9349 97.1352 27.7941 97.0347 27.6611C96.5566 27.0288 95.9774 26.5685 95.2941 26.278C94.6108 25.9875 93.8733 25.8423 93.081 25.8423C92.0529 25.8423 91.1316 26.0892 90.3165 26.583C89.5007 27.0768 88.8659 27.7527 88.4113 28.6097C87.956 29.4666 87.728 30.4263 87.728 31.4854C87.728 32.5445 87.9546 33.5266 88.4113 34.3835C88.8659 35.2405 89.5007 35.9164 90.3165 36.4102C91.1316 36.904 92.0522 37.1509 93.081 37.1509C93.8733 37.1509 94.6108 37.0012 95.2941 36.704C95.9774 36.4068 96.5566 35.9454 97.0347 35.3209C97.0618 35.2851 97.0874 35.2494 97.1138 35.2125C97.1936 35.0985 97.3724 35.132 97.4081 35.2661L97.8128 36.7677C97.832 36.8392 97.8982 36.8895 97.9731 36.8895H98.5523C98.6435 36.8895 98.7183 36.8157 98.7183 36.7252V26.2679C98.7183 26.1774 98.6435 26.1037 98.5523 26.1037H97.4964H97.4978ZM96.6934 33.8607C96.3265 34.5287 95.8341 35.0371 95.2178 35.3857C94.6008 35.7342 93.9467 35.9085 93.257 35.9085C92.5666 35.9085 91.9168 35.7342 91.3076 35.3857C90.6977 35.0371 90.2104 34.5287 89.8427 33.8607C89.4758 33.1925 89.292 32.4005 89.292 31.4854C89.292 30.5704 89.4751 29.7783 89.8427 29.1102C90.2104 28.4421 90.6977 27.9371 91.3076 27.5963C91.9168 27.2556 92.5666 27.0846 93.257 27.0846C93.9467 27.0846 94.6008 27.2556 95.2178 27.5963C95.8341 27.9382 96.3251 28.4432 96.6934 29.1102C97.0604 29.7783 97.2449 30.5704 97.2449 31.4854C97.2449 32.4005 97.0604 33.1925 96.6934 33.8607Z" fill="#24575B"/>
<path d="M34.6298 36.3877C33.7117 35.8793 33.007 35.1934 32.5158 34.3286C32.0233 33.4651 31.7783 32.4953 31.7783 31.4194C31.7783 30.3435 32.0245 29.3927 32.5158 28.5213C33.007 27.6498 33.7128 26.9594 34.6298 26.4511C35.5469 25.9427 36.6231 25.688 37.8564 25.688C39.0896 25.688 40.1647 25.9427 41.0829 26.4511C41.9998 26.9594 42.7056 27.6498 43.1969 28.5213C43.6882 29.3927 43.9344 30.3591 43.9344 31.4194C43.9344 32.4796 43.6882 33.4639 43.1969 34.3286C42.7045 35.1934 41.9998 35.8793 41.0829 36.3877C40.1647 36.8961 39.0896 37.1508 37.8564 37.1508C36.6231 37.1508 35.5469 36.8961 34.6298 36.3877ZM39.3877 34.4593C39.8643 34.1913 40.2471 33.7946 40.5329 33.2718C40.8197 32.7489 40.962 32.1311 40.962 31.4194C40.962 30.7077 40.8186 30.0943 40.5329 29.5782C40.246 29.0631 39.8643 28.671 39.3877 28.4018C38.91 28.1336 38.3995 27.9984 37.8574 27.9984C37.3154 27.9984 36.7812 28.1325 36.3046 28.4018C35.827 28.671 35.4452 29.0631 35.1595 29.5782C34.8726 30.0943 34.7304 30.7077 34.7304 31.4194C34.7304 32.1311 34.8738 32.7489 35.1595 33.2718C35.4463 33.7946 35.827 34.1901 36.3046 34.4593C36.7812 34.7286 37.2996 34.8627 37.8574 34.8627C38.4153 34.8627 38.9112 34.7286 39.3877 34.4593Z" fill="#24575B"/>
<path d="M53.9698 25.9507C53.8783 25.9507 53.8038 26.0244 53.8038 26.1149V31.4631C53.8038 32.1603 53.6784 32.7636 53.4288 33.2719C53.1793 33.7803 52.8416 34.1623 52.4158 34.4159C51.9901 34.6707 51.527 34.7969 51.0279 34.7969C50.3232 34.7969 49.8014 34.5646 49.4638 34.0998C49.1261 33.635 48.9567 32.8719 48.9567 31.8117V26.1149C48.9567 26.0244 48.8822 25.9507 48.7907 25.9507H46.2373C46.1458 25.9507 46.0713 26.0244 46.0713 26.1149V32.5088C46.0713 34.0338 46.4124 35.1891 47.0956 35.9733C47.7788 36.7576 48.7659 37.1498 50.0578 37.1498C51.1589 37.1498 52.0838 36.8817 52.8326 36.3432C53.1759 36.0963 53.4831 35.7823 53.7552 35.4036C53.8298 35.2997 53.9902 35.3153 54.0421 35.4326L54.391 36.7655C54.4102 36.8381 54.4757 36.8883 54.5514 36.8883H56.5221C56.6136 36.8883 56.6881 36.8146 56.6881 36.7241V26.1149C56.6881 26.0244 56.6136 25.9507 56.5221 25.9507H53.9686H53.9698Z" fill="#24575B"/>
<path d="M66.3801 25.8424C66.2186 25.8133 66.0131 25.7988 65.7635 25.7988C64.7211 25.7988 63.8696 26.1552 63.209 26.8669C62.9413 27.1551 62.7086 27.5249 62.5099 27.9741C62.4478 28.1159 62.2377 28.0992 62.1982 27.9495L61.6934 26.0737C61.6742 26.0022 61.6075 25.9519 61.533 25.9519H59.9169C59.8255 25.9519 59.751 26.0256 59.751 26.1161V36.7254C59.751 36.8159 59.8255 36.8896 59.9169 36.8896H62.4704C62.5619 36.8896 62.6364 36.8159 62.6364 36.7254V32.8586C62.6364 31.8419 62.7719 30.9917 63.0441 30.3091C63.3151 29.6264 63.69 29.1249 64.1678 28.8053C64.6443 28.4858 65.1774 28.326 65.7646 28.326C66.0492 28.326 66.3349 28.3595 66.6195 28.4254C66.7234 28.45 66.8217 28.3707 66.8217 28.2646V26.0837C66.8217 26.0133 66.7754 25.9519 66.7088 25.9273C66.6071 25.8916 66.4987 25.8625 66.3812 25.8413L66.3801 25.8424Z" fill="#24575B"/>
<path d="M85.4847 28.6196C85.0215 27.756 84.3832 27.0767 83.5681 26.5818C82.7529 26.088 81.8388 25.8411 80.8263 25.8411C79.593 25.8411 78.5312 26.1684 77.6436 26.822C77.3974 27.003 77.1761 27.2119 76.9784 27.4476C76.8791 27.5661 76.6859 27.4957 76.6859 27.3426V23.0134C76.6859 22.9229 76.6114 22.8491 76.5199 22.8491H75.3545C75.263 22.8491 75.1885 22.9229 75.1885 23.0134V36.724C75.1885 36.8145 75.263 36.8882 75.3545 36.8882H75.9124C75.988 36.8882 76.0535 36.838 76.0728 36.7665L76.477 35.2649C76.5132 35.1309 76.6916 35.0974 76.7718 35.2113C76.7977 35.2481 76.8237 35.2839 76.8508 35.3196C77.3274 35.9442 77.9113 36.4056 78.6024 36.7028C79.2923 37 80.0348 37.1496 80.8271 37.1496C81.8402 37.1496 82.7537 36.9028 83.5695 36.4089C84.3846 35.9151 85.023 35.2404 85.4854 34.3823C85.9485 33.5254 86.1794 32.559 86.1794 31.4842C86.1794 30.4094 85.9478 29.4832 85.4854 28.6185L85.4847 28.6196ZM84.0426 33.8594C83.6756 34.5276 83.1911 35.0359 82.5891 35.3844C81.987 35.733 81.3408 35.9073 80.6511 35.9073C79.9607 35.9073 79.2888 35.733 78.6804 35.3844C78.0705 35.0359 77.5793 34.5276 77.2043 33.8594C76.8294 33.1914 76.643 32.3925 76.643 31.463C76.643 30.5334 76.8305 29.738 77.2043 29.0766C77.5793 28.4163 78.0705 27.918 78.6804 27.5839C79.2888 27.2499 79.9464 27.0823 80.6511 27.0823C81.3557 27.0823 81.987 27.2532 82.5891 27.594C83.1911 27.9359 83.6756 28.4409 84.0426 29.1079C84.4095 29.7759 84.5933 30.5681 84.5933 31.4831C84.5933 32.3981 84.4095 33.1902 84.0426 33.8583V33.8594Z" fill="#24575B"/>
<path d="M109.758 26.953C109.09 26.2122 108.103 25.8413 106.796 25.8413C105.681 25.8413 104.736 26.1139 103.966 26.658C103.527 26.9686 103.161 27.3697 102.867 27.859C102.791 27.9852 102.6 27.963 102.563 27.82L102.132 26.2245C102.113 26.153 102.046 26.1027 101.972 26.1027H101.346C101.255 26.1027 101.18 26.1765 101.18 26.267V36.7242C101.18 36.8147 101.255 36.8885 101.346 36.8885H102.511C102.603 36.8885 102.677 36.8147 102.677 36.7242V31.2666C102.677 30.4242 102.846 29.6835 103.183 29.0444C103.521 28.4054 103.973 27.9182 104.538 27.5842C105.102 27.2502 105.73 27.0826 106.422 27.0826C107.405 27.0826 108.121 27.3663 108.568 27.9327C109.015 28.4992 109.24 29.422 109.24 30.7002V36.7242C109.24 36.8147 109.314 36.8885 109.406 36.8885H110.593C110.684 36.8885 110.759 36.8147 110.759 36.7242V30.308C110.759 28.812 110.424 27.6937 109.757 26.953H109.758Z" fill="#24575B"/>
<path d="M121.433 36.8894C121.575 36.8894 121.651 36.7263 121.561 36.6202L117.125 31.3659C117.072 31.3033 117.074 31.2106 117.13 31.1502L121.514 26.3796C121.611 26.2735 121.535 26.1048 121.391 26.1048H120.078C120.031 26.1048 119.987 26.1249 119.955 26.1595L115.806 30.7134C115.775 30.748 115.729 30.7681 115.683 30.7681H114.885C114.793 30.7681 114.719 30.6944 114.719 30.6039V23.2145C114.719 23.124 114.644 23.0503 114.553 23.0503H113.387C113.296 23.0503 113.221 23.124 113.221 23.2145V36.7252C113.221 36.8157 113.296 36.8894 113.387 36.8894H114.553C114.644 36.8894 114.719 36.8157 114.719 36.7252V32.1736C114.719 32.0831 114.793 32.0094 114.885 32.0094H115.696C115.745 32.0094 115.791 32.0306 115.823 32.0686L119.822 36.8302C119.854 36.8682 119.9 36.8894 119.949 36.8894H121.433Z" fill="#24575B"/>
<path d="M72.1834 25.9507H69.8242C69.7326 25.9507 69.6582 26.0242 69.6582 26.1149V36.7253C69.6582 36.816 69.7326 36.8895 69.8242 36.8895H72.1834C72.2751 36.8895 72.3494 36.816 72.3494 36.7253V26.1149C72.3494 26.0242 72.2751 25.9507 72.1834 25.9507Z" fill="#24575B"/>
<path d="M72.1834 22.8491H69.8242C69.7326 22.8491 69.6582 22.9226 69.6582 23.0134V24.8903C69.6582 24.981 69.7326 25.0545 69.8242 25.0545H72.1834C72.2751 25.0545 72.3494 24.981 72.3494 24.8903V23.0134C72.3494 22.9226 72.2751 22.8491 72.1834 22.8491Z" fill="#24575B"/>
</g>
</g>
<defs>
<clipPath id="clip0_308_116">
<rect width="114" height="20" fill="white" transform="translate(7.6001 20)"/>
</clipPath>
</defs>
</svg>
