<svg width="60" height="60" viewBox="0 0 60 60" fill="none" xmlns="http://www.w3.org/2000/svg">
<rect width="60" height="60" fill="white"/>
<path d="M37.7512 11.7088C35.2606 10.5711 32.4956 9.93237 29.5796 9.93237C18.6981 9.93237 9.87939 18.7618 9.87939 29.6515C9.87939 35.8712 12.7587 41.4157 17.2527 45.0303C19.3773 41.2325 30.8169 20.7809 32.8386 17.061C34.3229 14.3322 36.0313 12.6886 37.7489 11.7111L37.7512 11.7088Z" fill="#14625D"/>
<path d="M39.7382 21.7171C40.3465 20.6297 31.5164 36.4412 30.135 38.9845C26.4163 45.8292 21.2774 45.8383 18.126 45.6896C21.3552 48.004 25.3071 49.3706 29.5816 49.3706C35.1276 49.3706 40.1338 47.0745 43.7153 43.3821C43.5483 42.4732 41.4283 30.8625 39.7405 21.7171H39.7382Z" fill="#14625D"/>
<path d="M49.6713 29.8803C49.5364 29.1912 49.3076 27.9848 49.0172 26.4304C48.9646 26.1512 48.9097 25.8605 48.8548 25.5606C48.1069 21.5453 47.0321 15.7079 46.0601 10.4106C46.0555 10.4175 44.0772 13.9543 41.5044 18.5602C40.9395 19.572 40.3471 20.6319 39.7388 21.7193C41.4266 30.8646 43.549 42.4754 43.7136 43.3842C43.7205 43.4209 43.725 43.4437 43.725 43.4437C45.9846 41.6605 51.3797 38.6135 49.6713 29.8826V29.8803Z" fill="#BBBDBF"/>
<path d="M37.7511 11.7084C36.0336 12.6882 34.3229 14.3296 32.8409 17.0583C30.8192 20.7782 19.3796 41.2322 17.255 45.0277C17.0354 45.4191 16.9165 45.6343 16.9165 45.6343C17.2733 45.6435 17.6803 45.6663 18.1286 45.6892C21.2801 45.8381 26.419 45.8289 30.1377 38.9842C31.7249 36.0655 39.1119 22.8408 43.2445 15.449C44.9209 12.4478 46.0644 10.4082 46.0644 10.4082C44.1913 10.3624 40.9575 9.88393 37.7534 11.7084H37.7511Z" fill="white"/>
</svg>
