<svg width="130" height="60" viewBox="0 0 130 60" fill="none" xmlns="http://www.w3.org/2000/svg">
<rect width="130" height="60" fill="white"/>
<g clip-path="url(#clip0_307_39)">
<path d="M53.1237 34.9867C51.9572 34.9867 51.0631 34.7141 50.5532 34.3797V22.2805H51.9418V26.5005C52.3724 26.2762 52.8514 26.1003 53.6992 26.1003C55.6787 26.1003 57.0363 27.7627 57.0363 30.3685C57.0363 33.1348 55.6787 34.9886 53.1237 34.9886V34.9867ZM53.3477 26.9315C52.7085 26.9315 52.3415 27.0436 51.9418 27.2679V33.8693C52.2604 34.0298 52.7085 34.0781 53.1546 34.0781C54.9275 34.0781 55.6304 32.5916 55.6304 30.4169C55.6304 28.5302 54.9757 26.9315 53.3477 26.9315Z" fill="#14625D"/>
<path d="M61.8104 34.9867C59.574 34.9867 58.5371 34.0124 58.5371 32.4447C58.5371 30.1598 60.6767 29.4871 63.3441 29.2165V28.6887C63.3441 27.3626 62.5463 26.978 61.4436 26.978C60.6134 26.978 59.8465 27.2814 59.3677 27.5212L59.0314 26.6899C59.5257 26.4174 60.4839 26.05 61.6659 26.05C63.2629 26.05 64.6667 26.7382 64.6667 28.8472V34.3778C64.012 34.7451 63.0059 34.9848 61.8085 34.9848L61.8104 34.9867ZM63.3441 29.9356C61.1715 30.2081 59.8794 30.6701 59.8794 32.4138C59.8794 33.6606 60.6462 34.1729 61.9225 34.1729C62.4651 34.1729 62.9923 34.0762 63.3441 33.8848V29.9375V29.9356Z" fill="#14625D"/>
<path d="M71.7755 34.826V28.6402C71.7755 27.8418 71.4392 26.9622 69.9716 26.9622C69.1738 26.9622 68.7897 27.0744 68.3436 27.2657V34.826H66.9375V26.6588C67.7044 26.2915 68.7104 26.0518 70.0837 26.0518C72.4786 26.0518 73.1812 27.3779 73.1812 28.6093V34.828H71.7755V34.826Z" fill="#14625D"/>
<path d="M78.3881 34.9865C76.5031 34.9865 75.1147 33.2931 75.1147 30.5114C75.1147 27.7297 76.5031 26.0518 78.4209 26.0518C79.4753 26.0518 80.0489 26.3882 80.3214 26.6278L79.9851 27.4436C79.7304 27.2522 79.3458 27.028 78.707 27.028C77.1423 27.028 76.534 28.4507 76.534 30.465C76.534 32.4793 77.268 33.9504 78.6587 33.9504C79.2497 33.9504 79.6493 33.759 79.9678 33.5348L80.3195 34.4143C79.9832 34.7178 79.3458 34.9903 78.3862 34.9903L78.3881 34.9865Z" fill="#14625D"/>
<path d="M85.0472 34.9865C82.7007 34.9865 81.6772 33.0534 81.6772 30.5269C81.6772 28.0003 82.7143 26.0518 85.0298 26.0518C87.3454 26.0518 88.3998 27.9539 88.3998 30.5269C88.3998 33.0998 87.3783 34.9865 85.0472 34.9865ZM85.0472 26.9468C83.4019 26.9468 83.0829 28.7852 83.0829 30.5269C83.0829 32.2686 83.4347 34.0122 85.0472 34.0122C86.6597 34.0122 86.9955 32.255 86.9955 30.5269C86.9955 28.7987 86.6925 26.9468 85.0472 26.9468Z" fill="#14625D"/>
<path d="M97.5844 34.9867C95.3481 34.9867 94.311 34.0124 94.311 32.4447C94.311 30.1598 96.4507 29.4871 99.1181 29.2165V28.6887C99.1181 27.3626 98.3203 26.978 97.2176 26.978C96.3874 26.978 95.6206 27.2814 95.1417 27.5212L94.8054 26.6899C95.2997 26.4174 96.2598 26.05 97.4399 26.05C99.0369 26.05 100.443 26.7382 100.443 28.8472V34.3778C99.7883 34.7451 98.7818 34.9848 97.5844 34.9848V34.9867ZM99.1181 29.9356C96.9451 30.2081 95.6534 30.6701 95.6534 32.4138C95.6534 33.6606 96.4202 34.1729 97.6965 34.1729C98.2391 34.1729 98.7663 34.0762 99.1181 33.8848V29.9375V29.9356Z" fill="#14625D"/>
<path d="M106.08 27.1377C105.377 26.929 104.579 26.9947 104.116 27.2982V34.8275H102.71V26.6757C103.556 26.2446 104.371 26.0204 106.414 26.0687L106.078 27.1397L106.08 27.1377Z" fill="#14625D"/>
<path d="M110.423 34.9867C109.257 34.9867 108.362 34.7141 107.853 34.3797V22.2805H109.241V26.5005C109.672 26.2762 110.151 26.1003 110.999 26.1003C112.978 26.1003 114.336 27.7627 114.336 30.3685C114.336 33.1348 112.978 34.9886 110.423 34.9886V34.9867ZM110.647 26.9315C110.008 26.9315 109.641 27.0436 109.241 27.2679V33.8693C109.56 34.0298 110.008 34.0781 110.454 34.0781C112.227 34.0781 112.93 32.5916 112.93 30.4169C112.93 28.5302 112.275 26.9315 110.647 26.9315Z" fill="#14625D"/>
<path d="M117.066 24.5476C116.603 24.5476 116.236 24.1958 116.236 23.7802C116.236 23.3646 116.603 22.9973 117.066 22.9973C117.53 22.9973 117.882 23.3491 117.882 23.7802C117.882 24.2113 117.514 24.5476 117.066 24.5476ZM116.363 34.8258V26.2101H117.77V34.8258H116.363Z" fill="#14625D"/>
<path d="M35.5359 14.7432C33.4328 13.7825 31.098 13.2432 28.6356 13.2432C19.4468 13.2432 12 20.6991 12 29.8947C12 35.1469 14.4314 39.8288 18.2263 42.8812C20.0204 39.6742 29.6804 22.404 31.3876 19.2628C32.641 16.9585 34.0836 15.5706 35.534 14.7452L35.5359 14.7432Z" fill="#14625D"/>
<path d="M37.214 23.1946C37.7277 22.2764 30.2712 35.6282 29.1047 37.7758C25.9646 43.5558 21.6251 43.5635 18.9639 43.4378C21.6907 45.3922 25.0279 46.5463 28.6374 46.5463C33.3206 46.5463 37.5481 44.6073 40.5724 41.4893C40.4314 40.7219 38.6412 30.9173 37.2159 23.1946H37.214Z" fill="#14625D"/>
<path d="M45.6017 30.0879C45.4878 29.506 45.2947 28.4873 45.0494 27.1747C45.005 26.9389 44.9586 26.6934 44.9123 26.4401C44.2808 23.0495 43.3731 18.1201 42.5523 13.647C42.5485 13.6528 40.8779 16.6394 38.7053 20.5288C38.2283 21.3832 37.7281 22.2782 37.2144 23.1964C38.6396 30.9191 40.4318 40.7237 40.5708 41.4911C40.5767 41.522 40.5805 41.5413 40.5805 41.5413C42.4886 40.0355 47.0444 37.4625 45.6017 30.0898V30.0879Z" fill="#BBBDBF"/>
<path d="M35.5359 14.7429C34.0855 15.5702 32.641 16.9563 31.3896 19.2605C29.6824 22.4017 20.0223 39.6738 18.2282 42.8789C18.0428 43.2094 17.9424 43.3912 17.9424 43.3912C18.2436 43.3989 18.5874 43.4182 18.9659 43.4375C21.6271 43.5632 25.9666 43.5555 29.1068 37.7756C30.4471 35.3109 36.685 24.1435 40.1747 17.9015C41.5903 15.3673 42.5559 13.6449 42.5559 13.6449C40.9743 13.6062 38.2435 13.2022 35.5378 14.7429H35.5359Z" fill="white"/>
</g>
<defs>
<clipPath id="clip0_307_39">
<rect width="106" height="33.7896" fill="white" transform="translate(12 13)"/>
</clipPath>
</defs>
</svg>
