<svg width="60" height="60" viewBox="0 0 60 60" fill="none" xmlns="http://www.w3.org/2000/svg">
<rect width="60" height="60" fill="url(#paint0_linear_307_37)"/>
<path d="M37.7512 11.709C35.2606 10.5713 32.4956 9.93262 29.5796 9.93262C18.6981 9.93262 9.87939 18.762 9.87939 29.6517C9.87939 35.8715 12.7587 41.4159 17.2527 45.0305C19.3773 41.2328 30.8169 20.7811 32.8386 17.0612C34.3229 14.3325 36.0313 12.6888 37.7489 11.7113L37.7512 11.709Z" fill="#14625D"/>
<path d="M39.7382 21.7173C40.3465 20.63 31.5164 36.4414 30.135 38.9847C26.4163 45.8295 21.2774 45.8386 18.126 45.6898C21.3552 48.0042 25.3071 49.3709 29.5816 49.3709C35.1276 49.3709 40.1338 47.0748 43.7153 43.3823C43.5483 42.4735 41.4283 30.8627 39.7405 21.7173H39.7382Z" fill="#14625D"/>
<path d="M49.6713 29.8805C49.5364 29.1915 49.3076 27.9851 49.0172 26.4307C48.9646 26.1514 48.9097 25.8607 48.8548 25.5608C48.1069 21.5455 47.0321 15.7081 46.0601 10.4109C46.0555 10.4178 44.0772 13.9546 41.5044 18.5605C40.9395 19.5723 40.3471 20.6321 39.7388 21.7195C41.4266 30.8649 43.549 42.4757 43.7136 43.3844C43.7205 43.4211 43.725 43.444 43.725 43.444C45.9846 41.6607 51.3797 38.6138 49.6713 29.8828V29.8805Z" fill="#BBBDBF"/>
<path d="M37.7511 11.7087C36.0336 12.6884 34.3229 14.3298 32.8409 17.0585C30.8192 20.7785 19.3796 41.2324 17.255 45.0279C17.0354 45.4194 16.9165 45.6346 16.9165 45.6346C17.2733 45.6437 17.6803 45.6666 18.1286 45.6895C21.2801 45.8383 26.419 45.8291 30.1377 38.9845C31.7249 36.0657 39.1119 22.841 43.2445 15.4492C44.9209 12.4481 46.0644 10.4084 46.0644 10.4084C44.1913 10.3626 40.9575 9.88418 37.7534 11.7087H37.7511Z" fill="white"/>
<defs>
<linearGradient id="paint0_linear_307_37" x1="30" y1="60" x2="30" y2="-3.51015e-06" gradientUnits="userSpaceOnUse">
<stop stop-color="#0D0D0D"/>
<stop offset="1" stop-color="#3B3B3B"/>
</linearGradient>
</defs>
</svg>
