<svg width="60" height="60" viewBox="0 0 60 60" fill="none" xmlns="http://www.w3.org/2000/svg">
<rect width="60" height="60" fill="#231F20"/>
<g clip-path="url(#clip0_307_79)">
<path d="M48.0825 20.9698H53.0002V16H48.0825V20.9698Z" fill="#A32428"/>
<path d="M19.8826 39.7265C19.6999 39.5638 19.4754 39.4369 19.2096 39.3464C18.9432 39.2564 18.6403 39.2111 18.3003 39.2111H16.8347V42.9309H18.2785C18.6185 42.9309 18.9238 42.8838 19.1931 42.7903C19.463 42.6961 19.6899 42.5662 19.8743 42.3994C20.0588 42.2332 20.2002 42.0354 20.298 41.8071C20.3958 41.5789 20.4442 41.3299 20.4442 41.0606V41.0498C20.4442 40.7805 20.3964 40.5333 20.301 40.3086C20.2049 40.0834 20.0652 39.8898 19.8826 39.7265ZM19.3693 41.0767C19.3693 41.3776 19.2732 41.6093 19.0805 41.7726C18.8884 41.9353 18.6338 42.0169 18.318 42.0169H17.8878V40.1251H18.318C18.6338 40.1251 18.8884 40.2073 19.0805 40.3724C19.2732 40.5368 19.3693 40.768 19.3693 41.0659V41.0767ZM22.2627 32.7178H15.0745C14.3951 32.7178 13.7639 32.4592 13.2978 31.9908C12.8228 31.5166 12.5647 30.7837 12.5647 30.1116V29.6349C12.5647 28.9736 12.821 28.3515 13.2878 27.8844C13.7557 27.4155 14.3768 27.1557 15.038 27.1557H22.2627V22.2013H16.2619C13.728 22.218 7 22.3962 7 29.9412C7 37.485 13.7557 37.5255 16.2979 37.5434L22.2627 37.5452V32.7178ZM7.91871 42.9309H8.97708V39.2111H7.91871V42.9309ZM13.6225 41.1774L12.0556 39.2111H11.0708V42.9309H12.1074V40.8902L13.7345 42.9309H14.6591V39.2111H13.6225V41.1774ZM24.5456 41.3049C24.5456 41.567 24.4826 41.7601 24.3571 41.884C24.2315 42.0079 24.063 42.0699 23.8509 42.0699C23.6393 42.0699 23.4702 42.0056 23.3447 41.8763C23.2191 41.747 23.1561 41.5474 23.1561 41.278V39.2111H22.0812V41.2995C22.0812 41.5903 22.1219 41.8423 22.2038 42.0568C22.2851 42.2713 22.4018 42.4483 22.5538 42.5883C22.7053 42.7283 22.8897 42.832 23.1072 42.8993C23.3246 42.966 23.5686 43 23.8403 43C24.1113 43 24.3565 42.966 24.5757 42.8993C24.7943 42.832 24.9811 42.7283 25.1349 42.5883C25.2887 42.4483 25.4078 42.2689 25.4932 42.0514C25.5781 41.8334 25.6205 41.5742 25.6205 41.2733V39.2111H24.5456V41.3049ZM51.1299 39.2111H50.0768V42.9309H52.9702V42.0276H51.1299V39.2111ZM46.3595 39.1843L44.7419 42.9309H45.8492L46.1203 42.2665H47.5865L47.8628 42.9309H48.9925L47.3743 39.1843H46.3595ZM46.4297 41.4699L46.8587 40.4123L47.2824 41.4699H46.4297ZM42.2469 42.9309H43.3052V39.2111H42.2469V42.9309ZM48.0821 22.2133V27.335H41.525V22.2013H36.6067V31.0488C35.8006 29.993 31.2359 24.5644 30.7816 24.0311C30.3278 23.4985 29.6189 22.7954 28.963 22.5374C28.3089 22.2776 27.5169 22.2013 26.8127 22.2013H23.5038V37.5452H28.4102V28.9199C29.257 29.9001 34.2796 35.5646 34.2796 35.5646C35.0368 36.4947 36.0693 37.0625 36.6698 37.2693C37.3657 37.5094 37.8272 37.5452 38.5608 37.5452H41.525V32.1612H48.0821V37.5452H52.9744V22.2133H48.0821ZM30.2465 41.0052C30.1233 40.917 29.9742 40.8419 29.7986 40.7799C29.623 40.718 29.4268 40.6643 29.2099 40.6185C29.0791 40.5899 28.9718 40.5625 28.8864 40.5362C28.8015 40.5094 28.7343 40.4832 28.686 40.4564C28.6365 40.4302 28.6023 40.401 28.5823 40.3688C28.5629 40.3372 28.5528 40.3003 28.5528 40.2574V40.2473C28.5528 40.1799 28.5841 40.1233 28.6477 40.0775C28.7114 40.0316 28.8062 40.0083 28.9329 40.0083C29.1027 40.0083 29.2794 40.0393 29.4621 40.1013C29.6448 40.1633 29.8228 40.2544 29.9966 40.3748L30.5234 39.6443C30.3172 39.481 30.0862 39.3571 29.831 39.2731C29.5759 39.1891 29.2853 39.1474 28.96 39.1474C28.732 39.1474 28.5275 39.1766 28.3466 39.2349C28.1657 39.2933 28.0107 39.3756 27.8822 39.4816C27.7538 39.5877 27.6559 39.7128 27.5893 39.8582C27.5222 40.0036 27.4886 40.1621 27.4886 40.3354V40.3462C27.4886 40.5368 27.5257 40.6971 27.6 40.8264C27.6742 40.9557 27.7756 41.063 27.904 41.1499C28.0325 41.2363 28.1834 41.3072 28.3572 41.3621C28.531 41.4169 28.719 41.4669 28.9217 41.5134C29.052 41.5414 29.158 41.5688 29.2394 41.5956C29.3207 41.6218 29.3861 41.6493 29.435 41.6779C29.4839 41.7059 29.5169 41.7351 29.5352 41.7654C29.5535 41.7952 29.5623 41.8298 29.5623 41.8685V41.8792C29.5623 41.9609 29.5252 42.0234 29.4509 42.0675C29.3767 42.1116 29.2694 42.1337 29.128 42.1337C28.6866 42.1337 28.2759 41.9853 27.8958 41.6874L27.3094 42.3744C27.5446 42.5811 27.8156 42.736 28.1215 42.8397C28.4267 42.9428 28.7497 42.9946 29.0903 42.9946C29.3219 42.9946 29.5317 42.9672 29.7202 42.9124C29.9082 42.8576 30.0691 42.7778 30.2029 42.6735C30.3366 42.5692 30.4409 42.4429 30.5152 42.2945C30.5894 42.1462 30.6266 41.9764 30.6266 41.7851V41.7744C30.6266 41.6016 30.5936 41.452 30.5287 41.3263C30.4639 41.2006 30.3696 41.0939 30.2465 41.0052ZM40.1083 41.2036C40.2497 41.0159 40.3199 40.7787 40.3199 40.4916V40.4814C40.3199 40.1162 40.2079 39.8272 39.9834 39.6151C39.8567 39.4876 39.6923 39.3881 39.4896 39.3172C39.2868 39.2469 39.0387 39.2111 38.7459 39.2111H36.9491V42.9309H38.0022V41.8042H38.4636L39.2291 42.9309H40.4448L39.5385 41.6344C39.7771 41.5354 39.9675 41.3919 40.1083 41.2036ZM39.2615 40.5559C39.2615 40.6906 39.2126 40.7972 39.1148 40.8771C39.0175 40.9569 38.8779 40.9968 38.697 40.9968H38.0022V40.1037H38.6916C38.869 40.1037 39.0081 40.1406 39.1095 40.2127C39.2108 40.2854 39.2615 40.3962 39.2615 40.5452V40.5559ZM32.0974 40.1144H33.2371V42.9309H34.2902V40.1144H35.4305V39.2111H32.0974V40.1144Z" fill="white"/>
</g>
<defs>
<clipPath id="clip0_307_79">
<rect width="46" height="27" fill="white" transform="translate(7 16)"/>
</clipPath>
</defs>
</svg>
