<svg width="60" height="60" viewBox="0 0 60 60" fill="none" xmlns="http://www.w3.org/2000/svg">
<rect width="60" height="60" fill="white"/>
<path d="M29.5 9.00021C23.3049 8.97344 17.3523 11.4603 12.947 15.9155C8.54184 20.3707 6.04359 26.4308 6.00002 32.767C5.99574 35.8919 6.60153 38.9861 7.78188 41.8684C8.96222 44.7506 10.6934 47.3627 12.8737 49.5516C13.7974 50.4798 15.0406 51 16.3355 51C17.6305 51 18.8736 50.4798 19.7973 49.5516C20.2518 49.0941 20.6128 48.5487 20.8592 47.9471C21.1056 47.3456 21.2325 46.6999 21.2325 46.0476C21.2325 45.3954 21.1056 44.7497 20.8592 44.1482C20.6128 43.5466 20.2518 43.0012 19.7973 42.5437C18.5262 41.2652 17.5167 39.7406 16.8276 38.0589C16.1385 36.3772 15.7836 34.5721 15.7836 32.7486C15.7836 30.9252 16.1385 29.12 16.8276 27.4383C17.5167 25.7566 18.5262 24.2321 19.7973 22.9535C22.3809 20.3539 25.8599 18.897 29.4841 18.897C33.1083 18.897 36.5873 20.3539 39.1709 22.9535C40.4419 24.2321 41.4515 25.7566 42.1406 27.4383C42.8297 29.12 43.1846 30.9252 43.1846 32.7486C43.1846 34.5721 42.8297 36.3772 42.1406 38.0589C41.4515 39.7406 40.4419 41.2652 39.1709 42.5437C38.7163 43.0012 38.3554 43.5466 38.109 44.1482C37.8626 44.7497 37.7357 45.3954 37.7357 46.0476C37.7357 46.6999 37.8626 47.3456 38.109 47.9471C38.3554 48.5487 38.7163 49.0941 39.1709 49.5516C40.0945 50.4798 41.3377 51 42.6326 51C43.9276 51 45.1708 50.4798 46.0944 49.5516C48.2806 47.3654 50.0176 44.7545 51.2035 41.8722C52.3893 38.9898 53.0001 35.8942 53 32.767C52.9564 26.4308 50.4582 20.3707 46.053 15.9155C41.6478 11.4603 35.6951 8.97344 29.5 9.00021Z" fill="url(#paint0_linear_42_190)"/>
<defs>
<linearGradient id="paint0_linear_42_190" x1="6.376" y1="-78.612" x2="192.261" y2="-78.612" gradientUnits="userSpaceOnUse">
<stop stop-color="#00A5F0"/>
<stop offset="1" stop-color="#00D7D7"/>
</linearGradient>
</defs>
</svg>
