<svg width="130" height="60" viewBox="0 0 130 60" fill="none" xmlns="http://www.w3.org/2000/svg">
<rect width="130" height="60" fill="white"/>
<path d="M77.7187 17.0022C74.3089 16.9864 71.0322 18.3385 68.6074 20.7618C66.1825 23.1851 64.8075 26.4818 64.7841 29.9286C64.7852 33.3957 66.1484 36.7205 68.574 39.1717C70.9996 41.623 74.2889 43 77.7187 43C81.1484 43 84.4377 41.623 86.8633 39.1717C89.2889 36.7205 90.6521 33.3957 90.6532 29.9286C90.6298 26.4818 89.2548 23.1851 86.8299 20.7618C84.4051 18.3385 81.1284 16.9864 77.7187 17.0022ZM77.7187 36.7558C76.3861 36.7405 75.0878 36.327 73.9871 35.5675C72.8865 34.8079 72.0327 33.7362 71.5333 32.4872C71.0338 31.2382 70.911 29.8678 71.1803 28.5484C71.4496 27.229 72.0989 26.0197 73.0466 25.0725C73.9943 24.1254 75.198 23.4828 76.5062 23.2257C77.8143 22.9685 79.1685 23.1083 80.3982 23.6275C81.628 24.1466 82.6783 25.0219 83.417 26.1431C84.1558 27.2644 84.5499 28.5815 84.5498 29.9286C84.5448 30.8303 84.364 31.7222 84.018 32.5533C83.6719 33.3844 83.1673 34.1385 82.533 34.7725C81.8987 35.4064 81.147 35.9079 80.321 36.2482C79.4949 36.5885 78.6106 36.761 77.7187 36.7558Z" fill="url(#paint0_linear_42_191)"/>
<path d="M108.365 17.0021C104.507 16.9859 100.8 18.5166 98.0574 21.2587C95.3143 24.0008 93.7587 27.7305 93.7316 31.6302C93.7288 33.5538 94.1061 35.4586 94.8413 37.2329C95.5765 39.0072 96.6548 40.6151 98.0129 41.9625C98.5881 42.5338 99.3623 42.854 100.169 42.854C100.975 42.854 101.749 42.5338 102.324 41.9625C102.608 41.6809 102.832 41.3452 102.986 40.975C103.139 40.6047 103.218 40.2073 103.218 39.8059C103.218 39.4045 103.139 39.007 102.986 38.6368C102.832 38.2665 102.608 37.9309 102.324 37.6493C101.533 36.8624 100.904 35.9241 100.475 34.8891C100.046 33.8542 99.8254 32.7432 99.8254 31.621C99.8254 30.4989 100.046 29.3879 100.475 28.3529C100.904 27.318 101.533 26.3797 102.324 25.5928C103.933 23.9928 106.1 23.0961 108.356 23.0961C110.613 23.0961 112.779 23.9928 114.388 25.5928C115.18 26.3797 115.808 27.318 116.237 28.3529C116.666 29.3879 116.887 30.4989 116.887 31.621C116.887 32.7432 116.666 33.8542 116.237 34.8891C115.808 35.9241 115.18 36.8624 114.388 37.6493C114.105 37.9308 113.88 38.2664 113.727 38.6366C113.574 39.0068 113.494 39.4041 113.494 39.8055C113.494 40.2068 113.574 40.6042 113.727 40.9743C113.88 41.3445 114.105 41.6801 114.388 41.9616C114.963 42.533 115.737 42.8531 116.544 42.8531C117.35 42.8531 118.124 42.533 118.7 41.9616C120.061 40.616 121.143 39.0089 121.881 37.2347C122.62 35.4605 123 33.555 123 31.6302C122.973 27.7302 121.417 24.0002 118.674 21.2581C115.93 18.5159 112.223 16.9854 108.365 17.0021Z" fill="url(#paint1_linear_42_191)"/>
<path d="M21.6342 17.0023C17.7763 16.9858 14.0694 18.5164 11.3262 21.2585C8.58289 24.0006 7.02714 27.7305 7.00001 31.6303C6.99735 33.5536 7.37459 35.458 8.10963 37.232C8.84467 39.0059 9.9227 40.6136 11.2805 41.9609C11.8557 42.5322 12.6299 42.8523 13.4363 42.8523C14.2427 42.8523 15.0168 42.5322 15.592 41.9609C15.8751 41.6793 16.0999 41.3436 16.2533 40.9734C16.4067 40.6031 16.4857 40.2057 16.4857 39.8043C16.4857 39.4028 16.4067 39.0054 16.2533 38.6352C16.0999 38.2649 15.8751 37.9292 15.592 37.6477C14.8005 36.8608 14.1718 35.9224 13.7427 34.8874C13.3136 33.8523 13.0925 32.7413 13.0925 31.619C13.0925 30.4967 13.3136 29.3856 13.7427 28.3506C14.1718 27.3155 14.8005 26.3772 15.592 25.5903C17.2009 23.9903 19.3674 23.0936 21.6243 23.0936C23.8812 23.0936 26.0477 23.9903 27.6566 25.5903C28.4481 26.3772 29.0768 27.3155 29.5059 28.3506C29.935 29.3856 30.156 30.4967 30.156 31.619C30.156 32.7413 29.935 33.8523 29.5059 34.8874C29.0768 35.9224 28.4481 36.8608 27.6566 37.6477C27.3735 37.9292 27.1487 38.2649 26.9953 38.6352C26.8419 39.0054 26.7628 39.4028 26.7628 39.8043C26.7628 40.2057 26.8419 40.6031 26.9953 40.9734C27.1487 41.3436 27.3735 41.6793 27.6566 41.9609C28.2318 42.5322 29.0059 42.8523 29.8123 42.8523C30.6187 42.8523 31.3929 42.5322 31.9681 41.9609C33.3295 40.6153 34.4112 39.0084 35.1497 37.2343C35.8881 35.4603 36.2685 33.555 36.2684 31.6303C36.2413 27.7305 34.6855 24.0006 31.9423 21.2585C29.199 18.5164 25.4921 16.9858 21.6342 17.0023Z" fill="url(#paint2_linear_42_191)"/>
<path d="M61.4469 24.905C61.7238 24.6174 61.9413 24.2769 62.0867 23.9034C62.2321 23.5299 62.3025 23.1309 62.2938 22.7296C62.2852 22.3283 62.1976 21.9328 62.0362 21.5661C61.8748 21.1994 61.6428 20.8688 61.3538 20.5936C59.5254 18.8415 57.2315 17.6661 54.7528 17.2109C52.274 16.7558 49.7178 17.0408 47.3967 18.0309C45.0756 19.0211 43.0902 20.6736 41.6834 22.7863C40.2766 24.899 39.5093 27.3804 39.4753 29.9269C39.5093 32.4735 40.2766 34.9548 41.6834 37.0675C43.0902 39.1802 45.0756 40.8327 47.3967 41.8229C49.7178 42.8131 52.274 43.098 54.7528 42.6429C57.2315 42.1878 59.5254 41.0123 61.3538 39.2602C61.6428 38.9851 61.8748 38.6545 62.0362 38.2878C62.1976 37.921 62.2852 37.5255 62.2938 37.1242C62.3025 36.723 62.2321 36.3239 62.0867 35.9505C61.9413 35.577 61.7238 35.2365 61.4469 34.9488C60.8838 34.365 60.1163 34.0281 59.3098 34.0108C58.5034 33.9935 57.7225 34.2972 57.1354 34.8564C55.833 36.0988 54.1031 36.7796 52.3126 36.7543C50.522 36.7291 48.8116 35.9999 47.5439 34.7213C46.9202 34.0922 46.4253 33.3449 46.0876 32.5222C45.75 31.6996 45.5762 30.8176 45.5762 29.9269C45.5762 29.0362 45.75 28.1543 46.0876 27.3316C46.4253 26.5089 46.9202 25.7616 47.5439 25.1326C48.8116 23.8539 50.522 23.1247 52.3126 23.0995C54.1031 23.0743 55.833 23.755 57.1354 24.9974C57.7225 25.5567 58.5035 25.8604 59.31 25.8429C60.1166 25.8255 60.884 25.4883 61.4469 24.9042V24.905Z" fill="url(#paint3_linear_42_191)"/>
<path d="M52.4251 32.9756C54.109 32.9661 55.4667 31.5941 55.4575 29.9111C55.4483 28.228 54.0757 26.8713 52.3917 26.8807C50.7078 26.8901 49.3501 28.2621 49.3593 29.9452C49.3685 31.6282 50.7411 32.985 52.4251 32.9756Z" fill="url(#paint4_linear_42_191)"/>
<defs>
<linearGradient id="paint0_linear_42_191" x1="7.25098" y1="-37.2385" x2="122.99" y2="-37.2385" gradientUnits="userSpaceOnUse">
<stop stop-color="#00A5F0"/>
<stop offset="1" stop-color="#00D7D7"/>
</linearGradient>
<linearGradient id="paint1_linear_42_191" x1="7.24347" y1="-36.9252" x2="123" y2="-36.9252" gradientUnits="userSpaceOnUse">
<stop stop-color="#00A5F0"/>
<stop offset="1" stop-color="#00D7D7"/>
</linearGradient>
<linearGradient id="paint2_linear_42_191" x1="7.23415" y1="-36.9214" x2="122.991" y2="-36.9214" gradientUnits="userSpaceOnUse">
<stop stop-color="#00A5F0"/>
<stop offset="1" stop-color="#00D7D7"/>
</linearGradient>
<linearGradient id="paint3_linear_42_191" x1="7.25461" y1="-36.9311" x2="122.994" y2="-36.9311" gradientUnits="userSpaceOnUse">
<stop stop-color="#00A5F0"/>
<stop offset="1" stop-color="#00D7D7"/>
</linearGradient>
<linearGradient id="paint4_linear_42_191" x1="6.87965" y1="-36.6798" x2="122.629" y2="-37.3133" gradientUnits="userSpaceOnUse">
<stop stop-color="#00A5F0"/>
<stop offset="1" stop-color="#00D7D7"/>
</linearGradient>
</defs>
</svg>
